<svg width="177" height="177" viewBox="0 0 177 177" fill="none" xmlns="http://www.w3.org/2000/svg">
<circle cx="88.5" cy="88.5" r="88.5" fill="#4353FF"/>
<path d="M88.6163 66.466C90.2318 66.466 91.5415 65.1564 91.5415 63.5409C91.5415 61.9254 90.2318 60.6158 88.6163 60.6158C87.0008 60.6158 85.6912 61.9254 85.6912 63.5409C85.6912 65.1564 87.0008 66.466 88.6163 66.466Z" fill="white"/>
<path d="M97.6982 54.1344C97.4284 54.1344 97.1593 54.0267 96.9607 53.8131C94.7051 51.385 91.7218 50.04 88.5589 50.0257C88.5413 50.0257 88.5243 50.0257 88.5067 50.0257C85.3666 50.0257 82.4186 51.3393 80.2016 53.7281C79.8214 54.1377 79.1838 54.1599 78.7762 53.7791C78.3686 53.3976 78.3464 52.7574 78.7259 52.3479C81.3284 49.5423 84.7996 48 88.506 48C88.5269 48 88.5472 48 88.5674 48C92.2928 48.017 95.7967 49.5913 98.435 52.4308C99.021 53.0612 98.5663 54.1344 97.6982 54.1344Z" fill="white"/>
<path d="M94.2071 58.6581C93.9373 58.6581 93.6682 58.5503 93.4696 58.3367C92.156 56.9218 90.4197 56.1379 88.5809 56.1288C88.5711 56.1288 88.5613 56.1288 88.5515 56.1288C86.7277 56.1288 85.0136 56.8937 83.7222 58.2844C83.3427 58.694 82.7045 58.7162 82.2968 58.3354C81.8892 57.9539 81.867 57.3131 82.2465 56.9041C83.9325 55.0869 86.1848 54.0698 88.59 54.1038C90.9906 54.1155 93.2475 55.128 94.9439 56.9544C95.5299 57.5855 95.0759 58.6581 94.2071 58.6581Z" fill="white"/>
<path d="M80.6752 98.6695C80.6478 98.9465 80.5746 99.0895 80.8947 99.1614C82.1822 99.716 83.7225 99.7761 84.8911 99.0014C85.5666 98.5539 86.4876 99.0856 86.453 99.8897C86.3909 101.361 87.2662 102.718 88.4656 103.572L88.5067 103.601L89.1292 103.141C90.1561 102.382 90.5957 101.145 90.5892 99.8682C90.5853 99.1039 91.4443 98.5964 92.1099 98.9902C93.2426 99.6598 94.5621 99.9322 95.7608 99.39C96.2501 99.1686 96.4173 99.2078 96.3474 98.6094C96.1932 97.2814 95.3943 96.1056 94.2087 95.4648C93.513 95.0879 93.5176 94.0486 94.2166 93.6776C95.4453 93.0276 96.2599 91.8191 96.3957 90.4454C96.4454 89.9398 96.2076 89.9679 95.8026 89.7935C94.5883 89.2709 93.2642 89.5289 92.1027 90.1593C91.4247 90.5277 90.5853 89.9881 90.6173 89.2245C90.6787 87.7535 89.8034 86.3967 88.6041 85.5423L88.5636 85.5135L87.9397 85.9754C86.9135 86.7344 86.4745 87.9703 86.4811 89.2467C86.485 90.0077 85.6306 90.5186 84.9649 90.1273C83.8264 89.4577 82.5016 89.186 81.2977 89.7301C80.7836 89.9627 80.6543 89.9202 80.7222 90.5055C80.8764 91.8329 81.6759 93.0093 82.8609 93.6501C83.5559 94.0264 83.5527 95.0663 82.8531 95.4367C81.625 96.088 80.8111 97.2964 80.6752 98.6695C80.8111 97.2964 80.6478 98.9465 80.6752 98.6695ZM88.5355 91.5565C90.1881 91.5565 91.5331 92.9028 91.5331 94.5568C91.5331 96.2114 90.1881 97.5571 88.5355 97.5571C86.8828 97.5571 85.5372 96.2108 85.5372 94.5568C85.5378 92.9028 86.8828 91.5565 88.5355 91.5565Z" fill="white"/>
<path d="M58.6322 129H118.529C121.91 129 124.714 126.471 125.161 123.198H52C52.4481 126.471 55.2518 129 58.6322 129Z" fill="white"/>
<path d="M88.5354 95.5327C89.0769 95.5327 89.5159 95.0961 89.5159 94.5575C89.5159 94.0189 89.0769 93.5822 88.5354 93.5822C87.9939 93.5822 87.5549 94.0189 87.5549 94.5575C87.5549 95.0961 87.9939 95.5327 88.5354 95.5327Z" fill="white"/>
<path d="M56.4323 121.173H120.729V73.2133H56.4323V121.173ZM90.2498 119.072H84.3407C83.7835 119.072 83.3321 118.618 83.3321 118.059C83.3321 117.5 83.7835 117.047 84.3407 117.047H90.2498C90.8063 117.047 91.2583 117.5 91.2583 118.059C91.2583 118.618 90.8063 119.072 90.2498 119.072ZM88.5808 74.2316C89.3287 74.2316 89.9356 74.8378 89.9356 75.5858C89.9356 76.3337 89.3287 76.9399 88.5808 76.9399C87.8328 76.9399 87.226 76.3337 87.226 75.5858C87.226 74.8378 87.8328 74.2316 88.5808 74.2316ZM59.8343 78.9721C59.8343 78.4129 60.2856 77.9596 60.8428 77.9596H116.319C116.876 77.9596 117.328 78.4129 117.328 78.9721V113.72C117.328 114.28 116.876 114.733 116.319 114.733H60.8428C60.2856 114.733 59.8343 114.28 59.8343 113.72V78.9721Z" fill="white"/>
<path d="M71.4975 112.709C70.7763 108.782 71.246 104.643 72.8804 100.964C72.8869 100.949 72.9 100.936 72.9144 100.929C74.1071 100.363 74.8949 101.362 74.5585 102.17C73.175 105.496 72.836 109.207 73.5571 112.709H86.7908C84.9435 110.273 82.0125 108.84 78.9469 108.975C78.9312 108.976 78.9142 108.969 78.9025 108.959C77.907 108.061 78.5243 106.941 79.3996 106.941C79.4015 106.941 79.4035 106.941 79.4048 106.941C82.4867 106.958 85.4138 108.266 87.5277 110.469V105.385C86.0847 104.359 84.9677 103.121 84.5764 101.337C83.185 101.767 81.6669 101.696 80.3036 101.11L78.4883 100.328C78.4864 100.327 78.4851 100.325 78.4851 100.323L78.6686 98.469C78.8202 96.9379 79.5348 95.5445 80.6492 94.5334C79.5857 93.5476 78.8907 92.2072 78.7202 90.7407L78.4922 88.7771L80.1965 88.0083C81.6062 87.3727 83.1805 87.2937 84.6195 87.7529C84.9448 86.3393 85.7653 85.0668 86.9594 84.1856L88.5434 83.0163L90.057 84.0942C91.3177 84.991 92.1741 86.3079 92.4954 87.7777C93.8868 87.3492 95.4049 87.4197 96.7689 88.0057L98.5842 88.7869C98.5861 88.7876 98.5874 88.7902 98.5874 88.7922L98.4045 90.6454C98.253 92.1778 97.5377 93.5712 96.4233 94.5817C97.4867 95.5674 98.1818 96.9078 98.3523 98.3743L98.5796 100.334C98.5796 100.336 98.5789 100.338 98.577 100.339L96.876 101.107C95.465 101.742 93.8927 101.821 92.4523 101.363C92.0486 103.117 90.946 104.314 89.5442 105.349V110.468C91.658 108.266 94.5845 106.958 97.6664 106.941C98.5489 106.905 99.1806 108.116 98.1393 108.953C98.123 108.966 98.1001 108.974 98.0792 108.974C95.03 108.855 92.1185 110.285 90.2797 112.709H102.822C102.1 108.781 102.571 104.643 104.206 100.962C104.212 100.947 104.225 100.934 104.24 100.928C105.435 100.365 106.219 101.362 105.883 102.17C104.5 105.497 104.161 109.207 104.882 112.709H115.311V79.9847H61.8513V112.708L71.4975 112.709Z" fill="white"/>
</svg>
