<svg width="267" height="267" viewBox="0 0 267 267" fill="none" xmlns="http://www.w3.org/2000/svg">
<rect width="267" height="267" rx="51" fill="url(#paint0_linear_1065_164)"/>
<rect x="7" y="7" width="253" height="253" rx="43" fill="#D9D9D9"/>
<rect x="7" y="7" width="253" height="253" rx="43" fill="url(#paint1_linear_1065_164)"/>
<rect x="11" y="11" width="245" height="245" rx="43" fill="#D9D9D9"/>
<rect x="11" y="11" width="245" height="245" rx="43" fill="url(#paint2_linear_1065_164)"/>
<g style="mix-blend-mode:soft-light">
<path d="M146.489 199C150.821 199 154.599 195.221 154.599 190.889V171.947H160.015C163.265 171.947 165.431 169.78 165.431 166.531V112.43H100.494V166.532C100.494 169.781 102.661 171.947 105.91 171.947H111.326V190.889C111.326 195.222 115.103 199 119.437 199C123.769 199 127.547 195.222 127.547 190.889V171.947H138.378V190.889C138.378 195.221 142.156 199 146.489 199Z" fill="white"/>
<path d="M178.957 166.532C183.29 166.532 187.067 162.754 187.067 158.421V120.537C187.067 116.228 183.29 112.43 178.957 112.43C174.624 112.43 170.847 116.228 170.847 120.537V158.421C170.847 162.753 174.624 166.532 178.957 166.532Z" fill="white"/>
<path d="M86.968 166.532C91.3009 166.532 95.0787 162.754 95.0787 158.421V120.537C95.0787 116.228 91.3014 112.43 86.968 112.43C82.6355 112.43 78.8582 116.228 78.8582 120.537V158.421C78.8582 162.753 82.6355 166.532 86.968 166.532Z" fill="white"/>
<path d="M158.931 70.2397C157.849 69.1501 156.237 69.1501 155.154 70.2397L147.89 77.4791L147.555 77.8138C143.248 75.6571 138.419 74.58 133.042 74.5696C133.015 74.5696 132.99 74.5687 132.963 74.5687H132.962C132.935 74.5687 132.91 74.5696 132.883 74.5696C127.506 74.58 122.677 75.6571 118.37 77.8138L118.034 77.4791L110.771 70.2397C109.687 69.1501 108.076 69.1501 106.994 70.2397C105.91 71.3233 105.91 72.9313 106.994 74.014L114.02 81.0416C111.756 82.5532 109.703 84.4029 107.918 86.5186C103.643 91.5849 100.917 98.1783 100.542 105.322C100.539 105.397 100.532 105.47 100.528 105.544C100.505 106.031 100.494 106.52 100.494 107.011H165.431C165.431 106.52 165.419 106.031 165.397 105.544C165.393 105.47 165.386 105.397 165.382 105.322C165.008 98.1783 162.281 91.5844 158.006 86.519C156.222 84.4034 154.168 82.5536 151.904 81.042L158.931 74.0144C160.015 72.9313 160.015 71.3233 158.931 70.2397ZM119.426 97.5548C117.186 97.5548 115.369 95.7384 115.369 93.4977C115.369 91.2571 117.186 89.4407 119.426 89.4407C121.667 89.4407 123.483 91.2571 123.483 93.4977C123.483 95.7384 121.667 97.5548 119.426 97.5548ZM146.499 97.5548C144.258 97.5548 142.441 95.7384 142.441 93.4977C142.441 91.2571 144.258 89.4407 146.499 89.4407C148.739 89.4407 150.556 91.2571 150.556 93.4977C150.556 95.7384 148.739 97.5548 146.499 97.5548Z" fill="white"/>
</g>
<defs>
<linearGradient id="paint0_linear_1065_164" x1="133.5" y1="0" x2="133.5" y2="267" gradientUnits="userSpaceOnUse">
<stop stop-color="#6D7AFF"/>
<stop offset="0.435" stop-color="#2631AB"/>
<stop offset="1" stop-color="#4353FF"/>
</linearGradient>
<linearGradient id="paint1_linear_1065_164" x1="236.5" y1="249.5" x2="21" y2="32.5" gradientUnits="userSpaceOnUse">
<stop stop-color="#6D7AFF"/>
<stop offset="0.435" stop-color="#2631AB"/>
<stop offset="1" stop-color="#4353FF"/>
</linearGradient>
<linearGradient id="paint2_linear_1065_164" x1="133.5" y1="11" x2="87" y2="268" gradientUnits="userSpaceOnUse">
<stop stop-color="#4353FF"/>
<stop offset="1" stop-color="#6D7AFF"/>
</linearGradient>
</defs>
</svg>
