<svg width="177" height="177" viewBox="0 0 177 177" fill="none" xmlns="http://www.w3.org/2000/svg">
<circle cx="88.5" cy="88.5" r="88.5" fill="#4353FF"/>
<path d="M125 47H86C82.6863 47 80 49.6863 80 53V74C80 77.3137 82.6863 80 86 80H125C128.314 80 131 77.3137 131 74V53C131 49.6863 128.314 47 125 47ZM97.332 68.252C98.022 68.7119 98.208 69.6436 97.748 70.332C97.4595 70.7656 96.9834 71 96.4985 71C96.2129 71 95.9243 70.918 95.668 70.748L86.668 64.748C86.2505 64.4697 86 64.001 86 63.5C86 62.999 86.2505 62.5303 86.668 62.252L95.668 56.252C96.3564 55.792 97.2881 55.9766 97.748 56.668C98.208 57.3564 98.022 58.2881 97.332 58.748L90.2041 63.5L97.332 68.252ZM109.841 58.1709L103.841 70.1709C103.578 70.6953 103.049 71 102.498 71C102.272 71 102.044 70.9502 101.829 70.8418C101.087 70.4697 100.787 69.5703 101.158 68.8291L107.158 56.8291C107.53 56.0908 108.428 55.7832 109.17 56.1582C109.912 56.5303 110.212 57.4297 109.841 58.1709ZM124.332 64.749L115.332 70.749C115.076 70.9189 114.787 71.0009 114.501 71.0009C114.017 71.0009 113.541 70.7665 113.252 70.3329C112.792 69.6445 112.978 68.7128 113.668 68.2529L120.796 63.5009L113.668 58.749C112.978 58.289 112.792 57.3574 113.252 56.6689C113.71 55.9775 114.638 55.7929 115.332 56.2529L124.332 62.2529C124.75 62.5312 125 62.9999 125 63.5009C125 64.0019 124.75 64.4706 124.332 64.749Z" fill="white"/>
<path d="M99.9744 100.658L94.3148 98.7716C93.8166 96.8373 93.0543 95.0135 92.0601 93.3359L94.7297 87.9964C95.0185 87.4189 94.9053 86.7214 94.4487 86.265L91.735 83.5513C91.2786 83.0947 90.5811 82.9815 90.0036 83.2703L84.6641 85.9399C82.9865 84.9457 81.1627 84.1834 79.2284 83.6852L77.3419 78.0256C77.1377 77.4131 76.5646 77 75.9189 77H72.0811C71.4354 77 70.8623 77.4131 70.6581 78.0256L68.7716 83.6852C66.8373 84.1834 65.0135 84.9457 63.3359 85.9399L57.9964 83.2703C57.4189 82.9815 56.7214 83.0947 56.265 83.5513L53.5513 86.265C53.0947 86.7214 52.9815 87.4189 53.2703 87.9964L55.9399 93.3359C54.9457 95.0135 54.1834 96.8373 53.6852 98.7716L48.0256 100.658C47.4131 100.862 47 101.435 47 102.081V105.919C47 106.565 47.4131 107.138 48.0256 107.342L53.6852 109.228C54.1834 111.163 54.9457 112.986 55.9399 114.664L53.2703 120.004C52.9815 120.581 53.0947 121.279 53.5513 121.735L56.265 124.449C56.7214 124.905 57.4189 125.018 57.9964 124.73L63.3359 122.06C65.0135 123.054 66.8373 123.817 68.7716 124.315L70.6581 129.974C70.8623 130.587 71.4354 131 72.0811 131H75.9189C76.5646 131 77.1377 130.587 77.3419 129.974L79.2284 124.315C81.1627 123.817 82.9865 123.054 84.6641 122.06L90.0036 124.73C90.5811 125.018 91.2786 124.905 91.735 124.449L94.4487 121.735C94.9053 121.279 95.0185 120.581 94.7297 120.004L92.0601 114.664C93.0543 112.986 93.8166 111.163 94.3148 109.228L99.9744 107.342C100.587 107.138 101 106.565 101 105.919V102.081C101 101.435 100.587 100.862 99.9744 100.658ZM74 116C67.3725 116 62 110.628 62 104C62 97.3725 67.3725 92 74 92C80.6275 92 86 97.3725 86 104C86 110.628 80.6275 116 74 116Z" fill="white"/>
<path d="M74 113C78.9706 113 83 108.971 83 104C83 99.0294 78.9706 95 74 95C69.0294 95 65 99.0294 65 104C65 108.971 69.0294 113 74 113Z" fill="white"/>
</svg>
