<svg width="177" height="177" viewBox="0 0 177 177" fill="none" xmlns="http://www.w3.org/2000/svg">
<circle cx="88.5" cy="88.5" r="88.5" fill="#4353FF"/>
<path d="M80.7435 64.8215C80.7435 62.6999 82.4817 60.975 84.6197 60.975C86.7577 60.975 88.4959 62.6999 88.4959 64.8215C88.4959 66.9431 86.7577 68.6679 84.6197 68.6679C82.4817 68.6679 80.7435 66.9389 80.7435 64.8215ZM68.8877 88.2303H59.7297C59.1321 88.2303 58.6523 88.7106 58.6523 89.2995C58.6523 89.8883 59.1363 90.3686 59.7297 90.3686H68.8877C69.4853 90.3686 69.9651 89.8883 69.9651 89.2995C69.9651 88.7106 69.4853 88.2303 68.8877 88.2303ZM71.8211 84.1166H56.7967C56.2033 84.1166 55.7193 84.5969 55.7193 85.1857C55.7193 85.7746 56.2033 86.2549 56.7967 86.2549H71.8168C72.4145 86.2549 72.8943 85.7746 72.8943 85.1857C72.8985 84.5969 72.4146 84.1166 71.8211 84.1166ZM74.0475 73.7509L74.2285 73.8971L74.2074 74.1268C74.0896 75.363 73.0417 76.3152 71.7875 76.3152H56.8255C55.4829 76.3152 54.3971 75.2336 54.3971 73.9055C54.3971 71.6294 53.6269 69.6164 52.1034 67.9124C49.4562 64.9514 48 61.1385 48 57.1836C48 48.2629 55.3146 41 64.3044 41C72.1536 41 79.0132 46.709 80.3643 54.3857L80.3895 54.5318L80.318 54.6613C80.0823 55.0956 79.7372 55.4548 79.3079 55.7012C78.483 56.1773 77.4561 56.1731 76.6312 55.697C75.6338 55.1249 74.3922 55.3587 73.6767 56.2567C72.8434 57.3007 72.1701 58.4618 71.6692 59.698C71.2399 60.763 71.6566 61.9449 72.6582 62.517C73.4873 62.9889 74.0008 63.8701 74.0008 64.8181C74.0008 65.7662 73.4831 66.6473 72.6582 67.1192C71.6566 67.6914 71.2441 68.8774 71.6692 69.9382C72.1658 71.1744 72.8434 72.3355 73.6767 73.3796C73.7862 73.5216 73.9128 73.6424 74.0475 73.7509ZM61.9396 46.8973C61.8386 46.559 61.4808 46.3628 61.1357 46.463C56.8303 47.7201 53.6906 51.3869 53.1393 55.8096C53.0972 56.1604 53.3455 56.482 53.6991 56.5238H53.7159C53.7369 56.528 53.758 56.528 53.779 56.528C54.1031 56.528 54.3767 56.2857 54.4187 55.9683C54.9027 52.0551 57.6846 48.8101 61.4976 47.6992C61.8427 47.5948 62.0406 47.2398 61.9396 46.8973ZM71.8215 79.999H56.797C56.2036 79.999 55.7196 80.4793 55.7196 81.0682C55.7196 81.657 56.2036 82.1373 56.797 82.1373H71.8172C72.4148 82.1373 72.8946 81.657 72.8946 81.0682C72.8988 80.4793 72.4149 79.999 71.8215 79.999ZM77.9744 72.3062C77.2758 72.3062 76.5898 72.49 75.9837 72.8366C75.546 73.0872 75.0073 72.987 74.6959 72.5902C73.9425 71.6422 73.3239 70.5897 72.8736 69.4704C72.6842 69.0027 72.8694 68.489 73.307 68.2385C74.5317 67.5368 75.2978 66.2297 75.2978 64.8222C75.2978 63.419 74.5318 62.1076 73.307 61.4102C72.8694 61.1596 72.6842 60.6459 72.8736 60.1782C73.3239 59.0548 73.9426 58.0066 74.6959 57.0543C75.0073 56.6617 75.5502 56.5573 75.9837 56.8079C77.2084 57.5095 78.732 57.5137 79.9567 56.8121C81.1814 56.1104 81.9432 54.7991 81.9432 53.3958C81.9432 52.8905 82.3009 52.4812 82.806 52.4102C84.0012 52.239 85.2427 52.239 86.438 52.4102C86.9388 52.4812 87.3008 52.8947 87.2966 53.3958C87.2966 54.8033 88.0541 56.1105 89.2831 56.8121C90.5078 57.5137 92.0313 57.5137 93.256 56.8079C93.6937 56.5573 94.2324 56.6617 94.5481 57.0543C95.3014 58.0023 95.9158 59.0548 96.3662 60.174C96.5556 60.6418 96.3746 61.1555 95.9327 61.406C94.7038 62.1076 93.942 63.4148 93.942 64.8181C93.942 66.2255 94.708 67.5327 95.9327 68.2301C96.3704 68.4807 96.5514 68.9986 96.3662 69.4621C95.9117 70.5856 95.3014 71.6337 94.5481 72.5819C94.2366 72.9744 93.6937 73.0788 93.256 72.8283C92.0313 72.1266 90.5078 72.1225 89.2831 72.8283C88.0584 73.5299 87.2966 74.8413 87.2966 76.2445C87.2966 76.7457 86.9388 77.1591 86.438 77.2301C85.2427 77.4014 84.0012 77.4014 82.806 77.2301C82.3009 77.1591 81.9432 76.7498 81.9432 76.2445C81.9432 74.8413 81.1814 73.5298 79.9567 72.8283C79.3548 72.4858 78.6688 72.3062 77.9744 72.3062ZM79.4475 64.8222C79.4475 67.6496 81.7664 69.9508 84.6157 69.9508C87.4691 69.9508 89.7839 67.6497 89.7839 64.8222C89.7839 61.9948 87.465 59.6937 84.6157 59.6937C81.7665 59.6895 79.4475 61.9906 79.4475 64.8222ZM76.514 122.398H128.996V126.595C128.996 131.782 124.741 136 119.518 136H85.9921C80.7691 136 76.5142 131.782 76.5142 126.595L76.514 122.398ZM97.4061 128.804C97.4061 129.159 97.6965 129.447 98.0542 129.447H107.461C107.818 129.447 108.109 129.159 108.109 128.804C108.109 128.449 107.818 128.161 107.461 128.161H98.0542C97.6922 128.165 97.4061 128.453 97.4061 128.804ZM95.9246 97.5104C95.7857 97.2765 95.5711 97.1512 95.2933 97.1512C95.0198 97.1512 94.8009 97.2765 94.662 97.5104L90.3398 104.936C90.2051 105.17 90.2051 105.42 90.3398 105.654C90.4745 105.892 90.6975 106.018 90.9753 106.018H99.6156C99.8891 106.018 100.108 105.892 100.247 105.658C100.386 105.425 100.386 105.174 100.247 104.936L95.9246 97.5104ZM129 55.7305V121.115H76.514V74.0096L76.7455 73.8885C77.5493 73.475 78.5215 73.4917 79.3085 73.9428C80.1376 74.4147 80.6469 75.3 80.6469 76.248C80.6469 77.3965 81.4718 78.3403 82.6165 78.5075C83.2773 78.6035 83.9465 78.6494 84.6156 78.6494C85.2848 78.6494 85.954 78.6035 86.619 78.5075C87.7637 78.3404 88.5928 77.3965 88.5886 76.248C88.5886 75.3 89.0978 74.4188 89.9269 73.9428C90.7518 73.4708 91.7788 73.4708 92.6037 73.9469C93.6011 74.5191 94.8426 74.281 95.5581 73.3873C96.3914 72.3432 97.069 71.1822 97.5657 69.9459C97.9949 68.881 97.5783 67.6949 96.5766 67.1269C95.7475 66.655 95.2341 65.7738 95.2341 64.8258C95.2341 63.8778 95.7475 62.9966 96.5766 62.5247C97.5783 61.9525 97.9907 60.7665 97.5657 59.7057C97.069 58.4696 96.3915 57.3085 95.5581 56.2644C94.8427 55.3664 93.6011 55.1326 92.6037 55.7047C91.7788 56.1767 90.7561 56.1808 89.9269 55.7089C89.0978 55.237 88.5886 54.3516 88.5886 53.4036C88.5886 52.2551 87.7637 51.3071 86.619 51.1442C85.2974 50.9563 83.9339 50.9563 82.6166 51.1442C82.2378 51.1985 81.8759 51.3447 81.5687 51.5702L81.1015 51.9168L80.9079 51.3697C80.6217 50.5637 80.2724 49.7785 79.8642 49.0226L79.7 48.7136L79.9694 48.4922C81.6697 47.0932 83.7782 46.3331 85.9919 46.3331H119.518C124.745 46.3248 129 50.5434 129 55.7305ZM110.225 81.1354C107.094 81.1354 104.552 83.6621 104.552 86.7651C104.552 89.8722 107.098 92.3989 110.225 92.3989C113.356 92.3989 115.902 89.8722 115.902 86.7651C115.907 83.6621 113.356 81.1354 110.225 81.1354ZM98.0493 54.0391H107.456C107.813 54.0391 108.104 53.7509 108.104 53.3959C108.104 53.0409 107.813 52.7528 107.456 52.7528H98.0493C97.6915 52.7528 97.4011 53.0409 97.4011 53.3959C97.4054 53.7509 97.6915 54.0391 98.0493 54.0391ZM88.9628 90.1397C88.9628 91.7434 90.276 93.0507 91.8963 93.0507H98.6974C100.314 93.0507 101.631 91.7434 101.631 90.1397V83.3949C101.631 81.7912 100.314 80.484 98.6974 80.484H91.8963C90.2802 80.484 88.9628 81.7912 88.9628 83.3949V90.1397ZM101.366 104.297L97.0142 96.8175C96.6438 96.2202 96.0041 95.8653 95.2928 95.8653C94.5605 95.8653 93.9081 96.2411 93.542 96.8676L89.2198 104.293C88.8536 104.92 88.8536 105.671 89.2198 106.298C89.5859 106.928 90.2383 107.3 90.9706 107.3H99.6109C100.343 107.3 100.996 106.924 101.362 106.298C101.732 105.671 101.732 104.924 101.366 104.297ZM116.563 98.2124C116.563 96.6045 115.245 95.3014 113.629 95.3014H106.828C105.212 95.3014 103.895 96.6087 103.895 98.2124V104.957C103.895 106.561 105.208 107.868 106.828 107.868H113.629C115.25 107.868 116.563 106.561 116.563 104.957V98.2124ZM113.625 96.5836H106.824C105.919 96.5836 105.183 97.3145 105.183 98.2124V104.957C105.183 105.855 105.915 106.586 106.824 106.586H113.625C114.53 106.586 115.266 105.855 115.266 104.957V98.2124C115.266 97.3145 114.53 96.5836 113.625 96.5836ZM91.896 91.7725H98.6971C99.602 91.7725 100.338 91.0416 100.338 90.1438V83.399C100.338 82.5011 99.6019 81.7703 98.6971 81.7703H91.896C90.9911 81.7703 90.2589 82.5011 90.2589 83.399V90.1438C90.2546 91.0375 90.9912 91.7725 91.896 91.7725ZM110.225 91.1168C112.645 91.1168 114.61 89.1665 114.61 86.7651C114.61 84.3679 112.645 82.4175 110.225 82.4175C107.809 82.4175 105.844 84.3679 105.844 86.7651C105.844 89.1665 107.809 91.1168 110.225 91.1168Z" fill="white"/>
</svg>
