<svg width="177" height="177" viewBox="0 0 177 177" fill="none" xmlns="http://www.w3.org/2000/svg">
<circle cx="88.5" cy="88.5" r="88.5" fill="#4353FF"/>
<path d="M96.2824 76.0232C94.2582 74.2171 91.716 73.2493 89.024 73.2493C88.6116 73.2493 88.1891 73.2732 87.7631 73.3209C82.7606 73.8661 78.6267 78.0712 78.153 83.0976C77.8498 86.3315 78.9777 89.4939 81.2439 91.7975C83.4248 94.0023 84.9753 96.4013 85.8852 98.9231L85.9465 99.0935C86.1169 99.5774 86.5769 99.9045 87.0847 99.9045H90.9389C91.4466 99.9045 91.9067 99.5774 92.0771 99.1037L92.1486 98.9095C93.0687 96.3162 94.6192 93.9069 96.6331 91.9441C98.7528 89.8722 99.9182 87.1085 99.9182 84.154C99.9182 81.053 98.5963 78.0951 96.2824 76.0232ZM91.4366 90.2133H86.5908C85.9229 90.2133 85.3777 89.668 85.3777 89.0002C85.3777 88.3323 85.9229 87.787 86.5908 87.787H91.4366C92.1045 87.787 92.6498 88.3323 92.6498 89.0002C92.6498 89.668 92.1045 90.2133 91.4366 90.2133Z" fill="white"/>
<path d="M121.946 90.2132C122.443 91.6172 123.786 92.6361 125.364 92.6361C127.364 92.6361 129 91.0004 129 89C129 86.9996 127.364 85.3639 125.364 85.3639C123.79 85.3639 122.443 86.3829 121.946 87.7868H113.246V81.7279H118.092C118.76 81.7279 119.305 81.1861 119.305 80.5148C119.305 79.8468 118.763 79.3016 118.092 79.3016H113.246V74.4558H119.305C119.625 74.4558 119.935 74.3263 120.16 74.1014L126.219 68.0425C126.448 67.8142 126.574 67.5075 126.574 67.1872V65.756C127.978 65.2584 128.996 63.9158 128.996 62.338C128.996 60.3376 127.361 58.7019 125.36 58.7019C123.36 58.7019 121.724 60.3376 121.724 62.338C121.724 63.9124 122.743 65.2584 124.147 65.756V66.6829L118.8 72.0296H113.242V70.8164C113.242 67.4735 110.53 64.7575 107.184 64.7575H105.97V59.1995L111.317 53.8528H112.244C112.742 55.2568 114.084 56.2757 115.662 56.2757C117.662 56.2757 119.298 54.64 119.298 52.6396C119.298 50.6393 117.662 49.0036 115.662 49.0036C114.088 49.0036 112.742 50.0225 112.244 51.4264H110.813C110.492 51.4264 110.182 51.5559 109.957 51.7808L103.899 57.8397C103.67 58.068 103.544 58.3747 103.544 58.6951V64.754H98.6984V59.9082C98.6984 59.2403 98.1566 58.6951 97.4852 58.6951C96.8173 58.6951 96.2721 59.2369 96.2721 59.9082V64.754H90.2132V56.054C91.6172 55.5565 92.6361 54.2138 92.6361 52.6361C92.6361 50.6357 91.0004 49 89 49C86.9996 49 85.3639 50.6357 85.3639 52.6361C85.3639 54.2104 86.3829 55.5565 87.7868 56.054V64.754H81.7279V59.9082C81.7279 59.2403 81.1861 58.6951 80.5147 58.6951C79.8468 58.6951 79.3016 59.2369 79.3016 59.9082V64.754H74.4558V58.6951C74.4558 58.3747 74.3263 58.0646 74.1014 57.8397L68.0425 51.7808C67.8142 51.5525 67.5075 51.4264 67.1872 51.4264H65.756C65.2584 50.0224 63.9158 49.0036 62.338 49.0036C60.3376 49.0036 58.7019 50.6393 58.7019 52.6396C58.7019 54.64 60.3376 56.2757 62.338 56.2757C63.9124 56.2757 65.2584 55.2567 65.756 53.8528H66.6829L72.0296 59.1995V64.7575H70.8164C67.4735 64.7575 64.7575 67.4701 64.7575 70.8164V72.0296H59.1995L53.8528 66.6829V65.756C55.2568 65.2584 56.2757 63.9158 56.2757 62.338C56.2757 60.3376 54.64 58.7019 52.6396 58.7019C50.6393 58.7019 49.0036 60.3376 49.0036 62.338C49.0036 63.9124 50.0225 65.2584 51.4264 65.756V67.1872C51.4264 67.5075 51.5559 67.8176 51.7808 68.0425L57.8397 74.1014C58.068 74.3298 58.3747 74.4558 58.6951 74.4558H64.754V79.3016H59.9082C59.2403 79.3016 58.6951 79.8435 58.6951 80.5148C58.6951 81.1827 59.2369 81.7279 59.9082 81.7279H64.754V87.7868H56.054C55.5565 86.3828 54.2138 85.3639 52.6361 85.3639C50.6357 85.3639 49 86.9996 49 89C49 91.0004 50.6357 92.6361 52.6361 92.6361C54.2104 92.6361 55.5565 91.6171 56.054 90.2132H64.754V96.2721H59.9082C59.2403 96.2721 58.6951 96.8139 58.6951 97.4852C58.6951 98.1532 59.2369 98.6984 59.9082 98.6984H64.754V103.544H58.6951C58.3747 103.544 58.0646 103.674 57.8397 103.899L51.7808 109.957C51.5525 110.186 51.4264 110.492 51.4264 110.813V112.244C50.0224 112.742 49.0036 114.084 49.0036 115.662C49.0036 117.662 50.6393 119.298 52.6396 119.298C54.64 119.298 56.2757 117.662 56.2757 115.662C56.2757 114.088 55.2567 112.742 53.8528 112.244V111.317L59.1995 105.97H64.7575V107.184C64.7575 110.527 67.4701 113.242 70.8164 113.242H72.0296V118.8L66.6829 124.147H65.756C65.2584 122.743 63.9158 121.724 62.338 121.724C60.3376 121.724 58.7019 123.36 58.7019 125.36C58.7019 127.361 60.3376 128.996 62.338 128.996C63.9124 128.996 65.2584 127.978 65.756 126.574H67.1872C67.5075 126.574 67.8176 126.444 68.0425 126.219L74.1014 120.16C74.3298 119.932 74.4558 119.625 74.4558 119.305V113.246H79.3016V118.092C79.3016 118.76 79.8434 119.305 80.5147 119.305C81.1827 119.305 81.7279 118.763 81.7279 118.092V113.246H87.7868V121.946C86.3828 122.443 85.3639 123.786 85.3639 125.364C85.3639 127.364 86.9996 129 89 129C91.0004 129 92.6361 127.364 92.6361 125.364C92.6361 123.79 91.6171 122.443 90.2132 121.946V113.246H96.2721V118.092C96.2721 118.76 96.8139 119.305 97.4852 119.305C98.1532 119.305 98.6984 118.763 98.6984 118.092V113.246H103.544V119.305C103.544 119.625 103.674 119.935 103.899 120.16L109.957 126.219C110.186 126.448 110.492 126.574 110.813 126.574H112.244C112.742 127.978 114.084 128.996 115.662 128.996C117.662 128.996 119.298 127.361 119.298 125.36C119.298 123.36 117.662 121.724 115.662 121.724C114.088 121.724 112.742 122.743 112.244 124.147H111.317L105.97 118.8V113.242H107.184C110.527 113.242 113.242 110.53 113.242 107.184V105.97H118.8L124.147 111.317V112.244C122.743 112.742 121.724 114.084 121.724 115.662C121.724 117.662 123.36 119.298 125.36 119.298C127.361 119.298 128.996 117.662 128.996 115.662C128.996 114.088 127.978 112.742 126.574 112.244V110.813C126.574 110.492 126.444 110.182 126.219 109.957L120.16 103.899C119.932 103.67 119.625 103.544 119.305 103.544H113.246V98.6984H118.092C118.76 98.6984 119.305 98.1566 119.305 97.4852C119.305 96.8173 118.763 96.2721 118.092 96.2721H113.246V90.2132H121.946ZM125.364 87.787C126.032 87.787 126.577 88.3322 126.577 89.0001C126.577 89.668 126.032 90.2132 125.364 90.2132C124.696 90.2132 124.151 89.668 124.151 89.0001C124.151 88.3322 124.696 87.787 125.364 87.787ZM125.364 61.1315C126.032 61.1315 126.577 61.6768 126.577 62.3446C126.577 63.0126 126.032 63.5578 125.364 63.5578C124.696 63.5578 124.151 63.0125 124.151 62.3446C124.151 61.6767 124.696 61.1315 125.364 61.1315ZM115.669 51.4403C116.337 51.4403 116.882 51.9855 116.882 52.6534C116.882 53.3213 116.337 53.8665 115.669 53.8665C115.001 53.8665 114.456 53.3213 114.456 52.6534C114.456 51.9855 115.001 51.4403 115.669 51.4403ZM89.0138 51.4403C89.6817 51.4403 90.2269 51.9855 90.2269 52.6534C90.2269 53.3213 89.6817 53.8665 89.0138 53.8665C88.3459 53.8665 87.8007 53.3213 87.8007 52.6534C87.8007 51.9855 88.3459 51.4403 89.0138 51.4403ZM62.3583 53.8631C61.6904 53.8631 61.1452 53.3179 61.1452 52.65C61.1452 51.9821 61.6904 51.4369 62.3583 51.4369C63.0263 51.4369 63.5715 51.9821 63.5715 52.65C63.5715 53.3179 63.0262 53.8631 62.3583 53.8631ZM52.6636 61.1318C53.3315 61.1318 53.8768 61.677 53.8768 62.3449C53.8768 63.0128 53.3315 63.558 52.6636 63.558C51.9957 63.558 51.4505 63.0128 51.4505 62.3449C51.4505 61.677 51.9957 61.1318 52.6636 61.1318ZM52.6636 90.2133C51.9957 90.2133 51.4505 89.6681 51.4505 89.0002C51.4505 88.3323 51.9957 87.7871 52.6636 87.7871C53.3315 87.7871 53.8768 88.3323 53.8768 89.0002C53.8768 89.6681 53.3315 90.2133 52.6636 90.2133ZM52.6636 116.869C51.9957 116.869 51.4505 116.324 51.4505 115.656C51.4505 114.988 51.9957 114.442 52.6636 114.442C53.3315 114.442 53.8768 114.988 53.8768 115.656C53.8768 116.324 53.3315 116.869 52.6636 116.869ZM62.3583 126.56C61.6904 126.56 61.1452 126.015 61.1452 125.347C61.1452 124.679 61.6904 124.134 62.3583 124.134C63.0263 124.134 63.5715 124.679 63.5715 125.347C63.5715 126.015 63.0262 126.56 62.3583 126.56ZM89.0138 126.56C88.3459 126.56 87.8007 126.015 87.8007 125.347C87.8007 124.679 88.3459 124.134 89.0138 124.134C89.6817 124.134 90.2269 124.679 90.2269 125.347C90.2269 126.015 89.6817 126.56 89.0138 126.56ZM115.669 124.137C116.337 124.137 116.882 124.682 116.882 125.35C116.882 126.018 116.337 126.563 115.669 126.563C115.001 126.563 114.456 126.018 114.456 125.35C114.456 124.682 115.001 124.137 115.669 124.137ZM125.364 116.868C124.696 116.868 124.151 116.323 124.151 115.655C124.151 114.987 124.696 114.442 125.364 114.442C126.032 114.442 126.577 114.987 126.577 115.655C126.577 116.323 126.032 116.868 125.364 116.868ZM85.3777 105.964C85.3777 105.296 85.923 104.751 86.5908 104.751H91.4366C92.1045 104.751 92.6498 105.296 92.6498 105.964C92.6498 106.632 92.1045 107.177 91.4366 107.177H86.5908C85.9229 107.177 85.3777 106.632 85.3777 105.964ZM98.3308 93.6755C96.586 95.3827 95.2297 97.4785 94.4289 99.7208L94.3675 99.915C93.8462 101.356 92.466 102.328 90.9394 102.328H87.0852C85.5586 102.328 84.1785 101.36 83.657 99.915L83.5957 99.7344C82.8187 97.5535 81.4523 95.4578 79.5234 93.4949C76.7496 90.6972 75.3661 86.8193 75.7443 82.8694C76.327 76.6299 81.2682 71.6001 87.4978 70.9117C91.2907 70.4892 95.0834 71.6989 97.9053 74.2207C100.717 76.7526 102.339 80.375 102.339 84.1579C102.339 87.7701 100.907 91.1505 98.3278 93.6825L98.3308 93.6755Z" fill="white"/>
</svg>
