<svg width="267" height="267" viewBox="0 0 267 267" fill="none" xmlns="http://www.w3.org/2000/svg">
<rect width="267" height="267" rx="51" fill="url(#paint0_linear_1065_199)"/>
<rect x="7" y="7" width="253" height="253" rx="43" fill="#D9D9D9"/>
<rect x="7" y="7" width="253" height="253" rx="43" fill="url(#paint1_linear_1065_199)"/>
<rect x="11" y="11" width="245" height="245" rx="43" fill="#D9D9D9"/>
<rect x="11" y="11" width="245" height="245" rx="43" fill="url(#paint2_linear_1065_199)"/>
<g style="mix-blend-mode:soft-light">
<path d="M105.866 122.504C105.866 124.083 106.036 125.363 106.335 126.301C106.676 127.24 107.103 128.264 107.7 129.373C107.914 129.715 107.999 130.056 107.999 130.355C107.999 130.781 107.743 131.208 107.188 131.635L104.5 133.427C104.116 133.683 103.732 133.811 103.391 133.811C102.964 133.811 102.538 133.597 102.111 133.213C101.514 132.573 101.002 131.891 100.575 131.208C100.148 130.483 99.7216 129.672 99.2523 128.691C95.9243 132.616 91.7429 134.579 86.7082 134.579C83.1242 134.579 80.2655 133.555 78.1749 131.507C76.0842 129.459 75.0175 126.728 75.0175 123.315C75.0175 119.688 76.2975 116.744 78.9002 114.525C81.5029 112.307 84.9589 111.197 89.3536 111.197C90.8043 111.197 92.2976 111.325 93.8763 111.539C95.4549 111.752 97.0763 112.093 98.783 112.477V109.363C98.783 106.12 98.1003 103.859 96.7776 102.536C95.4123 101.213 93.1083 100.573 89.8229 100.573C88.3296 100.573 86.7936 100.744 85.2149 101.128C83.6362 101.512 82.1002 101.981 80.6069 102.579C79.9242 102.877 79.4122 103.048 79.1135 103.133C78.8149 103.219 78.6015 103.261 78.4309 103.261C77.8335 103.261 77.5349 102.835 77.5349 101.939V99.8479C77.5349 99.1652 77.6202 98.6532 77.8335 98.3545C78.0469 98.0559 78.4309 97.7572 79.0282 97.4585C80.5215 96.6905 82.3135 96.0505 84.4042 95.5385C86.4949 94.9839 88.7136 94.7279 91.0603 94.7279C96.1376 94.7279 99.8496 95.8799 102.239 98.1839C104.586 100.488 105.78 103.987 105.78 108.68V122.504H105.866ZM88.5429 128.989C89.9509 128.989 91.4016 128.733 92.9376 128.221C94.4736 127.709 95.8389 126.771 96.9909 125.491C97.6736 124.68 98.1856 123.784 98.4416 122.76C98.6976 121.736 98.8683 120.499 98.8683 119.048V117.256C97.631 116.957 96.3083 116.701 94.9429 116.531C93.5776 116.36 92.2549 116.275 90.9323 116.275C88.0736 116.275 85.9829 116.829 84.5749 117.981C83.1669 119.133 82.4842 120.755 82.4842 122.888C82.4842 124.893 82.9962 126.387 84.0629 127.411C85.0869 128.477 86.5802 128.989 88.5429 128.989ZM122.804 133.597C122.036 133.597 121.524 133.469 121.183 133.171C120.842 132.915 120.543 132.317 120.287 131.507L110.26 98.5252C110.004 97.6719 109.876 97.1172 109.876 96.8185C109.876 96.1359 110.218 95.7519 110.9 95.7519H115.082C115.892 95.7519 116.447 95.8799 116.746 96.1785C117.087 96.4345 117.343 97.0319 117.599 97.8425L124.767 126.088L131.423 97.8425C131.636 96.9892 131.892 96.4345 132.234 96.1785C132.575 95.9225 133.172 95.7519 133.94 95.7519H137.354C138.164 95.7519 138.719 95.8799 139.06 96.1785C139.402 96.4345 139.7 97.0319 139.871 97.8425L146.612 126.429L153.994 97.8425C154.25 96.9892 154.549 96.4345 154.847 96.1785C155.189 95.9225 155.743 95.7519 156.511 95.7519H160.479C161.162 95.7519 161.546 96.0932 161.546 96.8185C161.546 97.0319 161.503 97.2452 161.461 97.5012C161.418 97.7572 161.333 98.0985 161.162 98.5679L150.879 131.549C150.623 132.403 150.325 132.957 149.983 133.213C149.642 133.469 149.087 133.64 148.362 133.64H144.692C143.882 133.64 143.327 133.512 142.986 133.213C142.644 132.915 142.346 132.36 142.175 131.507L135.562 103.987L128.991 131.464C128.778 132.317 128.522 132.872 128.18 133.171C127.839 133.469 127.242 133.597 126.474 133.597H122.804ZM177.631 134.749C175.413 134.749 173.194 134.493 171.061 133.981C168.927 133.469 167.263 132.915 166.154 132.275C165.471 131.891 165.002 131.464 164.831 131.08C164.661 130.696 164.575 130.269 164.575 129.885V127.709C164.575 126.813 164.917 126.387 165.557 126.387C165.813 126.387 166.069 126.429 166.325 126.515C166.581 126.6 166.965 126.771 167.391 126.941C168.842 127.581 170.421 128.093 172.085 128.435C173.791 128.776 175.455 128.947 177.162 128.947C179.85 128.947 181.941 128.477 183.391 127.539C184.842 126.6 185.61 125.235 185.61 123.485C185.61 122.291 185.226 121.309 184.458 120.499C183.69 119.688 182.239 118.963 180.149 118.28L173.962 116.36C170.847 115.379 168.543 113.928 167.135 112.008C165.727 110.131 165.002 108.04 165.002 105.821C165.002 104.029 165.386 102.451 166.154 101.085C166.922 99.7199 167.946 98.5252 169.226 97.5865C170.506 96.6052 171.957 95.8799 173.663 95.3679C175.37 94.8559 177.162 94.6425 179.039 94.6425C179.978 94.6425 180.959 94.6852 181.898 94.8132C182.879 94.9412 183.775 95.1119 184.671 95.2825C185.525 95.4959 186.335 95.7092 187.103 95.9652C187.871 96.2212 188.469 96.4772 188.895 96.7332C189.493 97.0745 189.919 97.4159 190.175 97.7999C190.431 98.1412 190.559 98.6105 190.559 99.2079V101.213C190.559 102.109 190.218 102.579 189.578 102.579C189.237 102.579 188.682 102.408 187.957 102.067C185.525 100.957 182.794 100.403 179.765 100.403C177.333 100.403 175.413 100.787 174.09 101.597C172.767 102.408 172.085 103.645 172.085 105.395C172.085 106.589 172.511 107.613 173.365 108.424C174.218 109.235 175.797 110.045 178.058 110.771L184.117 112.691C187.189 113.672 189.407 115.037 190.73 116.787C192.053 118.536 192.693 120.541 192.693 122.76C192.693 124.595 192.309 126.259 191.583 127.709C190.815 129.16 189.791 130.44 188.469 131.464C187.146 132.531 185.567 133.299 183.733 133.853C181.813 134.451 179.807 134.749 177.631 134.749Z" fill="white"/>
<path fill-rule="evenodd" clip-rule="evenodd" d="M185.695 155.485C171.658 165.854 151.263 171.358 133.727 171.358C109.151 171.358 87.0069 162.27 70.2815 147.165C68.9588 145.971 70.1535 144.349 71.7321 145.288C89.8229 155.784 112.138 162.142 135.22 162.142C150.794 162.142 167.903 158.899 183.647 152.243C185.994 151.176 187.999 153.779 185.695 155.485Z" fill="white"/>
<path fill-rule="evenodd" clip-rule="evenodd" d="M191.541 148.829C189.749 146.525 179.679 147.72 175.114 148.275C173.749 148.445 173.535 147.251 174.773 146.355C182.794 140.723 195.978 142.344 197.514 144.221C199.05 146.141 197.087 159.325 189.578 165.64C188.426 166.621 187.317 166.109 187.829 164.829C189.535 160.605 193.333 151.091 191.541 148.829Z" fill="white"/>
</g>
<defs>
<linearGradient id="paint0_linear_1065_199" x1="133.5" y1="0" x2="133.5" y2="267" gradientUnits="userSpaceOnUse">
<stop stop-color="#6D7AFF"/>
<stop offset="0.435" stop-color="#2631AB"/>
<stop offset="1" stop-color="#4353FF"/>
</linearGradient>
<linearGradient id="paint1_linear_1065_199" x1="236.5" y1="249.5" x2="21" y2="32.5" gradientUnits="userSpaceOnUse">
<stop stop-color="#6D7AFF"/>
<stop offset="0.435" stop-color="#2631AB"/>
<stop offset="1" stop-color="#4353FF"/>
</linearGradient>
<linearGradient id="paint2_linear_1065_199" x1="133.5" y1="11" x2="87" y2="268" gradientUnits="userSpaceOnUse">
<stop stop-color="#4353FF"/>
<stop offset="1" stop-color="#6D7AFF"/>
</linearGradient>
</defs>
</svg>
