<svg width="267" height="267" viewBox="0 0 267 267" fill="none" xmlns="http://www.w3.org/2000/svg">
<rect width="267" height="267" rx="51" fill="url(#paint0_linear_1065_184)"/>
<rect x="7" y="7" width="253" height="253" rx="43" fill="#D9D9D9"/>
<rect x="7" y="7" width="253" height="253" rx="43" fill="url(#paint1_linear_1065_184)"/>
<rect x="11" y="11" width="245" height="245" rx="43" fill="#D9D9D9"/>
<rect x="11" y="11" width="245" height="245" rx="43" fill="url(#paint2_linear_1065_184)"/>
<g style="mix-blend-mode:soft-light">
<path d="M128.515 175.98C143.932 173.226 156.666 170.947 156.812 170.915L157.078 170.858L142.523 153.349C134.517 143.719 127.967 135.802 127.967 135.757C127.967 135.67 142.997 93.813 143.081 93.664C143.11 93.6143 153.338 111.473 167.875 136.955C181.485 160.811 192.706 180.481 192.81 180.665L193 181L146.742 180.994L100.484 180.988L128.515 175.98ZM73 170.641C73 170.616 79.8584 158.575 88.2409 143.884L103.482 117.172L121.243 102.098C131.012 93.8066 139.031 87.0131 139.063 87.0003C139.096 86.9883 138.967 87.3154 138.778 87.7276C138.589 88.1397 129.91 106.966 119.491 129.564L100.549 170.65L86.7744 170.668C79.1985 170.678 73 170.665 73 170.641Z" fill="white"/>
</g>
<defs>
<linearGradient id="paint0_linear_1065_184" x1="133.5" y1="0" x2="133.5" y2="267" gradientUnits="userSpaceOnUse">
<stop stop-color="#6D7AFF"/>
<stop offset="0.435" stop-color="#2631AB"/>
<stop offset="1" stop-color="#4353FF"/>
</linearGradient>
<linearGradient id="paint1_linear_1065_184" x1="236.5" y1="249.5" x2="21" y2="32.5" gradientUnits="userSpaceOnUse">
<stop stop-color="#6D7AFF"/>
<stop offset="0.435" stop-color="#2631AB"/>
<stop offset="1" stop-color="#4353FF"/>
</linearGradient>
<linearGradient id="paint2_linear_1065_184" x1="133.5" y1="11" x2="87" y2="268" gradientUnits="userSpaceOnUse">
<stop stop-color="#4353FF"/>
<stop offset="1" stop-color="#6D7AFF"/>
</linearGradient>
</defs>
</svg>
