<svg width="26" height="36" viewBox="0 0 26 36" fill="none" xmlns="http://www.w3.org/2000/svg">
<path d="M3.74059 34.2502H22.259C22.9475 34.2502 23.5061 33.6924 23.5061 33.0027L26 21.2674C26.0004 20.5785 25.4422 20.0199 24.7533 20.0199H22.3837H22.2083H3.79166H3.67011H1.24713C0.557446 20.0199 0 20.5785 0 21.2674L2.49306 33.0035C2.49306 33.6924 3.0513 34.2502 3.74059 34.2502ZM12.4447 26.8846C12.5627 26.7029 12.767 26.5818 13.0002 26.5818C13.0453 26.5818 13.0909 26.5869 13.1332 26.5948C13.2148 26.6118 13.29 26.6447 13.3577 26.6879C13.3625 26.6902 13.366 26.6922 13.37 26.695C13.3925 26.7104 13.4112 26.7282 13.4317 26.7461C13.4436 26.7556 13.4571 26.7655 13.4678 26.7762C13.4793 26.7872 13.4876 26.8007 13.4983 26.813C13.5149 26.8332 13.5335 26.8522 13.5489 26.8743C13.5509 26.8775 13.5525 26.8807 13.5549 26.8842C13.5557 26.885 13.5561 26.8862 13.5565 26.887C13.5996 26.9547 13.6317 27.0295 13.6487 27.1107C13.6578 27.1542 13.6618 27.1986 13.6622 27.2449C13.6622 27.6111 13.366 27.9077 12.9998 27.9077C12.6332 27.9077 12.3366 27.6111 12.3366 27.2453C12.3374 27.1123 12.377 26.9888 12.4447 26.8846Z" fill="#4353FF"/>
<path d="M23.4702 34.5654H2.53036C2.23541 34.5654 1.99707 34.8046 1.99707 35.0991C1.99707 35.3929 2.23581 35.6328 2.53036 35.6328H23.4706C23.7644 35.6328 24.0039 35.3937 24.0039 35.0991C24.0031 34.8042 23.7644 34.5654 23.4702 34.5654Z" fill="#4353FF"/>
<path d="M21.7219 15.4351C21.7219 15.4351 21.2626 14.8079 20.1758 14.3902C20.1758 14.3902 17.8582 13.6867 16.7587 12.9175C16.7587 12.9396 16.7583 12.9622 16.7575 12.9848C16.7524 13.2872 16.7187 13.657 16.6716 14.0407C16.5326 15.1805 16.2761 16.4466 16.2761 16.4466C15.936 15.886 15.6296 15.5162 15.3595 15.2787C14.9882 14.952 14.6853 14.8756 14.4581 14.8994C14.1884 14.9271 14.0249 15.095 13.9782 15.15C15.4629 13.3383 15.993 11.7903 16.0393 11.6474C16.0302 11.5345 16.0271 11.4146 16.0342 11.2855C16.0342 11.2855 16.0251 11.1259 16.0088 11.1434C16.4341 10.597 16.7805 10.1417 17.0097 9.50587C17.4005 9.11312 17.6012 8.16135 17.6012 8.16135C17.927 7.24758 17.7251 6.89324 17.5711 6.76101C17.8079 5.9961 18.3206 3.83917 17.1 2.46575C17.1 2.46575 16.3477 1.43123 14.4668 1.05511C14.4668 1.05511 13.7438 0.762924 13.454 0C13.454 0 12.8059 0.0839336 12.8059 0.648109L12.4923 0.523001L12.2025 0.728084L11.8656 0.523001C11.8656 0.523001 11.7417 0.485389 11.4582 0.585555C11.4582 0.585555 9.29495 1.52545 8.66822 3.46899C8.66822 3.46899 8.32061 4.29328 8.74463 6.69528C8.64209 6.73567 8.18916 6.98628 8.60764 8.16095C8.60764 8.16095 8.78937 9.02325 9.14371 9.4445C9.34286 10.0625 9.64771 10.6592 10.0214 11.1857C10.0195 11.1837 10.0175 11.1818 10.0155 11.1798C10.0155 11.1798 10.0626 11.411 10.0195 11.7341C10.107 11.9716 10.8085 13.8039 12.0438 15.1888C11.9788 15.1227 11.843 15.0126 11.6423 14.9786C11.4258 14.941 11.1332 14.9924 10.7709 15.285C10.4823 15.5174 10.1497 15.9034 9.77678 16.5191C9.77678 16.5191 9.46955 15.0071 9.34483 13.7999C9.31514 13.5109 9.29574 13.2385 9.29337 13.0093C9.29337 12.9642 9.29337 12.9202 9.29416 12.8787C8.21807 13.6622 5.82398 14.3887 5.82398 14.3887C4.7372 14.8067 4.27794 15.4335 4.27794 15.4335C2.96668 17.3735 2.59966 19.0454 2.50781 19.8626H23.4904C23.4001 19.0462 23.0327 17.3746 21.7219 15.4351Z" fill="#4353FF"/>
</svg>
