<svg width="57" height="30" viewBox="0 0 57 30" fill="none" xmlns="http://www.w3.org/2000/svg">
<path d="M41.965 0C36.0637 0 30.9598 3.41828 28.4994 8.36689C26.0402 3.41828 20.9369 0 15.035 0C6.74358 0 0 6.72789 0 15C0 23.2721 6.74358 30 15.035 30C20.9363 30 26.0402 26.5817 28.4994 21.6331C30.9598 26.5817 36.0631 30 41.965 30C50.2564 30 57 23.2721 57 15C57 6.72789 50.2564 0 41.965 0ZM21.7469 19.5303L19.5911 21.6837L15.0489 17.1236L10.4795 21.6837L8.32245 19.5303L12.8931 15.0013L8.37945 10.4697L10.5378 8.31634L15.0489 12.8467L19.5911 8.31634L21.7469 10.4697L17.1788 15.0013L21.7469 19.5303ZM40.5983 20.7536L33.9269 14.0996L36.0853 11.9476L40.5977 16.4766L47.846 9.24642L50.0018 11.3997L40.5983 20.7536Z" fill="#4353FF"/>
</svg>
