<svg width="44" height="32" viewBox="0 0 44 32" fill="none" xmlns="http://www.w3.org/2000/svg">
<path fill-rule="evenodd" clip-rule="evenodd" d="M36.297 1.65764L36.4454 1.58229L37.301 1.15093L37.9798 1.8215L38.6567 2.49772L38.2213 3.34536L38.1452 3.49228H38.1471C38.4191 3.93683 38.6206 4.42094 38.748 4.92765L38.9077 4.97851L39.8205 5.27237V7.17298L38.9077 7.46494L38.748 7.5158C38.6206 8.02252 38.4191 8.50662 38.1471 8.95305L38.2232 9.09809L38.6586 9.94573L37.9798 10.6201L37.301 11.2925L36.4454 10.8593L36.2971 10.7839C35.8464 11.0514 35.3577 11.253 34.8481 11.3811L34.7968 11.5336L34.5001 12.4378H32.5816L32.2849 11.5336L32.2336 11.3811H32.2355C31.724 11.253 31.2372 11.0514 30.7865 10.7821L30.6382 10.8574L29.7826 11.2906L29.1 10.6201L28.4231 9.94762L28.8585 9.09621L28.9345 8.95117C28.6626 8.50474 28.4592 8.02064 28.3318 7.51392L28.174 7.46306L27.2612 7.1711V5.27048L28.174 4.97663L28.3318 4.92577C28.4592 4.41906 28.6607 3.93496 28.9345 3.48852L28.8585 3.3416L28.425 2.49772L29.1019 1.82526L29.7807 1.15093L30.6363 1.58229L30.7847 1.65764C31.2353 1.39015 31.724 1.1886 32.2336 1.06239L32.2849 0.904157L32.5816 0H34.4982L34.7949 0.904157L34.8462 1.06239C35.3558 1.18859 35.8445 1.39014 36.2952 1.65764H36.297ZM13.8693 29.5886H9.12322C9.36851 30.6925 10.3553 31.4798 11.4963 31.4817C12.6372 31.4836 13.624 30.6962 13.8693 29.5924V29.5886ZM12.0211 9.94406V9.94594C12.0211 10.2323 11.7853 10.4658 11.4963 10.4658C11.2053 10.4658 10.9696 10.2322 10.9696 9.94594V8.74416C10.9696 8.45784 11.2053 8.22428 11.4963 8.22428C11.7853 8.22428 12.0211 8.45786 12.0211 8.74416V9.94406ZM1.72085 19.1062C1.86346 19.1024 2.00227 19.1552 2.10305 19.2531C2.20573 19.3511 2.26468 19.4867 2.26468 19.628C2.26468 19.7692 2.20573 19.9049 2.10305 20.0028C2.00227 20.1008 1.86346 20.1554 1.72085 20.1497H0.509607C0.226288 20.1422 0 19.9105 0 19.628C0 19.3454 0.226273 19.1156 0.509607 19.1062L1.72085 19.1062ZM4.95524 12.4135C5.1606 12.6169 5.1606 12.9466 4.95524 13.15C4.75178 13.3534 4.41711 13.3534 4.21179 13.15L3.35423 12.3005C3.14887 12.097 3.14887 11.7674 3.35423 11.564C3.55959 11.3587 3.89426 11.3587 4.09959 11.564L4.95524 12.4135ZM21.2701 20.1497C20.9867 20.1422 20.7604 19.9105 20.7604 19.6279C20.7604 19.3454 20.9867 19.1156 21.2701 19.1062H22.4832C22.7684 19.1156 22.9947 19.3454 22.9947 19.6279C22.9947 19.9105 22.7684 20.1422 22.4832 20.1497H21.2701ZM18.7791 13.1498H18.781C18.5757 13.3533 18.241 13.3533 18.0357 13.1498C17.8303 12.9464 17.8303 12.6167 18.0357 12.4133L18.8932 11.5638C18.9921 11.4621 19.1271 11.4037 19.2678 11.4018C19.4104 11.3999 19.5473 11.4546 19.6462 11.5544C19.747 11.6542 19.8021 11.7899 19.8002 11.9293C19.7983 12.0705 19.7394 12.2043 19.6348 12.3003L18.7791 13.1498ZM11.2399 21.0404L12.879 19.1963C12.9703 19.087 13.0996 19.0192 13.2422 19.0079C13.3848 18.9966 13.5236 19.0437 13.6301 19.1379C13.7366 19.2302 13.8012 19.362 13.8088 19.5033C13.8145 19.6427 13.7632 19.7802 13.6662 19.8838L11.7667 22.0236V28.5466H13.9305V28.2923V28.2942C13.9248 27.5897 14.326 26.9436 14.9649 26.6309C17.0509 25.593 18.5492 23.6755 19.0436 21.4172C19.5379 19.1568 18.9732 16.7966 17.5072 14.9979C16.0412 13.1971 13.8336 12.1517 11.4984 12.1517C9.16532 12.1517 6.95584 13.1972 5.49161 14.9979C4.02559 16.7968 3.46083 19.157 3.95525 21.4172C4.44772 23.6757 5.94801 25.5933 8.0339 26.6309C8.6709 26.9436 9.0721 27.5897 9.0683 28.2942V28.5485H10.715V22.0236L8.81542 19.8838C8.71274 19.782 8.65569 19.6426 8.6595 19.4976C8.6633 19.3544 8.72795 19.2169 8.83634 19.1228C8.94662 19.0267 9.09114 18.9815 9.23565 18.9947C9.38016 19.0097 9.51326 19.0832 9.60073 19.1981L11.2399 21.0404ZM22.1637 24.3443H25.7841V31.9995H22.1637V24.3443ZM44 12.9785H40.3777V31.9995H44V12.9785ZM34.3063 20.1158H37.9286V32H34.3063V20.1158ZM31.8592 17.7348H28.2369V31.9978H31.8592V17.7348ZM33.54 3.39463C34.6942 3.39463 35.7343 4.08406 36.1755 5.13891C36.6185 6.19564 36.3732 7.41058 35.5575 8.21868C34.7418 9.02678 33.5154 9.26789 32.4486 8.83086C31.3838 8.39385 30.6879 7.36347 30.6879 6.22009C30.6898 4.6604 31.9656 3.39463 33.54 3.39463Z" fill="#4353FF"/>
</svg>
