<svg width="36" height="37" viewBox="0 0 36 37" fill="none" xmlns="http://www.w3.org/2000/svg">
<path fill-rule="evenodd" clip-rule="evenodd" d="M7.59446 1.49139H14.7709L9.35206 0.0444664C8.64795 -0.141819 7.92288 0.274112 7.73273 0.975893L7.59446 1.49139ZM2.57368 31.6123V20.1717L0.0455941 29.5711C-0.0462501 29.9099 0.00208923 30.2681 0.177718 30.5716C0.353346 30.8751 0.641764 31.0967 0.980127 31.1867L2.57208 31.6122L2.57368 31.6123ZM24.3389 35.5083H17.1625L22.5797 36.9552C22.91 37.0435 23.2628 37.0002 23.5625 36.8348L23.5819 36.8235V36.8219C23.8864 36.6485 24.1087 36.361 24.2006 36.0238L24.3389 35.5083ZM30.4441 12.8068L31.8894 7.42858C31.9781 7.09776 31.9346 6.74604 31.7686 6.44737C31.7638 6.44094 31.7605 6.43452 31.7573 6.42809H31.7557C31.5817 6.12458 31.2933 5.90297 30.9549 5.81142L29.363 5.38583V14.673L30.4441 12.8068ZM24.0423 23.8539C24.0456 23.8475 24.0504 23.8411 24.0536 23.8331L28.4668 16.2097V3.69943C28.4652 2.97196 27.8739 2.38418 27.1456 2.38097H4.78594C4.05605 2.38419 3.46632 2.97196 3.4631 3.69943V33.2998C3.46632 34.0257 4.05605 34.6151 4.78594 34.6183H27.1472C27.8755 34.6151 28.4668 34.0273 28.4701 33.2998V28.5609C28.3895 28.5994 28.3073 28.6316 28.2235 28.6556L25.9645 29.351C25.9226 29.3639 25.8823 29.3751 25.8469 29.3831L25.8259 29.3879V29.3863C25.0042 29.5614 24.1824 29.0828 23.9343 28.2815C23.923 28.2429 23.9118 28.2044 23.9021 28.1626L23.3768 25.8662L23.3752 25.8646C23.2802 25.4679 23.343 25.0471 23.5541 24.6954C23.5589 24.6874 23.5637 24.681 23.5686 24.6729L24.0439 23.8539L24.0423 23.8539ZM24.7851 28.0292L25.6391 28.5222H25.6343C25.2669 28.5993 24.8996 28.3857 24.7851 28.0292ZM34.6349 12.8952L35.6194 13.4621L35.6403 13.4733H35.6387C35.9884 13.6901 36.1028 14.1446 35.8997 14.5011C35.8949 14.5092 35.8901 14.5172 35.8869 14.5252L29.0874 26.263C28.7491 26.1442 28.3817 26.1297 28.0353 26.2213C27.9982 26.2309 27.9628 26.2421 27.9273 26.2534C27.9192 26.2164 27.9112 26.1795 27.9015 26.1442H27.9031C27.8194 25.8374 27.6566 25.558 27.4278 25.3364L34.6349 12.8952ZM26.6591 24.8949C26.3529 24.8082 26.0275 24.8066 25.7197 24.8901C25.6827 24.8997 25.6472 24.9109 25.6118 24.9222C25.6037 24.8852 25.5956 24.8483 25.586 24.813C25.4925 24.4677 25.2976 24.1577 25.0252 23.9249L29.2776 16.5827H29.2792C29.2937 16.5603 29.3082 16.5362 29.3195 16.5105L31.2224 13.2248H31.224C31.2369 13.2055 31.2498 13.1846 31.2594 13.1621L31.8363 12.1648C32.0489 11.8035 32.513 11.6782 32.8787 11.8854L33.8648 12.4523L26.6591 24.8949ZM8.4903 24.3521L8.29533 24.0775C8.07458 23.7707 8.10843 23.3484 8.37912 23.0818L9.21374 22.2499C9.48121 21.9817 9.90338 21.948 10.2111 22.168L10.4867 22.3623C10.6172 22.2933 10.7509 22.2307 10.8863 22.1745C11.0216 22.1182 11.1586 22.0701 11.2987 22.0267L11.3551 21.6975C11.4196 21.3249 11.7435 21.0519 12.1221 21.0519H13.3016C13.6802 21.0519 14.0041 21.3249 14.0686 21.6975L14.1249 22.0267C14.2619 22.0685 14.4005 22.1182 14.5374 22.1745C14.6744 22.2307 14.8081 22.2933 14.9386 22.3623L15.2126 22.168C15.5058 21.9577 15.9054 21.9785 16.1745 22.2178C16.1874 22.2291 16.2003 22.2403 16.2115 22.2515L17.0462 23.0834C17.3152 23.3484 17.3507 23.7707 17.1283 24.0775L16.9334 24.3521C17.0027 24.4822 17.0655 24.6155 17.1219 24.752C17.1783 24.8869 17.2282 25.025 17.2717 25.1631L17.602 25.2193V25.2177C17.9759 25.2819 18.2482 25.6047 18.2498 25.9821V27.1577C18.2498 27.5367 17.9759 27.8594 17.602 27.9237L17.2717 27.9799C17.2282 28.1164 17.1783 28.2545 17.1219 28.391C17.0655 28.5259 17.0027 28.6592 16.9334 28.7909L17.1283 29.0639C17.3507 29.3706 17.3152 29.793 17.0462 30.0596L16.2115 30.8914V30.8898C15.9441 31.158 15.5219 31.1933 15.2125 30.9733L14.9386 30.779C14.8065 30.8481 14.6728 30.9107 14.5374 30.9669C14.4021 31.0231 14.2651 31.0729 14.1249 31.1163L14.0685 31.4455V31.4439C14.0057 31.8164 13.6818 32.0894 13.3016 32.0894H12.1221C11.7434 32.0894 11.4196 31.8164 11.3551 31.4439L11.2987 31.1147C11.1618 31.0713 11.0232 31.0215 10.8862 30.9653C10.7493 30.9091 10.6155 30.8465 10.485 30.7774L10.2095 30.9717L10.2111 30.9733C9.90335 31.1933 9.4796 31.158 9.21211 30.8898L8.37748 30.058V30.0596C8.1084 29.793 8.07295 29.3722 8.29531 29.0655L8.49027 28.7925C8.42099 28.6608 8.35815 28.5275 8.30175 28.3926C8.24536 28.2577 8.19541 28.1212 8.15351 27.9815L7.8232 27.9253C7.44939 27.8611 7.17548 27.5383 7.17548 27.1609V25.9821C7.17548 25.6047 7.44939 25.2819 7.8232 25.2177L8.15351 25.1615C8.19541 25.025 8.24536 24.8869 8.30175 24.7504C8.35815 24.6139 8.42101 24.4806 8.4903 24.3521ZM9.07359 23.6455L9.77771 22.9437L10.0307 23.1235V23.1219C10.2724 23.2954 10.5914 23.3146 10.8524 23.1701C10.9733 23.1043 11.0973 23.0449 11.2246 22.9935C11.3535 22.9405 11.4841 22.8939 11.6178 22.8554C11.9046 22.7751 12.1173 22.5358 12.1656 22.2419L12.2172 21.9368H13.2065L13.2596 22.2419C13.3064 22.5245 13.5062 22.7574 13.7785 22.8457C13.7881 22.8489 13.7978 22.8522 13.8075 22.8554C13.9412 22.8939 14.0717 22.9405 14.2006 22.9935C14.3279 23.0465 14.452 23.1059 14.5728 23.1717C14.8322 23.3147 15.1529 23.297 15.393 23.1236L15.6459 22.9437L16.3484 23.6455L16.1696 23.8976H16.1712C15.9972 24.1385 15.9779 24.4565 16.1229 24.715C16.1889 24.8355 16.2485 24.9607 16.3017 25.0876C16.3549 25.2161 16.4 25.3461 16.4403 25.4794C16.5225 25.7637 16.7625 25.9757 17.0558 26.0238L17.3619 26.0768V27.0629L17.0558 27.1159V27.1143C16.7738 27.1608 16.5402 27.36 16.4516 27.6314C16.4484 27.641 16.4451 27.6506 16.4419 27.6603C16.4016 27.7936 16.3565 27.9236 16.3034 28.0521C16.2502 28.179 16.1906 28.3026 16.1245 28.4247C15.9795 28.6832 15.9988 29.0012 16.1728 29.2421L16.3517 29.4942L15.6492 30.1928L15.3962 30.0145H15.3946C15.1545 29.8427 14.8355 29.825 14.5761 29.9696C14.4552 30.037 14.3312 30.0964 14.2023 30.1478C14.075 30.2008 13.9428 30.2474 13.8107 30.2859C13.5239 30.3679 13.3112 30.6055 13.2629 30.8994L13.2097 31.2045H12.2204L12.1688 30.8994C12.1221 30.6168 11.9207 30.3839 11.6484 30.2956C11.6387 30.2924 11.6291 30.2891 11.6178 30.2859C11.4841 30.2474 11.3536 30.2008 11.2247 30.1478C11.0974 30.0964 10.9733 30.037 10.8525 29.9696C10.593 29.8266 10.2724 29.8443 10.0323 30.0177L9.77934 30.196L9.07522 29.4974L9.25407 29.2453C9.42809 29.006 9.44742 28.6864 9.30241 28.4279C9.23635 28.3074 9.17673 28.1838 9.12356 28.0553C9.07039 27.9284 9.02527 27.7967 8.9866 27.6651C8.90443 27.3792 8.66596 27.1656 8.37109 27.1191L8.06495 27.0661V26.08L8.37109 26.027C8.65468 25.9821 8.88831 25.7829 8.97695 25.5115C8.98017 25.5019 8.9834 25.4923 8.98662 25.4826V25.481C9.06396 25.2161 9.1703 24.9607 9.30243 24.7182C9.44744 24.4596 9.42811 24.1401 9.25409 23.9008L9.07524 23.6487L9.07359 23.6455ZM10.2241 26.5699C10.2257 25.3863 11.0652 24.3681 12.2301 24.1385C13.395 23.9072 14.56 24.5287 15.0144 25.6223C15.4688 26.716 15.0837 27.9783 14.0959 28.6351C13.1082 29.2919 11.7934 29.1634 10.954 28.3251C10.4851 27.861 10.2241 27.2283 10.2241 26.5699ZM11.584 25.4441C12.1222 24.9061 12.9681 24.8226 13.6013 25.245C14.2361 25.6673 14.4826 26.4767 14.191 27.1801C13.8994 27.8819 13.1502 28.2817 12.4025 28.1324C11.6549 27.9846 11.1151 27.331 11.1151 26.5698C11.1151 26.1475 11.2843 25.7428 11.584 25.4441ZM13.0502 19.043C12.6442 19.0414 12.3155 18.7138 12.3139 18.3091V16.5891C12.3155 16.1844 12.6442 15.8568 13.0502 15.8552H23.1318C23.5379 15.8568 23.8665 16.1844 23.8682 16.5891V18.3091C23.8666 18.7138 23.5379 19.0398 23.1318 19.043H13.0502ZM23.1318 5.79722C23.5379 5.79883 23.8665 6.12644 23.8682 6.53115V8.2511V8.24949C23.8666 8.65419 23.5379 8.98178 23.1318 8.98342H13.0502C12.6442 8.98181 12.3155 8.65421 12.3139 8.24949V6.52955C12.3155 6.12485 12.6442 5.79887 13.0502 5.79726L23.1318 5.79722ZM11.4226 7.83353H10.6733C9.85641 7.83674 9.19421 8.49678 9.19095 9.311V10.35C9.19095 11.2124 9.89184 11.911 10.7587 11.911H20.2686C21.6237 11.9126 22.7226 13.0078 22.7242 14.36V14.9703H23.1302V14.9687C24.0277 14.9719 24.756 15.6961 24.7576 16.5906V18.3106C24.7544 19.2051 24.0277 19.9294 23.1302 19.9326H13.0499C12.1524 19.931 11.4241 19.2051 11.4225 18.3106V17.8931H10.6732C9.85632 17.8963 9.19411 18.5563 9.19086 19.3705V20.5397C9.19086 20.7854 8.99106 20.9845 8.74455 20.9845C8.49963 20.9845 8.29984 20.7854 8.29984 20.5397V19.3705C8.30307 18.0649 9.36327 17.0082 10.6732 17.005H11.4225V16.5891C11.4257 15.6946 12.1524 14.9687 13.0499 14.9671H21.8362V14.3568C21.8346 13.496 21.1337 12.7975 20.2685 12.7975H10.7557C9.4006 12.7959 8.30174 11.7006 8.30013 10.3501V9.31104C8.30497 8.00702 9.36517 6.95032 10.6735 6.94712H11.4228V6.52959C11.426 5.63508 12.1527 4.91081 13.0502 4.90761H23.1317C24.0292 4.91082 24.7575 5.63508 24.7591 6.52959V8.24954C24.7575 9.14404 24.0292 9.86991 23.1317 9.87151H13.0502C12.1527 9.86991 11.4244 9.14404 11.4228 8.24954L11.4226 7.83353ZM28.5086 27.2588L28.3845 27.4756H28.3861C28.2959 27.6394 28.1444 27.7598 27.9656 27.8112L26.8023 28.1678L24.5142 26.8525L24.2435 25.6722H24.2452C24.2226 25.5822 24.2194 25.4891 24.2323 25.3975C24.2468 25.3076 24.2774 25.2193 24.3257 25.1406C24.3305 25.1326 24.3354 25.1245 24.3386 25.1165L24.5674 24.7214C24.7865 24.9977 24.8204 25.3783 24.656 25.6898C24.5884 25.791 24.5642 25.9163 24.5916 26.0367C24.6174 26.1555 24.6931 26.2583 24.7994 26.321C24.9058 26.3836 25.0315 26.3997 25.1507 26.3643C25.2683 26.3306 25.3666 26.2487 25.423 26.1395C25.6695 25.7412 26.1835 25.5999 26.6008 25.8183C26.617 25.8295 26.6331 25.8392 26.6508 25.8488C27.052 26.0945 27.1922 26.6084 26.9714 27.0244L26.9569 27.0501C26.8329 27.262 26.9054 27.5334 27.1181 27.6555C27.3307 27.7776 27.6031 27.7069 27.7255 27.4949C27.8432 27.2894 28.0397 27.14 28.2685 27.079C28.3862 27.0485 28.5086 27.0404 28.6295 27.0581L28.5553 27.1866L28.5537 27.1882C28.5376 27.2091 28.5215 27.2332 28.5102 27.2589L28.5086 27.2588Z" fill="#4353FF"/>
</svg>
