<svg width="779" height="504" viewBox="0 0 779 504" fill="none" xmlns="http://www.w3.org/2000/svg">
<path fill-rule="evenodd" clip-rule="evenodd" d="M552.507 1.80264e-08C537.342 40.9389 522.193 81.884 507.013 122.816C473.473 213.253 439.924 303.685 406.366 394.116C393.659 428.359 380.839 462.561 368.294 496.863C366.555 501.615 364.298 503.214 359.079 503.145C333.255 502.802 307.424 502.99 280.619 502.99C285.081 490.836 289.278 479.165 293.641 467.558C319.047 399.955 344.506 332.37 369.919 264.768C402.857 177.151 435.769 89.5253 468.683 1.89853C468.908 1.29855 468.97 0.635268 469.109 0.000374648C496.909 -8.9731e-06 524.707 1.80264e-08 552.507 1.80264e-08Z" fill="white"/>
<path fill-rule="evenodd" clip-rule="evenodd" d="M0 282.768C77.5621 254.599 155.143 226.484 232.643 198.15C238.488 196.014 238.922 197.982 238.884 202.969C238.706 226.419 238.66 249.874 238.925 273.325C238.978 278.091 237.471 280.055 232.952 281.385C188.933 294.342 144.978 307.522 101.01 320.659C99.572 321.089 98.1986 321.736 95.6483 322.725C110.403 327.473 124.153 331.902 137.906 336.32C170.262 346.716 202.604 357.149 234.996 367.422C238.156 368.425 238.857 370.133 238.846 373.106C238.767 396.992 238.665 420.881 238.907 444.764C238.963 450.214 236.869 449.689 233.16 448.272C203.227 436.817 173.265 425.437 143.303 414.057C95.539 395.913 47.7682 377.785 0 359.652C0 334.021 0 308.397 0 282.768Z" fill="#4353FE"/>
<path fill-rule="evenodd" clip-rule="evenodd" d="M682.361 322.509C651.644 313.307 622.426 304.549 593.206 295.8C576.617 290.834 560.068 285.727 543.398 281.042C539.09 279.833 538.267 277.635 538.294 273.626C538.454 250.403 538.371 227.178 538.374 203.954C538.376 195.915 538.396 195.873 545.91 198.594C582.756 211.932 619.597 225.284 656.432 238.654C695.301 252.762 734.134 266.97 773.063 280.907C776.777 282.236 778.067 283.743 778.033 287.693C777.839 310.049 777.837 332.406 778.041 354.759C778.074 358.488 776.793 359.969 773.455 361.23C710.665 384.955 647.922 408.803 585.175 432.638C571.819 437.711 558.43 442.703 545.17 448.012C540.154 450.021 538.13 449.957 538.232 443.479C538.594 420.476 538.486 397.466 538.272 374.461C538.232 370.289 539.43 368.466 543.49 367.183C578.793 356.047 614.024 344.677 649.267 333.342C659.757 329.969 670.214 326.49 682.361 322.509Z" fill="#4353FE"/>
</svg>
