<svg width="177" height="177" viewBox="0 0 177 177" fill="none" xmlns="http://www.w3.org/2000/svg">
<circle cx="88.5" cy="88.5" r="88.5" fill="#4353FF"/>
<path d="M89.0067 76.5838C95.9838 76.5838 101.198 74.326 101.198 72.3073C101.198 70.2894 95.9838 68.0325 89.0067 68.0325C82.0305 68.0325 76.8172 70.2894 76.8172 72.3073C76.8172 74.326 82.0305 76.5838 89.0067 76.5838Z" fill="white"/>
<path d="M101.198 87.8757C98.6489 89.8307 93.7286 90.8639 89.0067 90.8639C84.2857 90.8639 79.3663 89.8307 76.8172 87.8757V92.177C76.8172 94.1922 82.0296 96.4474 89.0067 96.4474C95.9838 96.4474 101.198 94.1922 101.198 92.177V87.8757Z" fill="white"/>
<path d="M89.0067 83.9383C95.9838 83.9383 101.198 81.6805 101.198 79.6618V75.364C98.6489 77.3208 93.7286 78.3549 89.0067 78.3549C84.2857 78.3549 79.3663 77.3208 76.8172 75.364V79.6618C76.8172 81.6797 82.0305 83.9383 89.0067 83.9383Z" fill="white"/>
<path d="M89.0067 101.614C95.9837 101.614 101.198 99.3543 101.198 97.3338C101.198 96.7654 100.77 96.2439 100.29 95.8383C97.5846 97.4002 93.2159 98.2192 89.0075 98.2192C84.8009 98.2192 80.4314 97.3993 77.7265 95.8383C77.2466 96.2439 76.8189 96.7654 76.8189 97.3338C76.8171 99.3543 82.0305 101.614 89.0067 101.614Z" fill="white"/>
<path d="M77.7229 83.3236C77.2448 83.7265 76.8181 84.2462 76.8181 84.8226C76.8181 86.8387 82.0305 89.093 89.0076 89.093C95.9846 89.093 101.199 86.8387 101.199 84.8226C101.199 84.2471 100.772 83.7265 100.294 83.3236C97.5881 84.8882 93.2177 85.7081 89.0085 85.7081C84.7983 85.7089 80.4288 84.8882 77.7229 83.3236Z" fill="white"/>
<path d="M101.198 100.391C98.6489 102.35 93.7286 103.385 89.0067 103.385C84.2857 103.385 79.3663 102.35 76.8172 100.391V104.698C76.8172 106.713 82.0296 108.968 89.0067 108.968C95.9838 108.968 101.198 106.713 101.198 104.698V100.391Z" fill="white"/>
<path d="M102.968 76.9212H119.045V62.8653C118.755 62.9042 118.461 62.9317 118.16 62.9317C117.859 62.9317 117.565 62.9042 117.275 62.8653V75.1504H102.968V76.9212Z" fill="white"/>
<path d="M123.015 56.3073C123.015 53.6307 120.837 51.4534 118.161 51.4534C115.486 51.4534 113.309 53.6307 113.309 56.3073C113.309 58.9839 115.486 61.1611 118.161 61.1611C120.837 61.1611 123.015 58.9839 123.015 56.3073Z" fill="white"/>
<path d="M118.161 117.273C115.486 117.273 113.309 119.451 113.309 122.126C113.309 124.801 115.486 126.978 118.161 126.978C120.837 126.978 123.015 124.801 123.015 122.126C123.015 119.451 120.837 117.273 118.161 117.273Z" fill="white"/>
<path d="M117.275 115.569C117.565 115.529 117.859 115.502 118.16 115.502C118.461 115.502 118.755 115.529 119.045 115.569V101.511H102.968V103.282H117.275V115.569Z" fill="white"/>
<path d="M93.8598 50.853C93.8598 48.1772 91.6826 46 89.0068 46C86.3311 46 84.1539 48.1772 84.1539 50.853C84.1539 53.5287 86.3311 55.7059 89.0068 55.7059C91.6826 55.7059 93.8598 53.5287 93.8598 50.853Z" fill="white"/>
<path d="M84.1539 126.147C84.1539 128.823 86.3311 131 89.0068 131C91.6826 131 93.8598 128.823 93.8598 126.147C93.8598 123.47 91.6826 121.293 89.0068 121.293C86.3311 121.293 84.1539 123.47 84.1539 126.147Z" fill="white"/>
<path d="M75.0462 100.08H58.968V114.136C59.2584 114.096 59.5523 114.069 59.8534 114.069C60.1544 114.069 60.4484 114.096 60.7388 114.136V101.85H75.0462V100.08Z" fill="white"/>
<path d="M88.1227 110.722V119.589C88.4131 119.549 88.7071 119.522 89.0072 119.522C89.3083 119.522 89.6031 119.55 89.8935 119.589V110.722C89.5978 110.73 89.3012 110.74 89.0063 110.74C88.7124 110.739 88.4175 110.729 88.1227 110.722Z" fill="white"/>
<path d="M55 120.692C55 123.368 57.1772 125.546 59.853 125.546C62.5287 125.546 64.7059 123.368 64.7059 120.692C64.7059 118.017 62.5287 115.84 59.853 115.84C57.1772 115.84 55 118.017 55 120.692Z" fill="white"/>
<path d="M59.853 62.5934C62.5287 62.5934 64.7059 60.4162 64.7059 57.7396C64.7059 55.0639 62.5287 52.8866 59.853 52.8866C57.1772 52.8866 55 55.0639 55 57.7396C55 60.4162 57.1772 62.5934 59.853 62.5934Z" fill="white"/>
<path d="M89.8918 66.2788V57.4114C89.6014 57.4504 89.3074 57.4778 89.0073 57.4778C88.7062 57.4778 88.4114 57.4504 88.121 57.4114V66.2797C88.4158 66.2718 88.7115 66.262 89.0064 66.262C89.3012 66.262 89.597 66.2709 89.8918 66.2788Z" fill="white"/>
<path d="M60.7388 64.298C60.4484 64.337 60.1544 64.3644 59.8534 64.3644C59.5523 64.3644 59.2584 64.337 58.968 64.298V78.354H75.0462V76.5832H60.7388V64.298Z" fill="white"/>
</svg>
