<svg width="177" height="177" viewBox="0 0 177 177" fill="none" xmlns="http://www.w3.org/2000/svg">
<circle cx="88.5" cy="88.5" r="88.5" fill="#4353FF"/>
<path d="M55.873 81.2403L62.1691 77.4625C62.3757 77.3386 62.5466 77.1633 62.6652 76.9537C62.7839 76.7442 62.8462 76.5074 62.8462 76.2666V68.4974L79.582 58.0375V60.9255C79.582 61.1663 79.6444 61.4031 79.763 61.6126C79.8817 61.8222 80.0526 61.9975 80.2591 62.1214L86.5552 65.8991V72.1412C82.3735 72.492 78.4762 74.401 75.6356 77.4899C72.795 80.5787 71.2185 84.622 71.2185 88.8184C71.2185 93.0148 72.795 97.0581 75.6356 100.147C78.4762 103.236 82.3735 105.145 86.5552 105.496V111.738L80.2591 115.515C80.0526 115.639 79.8817 115.815 79.763 116.024C79.6444 116.234 79.582 116.471 79.582 116.711V119.599L62.8462 109.139V101.37C62.8462 101.129 62.7839 100.893 62.6652 100.683C62.5466 100.474 62.3757 100.298 62.1691 100.174L55.873 96.3966V81.2403Z" fill="white"/>
<path d="M86.5552 126.8L82.3713 124.29V119.175L86.5552 121.685V126.8Z" fill="white"/>
<path d="M87.9499 114.154L92.2125 116.711L87.9499 119.269L83.6874 116.711L87.9499 114.154Z" fill="white"/>
<path d="M89.3445 105.496C93.5263 105.145 97.4236 103.236 100.264 100.147C103.105 97.0581 104.681 93.0148 104.681 88.8184C104.681 84.622 103.105 80.5787 100.264 77.4899C97.4236 74.401 93.5263 72.492 89.3445 72.1412V65.8991L95.6407 62.1214C95.8472 61.9975 96.0181 61.8222 96.1367 61.6126C96.2554 61.4031 96.3178 61.1663 96.3178 60.9255V58.0375L113.054 68.4974V76.2666C113.054 76.5074 113.116 76.7442 113.235 76.9537C113.353 77.1633 113.524 77.3386 113.731 77.4625L120.027 81.2403V96.3966L113.731 100.174C113.524 100.298 113.353 100.474 113.235 100.683C113.116 100.893 113.054 101.129 113.054 101.37V109.139L96.3178 119.599V116.711C96.3178 116.471 96.2554 116.234 96.1367 116.024C96.0181 115.815 95.8472 115.639 95.6407 115.515L89.3445 111.738V105.496Z" fill="white"/>
<path d="M93.5285 124.29L89.3445 126.8V121.685L93.5285 119.175V124.29Z" fill="white"/>
<path d="M53.0837 111.459L48.8998 108.949V103.833L53.0837 106.344V111.459Z" fill="white"/>
<path d="M60.0569 108.949L55.873 111.459V106.344L60.0569 103.833V108.949Z" fill="white"/>
<path d="M54.4784 65.3411L58.639 67.8375L54.4636 70.4473L50.2158 67.8987L54.4784 65.3411Z" fill="white"/>
<path d="M53.0837 77.9874L48.8998 75.477V70.362L53.0837 72.8723V77.9874Z" fill="white"/>
<path d="M58.741 101.37L54.4784 103.928L50.2158 101.37L54.4784 98.8126L58.741 101.37Z" fill="white"/>
<path d="M120.027 111.459L115.843 108.949V103.833L120.027 106.344V111.459Z" fill="white"/>
<path d="M101.896 88.8184C101.896 91.5768 101.078 94.2732 99.546 96.5666C98.0135 98.8601 95.8354 100.648 93.287 101.703C90.7386 102.759 87.9344 103.035 85.2291 102.497C82.5237 101.959 80.0387 100.63 78.0883 98.68C76.1378 96.7296 74.8095 94.2446 74.2714 91.5392C73.7333 88.8339 74.0095 86.0297 75.065 83.4813C76.1206 80.9329 77.9082 78.7548 80.2017 77.2223C82.4951 75.6899 85.1915 74.8719 87.9499 74.8719C91.6474 74.8761 95.1923 76.3468 97.8069 78.9614C100.421 81.576 101.892 85.1209 101.896 88.8184ZM94.9231 81.8452C94.9231 81.4753 94.7762 81.1205 94.5146 80.859C94.2531 80.5975 93.8984 80.4505 93.5285 80.4505H92.1338V79.0559C92.1338 78.686 91.9869 78.3313 91.7254 78.0697C91.4638 77.8082 91.1091 77.6612 90.7392 77.6612C90.3693 77.6612 90.0146 77.8082 89.753 78.0697C89.4915 78.3313 89.3445 78.686 89.3445 79.0559V80.4505H86.5552V79.0559C86.5552 78.686 86.4083 78.3313 86.1468 78.0697C85.8852 77.8082 85.5305 77.6612 85.1606 77.6612C84.7907 77.6612 84.436 77.8082 84.1744 78.0697C83.9129 78.3313 83.766 78.686 83.766 79.0559V80.9224C83.0552 81.259 82.4364 81.7624 81.9623 82.3899C81.4883 83.0173 81.173 83.7501 81.0433 84.5257C80.9137 85.3013 80.9736 86.0968 81.218 86.8443C81.4623 87.5918 81.8837 88.2691 82.4464 88.8184C81.8837 89.3677 81.4623 90.045 81.218 90.7925C80.9736 91.54 80.9137 92.3355 81.0433 93.1111C81.173 93.8867 81.4883 94.6195 81.9623 95.247C82.4364 95.8744 83.0552 96.3778 83.766 96.7144V98.5809C83.766 98.9508 83.9129 99.3055 84.1744 99.5671C84.436 99.8286 84.7907 99.9756 85.1606 99.9756C85.5305 99.9756 85.8852 99.8286 86.1468 99.5671C86.4083 99.3055 86.5552 98.9508 86.5552 98.5809V97.1863H89.3445V98.5809C89.3445 98.9508 89.4915 99.3055 89.753 99.5671C90.0146 99.8286 90.3693 99.9756 90.7392 99.9756C91.1091 99.9756 91.4638 99.8286 91.7254 99.5671C91.9869 99.3055 92.1338 98.9508 92.1338 98.5809V97.1863H93.5285C93.8984 97.1863 94.2531 97.0393 94.5146 96.7778C94.7762 96.5163 94.9231 96.1615 94.9231 95.7916V81.8452Z" fill="white"/>
<path d="M83.7659 92.305C83.7665 91.7504 83.9871 91.2186 84.3793 90.8264C84.7715 90.4342 85.3033 90.2137 85.8579 90.2131H92.1338V94.397H85.8579C85.3033 94.3964 84.7715 94.1758 84.3793 93.7836C83.9871 93.3914 83.7665 92.8597 83.7659 92.305Z" fill="white"/>
<path d="M86.5552 62.6463L82.3713 60.1359V55.0209L86.5552 57.5311V62.6463Z" fill="white"/>
<path d="M83.7659 85.3318C83.7665 84.7772 83.9871 84.2454 84.3793 83.8532C84.7715 83.461 85.3033 83.2404 85.8579 83.2398H92.1338V87.4238H85.8579C85.3033 87.4232 84.7715 87.2026 84.3793 86.8104C83.9871 86.4182 83.7665 85.8864 83.7659 85.3318Z" fill="white"/>
<path d="M117.261 67.8375L121.421 65.3411L125.684 67.8987L121.436 70.4473L117.261 67.8375Z" fill="white"/>
<path d="M89.3445 57.5312L93.5285 55.0209V60.1359L89.3445 62.6463V57.5312Z" fill="white"/>
<path d="M127 108.949L122.816 111.459V106.344L127 103.833V108.949Z" fill="white"/>
<path d="M122.816 72.8723L127 70.362V75.477L122.816 77.9874V72.8723Z" fill="white"/>
<path d="M121.421 98.8126L125.684 101.37L121.421 103.928L117.159 101.37L121.421 98.8126Z" fill="white"/>
<path d="M120.027 77.9874L115.843 75.4771V70.2407L120.027 72.8556V77.9874Z" fill="white"/>
<path d="M83.6874 52.5576L87.9499 50L92.2125 52.5576L87.9499 55.115L83.6874 52.5576Z" fill="white"/>
<path d="M55.873 72.8556L60.0569 70.2407V75.4771L55.873 77.9874V72.8556Z" fill="white"/>
</svg>
