<svg width="440" height="196" viewBox="0 0 440 196" fill="none" xmlns="http://www.w3.org/2000/svg">
<path d="M438.816 0.75293H1.18457V195.491H438.816V0.75293Z" stroke="#4353FF" stroke-opacity="0.2" stroke-dasharray="4 3"/>
<path d="M25.1572 0.242676V196" stroke="#4353FF" stroke-opacity="0.2" stroke-dasharray="4 3"/>
<path d="M49.6406 0.242676V196" stroke="#4353FF" stroke-opacity="0.2" stroke-dasharray="4 3"/>
<path d="M74.123 0.242676V196" stroke="#4353FF" stroke-opacity="0.2" stroke-dasharray="4 3"/>
<path d="M98.6064 0.242676V196" stroke="#4353FF" stroke-opacity="0.2" stroke-dasharray="4 3"/>
<path d="M123.089 0.242676V196" stroke="#4353FF" stroke-opacity="0.2" stroke-dasharray="4 3"/>
<path d="M147.572 0.242676V196" stroke="#4353FF" stroke-opacity="0.2" stroke-dasharray="4 3"/>
<path d="M172.056 0.242676V196" stroke="#4353FF" stroke-opacity="0.2" stroke-dasharray="4 3"/>
<path d="M196.538 0.242676V196" stroke="#4353FF" stroke-opacity="0.2" stroke-dasharray="4 3"/>
<path d="M221.021 0.242676V196" stroke="#4353FF" stroke-opacity="0.2" stroke-dasharray="4 3"/>
<path d="M245.504 0.242676V196" stroke="#4353FF" stroke-opacity="0.2" stroke-dasharray="4 3"/>
<path d="M269.986 0.242676V196" stroke="#4353FF" stroke-opacity="0.2" stroke-dasharray="4 3"/>
<path d="M294.469 0.242676V196" stroke="#4353FF" stroke-opacity="0.2" stroke-dasharray="4 3"/>
<path d="M318.951 0.242676V196" stroke="#4353FF" stroke-opacity="0.2" stroke-dasharray="4 3"/>
<path d="M343.436 0.242676V196" stroke="#4353FF" stroke-opacity="0.2" stroke-dasharray="4 3"/>
<path d="M367.918 0.242676V196" stroke="#4353FF" stroke-opacity="0.2" stroke-dasharray="4 3"/>
<path d="M392.4 0.243164V196" stroke="#4353FF" stroke-opacity="0.2" stroke-dasharray="4 3"/>
<path d="M416.883 0.242676V196" stroke="#4353FF" stroke-opacity="0.2" stroke-dasharray="4 3"/>
<path d="M439.326 98.1211H0.674805" stroke="#4353FF" stroke-opacity="0.2" stroke-dasharray="4 3"/>
<path d="M439.326 122.59H0.674805" stroke="#4353FF" stroke-opacity="0.2" stroke-dasharray="4 3"/>
<path d="M439.326 147.06H0.674805" stroke="#4353FF" stroke-opacity="0.2" stroke-dasharray="4 3"/>
<path d="M439.326 171.53H0.674805" stroke="#4353FF" stroke-opacity="0.2" stroke-dasharray="4 3"/>
<path d="M439.326 73.6514H0.674805" stroke="#4353FF" stroke-opacity="0.2" stroke-dasharray="4 3"/>
<path d="M439.326 49.1821H0.674805" stroke="#4353FF" stroke-opacity="0.2" stroke-dasharray="4 3"/>
<path d="M439.326 24.7124H0.674805" stroke="#4353FF" stroke-opacity="0.2" stroke-dasharray="4 3"/>
<rect width="439" height="196" fill="url(#paint0_radial_186_798)"/>
<path d="M217.139 85.0192C212.257 85.0192 207.429 87.1134 203.758 91.2474V70.9038H196.482V105.159C196.482 116.283 205.498 125.299 216.622 125.299C227.746 125.299 236.762 116.283 236.762 105.159C236.762 94.0352 228.263 85.0192 217.139 85.0192ZM216.608 117.534C209.768 117.534 204.234 111.985 204.234 105.159C204.234 98.3323 209.782 92.7841 216.608 92.7841C223.449 92.7841 228.983 98.3323 228.983 105.159C228.983 111.985 223.449 117.534 216.608 117.534Z" fill="#0E1237"/>
<path d="M203.258 91.2474V92.5633L204.132 91.5795C207.711 87.5488 212.404 85.5192 217.139 85.5192C227.97 85.5192 236.262 94.2941 236.262 105.159C236.262 116.006 227.47 124.799 216.622 124.799C205.774 124.799 196.982 116.006 196.982 105.159V71.4038H203.258V91.2474ZM203.734 105.159C203.734 112.261 209.492 118.034 216.608 118.034C223.725 118.034 229.483 112.261 229.483 105.159C229.483 98.0566 223.725 92.2841 216.608 92.2841C209.506 92.2841 203.734 98.0562 203.734 105.159Z" stroke="white" stroke-opacity="0.13"/>
<path d="M262.245 85.0192C257.363 85.0192 252.536 87.1134 248.864 91.2474V70.9038H241.589V105.159C241.589 116.283 250.605 125.299 261.729 125.299C272.852 125.299 281.868 116.283 281.868 105.159C281.868 94.0352 273.355 85.0192 262.245 85.0192ZM261.715 117.534C254.875 117.534 249.34 111.985 249.34 105.159C249.34 98.3323 254.888 92.7841 261.715 92.7841C268.555 92.7841 274.09 98.3323 274.09 105.159C274.09 111.985 268.555 117.534 261.715 117.534Z" fill="#0E1237"/>
<path d="M248.364 91.2474V92.5633L249.238 91.5795C252.818 87.5488 257.511 85.5192 262.245 85.5192C273.063 85.5192 281.368 94.2944 281.368 105.159C281.368 116.006 272.576 124.799 261.729 124.799C250.881 124.799 242.089 116.006 242.089 105.159V71.4038H248.364V91.2474ZM248.84 105.159C248.84 112.261 254.598 118.034 261.715 118.034C268.832 118.034 274.59 112.261 274.59 105.159C274.59 98.0566 268.832 92.2841 261.715 92.2841C254.612 92.2841 248.84 98.0562 248.84 105.159Z" stroke="white" stroke-opacity="0.13"/>
<path d="M155.523 108.681V86.1069H163.329V108.613C163.329 114.365 166.661 118.05 172.277 118.05C177.961 118.05 181.225 114.501 181.225 108.613V86.1069H189.099V108.681C189.099 119.111 182.775 125.285 172.277 125.285C162.051 125.298 155.523 118.907 155.523 108.681Z" fill="#0E1237"/>
<path d="M156.023 108.681V86.6069H162.829V108.613C162.829 111.584 163.691 114.076 165.332 115.83C166.977 117.588 169.355 118.55 172.277 118.55C175.226 118.55 177.606 117.627 179.247 115.882C180.883 114.142 181.725 111.646 181.725 108.613V86.6069H188.599V108.681C188.599 113.794 187.051 117.805 184.274 120.538C181.496 123.272 177.429 124.785 172.277 124.785H172.276C167.269 124.791 163.216 123.232 160.417 120.467C157.618 117.703 156.023 113.685 156.023 108.681Z" stroke="white" stroke-opacity="0.13"/>
<path d="M295.942 124.374H288.137V70.9038H295.942V124.374Z" fill="#0E1237"/>
<path d="M295.442 123.874H288.637V71.4038H295.442V123.874Z" stroke="white" stroke-opacity="0.13"/>
<path d="M340.139 108.26H310.263C311.405 114.216 315.58 118.268 322.964 118.268C327.289 118.268 332.551 116.636 335.951 114.148L339.215 119.9C335.312 122.81 329.138 125.217 322.679 125.217C308.346 125.217 302.172 115.208 302.172 105.132C302.172 99.3796 303.94 94.6337 307.571 90.8669C311.188 87.1 315.947 85.1826 321.7 85.1826C327.166 85.1826 331.708 86.8825 335.189 90.3637C338.671 93.845 340.439 98.5229 340.439 104.493C340.411 105.567 340.343 106.845 340.139 108.26ZM310.249 101.868H332.538C331.899 95.8304 327.425 91.9276 321.672 91.9276C315.784 91.9276 311.392 95.912 310.249 101.868Z" fill="#0E1237"/>
<path d="M322.964 118.768C327.198 118.768 332.298 117.246 335.788 114.874L338.56 119.759C334.724 122.491 328.831 124.717 322.679 124.717C315.638 124.717 310.654 122.264 307.425 118.622C304.186 114.969 302.672 110.073 302.672 105.132C302.672 99.492 304.401 94.8759 307.931 91.2139L307.931 91.2132C311.444 87.5548 316.068 85.6826 321.7 85.6826C327.055 85.6826 331.462 87.3436 334.836 90.7173C338.205 94.0862 339.937 98.6255 339.939 104.486C339.914 105.438 339.858 106.544 339.703 107.76H310.263H309.658L309.772 108.354C310.361 111.423 311.738 114.036 313.953 115.882C316.169 117.728 319.179 118.768 322.964 118.768ZM309.758 101.774L309.644 102.368H310.249H332.538H333.093L333.035 101.816C332.369 95.5248 327.682 91.4276 321.672 91.4276C315.518 91.4276 310.941 95.6093 309.758 101.774Z" stroke="white" stroke-opacity="0.13"/>
<path d="M130.733 85.0192C125.852 85.0192 121.024 87.1134 117.352 91.2474V70.9038H110.063V105.159C110.063 116.283 119.079 125.299 130.203 125.299C141.327 125.299 150.343 116.283 150.343 105.159C150.343 94.0352 141.844 85.0192 130.733 85.0192ZM130.203 117.534C123.363 117.534 117.828 111.985 117.828 105.159C117.828 98.3323 123.377 92.7841 130.203 92.7841C137.043 92.7841 142.578 98.3323 142.578 105.159C142.578 111.985 137.043 117.534 130.203 117.534Z" fill="#0E1237"/>
<path d="M116.852 91.2474V92.5633L117.726 91.5795C121.306 87.5488 125.999 85.5192 130.733 85.5192C141.55 85.5192 149.843 94.2939 149.843 105.159C149.843 116.006 141.051 124.799 130.203 124.799C119.356 124.799 110.563 116.006 110.563 105.159V71.4038H116.852V91.2474ZM117.328 105.159C117.328 112.261 123.086 118.034 130.203 118.034C137.32 118.034 143.078 112.261 143.078 105.159C143.078 98.0566 137.32 92.2841 130.203 92.2841C123.1 92.2841 117.328 98.0562 117.328 105.159Z" stroke="white" stroke-opacity="0.13"/>
<path d="M104.773 125.285C107.522 125.285 109.75 123.057 109.75 120.308C109.75 117.559 107.522 115.331 104.773 115.331C102.024 115.331 99.7959 117.559 99.7959 120.308C99.7959 123.057 102.024 125.285 104.773 125.285Z" fill="#0E1237"/>
<path d="M109.25 120.308C109.25 122.781 107.246 124.785 104.773 124.785C102.3 124.785 100.296 122.781 100.296 120.308C100.296 117.836 102.3 115.831 104.773 115.831C107.246 115.831 109.25 117.836 109.25 120.308Z" stroke="white" stroke-opacity="0.13"/>
<defs>
<radialGradient id="paint0_radial_186_798" cx="0" cy="0" r="1" gradientUnits="userSpaceOnUse" gradientTransform="translate(219.5 98) rotate(90) scale(98 219.5)">
<stop stop-color="#03030B" stop-opacity="0"/>
<stop offset="1" stop-color="#03030B"/>
</radialGradient>
</defs>
</svg>
