<svg width="177" height="177" viewBox="0 0 177 177" fill="none" xmlns="http://www.w3.org/2000/svg">
<circle cx="88.5" cy="88.5" r="88.5" fill="#4353FF"/>
<path d="M108.05 120.293C107.734 121.374 107.076 122.324 106.175 123C105.274 123.676 104.179 124.043 103.052 124.044H60.8896C59.7631 124.043 58.6674 123.676 57.7666 123C56.8657 122.324 56.2081 121.374 55.8922 120.293H108.05Z" fill="white"/>
<path d="M97.7025 117.362H66.238L68.4656 109.903H95.4895L97.7025 117.362Z" fill="white"/>
<path d="M117.956 103.381V103.483C117.954 103.943 117.862 104.398 117.684 104.823C117.506 105.247 117.247 105.632 116.92 105.956C116.594 106.28 116.206 106.536 115.781 106.71C115.355 106.885 114.899 106.973 114.439 106.971H49.5026C49.0434 106.973 48.5884 106.884 48.1636 106.709C47.7389 106.535 47.3527 106.278 47.0274 105.954C46.702 105.63 46.4437 105.245 46.2674 104.821C46.0912 104.397 46.0003 103.943 46 103.483V97.2403H107.537C107.657 97.5694 107.852 97.8656 108.108 98.105L110.204 100.186C110.44 100.423 110.721 100.611 111.031 100.739C111.34 100.867 111.672 100.933 112.006 100.933C112.341 100.933 112.673 100.867 112.982 100.739C113.291 100.611 113.572 100.423 113.809 100.186L114.454 99.5412C114.762 99.6877 115.069 99.8343 115.377 99.9515V100.816C115.377 101.494 115.645 102.144 116.123 102.624C116.601 103.105 117.249 103.377 117.927 103.381H117.956Z" fill="white"/>
<path d="M130.165 87.8314C129.653 87.8323 129.152 87.6808 128.727 87.3964C128.302 87.1119 127.971 86.7073 127.776 86.234C127.641 85.8828 127.484 85.5402 127.307 85.2081C127.043 84.7252 126.944 84.1697 127.023 83.6253C127.102 83.0809 127.356 82.5769 127.747 82.1892L128.391 81.559L126.823 80.0056L125.929 80.8996C125.56 81.2582 125.094 81.4997 124.588 81.5935C124.082 81.6874 123.559 81.6295 123.086 81.4271C122.848 81.324 122.603 81.2359 122.353 81.1633C121.827 81.0038 121.366 80.6803 121.036 80.24C120.707 79.7998 120.526 79.2658 120.522 78.716V77.4117H118.309V78.9358C118.304 79.4582 118.141 79.9668 117.839 80.3936C117.538 80.8205 117.114 81.1452 116.623 81.3246C116.418 81.4125 116.213 81.5004 116.023 81.5883C115.552 81.8179 115.021 81.8961 114.505 81.8122C113.988 81.7282 113.509 81.4862 113.135 81.1194L112.007 80.0056L110.439 81.559L111.538 82.6435C111.91 83.0238 112.153 83.5108 112.235 84.0362C112.316 84.5617 112.231 85.0995 111.992 85.5745C111.888 85.7743 111.795 85.9798 111.714 86.19C111.524 86.6701 111.195 87.0826 110.77 87.3749C110.344 87.6673 109.841 87.8262 109.325 87.8314H107.83V90.0297H109.061C109.611 90.0345 110.145 90.2148 110.585 90.5443C111.026 90.8738 111.349 91.3353 111.509 91.8615C111.591 92.126 111.689 92.3853 111.802 92.6383C112.005 93.1122 112.062 93.6362 111.966 94.1428C111.869 94.6494 111.623 95.1156 111.26 95.4813L110.439 96.302L112.007 97.8555L112.593 97.2693C112.98 96.8818 113.481 96.6296 114.022 96.5504C114.564 96.4711 115.116 96.5691 115.598 96.8296C115.943 97.0144 116.3 97.176 116.667 97.3132C117.152 97.5052 117.567 97.8385 117.86 98.2697C118.153 98.7009 118.309 99.2102 118.309 99.7313V100.449H120.522V99.9511C120.514 99.4028 120.684 98.8668 121.007 98.4231C121.329 97.9794 121.786 97.6517 122.31 97.4891C122.728 97.3572 123.135 97.1906 123.526 96.9908C124.013 96.763 124.557 96.69 125.087 96.7817C125.616 96.8735 126.105 97.1255 126.486 97.5037L126.823 97.8555L128.391 96.302L128.025 95.9503C127.644 95.5736 127.39 95.0874 127.298 94.5595C127.206 94.0315 127.281 93.488 127.512 93.0046C127.699 92.6165 127.855 92.2148 127.981 91.8029C128.151 91.2851 128.481 90.8346 128.924 90.516C129.366 90.1974 129.898 90.0271 130.443 90.0297H131V87.8314H130.165ZM119.73 95.54C118.5 95.5342 117.298 95.164 116.278 94.4761C115.258 93.7882 114.464 92.8134 113.997 91.6748C113.53 90.5362 113.411 89.2848 113.654 88.0786C113.898 86.8723 114.494 85.7653 115.366 84.8972C116.238 84.029 117.348 83.4387 118.555 83.2008C119.763 82.9628 121.013 83.0879 122.15 83.5601C123.286 84.0324 124.257 84.8307 124.94 85.8543C125.623 86.8779 125.988 88.081 125.988 89.3116C125.984 90.9672 125.322 92.5532 124.148 93.7212C122.975 94.8891 121.386 95.5433 119.73 95.54Z" fill="white"/>
<path d="M123.056 89.3117C123.06 89.9689 122.869 90.6125 122.508 91.1611C122.146 91.7097 121.63 92.1385 121.024 92.3934C120.418 92.6482 119.75 92.7175 119.105 92.5925C118.46 92.4675 117.867 92.1538 117.4 91.6912C116.933 91.2286 116.614 90.6379 116.484 89.9939C116.353 89.3499 116.416 88.6816 116.666 88.0737C116.915 87.4657 117.339 86.9455 117.885 86.5789C118.43 86.2123 119.072 86.0158 119.729 86.0144C120.607 86.012 121.45 86.3578 122.074 86.9758C122.697 87.5939 123.05 88.4338 123.056 89.3117Z" fill="white"/>
<path d="M114.439 52H49.5026C48.5759 51.9991 47.6867 52.3659 47.0301 53.0198C46.3735 53.6736 46.003 54.5613 46 55.4879V94.3092H108.284L109.017 93.5764C108.929 93.3712 108.856 93.1661 108.782 92.9609H107.449C106.771 92.957 106.122 92.6851 105.645 92.2046C105.167 91.724 104.899 91.0739 104.899 90.3963V87.4506C104.899 86.7745 105.168 86.1262 105.646 85.648C106.124 85.1699 106.773 84.9011 107.449 84.9006H109.075C109.122 84.7636 109.181 84.6311 109.251 84.5049L108.108 83.3618C107.864 83.13 107.67 82.8502 107.539 82.5401C107.408 82.2299 107.342 81.896 107.346 81.5593C107.345 81.223 107.412 80.8899 107.543 80.5801C107.674 80.2704 107.866 79.9903 108.108 79.7567L110.204 77.6757C110.681 77.1985 111.328 76.9292 112.003 76.9265C112.679 76.9237 113.327 77.1877 113.809 77.661L114.981 78.8334C115.113 78.7748 115.245 78.7308 115.377 78.6722V77.0309C115.378 76.3547 115.646 75.7064 116.124 75.2283C116.603 74.7502 117.251 74.4814 117.927 74.4809H117.956V55.4879C117.95 54.5597 117.576 53.6718 116.917 53.0183C116.258 52.3647 115.367 51.9986 114.439 52ZM97.7177 90.0006H47.9638V87.0696H54.0456V65.3947C54.0468 65.0064 54.2015 64.6343 54.4761 64.3597C54.7507 64.0851 55.1228 63.9303 55.5111 63.9292H62.443C62.8313 63.9303 63.2034 64.0851 63.478 64.3597C63.7526 64.6343 63.9074 65.0064 63.9085 65.3947V87.0696H66.8248V76.9722C66.826 76.5839 66.9807 76.2118 67.2553 75.9372C67.5299 75.6626 67.902 75.5078 68.2903 75.5067H75.2222C75.6105 75.5078 75.9826 75.6626 76.2572 75.9372C76.5318 76.2118 76.6866 76.5839 76.6877 76.9722V87.0696H79.6041V58.756C79.6034 58.5633 79.6408 58.3725 79.7142 58.1944C79.7876 58.0163 79.8956 57.8544 80.0318 57.7182C80.168 57.582 80.3298 57.4741 80.5079 57.4007C80.6861 57.3272 80.8769 57.2898 81.0696 57.2905H88.0014C88.1941 57.2898 88.3849 57.3272 88.563 57.4007C88.7411 57.4741 88.903 57.582 89.0392 57.7182C89.1754 57.8544 89.2833 58.0163 89.3567 58.1944C89.4301 58.3725 89.4676 58.5633 89.4669 58.756V87.0696H97.7177V90.0006ZM115.978 74.0852H94.6108V71.1542H115.978V74.0852ZM115.978 67.4171H94.6108V64.4861H115.978V67.4171ZM115.978 60.7344H94.6108V57.8034H115.978V60.7344Z" fill="white"/>
<path d="M86.5355 60.2213H82.5347V87.0694H86.5355V60.2213Z" fill="white"/>
<path d="M73.7567 78.4378H69.7559V87.0696H73.7567V78.4378Z" fill="white"/>
<path d="M60.9778 66.8604H56.9769V87.0698H60.9778V66.8604Z" fill="white"/>
</svg>
