<svg width="29" height="29" viewBox="0 0 29 29" fill="none" xmlns="http://www.w3.org/2000/svg">
<g opacity="0.7">
<path d="M0.998566 23.381C0.994347 24.0086 1.42046 24.557 2.02903 24.7089L14.9042 27.8848C15.845 28.1179 16.8385 27.9945 17.6939 27.5399L27.0441 22.4718C27.8573 22.0383 28.2137 21.0638 27.8731 20.2073C27.5335 19.3414 26.5832 18.8815 25.693 19.1537L23.3578 19.9257L24.0877 18.909C24.5844 18.2308 24.4864 17.2868 23.8609 16.7257C23.2344 16.1635 22.2852 16.1688 21.665 16.7373L16.0823 22.168L12.0713 20.683C11.951 20.6344 11.8825 20.5079 11.9088 20.3813L12.1483 19.162C12.1651 19.0618 12.2411 18.9817 12.3392 18.9574L15.8768 18.3341C16.7385 18.1316 17.3039 17.3068 17.1826 16.4303C17.0613 15.5538 16.2924 14.9136 15.4085 14.9526L9.03387 15.3576C8.39471 15.3967 7.77452 15.5907 7.22819 15.9251L4.29723 17.7128C3.82472 18.0018 3.28154 18.1548 2.7278 18.1558H2.34917C1.59927 18.1611 0.995961 18.7718 0.99912 19.5217L0.998566 23.381ZM22.2861 17.3881C22.5635 17.1392 22.9843 17.1424 23.2575 17.3955C23.5339 17.6518 23.5771 18.0737 23.3588 18.3806L21.9043 20.4057L17.7845 21.7684L22.2861 17.3881ZM1.89824 19.5218C1.89507 19.2687 2.09547 19.0599 2.34861 19.0556H2.72725C3.44658 19.0556 4.15217 18.8563 4.76604 18.4819L7.6951 16.6931V16.692C8.11699 16.4347 8.59477 16.2849 9.08732 16.2543L15.4631 15.8493C15.8596 15.8345 16.2077 16.1098 16.2836 16.5001C16.3701 16.9219 16.1138 17.3386 15.6983 17.4514L12.1744 18.0716C11.7124 18.1633 11.3527 18.5251 11.2641 18.9881L11.0247 20.2074V20.2063C10.9108 20.7674 11.222 21.3264 11.7577 21.5258L15.9229 23.0678C16.1613 23.1543 16.4218 23.1606 16.6633 23.0847L25.966 20.009C26.4058 19.874 26.8741 20.1039 27.0344 20.5342C27.2084 20.9656 27.0291 21.4582 26.6188 21.6765L17.2643 26.7454C16.6062 27.0945 15.8415 27.1894 15.118 27.0112L2.24393 23.8343C2.03825 23.7815 1.8948 23.5938 1.89799 23.3807L1.89824 19.5218Z" fill="white" stroke="white" stroke-width="0.3"/>
<path d="M18.2338 16.3636C18.4142 16.6051 18.6979 16.7475 18.9995 16.7475C19.3001 16.7475 19.5839 16.6051 19.7642 16.3636L27.8253 5.30373C28.07 4.96833 28.0532 4.51058 27.7863 4.1931L25.3868 1.3337C25.2065 1.11959 24.9396 0.997245 24.6601 0.998298H13.3375C13.058 0.997243 12.7922 1.11959 12.6119 1.3337L10.2124 4.1931C9.94448 4.51058 9.92761 4.96938 10.1723 5.30479L18.2338 16.3636ZM14.6286 5.04858L17.8191 14.267L11.1026 5.04858H14.6286ZM26.8981 5.04858L20.1784 14.2681L23.3688 5.04858H26.8981ZM22.4187 5.04858L18.9993 14.9228L15.581 5.04858H22.4187ZM15.8234 4.1489L17.4266 1.9034L20.5738 1.90762L22.1749 4.14891L15.8234 4.1489ZM24.6978 1.9129L26.5752 4.1489H23.2803L21.6803 1.90866L24.6978 1.9129ZM13.3375 1.89813L16.3213 1.9013L14.7171 4.14891H11.4284L13.3375 1.89813Z" fill="white" stroke="white" stroke-width="0.3"/>
</g>
</svg>
