<svg width="16" height="29" viewBox="0 0 16 29" fill="none" xmlns="http://www.w3.org/2000/svg">
<g opacity="0.7">
<path d="M13.8033 0.919678H2.31285C1.73052 0.920572 1.1723 1.1523 0.760536 1.56406C0.348768 1.97583 0.117044 2.53405 0.11615 3.11638V26.0432C0.117044 26.6255 0.348768 27.1837 0.760536 27.5955C1.1723 28.0073 1.73052 28.239 2.31285 28.2399H13.8033C14.3856 28.239 14.9438 28.0073 15.3556 27.5955C15.7674 27.1837 15.9991 26.6255 16 26.0432V3.11638C15.9991 2.53405 15.7674 1.97583 15.3556 1.56406C14.9438 1.1523 14.3856 0.920572 13.8033 0.919678ZM10.7617 1.93354L10.5522 2.30191C10.5194 2.36236 10.4704 2.41243 10.4107 2.44647C10.351 2.48052 10.2829 2.49717 10.2142 2.49454H5.88503C5.81633 2.49717 5.74827 2.48052 5.68855 2.44647C5.62882 2.41243 5.57982 2.36236 5.54707 2.30191L5.35444 1.93354H10.7617ZM14.9828 26.0432C14.9828 26.3569 14.8581 26.6578 14.6363 26.8796C14.4145 27.1014 14.1136 27.226 13.7999 27.226H2.31285C1.99914 27.226 1.69828 27.1014 1.47646 26.8796C1.25463 26.6578 1.13001 26.3569 1.13001 26.0432V3.11638C1.13001 2.80267 1.25463 2.50181 1.47646 2.27999C1.69828 2.05816 1.99914 1.93354 2.31285 1.93354H4.1885L4.67853 2.7987C4.79881 3.01395 4.97435 3.1932 5.18703 3.31796C5.39971 3.44272 5.64183 3.50846 5.88841 3.50841H10.2311C10.4771 3.50786 10.7185 3.44183 10.9306 3.3171C11.1426 3.19238 11.3176 3.01345 11.4376 2.7987L11.9209 1.93354H13.8033C14.117 1.93354 14.4179 2.05816 14.6397 2.27999C14.8615 2.50181 14.9861 2.80267 14.9861 3.11638L14.9828 26.0432ZM9.74784 25.7323C9.74784 25.8667 9.69443 25.9957 9.59937 26.0907C9.5043 26.1858 9.37536 26.2392 9.24091 26.2392H6.87523C6.74079 26.2392 6.61185 26.1858 6.51678 26.0907C6.42171 25.9957 6.3683 25.8667 6.3683 25.7323C6.3683 25.5978 6.42171 25.4689 6.51678 25.3738C6.61185 25.2787 6.74079 25.2253 6.87523 25.2253H9.24091C9.37536 25.2253 9.5043 25.2787 9.59937 25.3738C9.69443 25.4689 9.74784 25.5978 9.74784 25.7323ZM12.4515 15.5767V13.5896C12.4515 13.2759 12.3269 12.975 12.105 12.7532C11.8832 12.5314 11.5823 12.4067 11.2686 12.4067H4.84751C4.5338 12.4067 4.23294 12.5314 4.01111 12.7532C3.78929 12.975 3.66467 13.2759 3.66467 13.5896V15.57C3.66467 15.8837 3.78929 16.1846 4.01111 16.4064C4.23294 16.6282 4.5338 16.7528 4.84751 16.7528H11.2686C11.5823 16.7528 11.8832 16.6282 12.105 16.4064C12.3269 16.1846 12.4515 15.8837 12.4515 15.57V15.5767ZM4.67853 15.5767V13.5896C4.67853 13.5448 4.69633 13.5018 4.72802 13.4701C4.75971 13.4384 4.80269 13.4206 4.84751 13.4206H11.2686C11.3135 13.4206 11.3564 13.4384 11.3881 13.4701C11.4198 13.5018 11.4376 13.5448 11.4376 13.5896V15.57C11.4376 15.6148 11.4198 15.6578 11.3881 15.6895C11.3564 15.7212 11.3135 15.739 11.2686 15.739H4.84751C4.80269 15.739 4.75971 15.7212 4.72802 15.6895C4.69633 15.6578 4.67853 15.6148 4.67853 15.57V15.5767ZM7.55114 8.89202V6.46888C7.55114 6.33444 7.60455 6.2055 7.69962 6.11043C7.79469 6.01536 7.92363 5.96195 8.05807 5.96195C8.19252 5.96195 8.32146 6.01536 8.41653 6.11043C8.51159 6.2055 8.565 6.33444 8.565 6.46888V8.8954C8.565 9.02984 8.51159 9.15878 8.41653 9.25385C8.32146 9.34892 8.19252 9.40233 8.05807 9.40233C7.92363 9.40233 7.79469 9.34892 7.69962 9.25385C7.60455 9.15878 7.55114 9.02984 7.55114 8.8954V8.89202ZM10.052 10.5818C10.0046 10.5349 9.96695 10.4792 9.94126 10.4177C9.91556 10.3562 9.90233 10.2902 9.90233 10.2236C9.90233 10.1569 9.91556 10.0909 9.94126 10.0294C9.96695 9.96794 10.0046 9.91216 10.052 9.86532L11.7756 8.15866C11.8191 8.10055 11.8747 8.05249 11.9385 8.01773C12.0022 7.98296 12.0727 7.96231 12.1452 7.95716C12.2176 7.95201 12.2903 7.96249 12.3584 7.98788C12.4264 8.01328 12.4882 8.053 12.5396 8.10436C12.5909 8.15572 12.6306 8.21751 12.656 8.28555C12.6814 8.3536 12.6919 8.4263 12.6868 8.49875C12.6816 8.5712 12.661 8.64169 12.6262 8.70546C12.5914 8.76923 12.5434 8.82478 12.4853 8.86836L10.7617 10.5852C10.6667 10.6801 10.5378 10.7334 10.4035 10.7334C10.2691 10.7334 10.1403 10.6801 10.0452 10.5852L10.052 10.5818ZM5.35444 10.5852L3.63087 8.86836C3.57277 8.82478 3.52471 8.76923 3.48994 8.70546C3.45518 8.64169 3.43452 8.5712 3.42938 8.49875C3.42423 8.4263 3.43471 8.3536 3.4601 8.28555C3.4855 8.21751 3.52522 8.15572 3.57658 8.10436C3.62793 8.053 3.68973 8.01328 3.75777 7.98788C3.82581 7.96249 3.89852 7.95201 3.97097 7.95716C4.04341 7.96231 4.11391 7.98296 4.17768 8.01773C4.24145 8.05249 4.297 8.10055 4.34058 8.15866L6.05738 9.87546C6.1048 9.9223 6.14244 9.97808 6.16813 10.0396C6.19382 10.1011 6.20705 10.167 6.20705 10.2337C6.20705 10.3003 6.19382 10.3663 6.16813 10.4278C6.14244 10.4893 6.1048 10.5451 6.05738 10.5919C5.96233 10.6869 5.83349 10.7402 5.69915 10.7402C5.56482 10.7402 5.43597 10.6869 5.34092 10.5919L5.35444 10.5852ZM12.225 18.8819L8.69005 17.7025C8.51523 17.6482 8.32932 17.6402 8.1505 17.6793C7.97167 17.7184 7.80604 17.8032 7.66982 17.9255C7.53359 18.0477 7.43142 18.2033 7.3733 18.3768C7.31518 18.5504 7.30309 18.7361 7.33823 18.9157L8.05807 22.5656C8.10286 22.7888 8.2191 22.9913 8.38922 23.1425C8.55935 23.2938 8.77409 23.3855 9.00096 23.4038H9.09559C9.30778 23.4037 9.51491 23.3389 9.68939 23.2182C9.86387 23.0974 9.99743 22.9264 10.0723 22.7279L10.6367 21.3051C10.6394 21.2986 10.6436 21.2928 10.6488 21.2881C10.6541 21.2834 10.6603 21.28 10.6671 21.278L12.1507 20.886C12.3733 20.8304 12.5717 20.7037 12.7158 20.5251C12.8599 20.3465 12.9417 20.1258 12.949 19.8964C12.9563 19.6671 12.8885 19.4416 12.756 19.2543C12.6235 19.0669 12.4336 18.9279 12.2149 18.8583L12.225 18.8819ZM11.8871 19.9195L10.4238 20.325C10.2642 20.3674 10.1169 20.4467 9.99367 20.5565C9.8704 20.6663 9.77463 20.8034 9.71405 20.957L9.13953 22.3696C9.13953 22.3696 9.13953 22.3967 9.09897 22.3933C9.05842 22.3899 9.06518 22.3933 9.0618 22.3629L8.31492 18.7096C8.31195 18.7038 8.31041 18.6975 8.31041 18.691C8.31041 18.6845 8.31195 18.6782 8.31492 18.6724C8.32077 18.668 8.32788 18.6656 8.33519 18.6656C8.34251 18.6656 8.34962 18.668 8.35547 18.6724L11.8905 19.8485C11.8905 19.8485 11.9175 19.8485 11.9175 19.889C11.9175 19.9296 11.9175 19.9161 11.9006 19.9195H11.8871Z" fill="white"/>
</g>
</svg>
