<svg width="342" height="212" viewBox="0 0 342 212" fill="none" xmlns="http://www.w3.org/2000/svg">
<circle cx="42" cy="106" r="42" fill="white" fill-opacity="0.04"/>
<circle cx="42" cy="106" r="41.5" stroke="url(#paint0_linear_1_149)" stroke-opacity="0.19"/>
<path fill-rule="evenodd" clip-rule="evenodd" d="M50.8545 90.0001C50.0351 92.2122 49.2165 94.4247 48.3962 96.6365C46.5839 101.523 44.7711 106.41 42.9578 111.296C42.2712 113.146 41.5785 114.995 40.9006 116.848C40.8067 117.105 40.6847 117.191 40.4027 117.187C39.0073 117.169 37.6115 117.179 36.1631 117.179C36.4042 116.522 36.631 115.892 36.8667 115.265C38.2395 111.612 39.6152 107.96 40.9884 104.307C42.7682 99.5725 44.5466 94.8376 46.3251 90.1027C46.3373 90.0703 46.3406 90.0344 46.3481 90.0001C47.8503 90.0001 49.3524 90.0001 50.8545 90.0001Z" fill="white"/>
<path fill-rule="evenodd" clip-rule="evenodd" d="M20.9999 105.279C25.191 103.757 29.3831 102.238 33.5707 100.707C33.8866 100.592 33.9101 100.698 33.908 100.968C33.8984 102.235 33.8959 103.502 33.9102 104.769C33.9131 105.027 33.8317 105.133 33.5875 105.205C31.2089 105.905 28.8338 106.617 26.458 107.327C26.3803 107.35 26.3061 107.385 26.1683 107.439C26.9655 107.695 27.7085 107.934 28.4517 108.173C30.2 108.735 31.9476 109.299 33.6979 109.854C33.8687 109.908 33.9065 110 33.9059 110.161C33.9017 111.452 33.8962 112.742 33.9092 114.033C33.9123 114.327 33.7991 114.299 33.5987 114.222C31.9813 113.603 30.3623 112.989 28.7433 112.374C26.1624 111.393 23.5811 110.414 20.9999 109.434C20.9999 108.049 20.9999 106.664 20.9999 105.279Z" fill="#4353FE"/>
<path fill-rule="evenodd" clip-rule="evenodd" d="M57.8713 107.427C56.2115 106.93 54.6328 106.456 53.0539 105.984C52.1575 105.715 51.2632 105.439 50.3625 105.186C50.1297 105.121 50.0852 105.002 50.0867 104.786C50.0954 103.531 50.0908 102.276 50.091 101.021C50.0911 100.586 50.0922 100.584 50.4982 100.731C52.4892 101.452 54.4799 102.173 56.4702 102.896C58.5705 103.658 60.6688 104.426 62.7724 105.179C62.9731 105.251 63.0428 105.332 63.0409 105.546C63.0305 106.754 63.0303 107.962 63.0414 109.17C63.0431 109.371 62.9739 109.451 62.7936 109.519C59.4007 110.801 56.0104 112.09 52.6199 113.378C51.8982 113.652 51.1747 113.922 50.4582 114.208C50.1872 114.317 50.0778 114.314 50.0834 113.964C50.1029 112.721 50.097 111.477 50.0855 110.234C50.0834 110.009 50.1481 109.91 50.3675 109.841C52.2751 109.239 54.1788 108.625 56.0831 108.012C56.6499 107.83 57.2149 107.642 57.8713 107.427Z" fill="#4353FE"/>
<circle cx="236" cy="106" r="105" stroke="url(#paint1_linear_1_149)" stroke-width="0.5"/>
<circle cx="236" cy="106" r="85" stroke="url(#paint2_linear_1_149)" stroke-width="0.5"/>
<circle cx="236" cy="106" r="63" stroke="url(#paint3_linear_1_149)" stroke-width="0.5"/>
<circle cx="237" cy="107" r="42" fill="white" fill-opacity="0.04"/>
<circle cx="237" cy="107" r="41.5" stroke="url(#paint4_linear_1_149)" stroke-opacity="0.19"/>
<g filter="url(#filter0_d_1_149)">
<path d="M255.997 108.89C255.947 113.671 253.994 118.238 250.556 121.603C249.883 122.239 249.493 123.117 249.476 124.037V129.086V129.083C249.476 131.246 247.699 133 245.51 133H229.49C227.301 133 225.524 131.246 225.524 129.083V124.037C225.507 123.117 225.117 122.239 224.444 121.603C221.006 118.238 219.053 113.671 219.003 108.89C218.96 107.85 219.343 106.836 220.067 106.075C220.788 105.314 221.789 104.87 222.845 104.842C223.899 104.816 224.922 105.209 225.684 105.932C226.445 106.655 226.88 107.648 226.892 108.691C226.902 112.424 228.924 115.871 232.204 117.738C235.483 119.602 239.518 119.602 242.799 117.738C246.077 115.871 248.099 112.424 248.109 108.691C248.12 107.648 248.558 106.655 249.317 105.932C250.078 105.209 251.101 104.819 252.155 104.845C253.212 104.873 254.213 105.314 254.934 106.075C255.655 106.836 256.038 107.85 255.997 108.89ZM231.983 108.691C232.021 111.67 234.479 114.068 237.5 114.068C240.521 114.068 242.979 111.67 243.017 108.691C242.979 105.709 240.521 103.311 237.5 103.311C234.479 103.311 232.021 105.709 231.983 108.691ZM236.096 81.8617L234.329 85.3956C234.1 85.8511 233.66 86.1681 233.151 86.2408L229.2 86.8067C228.61 86.8913 228.12 87.2998 227.936 87.8587C227.751 88.4199 227.905 89.0327 228.331 89.4436L231.191 92.1932C231.56 92.5501 231.729 93.0596 231.641 93.5621L230.965 97.4457C230.865 98.0257 231.108 98.6104 231.588 98.9579C232.071 99.303 232.711 99.3477 233.237 99.0753L236.77 97.2414H236.772C237.226 97.0043 237.774 97.0043 238.228 97.2414L241.761 99.0753H241.763C242.289 99.3477 242.929 99.303 243.412 98.9579C243.892 98.6104 244.135 98.0257 244.035 97.4457L243.359 93.5621C243.271 93.0596 243.44 92.55 243.809 92.1932L246.669 89.4436C247.095 89.0327 247.249 88.4199 247.064 87.8587C246.88 87.2998 246.39 86.8913 245.8 86.8067L241.849 86.2408C241.34 86.1681 240.9 85.8511 240.671 85.3956L238.904 81.8617C238.64 81.3358 238.095 81 237.5 81C236.905 81 236.36 81.3358 236.096 81.8617Z" fill="#4353FF"/>
</g>
<path d="M121.184 105.759C121.621 106.156 121.621 106.844 121.184 107.241L107.922 119.273C107.279 119.856 106.25 119.4 106.25 118.532L106.25 94.4681C106.25 93.6004 107.279 93.1445 107.922 93.7275L121.184 105.759Z" fill="white" fill-opacity="0.13" stroke="url(#paint5_linear_1_149)" stroke-opacity="0.19"/>
<path d="M148.184 105.759C148.621 106.156 148.621 106.844 148.184 107.241L134.922 119.273C134.279 119.856 133.25 119.4 133.25 118.532L133.25 94.4681C133.25 93.6004 134.279 93.1445 134.922 93.7275L148.184 105.759Z" fill="white" fill-opacity="0.13" stroke="url(#paint6_linear_1_149)" stroke-opacity="0.19"/>
<path d="M180.199 105.764C180.63 106.16 180.63 106.84 180.199 107.236L162.427 123.578C161.786 124.167 160.75 123.712 160.75 122.842L160.75 90.1584C160.75 89.2876 161.786 88.8329 162.427 89.4223L180.199 105.764Z" fill="white" fill-opacity="0.13" stroke="url(#paint7_linear_1_149)" stroke-opacity="0.19"/>
<defs>
<filter id="filter0_d_1_149" x="194" y="60" width="87" height="102" filterUnits="userSpaceOnUse" color-interpolation-filters="sRGB">
<feFlood flood-opacity="0" result="BackgroundImageFix"/>
<feColorMatrix in="SourceAlpha" type="matrix" values="0 0 0 0 0 0 0 0 0 0 0 0 0 0 0 0 0 0 127 0" result="hardAlpha"/>
<feOffset dy="4"/>
<feGaussianBlur stdDeviation="12.5"/>
<feComposite in2="hardAlpha" operator="out"/>
<feColorMatrix type="matrix" values="0 0 0 0 0.262745 0 0 0 0 0.32549 0 0 0 0 1 0 0 0 1 0"/>
<feBlend mode="normal" in2="BackgroundImageFix" result="effect1_dropShadow_1_149"/>
<feBlend mode="normal" in="SourceGraphic" in2="effect1_dropShadow_1_149" result="shape"/>
</filter>
<linearGradient id="paint0_linear_1_149" x1="58.5" y1="66.5" x2="22.5" y2="143.5" gradientUnits="userSpaceOnUse">
<stop stop-color="white"/>
<stop offset="1" stop-color="#494949"/>
</linearGradient>
<linearGradient id="paint1_linear_1_149" x1="341" y1="106" x2="131" y2="106" gradientUnits="userSpaceOnUse">
<stop stop-color="#0F1341"/>
<stop offset="0.5" stop-color="#4353FF"/>
<stop offset="1" stop-color="#0F1341"/>
</linearGradient>
<linearGradient id="paint2_linear_1_149" x1="321" y1="106" x2="151" y2="106" gradientUnits="userSpaceOnUse">
<stop stop-color="#0F1341"/>
<stop offset="0.5" stop-color="#4353FF"/>
<stop offset="1" stop-color="#0F1341"/>
</linearGradient>
<linearGradient id="paint3_linear_1_149" x1="299" y1="106" x2="173" y2="106" gradientUnits="userSpaceOnUse">
<stop stop-color="#0F1341"/>
<stop offset="0.5" stop-color="#4353FF"/>
<stop offset="1" stop-color="#0F1341"/>
</linearGradient>
<linearGradient id="paint4_linear_1_149" x1="253.5" y1="67.5" x2="217.5" y2="144.5" gradientUnits="userSpaceOnUse">
<stop stop-color="white"/>
<stop offset="1" stop-color="#494949"/>
</linearGradient>
<linearGradient id="paint5_linear_1_149" x1="121.375" y1="112.982" x2="99.8248" y2="106.571" gradientUnits="userSpaceOnUse">
<stop stop-color="white"/>
<stop offset="1" stop-color="#494949"/>
</linearGradient>
<linearGradient id="paint6_linear_1_149" x1="148.375" y1="112.982" x2="126.825" y2="106.571" gradientUnits="userSpaceOnUse">
<stop stop-color="white"/>
<stop offset="1" stop-color="#494949"/>
</linearGradient>
<linearGradient id="paint7_linear_1_149" x1="180.196" y1="114.946" x2="152.429" y2="106.795" gradientUnits="userSpaceOnUse">
<stop stop-color="white"/>
<stop offset="1" stop-color="#494949"/>
</linearGradient>
</defs>
</svg>
