<svg width="173" height="77" viewBox="0 0 173 77" fill="none" xmlns="http://www.w3.org/2000/svg">
<path opacity="0.6" d="M0.316406 23.7617C0.316406 16.8216 2.82161 11.151 7.83203 6.75C12.8763 2.3151 19.3932 0.0976562 27.3828 0.0976562C35.0677 0.0976562 41.3307 2.09505 46.1719 6.08984C51.013 10.0508 53.4336 15.112 53.4336 21.2734C53.4336 23.474 53.0951 25.6068 52.418 27.6719C51.7747 29.7031 50.7253 31.7513 49.2695 33.8164C47.8477 35.8477 46.4089 37.6927 44.9531 39.3516C43.4974 40.9766 41.6016 42.957 39.2656 45.293L21.3906 62.5078V62.8125H54.4492V75H1.17969V64.6914L28.8047 38.082C32.5286 34.3581 35.0677 31.362 36.4219 29.0938C37.8099 26.8255 38.5039 24.4219 38.5039 21.8828C38.5039 19.1068 37.4036 16.7708 35.2031 14.875C33.0026 12.9792 30.2266 12.0312 26.875 12.0312C23.3203 12.0312 20.375 13.1484 18.0391 15.3828C15.7031 17.5833 14.5352 20.3763 14.5352 23.7617V24.0156H0.316406V23.7617ZM82.2773 75V15.7891H81.9727L63.2852 28.6875V14.875L82.2266 1.72266H97.4609V75H82.2773ZM164.289 66.3164C159.042 73.1888 151.814 76.625 142.605 76.625C133.397 76.625 126.152 73.2057 120.871 66.3672C115.59 59.4948 112.949 50.1172 112.949 38.2344C112.949 26.4193 115.59 17.1094 120.871 10.3047C126.186 3.46615 133.431 0.046875 142.605 0.046875C151.78 0.046875 159.008 3.44922 164.289 10.2539C169.57 17.0586 172.211 26.3685 172.211 38.1836C172.211 50.0326 169.57 59.4102 164.289 66.3164ZM132.246 57.4805C134.751 62.0508 138.204 64.3359 142.605 64.3359C147.007 64.3359 150.443 62.0677 152.914 57.5312C155.385 52.9609 156.621 46.5286 156.621 38.2344C156.621 30.0078 155.368 23.6432 152.863 19.1406C150.392 14.6042 146.973 12.3359 142.605 12.3359C138.238 12.3359 134.802 14.6042 132.297 19.1406C129.792 23.6771 128.539 30.0417 128.539 38.2344C128.539 46.4948 129.775 52.9102 132.246 57.4805Z" fill="url(#paint0_linear_47_17376)"/>
<defs>
<linearGradient id="paint0_linear_47_17376" x1="6.5" y1="5" x2="161" y2="70" gradientUnits="userSpaceOnUse">
<stop stop-color="white" stop-opacity="0.7"/>
<stop offset="1" stop-color="white" stop-opacity="0"/>
</linearGradient>
</defs>
</svg>
