<svg width="174" height="77" viewBox="0 0 174 77" fill="none" xmlns="http://www.w3.org/2000/svg">
<path opacity="0.6" d="M19.5117 75V15.7891H19.207L0.519531 28.6875V14.875L19.4609 1.72266H34.6953V75H19.5117ZM79.332 76.625C71.4779 76.625 64.9779 74.526 59.832 70.3281C54.7201 66.0964 52.0456 60.6628 51.8086 54.0273H65.9766C66.4167 57.1419 67.8724 59.6641 70.3438 61.5938C72.849 63.5234 75.8789 64.4883 79.4336 64.4883C83.4284 64.4883 86.6784 63.2357 89.1836 60.7305C91.7227 58.1914 92.9922 54.9245 92.9922 50.9297C92.9922 46.8672 91.7396 43.5495 89.2344 40.9766C86.7292 38.4036 83.4961 37.1172 79.5352 37.1172C76.7591 37.1172 74.237 37.7266 71.9688 38.9453C69.7344 40.1302 67.974 41.7721 66.6875 43.8711H52.9766L56.582 1.72266H103.199V13.9102H68.6172L66.9414 33.9688H67.2461C68.7695 31.4635 70.9362 29.5 73.7461 28.0781C76.5898 26.6562 79.8568 25.9453 83.5469 25.9453C90.5547 25.9453 96.3099 28.2643 100.812 32.9023C105.349 37.5065 107.617 43.3802 107.617 50.5234C107.617 58.276 104.993 64.5729 99.7461 69.4141C94.5326 74.2214 87.7279 76.625 79.332 76.625ZM145.703 76.6758C140.422 76.6758 135.682 75.5247 131.484 73.2227C127.32 70.8867 123.952 67.5352 121.379 63.168C117.283 56.9049 115.234 48.8307 115.234 38.9453C115.234 26.8594 117.977 17.3633 123.461 10.457C128.945 3.51693 136.444 0.046875 145.957 0.046875C152.931 0.046875 158.906 1.92578 163.883 5.68359C168.859 9.44141 171.855 14.3164 172.871 20.3086H157.789C157.044 17.8711 155.589 15.9076 153.422 14.418C151.255 12.9284 148.733 12.1836 145.855 12.1836C140.71 12.1836 136.698 14.5195 133.82 19.1914C130.977 23.8633 129.639 30.3125 129.809 38.5391H130.113C131.603 34.9167 134.074 32.0221 137.527 29.8555C140.98 27.6888 145.009 26.6055 149.613 26.6055C156.587 26.6055 162.359 28.9076 166.93 33.5117C171.534 38.082 173.836 43.8372 173.836 50.7773C173.836 58.3268 171.195 64.5391 165.914 69.4141C160.633 74.2552 153.896 76.6758 145.703 76.6758ZM145.551 64.4375C149.275 64.4375 152.423 63.168 154.996 60.6289C157.603 58.056 158.906 54.9245 158.906 51.2344C158.906 47.4427 157.637 44.3112 155.098 41.8398C152.592 39.3685 149.427 38.1328 145.602 38.1328C141.776 38.1328 138.577 39.3685 136.004 41.8398C133.465 44.3112 132.195 47.3919 132.195 51.082C132.195 54.806 133.482 57.9714 136.055 60.5781C138.628 63.151 141.793 64.4375 145.551 64.4375Z" fill="url(#paint0_linear_47_17380)"/>
<defs>
<linearGradient id="paint0_linear_47_17380" x1="6.55801" y1="5" x2="161.653" y2="70.6109" gradientUnits="userSpaceOnUse">
<stop stop-color="white" stop-opacity="0.7"/>
<stop offset="1" stop-color="white" stop-opacity="0"/>
</linearGradient>
</defs>
</svg>
