<svg width="36" height="30" viewBox="0 0 36 30" fill="none" xmlns="http://www.w3.org/2000/svg">
<path d="M11.6102 9.26731C11.6102 8.93654 11.4787 8.61878 11.2447 8.38335L9.47681 6.61543C9.24282 6.38144 8.92505 6.25 8.59285 6.25C8.26209 6.25 7.94288 6.38144 7.70889 6.61543L0.475554 13.8502C-0.158518 14.4843 -0.158518 15.5142 0.475554 16.1483L7.70889 23.3831C7.94288 23.6171 8.26066 23.7485 8.59285 23.7485C8.92506 23.7485 9.24138 23.6171 9.47681 23.3831L11.2447 21.6152C11.4787 21.3812 11.6102 21.0634 11.6102 20.7312C11.6102 20.399 11.4787 20.0812 11.2447 19.8472L6.39601 15L11.2447 10.1513C11.4787 9.91728 11.6102 9.59951 11.6102 9.26731Z" fill="#4353FF"/>
<path d="M26.5322 6.25C26.2 6.25 25.8837 6.38144 25.6482 6.61543L23.8803 8.38335C23.6463 8.61734 23.5149 8.93511 23.5149 9.26731C23.5149 9.59807 23.6463 9.91728 23.8803 10.1513L28.729 15L23.8803 19.8487C23.6463 20.0827 23.5149 20.4005 23.5149 20.7327C23.5149 21.0634 23.6463 21.3812 23.8803 21.6166L25.6482 23.3846C25.8822 23.6185 26.2 23.75 26.5322 23.75C26.863 23.75 27.1822 23.6185 27.4162 23.3846L34.651 16.1497C35.285 15.5157 35.285 14.4858 34.651 13.8517L27.4162 6.61543C27.1822 6.38144 26.8644 6.25 26.5322 6.25Z" fill="#4353FF"/>
<path d="M21.0535 0H18.6558C18.3597 0 18.0737 0.105442 17.8483 0.2961C17.623 0.486758 17.4714 0.752538 17.4237 1.04428L12.8394 28.5441C12.7787 28.9066 12.8813 29.2778 13.1181 29.558C13.355 29.8382 13.7045 30 14.0714 30H16.4691C16.7652 30 17.0512 29.8946 17.2765 29.7039C17.5019 29.5132 17.6535 29.2475 17.7012 28.9557L22.2855 1.45595C22.3462 1.09341 22.2436 0.722187 22.0068 0.441979C21.7684 0.161768 21.4203 0 21.0535 0Z" fill="#4353FF"/>
</svg>
