<svg width="177" height="177" viewBox="0 0 177 177" fill="none" xmlns="http://www.w3.org/2000/svg">
<circle cx="88.5" cy="88.5" r="88.5" fill="#4353FF"/>
<path d="M64.7513 72.2783C65.9316 83.3478 74.7504 92.1663 85.8241 93.3511C86.2954 92.417 87.2465 91.7716 88.3589 91.7716C89.4713 91.7716 90.4266 92.417 90.8937 93.3511C101.963 92.1708 110.782 83.352 111.967 72.2783C111.032 71.807 110.387 70.8559 110.387 69.7435C110.387 68.6311 111.032 67.6758 111.967 67.2087C110.693 55.3033 100.596 46 88.3589 46C76.122 46 66.0209 55.3028 64.7513 67.2087C65.6854 67.68 66.3308 68.6311 66.3308 69.7435C66.3308 70.8559 65.6854 71.8112 64.7513 72.2783ZM68.8784 67.7139C68.8784 66.3679 69.9696 65.2767 71.3155 65.2767H73.0691C73.1413 65.2767 73.1965 65.2046 73.2177 65.1366C73.5235 64.1516 73.9311 63.1919 74.4236 62.2876C74.4533 62.2324 74.4279 62.139 74.3684 62.0795L73.1456 60.8567C72.1988 59.9056 72.1988 58.3601 73.1456 57.409L76.0201 54.5345C77.0051 53.5537 78.5464 53.6174 79.6121 54.6832L80.7287 55.7998C80.7882 55.8592 80.8816 55.8847 80.9368 55.855C81.8369 55.3752 82.788 54.9846 83.7646 54.6874C83.8283 54.6704 83.8878 54.6237 83.8878 54.56V52.7046C83.8878 51.3586 84.979 50.2674 86.3249 50.2674H90.3883C91.7767 50.2674 92.8255 51.4053 92.8255 52.9126V54.56C92.8255 54.6279 92.9061 54.6704 92.9486 54.6831C93.9209 54.9761 94.872 55.371 95.7764 55.8507C95.8316 55.8847 95.925 55.855 95.9845 55.7955L97.2456 54.5344C98.1967 53.5834 99.7422 53.5876 100.693 54.5344L103.568 57.4089C104.553 58.394 104.489 59.9352 103.428 60.9967L102.345 62.0794C102.285 62.1389 102.26 62.2323 102.29 62.2875C102.782 63.1919 103.19 64.1514 103.496 65.1365C103.517 65.2087 103.572 65.2766 103.648 65.2766H105.402C106.748 65.2766 107.839 66.3678 107.839 67.7138V71.7772C107.839 73.1232 106.748 74.2143 105.402 74.2143H103.729C103.657 74.2143 103.597 74.2865 103.576 74.363C103.283 75.3608 102.884 76.3373 102.387 77.2714C102.353 77.3309 102.345 77.4158 102.392 77.4625L103.563 78.6343C104.515 79.5854 104.515 81.131 103.563 82.0821L100.693 84.9565C99.7082 85.9373 98.1669 85.8821 97.1139 84.8249L96.1076 83.8186C96.0566 83.7719 95.976 83.7847 95.9165 83.8186C94.9867 84.3239 94.0016 84.7357 92.9911 85.0457C92.9104 85.0712 92.8297 85.1348 92.8297 85.2198V86.7865C92.8297 88.1325 91.7385 89.2237 90.3926 89.2237H86.3292C84.9408 89.2237 83.892 88.0942 83.892 86.5997V85.2198C83.892 85.1349 83.8113 85.0712 83.7307 85.0457C82.7201 84.7357 81.7351 84.3239 80.801 83.8186C80.7415 83.7889 80.6566 83.7762 80.6099 83.8186L79.472 84.9566C78.5209 85.9034 76.9754 85.9034 76.0243 84.9566L73.1498 82.0821C72.203 81.131 72.203 79.5855 73.1498 78.6344L74.3259 77.4583C74.3726 77.4116 74.3599 77.3267 74.3301 77.2672C73.8376 76.3374 73.4343 75.3608 73.1412 74.3588C73.12 74.2866 73.0648 74.2101 72.9884 74.2101H71.3155C69.9695 74.2101 68.8783 73.1189 68.8783 71.773V67.7096L68.8784 67.7139Z" fill="white"/>
<path d="M88.3544 75.9847C91.7979 75.9847 94.596 73.1825 94.596 69.7432C94.596 66.304 91.7937 63.5017 88.3544 63.5017C84.9152 63.5017 82.1129 66.304 82.1129 69.7432C82.1129 73.1825 84.9152 75.9847 88.3544 75.9847Z" fill="white"/>
<path d="M71.3155 71.9512H72.9884C74.0627 71.9512 74.9968 72.6603 75.3109 73.7175C75.5657 74.5752 75.9054 75.4116 76.33 76.2099C76.8395 77.1652 76.6739 78.3116 75.9266 79.0589L74.7505 80.2308C74.6826 80.2987 74.6826 80.4091 74.7505 80.477L77.6207 83.3472C77.6887 83.4152 77.7991 83.4152 77.867 83.3472L79.0049 82.2093C79.4635 81.7507 80.0664 81.513 80.6863 81.513C81.0897 81.513 81.4973 81.6149 81.8753 81.8187C82.6735 82.2518 83.5184 82.6084 84.3846 82.8717C85.4418 83.1944 86.1509 84.137 86.1509 85.2111V86.591C86.1509 86.6292 86.1552 86.9477 86.325 86.9477H90.3884C90.486 86.9477 90.5625 86.867 90.5625 86.7736V85.2069C90.5625 84.1326 91.2715 83.19 92.3288 82.8674C93.1949 82.6042 94.0398 82.2475 94.8381 81.8144C95.8019 81.2879 96.9568 81.4493 97.7083 82.205L98.7104 83.2071C98.7358 83.2326 98.9694 83.4618 99.0925 83.3387L101.963 80.4685C102.031 80.4005 102.031 80.2901 101.963 80.2222L100.791 79.0504C100.044 78.3031 99.8822 77.1609 100.388 76.2013C100.812 75.3989 101.152 74.5624 101.407 73.709C101.721 72.6517 102.651 71.9427 103.729 71.9427H105.402C105.5 71.9427 105.576 71.862 105.576 71.7686V67.7052C105.576 67.6075 105.495 67.5311 105.402 67.5311H103.648C102.591 67.5311 101.661 66.8348 101.339 65.7987C101.075 64.958 100.727 64.1344 100.307 63.3573C99.7973 62.4232 99.9799 61.2344 100.748 60.4658L101.831 59.3831C101.857 59.3576 102.09 59.1156 101.971 58.9924L99.101 56.118C99.0331 56.0501 98.9227 56.0501 98.8548 56.118L97.5937 57.3791C96.8336 58.1391 95.6576 58.3259 94.7277 57.8334C93.9549 57.4215 93.1398 57.0861 92.3075 56.8314C91.2715 56.5172 90.5751 55.5958 90.5751 54.5428V52.8954C90.5751 52.8784 90.5751 52.5132 90.401 52.5132H86.3376C86.24 52.5132 86.1635 52.5939 86.1635 52.6873V54.5428C86.1635 55.6 85.4672 56.5214 84.4311 56.8356C83.599 57.0904 82.7838 57.4258 82.0109 57.8376C81.0853 58.3302 79.9007 58.1433 79.1449 57.3833L78.0283 56.2667C78.0028 56.2412 77.7566 55.9992 77.6335 56.1223L74.7632 58.9926C74.6953 59.0605 74.6953 59.1709 74.7632 59.2388L75.9861 60.4574C76.7546 61.2259 76.9371 62.4148 76.4276 63.3489C76.0073 64.1217 75.6591 64.9454 75.3959 65.7861C75.0732 66.8221 74.1476 67.5185 73.0861 67.5185H71.3325C71.2348 67.5185 71.1584 67.5992 71.1584 67.6926V71.7559C71.1584 71.8536 71.2391 71.93 71.3325 71.93L71.3155 71.9512ZM88.3546 61.2387C93.0464 61.2387 96.8592 65.0558 96.8592 69.7433C96.8592 74.435 93.0421 78.2478 88.3546 78.2478C83.6629 78.2478 79.8501 74.4308 79.8501 69.7433C79.8501 65.0515 83.6671 61.2387 88.3546 61.2387Z" fill="white"/>
<path d="M82.9366 124.024H93.7765V131H82.9366V124.024Z" fill="white"/>
<path d="M49.0074 116.83C49.0074 119.548 51.2196 121.756 53.9326 121.756H122.78C125.498 121.756 127.706 119.544 127.706 116.83V113.561H49.0079L49.0074 116.83ZM88.3585 114.194C90.248 114.194 91.7807 115.731 91.7807 117.616C91.7807 119.505 90.2436 121.038 88.3585 121.038C86.469 121.038 84.9363 119.501 84.9363 117.616C84.9363 115.726 86.4734 114.194 88.3585 114.194Z" fill="white"/>
<path d="M122.785 63.4937H113.58C113.868 64.6656 114.11 65.8587 114.234 67.0816C115.312 67.4849 116.085 68.5209 116.085 69.7437C116.085 70.9623 115.312 71.9983 114.234 72.4059C112.985 84.6298 103.241 94.3744 91.0172 95.6222C90.6139 96.7007 89.5779 97.4734 88.355 97.4734C87.1365 97.4734 86.1005 96.7006 85.6929 95.6222C73.469 94.374 63.7244 84.6298 62.4766 72.4059C61.3981 72.0026 60.6254 70.9666 60.6254 69.7437C60.6254 68.5251 61.3981 67.4892 62.4766 67.0816C62.5997 65.8545 62.8417 64.6613 63.1304 63.4937H53.9252C51.2078 63.4937 49 65.7059 49 68.4233V111.303H127.702L127.706 68.4233C127.706 65.7059 125.494 63.4937 122.781 63.4937H122.785Z" fill="white"/>
<path d="M89.522 117.621C89.522 119.171 87.1953 119.171 87.1953 117.621C87.1953 116.071 89.522 116.071 89.522 117.621Z" fill="white"/>
</svg>
