<svg width="26" height="26" viewBox="0 0 26 26" fill="none" xmlns="http://www.w3.org/2000/svg">
<path opacity="0.7" d="M25.4345 3.20216H22.7964V0.565444C22.7964 0.336815 22.6588 0.130795 22.4477 0.0431875C22.2363 -0.0444204 21.9938 0.00362268 21.8316 0.165839L19.3916 2.60558C17.3771 1.3395 15.0612 0.672552 12.6636 0.672552C5.68094 0.672269 0 6.35322 0 13.3361C0 20.3191 5.68094 26 12.6638 26C19.6468 26 25.3277 20.3191 25.3277 13.3361C25.3277 10.9382 24.6605 8.62198 23.3938 6.607L25.8344 4.16698C25.9961 4.00533 26.0444 3.762 25.9571 3.5509C25.8692 3.33979 25.6632 3.20216 25.4345 3.20216ZM24.197 13.3361C24.197 19.6956 19.023 24.8696 12.6638 24.8696C6.30465 24.8696 1.13042 19.6956 1.13042 13.3361C1.13042 6.97665 6.30437 1.80269 12.6638 1.80269C14.7602 1.80269 16.7871 2.36395 18.5683 3.42853L16.932 5.06482C16.8261 5.17079 16.7664 5.31464 16.7664 5.46442V6.68048C15.5394 5.9245 14.1201 5.51105 12.6644 5.51105H12.6638C8.34902 5.51105 4.83906 9.0213 4.83906 13.3359C4.83906 17.6504 8.34931 21.1607 12.6638 21.1607C16.9778 21.1607 20.4875 17.6504 20.4875 13.3359C20.4875 11.8796 20.0738 10.4592 19.3175 9.23156H20.5341C20.6839 9.23156 20.8278 9.17222 20.9337 9.06624L22.5706 7.42995C23.6355 9.21235 24.197 11.2395 24.197 13.3361ZM16.7662 8.43376L14.3355 10.8647C13.8581 10.5409 13.2825 10.351 12.6636 10.351C11.0174 10.351 9.6784 11.6902 9.6784 13.3361C9.6784 14.982 11.0174 16.3213 12.6636 16.3213C14.3092 16.3213 15.6484 14.982 15.6484 13.3361C15.6484 12.7169 15.4588 12.1413 15.1347 11.664L17.5665 9.23213H17.9438C18.8535 10.4024 19.3568 11.8476 19.3568 13.3364C19.3568 17.0278 16.3544 20.0308 12.6636 20.0308C8.97217 20.0308 5.9692 17.0278 5.9692 13.3364C5.9692 9.64501 8.97245 6.64148 12.6638 6.64148C12.6641 6.64148 12.6641 6.64148 12.6644 6.64148C14.1526 6.64148 15.5964 7.1448 16.7664 8.05394L16.7662 8.43376ZM14.518 13.3361C14.518 14.3589 13.6863 15.1909 12.6636 15.1909C11.6408 15.1909 10.8088 14.3589 10.8088 13.3361C10.8088 12.3134 11.6408 11.4814 12.6636 11.4814C12.9691 11.4814 13.257 11.5571 13.5114 11.6885L12.2634 12.9368C12.0427 13.1575 12.0427 13.5153 12.2634 13.736C12.3739 13.8465 12.5183 13.9016 12.663 13.9016C12.8077 13.9016 12.9521 13.8465 13.0626 13.736L14.3106 12.488C14.4423 12.7424 14.518 13.0304 14.518 13.3361ZM22.2719 6.12996C22.2668 6.13505 22.262 6.13957 22.2572 6.14466L20.2999 8.10142H17.8966V5.69899L19.8502 3.74533C19.8579 3.73826 19.8652 3.73063 19.8726 3.723L21.666 1.92987V3.76709C21.666 4.07909 21.9192 4.3323 22.2312 4.3323H24.0698L22.2719 6.12996Z" fill="white"/>
</svg>
