<svg width="25" height="24" viewBox="0 0 25 24" fill="none" xmlns="http://www.w3.org/2000/svg">
<path d="M5.62019 3.3101C5.62019 2.02648 4.59369 1 3.3101 1C2.02648 1 1 2.0265 1 3.3101C1 4.59371 2.0265 5.62019 3.3101 5.62019C4.59371 5.62118 5.62019 4.59369 5.62019 3.3101ZM2.28357 3.3101C2.28357 2.74522 2.74519 2.28359 3.31007 2.28359C3.87495 2.28359 4.33657 2.74522 4.33657 3.3101C4.33657 3.87498 3.87495 4.3366 3.31007 4.3366C2.74519 4.33759 2.28357 3.87498 2.28357 3.3101Z" fill="#4353FF" stroke="#4353FF" stroke-width="0.5"/>
<path d="M21.3055 16.2744C19.4571 16.2744 17.9432 17.7893 17.9432 19.6367C17.9422 21.4852 19.4572 23 21.3055 23C23.1539 23 24.6678 21.4851 24.6678 19.6377C24.6678 17.7893 23.1539 16.2744 21.3055 16.2744ZM21.3055 21.7166C20.15 21.7166 19.2257 20.7924 19.2257 19.6368C19.2257 18.4813 20.15 17.557 21.3055 17.557C22.4611 17.557 23.3853 18.4813 23.3853 19.6368C23.3843 20.7924 22.4601 21.7166 21.3055 21.7166Z" fill="#4353FF" stroke="#4353FF" stroke-width="0.5"/>
<path d="M20.6633 8.47044V13.0917L20.6375 13.0659C20.3804 12.8088 19.9962 12.8088 19.7391 13.0659C19.4819 13.323 19.4819 13.7072 19.7391 13.9644L20.8688 15.1199C20.8946 15.1457 20.9204 15.1716 20.9462 15.1716C20.9462 15.1716 20.972 15.1716 20.972 15.1974C21.0495 15.249 21.1517 15.2996 21.254 15.2996H21.3314H21.4595C21.4853 15.2996 21.5111 15.2738 21.5369 15.2738H21.5627C21.5885 15.2738 21.6144 15.248 21.6402 15.2222C21.6402 15.2222 21.666 15.2222 21.666 15.1964C21.6918 15.1706 21.7434 15.1447 21.7682 15.1189L22.9238 13.9634C23.1809 13.7063 23.1809 13.2963 22.9238 13.0649C22.6667 12.8336 22.2567 12.8078 22.0253 13.0649L21.9737 13.1166L21.9727 8.4706C21.9727 5.64734 19.6626 3.33618 16.8383 3.33618C14.015 3.33618 11.7039 5.64628 11.7039 8.4706L11.6781 13.3738C11.6781 15.5042 9.95766 17.2245 7.82732 17.2245C5.69691 17.2245 3.97657 15.5041 3.97657 13.3738V7.21286C3.97657 6.85347 3.69463 6.57156 3.33527 6.57156C2.97589 6.57156 2.69397 6.8535 2.69397 7.21286V13.3738C2.69397 16.197 5.00407 18.5082 7.82839 18.5082C10.6516 18.5082 12.9628 16.1981 12.9628 13.3738L12.9886 8.4706C12.9886 6.34018 14.709 4.61985 16.8394 4.61985C18.9698 4.61985 20.6633 6.3401 20.6633 8.47044Z" fill="#4353FF" stroke="#4353FF" stroke-width="0.5"/>
</svg>
