<svg width="1706" height="891" viewBox="0 0 1706 891" fill="none" xmlns="http://www.w3.org/2000/svg">
<path fill-rule="evenodd" clip-rule="evenodd" d="M1016.51 1.80264e-08C1001.34 40.9389 986.193 81.884 971.013 122.816C937.473 213.253 903.924 303.685 870.366 394.116C857.659 428.359 844.839 462.561 832.294 496.863C830.555 501.615 828.298 503.214 823.079 503.145C797.255 502.802 771.424 502.99 744.619 502.99C749.081 490.836 753.278 479.165 757.641 467.558C783.047 399.955 808.506 332.37 833.919 264.768C866.857 177.151 899.769 89.5253 932.683 1.89853C932.908 1.29855 932.97 0.635268 933.109 0.000374648C960.909 -8.9731e-06 988.707 1.80264e-08 1016.51 1.80264e-08Z" fill="white"/>
<path fill-rule="evenodd" clip-rule="evenodd" d="M464 282.768C541.562 254.599 619.143 226.484 696.643 198.15C702.488 196.014 702.922 197.982 702.884 202.969C702.706 226.419 702.66 249.874 702.925 273.325C702.978 278.091 701.471 280.055 696.952 281.385C652.933 294.342 608.978 307.522 565.01 320.659C563.572 321.089 562.199 321.736 559.648 322.725C574.403 327.473 588.153 331.902 601.906 336.32C634.262 346.716 666.604 357.149 698.996 367.422C702.156 368.425 702.857 370.133 702.846 373.106C702.767 396.992 702.665 420.881 702.907 444.764C702.963 450.214 700.869 449.689 697.16 448.272C667.227 436.817 637.265 425.437 607.303 414.057C559.539 395.913 511.768 377.785 464 359.652C464 334.021 464 308.397 464 282.768Z" fill="#4353FE"/>
<path fill-rule="evenodd" clip-rule="evenodd" d="M1146.36 322.509C1115.64 313.307 1086.43 304.549 1057.21 295.8C1040.62 290.834 1024.07 285.727 1007.4 281.042C1003.09 279.833 1002.27 277.635 1002.29 273.626C1002.45 250.403 1002.37 227.178 1002.37 203.954C1002.38 195.915 1002.4 195.873 1009.91 198.594C1046.76 211.932 1083.6 225.284 1120.43 238.654C1159.3 252.762 1198.13 266.97 1237.06 280.907C1240.78 282.236 1242.07 283.743 1242.03 287.693C1241.84 310.049 1241.84 332.406 1242.04 354.759C1242.07 358.488 1240.79 359.969 1237.45 361.23C1174.66 384.955 1111.92 408.803 1049.17 432.638C1035.82 437.711 1022.43 442.703 1009.17 448.012C1004.15 450.021 1002.13 449.957 1002.23 443.479C1002.59 420.476 1002.49 397.466 1002.27 374.461C1002.23 370.289 1003.43 368.466 1007.49 367.183C1042.79 356.047 1078.02 344.677 1113.27 333.342C1123.76 329.969 1134.21 326.49 1146.36 322.509Z" fill="#4353FE"/>
<g filter="url(#filter0_f_1_5246)">
<ellipse cx="853" cy="474.5" rx="649" ry="212.5" fill="black"/>
</g>
<defs>
<filter id="filter0_f_1_5246" x="0" y="58" width="1706" height="833" filterUnits="userSpaceOnUse" color-interpolation-filters="sRGB">
<feFlood flood-opacity="0" result="BackgroundImageFix"/>
<feBlend mode="normal" in="SourceGraphic" in2="BackgroundImageFix" result="shape"/>
<feGaussianBlur stdDeviation="102" result="effect1_foregroundBlur_1_5246"/>
</filter>
</defs>
</svg>
