<svg width="177" height="177" viewBox="0 0 177 177" fill="none" xmlns="http://www.w3.org/2000/svg">
<circle cx="88.5" cy="88.5" r="88.5" fill="#4353FF"/>
<path fill-rule="evenodd" clip-rule="evenodd" d="M46.0299 81.9525C45.9425 80.2398 47.1742 78.7457 48.8687 78.5015C50.5669 78.261 52.1667 79.3506 52.5602 81.0196H62.4686V82.8854H52.535C52.1378 84.5545 50.5381 85.644 48.8436 85.4035C47.1454 85.1594 45.9137 83.6652 46.0047 81.9525H46.0299ZM112.761 84.3796C112.761 102.039 105.167 109.939 90.3166 118.719C89.2015 119.393 87.8094 119.393 86.6943 118.719C71.8444 109.94 64.2497 102.039 64.2497 84.3796V67.0257C64.2387 65.3531 65.4085 63.9027 67.0484 63.5638L87.7765 59.0305C88.2757 58.9175 88.7932 58.9175 89.2888 59.0305L109.962 63.5638C111.602 63.9027 112.772 65.3531 112.761 67.0257L112.761 84.3796ZM109.394 67.5873C109.376 67.161 109.073 66.7966 108.658 66.7091L88.692 62.3616C88.5644 62.3288 88.4296 62.3288 88.3021 62.3616L68.2997 66.7273C67.8989 66.8293 67.6146 67.1828 67.6001 67.5946V84.3868C67.6001 92.7355 69.4659 98.6247 73.0116 103.416C76.5574 108.212 81.5936 111.812 88.0584 115.617V115.62C88.3426 115.802 88.707 115.802 88.9913 115.62C95.4195 111.805 100.503 108.168 104.002 103.409C107.5 98.6492 109.413 92.7278 109.413 84.3793L109.394 67.5873ZM88.5055 64.1144L107.641 68.3016V84.3792C107.641 92.3198 105.888 97.8773 102.583 102.366C99.2814 106.852 94.5696 110.201 88.5056 113.82C82.4417 110.201 77.6755 106.776 74.4281 102.363C71.1811 97.9496 69.37 92.3154 69.37 84.3792V68.3053L88.5055 64.1144ZM93.4323 73.0535C91.439 71.0602 88.4434 70.4662 85.8379 71.5448C83.236 72.6234 81.5378 75.1598 81.5378 77.9767V82.1128C79.7886 82.2476 78.4367 83.698 78.4221 85.4508V98.4163C78.4367 100.26 79.9272 101.751 81.771 101.765H95.2403C97.0842 101.751 98.5746 100.26 98.5892 98.4163V85.4508C98.5746 83.698 97.2227 82.2476 95.4735 82.1128V77.9767C95.4771 76.1291 94.7405 74.3581 93.4323 73.0535ZM81.771 83.8734H95.2403C95.6593 83.8734 96.0602 84.041 96.3517 84.3398C96.6469 84.635 96.8182 85.0322 96.8182 85.4513V98.4167C96.8072 99.284 96.1076 99.9837 95.2403 99.9946H81.771C80.9037 99.9837 80.204 99.284 80.1931 98.4167V85.4513C80.1931 85.0322 80.3644 84.635 80.6596 84.3398C80.9511 84.041 81.352 83.8734 81.771 83.8734ZM86.1914 89.9372C86.1878 90.6733 86.5339 91.3657 87.1243 91.803V94.8933C87.1243 95.6294 87.7219 96.227 88.4581 96.227C89.1942 96.227 89.7918 95.6294 89.7918 94.8933V91.8212C90.4441 91.3548 90.8085 90.5786 90.7466 89.7769C90.6883 88.9788 90.2145 88.2645 89.5003 87.9001C88.7824 87.5321 87.9297 87.5649 87.2445 87.9876C86.5594 88.4067 86.144 89.1537 86.144 89.9555L86.1914 89.9372ZM89.6825 76.8038C89.2015 76.352 88.5055 76.2281 87.9005 76.4795C87.2955 76.7346 86.8947 77.3213 86.8838 77.9773V82.1098H90.2036V77.9773C90.1927 77.5327 90.0032 77.1099 89.6825 76.8038ZM84.8285 74.304C83.8519 75.277 83.298 76.5997 83.3016 77.9772V82.1097H85.0727V77.9772C85.0727 76.0823 86.6105 74.5445 88.5055 74.5445C90.4005 74.5445 91.9383 76.0822 91.9383 77.9772V82.1097H93.7093V77.9772C93.7166 75.8709 92.4484 73.9723 90.5024 73.167C88.5565 72.3617 86.3153 72.8098 84.8285 74.304ZM127.687 85.2655C128.944 85.2655 130.096 84.5513 130.653 83.4252C131.214 82.2992 131.087 80.9509 130.325 79.9487C129.564 78.9465 128.299 78.4618 127.064 78.6988C125.828 78.9393 124.834 79.854 124.495 81.0675H114.542V82.8859H124.476C124.895 84.3071 126.204 85.2801 127.687 85.2655ZM119.429 71.2067L125.147 62.4753H125.151C125.475 62.581 125.814 62.632 126.156 62.632C127.497 62.632 128.704 61.8267 129.217 60.5877C129.728 59.3523 129.447 57.9274 128.499 56.98C127.552 56.0325 126.127 55.7483 124.888 56.2621C123.653 56.7722 122.844 57.9821 122.844 59.3195C122.847 60.1248 123.139 60.8974 123.667 61.5023L118.208 69.8255H114.542V71.5965H118.693C118.988 71.5892 119.262 71.4472 119.429 71.2067ZM50.8536 62.6321C51.1961 62.6321 51.535 62.581 51.8593 62.4754L57.5588 71.1703C57.7155 71.4399 58.0034 71.6076 58.3168 71.6076H62.4674V69.8255H58.8014L53.3425 61.495C53.8709 60.8901 54.1624 60.1139 54.166 59.3122C54.166 57.9712 53.357 56.7649 52.1217 56.2512C50.8827 55.741 49.4578 56.0216 48.5103 56.9691C47.5629 57.9166 47.2823 59.3414 47.7924 60.5804C48.3063 61.8158 49.5125 62.6248 50.8535 62.6248L50.8536 62.6321ZM63.4767 103.542C63.1159 103.553 62.7989 103.771 62.6531 104.099L58.5279 114.361H58.5315C56.899 114.19 55.3903 115.247 54.993 116.839C54.5995 118.432 55.4449 120.071 56.9682 120.68C58.4951 121.285 60.2333 120.673 61.0423 119.244C61.8477 117.816 61.4796 116.012 60.1714 115.017L64.0706 105.277H68.0464C67.6528 104.697 67.2921 104.11 66.9349 103.506L63.4767 103.542ZM118.518 114.365L114.374 104.158C114.247 103.801 113.912 103.557 113.533 103.542H110.074C109.721 104.147 109.356 104.738 108.963 105.313H112.939L116.838 115.014V115.017C115.515 116.016 115.14 117.838 115.952 119.281C116.765 120.724 118.521 121.344 120.063 120.731C121.601 120.119 122.45 118.465 122.053 116.858C121.652 115.251 120.125 114.183 118.478 114.361L118.518 114.365ZM58.717 94.082H63.3815C63.2612 93.5026 63.1483 92.9159 63.0535 92.3183H58.3162C58.0611 92.3183 57.8169 92.4312 57.6529 92.628L51.385 99.8871V99.8835C50.9404 99.6721 50.4557 99.5664 49.9674 99.5664C48.6264 99.5664 47.4201 100.375 46.9064 101.611C46.3926 102.85 46.6768 104.275 47.6243 105.222C48.5717 106.17 49.9966 106.45 51.232 105.94C52.471 105.426 53.2764 104.22 53.2764 102.879C53.2873 102.216 53.0905 101.563 52.7188 101.013L58.717 94.082ZM127.041 99.5664C126.552 99.5664 126.068 99.6721 125.623 99.8835L119.399 92.6717H119.403C119.231 92.4567 118.969 92.3255 118.692 92.3182H113.955C113.86 92.9158 113.751 93.5025 113.627 94.0819H118.291L124.289 101.042C123.918 101.592 123.721 102.241 123.732 102.908C123.732 104.245 124.537 105.455 125.776 105.965C127.012 106.479 128.437 106.195 129.384 105.248C130.331 104.3 130.616 102.879 130.102 101.64C129.588 100.401 128.382 99.5955 127.041 99.5955L127.041 99.5664Z" fill="white"/>
</svg>
