<svg width="65" height="67" viewBox="0 0 65 67" fill="none" xmlns="http://www.w3.org/2000/svg">
<path d="M5.4668 16.1508L9.90994 64.7432C9.98046 65.3779 10.2626 65.9421 10.6857 66.3653C11.1089 66.7884 11.7436 67 12.3783 67H52.0845C52.7192 67 53.2834 66.7884 53.7771 66.3653C54.2003 65.9421 54.5529 65.3779 54.5529 64.7432L58.9961 16.1508H5.4668ZM22.393 59.5243C22.3225 59.5243 22.252 59.5243 22.252 59.5243C21.2646 59.5243 20.4888 58.7485 20.4183 57.8316L17.9499 28.0697C17.8794 27.576 18.091 27.0823 18.3731 26.7297C18.7257 26.377 19.1488 26.0949 19.6425 26.0949C20.7004 26.0244 21.5467 26.8002 21.6878 27.7876L24.1562 57.5495C24.2267 58.5369 23.4509 59.4537 22.393 59.5243ZM34.0298 57.6906C34.0298 58.7485 33.1835 59.5243 32.1962 59.5243C31.1383 59.5243 30.3625 58.678 30.3625 57.6906V27.9286C30.3625 26.8707 31.2088 26.0949 32.1962 26.0949C33.2541 26.0949 34.0298 26.9412 34.0298 27.9286V57.6906ZM43.974 57.8316C43.9035 58.819 43.0572 59.5243 42.1403 59.5243C42.0698 59.5243 42.0698 59.5243 41.9993 59.5243C41.5056 59.4537 41.0824 59.2422 40.7298 58.8895C40.3772 58.5369 40.2361 58.0432 40.3067 57.5495L42.7751 27.7876C42.8456 26.7297 43.7624 26.0244 44.8203 26.0949C45.8782 26.1655 46.5835 27.0823 46.5129 28.1402L43.974 57.8316Z" fill="#818181"/>
<path d="M61.9571 7.47576H44.6077V2.46841C44.6077 1.83368 44.3256 1.19894 43.9025 0.70526C43.4088 0.211578 42.774 0 42.1393 0H22.251C21.6162 0 20.9815 0.282104 20.4878 0.70526C19.9941 1.12842 19.7826 1.83368 19.7826 2.46841V7.40523H2.43315C1.51631 7.40523 0.740523 7.89892 0.317367 8.6747C-0.105789 9.45049 -0.105789 10.3673 0.317367 11.1431C0.740523 11.9189 1.58684 12.4126 2.43315 12.4126H61.9571C62.874 12.4126 63.6497 11.9189 64.0729 11.1431C64.4961 10.3673 64.4961 9.45049 64.0729 8.6747C63.6497 7.89892 62.874 7.47576 61.9571 7.47576Z" fill="#818181"/>
</svg>
