<svg width="177" height="177" viewBox="0 0 177 177" fill="none" xmlns="http://www.w3.org/2000/svg">
<circle cx="88.5" cy="88.5" r="88.5" fill="#4353FF"/>
<path fill-rule="evenodd" clip-rule="evenodd" d="M115.178 122.056H62.8222C62.1731 122.06 61.5518 122.32 61.0932 122.779C60.6347 123.239 60.376 123.861 60.3733 124.51V126.963H117.634V124.51C117.632 123.859 117.372 123.236 116.912 122.777C116.451 122.317 115.828 122.058 115.178 122.056ZM78.9131 119.919H99.0886L95.5639 113.866H82.4395L78.9156 119.918L78.9131 119.919ZM82.5822 101.965L84.9619 99.6332L83.289 97.9258C83.1174 97.7508 83.0112 97.522 82.9884 97.2779C82.9657 97.0338 83.0277 96.7894 83.164 96.5856C84.0225 95.3058 84.6314 93.8753 84.9585 92.3693C85.0104 92.1303 85.143 91.9164 85.334 91.7636C85.525 91.6107 85.7627 91.5283 86.0073 91.53L88.4055 91.5553L88.4427 88.2206L86.1289 88.1969C85.8697 88.2141 85.6132 88.1361 85.4074 87.9777C85.2016 87.8193 85.0606 87.5913 85.0108 87.3364C84.7155 85.8237 84.1361 84.3807 83.3034 83.0838C83.1711 82.878 83.1138 82.6329 83.141 82.3897C83.1682 82.1466 83.2783 81.9202 83.4528 81.7488L85.1637 80.0725L82.8356 77.6929L81.1281 79.3666C80.9532 79.5382 80.7246 79.6443 80.4807 79.6671C80.2367 79.6898 79.9924 79.6278 79.7888 79.4916C78.5091 78.6335 77.0789 78.0247 75.5733 77.6971C75.3342 77.6453 75.1201 77.5128 74.9671 77.3218C74.8141 77.1309 74.7315 76.893 74.7331 76.6483L74.7584 74.2492L71.4246 74.2155L71.4009 76.5292C71.4181 76.7884 71.3401 77.0449 71.1817 77.2507C71.0233 77.4565 70.7953 77.5975 70.5404 77.6473C69.0263 77.9409 67.582 78.5201 66.2844 79.3539C66.0786 79.486 65.8335 79.5433 65.5904 79.516C65.3473 79.4888 65.121 79.3788 64.9494 79.2044L63.2732 77.4936L60.8935 79.8243L62.5689 81.53C62.7405 81.7049 62.8466 81.9335 62.8694 82.1775C62.8921 82.4214 62.8302 82.6657 62.6939 82.8693C61.8352 84.1493 61.2263 85.5802 60.8994 87.0865C60.8476 87.3256 60.7151 87.5396 60.5241 87.6924C60.3331 87.8453 60.0953 87.9277 59.8506 87.9259L57.4524 87.9014L57.4178 91.2352L59.7316 91.2589C59.9907 91.2417 60.2472 91.3197 60.453 91.4781C60.6588 91.6365 60.7998 91.8645 60.8496 92.1194C61.1449 93.6321 61.7243 95.0751 62.5571 96.372C62.6892 96.5779 62.7464 96.8229 62.7192 97.066C62.692 97.3092 62.582 97.5355 62.4076 97.7071L60.6968 99.3833L63.0283 101.763L64.7357 100.09C64.9106 99.9185 65.1392 99.8124 65.3832 99.7896C65.6271 99.7668 65.8714 99.8288 66.075 99.9651C67.3553 100.823 68.786 101.432 70.2922 101.76C70.5312 101.811 70.7451 101.944 70.8979 102.135C71.0508 102.326 71.1333 102.564 71.1316 102.808L71.1062 105.207L74.4401 105.241L74.4637 102.927C74.4469 102.669 74.5244 102.414 74.6819 102.208C74.8394 102.003 75.0662 101.862 75.32 101.811C76.8327 101.516 78.2757 100.936 79.5726 100.104C79.7785 99.9713 80.0236 99.914 80.2667 99.9412C80.5098 99.9684 80.7362 100.079 80.9077 100.253L82.5822 101.965ZM87.2157 100.408L83.3135 104.23C83.2138 104.329 83.0957 104.406 82.966 104.459C82.8363 104.511 82.6975 104.537 82.5576 104.536C82.4177 104.535 82.2794 104.506 82.1506 104.452C82.0218 104.397 81.9051 104.318 81.807 104.218L79.9737 102.346C78.9045 102.944 77.7635 103.402 76.5782 103.711L76.5512 106.329C76.5502 106.469 76.5217 106.607 76.4672 106.736C76.4128 106.864 76.3335 106.981 76.2338 107.079C76.1342 107.177 76.0163 107.254 75.8867 107.307C75.7571 107.359 75.6185 107.386 75.4788 107.384L70.0169 107.328C69.8771 107.327 69.7389 107.298 69.6102 107.244C69.4815 107.189 69.3648 107.11 69.2667 107.01C69.1687 106.911 69.0913 106.793 69.0389 106.663C68.9865 106.534 68.9601 106.395 68.9613 106.255L68.9884 103.638C67.8097 103.305 66.6785 102.822 65.6224 102.202L63.7511 104.029C63.5495 104.226 63.2777 104.336 62.9952 104.334C62.7128 104.331 62.4429 104.217 62.2446 104.016L58.4227 100.114C58.2246 99.9123 58.1145 99.6405 58.1167 99.358C58.119 99.0756 58.2332 98.8055 58.4345 98.6072L60.3066 96.774C59.7093 95.7047 59.2507 94.5637 58.942 93.3784L56.3242 93.3514C56.042 93.3492 55.7721 93.235 55.574 93.0339C55.3759 92.8328 55.2658 92.5612 55.2678 92.279L55.3244 86.8171C55.3255 86.6774 55.3541 86.5392 55.4086 86.4106C55.4631 86.2819 55.5424 86.1652 55.642 86.0672C55.7416 85.9692 55.8595 85.8918 55.989 85.8393C56.1185 85.7869 56.2571 85.7604 56.3968 85.7616L59.0146 85.7886C59.1816 85.1993 59.3855 84.6211 59.6252 84.0575C59.8649 83.4956 60.1402 82.9495 60.4493 82.4226L58.6186 80.5539C58.4206 80.3524 58.3107 80.0805 58.3131 79.798C58.3154 79.5155 58.4299 79.2455 58.6312 79.0474L62.5334 75.2246C62.735 75.0268 63.0069 74.917 63.2893 74.9194C63.5717 74.9218 63.8417 75.0361 64.0399 75.2372L65.8732 77.1085C66.9427 76.5119 68.0837 76.0536 69.2687 75.7448L69.2957 73.127C69.298 72.8447 69.4122 72.5749 69.6133 72.3768C69.8144 72.1787 70.0859 72.0686 70.3682 72.0706L75.83 72.1272C75.9698 72.1283 76.1079 72.1569 76.2366 72.2114C76.3652 72.2659 76.4819 72.3452 76.5799 72.4448C76.678 72.5443 76.7554 72.6623 76.8078 72.7918C76.8603 72.9213 76.8867 73.0599 76.8856 73.1996L76.8586 75.8174C77.4479 75.9847 78.026 76.1889 78.5897 76.4288C79.1515 76.6687 79.6976 76.9439 80.2245 77.2529L82.0933 75.4222C82.2948 75.2242 82.5667 75.1143 82.8492 75.1167C83.1316 75.119 83.4016 75.2335 83.5998 75.4348L87.4217 79.337C87.6198 79.5384 87.7299 79.8102 87.7277 80.0927C87.7254 80.3752 87.6112 80.6453 87.4099 80.8435L85.5462 82.6819C85.8443 83.2151 86.108 83.7668 86.3358 84.3336C86.5641 84.9021 86.7561 85.4846 86.9108 86.0774L89.5286 86.1044C89.8109 86.1066 90.0807 86.2208 90.2788 86.4219C90.4769 86.623 90.587 86.8946 90.585 87.1768L90.5284 92.6387C90.526 92.9208 90.4117 93.1904 90.2106 93.3884C90.0095 93.5863 89.7381 93.6963 89.456 93.6943L86.8382 93.6672C86.5054 94.8459 86.0229 95.9771 85.4027 97.0332L87.2267 98.902C87.4247 99.1035 87.5345 99.3753 87.5322 99.6578C87.5298 99.9403 87.4154 100.21 87.214 100.408H87.2157ZM77.5612 85.2084C78.7603 86.4359 79.423 88.0893 79.4035 89.8051C79.3841 91.521 78.684 93.1589 77.4573 94.3588H77.4488C76.2158 95.5321 74.5704 96.1727 72.8686 96.142C71.1669 96.1113 69.5456 95.4118 68.3557 94.1949C67.1657 92.978 66.5027 91.3415 66.5102 89.6395C66.5177 87.9374 67.195 86.3068 68.3956 85.1004L68.404 85.0961C69.6314 83.897 71.2848 83.2343 73.0007 83.2538C74.7166 83.2732 76.3545 83.9733 77.5544 85.2V85.2084H77.5612ZM79.0702 83.6994L79.0744 83.7079C80.669 85.3372 81.5522 87.5325 81.5302 89.8121C81.5082 92.0918 80.5828 94.2697 78.957 95.8679H78.9486C77.306 97.3921 75.1337 98.2156 72.8935 98.1632C70.6533 98.1107 68.5219 97.1866 66.9525 95.5872C65.383 93.9879 64.4993 91.8394 64.4892 89.5986C64.4791 87.3578 65.3434 85.2014 66.8984 83.588H66.9068C68.5366 81.9945 70.7316 81.112 73.0109 81.1338C75.2901 81.1556 77.4678 82.08 79.0668 83.7045L79.0702 83.6994ZM115.763 78.7282L118.142 76.3984L116.47 74.6926C116.298 74.5176 116.192 74.2888 116.169 74.0447C116.146 73.8006 116.208 73.5562 116.345 73.3524C117.204 72.0728 117.812 70.6422 118.139 69.1361C118.191 68.897 118.324 68.6831 118.515 68.5302C118.706 68.3773 118.943 68.2949 119.188 68.2968L121.586 68.3212L121.621 64.9924L119.307 64.9688C119.048 64.9859 118.791 64.908 118.586 64.7496C118.38 64.5912 118.239 64.3632 118.189 64.1083C117.894 62.5969 117.315 61.1552 116.482 59.8599C116.35 59.6539 116.293 59.4088 116.32 59.1657C116.347 58.9226 116.457 58.6963 116.632 58.5248L118.342 56.8512L116.014 54.4757L114.306 56.1469C114.131 56.3186 113.903 56.4247 113.658 56.4475C113.414 56.4702 113.17 56.4082 112.966 56.2719C111.686 55.4146 110.256 54.8067 108.75 54.48C108.511 54.428 108.296 54.2951 108.144 54.1038C107.991 53.9125 107.908 53.6744 107.91 53.4295L107.936 51.0346L104.602 51L104.577 53.3104C104.595 53.5696 104.517 53.8262 104.359 54.0321C104.201 54.2381 103.973 54.3793 103.718 54.4293C102.205 54.723 100.762 55.3019 99.4652 56.1351C99.2594 56.2669 99.0145 56.3241 98.7716 56.2969C98.5287 56.2696 98.3025 56.1597 98.131 55.9856L96.4539 54.2739L94.0743 56.6029L95.7463 58.3087C95.9181 58.4833 96.0245 58.7119 96.0474 58.9559C96.0704 59.1999 96.0084 59.4443 95.8721 59.648C95.0137 60.9266 94.4048 62.356 94.0776 63.8609C94.026 64.0999 93.8936 64.3139 93.7028 64.4667C93.5119 64.6196 93.2742 64.7021 93.0297 64.7003L90.6306 64.6749L90.5968 68.0046L92.9106 68.0282C93.1697 68.0113 93.4261 68.0893 93.6319 68.2476C93.8377 68.406 93.9787 68.6339 94.0287 68.8887C94.1767 69.6436 94.3953 70.3829 94.6814 71.0969C94.9678 71.8088 95.3209 72.4919 95.7361 73.1371C95.8681 73.343 95.9252 73.5881 95.898 73.8311C95.8708 74.0742 95.7609 74.3005 95.5867 74.4722L93.8716 76.145L96.2023 78.5221L97.9106 76.8501C98.0854 76.6785 98.3141 76.5724 98.558 76.5496C98.8019 76.5269 99.0463 76.5889 99.2499 76.7252C100.53 77.5833 101.961 78.1916 103.467 78.5179C103.706 78.5694 103.92 78.7017 104.073 78.8926C104.226 79.0835 104.308 79.3213 104.306 79.5659L104.284 81.9658L107.618 82.0004L107.639 79.6917C107.621 79.4325 107.699 79.176 107.858 78.9702C108.016 78.7644 108.244 78.6234 108.499 78.5736C110.012 78.2789 111.455 77.7001 112.752 76.8679C112.958 76.7356 113.203 76.6783 113.446 76.7055C113.689 76.7327 113.915 76.8428 114.087 77.0173L115.763 78.7265V78.7282ZM120.396 77.1752C120.598 76.977 120.712 76.7069 120.714 76.4244C120.716 76.142 120.606 75.8701 120.408 75.6688L118.578 73.8017C119.198 72.7463 119.68 71.6164 120.014 70.4391L122.632 70.4661C122.771 70.4674 122.91 70.441 123.04 70.3886C123.169 70.3362 123.287 70.2588 123.387 70.1607C123.486 70.0627 123.566 69.946 123.62 69.8172C123.675 69.6885 123.703 69.5503 123.704 69.4106L123.761 63.9538C123.762 63.814 123.736 63.6754 123.683 63.5458C123.631 63.4163 123.553 63.2983 123.455 63.1987C123.357 63.0991 123.241 63.0198 123.112 62.9653C122.983 62.9109 122.845 62.8823 122.705 62.8813L120.087 62.8543C119.779 61.6694 119.321 60.5284 118.724 59.4588L120.595 57.628C120.723 57.5017 120.818 57.3447 120.869 57.1719C120.921 56.9991 120.927 56.8161 120.889 56.64H123.892C124.716 56.6416 125.505 56.9693 126.087 57.5514C126.67 58.1334 126.998 58.9225 127 59.7459V108.625C126.998 109.448 126.67 110.237 126.088 110.82C125.507 111.403 124.718 111.732 123.895 111.736L54.1067 111.741V111.737C53.2841 111.733 52.4961 111.405 51.9142 110.824C51.3324 110.242 51.0038 109.454 51 108.632V59.7459C51.0016 58.9221 51.3296 58.1324 51.9122 57.55C52.4948 56.9675 53.2846 56.6397 54.1084 56.6384H91.5038C91.5165 56.8989 91.6247 57.1457 91.8078 57.3316L93.6385 59.1987C93.329 59.7248 93.0537 60.2704 92.8144 60.8319C92.5747 61.3947 92.3708 61.972 92.2038 62.5604L89.586 62.5334C89.3039 62.5314 89.0325 62.6414 88.8314 62.8393C88.6304 63.0372 88.5161 63.3069 88.5136 63.589L88.4536 69.0517C88.4516 69.3338 88.5616 69.6052 88.7595 69.8063C88.9575 70.0074 89.2271 70.1217 89.5092 70.1241L92.127 70.1512C92.4361 71.3348 92.8943 72.4743 93.4908 73.5424L91.6178 75.3707C91.4164 75.5688 91.302 75.8388 91.2996 76.1213C91.2972 76.4038 91.4071 76.6757 91.6051 76.8772L95.4279 80.776C95.526 80.8763 95.6429 80.9563 95.772 81.0113C95.901 81.0664 96.0397 81.0953 96.18 81.0966C96.3203 81.0978 96.4595 81.0714 96.5896 81.0187C96.7196 80.9659 96.8379 80.8881 96.9378 80.7895L98.8074 78.9604C99.3342 79.2697 99.8802 79.545 100.442 79.7846C101.006 80.0242 101.584 80.2281 102.173 80.3951L102.146 83.0129C102.145 83.1526 102.171 83.2913 102.224 83.4208C102.276 83.5504 102.354 83.6684 102.452 83.768C102.55 83.8676 102.666 83.9469 102.795 84.0013C102.924 84.0558 103.062 84.0843 103.202 84.0853L108.664 84.1419C108.946 84.1439 109.217 84.0339 109.418 83.836C109.619 83.6381 109.734 83.3685 109.736 83.0864L109.763 80.4736C110.946 80.1637 112.084 79.7049 113.151 79.1082L114.984 80.9778C115.183 81.1791 115.453 81.2936 115.735 81.2959C116.018 81.2983 116.289 81.1884 116.491 80.9904L120.393 77.1719L120.396 77.1752ZM110.74 61.9786C111.334 62.585 111.803 63.3024 112.119 64.0899C112.435 64.8774 112.594 65.7196 112.585 66.5682C112.575 67.4169 112.399 68.2554 112.066 69.0359C111.733 69.8165 111.249 70.5237 110.642 71.1172L110.638 71.1223C109.411 72.3232 107.756 72.9876 106.039 72.9692C104.322 72.9508 102.682 72.2513 101.481 71.0243V71.0192C100.887 70.4129 100.419 69.6955 100.102 68.908C99.7857 68.1205 99.6275 67.2785 99.6365 66.4298C99.6455 65.5812 99.8216 64.7427 100.155 63.9621C100.488 63.1816 100.972 62.4743 101.578 61.8807L101.582 61.8739C102.81 60.6729 104.464 60.0086 106.181 60.027C107.898 60.0453 109.538 60.7449 110.739 61.9719L110.744 61.9761L110.74 61.9786ZM112.254 60.4806H112.259C113.853 62.1089 114.736 64.3034 114.713 66.5819C114.689 68.8604 113.763 71.0365 112.136 72.6321C110.505 74.228 108.307 75.1114 106.026 75.0884C103.744 75.0654 101.565 74.138 99.966 72.5097L99.9617 72.5046C98.3679 70.8765 97.4856 68.6822 97.5085 66.4039C97.5315 64.1256 98.4579 61.9496 100.084 60.3539L100.089 60.3488C101.72 58.7534 103.918 57.8703 106.199 57.8934C108.481 57.9165 110.66 58.844 112.259 60.4721L112.254 60.4806ZM122.146 82.9006C119.493 85.4863 116.255 87.3933 112.707 88.4594C109.16 89.5256 105.407 89.7195 101.768 89.0245C101.145 88.9057 100.532 88.7621 99.9296 88.5938L101.281 87.8988C101.532 87.7694 101.722 87.5454 101.808 87.2762C101.894 87.007 101.87 86.7146 101.74 86.4633C101.676 86.3389 101.588 86.2283 101.481 86.1379C101.374 86.0474 101.251 85.9789 101.117 85.9363C100.848 85.8501 100.556 85.8745 100.305 86.0039L96.6498 87.8828C96.5254 87.9469 96.4148 88.0349 96.3244 88.1417C96.2339 88.2485 96.1654 88.3721 96.1228 88.5054C96.0801 88.6387 96.0641 88.7791 96.0757 88.9186C96.0874 89.0581 96.1263 89.1939 96.1904 89.3184L98.0719 92.9714C98.2013 93.2227 98.4253 93.4123 98.6945 93.4984C98.9637 93.5846 99.2561 93.5602 99.5074 93.4308C99.7587 93.3013 99.9483 93.0774 100.034 92.8082C100.121 92.5389 100.096 92.2465 99.9668 91.9952L99.2558 90.6146C99.9488 90.8111 100.652 90.9782 101.367 91.1162C102.93 91.415 104.517 91.5654 106.108 91.5654C112.66 91.5739 118.953 89.008 123.632 84.4206C123.742 84.3257 123.832 84.2092 123.896 84.0783C123.959 83.9473 123.995 83.8047 124.002 83.6592C124.008 83.5137 123.985 83.3685 123.933 83.2325C123.881 83.0965 123.801 82.9725 123.699 82.8684C123.598 82.7642 123.476 82.6821 123.341 82.627C123.206 82.5719 123.061 82.545 122.916 82.548C122.77 82.551 122.627 82.5839 122.494 82.6445C122.362 82.7052 122.244 82.7923 122.146 82.9006ZM56.955 72.9294C59.6067 70.3428 62.8436 68.4346 66.3906 67.367C69.9377 66.2994 73.6901 66.1038 77.3289 66.797C77.9521 66.9158 78.5649 67.0594 79.1673 67.2277L77.8162 67.9227C77.5649 68.0521 77.3753 68.2761 77.2892 68.5453C77.203 68.8145 77.2274 69.1069 77.3568 69.3582C77.4863 69.6095 77.7102 69.7991 77.9794 69.8852C78.2487 69.9714 78.5411 69.947 78.7924 69.8176L82.4463 67.9353C82.5707 67.8712 82.6813 67.7833 82.7717 67.6764C82.8622 67.5696 82.9307 67.446 82.9733 67.3127C83.016 67.1794 83.032 67.039 83.0203 66.8995C83.0087 66.76 82.9698 66.6242 82.9056 66.4998L81.0234 62.8467C80.9612 62.7191 80.8741 62.6052 80.7673 62.5117C80.6605 62.4182 80.5361 62.347 80.4014 62.3022C80.2666 62.2575 80.1243 62.2401 79.9828 62.2511C79.8413 62.2621 79.7034 62.3013 79.5772 62.3663C79.451 62.4313 79.3391 62.5209 79.248 62.6298C79.1569 62.7387 79.0885 62.8647 79.0468 63.0004C79.0051 63.1361 78.9909 63.2787 79.005 63.42C79.0192 63.5612 79.0614 63.6982 79.1293 63.8229L79.8403 65.2036C79.1462 65.0065 78.4425 64.8393 77.7292 64.702C73.7532 63.9334 69.6502 64.1412 65.7722 65.3074C61.8942 66.4736 58.3571 68.5635 55.4646 71.3976C55.2649 71.5953 55.1514 71.8639 55.1488 72.1449C55.1462 72.4259 55.2546 72.6965 55.4506 72.8979C55.6466 73.0994 55.9141 73.2152 56.1951 73.2203C56.4761 73.2254 56.7477 73.1193 56.9508 72.9252L56.955 72.9294ZM105.625 101.695H121.368C121.647 101.687 121.911 101.571 122.105 101.371C122.299 101.172 122.407 100.904 122.407 100.626C122.407 100.348 122.299 100.08 122.105 99.8806C121.911 99.6811 121.647 99.5651 121.368 99.5572H105.625C105.347 99.5651 105.083 99.6811 104.889 99.8806C104.695 100.08 104.586 100.348 104.586 100.626C104.586 100.904 104.695 101.172 104.889 101.371C105.083 101.571 105.347 101.687 105.625 101.695ZM101.372 101.695H102.563C102.841 101.687 103.105 101.571 103.299 101.371C103.493 101.172 103.602 100.904 103.602 100.626C103.602 100.348 103.493 100.08 103.299 99.8806C103.105 99.6811 102.841 99.5651 102.563 99.5572H101.372C101.094 99.5651 100.83 99.6811 100.636 99.8806C100.441 100.08 100.333 100.348 100.333 100.626C100.333 100.904 100.441 101.172 100.636 101.371C100.83 101.571 101.094 101.687 101.372 101.695ZM105.625 107.063H121.368C121.647 107.055 121.911 106.939 122.105 106.739C122.299 106.54 122.407 106.272 122.407 105.994C122.407 105.716 122.299 105.448 122.105 105.249C121.911 105.049 121.647 104.933 121.368 104.925H105.625C105.347 104.933 105.083 105.049 104.889 105.249C104.695 105.448 104.586 105.716 104.586 105.994C104.586 106.272 104.695 106.54 104.889 106.739C105.083 106.939 105.347 107.055 105.625 107.063ZM101.372 107.063H102.563C102.841 107.055 103.105 106.939 103.299 106.739C103.493 106.54 103.602 106.272 103.602 105.994C103.602 105.716 103.493 105.448 103.299 105.249C103.105 105.049 102.841 104.933 102.563 104.925H101.372C101.094 104.933 100.83 105.049 100.636 105.249C100.441 105.448 100.333 105.716 100.333 105.994C100.333 106.272 100.441 106.54 100.636 106.739C100.83 106.939 101.094 107.055 101.372 107.063Z" fill="white"/>
</svg>
