<svg width="164" height="19" viewBox="0 0 164 19" fill="none" xmlns="http://www.w3.org/2000/svg">
<path d="M1.09375 3.72656H4.88281C6.55469 3.72656 7.85938 4.22396 8.79688 5.21875C9.73438 6.20833 10.2031 7.58854 10.2031 9.35938C10.2031 11.1354 9.73438 12.5208 8.79688 13.5156C7.86458 14.5052 6.5599 15 4.88281 15H1.09375V3.72656ZM2.5 4.99219V13.7344H4.78906C6.0651 13.7344 7.04688 13.3594 7.73438 12.6094C8.42188 11.8542 8.76562 10.776 8.76562 9.375C8.76562 7.96354 8.42188 6.88021 7.73438 6.125C7.05208 5.36979 6.07031 4.99219 4.78906 4.99219H2.5ZM15.1094 15.1406C13.974 15.1406 13.0625 14.763 12.375 14.0078C11.6875 13.2474 11.3438 12.224 11.3438 10.9375C11.3438 9.65104 11.6875 8.63021 12.375 7.875C13.0625 7.11458 13.974 6.73438 15.1094 6.73438C16.2396 6.73438 17.1484 7.11458 17.8359 7.875C18.5234 8.63021 18.8672 9.65104 18.8672 10.9375C18.8672 12.2188 18.5234 13.2396 17.8359 14C17.1484 14.7604 16.2396 15.1406 15.1094 15.1406ZM13.3672 13.1484C13.7995 13.6797 14.3802 13.9453 15.1094 13.9453C15.8385 13.9453 16.4167 13.6823 16.8438 13.1562C17.2708 12.625 17.4844 11.8854 17.4844 10.9375C17.4844 9.98958 17.2708 9.2526 16.8438 8.72656C16.4167 8.19531 15.8385 7.92969 15.1094 7.92969C14.3802 7.92969 13.7995 8.19531 13.3672 8.72656C12.9401 9.25781 12.7266 9.99479 12.7266 10.9375C12.7266 11.8802 12.9401 12.6172 13.3672 13.1484ZM30.5781 6.875L28.3125 15H26.9297L25.0938 8.71094H25.0625L23.2344 15H21.8516L19.5781 6.875H20.9297L22.5547 13.4844H22.5859L24.4219 6.875H25.7344L27.5781 13.4844H27.6094L29.2344 6.875H30.5781ZM31.6953 15V6.875H32.9766V8.17188H33.0078C33.2422 7.71875 33.5781 7.36719 34.0156 7.11719C34.4531 6.86198 34.9766 6.73438 35.5859 6.73438C36.4714 6.73438 37.1615 7.0026 37.6562 7.53906C38.151 8.07031 38.3984 8.79948 38.3984 9.72656V15H37.0391V9.96875C37.0391 9.30729 36.8828 8.80469 36.5703 8.46094C36.2578 8.11198 35.7917 7.9375 35.1719 7.9375C34.5312 7.9375 34.0182 8.14583 33.6328 8.5625C33.2474 8.97917 33.0547 9.53125 33.0547 10.2188V15H31.6953ZM40.2031 15V3.72656H41.5625V15H40.2031ZM46.7656 15.1406C45.6302 15.1406 44.7188 14.763 44.0312 14.0078C43.3438 13.2474 43 12.224 43 10.9375C43 9.65104 43.3438 8.63021 44.0312 7.875C44.7188 7.11458 45.6302 6.73438 46.7656 6.73438C47.8958 6.73438 48.8047 7.11458 49.4922 7.875C50.1797 8.63021 50.5234 9.65104 50.5234 10.9375C50.5234 12.2188 50.1797 13.2396 49.4922 14C48.8047 14.7604 47.8958 15.1406 46.7656 15.1406ZM45.0234 13.1484C45.4557 13.6797 46.0365 13.9453 46.7656 13.9453C47.4948 13.9453 48.0729 13.6823 48.5 13.1562C48.9271 12.625 49.1406 11.8854 49.1406 10.9375C49.1406 9.98958 48.9271 9.2526 48.5 8.72656C48.0729 8.19531 47.4948 7.92969 46.7656 7.92969C46.0365 7.92969 45.4557 8.19531 45.0234 8.72656C44.5964 9.25781 44.3828 9.99479 44.3828 10.9375C44.3828 11.8802 44.5964 12.6172 45.0234 13.1484ZM54.5781 13.9844C55.2188 13.9844 55.7552 13.7865 56.1875 13.3906C56.625 12.9896 56.8438 12.4974 56.8438 11.9141V11.25L54.6719 11.3828C54.125 11.4193 53.7005 11.5521 53.3984 11.7812C53.1016 12.0104 52.9531 12.3177 52.9531 12.7031C52.9531 13.0885 53.1016 13.3984 53.3984 13.6328C53.6953 13.8672 54.0885 13.9844 54.5781 13.9844ZM54.2734 15.1406C53.4661 15.1406 52.8125 14.9167 52.3125 14.4688C51.8177 14.0208 51.5703 13.4323 51.5703 12.7031C51.5703 12.0052 51.8255 11.4479 52.3359 11.0312C52.8516 10.6146 53.5781 10.3802 54.5156 10.3281L56.8438 10.1953V9.51562C56.8438 9.02083 56.6875 8.63281 56.375 8.35156C56.0625 8.07031 55.625 7.92969 55.0625 7.92969C54.5469 7.92969 54.1276 8.04427 53.8047 8.27344C53.4818 8.4974 53.276 8.8125 53.1875 9.21875H51.875C51.9219 8.49479 52.2344 7.90104 52.8125 7.4375C53.3958 6.96875 54.1562 6.73438 55.0938 6.73438C56.0469 6.73438 56.8021 6.97396 57.3594 7.45312C57.9219 7.93229 58.2031 8.57552 58.2031 9.38281V15H56.9141V13.6016H56.8828C56.638 14.0651 56.2786 14.4375 55.8047 14.7188C55.3307 15 54.8203 15.1406 54.2734 15.1406ZM63.0078 15.1406C61.9661 15.1406 61.125 14.7578 60.4844 13.9922C59.849 13.2266 59.5312 12.2083 59.5312 10.9375C59.5312 9.67188 59.849 8.65625 60.4844 7.89062C61.1198 7.11979 61.9505 6.73438 62.9766 6.73438C63.5495 6.73438 64.0625 6.86458 64.5156 7.125C64.9688 7.38542 65.3177 7.74219 65.5625 8.19531H65.5938V3.72656H66.9531V15H65.6562V13.625H65.6328C65.3672 14.099 65.0078 14.4714 64.5547 14.7422C64.1016 15.0078 63.5859 15.1406 63.0078 15.1406ZM63.2656 7.92969C62.5469 7.92969 61.9766 8.20312 61.5547 8.75C61.1328 9.29167 60.9219 10.0208 60.9219 10.9375C60.9219 11.8594 61.1328 12.5911 61.5547 13.1328C61.9766 13.6745 62.5469 13.9453 63.2656 13.9453C63.9688 13.9453 64.5339 13.6719 64.9609 13.125C65.388 12.5729 65.6016 11.8438 65.6016 10.9375C65.6016 10.0312 65.3854 9.30469 64.9531 8.75781C64.526 8.20573 63.9635 7.92969 63.2656 7.92969ZM76.9219 15.1875C75.3646 15.1875 74.1276 14.6641 73.2109 13.6172C72.2995 12.5651 71.8438 11.1458 71.8438 9.35938C71.8438 7.58854 72.3047 6.17708 73.2266 5.125C74.1484 4.06771 75.3802 3.53906 76.9219 3.53906C78.151 3.53906 79.1927 3.88281 80.0469 4.57031C80.9062 5.2526 81.4245 6.15625 81.6016 7.28125H80.1797C79.9974 6.54167 79.6094 5.95052 79.0156 5.50781C78.4219 5.0599 77.724 4.83594 76.9219 4.83594C75.8229 4.83594 74.9427 5.2474 74.2812 6.07031C73.6198 6.89323 73.2891 7.98958 73.2891 9.35938C73.2891 10.7448 73.6172 11.8464 74.2734 12.6641C74.9297 13.4818 75.8151 13.8906 76.9297 13.8906C77.7578 13.8906 78.4557 13.7005 79.0234 13.3203C79.5911 12.9401 79.9766 12.4062 80.1797 11.7188H81.6016C81.3411 12.8333 80.8073 13.6901 80 14.2891C79.1927 14.888 78.1667 15.1875 76.9219 15.1875ZM85.7344 13.9844C86.375 13.9844 86.9115 13.7865 87.3438 13.3906C87.7812 12.9896 88 12.4974 88 11.9141V11.25L85.8281 11.3828C85.2812 11.4193 84.8568 11.5521 84.5547 11.7812C84.2578 12.0104 84.1094 12.3177 84.1094 12.7031C84.1094 13.0885 84.2578 13.3984 84.5547 13.6328C84.8516 13.8672 85.2448 13.9844 85.7344 13.9844ZM85.4297 15.1406C84.6224 15.1406 83.9688 14.9167 83.4688 14.4688C82.974 14.0208 82.7266 13.4323 82.7266 12.7031C82.7266 12.0052 82.9818 11.4479 83.4922 11.0312C84.0078 10.6146 84.7344 10.3802 85.6719 10.3281L88 10.1953V9.51562C88 9.02083 87.8438 8.63281 87.5312 8.35156C87.2188 8.07031 86.7812 7.92969 86.2188 7.92969C85.7031 7.92969 85.2839 8.04427 84.9609 8.27344C84.638 8.4974 84.4323 8.8125 84.3438 9.21875H83.0312C83.0781 8.49479 83.3906 7.90104 83.9688 7.4375C84.5521 6.96875 85.3125 6.73438 86.25 6.73438C87.2031 6.73438 87.9583 6.97396 88.5156 7.45312C89.0781 7.93229 89.3594 8.57552 89.3594 9.38281V15H88.0703V13.6016H88.0391C87.7943 14.0651 87.4349 14.4375 86.9609 14.7188C86.487 15 85.9766 15.1406 85.4297 15.1406ZM90.9453 9.11719C90.9453 8.41927 91.2266 7.84896 91.7891 7.40625C92.3568 6.95833 93.0859 6.73438 93.9766 6.73438C94.8151 6.73438 95.513 6.95833 96.0703 7.40625C96.6276 7.85417 96.9219 8.42188 96.9531 9.10938H95.6562C95.6094 8.71354 95.4323 8.40365 95.125 8.17969C94.8229 7.95573 94.4245 7.84375 93.9297 7.84375C93.4349 7.84375 93.0365 7.95573 92.7344 8.17969C92.4323 8.39844 92.2812 8.6875 92.2812 9.04688C92.2812 9.59896 92.7318 9.98958 93.6328 10.2188L94.8906 10.5234C95.7083 10.7318 96.2839 11.0026 96.6172 11.3359C96.9557 11.6641 97.125 12.1276 97.125 12.7266C97.125 13.4349 96.8229 14.0156 96.2188 14.4688C95.6146 14.9167 94.8385 15.1406 93.8906 15.1406C93.0052 15.1406 92.2734 14.9219 91.6953 14.4844C91.1224 14.0417 90.7995 13.4583 90.7266 12.7344H92.0859C92.237 13.599 92.8672 14.0312 93.9766 14.0312C94.5234 14.0312 94.9557 13.9245 95.2734 13.7109C95.5964 13.4922 95.7578 13.1979 95.7578 12.8281C95.7578 12.5365 95.6615 12.3047 95.4688 12.1328C95.2812 11.9609 94.9609 11.8151 94.5078 11.6953L93.0781 11.3281C91.6562 10.9635 90.9453 10.2266 90.9453 9.11719ZM101.797 7.91406C101.167 7.91406 100.643 8.13281 100.227 8.57031C99.8151 9.0026 99.5885 9.5599 99.5469 10.2422H103.961C103.945 9.55469 103.74 8.99479 103.344 8.5625C102.948 8.13021 102.432 7.91406 101.797 7.91406ZM103.93 12.6719H105.266C105.146 13.3906 104.771 13.9818 104.141 14.4453C103.516 14.9089 102.763 15.1406 101.883 15.1406C100.721 15.1406 99.8073 14.7656 99.1406 14.0156C98.474 13.2656 98.1406 12.25 98.1406 10.9688C98.1406 9.69792 98.474 8.67448 99.1406 7.89844C99.8125 7.1224 100.706 6.73438 101.82 6.73438C102.914 6.73438 103.779 7.10156 104.414 7.83594C105.049 8.57031 105.367 9.55469 105.367 10.7891V11.3047H99.5391V11.3828C99.5391 12.1641 99.7526 12.7891 100.18 13.2578C100.607 13.7266 101.185 13.9609 101.914 13.9609C102.424 13.9609 102.859 13.8438 103.219 13.6094C103.578 13.375 103.815 13.0625 103.93 12.6719ZM109.695 11.8984H111.109C111.177 12.5078 111.474 12.9974 112 13.3672C112.531 13.737 113.201 13.9219 114.008 13.9219C114.768 13.9219 115.396 13.7422 115.891 13.3828C116.391 13.0182 116.641 12.5599 116.641 12.0078C116.641 11.5339 116.466 11.1432 116.117 10.8359C115.773 10.5286 115.221 10.276 114.461 10.0781L113.016 9.70312C111.974 9.4375 111.214 9.06771 110.734 8.59375C110.255 8.11458 110.016 7.49219 110.016 6.72656C110.016 5.78906 110.385 5.02344 111.125 4.42969C111.87 3.83594 112.828 3.53906 114 3.53906C115.12 3.53906 116.047 3.84115 116.781 4.44531C117.516 5.04427 117.898 5.8151 117.93 6.75781H116.523C116.461 6.15365 116.201 5.67708 115.742 5.32812C115.284 4.97917 114.688 4.80469 113.953 4.80469C113.224 4.80469 112.628 4.97656 112.164 5.32031C111.706 5.66406 111.477 6.11198 111.477 6.66406C111.477 7.09115 111.643 7.44271 111.977 7.71875C112.315 7.98958 112.867 8.22396 113.633 8.42188L114.812 8.73438C115.979 9.02604 116.818 9.41406 117.328 9.89844C117.839 10.3828 118.094 11.0286 118.094 11.8359C118.094 12.8672 117.714 13.6849 116.953 14.2891C116.198 14.888 115.172 15.1875 113.875 15.1875C112.677 15.1875 111.698 14.888 110.938 14.2891C110.177 13.6901 109.763 12.8932 109.695 11.8984ZM119.961 4.91406H121.32V6.875H122.898V7.99219H121.32V12.8203C121.32 13.1901 121.401 13.4635 121.562 13.6406C121.724 13.8125 121.979 13.8984 122.328 13.8984C122.547 13.8984 122.734 13.8854 122.891 13.8594V15C122.714 15.0417 122.427 15.0625 122.031 15.0625C121.286 15.0625 120.755 14.8958 120.438 14.5625C120.12 14.2292 119.961 13.6719 119.961 12.8906V7.99219H118.75V6.875H119.961V4.91406ZM131.023 6.875V15H129.734V13.6797H129.703C129.198 14.6536 128.339 15.1406 127.125 15.1406C126.245 15.1406 125.555 14.875 125.055 14.3438C124.56 13.8073 124.312 13.0755 124.312 12.1484V6.875H125.672V11.9062C125.672 13.2604 126.297 13.9375 127.547 13.9375C128.203 13.9375 128.719 13.7318 129.094 13.3203C129.474 12.9036 129.664 12.3464 129.664 11.6484V6.875H131.023ZM135.867 15.1406C134.826 15.1406 133.984 14.7578 133.344 13.9922C132.708 13.2266 132.391 12.2083 132.391 10.9375C132.391 9.67188 132.708 8.65625 133.344 7.89062C133.979 7.11979 134.81 6.73438 135.836 6.73438C136.409 6.73438 136.922 6.86458 137.375 7.125C137.828 7.38542 138.177 7.74219 138.422 8.19531H138.453V3.72656H139.812V15H138.516V13.625H138.492C138.227 14.099 137.867 14.4714 137.414 14.7422C136.961 15.0078 136.445 15.1406 135.867 15.1406ZM136.125 7.92969C135.406 7.92969 134.836 8.20312 134.414 8.75C133.992 9.29167 133.781 10.0208 133.781 10.9375C133.781 11.8594 133.992 12.5911 134.414 13.1328C134.836 13.6745 135.406 13.9453 136.125 13.9453C136.828 13.9453 137.393 13.6719 137.82 13.125C138.247 12.5729 138.461 11.8438 138.461 10.9375C138.461 10.0312 138.245 9.30469 137.812 8.75781C137.385 8.20573 136.823 7.92969 136.125 7.92969ZM142.32 18.0391C142.081 18.0391 141.885 18.0234 141.734 17.9922V16.8516C141.859 16.8776 142.036 16.8906 142.266 16.8906C142.646 16.8906 142.951 16.7891 143.18 16.5859C143.409 16.388 143.602 16.0521 143.758 15.5781L143.945 15.0078L140.945 6.875H142.398L144.648 13.6406H144.672L146.922 6.875H148.352L145.156 15.5703C144.807 16.5182 144.43 17.1667 144.023 17.5156C143.622 17.8646 143.055 18.0391 142.32 18.0391Z" fill="url(#paint0_linear_593_104)"/>
<path d="M159.521 14C159.226 14 159 13.7569 159 13.479C159 13.3401 159.052 13.2012 159.156 13.1143L162.23 10.1621L159.156 7.20995C158.948 7.00156 158.948 6.67161 159.156 6.48058C159.347 6.28956 159.66 6.27219 159.868 6.46321L163.341 9.78009C163.55 9.97112 163.55 10.3011 163.359 10.5095L163.341 10.5268L159.868 13.8611C159.781 13.9479 159.66 14 159.521 14Z" fill="white"/>
<defs>
<linearGradient id="paint0_linear_593_104" x1="0" y1="9.5" x2="149" y2="9.5" gradientUnits="userSpaceOnUse">
<stop stop-color="white"/>
<stop offset="1" stop-color="white" stop-opacity="0.29"/>
</linearGradient>
</defs>
</svg>
