<svg width="177" height="177" viewBox="0 0 177 177" fill="none" xmlns="http://www.w3.org/2000/svg">
<circle cx="88.5" cy="88.5" r="88.5" fill="#4353FF"/>
<path d="M128.942 106.958V103.663H48V106.958C48 109.574 50.1392 111.713 52.7698 111.713H124.173C126.803 111.713 128.942 109.574 128.942 106.958ZM89.0927 109.271H87.8496C87.0547 109.271 86.4042 108.635 86.4042 107.825C86.4042 107.03 87.0547 106.38 87.8496 106.38H89.0927C89.8877 106.38 90.5381 107.03 90.5381 107.825C90.5381 108.635 89.8877 109.271 89.0927 109.271Z" fill="white"/>
<path d="M128.943 52.7553C128.943 50.1392 126.803 48 124.173 48H52.7698C50.1391 48 48 50.1392 48 52.7553V100.771H128.942L128.943 52.7553ZM107.363 64.9115L101.972 81.346C101.943 81.505 101.885 81.6495 101.798 81.7796C101.784 81.8229 101.755 81.8663 101.711 81.9097C101.668 81.9675 101.625 82.0397 101.567 82.0831C101.365 82.2855 101.119 82.4155 100.844 82.4734C100.743 82.4878 100.656 82.5023 100.555 82.5023H78.3825C77.6164 82.5023 76.9805 83.1238 76.9805 83.9043C76.9805 84.6703 77.6165 85.3063 78.3825 85.3063H80.3338C80.2037 85.3063 80.0736 85.3207 79.958 85.3641C80.117 85.3352 80.276 85.3207 80.435 85.3207C80.4928 85.3063 80.5651 85.3063 80.6229 85.3063H100.555C101.249 85.3063 101.841 85.8122 101.971 86.477C102.983 87.3587 103.634 88.6596 103.634 90.1194C103.634 92.7645 101.48 94.9182 98.835 94.9182C96.1754 94.9182 94.0218 92.7645 94.0218 90.1194C94.0218 89.4401 94.1664 88.7897 94.4121 88.1971H85.0459C85.2916 88.7897 85.4362 89.4402 85.4362 90.1194C85.4362 92.7645 83.2826 94.9182 80.623 94.9182C77.9779 94.9182 75.8243 92.7645 75.8243 90.1194C75.8243 89.2522 76.0556 88.4428 76.4603 87.7346C75.0583 87.0408 74.0898 85.5809 74.0898 83.9043C74.0898 81.9674 75.3762 80.3341 77.1396 79.7994L72.7168 62.8163L71.705 58.9282H66.9062C66.1113 58.9282 65.4608 58.2778 65.4608 57.4828C65.4608 56.6878 66.1113 56.0374 66.9062 56.0374H72.8179C73.4683 56.0374 74.0464 56.4855 74.2199 57.1215L75.2317 61.0096H104.53C105.484 61.0096 106.38 61.4721 106.944 62.2381C107.493 63.0042 107.652 64.0008 107.363 64.9115Z" fill="white"/>
<path d="M98.8345 92.0267C99.8896 92.0267 100.742 91.174 100.742 90.1188C100.742 89.0637 99.8897 88.1965 98.8345 88.1965C97.7794 88.1965 96.9122 89.0637 96.9122 90.1188C96.9122 91.1739 97.7794 92.0267 98.8345 92.0267Z" fill="white"/>
<path d="M80.6226 92.0267C81.6777 92.0267 82.5449 91.174 82.5449 90.1188C82.5449 89.0637 81.6777 88.1965 80.6226 88.1965C79.5675 88.1965 78.7147 89.0637 78.7147 90.1188C78.7147 91.1739 79.5674 92.0267 80.6226 92.0267Z" fill="white"/>
<path d="M80.0733 79.6105H99.4994L104.616 64.015L75.9828 63.9138L80.0733 79.6105ZM94.2525 69.2906C94.2525 68.4956 94.9029 67.8452 95.6979 67.8452C96.4928 67.8452 97.1433 68.4956 97.1433 69.2906V74.9277C97.1433 75.7371 96.4928 76.3731 95.6979 76.3731C94.9029 76.3731 94.2525 75.7371 94.2525 74.9277V69.2906ZM88.6443 69.2906C88.6443 68.4956 89.2803 67.8452 90.0897 67.8452C90.8847 67.8452 91.5351 68.4956 91.5351 69.2906V74.9277C91.5351 75.7371 90.8847 76.3731 90.0897 76.3731C89.2803 76.3731 88.6443 75.7371 88.6443 74.9277V69.2906ZM83.0218 69.2906C83.0218 68.4956 83.6722 67.8452 84.4672 67.8452C85.2766 67.8452 85.9126 68.4956 85.9126 69.2906V74.9277C85.9126 75.7371 85.2766 76.3731 84.4672 76.3731C83.6722 76.3731 83.0218 75.7371 83.0218 74.9277V69.2906Z" fill="white"/>
<path d="M106.105 129C106.899 129 107.55 128.35 107.55 127.555C107.55 126.76 106.899 126.109 106.105 126.109H98.6173L96.2469 114.603H80.6949L78.3244 126.109H70.8372C70.0423 126.109 69.3918 126.76 69.3918 127.555C69.3918 128.35 70.0423 129 70.8372 129H106.105Z" fill="white"/>
</svg>
