<svg width="177" height="177" viewBox="0 0 177 177" fill="none" xmlns="http://www.w3.org/2000/svg">
<circle cx="88.5" cy="88.5" r="88.5" fill="#4353FF"/>
<path fill-rule="evenodd" clip-rule="evenodd" d="M56.5578 84.8268H52.3243C51.5974 84.8268 51 85.4242 51 86.1511V124.438C51 125.165 51.5976 125.763 52.3243 125.763H86.3638C77.827 118.723 68.4563 116.745 57.6361 120.823C57.1133 121.02 56.5593 120.624 56.5596 120.078H56.5578V84.8268ZM90.6359 125.763H124.676C125.402 125.763 126 125.165 126 124.438V86.1512C126 85.4245 125.402 84.8269 124.676 84.8269H120.442V120.079H120.44C120.441 120.624 119.887 121.02 119.364 120.823C108.544 116.745 99.1727 118.724 90.6359 125.763ZM84.3236 92.6098V93.4182C84.3236 95.0434 85.6473 96.3669 87.2722 96.3669H87.7021V124.804C83.5779 121.335 79.1601 118.919 74.3772 117.812C69.3736 116.654 63.9913 116.934 58.1536 118.945V81.9488C62.8751 80.5438 67.6588 79.9428 72.3882 80.6033C72.424 80.9307 72.5748 81.262 72.8216 81.509L76.1876 84.8751L76.1891 84.8735C76.7588 85.4599 77.7322 85.4689 78.326 84.8751L79.7718 83.4294L81.0729 84.1519V91.812C81.0729 92.2526 81.4302 92.6098 81.8708 92.6098H84.3236ZM91.0806 92.6098V93.4182C91.0806 94.1625 90.4719 94.7711 89.7278 94.7711H87.2721C86.9001 94.7711 86.562 94.619 86.3165 94.3736C85.823 93.8799 85.9192 93.3125 85.9192 92.6097L91.0806 92.6098ZM95.9271 84.1529L97.2289 83.43L98.674 84.8751C99.2638 85.4649 100.223 85.4649 100.812 84.8751L104.178 81.5092C104.432 81.256 104.576 80.9343 104.612 80.6033C109.341 79.9428 114.125 80.5439 118.846 81.949V118.945C113.009 116.934 107.627 116.654 102.623 117.812C97.8401 118.919 93.4222 121.336 89.298 124.804V96.3669H89.7279C91.353 96.3669 92.6765 95.0434 92.6765 93.4182V92.6098H95.1294C95.5699 92.6098 95.9272 92.2526 95.9272 91.812V84.1529H95.9271ZM82.043 82.8547H83.3481C82.2846 77.0424 78.5232 74.0239 78.5232 70.4914C78.5232 64.9816 82.9902 60.5148 88.4998 60.5148C94.0095 60.5148 98.4764 64.9816 98.4764 70.4914C98.4764 72.2194 97.5948 73.7954 96.5449 75.6718L96.5437 75.671C95.4673 77.5948 94.1992 79.8622 93.6515 82.8547H94.9589L96.4492 82.043C97.0516 81.6694 97.8156 81.7602 98.3126 82.2571L99.7431 83.6877L102.991 80.4399L101.56 79.0087C101.063 78.5118 100.972 77.7477 101.346 77.1455C102.198 75.7709 102.83 74.2521 103.203 72.6616C103.284 72.3179 103.475 72.0268 103.734 71.821L103.736 71.8226C103.992 71.6148 104.33 71.4935 104.675 71.4935H106.697V66.9006H104.675C104.324 66.9006 103.997 66.7805 103.735 66.573L103.736 66.5714C103.475 66.364 103.284 66.0732 103.204 65.7324C102.831 64.1427 102.198 62.6215 101.346 61.2477C100.973 60.6455 101.064 59.8813 101.56 59.3845L102.991 57.9539L99.7431 54.7061L98.3119 56.1373L98.3103 56.1357C97.8273 56.633 97.0495 56.7241 96.4486 56.3515C95.0745 55.4994 93.5547 54.8668 91.9647 54.4939C91.621 54.4133 91.3297 54.2224 91.124 53.9628L91.1256 53.9615C90.9179 53.7049 90.7966 53.3676 90.7966 53.0224V51H86.2037V53.022C86.2037 53.7235 85.7207 54.3326 85.0355 54.4934C83.4453 54.8665 81.9255 55.4987 80.5514 56.3509C79.9492 56.7243 79.185 56.6335 78.6882 56.1367L77.2572 54.7056L74.009 57.9536L75.4401 59.3847C75.937 59.8816 76.0277 60.6458 75.6543 61.248C74.8023 62.6218 74.1693 64.1424 73.7965 65.7321C73.7159 66.0758 73.5252 66.3669 73.2654 66.5727L73.2641 66.5711C73.0074 66.7789 72.6704 66.9002 72.3251 66.9002H70.3034V71.493H72.3246C72.676 71.493 73.0032 71.6132 73.2649 71.8206L73.2637 71.8222C73.5249 72.0298 73.7159 72.3204 73.796 72.6614C74.1693 74.2519 74.8013 75.7715 75.6538 77.1461C76.0254 77.7456 75.9362 78.5129 75.4396 79.0093L74.009 80.4399L77.2569 83.6877L78.6881 82.2565L78.6897 82.2581C79.1727 81.7609 79.9505 81.6697 80.5514 82.0423L82.043 82.8547ZM94.3313 88.5302V91.0141H82.6687V88.5302H94.3313ZM86.0186 69.1532C86.4053 69.5397 86.4053 70.1671 86.0186 70.5535C85.3969 71.175 84.3284 70.7335 84.3284 69.8532C84.3284 68.9734 85.3968 68.5315 86.0186 69.1532ZM92.3816 69.1532C92.7681 69.5397 92.7681 70.1671 92.3816 70.5535C91.7599 71.175 90.6914 70.7333 90.6914 69.8532C90.6914 68.9735 91.7598 68.5315 92.3816 69.1532ZM89.8969 84.4506H94.3313V86.9344H82.6687V84.4506H89.8969ZM89.0957 72.4393V82.8549H87.9043V72.4393H89.0957ZM87.9043 70.8436H89.0957C89.0957 69.7545 88.9905 68.8877 89.8532 68.0252C91.4789 66.3996 94.2675 67.5582 94.2675 69.8536C94.2675 71.2816 93.1095 72.4393 91.6816 72.4393H90.6916V82.8549H92.0378C92.5832 79.5627 93.9978 76.9018 95.1565 74.8936L95.155 74.8928C96.0932 73.2161 96.8808 71.808 96.8808 70.4915C96.8808 65.8628 93.1288 62.1107 88.5 62.1107C83.8711 62.1107 80.1191 65.8628 80.1191 70.4915C80.1191 73.4094 83.9416 76.6945 84.9622 82.8549H86.3086V72.4393C85.2195 72.4393 84.3527 72.5445 83.49 71.6818C81.8647 70.0565 83.0228 67.2675 85.3184 67.2675C86.7463 67.2675 87.9043 68.4255 87.9043 69.8534V70.8436ZM81.7843 109C82.6996 109.505 81.9319 110.895 81.0176 110.39C75.8941 107.56 70.4464 106.467 64.5669 107.306C63.5295 107.454 63.3038 105.877 64.3425 105.729C70.5712 104.84 76.3529 105.995 81.7843 109ZM81.7843 103.105C82.6996 103.61 81.9319 105 81.0176 104.495C75.8941 101.665 70.4464 100.571 64.5669 101.411C63.5295 101.559 63.3038 99.9817 64.3425 99.8335C70.5712 98.9443 76.3529 100.1 81.7843 103.105ZM95.9824 110.39C95.0678 110.895 94.3005 109.506 95.2157 109C100.651 105.998 106.426 104.839 112.657 105.729C113.696 105.877 113.47 107.454 112.433 107.306C106.556 106.467 101.103 107.558 95.9824 110.39ZM95.9824 104.495C95.0678 104.999 94.3005 103.61 95.2157 103.105C100.651 100.103 106.426 98.9438 112.657 99.8335C113.696 99.9817 113.47 101.559 112.433 101.411C106.556 100.572 101.103 101.662 95.9824 104.495ZM95.9824 98.5899C95.0678 99.0943 94.3005 97.7054 95.2157 97.1998C100.651 94.1973 106.426 93.0388 112.657 93.9284C113.696 94.0766 113.47 95.6536 112.433 95.5055C106.556 94.6666 101.103 95.7568 95.9824 98.5899ZM81.7843 97.1998C82.6996 97.7047 81.9319 99.0949 81.0176 98.5899C75.8941 95.7595 70.4464 94.6661 64.5669 95.5055C63.5295 95.6536 63.3038 94.0768 64.3425 93.9284C70.5712 93.0393 76.3529 94.1946 81.7843 97.1998Z" fill="white"/>
</svg>
