<svg width="267" height="267" viewBox="0 0 267 267" fill="none" xmlns="http://www.w3.org/2000/svg">
<rect width="267" height="267" rx="51" fill="url(#paint0_linear_1065_64)"/>
<rect x="7" y="7" width="253" height="253" rx="43" fill="#D9D9D9"/>
<rect x="7" y="7" width="253" height="253" rx="43" fill="url(#paint1_linear_1065_64)"/>
<rect x="11" y="11" width="245" height="245" rx="43" fill="#D9D9D9"/>
<rect x="11" y="11" width="245" height="245" rx="43" fill="url(#paint2_linear_1065_64)"/>
<g style="mix-blend-mode:soft-light">
<path d="M117.173 98.869C101.444 96.0044 89.0082 99.0034 84.0519 107.587C80.3535 113.992 81.4093 122.486 86.6143 131.565C86.7196 131.749 86.8601 131.91 87.0278 132.04C87.1955 132.17 87.3871 132.265 87.5917 132.32C87.7962 132.376 88.0097 132.39 88.2199 132.363C88.4301 132.336 88.6329 132.268 88.8167 132.163C89.1879 131.95 89.4593 131.598 89.5713 131.185C89.6834 130.772 89.6268 130.331 89.4141 129.96C84.7249 121.783 83.8111 114.452 86.8457 109.2C90.9624 102.069 102.054 99.3941 116.594 102.043C116.856 102.095 117.128 102.08 117.384 102.001C117.64 101.922 117.872 101.78 118.059 101.589C118.247 101.397 118.384 101.162 118.458 100.905C118.531 100.647 118.54 100.375 118.483 100.114C118.413 99.7989 118.251 99.5123 118.017 99.2905C117.784 99.0688 117.489 98.9221 117.171 98.8693L117.173 98.869ZM94.7933 142.6C101.153 149.589 109.415 156.144 118.838 161.585C141.652 174.757 165.941 178.278 177.911 170.116C178.256 169.871 178.491 169.501 178.566 169.085C178.64 168.669 178.549 168.241 178.311 167.891C178.073 167.542 177.707 167.3 177.293 167.218C176.878 167.135 176.448 167.219 176.094 167.45C165.381 174.756 142.308 171.411 120.451 158.791C111.309 153.512 103.309 147.166 97.1797 140.43C96.9665 140.188 96.6859 140.015 96.3739 139.934C96.0619 139.853 95.7329 139.868 95.429 139.975C95.1765 140.065 94.9503 140.216 94.7709 140.415C94.5915 140.614 94.4645 140.855 94.4014 141.116C94.3383 141.376 94.3411 141.648 94.4095 141.907C94.478 142.166 94.6099 142.404 94.7933 142.6Z" fill="white"/>
<path d="M174.094 140.638C184.392 128.472 187.988 116.235 183.043 107.668C179.404 101.365 171.709 98.0372 161.485 97.9044C161.057 97.8989 160.645 98.0635 160.338 98.3618C160.032 98.6602 159.856 99.068 159.85 99.4957C159.846 99.8148 159.936 100.128 160.11 100.396C160.283 100.664 160.533 100.874 160.826 100.999C161.021 101.083 161.23 101.127 161.442 101.13C170.638 101.249 177.267 104.117 180.249 109.282C184.357 116.397 181.151 127.31 171.632 138.554C171.49 138.715 171.382 138.903 171.314 139.106C171.245 139.309 171.218 139.524 171.234 139.738C171.25 139.952 171.308 140.16 171.405 140.351C171.503 140.542 171.637 140.712 171.801 140.85C171.965 140.989 172.155 141.093 172.359 141.157C172.563 141.221 172.779 141.244 172.992 141.224C173.205 141.205 173.413 141.142 173.602 141.042C173.791 140.941 173.958 140.804 174.094 140.638ZM147.627 99.4063C138.315 101.402 128.405 105.302 118.887 110.797C95.3335 124.396 79.9693 144.446 82.104 158.985C82.1306 159.198 82.1994 159.404 82.3065 159.59C82.4137 159.777 82.5569 159.939 82.7278 160.07C82.8988 160.2 83.0939 160.294 83.3019 160.348C83.5099 160.401 83.7265 160.413 83.939 160.382C84.1516 160.35 84.3557 160.277 84.5394 160.166C84.7232 160.055 84.8829 159.908 85.0092 159.734C85.1354 159.56 85.2257 159.363 85.2747 159.154C85.3237 158.945 85.3304 158.728 85.2945 158.516C83.4007 145.608 97.9635 126.601 120.499 113.591C129.732 108.26 139.329 104.484 148.303 102.559C148.709 102.458 149.059 102.202 149.28 101.847C149.501 101.492 149.575 101.065 149.488 100.656C149.4 100.248 149.157 99.8887 148.81 99.6555C148.463 99.4223 148.039 99.3329 147.627 99.4063Z" fill="white"/>
<path d="M109.47 169.064C114.857 184.098 123.665 193.356 133.571 193.356C140.794 193.356 147.478 188.432 152.69 179.762C152.807 179.581 152.886 179.378 152.923 179.165C152.96 178.952 152.954 178.734 152.905 178.524C152.844 178.26 152.718 178.016 152.537 177.814C152.357 177.612 152.129 177.459 151.874 177.369C151.619 177.278 151.346 177.253 151.079 177.296C150.812 177.339 150.56 177.448 150.346 177.614C150.175 177.747 150.033 177.912 149.927 178.1C145.243 185.892 139.488 190.132 133.571 190.132C125.344 190.132 117.486 181.874 112.508 167.976C112.44 167.773 112.332 167.585 112.19 167.424C112.048 167.262 111.876 167.131 111.683 167.037C111.49 166.943 111.28 166.889 111.065 166.877C110.851 166.866 110.637 166.897 110.435 166.97C110.233 167.043 110.047 167.155 109.889 167.3C109.731 167.445 109.603 167.62 109.513 167.815C109.424 168.01 109.374 168.221 109.366 168.435C109.359 168.65 109.395 168.864 109.472 169.064H109.47ZM158.656 166.122C161.443 157.217 162.939 146.94 162.939 136.231C162.939 109.513 153.588 86.4792 140.268 80.5644C139.879 80.4007 139.441 80.3961 139.048 80.5517C138.655 80.7073 138.339 81.0107 138.168 81.3967C137.997 81.7827 137.984 82.2205 138.131 82.6161C138.279 83.0117 138.576 83.3335 138.959 83.5125C150.839 88.7884 159.715 110.647 159.715 136.231C159.715 146.619 158.264 156.571 155.578 165.16C155.509 165.363 155.481 165.579 155.496 165.793C155.511 166.008 155.569 166.217 155.667 166.409C155.813 166.698 156.044 166.936 156.328 167.092C156.612 167.248 156.936 167.315 157.259 167.284C157.581 167.253 157.887 167.126 158.136 166.919C158.386 166.711 158.567 166.434 158.656 166.122ZM189.03 164.543C189.037 163.526 188.842 162.517 188.457 161.574C188.072 160.632 187.504 159.775 186.787 159.053C186.07 158.331 185.216 157.758 184.277 157.367C183.337 156.976 182.329 156.775 181.311 156.775C180.293 156.775 179.286 156.976 178.346 157.367C177.406 157.758 176.553 158.332 175.836 159.054C175.118 159.776 174.551 160.632 174.166 161.575C173.781 162.517 173.586 163.526 173.593 164.544C173.606 166.582 174.425 168.533 175.871 169.97C177.317 171.407 179.273 172.213 181.312 172.213C183.35 172.213 185.306 171.407 186.752 169.97C188.198 168.533 189.017 166.582 189.03 164.543ZM185.804 164.543C185.804 165.735 185.331 166.878 184.488 167.72C183.646 168.563 182.503 169.036 181.311 169.037C180.423 169.037 179.554 168.773 178.815 168.279C178.076 167.786 177.501 167.084 177.161 166.263C176.821 165.442 176.732 164.539 176.905 163.667C177.078 162.796 177.506 161.995 178.135 161.367C178.763 160.738 179.563 160.311 180.435 160.137C181.306 159.964 182.21 160.053 183.031 160.393C183.852 160.733 184.553 161.309 185.047 162.047C185.541 162.786 185.804 163.655 185.804 164.543ZM85.7191 172.262C86.7328 172.263 87.7366 172.063 88.6732 171.675C89.6098 171.287 90.4608 170.719 91.1776 170.002C91.8944 169.285 92.463 168.434 92.8508 167.498C93.2387 166.561 93.4383 165.557 93.4382 164.543C93.4382 163.53 93.2386 162.526 92.8507 161.589C92.4628 160.653 91.8942 159.802 91.1774 159.085C90.4605 158.368 89.6095 157.8 88.6729 157.412C87.7363 157.024 86.7325 156.824 85.7188 156.824C84.7051 156.824 83.7013 157.024 82.7648 157.412C81.8283 157.8 80.9773 158.368 80.2606 159.085C79.5438 159.802 78.9753 160.653 78.5874 161.589C78.1995 162.526 77.9999 163.53 78 164.543C77.9999 165.557 78.1995 166.561 78.5874 167.497C78.9753 168.434 79.5439 169.285 80.2607 170.002C80.9775 170.719 81.8285 171.287 82.765 171.675C83.7016 172.063 84.7054 172.263 85.7191 172.262ZM85.7191 169.037C84.5272 169.037 83.3841 168.563 82.5413 167.72C81.6984 166.877 81.225 165.734 81.225 164.542C81.225 163.351 81.6984 162.207 82.5413 161.365C83.3841 160.522 84.5272 160.048 85.7191 160.048C86.911 160.048 88.0541 160.522 88.8969 161.365C89.7397 162.207 90.2132 163.351 90.2132 164.542C90.2132 165.734 89.7397 166.877 88.8969 167.72C88.0541 168.563 86.911 169.037 85.7191 169.037Z" fill="white"/>
<path d="M133.571 88.4382C135.098 88.4383 136.59 87.9856 137.859 87.1374C139.129 86.2891 140.118 85.0834 140.702 83.6728C141.188 82.5 141.377 81.2256 141.252 79.9625C141.127 78.6993 140.693 77.4863 139.988 76.431C139.283 75.3756 138.328 74.5104 137.209 73.9119C136.09 73.3135 134.84 73.0003 133.571 73C132.044 72.9997 130.552 73.4523 129.282 74.3004C128.012 75.1485 127.023 76.3541 126.439 77.7647C125.854 79.1752 125.702 80.7274 125.999 82.2248C126.297 83.7222 127.033 85.0976 128.113 86.177C128.829 86.8938 129.68 87.4624 130.617 87.8503C131.553 88.2382 132.557 88.4382 133.571 88.4382ZM133.571 85.2119C132.682 85.2118 131.814 84.9483 131.075 84.4546C130.336 83.9609 129.76 83.2593 129.42 82.4384C129.194 81.8933 129.077 81.309 129.077 80.7189C129.077 80.1288 129.194 79.5445 129.42 78.9994C129.645 78.4543 129.976 77.959 130.394 77.5417C130.811 77.1245 131.306 76.7936 131.851 76.5679C132.465 76.3137 133.128 76.1987 133.791 76.2313C134.455 76.2639 135.103 76.4433 135.689 76.7566C136.275 77.0698 136.784 77.5091 137.18 78.0428C137.576 78.5765 137.849 79.1914 137.978 79.8431C138.108 80.4948 138.091 81.1671 137.93 81.8116C137.768 82.4562 137.466 83.0569 137.045 83.5706C136.623 84.0842 136.093 84.498 135.492 84.7821C134.892 85.0662 134.235 85.2135 133.571 85.2135V85.2119ZM134.75 141.692C133.302 142.004 131.789 141.729 130.544 140.927C129.615 140.328 128.885 139.467 128.445 138.454C128.006 137.44 127.876 136.319 128.074 135.232C128.272 134.145 128.788 133.141 129.556 132.347C130.325 131.553 131.311 131.005 132.391 130.772C133.83 130.484 135.323 130.774 136.549 131.578C137.776 132.382 138.637 133.636 138.947 135.07C139.256 136.503 138.99 138.001 138.204 139.24C137.419 140.478 136.178 141.358 134.75 141.69V141.692Z" fill="white"/>
</g>
<defs>
<linearGradient id="paint0_linear_1065_64" x1="133.5" y1="0" x2="133.5" y2="267" gradientUnits="userSpaceOnUse">
<stop stop-color="#6D7AFF"/>
<stop offset="0.435" stop-color="#2631AB"/>
<stop offset="1" stop-color="#4353FF"/>
</linearGradient>
<linearGradient id="paint1_linear_1065_64" x1="236.5" y1="249.5" x2="21" y2="32.5" gradientUnits="userSpaceOnUse">
<stop stop-color="#6D7AFF"/>
<stop offset="0.435" stop-color="#2631AB"/>
<stop offset="1" stop-color="#4353FF"/>
</linearGradient>
<linearGradient id="paint2_linear_1065_64" x1="133.5" y1="11" x2="87" y2="268" gradientUnits="userSpaceOnUse">
<stop stop-color="#4353FF"/>
<stop offset="1" stop-color="#6D7AFF"/>
</linearGradient>
</defs>
</svg>
