<svg width="159" height="167" viewBox="0 0 159 167" fill="none" xmlns="http://www.w3.org/2000/svg">
<path d="M89.4081 132.246C58.7243 132.246 39.5607 108.34 39.3392 107.899C36.3483 103.933 36.9022 98.2042 40.5577 95.0093C44.1024 91.8144 49.5302 92.1449 52.6318 96.0008C55.8442 100.077 85.6419 134.67 131.391 94.789C133.828 92.6957 137.04 92.1449 139.92 93.3568C142.8 94.5686 144.905 97.3229 145.348 100.518C145.791 103.823 144.683 107.128 142.246 109.221C122.307 126.518 104.473 132.246 89.4081 132.246Z" fill="#090A14"/>
<path d="M39.815 107.707C39.7913 107.676 39.7794 107.659 39.7749 107.653L39.7656 107.634L39.7384 107.598C36.9008 103.835 37.4343 98.4032 40.8867 95.3858L40.8867 95.3858L40.8924 95.3807C44.2265 92.3757 49.3215 92.6854 52.2407 96.3123C53.8758 98.3866 62.2054 108.142 75.9131 112.357C89.6716 116.588 108.734 115.203 131.717 95.1675C134.017 93.1924 137.03 92.6829 139.726 93.8176C142.44 94.9594 144.433 97.5616 144.853 100.586C145.276 103.743 144.214 106.872 141.921 108.842L141.919 108.843C122.054 126.075 104.333 131.746 89.4081 131.746C74.1994 131.746 61.8359 125.822 53.2362 119.828C48.9374 116.832 45.5846 113.822 43.2942 111.535C42.1492 110.392 41.2706 109.431 40.673 108.744C40.374 108.4 40.1461 108.126 39.9908 107.932C39.9129 107.835 39.8545 107.76 39.815 107.707Z" stroke="white" stroke-opacity="0.3"/>
<path d="M132.696 166.5H25.0938C11.5173 166.5 0.521484 154.998 0.521484 140.816V66.8888C0.521484 58.6251 4.33636 50.9198 10.7319 46.0062L64.5889 5.35772C73.1163 -1.11924 84.6731 -1.11924 93.2005 5.35772L137.969 38.7476L152.331 50.0264C154.799 52.0365 156.146 55.1633 155.697 58.4018C155.36 61.6402 153.341 64.432 150.424 65.6604C147.506 66.8888 144.252 66.5538 141.784 64.5437L127.534 53.2649L82.9901 19.9867C80.5216 18.0883 77.1556 18.0883 74.6871 19.9867L20.8301 60.7469C18.9226 62.1986 17.8006 64.432 17.9128 66.7771V140.704C17.9128 144.836 21.1667 148.186 25.0938 148.186H132.696C135.501 148.186 138.081 146.511 139.203 143.831C140.55 140.927 143.243 138.917 146.272 138.582C149.414 138.247 152.331 139.699 154.126 142.379C155.921 145.059 156.258 148.521 154.912 151.424C150.985 160.693 142.233 166.5 132.696 166.5ZM150.199 123.506C145.487 123.506 141.672 119.486 141.672 114.461V97.7102L125.963 95.8118C121.251 95.2534 117.885 90.7866 118.446 85.7613C119.007 80.8478 123.158 77.1626 127.871 77.8327L151.097 80.6245C155.36 81.1828 158.614 84.9796 158.614 89.6698V114.461C158.727 119.486 154.912 123.506 150.199 123.506Z" fill="#090A14"/>
<path d="M64.8901 5.75681L64.8913 5.75589C73.2399 -0.585295 84.5494 -0.585295 92.898 5.7559L92.9015 5.75852L137.66 39.1408L137.67 39.1484L152.015 50.4141C152.016 50.4151 152.018 50.416 152.019 50.417C154.358 52.3237 155.625 55.2797 155.202 58.3331L155.201 58.3416L155.2 58.3501C154.881 61.415 152.971 64.0451 150.23 65.1996C147.467 66.3627 144.412 66.0392 142.1 64.156L142.094 64.1517L127.845 52.8728L127.845 52.8727L127.834 52.8643L83.2949 19.5904C83.2939 19.5896 83.2929 19.5888 83.2919 19.5881C80.6447 17.5542 77.0312 17.5545 74.3842 19.5889C74.3836 19.5894 74.3829 19.5899 74.3823 19.5904L20.5283 60.3482L20.5273 60.349C18.5034 61.8894 17.2965 64.2703 17.4128 66.7889V140.704C17.4128 145.094 20.8731 148.686 25.0938 148.686H132.696C135.698 148.686 138.458 146.895 139.661 144.033C140.94 141.282 143.485 139.394 146.326 139.079C149.27 138.765 152.012 140.121 153.711 142.657C155.414 145.2 155.727 148.477 154.458 151.214L154.454 151.222L154.451 151.229C150.6 160.319 142.025 166 132.696 166H25.0938C11.8142 166 1.02148 154.743 1.02148 140.816V66.8888C1.02148 58.7799 4.76454 51.2222 11.0349 46.404C11.0354 46.4036 11.036 46.4031 11.0365 46.4027L64.8901 5.75681ZM142.172 97.7102V97.267L141.732 97.2138L126.023 95.3154L126.022 95.3153C121.608 94.7923 118.41 90.5957 118.943 85.8181C119.477 81.1359 123.413 77.7038 127.801 78.3277L127.801 78.3278L127.811 78.3291L151.032 81.1202C151.033 81.1204 151.034 81.1205 151.035 81.1206C155.029 81.6452 158.114 85.2117 158.114 89.6698L158.114 114.461L158.114 114.472C158.221 119.238 154.611 123.006 150.199 123.006C145.789 123.006 142.172 119.237 142.172 114.461V97.7102Z" stroke="white" stroke-opacity="0.3"/>
</svg>
