<svg width="187" height="47" viewBox="0 0 187 47" fill="none" xmlns="http://www.w3.org/2000/svg">
<path d="M75.9617 26.1547C75.9617 26.7629 75.7456 27.3407 75.3132 27.7665C74.9118 28.2226 74.325 28.4659 73.7382 28.4659H60.15C60.2427 29.2566 60.428 30.0473 60.7677 30.7772C61.4162 32.237 62.5897 33.3926 64.0412 33.9704C64.875 34.305 65.7397 34.457 66.6353 34.4266C67.4382 34.4266 68.2103 34.305 68.9824 34.0617C69.7853 33.8184 70.5574 33.4534 71.2676 32.9973C71.5456 32.8452 71.8853 32.7236 72.1941 32.7236C72.6882 32.7236 73.1515 32.906 73.4912 33.2405C73.8926 33.5751 74.1397 34.1225 74.1088 34.6699C74.1397 35.2477 73.8309 35.8255 73.3368 36.0992C72.3176 36.8291 71.2059 37.3765 69.9706 37.7415C68.7353 38.076 67.4382 38.2585 66.1412 38.2585C64.6588 38.2585 63.2074 37.9847 61.8177 37.4678C60.5206 36.9508 59.3471 36.1601 58.3897 35.1565C57.4015 34.1225 56.6603 32.906 56.1353 31.5679C55.5795 30.0777 55.3015 28.5268 55.3324 26.9454C55.3324 25.4552 55.5795 23.965 56.1045 22.5357C57.0618 19.8291 59.0383 17.6394 61.5706 16.5142C63.9794 15.4498 66.6971 15.3281 69.1985 16.2101C70.1868 16.5446 71.1441 17.092 71.9471 17.7307C72.7809 18.4301 73.4912 19.2208 74.0779 20.1332C74.6956 21.1063 75.1588 22.1707 75.4368 23.2656C75.5603 23.7217 75.6529 24.1779 75.7765 24.6645C75.9 25.1815 75.9617 25.6681 75.9617 26.1547ZM71.5765 25.2119C71.5765 23.813 71.0824 22.4749 70.1868 21.4105C69.6927 20.8326 69.1059 20.3765 68.4265 20.0115C67.6235 19.6466 66.7588 19.4641 65.8633 19.4641C64.9985 19.4337 64.1647 19.6162 63.3927 20.0115C62.7441 20.346 62.1574 20.8022 61.6633 21.38C60.7368 22.4749 60.2118 23.813 60.15 25.2119H71.5765ZM138.529 26.55C138.529 27.9793 138.282 29.4087 137.788 30.7772C137.325 32.0545 136.615 33.2406 135.657 34.2441C134.7 35.2477 133.557 36.0688 132.291 36.6162C130.87 37.2245 129.357 37.5286 127.813 37.4982C126.269 37.5286 124.756 37.2245 123.335 36.6162C122.069 36.0688 120.895 35.2477 119.969 34.2441C119.043 33.2406 118.332 32.0545 117.869 30.7772C116.912 28.0706 116.912 25.0903 117.869 22.3532C118.332 21.0759 119.043 19.8899 119.969 18.8863C120.926 17.8827 122.069 17.092 123.335 16.5446C124.756 15.9364 126.269 15.6323 127.813 15.6627C129.357 15.6323 130.87 15.9364 132.291 16.5446C133.557 17.092 134.7 17.8827 135.657 18.8863C136.615 19.8899 137.325 21.0759 137.788 22.3532C138.282 23.7217 138.529 25.1207 138.529 26.55ZM133.712 26.55C133.712 25.6681 133.588 24.8165 133.31 23.965C133.094 23.1743 132.692 22.4444 132.167 21.8058C131.673 21.1976 131.025 20.6806 130.315 20.3156C129.542 19.9203 128.678 19.7378 127.813 19.7682C126.115 19.7074 124.509 20.4677 123.428 21.7754C122.903 22.414 122.532 23.1743 122.285 23.965C122.038 24.7861 121.884 25.6681 121.884 26.55C121.884 27.4319 122.007 28.3139 122.285 29.1958C122.532 29.9865 122.903 30.7164 123.428 31.355C123.922 31.9937 124.54 32.5107 125.281 32.8756C126.084 33.271 126.948 33.4534 127.844 33.423C129.512 33.4534 131.117 32.6931 132.198 31.3854C132.723 30.7468 133.094 30.0169 133.341 29.2262C133.588 28.3443 133.742 27.4624 133.712 26.55ZM163.081 26.55C163.081 27.9793 162.834 29.4087 162.339 30.7772C161.876 32.0545 161.166 33.2406 160.209 34.2441C159.251 35.2477 158.109 36.0688 156.842 36.6162C155.422 37.2245 153.909 37.5286 152.364 37.4982C150.82 37.5286 149.307 37.2245 147.887 36.6162C146.62 36.0688 145.447 35.2477 144.52 34.2441C143.594 33.2406 142.884 32.0545 142.42 30.7772C141.432 28.0402 141.432 25.0903 142.42 22.3532C142.884 21.0759 143.594 19.8899 144.52 18.8863C145.478 17.8827 146.62 17.092 147.887 16.5446C149.307 15.9364 150.82 15.6323 152.364 15.6627C153.909 15.6323 155.422 15.9364 156.842 16.5446C158.109 17.092 159.251 17.8827 160.209 18.8863C161.135 19.8899 161.876 21.0759 162.339 22.3532C162.834 23.6913 163.081 25.1207 163.081 26.55ZM158.263 26.55C158.263 25.6377 158.139 24.7557 157.892 23.9042C157.645 23.1135 157.275 22.3532 156.75 21.6842C156.256 21.0455 155.607 20.5285 154.897 20.1636C154.125 19.7682 153.26 19.5858 152.395 19.5858C151.5 19.5553 150.635 19.7682 149.832 20.1636C149.122 20.5285 148.473 21.0455 147.979 21.6842C147.454 22.3532 147.084 23.1135 146.837 23.9042C146.589 24.7557 146.466 25.6681 146.466 26.55C146.466 27.4624 146.589 28.3747 146.837 29.2262C147.084 30.0473 147.454 30.8076 147.979 31.4463C148.473 32.0849 149.122 32.6019 149.832 32.9668C150.635 33.3622 151.5 33.5447 152.395 33.5447C153.26 33.5751 154.125 33.3622 154.897 32.9668C155.607 32.6019 156.256 32.0849 156.75 31.4463C157.275 30.7772 157.645 30.0169 157.892 29.2262C158.139 28.3747 158.263 27.4624 158.263 26.55ZM186.026 18.0044C186.026 18.2781 185.964 18.5518 185.872 18.7951L179.386 35.2781C179.109 35.9168 178.676 36.4642 178.12 36.8595C177.564 37.2549 176.885 37.4678 176.206 37.4678H176.113C175.434 37.4678 174.754 37.2549 174.198 36.8595C173.611 36.4642 173.179 35.9168 172.901 35.2781L166.416 18.7951C166.138 18.0652 166.231 17.2745 166.663 16.6358C167.095 15.9972 167.806 15.6323 168.547 15.6627C169.01 15.6627 169.442 15.7843 169.813 16.0276C170.184 16.2709 170.492 16.6358 170.647 17.0616L176.144 31.72L181.61 17.092C181.764 16.6358 182.042 16.2709 182.444 15.9972C182.814 15.7539 183.247 15.6323 183.71 15.6323C184.328 15.6018 184.945 15.8451 185.378 16.3013C185.779 16.7575 186.057 17.3657 186.026 18.0044ZM81.5206 18.3085C81.4897 17.6698 81.7367 17.0312 82.2 16.575C82.6323 16.1188 83.25 15.8451 83.8985 15.8451C84.547 15.8451 85.1647 16.0884 85.597 16.5446C86.0603 17.0008 86.3073 17.6394 86.3073 18.2781V19.3121C87.6661 17.4265 89.4573 15.6627 92.6691 15.6627C95.6646 15.6627 97.7955 17.1528 98.9073 19.4033C100.575 17.1528 102.768 15.6627 105.918 15.6627C110.457 15.6627 113.206 18.5822 113.206 23.7826V35.0957C113.206 35.7343 112.99 36.3425 112.526 36.7987C112.094 37.2549 111.476 37.4982 110.859 37.4982C110.21 37.4982 109.593 37.2549 109.16 36.7987C108.697 36.3425 108.45 35.7343 108.45 35.0652V25.2423C108.45 21.8666 106.906 20.0723 104.219 20.0723C101.532 20.0723 99.7411 21.9274 99.7411 25.3335V35.0957C99.7411 35.7343 99.494 36.3425 99.0617 36.7987C98.6293 37.2549 98.0117 37.4982 97.394 37.4982C96.7455 37.4982 96.1279 37.2549 95.6955 36.7987C95.2323 36.3425 94.9852 35.7343 94.9852 35.0652V25.1815C94.9852 21.897 93.4102 20.0419 90.7544 20.0419C88.0985 20.0419 86.2764 22.0491 86.2764 25.3031V35.0957C86.2764 35.7343 86.0294 36.3729 85.5661 36.8291C85.1338 37.2853 84.5161 37.5286 83.8676 37.5286C83.25 37.5286 82.6323 37.2853 82.2 36.8291C81.9838 36.6162 81.7985 36.3425 81.7059 36.0384C81.5823 35.7343 81.5206 35.4302 81.5206 35.0957V18.3085Z" fill="white"/>
<path d="M25.1996 36.7981C16.6969 36.7981 11.3865 30.1733 11.3251 30.0512C10.4963 28.9522 10.6498 27.3647 11.6627 26.4794C12.645 25.594 14.1491 25.6856 15.0086 26.7541C15.8988 27.8837 24.156 37.4697 36.8334 26.4183C37.5087 25.8382 38.3988 25.6856 39.1969 26.0214C39.995 26.3572 40.5782 27.1205 40.701 28.0058C40.8238 28.9217 40.5169 29.8375 39.8415 30.4176C34.3163 35.2106 29.3743 36.7981 25.1996 36.7981Z" fill="white"/>
<path d="M37.1949 46.29H7.37754C3.61539 46.29 0.568359 43.1027 0.568359 39.1726V18.6869C0.568359 16.397 1.62549 14.2618 3.39775 12.9002L18.322 1.63615C20.685 -0.158666 23.8875 -0.158666 26.2505 1.63615L38.6563 10.8888L42.6361 14.0142C43.3201 14.5712 43.6932 15.4377 43.5688 16.3351C43.4755 17.2325 42.9159 18.0061 42.1075 18.3465C41.2991 18.6869 40.3974 18.5941 39.7134 18.0371L35.7647 14.9116L23.4211 5.68997C22.7371 5.1639 21.8043 5.1639 21.1203 5.68997L6.19604 16.985C5.66747 17.3872 5.35655 18.0061 5.38764 18.656V39.1417C5.38764 40.2867 6.28932 41.215 7.37754 41.215H37.1949C37.9722 41.215 38.6873 40.7508 38.9983 40.0082C39.3714 39.2036 40.1176 38.6466 40.9571 38.5537C41.8277 38.4609 42.6361 38.8632 43.1335 39.6059C43.631 40.3486 43.7243 41.3079 43.3512 42.1124C42.2629 44.6809 39.8378 46.29 37.1949 46.29ZM42.0453 34.3761C40.7394 34.3761 39.6823 33.2621 39.6823 31.8696V27.2278L35.3294 26.7017C34.0235 26.547 33.0908 25.3092 33.2462 23.9167C33.4017 22.5551 34.5521 21.5339 35.858 21.7196L42.294 22.4932C43.4755 22.6479 44.3772 23.7001 44.3772 24.9998V31.8696C44.4083 33.2621 43.3512 34.3761 42.0453 34.3761Z" fill="white"/>
</svg>
