<svg width="599" height="233" viewBox="0 0 599 233" fill="none" xmlns="http://www.w3.org/2000/svg">
<g clip-path="url(#clip0_593_75)">
<path d="M597.039 0.810547H1.81348V265.758H597.039V0.810547Z" stroke="#4353FF" stroke-opacity="0.2" stroke-dasharray="4 3"/>
<path d="M34.418 0.117188V266.452" stroke="#4353FF" stroke-opacity="0.2" stroke-dasharray="4 3"/>
<path d="M67.7178 0.117188V266.452" stroke="#4353FF" stroke-opacity="0.2" stroke-dasharray="4 3"/>
<path d="M101.017 0.117188V266.452" stroke="#4353FF" stroke-opacity="0.2" stroke-dasharray="4 3"/>
<path d="M134.316 0.117188V266.452" stroke="#4353FF" stroke-opacity="0.2" stroke-dasharray="4 3"/>
<path d="M167.616 0.117188V266.452" stroke="#4353FF" stroke-opacity="0.2" stroke-dasharray="4 3"/>
<path d="M200.915 0.117188V266.452" stroke="#4353FF" stroke-opacity="0.2" stroke-dasharray="4 3"/>
<path d="M234.215 0.117188V266.452" stroke="#4353FF" stroke-opacity="0.2" stroke-dasharray="4 3"/>
<path d="M267.514 0.117188V266.452" stroke="#4353FF" stroke-opacity="0.2" stroke-dasharray="4 3"/>
<path d="M300.812 0.117188V266.452" stroke="#4353FF" stroke-opacity="0.2" stroke-dasharray="4 3"/>
<path d="M334.113 0.117188V266.452" stroke="#4353FF" stroke-opacity="0.2" stroke-dasharray="4 3"/>
<path d="M367.412 0.117188V266.452" stroke="#4353FF" stroke-opacity="0.2" stroke-dasharray="4 3"/>
<path d="M400.711 0.117188V266.452" stroke="#4353FF" stroke-opacity="0.2" stroke-dasharray="4 3"/>
<path d="M434.01 0.117188V266.452" stroke="#4353FF" stroke-opacity="0.2" stroke-dasharray="4 3"/>
<path d="M467.311 0.117188V266.452" stroke="#4353FF" stroke-opacity="0.2" stroke-dasharray="4 3"/>
<path d="M500.609 0.117188V266.452" stroke="#4353FF" stroke-opacity="0.2" stroke-dasharray="4 3"/>
<path d="M533.908 0.117188V266.452" stroke="#4353FF" stroke-opacity="0.2" stroke-dasharray="4 3"/>
<path d="M567.207 0.117188V266.452" stroke="#4353FF" stroke-opacity="0.2" stroke-dasharray="4 3"/>
<path d="M597.732 133.284H1.11914" stroke="#4353FF" stroke-opacity="0.2" stroke-dasharray="4 3"/>
<path d="M597.732 166.576H1.11914" stroke="#4353FF" stroke-opacity="0.2" stroke-dasharray="4 3"/>
<path d="M597.732 199.868H1.11914" stroke="#4353FF" stroke-opacity="0.2" stroke-dasharray="4 3"/>
<path d="M597.732 233.16H1.11914" stroke="#4353FF" stroke-opacity="0.2" stroke-dasharray="4 3"/>
<path d="M597.732 99.9927H1.11914" stroke="#4353FF" stroke-opacity="0.2" stroke-dasharray="4 3"/>
<path d="M597.732 66.7012H1.11914" stroke="#4353FF" stroke-opacity="0.2" stroke-dasharray="4 3"/>
<path d="M597.732 33.4087H1.11914" stroke="#4353FF" stroke-opacity="0.2" stroke-dasharray="4 3"/>
</g>
<defs>
<clipPath id="clip0_593_75">
<rect width="598" height="233" fill="white" transform="translate(0.568359)"/>
</clipPath>
</defs>
</svg>
