<svg width="177" height="177" viewBox="0 0 177 177" fill="none" xmlns="http://www.w3.org/2000/svg">
<circle cx="88.5" cy="88.5" r="88.5" fill="#4353FF"/>
<path d="M104.964 58.95L101.602 55.5529L98.5224 58.1053C98.3673 58.2333 98.1755 58.3087 97.9747 58.3206C97.774 58.3324 97.5746 58.28 97.4056 58.1709C95.6774 57.0388 93.7582 56.2296 91.7411 55.7825C91.5466 55.7474 91.3686 55.6501 91.2342 55.5051C91.0997 55.3602 91.0159 55.1755 90.9956 54.9788L90.6076 51H85.7647L85.3767 54.9789C85.3572 55.1786 85.2746 55.3668 85.1408 55.5162C85.0071 55.6657 84.8291 55.7685 84.6329 55.8099C82.616 56.2385 80.6975 57.0419 78.9771 58.1784C78.807 58.2898 78.6056 58.3436 78.4026 58.3317C78.1996 58.3199 78.0058 58.243 77.8499 58.1125L74.7659 55.5531L71.3532 58.9558L73.9074 62.0378C74.036 62.1936 74.1113 62.3865 74.1223 62.5882C74.1334 62.79 74.0795 62.9899 73.9687 63.1588C72.8355 64.8855 72.0227 66.8022 71.5695 68.8172C71.5232 69.0132 71.4166 69.1898 71.2647 69.3221C71.1128 69.4544 70.9232 69.5357 70.7227 69.5547L66.6842 69.9426V74.7759L70.7227 75.1639C70.9255 75.1826 71.1174 75.264 71.2717 75.3969C71.4261 75.5297 71.5351 75.7074 71.5837 75.9052C72.0193 77.9203 72.8288 79.8359 73.9704 81.5526C74.0832 81.7222 74.1382 81.9237 74.1275 82.1271C74.1167 82.3305 74.0407 82.525 73.9107 82.6817L71.3549 85.7638L74.7654 89.1671L77.8494 86.6084C78.0039 86.4795 78.1954 86.4031 78.3962 86.3903C78.597 86.3775 78.7966 86.429 78.9662 86.5372C80.695 87.666 82.6143 88.4716 84.6308 88.9148C84.8295 88.9624 85.0082 89.071 85.1419 89.2254C85.2756 89.3798 85.3576 89.5722 85.3763 89.7756L85.7647 93.7895H90.6076L90.9956 89.775C91.0152 89.5759 91.098 89.3882 91.2318 89.2394C91.3657 89.0907 91.5436 88.9886 91.7396 88.9481C93.7575 88.5126 95.6759 87.7026 97.3954 86.5601C97.5644 86.4472 97.7653 86.3918 97.9684 86.4018C98.1714 86.4119 98.3658 86.4871 98.5229 86.6162L101.607 89.1707L105.019 85.7653L102.465 82.6821C102.336 82.526 102.261 82.333 102.25 82.1311C102.239 81.9292 102.293 81.7291 102.404 81.5601C103.537 79.8334 104.35 77.9166 104.803 75.9016C104.849 75.7057 104.956 75.5293 105.107 75.397C105.259 75.2648 105.448 75.1834 105.649 75.1642L109.632 74.7769V69.9426L105.593 69.5547C105.39 69.536 105.198 69.4544 105.044 69.3214C104.89 69.1884 104.781 69.0105 104.732 68.8126C104.296 66.7976 103.487 64.8823 102.345 63.1656C102.233 62.996 102.177 62.7945 102.188 62.5911C102.199 62.3877 102.275 62.1932 102.405 62.0364L104.964 58.95ZM102.264 72.3594C102.268 75.1492 101.444 77.8774 99.8973 80.199C98.3502 82.5205 96.1492 84.3309 93.5729 85.4012C90.9965 86.4715 88.1606 86.7535 85.4239 86.2116C82.6873 85.6698 80.1728 84.3283 78.1987 82.357C76.2247 80.3857 74.8797 77.8731 74.334 75.1372C73.7882 72.4013 74.0663 69.565 75.133 66.9871C76.1997 64.4093 78.007 62.2058 80.3264 60.6554C82.6457 59.105 85.3728 58.2774 88.1626 58.2774C91.8987 58.279 95.4816 59.7625 98.1252 62.4025C100.769 65.0425 102.257 68.6233 102.264 72.3594H102.264Z" fill="white"/>
<path d="M88.1626 60.1721C85.753 60.1759 83.3986 60.894 81.397 62.2354C79.3954 63.5769 77.8363 65.4817 76.9169 67.7089C75.9974 69.9362 75.7589 72.386 76.2313 74.7489C76.7037 77.1117 77.866 79.2814 79.5712 80.9839C81.2764 82.6864 83.448 83.8452 85.8115 84.3138C88.1751 84.7825 90.6246 84.54 92.8504 83.617C95.0762 82.6941 96.9784 81.132 98.3167 79.1282C99.655 77.1244 100.369 74.7689 100.369 72.3594C100.363 69.1256 99.0744 66.0264 96.786 63.7416C94.4976 61.4569 91.3963 60.1731 88.1626 60.1721ZM85.2584 75.9606C85.3587 76.0353 85.4431 76.1291 85.5069 76.2365C85.5708 76.344 85.6127 76.463 85.6303 76.5867C85.6479 76.7104 85.6409 76.8364 85.6096 76.9574C85.5783 77.0784 85.5234 77.192 85.448 77.2917C85.3726 77.3914 85.2783 77.4752 85.1704 77.5382C85.0625 77.6013 84.9432 77.6424 84.8193 77.6591C84.6954 77.6759 84.5695 77.6679 84.4487 77.6358C84.328 77.6036 84.2147 77.5479 84.1156 77.4718L78.3071 73.0795C78.1903 72.9912 78.0956 72.877 78.0304 72.7459C77.9652 72.6148 77.9312 72.4703 77.9312 72.3239C77.9312 72.1775 77.9652 72.033 78.0304 71.9019C78.0956 71.7708 78.1903 71.6566 78.3071 71.5683L84.1158 67.176C84.2149 67.0999 84.3281 67.0442 84.4489 67.012C84.5697 66.9799 84.6956 66.9719 84.8195 66.9887C84.9433 67.0054 85.0626 67.0465 85.1705 67.1096C85.2784 67.1726 85.3728 67.2564 85.4482 67.3561C85.5236 67.4558 85.5785 67.5694 85.6098 67.6904C85.6411 67.8114 85.6481 67.9374 85.6305 68.0611C85.6128 68.1848 85.5709 68.3039 85.5071 68.4113C85.4433 68.5188 85.3588 68.6125 85.2586 68.6872L80.4493 72.324L85.2584 75.9606ZM90.0854 65.9501L88.1024 79.0516C88.0838 79.1746 88.0411 79.2927 87.9768 79.3992C87.9124 79.5057 87.8278 79.5985 87.7276 79.6723C87.6274 79.7461 87.5137 79.7994 87.3929 79.8292C87.2721 79.8591 87.1466 79.8648 87.0236 79.8462C86.9006 79.8275 86.7825 79.7848 86.676 79.7205C86.5695 79.6562 86.4767 79.5715 86.4029 79.4713C86.3291 79.3711 86.2758 79.2574 86.2459 79.1366C86.2161 79.0158 86.2104 78.8904 86.229 78.7674L88.2119 65.6665C88.2305 65.5435 88.2732 65.4253 88.3376 65.3188C88.4019 65.2123 88.4865 65.1195 88.5867 65.0457C88.6869 64.9719 88.8006 64.9186 88.9214 64.8888C89.0422 64.8589 89.1677 64.8532 89.2908 64.8718C89.4138 64.8905 89.5319 64.9332 89.6384 64.9975C89.7449 65.0618 89.8378 65.1465 89.9115 65.2467C89.9853 65.3469 90.0387 65.4606 90.0685 65.5814C90.0984 65.7022 90.1041 65.8277 90.0854 65.9507V65.9501ZM98.394 72.3234C98.394 72.4698 98.36 72.6142 98.2948 72.7453C98.2296 72.8764 98.1349 72.9906 98.0181 73.0789L92.2094 77.4718C92.0088 77.6197 91.758 77.6825 91.5113 77.6467C91.2647 77.6109 91.0421 77.4794 90.8917 77.2806C90.7414 77.0818 90.6755 76.8317 90.7082 76.5847C90.741 76.3376 90.8698 76.1134 91.0668 75.9606L95.8759 72.324L91.0666 68.6872C90.8662 68.5356 90.7342 68.3107 90.6997 68.0618C90.6652 67.8129 90.7309 67.5605 90.8825 67.3601C91.0341 67.1597 91.259 67.0277 91.5079 66.9932C91.7568 66.9587 92.0092 67.0244 92.2096 67.176L98.0181 71.5683C98.1349 71.6566 98.2296 71.7708 98.2948 71.902C98.3601 72.0331 98.394 72.1775 98.394 72.324V72.3234Z" fill="white"/>
<path d="M121.316 104.053H55V113.526H121.316V104.053Z" fill="white"/>
<path d="M104.311 62.774C105.264 64.3181 105.981 65.9967 106.436 67.7536L110.643 68.1494C110.879 68.1688 111.1 68.2748 111.263 68.447C111.426 68.6191 111.52 68.8455 111.526 69.0824V75.6362C111.52 75.8739 111.427 76.1013 111.265 76.2751C111.102 76.4489 110.882 76.557 110.645 76.5789L106.476 76.9841C106.014 78.7486 105.301 80.4375 104.358 81.999L107.028 85.22C107.179 85.4018 107.256 85.6333 107.245 85.8691C107.234 86.1049 107.135 86.3281 106.968 86.4949L102.335 91.1174C102.168 91.2838 101.945 91.3818 101.709 91.3923C101.474 91.4029 101.243 91.3252 101.062 91.1744L97.8443 88.5033C96.2823 89.4514 94.5874 90.1608 92.8158 90.6079L92.4106 94.8158C92.3886 95.0515 92.28 95.2706 92.1059 95.431C91.9317 95.5914 91.7044 95.6816 91.4677 95.6842H84.9053C84.6685 95.6815 84.4412 95.5913 84.2671 95.431C84.0929 95.2706 83.9843 95.0515 83.9622 94.8158L83.5568 90.6409C81.7895 90.1771 80.0984 89.4608 78.5358 88.5139L75.3125 91.1814C75.1306 91.3315 74.8992 91.4085 74.6635 91.3972C74.4279 91.3859 74.2049 91.2871 74.0382 91.1203L69.4033 86.4963C69.2359 86.3295 69.1369 86.1063 69.1254 85.8703C69.114 85.6343 69.1911 85.4025 69.3416 85.2204L72.0053 82.0039C71.0511 80.4459 70.3348 78.7543 69.8798 76.9849L65.6721 76.5789C65.4349 76.5574 65.214 76.4494 65.0512 76.2756C64.8885 76.1017 64.7953 75.8741 64.7895 75.636V69.0824C64.7955 68.8449 64.8889 68.6179 65.0517 68.4449C65.2145 68.2718 65.4354 68.1649 65.6721 68.1444L69.8956 67.7435C70.3586 65.9949 71.0726 64.3227 72.0152 62.7789L70.5784 61.1053H55V102.158H121.316V61.1053H105.737L104.311 62.774Z" fill="white"/>
<path d="M105.236 124.105H98.8885L96.4645 115.421H79.8509L77.4269 124.105H71.0796C70.8283 124.105 70.5873 124.205 70.4097 124.383C70.232 124.56 70.1322 124.801 70.1322 125.053C70.1322 125.304 70.232 125.545 70.4097 125.723C70.5873 125.9 70.8283 126 71.0796 126H105.236C105.487 126 105.728 125.9 105.906 125.723C106.083 125.545 106.183 125.304 106.183 125.053C106.183 124.801 106.083 124.56 105.906 124.383C105.728 124.205 105.487 124.105 105.236 124.105Z" fill="white"/>
</svg>
