<svg width="177" height="177" viewBox="0 0 177 177" fill="none" xmlns="http://www.w3.org/2000/svg">
<circle cx="88.5" cy="88.5" r="88.5" fill="#4353FF"/>
<path fill-rule="evenodd" clip-rule="evenodd" d="M101.6 118.292H75.3987C74.0142 118.299 72.8928 119.421 72.886 120.805V123.318H104.113V120.805C104.106 119.421 102.985 118.299 101.6 118.292ZM120.667 59.34H56.3326V98.4849H120.667V59.34ZM55.3926 57.4563H121.607C121.856 57.4563 122.095 57.5521 122.273 57.7298C122.451 57.9076 122.55 58.1469 122.55 58.3965V99.4248C122.55 99.9445 122.126 100.365 121.607 100.365H55.3926C54.873 100.365 54.4525 99.941 54.4559 99.4248V58.3965C54.4559 58.1469 54.5551 57.9076 54.7294 57.7298C54.9072 57.5555 55.1465 57.4563 55.3961 57.4563H55.3926ZM126 54V103.818H51V54H126ZM82.4012 105.701C82.1858 107.671 81.8063 109.619 81.2661 111.523C80.7944 113.195 80.1995 114.829 79.4849 116.412H97.5158C95.9876 113.017 95.003 109.4 94.5996 105.702L82.4012 105.701ZM92.0012 75.4082C93.6695 77.08 93.926 79.6987 92.6098 81.661C91.297 83.6234 88.7808 84.3858 86.5996 83.4798C84.4184 82.5738 83.1774 80.2525 83.6424 77.938C84.1039 75.6202 86.1381 73.9552 88.5004 73.9552C89.8132 73.9552 91.0748 74.4748 92.0012 75.4047L92.0012 75.4082ZM88.5004 72.0749C91.7619 72.0749 94.5721 74.3791 95.208 77.5791C95.8439 80.7756 94.1345 83.979 91.1192 85.2303C88.1073 86.4781 84.6304 85.4251 82.8185 82.7107C81.0066 79.9996 81.3621 76.386 83.6698 74.0783C84.9483 72.7963 86.6885 72.0749 88.5004 72.0749ZM92.8628 68.3724C93.2969 68.5536 93.7209 68.7587 94.1311 68.9912C94.4422 69.169 94.8251 69.1553 95.1191 68.9536L96.6302 67.9313L99.4746 70.7757L98.4558 72.2937C98.2438 72.6048 98.2404 73.015 98.4455 73.333C98.6678 73.7261 98.8661 74.133 99.037 74.55C99.2182 74.9842 99.372 75.4286 99.4985 75.8799C99.5908 76.2252 99.8746 76.4884 100.227 76.5568L102.015 76.9021V80.9294L100.227 81.2747V81.2713C99.8506 81.3431 99.5566 81.6337 99.4814 82.0063C99.2284 82.8917 98.8729 83.743 98.4182 84.543C98.2439 84.8541 98.2576 85.237 98.4593 85.531L99.4815 87.0421L98.0593 88.4643L96.6337 89.8831L95.1226 88.8608C94.808 88.6489 94.3978 88.6455 94.0799 88.854C93.2765 89.3053 92.4218 89.6574 91.5364 89.9035C91.1876 89.9958 90.9278 90.2796 90.8595 90.6317L90.5142 92.4232H86.4869L86.1416 90.6351C86.0698 90.2625 85.7792 89.9651 85.4065 89.8899C84.9758 89.7702 84.5519 89.6232 84.1382 89.4523C83.704 89.2711 83.2801 89.0659 82.8699 88.8335C82.5588 88.6557 82.1759 88.6694 81.8784 88.8711L80.3673 89.883L77.5229 87.0386L78.5452 85.5275C78.7571 85.2129 78.7605 84.8061 78.5554 84.4882C78.1042 83.6848 77.752 82.8301 77.5025 81.9412C77.4102 81.5959 77.1264 81.3326 76.7743 81.2677L74.9863 80.9224V76.8951L76.7743 76.5498C77.1503 76.4814 77.4444 76.1908 77.5196 75.8148C77.6426 75.384 77.7896 74.9601 77.9606 74.5464C78.1418 74.1123 78.3503 73.6883 78.5828 73.2781C78.7572 72.967 78.7435 72.5841 78.5418 72.2901L77.5195 70.779L80.3639 67.9346L81.875 68.9568L81.8785 68.9534C82.1896 69.1654 82.5998 69.1688 82.9178 68.9637C83.7212 68.5124 84.5758 68.1603 85.4648 67.9141C85.8101 67.8184 86.0699 67.5346 86.1383 67.1825L86.4835 65.3945H90.5108L90.8561 67.1825H90.8527C90.9279 67.5586 91.2151 67.8526 91.5912 67.9278C92.0219 68.0474 92.4459 68.1945 92.8595 68.3654L92.8628 68.3724ZM92.5995 66.2733C92.938 66.3827 93.2662 66.5024 93.5875 66.6357C93.9055 66.769 94.2234 66.916 94.5448 67.0801L96.2303 65.9417L96.2269 65.9383C96.5995 65.6887 97.0986 65.7366 97.4166 66.0545L101.362 69.9997V69.9963C101.69 70.3279 101.724 70.8476 101.447 71.2202L100.333 72.868C100.493 73.1825 100.64 73.5005 100.777 73.8218C100.907 74.1397 101.03 74.4713 101.14 74.8098L103.133 75.1927V75.1961C103.574 75.2816 103.895 75.6713 103.895 76.1226V81.6986C103.895 82.1703 103.543 82.5703 103.075 82.6319L101.136 83.0045C101.027 83.343 100.907 83.6746 100.774 83.9925C100.64 84.3139 100.493 84.6352 100.333 84.9498L101.471 86.6353L101.468 86.6318C101.721 87.0045 101.673 87.5036 101.355 87.8216L99.3858 89.7976L97.4132 91.7702L97.4166 91.7668C97.085 92.095 96.5654 92.1326 96.1894 91.8557L94.5381 90.7412C94.2236 90.9019 93.9056 91.0455 93.5843 91.1788C93.263 91.3121 92.9314 91.4352 92.5963 91.548L92.21 93.5411C92.1279 93.9855 91.7382 94.3069 91.2869 94.3035H85.711H85.7144C85.2392 94.3035 84.8392 93.9548 84.7777 93.4864L84.405 91.548C84.0666 91.4386 83.7349 91.319 83.417 91.1856C83.0991 91.0523 82.7811 90.9087 82.4632 90.748L80.7778 91.8865C80.4051 92.1361 79.906 92.0882 79.588 91.7703L75.6428 87.8251C75.3146 87.4934 75.277 86.9738 75.5573 86.6012L76.6718 84.9534C76.5111 84.6388 76.3641 84.3209 76.2308 83.9961C76.0975 83.6713 75.9778 83.3431 75.8684 83.0081L73.8753 82.6217L73.8719 82.6252C73.4275 82.5397 73.1095 82.1534 73.1095 81.7021V76.1227C73.1095 75.6509 73.4617 75.2509 73.93 75.1894L75.8684 74.8168C75.9778 74.4749 76.0975 74.1467 76.2308 73.8287C76.3641 73.5108 76.5111 73.1929 76.6718 72.8715L75.5334 71.186C75.2838 70.8134 75.3316 70.3142 75.6496 69.9963L79.5948 66.051L79.5914 66.0545C79.923 65.7263 80.4427 65.6887 80.8187 65.9656L82.4631 67.0801C82.7776 66.9194 83.0956 66.7724 83.4169 66.6356C83.7348 66.5057 84.063 66.3826 84.4049 66.2732L84.7912 64.2802H84.7878C84.8733 63.8357 85.2596 63.5178 85.7109 63.5178H91.2868C91.762 63.5178 92.1586 63.8665 92.2201 64.3383L92.5962 66.2767L92.5995 66.2733ZM60.5384 74.3313C60.2855 74.3415 60.0393 74.2458 59.8547 74.068C59.6735 73.8902 59.5675 73.6441 59.5675 73.3911C59.5675 73.1347 59.6735 72.892 59.8547 72.7142C60.0393 72.5364 60.2855 72.4407 60.5384 72.451H66.7537C67.0067 72.4407 67.2563 72.5364 67.4375 72.7142C67.6221 72.892 67.7247 73.1347 67.7247 73.3911C67.7247 73.6441 67.6221 73.8902 67.4375 74.068C67.2563 74.2458 67.0067 74.3415 66.7537 74.3313H60.5384ZM60.5384 69.8356V69.8391C60.0188 69.8391 59.5983 69.4151 59.5983 68.8955C59.5983 68.3759 60.0188 67.9554 60.5384 67.9554H70.2374C70.757 67.9554 71.1775 68.3759 71.1775 68.8955C71.1775 69.4151 70.757 69.8391 70.2374 69.8391L60.5384 69.8356ZM60.5384 65.34V65.3434C60.2855 65.3503 60.0393 65.2545 59.8547 65.0768C59.6735 64.899 59.5675 64.6563 59.5675 64.3999C59.5675 64.1469 59.6735 63.9007 59.8547 63.7264C60.0393 63.5486 60.2855 63.4529 60.5384 63.4597H74.4733C74.7263 63.4529 74.9759 63.5486 75.1571 63.7264C75.3383 63.9007 75.4442 64.1469 75.4442 64.3999C75.4442 64.6563 75.3383 64.899 75.1571 65.0768C74.9759 65.2545 74.7263 65.3503 74.4733 65.3434L60.5384 65.34ZM116.462 83.4863L116.465 83.4898C116.718 83.4795 116.964 83.5752 117.149 83.753C117.33 83.9308 117.436 84.1735 117.436 84.4299C117.436 84.6829 117.33 84.929 117.149 85.1068C116.964 85.2812 116.718 85.3769 116.465 85.3701H110.25C109.997 85.3769 109.747 85.2812 109.566 85.1068C109.382 84.9291 109.279 84.6829 109.279 84.4299C109.279 84.1735 109.382 83.9308 109.566 83.753C109.747 83.5752 109.997 83.4795 110.25 83.4898L116.462 83.4863ZM116.462 87.982H116.465C116.718 87.9751 116.964 88.0709 117.149 88.2486C117.33 88.4264 117.436 88.6691 117.436 88.9255C117.436 89.1785 117.33 89.4247 117.149 89.599C116.964 89.7768 116.718 89.8725 116.465 89.8657H106.763C106.51 89.8725 106.264 89.7768 106.079 89.599C105.898 89.4247 105.795 89.1785 105.795 88.9255C105.795 88.6691 105.898 88.4264 106.079 88.2486C106.264 88.0709 106.51 87.9751 106.763 87.982H116.462ZM116.462 92.4776H116.465C116.985 92.4776 117.405 92.9015 117.405 93.4211C117.405 93.9408 116.985 94.3613 116.465 94.3613H102.527C102.007 94.3613 101.587 93.9408 101.587 93.4211C101.587 92.9015 102.007 92.4776 102.527 92.4776H116.462ZM111.375 63.9891C111.635 63.5378 112.205 63.3839 112.657 63.6403C113.108 63.9002 113.262 64.4745 113.005 64.9223L109.282 71.3701C109.026 71.8214 108.452 71.9752 108.004 71.7188C107.553 71.459 107.399 70.888 107.655 70.4368L111.378 63.9891H111.375ZM67.7242 86.4466C67.9841 86.009 68.5516 85.862 68.996 86.115C69.437 86.3714 69.5943 86.9355 69.3481 87.3799L65.6251 93.8311C65.502 94.0499 65.2969 94.214 65.0576 94.2789C64.8149 94.3473 64.5551 94.3165 64.3363 94.19C64.1209 94.0636 63.9602 93.8584 63.8987 93.6157C63.8337 93.373 63.8713 93.1131 64.0012 92.8978L67.7242 86.45L67.7242 86.4466ZM70.8217 87.968C70.4729 87.5953 70.4798 87.0142 70.8422 86.6552C71.2011 86.2962 71.7823 86.2859 72.1515 86.6347L74.9891 89.4722H74.9925C75.3583 89.8414 75.3583 90.4363 74.9925 90.8055L72.155 93.6465C71.7857 94.0157 71.1874 94.0157 70.8217 93.6465C70.4525 93.2772 70.4525 92.6824 70.8217 92.3132L72.996 90.1389L70.8217 87.968ZM61.1945 86.6347C61.5637 86.286 62.1449 86.2962 62.5039 86.6552C62.8663 87.0142 62.8731 87.5953 62.5244 87.968L60.35 90.1423L62.5244 92.3167V92.3133C62.8936 92.6791 62.8936 93.2774 62.5278 93.6465C62.1586 94.0123 61.5637 94.0158 61.1945 93.6465L58.357 90.809C57.9877 90.4397 57.9877 89.8449 58.357 89.4757L61.1945 86.6347ZM114.476 65.5066C114.288 65.3322 114.175 65.0895 114.168 64.8331C114.161 64.5767 114.26 64.3271 114.445 64.1459C114.626 63.9613 114.876 63.8621 115.132 63.869C115.388 63.8758 115.631 63.9852 115.805 64.1767L118.643 67.0142C119.012 67.3835 119.012 67.9783 118.643 68.3441L115.805 71.1851C115.631 71.3663 115.388 71.4688 115.139 71.4722C114.886 71.4722 114.643 71.3731 114.465 71.1953C114.284 71.0175 114.185 70.7748 114.188 70.5218C114.192 70.2688 114.294 70.0295 114.476 69.8518L116.65 67.6774L114.476 65.5031L114.476 65.5066ZM104.848 64.1767C105.221 63.8382 105.795 63.8519 106.148 64.2075C106.503 64.563 106.517 65.134 106.178 65.5066L104.004 67.681L106.178 69.8519C106.537 70.2211 106.534 70.8092 106.168 71.1749C105.806 71.5373 105.218 71.5441 104.848 71.1852L102.007 68.3442C101.642 67.9784 101.642 67.3835 102.007 67.0143L104.848 64.1767Z" fill="white"/>
</svg>
