<svg width="177" height="177" viewBox="0 0 177 177" fill="none" xmlns="http://www.w3.org/2000/svg">
<circle cx="88.5" cy="88.5" r="88.5" fill="#4353FF"/>
<path fill-rule="evenodd" clip-rule="evenodd" d="M88.5024 62.5692C95.3796 62.5589 101.978 65.2801 106.846 70.1344C111.717 74.9886 114.456 81.5802 114.466 88.4577C114.473 95.3349 111.752 101.934 106.894 106.798C102.036 111.666 95.4448 114.404 88.5672 114.411C81.6901 114.415 75.0949 111.686 70.2272 106.829C65.3626 101.968 62.6276 95.3758 62.6276 88.4992C62.6207 81.6289 65.3454 75.041 70.1963 70.1794C75.0505 65.3148 81.632 62.5795 88.5024 62.5692ZM59.4388 108.367L59.597 116.468V116.472C59.6005 117.009 60.0374 117.442 60.5741 117.449H68.8445C69.3881 117.449 69.8319 117.005 69.8319 116.462C69.8319 115.918 69.3881 115.474 68.8445 115.474H62.9616L69.5326 108.903C69.0509 108.456 68.5831 107.992 68.1324 107.503L61.5167 114.126L61.4032 108.332C61.4307 108.057 61.3378 107.782 61.152 107.575C60.9628 107.369 60.6979 107.252 60.4193 107.252C60.144 107.252 59.8791 107.369 59.6899 107.575C59.5041 107.782 59.4112 108.057 59.4388 108.332L59.4388 108.367ZM60.6635 89.5209H51.3543L55.5102 93.6769C55.7786 94.0656 55.7339 94.592 55.4036 94.9291C55.0733 95.2663 54.5504 95.3213 54.1547 95.0599L48.2787 89.2217C47.9071 88.8364 47.9071 88.224 48.2787 87.8387L53.907 82.0005C54.2923 81.6496 54.8806 81.6599 55.2555 82.0212C55.6271 82.3789 55.658 82.9672 55.3243 83.3663L51.2923 87.5394H60.6702V88.482V89.5141L60.6635 89.5209ZM68.098 69.5295C68.5383 69.0444 68.9787 68.58 69.4878 68.1294L62.8721 61.524L68.6656 61.4104L68.669 61.407C68.9443 61.4345 69.2195 61.3416 69.4259 61.1559C69.6323 60.9701 69.7493 60.7052 69.7493 60.4265C69.7493 60.1479 69.6323 59.8829 69.4259 59.6972C69.2195 59.5114 68.9443 59.4185 68.669 59.446L60.5671 59.5974V59.594C60.027 59.6043 59.5935 60.0412 59.5901 60.5813V68.8415C59.5901 69.3851 60.0304 69.8289 60.574 69.8289C61.121 69.8289 61.5614 69.3851 61.5614 68.8415V62.9586L68.1323 69.5295L68.098 69.5295ZM87.553 60.6158V51.3233L83.3868 55.4277C83.0015 55.813 82.3788 55.813 81.9935 55.4277C81.8112 55.2453 81.7079 54.9976 81.7079 54.7361C81.7079 54.4781 81.8112 54.2304 81.9935 54.0446L87.842 48.2855C88.0243 48.1032 88.272 48 88.53 48C88.7881 48 89.0358 48.1032 89.2147 48.2855L95.0631 54.0446C95.2489 54.2304 95.3487 54.4781 95.3487 54.7361C95.3487 54.9976 95.2489 55.2453 95.0631 55.4277C94.6778 55.813 94.0586 55.813 93.6733 55.4277L89.5243 51.3233V60.6158H87.5496H87.553ZM107.555 68.0916C108.04 68.5423 108.504 68.9723 108.945 69.4814L115.523 62.9035V68.752C115.526 69.2956 115.967 69.7325 116.51 69.7325C116.785 69.7566 117.057 69.6637 117.26 69.4745C117.46 69.2853 117.573 69.0204 117.566 68.7452L117.504 60.5469C117.504 60.0068 117.067 59.5664 116.527 59.5664L108.329 59.5045C108.068 59.501 107.813 59.6042 107.627 59.7866C107.441 59.9724 107.338 60.2235 107.342 60.485C107.342 61.0251 107.779 61.4655 108.319 61.4689L114.167 61.5136L107.589 68.0915L107.555 68.0916ZM116.404 87.5396H125.678L121.574 83.3733C121.189 82.988 121.189 82.3654 121.574 81.9835C121.756 81.7977 122.004 81.6911 122.266 81.6911C122.524 81.6911 122.775 81.7977 122.957 81.9835L128.716 87.8217C129.095 88.2035 129.095 88.8193 128.716 89.2047L122.957 95.0429C122.771 95.2252 122.524 95.3284 122.266 95.3284C122.004 95.3284 121.756 95.2252 121.574 95.0429C121.189 94.6575 121.189 94.0349 121.574 93.653L125.678 89.4868H116.404V88.4546V87.512V87.5396ZM108.907 107.531C108.456 108.006 108.026 108.474 107.507 108.921L114.095 115.509H108.247L108.25 115.512C107.971 115.485 107.696 115.578 107.493 115.764C107.287 115.949 107.17 116.214 107.17 116.493C107.17 116.772 107.287 117.037 107.493 117.222C107.696 117.408 107.971 117.501 108.25 117.473L116.448 117.412C116.706 117.412 116.958 117.312 117.14 117.126C117.322 116.944 117.425 116.696 117.425 116.434L117.487 108.236C117.515 107.961 117.422 107.686 117.236 107.479C117.047 107.273 116.782 107.156 116.507 107.156C116.228 107.156 115.963 107.273 115.774 107.479C115.588 107.686 115.495 107.961 115.523 108.236V114.074L108.945 107.497L108.907 107.531ZM89.5314 116.338L89.5348 125.647L93.6907 121.491C94.0795 121.209 94.6128 121.251 94.9568 121.584C95.2974 121.918 95.3524 122.451 95.0806 122.847L89.2321 128.685C88.8537 129.064 88.2413 129.064 87.8594 128.685L82.0109 123.112C81.6635 122.726 81.6738 122.138 82.0316 121.763C82.3928 121.392 82.9811 121.361 83.3767 121.694L87.5498 125.709L87.5533 116.348H88.5406H89.528L89.5314 116.338ZM93.6081 81.2231H93.6116C92.865 80.0155 91.7126 79.1108 90.3605 78.6807V78.5741C90.3605 77.5729 89.5486 76.761 88.5474 76.761C87.5463 76.761 86.731 77.5729 86.731 78.5741V78.6704C83.9993 79.5993 82.3239 82.355 82.7574 85.207C83.1943 88.0625 85.6163 90.192 88.5027 90.2608C89.3318 90.2574 90.099 90.6943 90.5187 91.4064C90.9385 92.122 90.9454 93.0027 90.5394 93.7252C90.1334 94.4477 89.3766 94.8983 88.5475 94.9121C87.7184 94.9225 86.9477 94.4924 86.5211 93.7838C85.9947 92.934 84.8835 92.6726 84.0338 93.1989C83.184 93.7218 82.9226 94.8365 83.4489 95.6862C84.1921 96.9247 85.3652 97.8467 86.7413 98.2836V98.38C86.7413 99.3845 87.5532 100.196 88.5544 100.196C89.5589 100.196 90.3709 99.3845 90.3709 98.38V98.2836C93.161 97.3789 94.8777 94.575 94.4097 91.6748C93.9453 88.7781 91.4373 86.652 88.5028 86.6692C87.6737 86.6726 86.9065 86.2357 86.4867 85.5201C86.067 84.808 86.0601 83.9238 86.4661 83.2014C86.872 82.4823 87.6289 82.0283 88.458 82.0179C89.2871 82.0041 90.0577 82.4341 90.4843 83.1462C91.0073 83.996 92.122 84.2609 92.9717 83.738C93.3811 83.4868 93.6735 83.0843 93.7836 82.6199C93.8971 82.152 93.818 81.6601 93.5668 81.2506L93.6081 81.2231ZM88.5027 68.0572C82.1485 68.0572 76.1586 71.0125 72.2922 76.0525C68.4253 81.0925 67.1214 87.6462 68.7659 93.7804C70.4138 99.918 74.8174 104.941 80.6864 107.37C86.5556 109.799 93.2225 109.362 98.7235 106.183C104.225 103.008 107.933 97.4514 108.762 91.1526C109.588 84.8535 107.441 78.5302 102.944 74.0368C99.1187 70.2042 93.9209 68.0504 88.5027 68.0572ZM101.555 75.4298C97.4816 71.3737 91.7499 69.4402 86.0525 70.2005C80.3519 70.9643 75.3324 74.3323 72.4666 79.3177C69.6008 84.3028 69.2189 90.3373 71.4276 95.6453C73.6397 100.95 78.1913 104.931 83.7471 106.407C89.3066 107.886 95.2343 106.696 99.7893 103.187C104.344 99.6777 107.007 94.2492 106.997 88.4999C107.007 83.5975 105.06 78.8913 101.589 75.4301L101.555 75.4298Z" fill="white"/>
</svg>
