<svg width="115" height="75" viewBox="0 0 115 75" fill="none" xmlns="http://www.w3.org/2000/svg">
<path fill-rule="evenodd" clip-rule="evenodd" d="M81.6644 2.66442e-09C79.423 6.05106 77.1838 12.103 74.94 18.1531C69.9827 31.5203 65.0238 44.8869 60.0638 58.2531C58.1855 63.3145 56.2906 68.3699 54.4364 73.4399C54.1794 74.1423 53.8458 74.3786 53.0744 74.3684C49.2574 74.3176 45.4395 74.3455 41.4774 74.3455C42.1369 72.549 42.7573 70.824 43.4022 69.1084C47.1574 59.1162 50.9203 49.1266 54.6766 39.1346C59.5452 26.1842 64.4098 13.2325 69.2746 0.280617C69.3079 0.191935 69.3171 0.0938971 69.3376 5.53757e-05C73.4466 -1.32629e-06 77.5554 2.66442e-09 81.6644 2.66442e-09Z" fill="white"/>
<path fill-rule="evenodd" clip-rule="evenodd" d="M0 41.7955C11.4642 37.632 22.9312 33.4764 34.3862 29.2883C35.2502 28.9726 35.3144 29.2635 35.3088 30.0006C35.2825 33.4668 35.2756 36.9336 35.3148 40.3998C35.3227 41.1042 35.0999 41.3945 34.432 41.5911C27.9257 43.5062 21.4288 45.4543 14.93 47.396C14.7174 47.4596 14.5145 47.5552 14.1375 47.7015C16.3183 48.4032 18.3507 49.0578 20.3834 49.711C25.1659 51.2475 29.9462 52.7896 34.7341 54.308C35.2012 54.4563 35.3047 54.7087 35.3032 55.1481C35.2915 58.6787 35.2764 62.2095 35.3122 65.7397C35.3204 66.5452 35.0109 66.4677 34.4627 66.2582C30.0384 64.5651 25.6098 62.883 21.1812 61.2009C14.1213 58.5191 7.06047 55.8397 0 53.1595C0 49.3711 0 45.5836 0 41.7955Z" fill="#4353FE"/>
<path fill-rule="evenodd" clip-rule="evenodd" d="M100.858 47.6693C96.3175 46.3092 91.9989 45.0146 87.68 43.7215C85.228 42.9875 82.7819 42.2327 80.318 41.5402C79.6813 41.3615 79.5595 41.0366 79.5636 40.4441C79.5873 37.0116 79.5749 33.5788 79.5755 30.146C79.5757 28.9578 79.5787 28.9517 80.6893 29.3537C86.1354 31.3253 91.5807 33.2988 97.0252 35.275C102.77 37.3603 108.51 39.4603 114.264 41.5203C114.813 41.7167 115.004 41.9395 114.999 42.5232C114.97 45.8276 114.97 49.1321 115 52.4361C115.005 52.9873 114.815 53.2062 114.322 53.3925C105.041 56.8993 95.7675 60.4242 86.4929 63.9471C84.5188 64.697 82.5399 65.4348 80.5799 66.2195C79.8386 66.5164 79.5394 66.507 79.5545 65.5495C79.6079 62.1495 79.5919 58.7485 79.5603 55.3481C79.5545 54.7315 79.7316 54.4621 80.3316 54.2725C85.5497 52.6265 90.7571 50.9459 95.9661 49.2705C97.5166 48.772 99.0622 48.2577 100.858 47.6693Z" fill="#4353FE"/>
</svg>
