<svg width="177" height="177" viewBox="0 0 177 177" fill="none" xmlns="http://www.w3.org/2000/svg">
<circle cx="88.5" cy="88.5" r="88.5" fill="#4353FF"/>
<path d="M112.166 76.4998V60.8333H58.6667V93.1664H102.5V81.428C102.493 80.7859 102.612 80.1487 102.852 79.5531C103.092 78.9574 103.447 78.4151 103.898 77.9571C104.348 77.4992 104.884 77.1347 105.475 76.8846C106.067 76.6345 106.702 76.5038 107.344 76.4998H112.166ZM81.83 83.0533C81.9354 83.1323 82.0242 83.2313 82.0912 83.3446C82.1582 83.458 82.2022 83.5835 82.2206 83.7138C82.239 83.8442 82.2314 83.977 82.1984 84.1044C82.1654 84.2319 82.1075 84.3516 82.0281 84.4566C81.9486 84.5617 81.8493 84.65 81.7356 84.7165C81.622 84.7831 81.4963 84.8265 81.3658 84.8443C81.2354 84.8622 81.1027 84.8541 80.9753 84.8205C80.848 84.7869 80.7286 84.7285 80.6239 84.6486L71.9239 78.07C71.8007 77.9768 71.7007 77.8562 71.6318 77.7178C71.563 77.5795 71.5271 77.427 71.5271 77.2724C71.5271 77.1179 71.563 76.9654 71.6318 76.827C71.7007 76.6886 71.8007 76.5681 71.9239 76.4748L80.6239 69.8964C80.8357 69.7403 81.1004 69.674 81.3608 69.7118C81.6211 69.7496 81.8561 69.8884 82.0148 70.0983C82.1735 70.3081 82.243 70.572 82.2085 70.8328C82.1739 71.0936 82.0379 71.3303 81.83 71.4915L74.1851 77.2725L81.83 83.0533ZM87.9432 67.6642L84.9734 87.2859C84.9537 87.4158 84.9086 87.5405 84.8407 87.6529C84.7728 87.7653 84.6834 87.8633 84.5777 87.9412C84.472 88.019 84.3519 88.0753 84.2244 88.1068C84.0969 88.1383 83.9645 88.1444 83.8346 88.1247C83.7048 88.105 83.5801 88.0599 83.4677 87.992C83.3552 87.9241 83.2573 87.8348 83.1794 87.729C83.1015 87.6233 83.0452 87.5032 83.0137 87.3757C82.9822 87.2482 82.9762 87.1158 82.9959 86.9859L85.9655 67.3649C86.0053 67.1027 86.1476 66.8669 86.3612 66.7096C86.5748 66.5523 86.8421 66.4863 87.1043 66.5261C87.3666 66.5659 87.6023 66.7082 87.7596 66.9218C87.9169 67.1353 87.983 67.4027 87.9432 67.6649V67.6642ZM99.0148 78.07L90.3148 84.6486C90.2101 84.7278 90.0907 84.7856 89.9637 84.8187C89.8366 84.8518 89.7042 84.8596 89.5741 84.8415C89.444 84.8234 89.3188 84.7799 89.2055 84.7135C89.0923 84.647 88.9932 84.5589 88.914 84.4541C88.8348 84.3494 88.777 84.2301 88.7439 84.103C88.7108 83.9759 88.7031 83.8435 88.7211 83.7134C88.7392 83.5834 88.7827 83.4581 88.8492 83.3448C88.9156 83.2316 89.0037 83.1325 89.1085 83.0533L96.7534 77.2725L89.1085 71.4915C89.0027 71.4127 88.9136 71.3138 88.8462 71.2003C88.7788 71.0869 88.7346 70.9613 88.716 70.8307C88.6974 70.7001 88.7048 70.5671 88.7378 70.4394C88.7708 70.3116 88.8288 70.1917 88.9084 70.0865C88.9879 69.9813 89.0876 69.8928 89.2015 69.8263C89.3154 69.7597 89.4413 69.7164 89.572 69.6987C89.7028 69.681 89.8357 69.6894 89.9632 69.7233C90.0907 69.7572 90.2102 69.8161 90.3148 69.8964L99.0148 76.4748C99.138 76.5681 99.238 76.6886 99.3069 76.827C99.3757 76.9654 99.4116 77.1179 99.4116 77.2724C99.4116 77.427 99.3757 77.5795 99.3069 77.7178C99.238 77.8562 99.138 77.9768 99.0148 78.07Z" fill="white"/>
<path d="M76.7526 99.4902L78.0602 100.91C78.5704 101.463 79.1893 101.904 79.8781 102.206C80.5668 102.508 81.3106 102.665 82.0627 102.666H88.8761C89.6283 102.665 90.372 102.508 91.0608 102.206C91.7495 101.904 92.3684 101.463 92.8786 100.91L94.1864 99.4892C94.28 99.3875 94.3937 99.3063 94.5202 99.2508C94.6467 99.1952 94.7834 99.1665 94.9216 99.1664H102.5V95.1664H57.7025C57.15 95.1664 56.6667 94.7869 56.6667 94.2346V59.8786C56.6731 59.605 56.7839 59.3442 56.9766 59.1498C57.1692 58.9554 57.429 58.8422 57.7025 58.8333H113.236C113.788 58.8333 114.166 59.3265 114.166 59.8786V76.4999H118.666V59.5078C118.651 58.0506 118.065 56.6574 117.034 55.6276C116.002 54.5978 114.609 54.0134 113.151 54H57.7875C54.7862 54 52.3334 56.5065 52.3334 59.5078V99.1664H76.0166C76.155 99.1666 76.2918 99.1954 76.4185 99.2512C76.5452 99.3069 76.6589 99.3883 76.7526 99.4902Z" fill="white"/>
<path d="M116.746 120.041C117.325 120.041 117.794 119.572 117.794 118.993C117.794 118.414 117.325 117.945 116.746 117.945C116.167 117.945 115.698 118.414 115.698 118.993C115.698 119.572 116.167 120.041 116.746 120.041Z" fill="white"/>
<path d="M104.5 119.69C104.5 121.295 105.738 122.666 107.344 122.666H126.148C127.753 122.666 129 121.295 129 119.69V115.333H104.5V119.69ZM116.746 115.945C117.349 115.945 117.938 116.124 118.439 116.459C118.941 116.793 119.331 117.27 119.562 117.827C119.793 118.384 119.853 118.996 119.736 119.588C119.618 120.179 119.328 120.722 118.901 121.149C118.475 121.575 117.932 121.865 117.341 121.983C116.749 122.1 116.136 122.04 115.579 121.809C115.022 121.579 114.546 121.188 114.211 120.687C113.876 120.185 113.698 119.596 113.698 118.993C113.698 118.185 114.02 117.41 114.591 116.839C115.163 116.267 115.938 115.946 116.746 115.945Z" fill="white"/>
<path d="M126.148 78.4998H107.344C105.738 78.4998 104.5 79.8225 104.5 81.428V84.1665H129V81.428C129.006 81.0481 128.937 80.6706 128.797 80.3173C128.657 79.9641 128.449 79.6421 128.184 79.3699C127.918 79.0976 127.602 78.8806 127.253 78.7313C126.903 78.582 126.528 78.5033 126.148 78.4998ZM120.074 82.1665H113.417C113.152 82.1665 112.898 82.0611 112.71 81.8736C112.523 81.6861 112.417 81.4317 112.417 81.1665C112.417 80.9013 112.523 80.6469 112.71 80.4594C112.898 80.2719 113.152 80.1665 113.417 80.1665H120.074C120.339 80.1665 120.594 80.2719 120.781 80.4594C120.969 80.6469 121.074 80.9013 121.074 81.1665C121.074 81.4317 120.969 81.6861 120.781 81.8736C120.594 82.0611 120.339 82.1665 120.074 82.1665Z" fill="white"/>
<path d="M102.5 110.5V101.166H95.36L94.3492 102.265C93.6515 103.021 92.8052 103.624 91.8634 104.037C90.9216 104.451 89.9046 104.665 88.8762 104.666H82.0627C81.0343 104.665 80.0173 104.451 79.0755 104.037C78.1337 103.624 77.2875 103.021 76.5898 102.265L75.5791 101.166H49.0001V105.122C48.9955 105.83 49.1316 106.532 49.4006 107.186C49.6696 107.841 50.066 108.436 50.5669 108.937C51.0678 109.437 51.6631 109.833 52.3183 110.101C52.9735 110.37 53.6754 110.505 54.3834 110.5H102.5Z" fill="white"/>
<path d="M104.5 113.333H129V86.1665H104.5V113.333ZM111.801 88.8331H127.057C127.322 88.8331 127.576 88.9385 127.764 89.126C127.951 89.3135 128.057 89.5679 128.057 89.8331C128.057 90.0983 127.951 90.3527 127.764 90.5402C127.576 90.7278 127.322 90.8331 127.057 90.8331H111.801C111.536 90.8331 111.282 90.7278 111.094 90.5402C110.907 90.3527 110.801 90.0983 110.801 89.8331C110.801 89.5679 110.907 89.3135 111.094 89.126C111.282 88.9385 111.536 88.8331 111.801 88.8331ZM111.801 93.8331H127.057C127.322 93.8331 127.576 93.9384 127.764 94.126C127.951 94.3135 128.057 94.5679 128.057 94.8331C128.057 95.0983 127.951 95.3527 127.764 95.5402C127.576 95.7277 127.322 95.8331 127.057 95.8331H111.801C111.536 95.8331 111.282 95.7277 111.094 95.5402C110.907 95.3527 110.801 95.0983 110.801 94.8331C110.801 94.5679 110.907 94.3135 111.094 94.126C111.282 93.9384 111.536 93.8331 111.801 93.8331ZM111.801 98.6664H127.057C127.322 98.6664 127.576 98.7717 127.764 98.9593C127.951 99.1468 128.057 99.4012 128.057 99.6664C128.057 99.9316 127.951 100.186 127.764 100.373C127.576 100.561 127.322 100.666 127.057 100.666H111.801C111.536 100.666 111.282 100.561 111.094 100.373C110.907 100.186 110.801 99.9316 110.801 99.6664C110.801 99.4012 110.907 99.1468 111.094 98.9593C111.282 98.7717 111.536 98.6664 111.801 98.6664ZM111.801 103.666H127.057C127.322 103.666 127.576 103.772 127.764 103.959C127.951 104.147 128.057 104.401 128.057 104.666C128.057 104.932 127.951 105.186 127.764 105.373C127.576 105.561 127.322 105.666 127.057 105.666H111.801C111.536 105.666 111.282 105.561 111.094 105.373C110.907 105.186 110.801 104.932 110.801 104.666C110.801 104.401 110.907 104.147 111.094 103.959C111.282 103.772 111.536 103.666 111.801 103.666ZM111.801 108.666H127.057C127.322 108.666 127.576 108.772 127.764 108.959C127.951 109.147 128.057 109.401 128.057 109.666C128.057 109.932 127.951 110.186 127.764 110.373C127.576 110.561 127.322 110.666 127.057 110.666H111.801C111.536 110.666 111.282 110.561 111.094 110.373C110.907 110.186 110.801 109.932 110.801 109.666C110.801 109.401 110.907 109.147 111.094 108.959C111.282 108.772 111.536 108.666 111.801 108.666ZM106.435 88.8331H108.665C108.93 88.8331 109.184 88.9385 109.372 89.126C109.559 89.3135 109.665 89.5679 109.665 89.8331C109.665 90.0983 109.559 90.3527 109.372 90.5402C109.184 90.7278 108.93 90.8331 108.665 90.8331H106.435C106.17 90.8331 105.915 90.7278 105.728 90.5402C105.54 90.3527 105.435 90.0983 105.435 89.8331C105.435 89.5679 105.54 89.3135 105.728 89.126C105.915 88.9385 106.169 88.8331 106.435 88.8331ZM106.435 93.8331H108.665C108.93 93.8331 109.184 93.9384 109.372 94.126C109.559 94.3135 109.665 94.5679 109.665 94.8331C109.665 95.0983 109.559 95.3527 109.372 95.5402C109.184 95.7277 108.93 95.8331 108.665 95.8331H106.435C106.17 95.8331 105.915 95.7277 105.728 95.5402C105.54 95.3527 105.435 95.0983 105.435 94.8331C105.435 94.5679 105.54 94.3135 105.728 94.126C105.915 93.9384 106.169 93.8331 106.435 93.8331ZM106.435 98.6664H108.665C108.93 98.6664 109.184 98.7717 109.372 98.9593C109.559 99.1468 109.665 99.4012 109.665 99.6664C109.665 99.9316 109.559 100.186 109.372 100.373C109.184 100.561 108.93 100.666 108.665 100.666H106.435C106.17 100.666 105.915 100.561 105.728 100.373C105.54 100.186 105.435 99.9316 105.435 99.6664C105.435 99.4012 105.54 99.1468 105.728 98.9593C105.915 98.7717 106.169 98.6664 106.435 98.6664ZM106.435 103.666H108.665C108.93 103.666 109.184 103.772 109.372 103.959C109.559 104.147 109.665 104.401 109.665 104.666C109.665 104.932 109.559 105.186 109.372 105.373C109.184 105.561 108.93 105.666 108.665 105.666H106.435C106.17 105.666 105.915 105.561 105.728 105.373C105.54 105.186 105.435 104.932 105.435 104.666C105.435 104.401 105.54 104.147 105.728 103.959C105.915 103.772 106.169 103.666 106.435 103.666ZM106.435 108.666H108.665C108.93 108.666 109.184 108.772 109.372 108.959C109.559 109.147 109.665 109.401 109.665 109.666C109.665 109.932 109.559 110.186 109.372 110.373C109.184 110.561 108.93 110.666 108.665 110.666H106.435C106.17 110.666 105.915 110.561 105.728 110.373C105.54 110.186 105.435 109.932 105.435 109.666C105.435 109.401 105.54 109.147 105.728 108.959C105.915 108.772 106.169 108.666 106.435 108.666Z" fill="white"/>
</svg>
