<svg width="194" height="42" viewBox="0 0 194 42" fill="none" xmlns="http://www.w3.org/2000/svg">
<path d="M96.7557 36.0728C103.201 36.0728 107.495 31.8826 107.495 24.811V6.72168H100.446V24.5277C100.446 27.8194 99.2677 29.4505 96.7946 29.4505C94.4092 29.4505 93.3869 27.7803 93.3869 24.5277V6.72168H86.2988V24.811C86.3086 32.0389 90.2323 36.0728 96.7557 36.0728Z" fill="white"/>
<path d="M126.383 8.304C124.436 6.9268 122.128 6.72168 119.09 6.72168H109.529V35.6235H116.578V26.3152H118.604C121.602 26.3152 123.871 26.1101 125.701 25.0161C128.574 23.2677 130.277 20.1812 130.277 16.4403C130.277 12.8166 128.944 10.0914 126.383 8.304ZM117.961 20.0542H116.666V13.1877H118.526C121.651 13.1877 123.15 14.1645 123.15 16.5575C123.141 19.1556 121.447 20.0542 117.961 20.0542Z" fill="white"/>
<path d="M169.262 19.5268L180.001 35.6235H186.194V6.72168H179.154V22.7794L168.571 6.72168H162.213V35.6235H169.262V19.5268Z" fill="white"/>
<path d="M80.0191 10.4627C77.2247 7.69852 73.5833 6.19434 69.7277 6.19434C65.6385 6.19434 62.0652 7.62038 59.2319 10.4236C56.3987 13.2269 54.8506 16.8897 54.8506 20.8748C54.8506 25.1432 56.2331 28.7181 58.9399 31.6092C61.7731 34.6176 65.4243 36.1608 69.6791 36.1608C73.6904 36.1608 77.4974 34.5785 80.2917 31.6483C83.0081 28.845 84.4686 25.1432 84.4686 21.0018C84.4783 17.046 82.94 13.3441 80.0191 10.4627ZM69.6888 29.0013C65.7164 29.0013 62.1139 25.5046 62.1139 20.9529C62.1139 16.7236 65.473 13.3539 69.7764 13.3539C73.8268 13.3539 77.1955 16.7236 77.1955 20.9529C77.1858 25.6608 73.8268 29.0013 69.6888 29.0013Z" fill="white"/>
<path d="M156.372 10.4627C153.577 7.69852 149.926 6.19434 146.08 6.19434C141.981 6.19434 138.418 7.62038 135.584 10.4236C132.751 13.2269 131.203 16.8897 131.203 20.8748C131.203 25.1432 132.586 28.7181 135.292 31.6092C138.135 34.6176 141.777 36.1608 146.032 36.1608C150.043 36.1608 153.85 34.5785 156.644 31.6483C159.361 28.845 160.821 25.1432 160.821 21.0018C160.831 17.046 159.293 13.3441 156.372 10.4627ZM146.041 29.0013C142.069 29.0013 138.466 25.5046 138.466 20.9529C138.466 16.7236 141.835 13.3539 146.129 13.3539C150.179 13.3539 153.548 16.7236 153.548 20.9529C153.538 25.6608 150.17 29.0013 146.041 29.0013Z" fill="white"/>
<path d="M5.78857 31.5995C8.62185 34.6078 12.234 36.1902 16.4888 36.1902C21.396 36.1902 26.011 33.7483 28.7664 29.7241C30.4313 27.2823 31.2394 24.5181 31.2394 21.2655C31.2394 20.6599 31.2005 20.0055 31.1615 19.3511H14.746V25.1236H22.9733C21.5517 27.6437 19.1663 29.0306 16.4888 29.0306C12.5164 29.0306 8.95289 25.4948 8.95289 20.8943C8.95289 16.7432 12.273 13.2953 16.4888 13.2953C18.7574 13.2953 20.6171 14.233 22.4085 16.0985H30.4313C28.1238 9.91574 22.7298 6.13574 16.5765 6.13574C12.4872 6.13574 8.92368 7.60086 6.08066 10.4041C3.24738 13.2074 1.70904 16.8702 1.70904 20.8553C1.6993 25.1334 3.07213 28.7083 5.78857 31.5995Z" fill="white"/>
<path d="M47.2365 25.6998C51.3258 24.557 53.7599 21.0701 53.7599 16.3914C53.7599 12.8166 52.426 10.0914 49.8654 8.304C47.9181 6.9268 45.6106 6.72168 42.5728 6.72168H33.0117V35.6235H40.0608V26.3152L45.5716 35.6235H54.2857L47.2365 25.6998ZM41.4434 20.0542H40.0706V13.1877H42.0179C45.1335 13.1877 46.6329 14.1645 46.6329 16.5575C46.6329 19.1556 44.929 20.0542 41.4434 20.0542Z" fill="white"/>
<path d="M190.429 10.3846C191.033 10.3846 191.549 10.1697 191.967 9.73995C192.396 9.31018 192.6 8.79251 192.6 8.19669C192.6 7.59111 192.386 7.0832 191.967 6.6632C191.549 6.2432 191.033 6.02832 190.429 6.02832C189.835 6.02832 189.319 6.2432 188.9 6.6632C188.472 7.09297 188.268 7.60088 188.268 8.19669C188.268 8.80227 188.482 9.31995 188.9 9.73995C189.319 10.1697 189.825 10.3846 190.429 10.3846ZM189.115 6.86832C189.485 6.49716 189.923 6.31158 190.439 6.31158C190.955 6.31158 191.403 6.49716 191.763 6.86832C192.123 7.22972 192.308 7.67902 192.308 8.19669C192.308 8.71437 192.123 9.16367 191.763 9.53483C191.403 9.90599 190.965 10.0916 190.439 10.0916C189.923 10.0916 189.475 9.90599 189.115 9.53483C188.754 9.16367 188.569 8.72413 188.569 8.19669C188.569 7.67902 188.745 7.23948 189.115 6.86832Z" fill="white"/>
<path d="M191.393 9.34907C191.383 9.32954 191.373 9.29047 191.373 9.2221C191.373 9.16349 191.364 9.09512 191.364 9.04628V8.87047C191.364 8.75326 191.325 8.62628 191.237 8.49931C191.149 8.37233 191.013 8.29419 190.828 8.26489C190.974 8.24535 191.091 8.20628 191.169 8.14768C191.325 8.05 191.403 7.88396 191.403 7.67884C191.403 7.37605 191.276 7.17093 191.033 7.07326C190.896 7.01465 190.682 6.98535 190.38 6.98535H189.543V9.37837H189.962V8.4407H190.293C190.517 8.4407 190.672 8.47 190.76 8.51884C190.916 8.60675 190.984 8.79233 190.984 9.06582V9.2514L190.994 9.32954C190.994 9.33931 190.994 9.34907 190.994 9.35884C190.994 9.36861 190.994 9.37837 191.003 9.37837H191.393V9.34907ZM190.76 8.08907C190.672 8.12814 190.536 8.13791 190.361 8.13791H189.981V7.26861H190.341C190.575 7.26861 190.741 7.29791 190.848 7.35651C190.955 7.41512 191.003 7.53233 191.003 7.70814C191.003 7.90349 190.916 8.03047 190.76 8.08907Z" fill="white"/>
</svg>
