<svg width="177" height="177" viewBox="0 0 177 177" fill="none" xmlns="http://www.w3.org/2000/svg">
<circle cx="88.5" cy="88.5" r="88.5" fill="#4353FF"/>
<path d="M92.4835 125.153C92.4835 126.71 91.5447 128.114 90.1052 128.708C88.6656 129.303 87.007 128.971 85.9078 127.871C84.8086 126.768 84.48 125.11 85.0785 123.67C85.677 122.234 87.0853 121.3 88.6422 121.303C89.6631 121.303 90.6411 121.706 91.3608 122.43C92.0806 123.154 92.4835 124.132 92.4835 125.153ZM77.2199 118.988C75.663 118.988 74.2587 119.926 73.6641 121.366C73.0694 122.806 73.402 124.46 74.5012 125.559C75.6044 126.663 77.2629 126.987 78.7024 126.389C80.1381 125.79 81.073 124.382 81.0691 122.825C81.0691 121.804 80.6662 120.826 79.9425 120.106C79.2188 119.387 78.241 118.984 77.2199 118.988ZM100.014 118.988C98.4573 118.988 97.053 119.926 96.4584 121.366C95.8637 122.806 96.1924 124.46 97.2955 125.559C98.3987 126.663 100.057 126.987 101.493 126.389C102.932 125.79 103.867 124.382 103.863 122.825C103.863 121.804 103.457 120.826 102.737 120.106C102.013 119.387 101.035 118.984 100.014 118.988ZM122.62 69.2061V103.234C122.612 107.299 119.319 110.592 115.254 110.6H61.3659C57.3016 110.592 54.0078 107.299 54 103.234V69.2061C54.0078 65.1418 57.3016 61.848 61.3659 61.8441H115.254C119.319 61.848 122.612 65.1418 122.62 69.2061ZM116.185 69.2805H116.181C116.181 69.077 116.103 68.8854 115.958 68.7406C115.818 68.5998 115.622 68.5177 115.423 68.5177H61.1897C60.7672 68.5177 60.4269 68.858 60.4269 69.2805V103.152C60.4269 103.575 60.7672 103.919 61.1897 103.923H115.431C115.853 103.919 116.193 103.575 116.193 103.152L116.185 69.2805ZM85.5759 89.8716V96.1305H91.0407V89.8716H91.0446C91.0446 89.6682 91.1268 89.4726 91.2715 89.3279C91.4162 89.1871 91.6118 89.1088 91.8152 89.1088H98.0741V83.6323H91.8152C91.3888 83.6323 91.0446 83.288 91.0446 82.8617V76.6028H85.576V82.8617C85.576 83.0651 85.4977 83.2646 85.353 83.4093C85.2082 83.5541 85.0087 83.6323 84.8053 83.6323H78.5465V89.1088H84.8053C85.0087 89.1088 85.2043 89.1871 85.3491 89.3279C85.4938 89.4726 85.5759 89.6682 85.5759 89.8716ZM61.9605 70.0505H114.66V102.389H61.9605V70.0505ZM77.0439 89.8716C77.0439 90.2941 77.3842 90.6344 77.8067 90.6344H84.0655V96.8933C84.0655 97.3158 84.4019 97.66 84.8244 97.6639H91.8344C92.2568 97.66 92.5971 97.3158 92.5971 96.8933V90.6344H98.856C99.0594 90.6344 99.2511 90.5523 99.3958 90.4115C99.5367 90.2667 99.6188 90.075 99.6188 89.8716V82.8617C99.6188 82.6583 99.5367 82.4666 99.3958 82.3219C99.2511 82.181 99.0594 82.0989 98.856 82.0989H92.5971V75.84C92.5971 75.6405 92.515 75.4449 92.3742 75.3041C92.2294 75.1594 92.0378 75.0811 91.8344 75.0811H84.8049C84.3824 75.0811 84.0421 75.4215 84.0421 75.84V82.0989H77.7832C77.3647 82.0989 77.0243 82.4392 77.0243 82.8617L77.0439 89.8716ZM92.691 112.122V113.957C92.6832 115.854 93.4343 117.677 94.776 119.019L95.6131 119.789C95.9143 119.398 96.2664 119.05 96.6537 118.745L95.8909 117.982L95.8948 117.986C94.8347 116.934 94.2402 115.502 94.2441 114.011V112.122L92.691 112.122ZM87.8717 112.122V119.852C88.3763 119.754 88.8927 119.754 89.3934 119.852V112.122H87.8717ZM84.574 112.122H83.0327V113.957C83.0367 115.451 82.4421 116.883 81.382 117.931L80.6192 118.694H80.6231C81.0182 119.015 81.3703 119.39 81.6637 119.809L82.4656 119.015L82.4695 119.019C83.8073 117.673 84.5584 115.854 84.5545 113.957L84.574 112.122ZM81.6754 55.7923V60.33H94.9562V55.8041C90.669 57.4001 85.9513 57.4001 81.6644 55.8041L81.6754 55.7923ZM80.1302 60.33V54.6657C80.1381 54.4154 80.2671 54.1885 80.4745 54.0477C80.6818 53.9108 80.94 53.8795 81.1747 53.9655C85.6928 55.9684 90.8446 55.9684 95.3628 53.9655C95.5936 53.8795 95.8557 53.9108 96.063 54.0477C96.2703 54.1885 96.3955 54.4154 96.4033 54.6657V60.33H102.142V51.2741C102.138 49.463 100.667 48 98.8561 48H77.6811C75.8699 48 74.3991 49.463 74.3952 51.2741V60.33H80.1302Z" fill="white"/>
</svg>
