<svg width="1003" height="1044" viewBox="0 0 1003 1044" fill="none" xmlns="http://www.w3.org/2000/svg">
<g opacity="0.6" filter="url(#filter0_f_2_3)">
<circle cx="501.5" cy="501.5" r="117.5" fill="#4353FF"/>
</g>
<rect x="339" y="334" width="559" height="710" rx="15" fill="white" fill-opacity="0.02"/>
<rect x="339.5" y="334.5" width="558" height="709" rx="14.5" stroke="white" stroke-opacity="0.11"/>
<path d="M757.277 999.277L757.277 378.724L481.143 378.724L481.143 999.277L757.277 999.277Z" stroke="#4353FF" stroke-opacity="0.09" stroke-dasharray="4 3"/>
<path d="M758 412.716L480.42 412.716" stroke="#4353FF" stroke-opacity="0.09" stroke-dasharray="4 3"/>
<path d="M758 447.433L480.42 447.433" stroke="#4353FF" stroke-opacity="0.09" stroke-dasharray="4 3"/>
<path d="M758 482.149L480.42 482.149" stroke="#4353FF" stroke-opacity="0.09" stroke-dasharray="4 3"/>
<path d="M758 516.865L480.42 516.865" stroke="#4353FF" stroke-opacity="0.09" stroke-dasharray="4 3"/>
<path d="M758 551.582L480.42 551.582" stroke="#4353FF" stroke-opacity="0.09" stroke-dasharray="4 3"/>
<path d="M758 586.298L480.42 586.298" stroke="#4353FF" stroke-opacity="0.09" stroke-dasharray="4 3"/>
<path d="M758 621.015L480.42 621.015" stroke="#4353FF" stroke-opacity="0.09" stroke-dasharray="4 3"/>
<path d="M758 655.731L480.42 655.731" stroke="#4353FF" stroke-opacity="0.09" stroke-dasharray="4 3"/>
<path d="M758 690.447L480.42 690.447" stroke="#4353FF" stroke-opacity="0.09" stroke-dasharray="4 3"/>
<path d="M758 725.163L480.42 725.163" stroke="#4353FF" stroke-opacity="0.09" stroke-dasharray="4 3"/>
<path d="M758 759.88L480.42 759.88" stroke="#4353FF" stroke-opacity="0.09" stroke-dasharray="4 3"/>
<path d="M758 794.596L480.42 794.596" stroke="#4353FF" stroke-opacity="0.09" stroke-dasharray="4 3"/>
<path d="M758 829.311L480.42 829.311" stroke="#4353FF" stroke-opacity="0.09" stroke-dasharray="4 3"/>
<path d="M758 864.028L480.42 864.028" stroke="#4353FF" stroke-opacity="0.09" stroke-dasharray="4 3"/>
<path d="M758 898.744L480.42 898.744" stroke="#4353FF" stroke-opacity="0.09" stroke-dasharray="4 3"/>
<path d="M758 933.461L480.42 933.461" stroke="#4353FF" stroke-opacity="0.09" stroke-dasharray="4 3"/>
<path d="M758 968.176L480.42 968.176" stroke="#4353FF" stroke-opacity="0.09" stroke-dasharray="4 3"/>
<path d="M619.211 1000L619.211 378" stroke="#4353FF" stroke-opacity="0.09" stroke-dasharray="4 3"/>
<path d="M584.513 1000L584.513 378" stroke="#4353FF" stroke-opacity="0.09" stroke-dasharray="4 3"/>
<path d="M549.814 1000L549.814 378" stroke="#4353FF" stroke-opacity="0.09" stroke-dasharray="4 3"/>
<path d="M515.117 1000L515.117 378" stroke="#4353FF" stroke-opacity="0.09" stroke-dasharray="4 3"/>
<path d="M653.906 1000L653.906 378" stroke="#4353FF" stroke-opacity="0.09" stroke-dasharray="4 3"/>
<path d="M688.605 1000L688.605 378" stroke="#4353FF" stroke-opacity="0.09" stroke-dasharray="4 3"/>
<path d="M723.303 1000L723.303 378" stroke="#4353FF" stroke-opacity="0.09" stroke-dasharray="4 3"/>
<path fill-rule="evenodd" clip-rule="evenodd" d="M635.475 585.269C635.471 576.035 635.507 566.802 635.434 557.57C635.412 554.949 635.572 552.487 638.132 551.052C647.666 545.709 656.631 539.341 666.72 535.008C671.836 532.808 677.28 531.67 682.794 530.916C692.755 531.971 697.153 536.042 698.923 546.454C701.086 559.19 700.634 572.099 700.988 584.946C701.216 593.191 700.959 601.466 703.69 609.426C710.448 616.965 717.993 616.899 726.086 611.773C727.396 610.944 728.912 610.674 730.415 610.407C732.485 621.22 730.937 632.128 731.226 642.988C731.275 644.95 729.185 645.665 727.813 646.601C709.603 659.037 701.956 676.874 701.304 698.287C700.952 709.817 700.394 721.351 700.448 732.882C700.58 760.957 688.236 782.798 667.022 800.075C657.247 808.038 647.061 815.562 635.442 820.804C634.024 819.038 633.86 816.942 633.853 814.799C633.832 808.068 633.952 801.335 633.814 794.607C633.713 789.695 635.683 786.131 639.73 783.495C643.596 780.975 647.4 778.357 651.019 775.486C658.736 769.367 662.591 761.493 662.788 751.545C663.065 737.342 663.695 723.148 664.876 708.98C666.383 690.884 672.461 674.563 683.178 659.922C686.923 654.807 686.854 654.753 680.594 653.022C678.156 652.349 675.683 651.738 674.863 648.849C673.644 646.285 671.213 645.353 668.821 644.373C664.761 633.645 663.808 622.506 663.74 611.117C663.693 603.109 662.544 595.121 662.644 587.063C662.763 577.314 660.905 576.024 651.462 578.387C647.291 577.952 644.718 581.245 641.35 582.681C639.38 583.521 638.092 585.924 635.475 585.269Z" fill="#0D0F23"/>
<path d="M635.934 557.565L635.934 557.566C635.987 564.306 635.983 571.048 635.978 577.787C635.976 580.144 635.974 582.5 635.975 584.856C636.899 584.976 637.629 584.641 638.369 584.125C638.648 583.931 638.907 583.727 639.179 583.513C639.335 583.389 639.496 583.263 639.667 583.133C640.115 582.793 640.604 582.455 641.154 582.221L641.154 582.221C641.957 581.879 642.72 581.422 643.493 580.923C643.741 580.763 643.992 580.597 644.246 580.429C644.771 580.082 645.308 579.727 645.848 579.403C647.451 578.445 649.224 577.676 651.425 577.881C653.753 577.301 655.654 576.936 657.19 576.875C658.745 576.814 659.995 577.062 660.942 577.786C661.892 578.512 662.447 579.647 662.764 581.16C663.081 582.671 663.174 584.625 663.144 587.07V587.07C663.094 591.075 663.355 595.067 663.635 599.074C663.653 599.331 663.672 599.588 663.69 599.845C663.953 603.59 664.218 607.349 664.24 611.114C664.307 622.408 665.247 633.41 669.212 643.993C669.23 644 669.247 644.007 669.265 644.015C671.551 644.947 674.046 645.965 675.315 648.634L675.333 648.672L675.344 648.712C676.065 651.253 678.168 651.834 680.618 652.51L680.727 652.54L680.727 652.54C682.281 652.97 683.49 653.306 684.349 653.646C685.178 653.975 685.855 654.37 686.105 655.025C686.359 655.691 686.096 656.417 685.67 657.174C685.23 657.958 684.511 658.948 683.582 660.217C672.919 674.784 666.873 691.017 665.374 709.021C664.194 723.177 663.565 737.36 663.288 751.554C663.088 761.649 659.166 769.665 651.33 775.878C647.693 778.762 643.876 781.389 640.003 783.914L640.003 783.914C638.036 785.196 636.596 786.687 635.657 788.434C634.718 790.181 634.265 792.212 634.314 794.596L633.814 794.607L634.314 794.596C634.403 798.95 634.385 803.313 634.366 807.668C634.356 810.047 634.345 812.425 634.353 814.797C634.359 816.799 634.51 818.627 635.601 820.183C647.008 814.977 657.042 807.56 666.706 799.687C687.823 782.49 700.079 760.784 699.948 732.884C699.908 724.241 700.211 715.593 700.513 706.957C700.615 704.06 700.716 701.165 700.805 698.271C701.461 676.734 709.163 658.732 727.531 646.189L727.813 646.601L727.531 646.189C727.827 645.986 728.156 645.793 728.473 645.607C728.542 645.567 728.61 645.527 728.678 645.487C729.064 645.259 729.428 645.035 729.743 644.786C730.366 644.297 730.745 643.762 730.726 643.001C730.726 643.001 730.726 643.001 730.726 643L731.226 642.988C731.129 639.331 731.24 635.669 731.351 632.007C731.57 624.793 731.788 617.579 730.415 610.407L635.934 557.565ZM635.934 557.565C635.912 554.929 636.095 552.767 638.376 551.489L638.376 551.488C641.579 549.693 644.724 547.779 647.86 545.871C649.398 544.934 650.934 543.999 652.474 543.08C657.162 540.282 661.903 537.621 666.917 535.468L666.917 535.468C671.956 533.301 677.329 532.171 682.802 531.42C687.698 531.946 691.142 533.205 693.585 535.538C696.039 537.882 697.553 541.38 698.43 546.538C700.076 556.231 700.201 566.013 700.327 575.837C700.366 578.875 700.404 581.916 700.488 584.96C700.52 586.102 700.542 587.248 700.564 588.396C700.701 595.488 700.84 602.659 703.217 609.588L703.25 609.684L703.318 609.759C706.762 613.602 710.45 615.55 714.349 615.847C718.236 616.144 722.253 614.792 726.354 612.195C727.436 611.511 728.68 611.231 730.015 610.987L635.934 557.565Z" stroke="white" stroke-opacity="0.13"/>
<path fill-rule="evenodd" clip-rule="evenodd" d="M517.566 772.583C520.073 767.071 518.76 761.23 518.591 755.614C518.322 746.78 518.925 739.782 527.52 733.624C542.247 723.077 547.862 707.2 549.049 689.105C549.805 677.565 549.868 666.072 549.833 654.571C549.751 628.568 558.793 606.566 578.011 589.062C587.225 580.67 597.48 573.544 608.177 567.091C610.123 565.916 611.865 564.401 613.702 563.042C615.747 573.663 614.144 584.384 614.58 595.049C614.671 597.23 612.738 597.908 611.277 598.624C591.926 608.113 584.207 623.345 585.536 644.952C586.629 662.727 585.469 680.708 579.65 697.954C576.293 707.897 571.197 716.884 564.803 725.124C561.914 728.846 562.751 731.052 567.002 732.051C577.337 734.479 581.706 742.043 583.331 751.465C585.755 765.524 585.61 779.796 585.967 794.014C586.014 795.867 584.807 798.456 587.922 799.277C589.335 807.751 591.849 809.013 599.918 805.432C604.655 803.33 608.61 799.806 613.514 798.028C615.394 798.969 614.568 800.717 614.591 802.098C614.688 808.039 613.882 814.099 614.803 819.894C616.309 829.381 612.204 834.478 604.175 838.607C593.818 843.933 584.189 850.749 572.426 852.867C565.946 854.036 559.63 853.957 555.332 847.889C553.818 845.753 551.295 846.989 549.787 845.461C550.058 843.766 550.669 842.105 550.319 840.349C547.412 825.732 548.39 810.934 548.268 796.19C548.243 793.106 547.69 790.089 547.422 787.041C546.616 777.871 544.307 769.909 533.631 767.903C529.534 768.226 526.1 770.329 522.509 772.022C520.945 772.757 519.487 774.838 517.566 772.583Z" fill="#0D0F23"/>
<path d="M519.091 755.598L519.091 755.599C519.129 756.873 519.227 758.16 519.326 759.465C519.335 759.584 519.344 759.703 519.353 759.822C519.461 761.245 519.564 762.688 519.582 764.131C519.617 766.918 519.338 769.734 518.156 772.487C518.503 772.839 518.802 773.001 519.053 773.066C519.349 773.142 519.646 773.1 519.981 772.962C520.326 772.819 520.674 772.59 521.066 772.324L521.148 772.267C521.501 772.026 521.893 771.759 522.296 771.57M519.091 755.598L522.509 772.022M519.091 755.598C518.956 751.186 519.044 747.305 520.206 743.772C521.361 740.259 523.59 737.054 527.811 734.031C542.706 723.363 548.356 707.314 549.548 689.138L549.049 689.105M519.091 755.598L549.049 689.105M522.296 771.57L522.509 772.022M522.296 771.57C522.296 771.57 522.296 771.57 522.295 771.57L522.509 772.022M522.296 771.57C522.95 771.261 523.606 770.935 524.266 770.607C527.163 769.166 530.159 767.675 533.592 767.405L533.658 767.4L533.723 767.412C539.192 768.439 542.566 771.01 544.657 774.53C546.73 778.019 547.515 782.398 547.92 786.997C548.01 788.028 548.137 789.074 548.265 790.13C548.506 792.125 548.752 794.155 548.768 796.186C548.795 799.457 548.769 802.725 548.742 805.988C548.648 817.48 548.555 828.915 550.81 840.251M522.509 772.022C523.184 771.704 523.853 771.371 524.523 771.038C527.415 769.601 530.304 768.165 533.631 767.903C544.307 769.909 546.616 777.871 547.422 787.041C547.515 788.107 547.644 789.17 547.773 790.232C548.012 792.208 548.252 794.185 548.268 796.19C548.295 799.443 548.268 802.698 548.242 805.954C548.148 817.454 548.053 828.957 550.319 840.349M550.81 840.251C550.81 840.251 550.809 840.251 550.809 840.251L550.319 840.349M550.81 840.251L550.319 840.349M550.81 840.251C551.002 841.214 550.927 842.137 550.779 843.011C550.709 843.425 550.621 843.837 550.536 844.236L550.523 844.298C550.452 844.63 550.384 844.953 550.326 845.275M550.319 840.349C550.578 841.645 550.312 842.89 550.046 844.135C549.952 844.576 549.858 845.017 549.787 845.461M585.967 794.014C585.909 791.693 585.864 789.37 585.819 787.046C585.589 775.141 585.359 763.228 583.331 751.465C581.706 742.043 577.337 734.479 567.002 732.051C562.751 731.052 561.914 728.846 564.803 725.124C571.197 716.884 576.293 707.897 579.65 697.954L585.967 794.014ZM585.967 794.014C585.977 794.424 585.926 794.87 585.874 795.325C585.692 796.926 585.496 798.637 587.922 799.277M585.967 794.014L613.474 798.576M549.787 845.461L550.143 845.11C550.202 845.17 550.263 845.224 550.326 845.275M549.787 845.461C550.47 846.153 551.36 846.278 552.271 846.406C553.373 846.561 554.504 846.72 555.332 847.889M549.787 845.461L550.281 845.54C550.295 845.451 550.31 845.363 550.326 845.275M550.326 845.275C550.856 845.697 551.519 845.793 552.361 845.913C552.449 845.926 552.539 845.939 552.63 845.952C553.662 846.105 554.857 846.353 555.74 847.6L555.332 847.889M555.332 847.889L555.74 847.6C557.813 850.527 560.357 851.996 563.166 852.603C565.996 853.214 569.118 852.955 572.337 852.375C578.151 851.328 583.449 849.119 588.601 846.494C591.177 845.182 593.711 843.769 596.255 842.348L596.453 842.237C598.929 840.853 601.416 839.464 603.947 838.162C607.925 836.116 610.866 833.862 612.639 830.997C614.403 828.146 615.048 824.628 614.309 819.973C613.842 817.029 613.814 814.029 613.888 811.038C613.912 810.093 613.945 809.152 613.979 808.214C614.052 806.167 614.124 804.134 614.091 802.106C614.085 801.745 614.131 801.367 614.172 801.025L614.181 800.952C614.227 800.575 614.263 800.237 614.25 799.92C614.236 799.609 614.175 799.347 614.042 799.121C613.932 798.936 613.76 798.749 613.474 798.576M555.332 847.889C559.63 853.957 565.946 854.036 572.426 852.867C581.323 851.265 589 846.975 596.694 842.675C599.172 841.29 601.652 839.904 604.175 838.607C612.204 834.478 616.309 829.381 614.803 819.894C614.199 816.09 614.338 812.171 614.478 808.247C614.551 806.194 614.624 804.139 614.591 802.098C614.586 801.773 614.627 801.427 614.67 801.076C614.807 799.938 614.951 798.748 613.514 798.028M613.474 798.576C611.159 799.444 609.047 800.707 606.918 802.033C606.697 802.171 606.475 802.309 606.254 802.448C604.287 803.677 602.285 804.929 600.121 805.889C598.091 806.79 596.378 807.401 594.927 807.665C593.474 807.929 592.236 807.852 591.196 807.32C590.154 806.787 589.39 805.838 588.801 804.521C588.243 803.273 587.826 801.659 587.481 799.668M613.474 798.576C613.417 798.542 613.356 798.508 613.291 798.475L613.514 798.028M613.474 798.576C613.544 798.55 613.614 798.524 613.685 798.498L613.514 798.028M613.474 798.576L611.057 598.175M613.514 798.028C610.815 799.007 608.403 800.514 605.99 802.023C604.019 803.255 602.048 804.487 599.918 805.432C591.849 809.013 589.335 807.751 587.922 799.277M587.922 799.277L587.428 799.36C587.446 799.464 587.463 799.566 587.481 799.668M587.922 799.277L587.794 799.761C587.686 799.732 587.582 799.701 587.481 799.668M587.481 799.668C586.793 799.443 586.283 799.115 585.926 798.691C585.516 798.203 585.349 797.637 585.296 797.08C585.244 796.531 585.3 795.961 585.357 795.447C585.364 795.387 585.371 795.327 585.378 795.269C585.43 794.808 585.477 794.4 585.467 794.027L585.467 794.027C585.409 791.699 585.364 789.372 585.319 787.046C585.089 775.14 584.859 763.273 582.838 751.55C582.034 746.886 580.557 742.726 578.036 739.44C575.522 736.164 571.948 733.727 566.887 732.538C564.737 732.032 563.219 731.176 562.75 729.766C562.285 728.366 562.95 726.695 564.408 724.818C570.772 716.615 575.84 707.677 579.176 697.794C584.968 680.629 586.127 662.718 585.037 644.983C584.369 634.114 585.973 624.804 590.212 617.005C594.454 609.202 601.307 602.956 611.057 598.175M611.057 598.175L611.277 598.624M611.057 598.175L585.536 644.952C584.207 623.345 591.926 608.113 611.277 598.624M611.057 598.175C611.057 598.175 611.057 598.175 611.057 598.175L611.277 598.624M611.057 598.175L611.277 598.624M611.057 598.175C611.213 598.099 611.369 598.025 611.522 597.952C612.134 597.662 612.719 597.385 613.195 596.998C613.752 596.546 614.118 595.973 614.081 595.07L614.081 595.069C613.924 591.227 614.03 587.37 614.136 583.532C614.178 582.025 614.219 580.52 614.244 579.02C614.33 573.956 614.234 568.926 613.356 563.928M611.057 598.175L613.356 563.928M549.049 689.105L549.548 689.138C550.305 677.579 550.368 666.072 550.333 654.57C550.251 628.699 559.241 606.835 578.348 589.432C587.53 581.069 597.756 573.961 608.435 567.519L608.435 567.519M549.049 689.105L608.435 567.519M608.435 567.519C609.792 566.7 611.067 565.706 612.315 564.734C612.664 564.462 613.011 564.192 613.356 563.928M608.435 567.519L613.356 563.928" stroke="white" stroke-opacity="0.13"/>
<defs>
<filter id="filter0_f_2_3" x="0" y="0" width="1003" height="1003" filterUnits="userSpaceOnUse" color-interpolation-filters="sRGB">
<feFlood flood-opacity="0" result="BackgroundImageFix"/>
<feBlend mode="normal" in="SourceGraphic" in2="BackgroundImageFix" result="shape"/>
<feGaussianBlur stdDeviation="192" result="effect1_foregroundBlur_2_3"/>
</filter>
</defs>
</svg>
