<svg width="267" height="267" viewBox="0 0 267 267" fill="none" xmlns="http://www.w3.org/2000/svg">
<rect width="267" height="267" rx="51" fill="url(#paint0_linear_1065_80)"/>
<rect x="7" y="7" width="253" height="253" rx="43" fill="#D9D9D9"/>
<rect x="7" y="7" width="253" height="253" rx="43" fill="url(#paint1_linear_1065_80)"/>
<rect x="11" y="11" width="245" height="245" rx="43" fill="#D9D9D9"/>
<rect x="11" y="11" width="245" height="245" rx="43" fill="url(#paint2_linear_1065_80)"/>
<g style="mix-blend-mode:soft-light">
<path d="M159.968 114.317L119.797 114.319L120.505 122.399H158.978C159.896 122.399 160.641 123.161 160.641 124.101L157.622 158.677C157.593 159.022 157.46 159.35 157.243 159.617C157.026 159.883 156.734 160.075 156.406 160.167L133.897 166.545C133.59 166.631 133.281 166.623 132.996 166.541L110.529 160.169C110.187 160.073 109.883 159.867 109.664 159.583C109.444 159.298 109.319 158.949 109.307 158.586L107.777 141.061C107.698 140.125 108.377 139.302 109.291 139.22L109.434 139.214V139.208H120.452C121.374 139.208 122.124 139.971 122.124 140.914L122.789 148.532L133.454 151.467L144.157 148.517L145.161 137.013H108.946C108.06 137.013 107.337 136.307 107.284 135.414L104.333 101.549C104.253 100.613 104.932 99.7874 105.846 99.7073L105.991 99.7012V99.695H160.959C161.881 99.695 162.63 100.459 162.63 101.401C162.63 101.508 162.62 101.61 162.602 101.711L161.633 112.761C161.559 113.65 160.828 114.319 159.968 114.317ZM91.489 84.4077L99.2009 172.814L133.45 182.532L167.789 172.802L175.517 84.4056L91.489 84.4077ZM95.9908 174.286L88.0278 83.0179C87.9833 82.7716 87.9924 82.5182 88.0544 82.2759C88.1164 82.0335 88.2298 81.808 88.3866 81.6155C88.5434 81.4229 88.7398 81.2679 88.9617 81.1616C89.1837 81.0552 89.4258 81.0001 89.671 81L177.337 81.0041L177.479 81.0103C178.395 81.0924 179.072 81.9156 178.994 82.8516L171.009 174.184C170.985 174.908 170.509 175.565 169.787 175.768L133.906 185.934C133.612 186.021 133.3 186.022 133.006 185.938L97.2041 175.781C96.5533 175.594 96.051 175.013 95.9908 174.286ZM117.979 110.905H158.456L159.139 103.109H107.809L110.466 133.612H146.979L147.122 133.618C148.038 133.698 148.715 134.523 148.636 135.457L147.379 149.874C147.374 150.246 147.251 150.607 147.027 150.901C146.803 151.195 146.491 151.406 146.139 151.502L133.932 154.867C133.637 154.957 133.323 154.962 133.026 154.881L120.804 151.516C120.149 151.332 119.639 150.747 119.577 150.016L118.932 142.622H111.254L112.526 157.203L133.454 163.137L154.41 157.203L157.158 125.801H118.982C118.128 125.801 117.399 125.132 117.325 124.247L116.336 112.923C116.318 112.823 116.308 112.718 116.308 112.613C116.308 111.671 117.057 110.905 117.979 110.905Z" fill="white"/>
</g>
<defs>
<linearGradient id="paint0_linear_1065_80" x1="133.5" y1="0" x2="133.5" y2="267" gradientUnits="userSpaceOnUse">
<stop stop-color="#6D7AFF"/>
<stop offset="0.435" stop-color="#2631AB"/>
<stop offset="1" stop-color="#4353FF"/>
</linearGradient>
<linearGradient id="paint1_linear_1065_80" x1="236.5" y1="249.5" x2="21" y2="32.5" gradientUnits="userSpaceOnUse">
<stop stop-color="#6D7AFF"/>
<stop offset="0.435" stop-color="#2631AB"/>
<stop offset="1" stop-color="#4353FF"/>
</linearGradient>
<linearGradient id="paint2_linear_1065_80" x1="133.5" y1="11" x2="87" y2="268" gradientUnits="userSpaceOnUse">
<stop stop-color="#4353FF"/>
<stop offset="1" stop-color="#6D7AFF"/>
</linearGradient>
</defs>
</svg>
