<svg width="27" height="27" viewBox="0 0 27 27" fill="none" xmlns="http://www.w3.org/2000/svg">
<path d="M13.585 12.4446C13.5844 12.5117 13.6036 12.5775 13.6403 12.6336C13.677 12.6898 13.7295 12.7339 13.7911 12.7604C13.8523 12.7889 13.9205 12.7986 13.9871 12.7884C14.0538 12.7781 14.1159 12.7482 14.1656 12.7026L22.5469 5.25018C22.5816 5.21945 22.6097 5.18203 22.6296 5.14016C22.6494 5.0983 22.6606 5.05286 22.6624 5.00656C22.6646 4.95866 22.6571 4.91081 22.6403 4.86591C22.6235 4.82101 22.5977 4.77999 22.5645 4.74535C20.3149 2.35213 17.2414 0.901135 13.9639 0.685059H13.94C13.849 0.685006 13.7614 0.719328 13.6946 0.781153C13.66 0.813141 13.6324 0.851938 13.6136 0.895105C13.5947 0.938273 13.585 0.984878 13.585 1.03199V12.4446Z" fill="white"/>
<path d="M23.4326 5.95562C23.4194 5.95411 23.4061 5.95336 23.3929 5.95337C23.3082 5.95336 23.2266 5.9847 23.1637 6.04134L13.7023 14.457C13.6655 14.4896 13.636 14.5297 13.6158 14.5746C13.5956 14.6194 13.5851 14.6681 13.585 14.7173V25.7874C13.584 25.8549 13.6031 25.9212 13.6398 25.9778C13.6765 26.0344 13.7292 26.0789 13.7912 26.1055C13.8524 26.134 13.9206 26.1437 13.9874 26.1335C14.0541 26.1232 14.1163 26.0933 14.1661 26.0477L25.8863 15.6295C25.9495 15.5738 25.9906 15.4973 26.0023 15.4138C26.0787 14.8403 26.1173 14.2623 26.1178 13.6837C26.1226 10.964 25.2701 8.31203 23.6816 6.1045C23.6523 6.06385 23.6149 6.02974 23.5717 6.00434C23.5285 5.97894 23.4805 5.96281 23.4308 5.95698" fill="white"/>
<path d="M0.553449 10.094C0.536152 10.1573 0.536916 10.2241 0.555654 10.2869C0.574392 10.3498 0.610355 10.4061 0.659468 10.4495L12.0039 20.5389C12.0535 20.5846 12.1157 20.6145 12.1823 20.6248C12.249 20.6351 12.3173 20.6253 12.3784 20.5966C12.4404 20.57 12.4931 20.5256 12.5298 20.4689C12.5665 20.4123 12.5855 20.3461 12.5845 20.2786V1.03146C12.5845 0.983271 12.5745 0.935601 12.5554 0.891381C12.5362 0.84716 12.5082 0.807323 12.4731 0.774313C12.4109 0.716058 12.3287 0.683781 12.2435 0.684084H12.2214C9.54518 0.8632 6.9892 1.86268 4.90139 3.54646C2.81358 5.23024 1.29537 7.51651 0.553449 10.094Z" fill="white"/>
<path d="M0.152363 12.0748C0.0855822 12.6084 0.0519826 13.1455 0.0517578 13.6832C0.0585751 16.9854 1.3163 20.1624 3.57168 22.5745C5.82705 24.9866 8.91256 26.4546 12.2069 26.6829C12.2557 26.6867 12.3047 26.6802 12.3508 26.6638C12.3969 26.6474 12.439 26.6214 12.4744 26.5877C12.5093 26.5553 12.5371 26.5161 12.556 26.4724C12.575 26.4288 12.5847 26.3817 12.5845 26.3341V22.5508C12.5845 22.5017 12.574 22.4531 12.5539 22.4082C12.5338 22.3634 12.5044 22.3233 12.4677 22.2905L0.73118 11.8524C0.668575 11.795 0.586923 11.7629 0.501999 11.7622C0.459757 11.7625 0.417903 11.7703 0.378386 11.7852C0.317729 11.8077 0.264518 11.8466 0.224688 11.8976C0.184857 11.9486 0.159974 12.0096 0.152814 12.0739" fill="white"/>
</svg>
