<svg width="37" height="23" viewBox="0 0 37 23" fill="none" xmlns="http://www.w3.org/2000/svg">
<path d="M2.11264 21.9643C0.2638 21.0327 -0.477636 18.7761 0.456764 16.9272L5.45765 7.0262C6.3892 5.17737 8.64584 4.43594 10.4946 5.37034C12.3435 6.30189 13.085 8.55855 12.1505 10.4074L7.14965 20.3084C6.21525 22.1544 3.96148 22.8968 2.11264 21.9643Z" fill="white"/>
<path d="M12.6089 21.9646C10.7601 21.0331 10.0205 18.7764 10.953 16.9305L17.2077 4.54564C18.1392 2.6968 20.3959 1.95727 22.2419 2.88977C24.0907 3.82131 24.8302 6.07794 23.8978 7.92395L17.6459 20.3088C16.7115 22.1548 14.4577 22.8971 12.6089 21.9646Z" fill="white"/>
<path d="M23.1078 21.9645C21.259 21.0301 20.5175 18.7763 21.449 16.9275L28.9566 2.05883C29.8881 0.209987 32.1447 -0.529548 33.9907 0.40295H33.9936C35.8424 1.3345 36.582 3.59112 35.6495 5.43711L28.141 20.3086C27.2094 22.1574 24.9528 22.8989 23.1069 21.9645H23.1078Z" fill="white"/>
</svg>
