<svg width="24" height="36" viewBox="0 0 24 36" fill="none" xmlns="http://www.w3.org/2000/svg">
<path d="M18.0752 23.9322C18.0752 23.2281 18.3568 22.5944 18.8081 22.1328C19.2633 21.6712 19.8881 21.3895 20.5824 21.3895C21.2768 21.3895 21.9016 21.6751 22.3568 22.1328C22.812 22.5944 23.0935 23.2281 23.0935 23.9322C23.0935 24.6363 22.812 25.27 22.3607 25.7316C21.9055 26.1932 21.2806 26.4748 20.5863 26.4748C19.892 26.4748 19.2671 26.1893 18.812 25.7316C18.3568 25.27 18.0791 24.6363 18.0791 23.9322H18.0752ZM11.9229 4.76453C12.5709 4.76453 13.1572 4.49853 13.5853 4.06824C14.0096 3.63794 14.2719 3.04336 14.2719 2.38227C14.2719 1.72118 14.0096 1.1305 13.5853 0.696295C13.161 0.266 12.5747 0 11.9229 0C11.271 0 10.6885 0.266 10.2604 0.696295C9.83607 1.12659 9.57377 1.72118 9.57377 2.38227C9.57377 3.04336 9.83607 3.63403 10.2604 4.06824C10.6847 4.49853 11.271 4.76453 11.9229 4.76453ZM8.58245 8.42595C8.58245 8.42595 8.60174 8.44942 8.61331 8.46115L8.99132 8.84842C9.2189 8.71933 9.45034 8.60589 9.68563 8.50809C9.92478 8.4103 10.1716 8.32815 10.4185 8.25774V7.67098C10.4262 7.39324 10.5381 7.14289 10.7194 6.96295C10.9007 6.78301 11.1475 6.67348 11.4176 6.67348L12.6982 6.6813C12.7252 6.6813 12.7483 6.6813 12.7753 6.68521C13.0183 6.70477 13.2382 6.8143 13.4002 6.97859C13.5776 7.16245 13.6856 7.40889 13.6818 7.68662C13.6818 7.68662 13.6818 7.72183 13.6818 7.74139V8.28121C13.9209 8.35162 14.1639 8.43768 14.4069 8.5433C14.6461 8.64501 14.8737 8.76236 15.0974 8.89145L15.5063 8.48071C15.5063 8.48071 15.5371 8.44942 15.5564 8.43377C15.5757 8.41813 15.595 8.39857 15.6181 8.38292V8.14039C15.6181 7.18592 15.433 6.47789 15.082 6.02021C14.7618 5.60165 14.2681 5.3865 13.6239 5.3865H10.2179C9.59306 5.3865 9.14176 5.58992 8.86017 5.98892C8.54002 6.44268 8.38187 7.16245 8.38187 8.13648V8.26165C8.4513 8.30468 8.51688 8.35554 8.57859 8.41421L8.58245 8.42595ZM3.3134 26.4748C4.00771 26.4748 4.63259 26.1893 5.08775 25.7316C5.54291 25.27 5.82449 24.6363 5.82449 23.9322C5.82449 23.2281 5.54291 22.5944 5.08775 22.1328C4.63259 21.6712 4.00771 21.3895 3.3134 21.3895C2.61909 21.3895 1.99421 21.6751 1.53905 22.1328C1.0839 22.5944 0.806172 23.2281 0.806172 23.9322C0.806172 24.6363 1.08775 25.27 1.53905 25.7316C1.99421 26.1932 2.61909 26.4748 3.3134 26.4748ZM17.8631 14.8999C17.6355 14.8999 17.4272 14.9742 17.2575 15.1033C17.0878 15.2363 16.9605 15.4202 16.9026 15.6432C16.8409 15.8779 16.7637 16.1047 16.675 16.3199C16.5863 16.535 16.4783 16.7463 16.3587 16.9536C16.243 17.1531 16.1967 17.3722 16.2237 17.5873C16.2507 17.8025 16.3433 18.0059 16.5014 18.1702L16.891 18.5692L16.1234 19.3359L15.7338 18.9369C15.5757 18.7726 15.3751 18.6748 15.163 18.6474C14.9508 18.62 14.731 18.6591 14.5342 18.7726C14.3337 18.8899 14.1215 18.9955 13.9055 19.0855C13.6856 19.1755 13.4619 19.2498 13.2382 19.3085C13.0183 19.3633 12.8332 19.4923 12.6982 19.6605C12.567 19.8288 12.4899 20.0439 12.4899 20.2747V20.838L11.4098 20.8302V20.2669C11.4176 20.0361 11.3443 19.8209 11.2131 19.6488C11.082 19.4767 10.9007 19.3476 10.6808 19.2889C10.4494 19.2263 10.2257 19.1481 10.0174 19.0581C9.80521 18.9682 9.59692 18.8586 9.39248 18.7374C9.19576 18.62 8.97975 18.5731 8.7676 18.6005C8.55545 18.6278 8.35487 18.7217 8.19286 18.8821L7.79556 19.2772L7.03954 18.4988L7.43298 18.1037C7.59499 17.9433 7.69142 17.7399 7.72228 17.5247C7.74928 17.3096 7.7107 17.0905 7.59884 16.891C7.48312 16.6876 7.37898 16.4725 7.29412 16.2534C7.2054 16.0343 7.13597 15.8075 7.07811 15.5727C7.02411 15.3498 6.89682 15.162 6.73096 15.0251C6.56509 14.8921 6.35294 14.8139 6.12536 14.8139H5.57377L5.58149 13.7147H6.14079C6.36837 13.7225 6.57666 13.6482 6.74638 13.5152C6.9161 13.3822 7.04339 13.1983 7.10125 12.9753C7.16297 12.7406 7.24012 12.5137 7.32883 12.2986C7.41755 12.0835 7.52555 11.8722 7.64513 11.6649C7.76085 11.4654 7.80714 11.2463 7.78014 11.0312C7.75313 10.816 7.66056 10.6126 7.50241 10.4483L7.11283 10.0493L7.88042 9.28263L8.27001 9.68163C8.42816 9.84592 8.62874 9.94371 8.84089 9.9711C9.05304 9.99848 9.2729 9.95936 9.46962 9.84592C9.6702 9.72857 9.88235 9.62295 10.0984 9.53298C10.3182 9.44301 10.5381 9.36868 10.7657 9.31392C10.9855 9.25916 11.1707 9.13007 11.3018 8.96186C11.433 8.79365 11.5101 8.57851 11.5101 8.34771V7.78442L12.5902 7.79224V8.35554C12.5824 8.58633 12.6557 8.80148 12.7869 8.9736C12.918 9.14571 13.0993 9.2748 13.3192 9.33348C13.5506 9.39607 13.7743 9.4743 13.9826 9.56427C14.1948 9.65424 14.4031 9.76377 14.6075 9.88504C14.8042 10.0024 15.0203 10.0493 15.2324 10.0219C15.4446 9.99457 15.6451 9.90069 15.8071 9.73639L16.2044 9.3413L16.9605 10.1197L16.567 10.5148C16.405 10.6752 16.3086 10.8786 16.2777 11.0938C16.2507 11.3089 16.2893 11.528 16.4012 11.7275C16.5169 11.9309 16.6172 12.146 16.7059 12.3651C16.7946 12.5842 16.864 12.811 16.9219 13.0418C16.9759 13.2648 17.1032 13.4526 17.269 13.5856C17.4349 13.7186 17.6471 13.7968 17.8746 13.7968H18.4262L18.4185 14.896H17.8592L17.8631 14.8999ZM15.0743 14.3092C15.0743 13.5112 14.7734 12.7132 14.1755 12.1069C14.1639 12.0991 14.1562 12.0874 14.1485 12.0756C13.5506 11.4889 12.7792 11.1916 12.0039 11.1916C11.2285 11.1916 10.4301 11.4967 9.82835 12.103C9.81678 12.1147 9.80906 12.1226 9.79749 12.1304C9.2189 12.7328 8.92961 13.5191 8.92961 14.3053C8.92961 15.0916 9.23047 15.9013 9.82835 16.5077C9.83607 16.5155 9.84764 16.5272 9.85535 16.539C10.4532 17.1257 11.2247 17.4191 12 17.4191C12.7753 17.4191 13.5738 17.114 14.1755 16.5077C14.1871 16.4959 14.1948 16.4881 14.2064 16.4803C14.785 15.8779 15.0743 15.0916 15.0743 14.3053V14.3092ZM4.46673 26.9482H2.16008C1.42334 26.9482 0.871746 27.2181 0.49759 27.7462C0.162006 28.2195 0 28.8884 0 29.7412V31.3919C0 31.6071 0.0655741 31.8066 0.173578 31.9591C0.320155 32.1665 0.536162 32.2916 0.790743 32.2916H1.28833V35.4406C1.28833 35.7457 1.53134 35.9961 1.83607 35.9961H4.87946C5.18033 35.9961 5.42719 35.7457 5.42719 35.4406V32.2916H5.94407C6.19865 32.2916 6.41466 32.1626 6.56123 31.9591C6.66924 31.8066 6.73481 31.6071 6.73481 31.3919V29.7412C6.73481 28.8806 6.54195 28.2078 6.17936 27.7344C5.77821 27.2103 5.19961 26.9443 4.46673 26.9443V26.9482ZM23.4446 27.7383C23.0434 27.2142 22.4648 26.9482 21.7319 26.9482H19.4253C18.6885 26.9482 18.1369 27.2181 17.7628 27.7462C17.4272 28.2195 17.2652 28.8884 17.2652 29.7412V31.3919C17.2652 31.6071 17.3308 31.8066 17.4388 31.9591C17.5853 32.1665 17.8013 32.2916 18.0559 32.2916H18.5535V35.4406C18.5535 35.7457 18.7965 35.9961 19.1013 35.9961H22.1446C22.4455 35.9961 22.6924 35.7457 22.6924 35.4406V32.2916H23.2093C23.4638 32.2916 23.6798 32.1626 23.8264 31.9591C23.9344 31.8066 24 31.6071 24 31.3919V29.7412C24 28.8806 23.8071 28.2078 23.4446 27.7344V27.7383ZM13.7203 25.7316C14.1755 25.27 14.4532 24.6363 14.4532 23.9322C14.4532 23.2281 14.1716 22.5944 13.7203 22.1328C13.2652 21.6712 12.6403 21.3895 11.946 21.3895C11.2517 21.3895 10.6268 21.6751 10.1716 22.1328C9.71649 22.5944 9.43491 23.2281 9.43491 23.9322C9.43491 24.6363 9.71649 25.27 10.1716 25.7316C10.6268 26.1932 11.2517 26.4748 11.946 26.4748C12.6403 26.4748 13.2652 26.1893 13.7203 25.7316ZM13.0993 26.9521H10.7927C10.0559 26.9521 9.50434 27.222 9.13018 27.7501C8.7946 28.2234 8.63259 28.8923 8.63259 29.7451V31.3958C8.63259 31.611 8.69817 31.8105 8.80617 31.9631C8.95275 32.1704 9.16876 32.2956 9.42334 32.2956H9.92093V35.4445C9.92093 35.7496 10.1678 36 10.4687 36H13.5082C13.8091 36 14.0559 35.7496 14.0559 35.4445V32.2956H14.5728C14.8274 32.2956 15.0434 32.1665 15.19 31.9631C15.298 31.8105 15.3635 31.611 15.3635 31.3958V29.7451C15.3635 28.8845 15.1707 28.2117 14.8081 27.7383C14.4069 27.2142 13.8284 26.9482 13.0993 26.9482V26.9521Z" fill="#4353FF"/>
</svg>
