<svg width="31" height="31" viewBox="0 0 31 31" fill="none" xmlns="http://www.w3.org/2000/svg">
<path fill-rule="evenodd" clip-rule="evenodd" d="M19.3475 10.6177C21.341 11.1313 23.0338 12.4144 24.0842 14.1273H6.91553C7.96722 12.4143 9.65857 11.1312 11.6522 10.6177C13.9375 12.2863 17.0637 12.2863 19.3475 10.6177ZM0.945501 25.5461H30.0543C30.5736 25.5461 31 25.9721 31 26.4908V27.25C31 27.7687 30.5749 28.1947 30.0543 28.1947L28.359 28.192V30.0553C28.359 30.5727 27.9326 31 27.4133 31L3.58805 30.9987C3.07004 30.9987 2.64231 30.574 2.64231 30.054V28.1907L0.945735 28.192C0.426421 28.192 0 27.7674 0 27.2474V26.4882C0.001308 25.9708 0.426187 25.5461 0.945501 25.5461ZM4.98468 15.0669H26.0174C26.5119 15.0669 26.8899 15.4968 26.8258 15.9868L25.6996 24.6068H5.3014L4.17514 15.9868C4.11104 15.4968 4.48891 15.0669 4.98468 15.0669ZM12.5232 17.5783L12.3767 17.6972C12.1766 17.8618 12.1478 18.1558 12.3126 18.3557C12.4775 18.5557 12.7718 18.5844 12.9719 18.4198L13.9595 17.6097C14.1597 17.445 14.1884 17.151 14.0236 16.9511L13.2126 15.9646C13.0478 15.7647 12.7535 15.7359 12.5533 15.9006C12.3532 16.0652 12.3244 16.3592 12.4892 16.5591L12.5494 16.6336C10.8659 16.7407 9.5421 18.1375 9.5421 19.8362C9.5421 21.6093 10.981 23.0453 12.7548 23.0453C14.5298 23.0453 15.9674 21.608 15.9674 19.8362C15.9674 19.209 16.2212 18.6419 16.6332 18.2303C17.5201 17.3444 18.9603 17.3444 19.8472 18.2303C21.2011 19.5827 20.3652 21.8994 18.475 22.0941L18.6202 21.9752C18.8203 21.8106 18.8491 21.5166 18.6843 21.3166C18.5195 21.1167 18.2252 21.088 18.025 21.2526L17.0374 22.0627C16.8373 22.2274 16.8085 22.5214 16.9733 22.7213L17.7843 23.7078C17.9492 23.9077 18.2435 23.9365 18.4436 23.7718C18.6438 23.6072 18.6725 23.3132 18.5077 23.1133L18.4489 23.0388C20.1324 22.9316 21.4562 21.5348 21.4562 19.8362C21.4562 18.0631 20.0173 16.6271 18.2435 16.6271C16.4684 16.6271 15.0308 18.0644 15.0308 19.8362C15.0308 21.0893 14.0131 22.1059 12.7587 22.1059C11.5042 22.1059 10.4865 21.0893 10.4865 19.8362C10.4852 18.6668 11.3721 17.6959 12.5232 17.5783ZM15.5004 0C12.4408 0 9.96203 2.44733 9.96203 5.46438C9.96203 8.48271 12.4421 10.9288 15.5004 10.9288C18.56 10.9288 21.0388 8.48143 21.0388 5.46438C21.0388 2.44606 18.56 0 15.5004 0Z" fill="#4353FF"/>
</svg>
