<svg width="29" height="29" viewBox="0 0 29 29" fill="none" xmlns="http://www.w3.org/2000/svg">
<path d="M22.2807 2.2624C19.4971 0.493485 16.1937 -0.273795 12.9154 0.0871181C9.63715 0.448031 6.57979 1.91558 4.24769 4.24769C1.91558 6.57979 0.448031 9.63715 0.0871181 12.9154C-0.273795 16.1937 0.493485 19.4971 2.2624 22.2807C2.83016 23.1763 3.4962 24.0056 4.24812 24.7532C6.96727 27.4724 10.6552 29 14.5007 29C18.3461 29 22.0341 27.4724 24.7532 24.7532C27.4724 22.0341 29 18.3461 29 14.5007C29 10.6552 27.4724 6.96727 24.7532 4.24812C24.0056 3.4962 23.1763 2.83016 22.2807 2.2624ZM20.3195 12.7969L15.4165 17.6999L14.9647 18.1517L13.1716 19.9693C13.0509 20.0799 12.8917 20.1388 12.7281 20.1336C12.5645 20.1284 12.4095 20.0593 12.2961 19.9413L10.524 18.1902L8.68885 16.3551C8.33218 16.0017 8.13052 15.521 8.12822 15.0189C8.12592 14.5168 8.32318 14.0343 8.6766 13.6777C9.03002 13.321 9.51065 13.1193 10.0128 13.117C10.5149 13.1147 10.9973 13.312 11.354 13.6654L12.7549 15.0663L17.6579 10.1633C17.8193 9.94567 18.0256 9.76531 18.2628 9.63439C18.5 9.50346 18.7626 9.42503 19.0327 9.40441C19.3029 9.38379 19.5743 9.42145 19.8286 9.51485C20.083 9.60826 20.3143 9.75521 20.5068 9.94578C20.6994 10.1363 20.8488 10.3661 20.9449 10.6194C21.041 10.8727 21.0815 11.1437 21.0638 11.4141C21.046 11.6844 20.9704 11.9478 20.842 12.1864C20.7136 12.425 20.5354 12.6332 20.3195 12.7969Z" fill="#4353FF"/>
</svg>
