<svg width="38" height="30" viewBox="0 0 38 30" fill="none" xmlns="http://www.w3.org/2000/svg">
<path d="M25.3489 3.96629C25.0888 3.70623 24.6671 3.70623 24.4054 3.96629L21.3147 7.05698C21.0546 7.31704 21.0546 7.73881 21.3147 8.0005L24.4054 11.0912C24.5354 11.2212 24.7054 11.2862 24.8771 11.2862C25.0472 11.2862 25.2189 11.2212 25.3489 11.0912C25.609 10.8311 25.609 10.4094 25.3489 10.1477L22.73 7.52876L25.3489 4.90986C25.609 4.6498 25.6089 4.22798 25.3489 3.96629Z" fill="#4353FF"/>
<path d="M32.7758 3.96629C32.5157 3.70623 32.0939 3.70623 31.8323 3.96629C31.5722 4.22635 31.5722 4.64812 31.8323 4.90981L34.4512 7.52872L31.8323 10.1476C31.5722 10.4077 31.5722 10.8295 31.8323 11.0912C31.9623 11.2212 32.1323 11.2862 32.304 11.2862C32.4741 11.2862 32.6458 11.2212 32.7758 11.0912L35.8665 8.00046C36.1266 7.7404 36.1266 7.31862 35.8665 7.05693L32.7758 3.96629Z" fill="#4353FF"/>
<path d="M27.1829 11.2861C27.4363 11.2861 27.678 11.141 27.7897 10.896L30.607 4.71477C30.7604 4.37969 30.612 3.98462 30.277 3.83124C29.9419 3.67787 29.5468 3.82791 29.3934 4.16132L26.5761 10.3425C26.4228 10.6776 26.5711 11.0727 26.9062 11.2261C26.9962 11.2661 27.0896 11.2861 27.1829 11.2861Z" fill="#4353FF"/>
<path d="M15.8354 30.0001H33.6092L37.1067 18.571H19.3329L15.8354 30.0001Z" fill="#4353FF"/>
<path d="M0.000127999 20.1264V27.3549C0.000127999 28.8136 1.18704 29.9988 2.64404 29.9988H10.1457C10.7358 29.9988 11.3093 29.7521 11.716 29.322C12.0861 28.932 12.2745 28.4352 12.2461 27.9251C12.2195 27.4416 12.0161 26.9865 11.6727 26.6415C11.2992 26.2697 10.8058 26.0647 10.279 26.0647H5.71139C5.05623 26.0647 4.52278 25.5312 4.52278 24.876V20.8601C4.52278 20.4917 4.82118 20.1933 5.18959 20.1933C5.55801 20.1933 5.85641 20.4917 5.85641 20.8601V24.731H10.2806C11.1625 24.731 11.991 25.0744 12.6162 25.6979C13.193 26.2747 13.5347 27.0398 13.5781 27.8517C13.6214 28.6318 13.3613 29.3787 12.8713 29.9988H14.4416L18.2024 17.7093C18.2891 17.4293 18.5475 17.2376 18.8393 17.2376H20.1495C19.0926 15.2438 17.0055 13.9585 14.6968 13.9585H6.16158C2.76418 13.9585 0.000127999 16.7257 0.000127999 20.1264Z" fill="#4353FF"/>
<path d="M10.4305 10.5427C13.3362 10.5427 15.7019 8.17884 15.7019 5.27136C15.7019 2.36387 13.338 0 10.4305 0C7.52489 0 5.15918 2.36387 5.15918 5.27136C5.15918 8.17884 7.52305 10.5427 10.4305 10.5427Z" fill="#4353FF"/>
</svg>
