<svg width="34" height="34" viewBox="0 0 34 34" fill="none" xmlns="http://www.w3.org/2000/svg">
<path fill-rule="evenodd" clip-rule="evenodd" d="M20.1422 14.4656C20.4916 14.7031 21.0716 14.579 21.7096 12.324C22.2285 10.4906 21.9127 9.87624 21.4648 9.72161C22.9211 2.74818 19.5947 2.51451 19.5947 2.51451C19.5947 2.51451 19.093 1.5489 17.7712 0.81926C16.8858 0.294649 15.6529 -0.112745 14.0252 0.028144C13.4983 0.0529618 13.0008 0.154524 12.5335 0.312595L12.5327 0.312976C11.9348 0.515337 11.3873 0.809715 10.8921 1.15411C10.2838 1.53974 9.70958 2.01128 9.2033 2.55002C8.40149 3.36901 7.68712 4.42854 7.37747 5.75114C7.08309 6.87443 7.09188 8.0886 7.53172 9.32262C6.9338 9.26611 6.22783 9.61317 6.89257 11.9629C7.37823 13.6799 7.83068 14.1617 8.17279 14.1888C8.55422 16.6565 9.91004 19.861 14.1902 20.1894C18.4038 20.0252 19.7104 16.8951 20.1422 14.4656ZM22.7057 32.2596C22.8776 32.433 23.0555 32.6002 23.2387 32.7625C20.949 33.4333 17.956 33.9996 14.3753 34L14.3582 33.8018L14.3627 34C5.57264 34 0.324241 30.5888 0.324241 30.5888C-0.0190083 29.7233 0.0119186 27.5901 0.0119186 27.5901L0.025282 27.5931C-0.0831529 26.059 0.0447544 22.9545 2.73348 22.271C6.33779 21.3543 9.26668 19.2925 9.26668 19.2925L11.981 27.8757L12.3529 29.0398L13.5686 25.5951C10.5217 21.3444 14.3757 21.5101 14.3757 21.5101C14.3757 21.5101 18.2297 21.3448 15.1829 25.5955L16.3875 29.0135L16.7628 27.8604L16.7693 27.8791L17.1996 26.5187L19.4844 19.2921C19.4844 19.2921 20.2434 19.8259 21.4625 20.4708C20.8471 20.89 20.4866 21.5941 20.4866 22.4749C20.4866 22.88 20.4863 23.2855 20.4855 23.691L20.4854 23.7705C20.4839 24.8755 20.4823 26.0158 20.4939 27.1434C20.4992 27.6641 20.5645 28.2014 20.6879 28.7401C20.9803 30.0184 21.6592 31.2024 22.7057 32.2596ZM33.9394 24.9292V24.9281V22.4188C33.9394 22.2069 33.8612 22.1336 33.6512 22.1069C33.5412 22.0928 33.4309 22.0799 33.3206 22.0671C32.9841 22.0277 32.6474 21.9884 32.3179 21.916C30.9254 21.6101 29.6857 20.9629 28.5242 20.1539L28.5233 20.1533C28.3853 20.0575 28.3152 20.0088 28.2443 20.0088C28.1744 20.0088 28.1034 20.0561 27.9648 20.1516C26.4276 21.2115 24.7816 21.9854 22.8825 22.1053C22.5939 22.1237 22.5461 22.1874 22.5461 22.4749C22.5461 22.888 22.5455 23.3011 22.5448 23.7143C22.543 24.8502 22.5412 25.9861 22.553 27.122C22.5568 27.5091 22.6088 27.9032 22.695 28.2808C22.9218 29.2731 23.4613 30.0959 24.1692 30.811C25.2895 31.9427 26.6422 32.7067 28.1202 33.2638C28.1538 33.2768 28.1939 33.2825 28.2348 33.2825C28.2936 33.2825 28.3547 33.2707 28.4028 33.2497C28.5018 33.2066 28.6011 33.164 28.7003 33.1213C29.1141 32.9435 29.5282 32.7656 29.9254 32.5559C31.0965 31.9374 32.1434 31.1585 32.9379 30.0795C33.495 29.3235 33.868 28.4854 33.9085 27.5404C33.9173 27.3358 33.9219 27.1308 33.9245 26.9257V26.9143C33.9245 26.9049 33.9246 26.8957 33.9247 26.8864C33.9248 26.8771 33.9249 26.8679 33.9249 26.8585L33.9394 25.0029V24.9292Z" fill="#4353FF"/>
</svg>
