<svg width="27" height="27" viewBox="0 0 27 27" fill="none" xmlns="http://www.w3.org/2000/svg">
<path fill-rule="evenodd" clip-rule="evenodd" d="M5.78595 7.40439C7.27374 6.38472 9.05179 5.59436 11.0267 5.14409C17.5393 3.6592 23.7263 6.43517 24.8456 11.3444C25.9649 16.2536 21.5927 21.4371 15.08 22.9219C11.3784 23.7659 7.78198 23.2334 5.16148 21.7151C4.90036 21.5638 4.64893 21.4028 4.40806 21.2323C2.81312 20.1036 1.68075 18.5626 1.26099 16.7217C0.481018 13.3011 2.36721 9.74736 5.78595 7.40439ZM13.053 0.684082C20.2327 0.684082 26.0531 6.50441 26.0531 13.6841C26.0531 20.8638 20.2327 26.6841 13.0529 26.6841C5.87311 26.6841 0.0527344 20.8638 0.0527344 13.6841C0.0527344 6.50441 5.87315 0.684128 13.053 0.684082Z" fill="white"/>
</svg>
