<svg width="27" height="26" viewBox="0 0 27 26" fill="none" xmlns="http://www.w3.org/2000/svg">
<path fill-rule="evenodd" clip-rule="evenodd" d="M26.0525 14.1211V0.320643C26.0525 0.14429 25.9512 0 25.8274 0H11.5841C11.5368 0 11.4918 0.0192385 11.4536 0.0577156L6.78525 4.78399C6.6075 4.96355 6.69751 5.36436 6.91574 5.36436H18.4144L25.5147 0.612429L20.3943 6.45133V19.5944C20.3943 19.8574 20.6035 20.0081 20.7521 19.8509L25.9602 14.3776C26.0187 14.3167 26.0525 14.2237 26.0525 14.1211ZM14.6471 25.94L19.32 21.2081C19.4976 21.0279 19.4077 20.6331 19.1896 20.6331H5.93321C5.80955 20.6331 5.70835 20.4941 5.70835 20.3172V6.40266C5.70835 6.14047 5.49696 5.992 5.34855 6.14996L0.142685 11.621C0.0864656 11.681 0.0527344 11.7758 0.0527344 11.8737V23.4728C0.0527344 24.8691 0.857787 26 1.85174 26H14.5145C14.5617 26 14.6089 25.9779 14.6471 25.94Z" fill="white"/>
</svg>
