<svg width="35" height="30" viewBox="0 0 35 30" fill="none" xmlns="http://www.w3.org/2000/svg">
<path d="M1.25 14.375H33.7501C34.4408 14.375 35.0001 15.0656 35.0001 15.625V16.875C35.0001 17.5657 34.4408 18.125 33.7501 18.125H1.25C0.559362 18.125 0 17.4344 0 16.875V15.625C0 14.9344 0.559362 14.375 1.25 14.375Z" fill="#4353FF"/>
<path d="M1.25 29.375C1.25 29.7188 1.53125 30 1.875 30H33.1251C33.4689 30 33.7501 29.7188 33.7501 29.375V19.375H1.25V29.375Z" fill="#4353FF"/>
<path d="M14.6874 12.6561C14.6874 10.2999 13.2686 8.27491 11.2498 7.37491C12.2874 6.63739 12.9686 5.43114 12.9686 4.06242C12.9686 1.82489 11.1436 0 8.90618 0C6.66877 0 4.84377 1.82501 4.84377 4.06242C4.84377 5.43118 5.52501 6.63743 6.56253 7.37491C4.54377 8.27491 3.125 10.2999 3.125 12.6561V13.1249H14.6874L14.6874 12.6561Z" fill="#4353FF"/>
<path d="M31.8751 8.12451H26.2503V8.74951C26.2503 9.78076 25.4066 10.6245 24.3753 10.6245C23.3441 10.6245 22.5003 9.78076 22.5003 8.74951V8.12451H16.8755V13.1245H31.8755L31.8751 8.12451Z" fill="#4353FF"/>
<path d="M31.8755 6.24978C31.8755 5.21853 31.0318 4.37477 30.0005 4.37477H28.1255V3.12476C28.1255 2.09352 27.2818 1.24976 26.2505 1.24976H22.5005C21.4693 1.24976 20.6255 2.09352 20.6255 3.12476V4.37477H18.7505C17.7193 4.37477 16.8755 5.21853 16.8755 6.24978V6.87478H31.8755V6.24978ZM26.8755 4.37477H21.8755V3.12476C21.8755 2.78101 22.1568 2.49976 22.5005 2.49976H26.2505C26.5943 2.49976 26.8755 2.78101 26.8755 3.12476V4.37477Z" fill="#4353FF"/>
<path d="M24.3755 9.37501C24.7192 9.37501 25.0005 9.09376 25.0005 8.75V8.125H23.7505V8.75C23.7505 9.09376 24.0317 9.37501 24.3755 9.37501Z" fill="#4353FF"/>
</svg>
