<svg width="177" height="177" viewBox="0 0 177 177" fill="none" xmlns="http://www.w3.org/2000/svg">
<circle cx="88.5" cy="88.5" r="88.5" fill="#4353FF"/>
<path d="M127.621 71.6621C127.987 71.6621 128.337 71.5167 128.596 71.2581C128.855 70.9994 129 70.6486 129 70.2828C129 69.9169 128.855 69.5661 128.596 69.3074C128.337 69.0488 127.987 68.9034 127.621 68.9034H119.469V64.2828C119.469 64.2828 119.469 64.2138 119.469 64.1724H127.621C127.987 64.1724 128.337 64.0271 128.596 63.7684C128.855 63.5098 129 63.1589 129 62.7931C129 62.4273 128.855 62.0765 128.596 61.8178C128.337 61.5591 127.987 61.4138 127.621 61.4138H118.655C118.159 60.5476 117.446 59.8252 116.586 59.3172V50.3793C116.586 50.0135 116.441 49.6627 116.182 49.404C115.924 49.1453 115.573 49 115.207 49C114.841 49 114.49 49.1453 114.232 49.404C113.973 49.6627 113.828 50.0135 113.828 50.3793V58.5448H109.083V50.3793C109.083 50.0135 108.937 49.6627 108.679 49.404C108.42 49.1453 108.069 49 107.703 49C107.338 49 106.987 49.1453 106.728 49.404C106.469 49.6627 106.324 50.0135 106.324 50.3793V58.531H101.593V50.3793C101.593 50.0135 101.448 49.6627 101.189 49.404C100.93 49.1453 100.58 49 100.214 49C99.848 49 99.4971 49.1453 99.2385 49.404C98.9798 49.6627 98.8345 50.0135 98.8345 50.3793V58.531H94.1035V50.3793C94.1035 50.0135 93.9581 49.6627 93.6995 49.404C93.4408 49.1453 93.09 49 92.7241 49C92.3583 49 92.0075 49.1453 91.7488 49.404C91.4901 49.6627 91.3448 50.0135 91.3448 50.3793V58.531H86.6276V50.3793C86.6276 50.0135 86.4823 49.6627 86.2236 49.404C85.9649 49.1453 85.6141 49 85.2483 49C84.8825 49 84.5316 49.1453 84.273 49.404C84.0143 49.6627 83.869 50.0135 83.869 50.3793V58.531H79.1379V50.3793C79.1379 50.0135 78.9926 49.6627 78.7339 49.404C78.4753 49.1453 78.1244 49 77.7586 49C77.3928 49 77.042 49.1453 76.7833 49.404C76.5246 49.6627 76.3793 50.0135 76.3793 50.3793V58.531H71.6483V50.3793C71.6483 50.0135 71.503 49.6627 71.2443 49.404C70.9856 49.1453 70.6348 49 70.269 49C69.9032 49 69.5523 49.1453 69.2936 49.404C69.035 49.6627 68.8897 50.0135 68.8897 50.3793V58.531H64.1724V50.3793C64.1724 50.0135 64.0271 49.6627 63.7684 49.404C63.5098 49.1453 63.1589 49 62.7931 49C62.4273 49 62.0765 49.1453 61.8178 49.404C61.5591 49.6627 61.4138 50.0135 61.4138 50.3793V59.3448C60.5565 59.8436 59.8436 60.5565 59.3448 61.4138H50.3793C50.0135 61.4138 49.6627 61.5591 49.404 61.8178C49.1453 62.0765 49 62.4273 49 62.7931C49 63.1589 49.1453 63.5098 49.404 63.7684C49.6627 64.0271 50.0135 64.1724 50.3793 64.1724H58.5448V68.9034H50.3793C50.0135 68.9034 49.6627 69.0488 49.404 69.3074C49.1453 69.5661 49 69.9169 49 70.2828C49 70.6486 49.1453 70.9994 49.404 71.2581C49.6627 71.5167 50.0135 71.6621 50.3793 71.6621H58.5448V76.3931H50.3793C50.0135 76.3931 49.6627 76.5384 49.404 76.7971C49.1453 77.0558 49 77.4066 49 77.7724C49 78.1382 49.1453 78.4891 49.404 78.7477C49.6627 79.0064 50.0135 79.1517 50.3793 79.1517H58.5448V83.8828H50.3793C50.0135 83.8828 49.6627 84.0281 49.404 84.2868C49.1453 84.5454 49 84.8963 49 85.2621C49 85.6279 49.1453 85.9787 49.404 86.2374C49.6627 86.4961 50.0135 86.6414 50.3793 86.6414H58.5448V91.3586H50.3793C50.0135 91.3586 49.6627 91.5039 49.404 91.7626C49.1453 92.0213 49 92.3721 49 92.7379C49 93.1037 49.1453 93.4546 49.404 93.7133C49.6627 93.9719 50.0135 94.1172 50.3793 94.1172H58.5448V98.8483H50.3793C50.0135 98.8483 49.6627 98.9936 49.404 99.2523C49.1453 99.5109 49 99.8618 49 100.228C49 100.593 49.1453 100.944 49.404 101.203C49.6627 101.462 50.0135 101.607 50.3793 101.607H58.5448V106.338H50.3793C50.0135 106.338 49.6627 106.483 49.404 106.742C49.1453 107.001 49 107.351 49 107.717C49 108.083 49.1453 108.434 49.404 108.693C49.6627 108.951 50.0135 109.097 50.3793 109.097H58.5448V113.828H50.3793C50.0135 113.828 49.6627 113.973 49.404 114.232C49.1453 114.49 49 114.841 49 115.207C49 115.573 49.1453 115.924 49.404 116.182C49.6627 116.441 50.0135 116.586 50.3793 116.586H59.3724C59.8635 117.44 60.5667 118.153 61.4138 118.655V127.621C61.4138 127.987 61.5591 128.337 61.8178 128.596C62.0765 128.855 62.4273 129 62.7931 129C63.1589 129 63.5098 128.855 63.7684 128.596C64.0271 128.337 64.1724 127.987 64.1724 127.621V119.455H68.9034V127.621C68.9034 127.987 69.0488 128.337 69.3074 128.596C69.5661 128.855 69.9169 129 70.2828 129C70.6486 129 70.9994 128.855 71.2581 128.596C71.5167 128.337 71.6621 127.987 71.6621 127.621V119.469H76.3931V127.621C76.3931 127.987 76.5384 128.337 76.7971 128.596C77.0558 128.855 77.4066 129 77.7724 129C78.1382 129 78.4891 128.855 78.7477 128.596C79.0064 128.337 79.1517 127.987 79.1517 127.621V119.469H83.8828V127.621C83.8828 127.987 84.0281 128.337 84.2868 128.596C84.5454 128.855 84.8963 129 85.2621 129C85.6279 129 85.9787 128.855 86.2374 128.596C86.4961 128.337 86.6414 127.987 86.6414 127.621V119.469H91.3448V127.621C91.3448 127.987 91.4901 128.337 91.7488 128.596C92.0075 128.855 92.3583 129 92.7241 129C93.09 129 93.4408 128.855 93.6995 128.596C93.9581 128.337 94.1035 127.987 94.1035 127.621V119.469H98.8345V127.621C98.8345 127.987 98.9798 128.337 99.2385 128.596C99.4971 128.855 99.848 129 100.214 129C100.58 129 100.93 128.855 101.189 128.596C101.448 128.337 101.593 127.987 101.593 127.621V119.469H106.324V127.621C106.324 127.987 106.469 128.337 106.728 128.596C106.987 128.855 107.338 129 107.703 129C108.069 129 108.42 128.855 108.679 128.596C108.937 128.337 109.083 127.987 109.083 127.621V119.469H113.828V127.621C113.828 127.987 113.973 128.337 114.232 128.596C114.49 128.855 114.841 129 115.207 129C115.573 129 115.924 128.855 116.182 128.596C116.441 128.337 116.586 127.987 116.586 127.621V118.655C117.447 118.157 118.165 117.444 118.669 116.586H127.621C127.987 116.586 128.337 116.441 128.596 116.182C128.855 115.924 129 115.573 129 115.207C129 114.841 128.855 114.49 128.596 114.232C128.337 113.973 127.987 113.828 127.621 113.828H119.455C119.455 113.828 119.455 113.828 119.455 113.717V109.097H127.621C127.987 109.097 128.337 108.951 128.596 108.693C128.855 108.434 129 108.083 129 107.717C129 107.351 128.855 107.001 128.596 106.742C128.337 106.483 127.987 106.338 127.621 106.338H119.469V101.607H127.621C127.987 101.607 128.337 101.462 128.596 101.203C128.855 100.944 129 100.593 129 100.228C129 99.8618 128.855 99.5109 128.596 99.2523C128.337 98.9936 127.987 98.8483 127.621 98.8483H119.469V94.1172H127.621C127.987 94.1172 128.337 93.9719 128.596 93.7133C128.855 93.4546 129 93.1037 129 92.7379C129 92.3721 128.855 92.0213 128.596 91.7626C128.337 91.5039 127.987 91.3586 127.621 91.3586H119.469V86.6414H127.621C127.987 86.6414 128.337 86.4961 128.596 86.2374C128.855 85.9787 129 85.6279 129 85.2621C129 84.8963 128.855 84.5454 128.596 84.2868C128.337 84.0281 127.987 83.8828 127.621 83.8828H119.469V79.1517H127.621C127.987 79.1517 128.337 79.0064 128.596 78.7477C128.855 78.4891 129 78.1382 129 77.7724C129 77.4066 128.855 77.0558 128.596 76.7971C128.337 76.5384 127.987 76.3931 127.621 76.3931H119.469V71.6621H127.621ZM109.607 109.579H68.4069V68.3931H109.593L109.607 109.579Z" fill="white"/>
<path d="M75.4553 84.0484C79.0607 80.4728 83.9366 78.4722 89.0144 78.4852C94.0922 78.4981 98.9578 80.5234 102.545 84.1173C102.798 84.3689 103.14 84.5122 103.497 84.5174C103.679 84.5166 103.86 84.4796 104.028 84.4086C104.196 84.3376 104.348 84.2339 104.476 84.1036C104.607 83.9751 104.712 83.8217 104.783 83.6523C104.854 83.483 104.891 83.3011 104.891 83.1174C104.891 82.9336 104.854 82.7517 104.783 82.5824C104.712 82.413 104.607 82.2596 104.476 82.1311C100.364 78.041 94.8 75.745 89.0001 75.745C83.2003 75.745 77.6363 78.041 73.5243 82.1311C73.2674 82.3896 73.1232 82.7392 73.1232 83.1036C73.1232 83.468 73.2674 83.8175 73.5243 84.076C73.7857 84.325 74.1344 84.4617 74.4954 84.4565C74.8565 84.4514 75.2011 84.3048 75.4553 84.0484Z" fill="white"/>
<path d="M77.5799 86.2416C77.323 86.5 77.1788 86.8496 77.1788 87.214C77.1788 87.5784 77.323 87.928 77.5799 88.1864C77.7082 88.3157 77.8607 88.4183 78.0288 88.4883C78.1969 88.5583 78.3772 88.5944 78.5592 88.5944C78.7413 88.5944 78.9216 88.5583 79.0897 88.4883C79.2578 88.4183 79.4103 88.3157 79.5385 88.1864C82.0508 85.6873 85.4502 84.2845 88.9937 84.2845C92.5372 84.2845 95.9367 85.6873 98.4489 88.1864L98.573 88.2829C98.8156 88.4905 99.1228 88.6075 99.442 88.614C99.6345 88.6135 99.8247 88.5728 100.001 88.4944C100.176 88.416 100.334 88.3017 100.463 88.1588C100.715 87.901 100.857 87.5543 100.857 87.1933C100.857 86.8322 100.715 86.4856 100.463 86.2278C97.4248 83.1982 93.3088 81.4981 89.0185 81.5007C84.7281 81.5033 80.6142 83.2084 77.5799 86.2416Z" fill="white"/>
<path d="M81.6479 90.2412C81.391 90.4996 81.2468 90.8492 81.2468 91.2136C81.2468 91.578 81.391 91.9276 81.6479 92.186C81.7761 92.3153 81.9287 92.4179 82.0968 92.488C82.2649 92.558 82.4451 92.594 82.6272 92.594C82.8093 92.594 82.9896 92.558 83.1577 92.488C83.3258 92.4179 83.4783 92.3153 83.6065 92.186C85.0434 90.7575 86.9873 89.9557 89.0134 89.9557C91.0396 89.9557 92.9834 90.7575 94.4203 92.186C94.6738 92.4375 95.015 92.5809 95.3721 92.586C95.5545 92.5853 95.7351 92.5483 95.9032 92.4773C96.0713 92.4063 96.2236 92.3026 96.3514 92.1722C96.4827 92.0438 96.5871 91.8904 96.6584 91.721C96.7297 91.5517 96.7664 91.3698 96.7664 91.186C96.7664 91.0023 96.7297 90.8204 96.6584 90.6511C96.5871 90.4817 96.4827 90.3283 96.3514 90.1998C94.3939 88.2596 91.7472 87.1745 88.9911 87.1823C86.235 87.19 83.5944 88.29 81.6479 90.2412Z" fill="white"/>
<path d="M85.6901 94.3379C85.0389 94.9875 84.595 95.8157 84.4147 96.7177C84.2345 97.6197 84.3258 98.5549 84.6773 99.405C85.0288 100.255 85.6246 100.982 86.3892 101.493C87.1539 102.004 88.053 102.277 88.9729 102.277C89.8927 102.277 90.7918 102.004 91.5565 101.493C92.3212 100.982 92.9169 100.255 93.2684 99.405C93.6199 98.5549 93.7113 97.6197 93.531 96.7177C93.3507 95.8157 92.9068 94.9875 92.2556 94.3379C91.3807 93.4753 90.2015 92.9918 88.9729 92.9918C87.7443 92.9918 86.565 93.4753 85.6901 94.3379Z" fill="white"/>
</svg>
