<svg width="267" height="267" viewBox="0 0 267 267" fill="none" xmlns="http://www.w3.org/2000/svg">
<rect width="267" height="267" rx="51" fill="url(#paint0_linear_1065_156)"/>
<rect x="7" y="7" width="253" height="253" rx="43" fill="#D9D9D9"/>
<rect x="7" y="7" width="253" height="253" rx="43" fill="url(#paint1_linear_1065_156)"/>
<rect x="11" y="11" width="245" height="245" rx="43" fill="#D9D9D9"/>
<rect x="11" y="11" width="245" height="245" rx="43" fill="url(#paint2_linear_1065_156)"/>
<g style="mix-blend-mode:soft-light">
<path d="M154.206 78C154.467 78 154.727 78 155.003 78C155.642 85.8985 152.627 91.8002 148.963 96.074C145.368 100.318 140.445 104.435 132.483 103.81C131.951 96.0248 134.971 90.5608 138.63 86.2968C142.024 82.323 148.245 78.7869 154.206 78Z" fill="white"/>
<path d="M178.31 160.211C178.31 160.29 178.31 160.359 178.31 160.432C176.072 167.209 172.88 173.018 168.985 178.408C165.429 183.302 161.072 189.887 153.291 189.887C146.568 189.887 142.102 185.564 135.212 185.446C127.924 185.328 123.915 189.061 117.251 190C116.489 190 115.727 190 114.979 190C110.086 189.292 106.136 185.416 103.259 181.924C94.7755 171.606 88.2197 158.278 87 141.222C87 139.55 87 137.883 87 136.211C87.5164 124.004 93.4476 114.079 101.331 109.269C105.492 106.712 111.212 104.533 117.581 105.507C120.31 105.93 123.099 106.864 125.543 107.789C127.86 108.679 130.756 110.258 133.501 110.174C135.36 110.12 137.209 109.151 139.083 108.468C144.571 106.486 149.952 104.213 157.044 105.281C165.567 106.569 171.616 110.356 175.354 116.199C168.144 120.787 162.444 127.702 163.417 139.511C164.283 150.237 170.519 156.513 178.31 160.211Z" fill="white"/>
</g>
<defs>
<linearGradient id="paint0_linear_1065_156" x1="133.5" y1="0" x2="133.5" y2="267" gradientUnits="userSpaceOnUse">
<stop stop-color="#6D7AFF"/>
<stop offset="0.435" stop-color="#2631AB"/>
<stop offset="1" stop-color="#4353FF"/>
</linearGradient>
<linearGradient id="paint1_linear_1065_156" x1="236.5" y1="249.5" x2="21" y2="32.5" gradientUnits="userSpaceOnUse">
<stop stop-color="#6D7AFF"/>
<stop offset="0.435" stop-color="#2631AB"/>
<stop offset="1" stop-color="#4353FF"/>
</linearGradient>
<linearGradient id="paint2_linear_1065_156" x1="133.5" y1="11" x2="87" y2="268" gradientUnits="userSpaceOnUse">
<stop stop-color="#4353FF"/>
<stop offset="1" stop-color="#6D7AFF"/>
</linearGradient>
</defs>
</svg>
