<svg width="177" height="177" viewBox="0 0 177 177" fill="none" xmlns="http://www.w3.org/2000/svg">
<circle cx="88.5" cy="88.5" r="88.5" fill="#4353FF"/>
<path d="M96.9513 121.728V118.229C96.9513 118.202 96.9614 118.185 96.9682 118.161H81.0221C81.0322 118.188 81.039 118.205 81.039 118.229V121.728H96.9513Z" fill="white"/>
<path d="M122.388 50.9868H55.6011C53.0537 50.9868 50.9888 53.0517 50.9888 55.5992V111.778C50.9888 114.325 53.0537 116.39 55.6011 116.39H122.388C124.935 116.39 127 114.325 127 111.778V55.5992C127 53.0517 124.935 50.9868 122.388 50.9868ZM123.468 110.128C123.468 111.64 122.249 112.858 120.738 112.858H57.2508C55.7392 112.858 54.5211 111.64 54.5211 110.128V57.2492C54.5211 55.7376 55.7392 54.5195 57.2508 54.5195H120.728C122.239 54.5195 123.457 55.7376 123.457 57.2492V110.128H123.468Z" fill="white"/>
<path d="M120.738 56.2915H57.251C56.7246 56.2915 56.2826 56.7234 56.2826 57.2599V110.132C56.2826 110.659 56.7145 111.101 57.251 111.101H120.728C121.254 111.101 121.696 110.669 121.696 110.132V57.2496C121.696 56.7232 121.264 56.2915 120.738 56.2915ZM111.088 106.08C111.088 107.376 110.025 108.439 108.73 108.439H69.2656C67.9598 108.439 66.9003 107.376 66.9003 106.08V61.3092C66.9003 60.0034 67.9632 58.9439 69.2656 58.9439H108.732C110.028 58.9439 111.091 60.0068 111.091 61.3092L111.088 106.08Z" fill="white"/>
<path d="M68.6685 106.079C68.6685 106.407 68.9351 106.677 69.2725 106.677H108.739C109.066 106.677 109.336 106.41 109.336 106.079V67.7797H68.6682L68.6685 106.079ZM76.52 74.7072C79.7929 71.4342 84.1286 69.6021 88.751 69.5346C88.8387 69.5346 88.9332 69.5245 89.0277 69.5245C93.7447 69.5245 98.175 71.3634 101.519 74.7071C108.402 81.6005 108.402 92.8195 101.519 99.7124C98.5461 102.685 94.6254 104.507 90.4546 104.828C90.3939 104.838 90.3332 104.838 90.2724 104.838C89.6752 104.838 89.105 104.605 88.6663 104.2C88.1737 103.751 87.8903 103.103 87.8903 102.429C87.8903 101.167 88.8486 100.141 90.1003 100.043C93.1336 99.7934 95.9814 98.4708 98.1341 96.3114C100.57 93.8854 101.91 90.6463 101.91 87.2081C101.91 83.7631 100.57 80.524 98.1341 78.0875C95.6306 75.5907 92.3205 74.2445 88.7881 74.322C85.4275 74.3828 82.2829 75.7223 79.9172 78.0875C75.271 82.7438 74.8898 90.0758 78.8813 95.147L79.3638 94.6645C79.7181 94.3204 80.2175 94.1888 80.7034 94.3204C81.169 94.4587 81.5334 94.84 81.6447 95.3225L82.3668 98.4942C82.3769 98.5212 82.3836 98.5448 82.3938 98.5718L83.2305 102.216C83.298 102.509 83.2137 102.83 82.9876 103.036C82.7717 103.252 82.468 103.346 82.1677 103.279L75.2744 101.69C74.7986 101.578 74.4207 101.214 74.2722 100.748C74.144 100.272 74.2722 99.763 74.6164 99.4087L75.4633 98.5719C69.5856 91.574 69.9809 81.2632 76.52 74.7072Z" fill="white"/>
<path d="M108.733 60.7145H69.2669C68.9295 60.7145 68.663 60.981 68.663 61.3184V66.0186H109.321V61.3184C109.321 60.9709 109.061 60.7145 108.733 60.7145ZM72.202 64.2471H71.3214C70.8389 64.2471 70.4408 63.849 70.4408 63.3665C70.4408 62.884 70.8389 62.4859 71.3214 62.4859H72.202C72.6845 62.4859 73.0826 62.884 73.0826 63.3665C73.0826 63.849 72.6879 64.2471 72.202 64.2471ZM76.6187 64.2471H75.7381C75.2556 64.2471 74.8575 63.849 74.8575 63.3665C74.8575 62.884 75.2557 62.4859 75.7381 62.4859H76.6187C77.1012 62.4859 77.4994 62.884 77.4994 63.3665C77.5061 63.849 77.108 64.2471 76.6187 64.2471ZM81.0388 64.2471H80.1582C79.6757 64.2471 79.2776 63.849 79.2776 63.3665C79.2776 62.884 79.6757 62.4859 80.1582 62.4859H81.0388C81.5213 62.4859 81.9194 62.884 81.9194 63.3665C81.9194 63.849 81.5247 64.2471 81.0388 64.2471Z" fill="white"/>
<path d="M100.949 123.5H77.0395C75.8384 123.5 74.8531 124.485 74.8531 125.693V126.402C74.8531 126.729 75.1298 127.006 75.4571 127.006H102.538C102.865 127.006 103.142 126.729 103.142 126.402V125.693C103.135 124.475 102.157 123.5 100.949 123.5Z" fill="white"/>
<path d="M77.4215 99.0981C77.3945 99.142 77.3541 99.1858 77.3102 99.2263L76.4195 100.124L81.204 101.231L80.7046 99.0373C80.6945 99.0103 80.6877 98.9867 80.6776 98.9597L80.0973 96.446L79.4596 97.0837C79.1154 97.4278 78.5519 97.4278 78.2078 97.0837C78.1808 97.0499 78.1471 97.0162 78.1201 96.9791C72.9206 91.1993 73.1534 82.3727 78.6633 76.8455C81.3592 74.1495 84.9526 72.6312 88.7616 72.5604H89.0721C92.9691 72.5604 96.6199 74.072 99.3933 76.8455C102.157 79.6088 103.678 83.2968 103.678 87.2107C103.678 91.1246 102.157 94.8025 99.3933 97.5656C96.9504 100.008 93.7012 101.52 90.2459 101.797C89.9186 101.824 89.6588 102.1 89.6588 102.428C89.6588 102.6 89.7364 102.782 89.8748 102.903C89.9423 102.964 90.1177 103.086 90.3235 103.059C94.0721 102.755 97.615 101.125 100.284 98.4563C106.479 92.2547 106.479 82.1492 100.284 75.9543C97.2099 72.8804 93.1137 71.2305 88.7947 71.298C84.631 71.3486 80.7272 73.0155 77.7816 75.9543C71.7082 82.0276 71.5293 91.7008 77.3396 97.9908C77.6095 98.2944 77.6432 98.7533 77.4205 99.0974L77.4215 99.0981Z" fill="white"/>
</svg>
