<svg width="267" height="267" viewBox="0 0 267 267" fill="none" xmlns="http://www.w3.org/2000/svg">
<rect width="267" height="267" rx="51" fill="url(#paint0_linear_1065_10)"/>
<rect x="7" y="7" width="253" height="253" rx="43" fill="#D9D9D9"/>
<rect x="7" y="7" width="253" height="253" rx="43" fill="url(#paint1_linear_1065_10)"/>
<rect x="11" y="11" width="245" height="245" rx="43" fill="#D9D9D9"/>
<rect x="11" y="11" width="245" height="245" rx="43" fill="url(#paint2_linear_1065_10)"/>
<g style="mix-blend-mode:soft-light">
<path fill-rule="evenodd" clip-rule="evenodd" d="M119.72 138.719C119.72 138.719 115.635 141.096 122.63 141.899C131.107 142.867 135.437 142.728 144.776 140.961C144.776 140.961 147.235 142.5 150.667 143.832C129.726 152.806 103.274 143.313 119.72 138.719ZM117.16 127.009C117.16 127.009 112.577 130.401 119.579 131.125C128.634 132.06 135.782 132.137 148.159 129.755C148.159 129.755 149.868 131.49 152.558 132.438C127.242 139.842 99.0473 133.021 117.16 127.009Z" fill="white"/>
<path fill-rule="evenodd" clip-rule="evenodd" d="M138.73 107.143C143.892 113.085 137.377 118.429 137.377 118.429C137.377 118.429 150.479 111.667 144.461 103.196C138.843 95.3001 134.533 91.3773 157.861 77.8495C157.861 77.8495 121.242 86.9914 138.73 107.143Z" fill="white"/>
<path fill-rule="evenodd" clip-rule="evenodd" d="M166.425 147.381C166.425 147.381 169.449 149.874 163.094 151.802C151.01 155.462 112.79 156.566 102.173 151.948C98.3595 150.286 105.515 147.984 107.766 147.498C110.114 146.99 111.453 147.082 111.453 147.082C107.209 144.094 84.0216 152.952 99.6771 155.493C142.367 162.415 177.497 152.377 166.425 147.381ZM121.685 114.875C121.685 114.875 102.246 119.494 114.802 121.172C120.105 121.881 130.67 121.718 140.518 120.892C148.564 120.217 156.64 118.772 156.64 118.772C156.64 118.772 153.805 119.989 151.751 121.389C132.008 126.582 93.8733 124.163 104.853 118.855C114.136 114.364 121.685 114.875 121.685 114.875ZM156.559 134.366C176.628 123.941 167.349 113.92 160.871 115.27C159.287 115.601 158.576 115.887 158.576 115.887C158.576 115.887 159.167 114.962 160.291 114.565C173.104 110.062 182.957 127.849 156.159 134.894C156.158 134.894 156.467 134.615 156.559 134.366Z" fill="white"/>
<path fill-rule="evenodd" clip-rule="evenodd" d="M144.461 56C144.461 56 155.573 67.1188 133.919 84.2109C116.554 97.9268 129.96 105.745 133.914 114.681C123.775 105.535 116.339 97.4832 121.327 89.9908C128.651 78.9927 148.944 73.6591 144.461 56Z" fill="white"/>
<path fill-rule="evenodd" clip-rule="evenodd" d="M123.659 162.627C142.919 163.858 172.501 161.943 173.203 152.828C173.203 152.828 171.856 156.283 157.283 159.024C140.843 162.118 120.562 161.758 108.537 159.773C108.537 159.773 111.001 161.812 123.659 162.627Z" fill="white"/>
<path fill-rule="evenodd" clip-rule="evenodd" d="M172.312 178.973H171.727V178.644H173.307V178.973H172.721V180.612H172.312V178.973ZM175.466 179.054H175.459L174.877 180.611H174.609L174.031 179.054H174.024V180.611H173.635V178.643H174.206L174.742 180.036L175.278 178.643H175.843V180.611H175.467L175.466 179.054ZM120.503 197.451C118.686 199.025 116.766 199.91 115.042 199.91C112.586 199.91 111.253 198.435 111.253 196.074C111.253 193.517 112.68 191.647 118.391 191.647H120.502L120.503 197.451ZM125.516 203.106V185.598C125.516 181.123 122.964 178.17 116.812 178.17C113.223 178.17 110.077 179.057 107.519 180.186L108.255 183.288C110.27 182.548 112.875 181.862 115.433 181.862C118.977 181.862 120.502 183.288 120.502 186.24V188.453H118.731C110.122 188.453 106.238 191.793 106.238 196.814C106.238 201.141 108.797 203.601 113.616 203.601C116.714 203.601 119.028 202.322 121.189 200.451L121.582 203.106H125.516ZM142.248 203.106H135.997L128.47 178.616H133.93L138.602 193.665L139.642 198.187C141.998 191.647 143.671 185.007 144.508 178.616H149.817C148.396 186.68 145.835 195.533 142.248 203.106ZM166.238 197.451C164.416 199.025 162.496 199.91 160.776 199.91C158.32 199.91 156.989 198.435 156.989 196.074C156.989 193.517 158.416 191.647 164.123 191.647H166.238V197.451ZM171.253 203.106V185.598C171.253 181.123 168.693 178.17 162.548 178.17C158.955 178.17 155.809 179.057 153.251 180.186L153.988 183.288C156.003 182.548 158.613 181.862 161.171 181.862C164.71 181.862 166.237 183.288 166.237 186.24V188.453H164.466C155.856 188.453 151.974 191.793 151.974 196.814C151.974 201.141 154.529 203.601 159.349 203.601C162.449 203.601 164.76 202.322 166.925 200.451L167.32 203.106H171.253ZM100.741 207.268C99.3121 209.356 97.0016 211.009 94.4755 211.941L91.9999 209.026C93.9244 208.038 95.573 206.444 96.3406 204.96C97.0016 203.638 97.2776 201.938 97.2776 197.869V169.905H102.606V197.483C102.606 202.925 102.171 205.125 100.741 207.268Z" fill="white"/>
</g>
<defs>
<linearGradient id="paint0_linear_1065_10" x1="133.5" y1="0" x2="133.5" y2="267" gradientUnits="userSpaceOnUse">
<stop stop-color="#6D7AFF"/>
<stop offset="0.435" stop-color="#2631AB"/>
<stop offset="1" stop-color="#4353FF"/>
</linearGradient>
<linearGradient id="paint1_linear_1065_10" x1="236.5" y1="249.5" x2="21" y2="32.5" gradientUnits="userSpaceOnUse">
<stop stop-color="#6D7AFF"/>
<stop offset="0.435" stop-color="#2631AB"/>
<stop offset="1" stop-color="#4353FF"/>
</linearGradient>
<linearGradient id="paint2_linear_1065_10" x1="133.5" y1="11" x2="87" y2="268" gradientUnits="userSpaceOnUse">
<stop stop-color="#4353FF"/>
<stop offset="1" stop-color="#6D7AFF"/>
</linearGradient>
</defs>
</svg>
