<svg width="177" height="177" viewBox="0 0 177 177" fill="none" xmlns="http://www.w3.org/2000/svg">
<circle cx="88.5" cy="88.5" r="88.5" fill="#4353FF"/>
<path d="M112 55H66C60.4772 55 56 59.4772 56 65V111C56 116.523 60.4772 121 66 121H112C117.523 121 122 116.523 122 111V65C122 59.4772 117.523 55 112 55Z" fill="white"/>
<path d="M100.338 106.719C101.676 108.887 103.416 110.481 106.494 110.481C109.079 110.481 110.731 109.198 110.731 107.425C110.731 105.301 109.034 104.548 106.188 103.313L104.628 102.648C100.125 100.744 97.1341 98.3578 97.1341 93.314C97.1341 88.6678 100.7 85.1309 106.272 85.1309C110.239 85.1309 113.092 86.5017 115.147 90.091L110.288 93.1884C109.218 91.2839 108.064 90.5336 106.272 90.5336C104.445 90.5336 103.286 91.6847 103.286 93.1884C103.286 95.0469 104.446 95.7993 107.123 96.9503L108.683 97.6138C113.984 99.8709 116.978 102.172 116.978 107.346C116.978 112.923 112.565 115.979 106.638 115.979C100.843 115.979 97.0993 113.237 95.2674 109.644L100.338 106.719ZM78.296 107.256C79.2762 108.982 80.1679 110.442 82.3117 110.442C84.3618 110.442 85.655 109.646 85.655 106.549V85.4846H91.8947V106.633C91.8947 113.048 88.1066 115.967 82.5773 115.967C77.5814 115.967 74.6882 113.4 73.2168 110.309L78.296 107.256Z" fill="#4353FF"/>
</svg>
