<svg width="267" height="267" viewBox="0 0 267 267" fill="none" xmlns="http://www.w3.org/2000/svg">
<rect width="267" height="267" rx="51" fill="url(#paint0_linear_1065_141)"/>
<rect x="7" y="7" width="253" height="253" rx="43" fill="#D9D9D9"/>
<rect x="7" y="7" width="253" height="253" rx="43" fill="url(#paint1_linear_1065_141)"/>
<rect x="11" y="11" width="245" height="245" rx="43" fill="#D9D9D9"/>
<rect x="11" y="11" width="245" height="245" rx="43" fill="url(#paint2_linear_1065_141)"/>
<g style="mix-blend-mode:soft-light">
<path fill-rule="evenodd" clip-rule="evenodd" d="M131.164 86.637C131.945 86.2655 132.794 86.0518 133.66 86.0084C134.75 85.9535 135.836 86.1696 136.819 86.6369L170.894 102.827C171.775 103.246 172.55 103.856 173.16 104.611C173.771 105.366 174.201 106.247 174.419 107.189L182.837 143.575C183.054 144.517 183.054 145.496 182.836 146.438C182.619 147.38 182.188 148.261 181.577 149.017L158.004 178.197C157.394 178.951 156.619 179.56 155.737 179.978C154.855 180.396 153.889 180.613 152.911 180.612L115.094 180.621C114.115 180.621 113.149 180.403 112.267 179.985C111.385 179.566 110.611 178.956 110 178.201L86.4186 149.026C86.2867 148.861 86.1632 148.69 86.0482 148.514C85.5743 147.792 85.2517 146.984 85.0998 146.137C84.9479 145.291 84.9696 144.422 85.1637 143.584L93.569 107.198C93.7868 106.256 94.2168 105.375 94.8271 104.62C95.4373 103.865 96.2121 103.255 97.0939 102.836L131.164 86.637ZM131.984 100.909C131.984 99.6738 132.886 98.6725 133.998 98.6724C135.11 98.6724 136.012 99.6738 136.012 100.909C136.012 100.972 136.014 101.042 136.015 101.114C136.018 101.243 136.02 101.377 136.016 101.481C135.999 101.951 135.925 102.348 135.85 102.752C135.812 102.961 135.773 103.171 135.741 103.395L135.728 103.504C135.564 104.86 135.427 105.992 135.513 107.046C135.582 107.514 135.827 107.737 136.061 107.951C136.099 107.985 136.136 108.018 136.171 108.053C136.177 108.199 136.201 108.683 136.219 108.952C142.623 109.52 148.571 112.447 152.94 117.024L153.706 116.478C153.736 116.48 153.771 116.483 153.81 116.486C154.098 116.508 154.584 116.545 154.928 116.345C155.807 115.753 156.61 114.939 157.571 113.963L157.644 113.889C157.796 113.728 157.934 113.57 158.071 113.413C158.345 113.1 158.613 112.793 158.974 112.483C159.063 112.406 159.184 112.312 159.296 112.224C159.34 112.19 159.383 112.156 159.421 112.126C160.388 111.355 161.732 111.437 162.426 112.306C163.119 113.175 162.897 114.504 161.931 115.274C161.886 115.31 161.836 115.351 161.786 115.393C161.683 115.477 161.574 115.567 161.487 115.631C161.112 115.908 160.756 116.096 160.395 116.288C160.203 116.389 160.011 116.491 159.813 116.607C158.608 117.351 157.61 117.967 156.818 118.71C156.493 119.057 156.471 119.387 156.45 119.704C156.446 119.753 156.443 119.802 156.439 119.85C156.385 119.9 156.265 120.007 156.132 120.125C155.99 120.252 155.832 120.393 155.724 120.491C157.461 123.073 158.762 126.004 159.499 129.209C160.229 132.384 160.342 135.557 159.921 138.606L160.734 138.843C160.751 138.867 160.771 138.895 160.792 138.927C160.953 139.163 161.231 139.571 161.604 139.716C162.629 140.039 163.782 140.16 165.17 140.305L165.215 140.31C165.442 140.328 165.658 140.337 165.873 140.345C166.283 140.361 166.687 140.377 167.147 140.464C167.253 140.484 167.388 140.518 167.518 140.55C167.594 140.569 167.668 140.587 167.732 140.602C168.92 140.888 169.682 141.979 169.437 143.054C169.192 144.128 168.032 144.781 166.837 144.524C166.829 144.522 166.816 144.522 166.807 144.52C166.794 144.517 166.782 144.51 166.768 144.507C166.708 144.494 166.642 144.481 166.575 144.467C166.458 144.444 166.34 144.42 166.248 144.395C165.795 144.274 165.424 144.114 165.047 143.951C164.85 143.866 164.652 143.78 164.44 143.699L164.377 143.676C163.073 143.209 161.986 142.819 160.928 142.666C160.457 142.629 160.185 142.818 159.925 142.999C159.883 143.028 159.842 143.056 159.8 143.084C159.653 143.054 159.2 142.974 158.939 142.933C157.009 148.994 152.899 154.243 147.327 157.53C147.358 157.605 147.396 157.706 147.435 157.812C147.519 158.037 147.611 158.284 147.663 158.343C147.645 158.39 147.627 158.437 147.608 158.484C147.49 158.776 147.367 159.08 147.508 159.53C147.899 160.543 148.532 161.534 149.294 162.726C149.42 162.914 149.548 163.088 149.674 163.259C149.917 163.59 150.155 163.915 150.375 164.33C150.43 164.435 150.498 164.578 150.56 164.71C150.587 164.768 150.613 164.823 150.637 164.872C151.155 165.979 150.775 167.254 149.781 167.732C148.778 168.215 147.532 167.705 146.996 166.592C146.973 166.545 146.947 166.492 146.92 166.438C146.858 166.313 146.792 166.18 146.746 166.076C146.557 165.643 146.45 165.251 146.34 164.852C146.285 164.649 146.229 164.444 146.161 164.231L146.141 164.173C145.693 162.86 145.32 161.77 144.779 160.846C144.513 160.453 144.194 160.357 143.889 160.266C143.843 160.252 143.796 160.238 143.751 160.223C143.717 160.165 143.636 160.017 143.547 159.857C143.467 159.712 143.381 159.557 143.32 159.449C142.194 159.875 141.039 160.222 139.864 160.489C134.638 161.675 129.406 161.194 124.731 159.401L124.275 160.227C123.936 160.318 123.608 160.41 123.407 160.65C122.892 161.264 122.594 162.14 122.277 163.07C122.143 163.464 122.006 163.868 121.848 164.266C121.779 164.482 121.723 164.691 121.667 164.897C121.56 165.292 121.454 165.681 121.267 166.111C121.224 166.21 121.161 166.335 121.101 166.454C121.071 166.513 121.042 166.57 121.017 166.623C121.017 166.623 121.017 166.624 121.017 166.624C121.017 166.625 121.017 166.626 121.017 166.627C121.016 166.628 121.014 166.629 121.013 166.631C120.475 167.74 119.233 168.248 118.232 167.767C117.238 167.288 116.858 166.013 117.376 164.906C117.404 164.848 117.436 164.78 117.468 164.71C117.524 164.588 117.584 164.46 117.634 164.365C117.854 163.948 118.094 163.619 118.339 163.286C118.463 163.115 118.589 162.942 118.714 162.756C119.477 161.564 120.147 160.494 120.538 159.481C120.636 159.145 120.49 158.684 120.359 158.343L120.724 157.466C115.363 154.291 111.128 149.232 109.108 142.972L108.23 143.122C108.203 143.107 108.174 143.09 108.142 143.072C107.888 142.925 107.471 142.683 107.072 142.714C106.013 142.867 104.926 143.256 103.62 143.725L103.56 143.746C103.351 143.826 103.156 143.91 102.963 143.993C102.583 144.156 102.209 144.316 101.752 144.438C101.649 144.466 101.513 144.495 101.384 144.522C101.331 144.533 101.28 144.544 101.232 144.554C101.225 144.556 101.219 144.558 101.213 144.561C101.206 144.563 101.2 144.566 101.193 144.567C101.184 144.569 101.171 144.57 101.163 144.572C99.9684 144.829 98.8087 144.175 98.5631 143.101C98.3177 142.026 99.0803 140.936 100.268 140.649C100.272 140.648 100.277 140.647 100.283 140.645C100.288 140.643 100.293 140.642 100.298 140.641L100.315 140.636C100.366 140.624 100.422 140.611 100.48 140.597C100.609 140.565 100.746 140.532 100.853 140.512C101.312 140.425 101.716 140.409 102.125 140.393C102.34 140.384 102.558 140.376 102.785 140.357L102.832 140.352C104.22 140.207 105.372 140.086 106.396 139.763C106.687 139.644 106.966 139.278 107.181 138.996C107.209 138.959 107.236 138.924 107.262 138.89L108.105 138.645C107.16 132.104 108.759 125.684 112.215 120.487L111.57 119.91C111.565 119.883 111.561 119.851 111.556 119.817C111.514 119.535 111.441 119.042 111.165 118.749C110.373 118.006 109.375 117.39 108.171 116.647L108.17 116.646C107.974 116.531 107.783 116.43 107.595 116.329C107.233 116.137 106.877 115.948 106.5 115.67C106.413 115.605 106.305 115.517 106.202 115.433C106.161 115.398 106.12 115.365 106.082 115.334C106.072 115.326 106.062 115.32 106.052 115.313C105.086 114.543 104.864 113.214 105.557 112.345C105.947 111.856 106.543 111.614 107.163 111.635C107.644 111.652 108.143 111.828 108.566 112.164C108.603 112.194 108.645 112.226 108.687 112.26C108.801 112.348 108.924 112.445 109.013 112.521C109.371 112.829 109.636 113.134 109.907 113.445C110.045 113.604 110.185 113.765 110.339 113.928L110.373 113.963C111.351 114.955 112.164 115.78 113.055 116.379C113.465 116.618 113.793 116.567 114.108 116.517C114.156 116.509 114.204 116.502 114.251 116.495C114.491 116.671 114.734 116.843 114.979 117.011C118.407 113.377 122.91 110.685 128.14 109.498C129.339 109.226 130.556 109.039 131.781 108.939L131.829 108.087C132.097 107.828 132.398 107.454 132.483 107.046C132.57 105.971 132.43 104.814 132.262 103.422L132.259 103.395C132.227 103.172 132.188 102.962 132.15 102.753C132.075 102.349 132.001 101.951 131.984 101.481C131.98 101.382 131.982 101.257 131.985 101.134C131.986 101.076 131.987 101.019 131.988 100.965C131.988 100.956 131.987 100.947 131.986 100.938C131.985 100.928 131.984 100.919 131.984 100.909ZM130.877 124.843L131.476 114.285C130.754 114.371 130.037 114.495 129.328 114.655C125.403 115.545 121.997 117.479 119.334 120.095L127.998 126.233L128.015 126.224C128.309 126.438 128.67 126.564 129.061 126.564C130.016 126.564 130.794 125.81 130.834 124.865L130.877 124.843ZM148.593 120.1C145.345 116.922 141.107 114.848 136.524 114.285L137.123 124.826L137.131 124.83C137.147 125.206 137.283 125.566 137.519 125.859C138.114 126.605 139.191 126.743 139.955 126.185L139.985 126.198L148.593 120.1ZM124.103 131.11L116.192 124.039C113.845 127.861 112.732 132.445 113.248 137.161L123.389 134.237L123.397 134.202C123.761 134.103 124.083 133.89 124.318 133.596C124.914 132.85 124.808 131.773 124.094 131.153L124.103 131.11ZM154.343 130.379C153.813 128.074 152.923 125.947 151.748 124.043V124.043L143.88 131.08L143.884 131.101C143.601 131.347 143.403 131.677 143.32 132.043C143.108 132.974 143.669 133.901 144.581 134.151L144.59 134.194L154.782 137.127C154.998 134.93 154.866 132.656 154.343 130.379ZM135.616 131.656H132.375L130.357 134.168L131.08 137.307L133.998 138.71L136.907 137.312L137.631 134.172L135.616 131.656ZM143.174 140.297C143.04 140.272 142.903 140.26 142.765 140.267C142.536 140.278 142.305 140.337 142.085 140.443C141.225 140.857 140.85 141.875 141.224 142.744L141.211 142.761L145.283 152.589C149.208 150.09 152.145 146.357 153.68 142.047L143.191 140.275L143.174 140.297ZM126.853 141.69C126.667 140.876 125.949 140.321 125.149 140.309C125.035 140.308 124.917 140.318 124.8 140.34L124.783 140.318L114.385 142.081C115.989 146.518 118.989 150.135 122.756 152.55L126.784 142.821L126.754 142.783C126.898 142.449 126.94 142.071 126.853 141.69ZM134.764 144.748C134.506 144.622 134.22 144.562 133.933 144.572L133.933 144.572C133.623 144.583 133.321 144.676 133.057 144.84C132.794 145.005 132.578 145.236 132.431 145.509H132.423L127.31 154.748C130.848 155.953 134.756 156.222 138.676 155.333C139.368 155.176 140.052 154.985 140.725 154.761L135.599 145.505H135.56C135.389 145.185 135.117 144.918 134.764 144.748Z" fill="white"/>
</g>
<defs>
<linearGradient id="paint0_linear_1065_141" x1="133.5" y1="0" x2="133.5" y2="267" gradientUnits="userSpaceOnUse">
<stop stop-color="#6D7AFF"/>
<stop offset="0.435" stop-color="#2631AB"/>
<stop offset="1" stop-color="#4353FF"/>
</linearGradient>
<linearGradient id="paint1_linear_1065_141" x1="236.5" y1="249.5" x2="21" y2="32.5" gradientUnits="userSpaceOnUse">
<stop stop-color="#6D7AFF"/>
<stop offset="0.435" stop-color="#2631AB"/>
<stop offset="1" stop-color="#4353FF"/>
</linearGradient>
<linearGradient id="paint2_linear_1065_141" x1="133.5" y1="11" x2="87" y2="268" gradientUnits="userSpaceOnUse">
<stop stop-color="#4353FF"/>
<stop offset="1" stop-color="#6D7AFF"/>
</linearGradient>
</defs>
</svg>
