<svg width="267" height="267" viewBox="0 0 267 267" fill="none" xmlns="http://www.w3.org/2000/svg">
<rect width="267" height="267" rx="51" fill="url(#paint0_linear_1065_100)"/>
<rect x="7" y="7" width="253" height="253" rx="43" fill="#D9D9D9"/>
<rect x="7" y="7" width="253" height="253" rx="43" fill="url(#paint1_linear_1065_100)"/>
<rect x="11" y="11" width="245" height="245" rx="43" fill="#D9D9D9"/>
<rect x="11" y="11" width="245" height="245" rx="43" fill="url(#paint2_linear_1065_100)"/>
<g style="mix-blend-mode:soft-light">
<path opacity="0.998" d="M168.946 129.919C168.125 129.919 167.337 130.245 166.756 130.826C166.175 131.407 165.849 132.195 165.849 133.016V134.189C165.849 135.01 166.175 135.798 166.756 136.379C167.337 136.959 168.125 137.286 168.946 137.286H185.902C186.724 137.286 187.512 136.959 188.093 136.379C188.673 135.798 189 135.01 189 134.189V133.016C189 132.195 188.673 131.407 188.093 130.826C187.512 130.245 186.724 129.919 185.902 129.919H168.946ZM80.0973 114.135C79.2758 114.135 78.488 114.461 77.9072 115.042C77.3263 115.623 77 116.411 77 117.232V118.414C77 119.235 77.3263 120.023 77.9072 120.604C78.488 121.184 79.2758 121.511 80.0973 121.511H97.0534C97.8748 121.511 98.6626 121.184 99.2435 120.604C99.8243 120.023 100.151 119.235 100.151 118.414V117.232C100.151 116.411 99.8243 115.623 99.2435 115.042C98.6626 114.461 97.8748 114.135 97.0534 114.135H80.0973ZM80.0973 145.694C79.2758 145.694 78.488 146.02 77.9072 146.601C77.3263 147.182 77 147.97 77 148.791V149.964C77 150.37 77.0801 150.773 77.2358 151.149C77.3914 151.525 77.6196 151.866 77.9072 152.154C78.1948 152.441 78.5362 152.669 78.912 152.825C79.2878 152.981 79.6905 153.061 80.0973 153.061H97.0534C97.4601 153.061 97.8629 152.981 98.2387 152.825C98.6144 152.669 98.9559 152.441 99.2435 152.154C99.5311 151.866 99.7592 151.525 99.9149 151.149C100.071 150.773 100.151 150.37 100.151 149.964V148.791C100.151 147.97 99.8243 147.182 99.2435 146.601C98.6626 146.02 97.8748 145.694 97.0534 145.694H80.0973Z" fill="white"/>
<path opacity="0.998" fill-rule="evenodd" clip-rule="evenodd" d="M95.9863 103.181C95.9863 99.8296 99.1711 97.1349 103.038 97.2136V97.2223C104.177 97.2433 105.297 97.5152 106.319 98.0185L167.118 128.396C171.711 130.688 171.711 136.428 167.118 138.72L106.319 169.098C101.726 171.39 95.9863 168.52 95.9863 163.927V103.181ZM123.012 136.245H133.468V130.943H123.012V120.452H117.631V130.934H107.176V136.253H117.631V146.735H123.012V136.245Z" fill="white"/>
</g>
<defs>
<linearGradient id="paint0_linear_1065_100" x1="133.5" y1="0" x2="133.5" y2="267" gradientUnits="userSpaceOnUse">
<stop stop-color="#6D7AFF"/>
<stop offset="0.435" stop-color="#2631AB"/>
<stop offset="1" stop-color="#4353FF"/>
</linearGradient>
<linearGradient id="paint1_linear_1065_100" x1="236.5" y1="249.5" x2="21" y2="32.5" gradientUnits="userSpaceOnUse">
<stop stop-color="#6D7AFF"/>
<stop offset="0.435" stop-color="#2631AB"/>
<stop offset="1" stop-color="#4353FF"/>
</linearGradient>
<linearGradient id="paint2_linear_1065_100" x1="133.5" y1="11" x2="87" y2="268" gradientUnits="userSpaceOnUse">
<stop stop-color="#4353FF"/>
<stop offset="1" stop-color="#6D7AFF"/>
</linearGradient>
</defs>
</svg>
