<svg width="267" height="267" viewBox="0 0 267 267" fill="none" xmlns="http://www.w3.org/2000/svg">
<rect width="267" height="267" rx="51" fill="url(#paint0_linear_1065_74)"/>
<rect x="7" y="7" width="253" height="253" rx="43" fill="#D9D9D9"/>
<rect x="7" y="7" width="253" height="253" rx="43" fill="url(#paint1_linear_1065_74)"/>
<rect x="11" y="11" width="245" height="245" rx="43" fill="#D9D9D9"/>
<rect x="11" y="11" width="245" height="245" rx="43" fill="url(#paint2_linear_1065_74)"/>
<g style="mix-blend-mode:soft-light">
<path fill-rule="evenodd" clip-rule="evenodd" d="M188.938 102.79C188.979 102.942 189 103.098 189 103.256V127.726C189 128.04 188.918 128.348 188.761 128.62C188.605 128.892 188.38 129.117 188.109 129.273L167.708 141.098V164.535C167.708 165.173 167.372 165.762 166.822 166.083L124.237 190.762C124.14 190.818 124.033 190.854 123.927 190.892C123.887 190.905 123.849 190.93 123.807 190.941C123.51 191.02 123.197 191.02 122.899 190.941C122.85 190.927 122.806 190.901 122.759 190.883C122.662 190.847 122.56 190.816 122.467 190.762L79.8906 166.083C79.6201 165.927 79.3953 165.701 79.239 165.429C79.0827 165.158 79.0002 164.849 79 164.535V91.1258C79 90.9652 79.0222 90.8091 79.062 90.6575C79.0753 90.6062 79.1063 90.5594 79.1241 90.5081C79.1573 90.4144 79.1883 90.3185 79.237 90.2315C79.2703 90.1735 79.319 90.1267 79.3589 90.0732C79.4098 90.0018 79.4564 89.9282 79.5162 89.8658C79.5671 89.8145 79.6336 89.7765 79.6912 89.7319C79.7554 89.6784 79.813 89.6204 79.8861 89.5781L101.178 77.2383C101.447 77.0822 101.753 77 102.064 77C102.375 77 102.68 77.0822 102.95 77.2383L124.239 89.5781H124.244C124.315 89.6227 124.374 89.6784 124.439 89.7297C124.496 89.7743 124.56 89.8145 124.611 89.8635C124.673 89.9282 124.718 90.0018 124.771 90.0732C124.809 90.1267 124.86 90.1735 124.891 90.2315C124.942 90.3207 124.97 90.4144 125.006 90.5081C125.023 90.5594 125.054 90.6062 125.068 90.6597C125.109 90.8117 125.129 90.9684 125.13 91.1258V136.977L142.87 126.693V103.254C142.87 103.098 142.892 102.939 142.932 102.79C142.948 102.736 142.977 102.689 142.994 102.638C143.03 102.544 143.061 102.449 143.109 102.362C143.143 102.304 143.191 102.257 143.229 102.203C143.282 102.132 143.327 102.058 143.389 101.996C143.44 101.945 143.504 101.907 143.561 101.862C143.628 101.808 143.685 101.751 143.756 101.708L165.05 89.3684C165.32 89.212 165.625 89.1297 165.936 89.1297C166.247 89.1297 166.553 89.212 166.822 89.3684L188.112 101.708C188.187 101.753 188.245 101.808 188.311 101.86C188.366 101.904 188.431 101.945 188.482 101.994C188.544 102.058 188.588 102.132 188.641 102.203C188.681 102.257 188.73 102.304 188.761 102.362C188.812 102.449 188.84 102.544 188.876 102.638C188.896 102.689 188.925 102.736 188.938 102.79ZM185.451 126.693V106.345L178.001 110.662L167.708 116.628V136.977L185.453 126.693H185.451ZM164.162 163.503V143.141L154.038 148.962L125.128 165.572V186.126L164.162 163.503ZM82.549 94.2147V163.503L121.579 186.124V165.574L101.189 153.957L101.182 153.953L101.173 153.948C101.105 153.908 101.047 153.85 100.983 153.801C100.927 153.757 100.863 153.721 100.814 153.672L100.81 153.665C100.752 153.609 100.712 153.54 100.664 153.478C100.619 153.418 100.566 153.366 100.531 153.304L100.529 153.297C100.489 153.23 100.464 153.15 100.436 153.074C100.407 153.007 100.369 152.945 100.351 152.873C100.329 152.789 100.325 152.697 100.316 152.61C100.307 152.543 100.289 152.476 100.289 152.41V104.498L89.9991 98.5301L82.549 94.2147ZM102.066 80.8468L84.3279 91.1258L102.062 101.405L119.798 91.1236L102.062 80.8468H102.066ZM111.291 144.996L121.581 139.033V94.2147L114.131 98.5323L103.838 104.498V149.316L111.291 144.996ZM165.936 92.9769L148.2 103.256L165.936 113.535L183.67 103.254L165.936 92.9769ZM164.162 116.628L153.869 110.662L146.419 106.345V126.693L156.709 132.657L164.162 136.977V116.628ZM123.351 162.483L149.366 147.532L162.37 140.061L144.647 129.789L124.241 141.615L105.644 152.394L123.351 162.483Z" fill="white"/>
</g>
<defs>
<linearGradient id="paint0_linear_1065_74" x1="133.5" y1="0" x2="133.5" y2="267" gradientUnits="userSpaceOnUse">
<stop stop-color="#6D7AFF"/>
<stop offset="0.435" stop-color="#2631AB"/>
<stop offset="1" stop-color="#4353FF"/>
</linearGradient>
<linearGradient id="paint1_linear_1065_74" x1="236.5" y1="249.5" x2="21" y2="32.5" gradientUnits="userSpaceOnUse">
<stop stop-color="#6D7AFF"/>
<stop offset="0.435" stop-color="#2631AB"/>
<stop offset="1" stop-color="#4353FF"/>
</linearGradient>
<linearGradient id="paint2_linear_1065_74" x1="133.5" y1="11" x2="87" y2="268" gradientUnits="userSpaceOnUse">
<stop stop-color="#4353FF"/>
<stop offset="1" stop-color="#6D7AFF"/>
</linearGradient>
</defs>
</svg>
