<svg width="26" height="27" viewBox="0 0 26 27" fill="none" xmlns="http://www.w3.org/2000/svg">
<path opacity="0.7" fill-rule="evenodd" clip-rule="evenodd" d="M25.9853 6.10811C25.995 6.1441 25.9999 6.18122 26 6.2185V12.014C26 12.0884 25.9805 12.1614 25.9436 12.2258C25.9066 12.2902 25.8535 12.3435 25.7895 12.3806L20.9675 15.1811V20.732C20.9675 20.8831 20.8879 21.0225 20.758 21.0986L10.6924 26.9437C10.6694 26.9569 10.6442 26.9654 10.6191 26.9744C10.6097 26.9775 10.6008 26.9833 10.5908 26.986C10.5204 27.0047 10.4465 27.0047 10.3761 26.986C10.3646 26.9828 10.3541 26.9765 10.3431 26.9722C10.3201 26.9638 10.296 26.9564 10.274 26.9437L0.210497 21.0986C0.146566 21.0615 0.0934462 21.0082 0.0564909 20.9438C0.0195356 20.8794 5.0655e-05 20.8064 0 20.732L0 3.34559C0 3.30756 0.00523624 3.27058 0.0146615 3.23467C0.0178032 3.22252 0.0251339 3.21142 0.0293229 3.19928C0.0371773 3.17709 0.044508 3.15438 0.0560277 3.13378C0.0638821 3.12005 0.0754018 3.10895 0.084827 3.09628C0.0968703 3.07937 0.107866 3.06194 0.122004 3.04715C0.134048 3.035 0.149756 3.02602 0.163371 3.01546C0.178556 3.00278 0.19217 2.98905 0.209449 2.97901L5.24199 0.05645C5.30571 0.0194653 5.37793 0 5.45144 0C5.52495 0 5.59718 0.0194653 5.66089 0.05645L10.6929 2.97901H10.694C10.7107 2.98958 10.7249 3.00278 10.74 3.01493C10.7537 3.0255 10.7688 3.035 10.7809 3.04662C10.7955 3.06194 10.806 3.07937 10.8186 3.09628C10.8275 3.10895 10.8395 3.12005 10.8469 3.13378C10.8589 3.15491 10.8657 3.17709 10.8741 3.19928C10.8783 3.21142 10.8856 3.22252 10.8888 3.23519C10.8984 3.27119 10.9033 3.3083 10.9034 3.34559V14.205L15.0966 11.7694V6.21797C15.0966 6.181 15.1018 6.1435 15.1112 6.10811C15.1149 6.09543 15.1217 6.08434 15.1259 6.07219C15.1343 6.05 15.1416 6.02729 15.1531 6.00669C15.161 5.99296 15.1725 5.98187 15.1814 5.96919C15.194 5.95229 15.2045 5.93486 15.2191 5.92007C15.2312 5.90792 15.2463 5.89894 15.26 5.88837C15.2757 5.8757 15.2893 5.86196 15.306 5.85193L20.3391 2.92936C20.4028 2.89233 20.475 2.87283 20.5486 2.87283C20.6221 2.87283 20.6943 2.89233 20.758 2.92936L25.79 5.85193C25.8078 5.86249 25.8214 5.8757 25.8372 5.88785C25.8502 5.89841 25.8654 5.90792 25.8775 5.91954C25.8921 5.93485 25.9026 5.95229 25.9152 5.96919C25.9246 5.98187 25.9361 5.99296 25.9434 6.00669C25.9555 6.02729 25.9623 6.05 25.9707 6.07219C25.9754 6.08434 25.9822 6.09543 25.9853 6.10811ZM25.1612 11.7694V6.95007L23.4002 7.97267L20.9675 9.38562V14.205L25.1617 11.7694H25.1612ZM20.1291 20.4875V15.6649L17.7362 17.0436L10.9029 20.9776V25.8456L20.1291 20.4875ZM0.838845 4.07715V20.4875L10.064 25.8451V20.9782L5.24461 18.2267L5.24304 18.2257L5.24095 18.2246C5.22471 18.2151 5.2111 18.2014 5.19592 18.1898C5.18283 18.1792 5.16764 18.1707 5.15612 18.1591L5.15507 18.1575C5.14146 18.1443 5.13203 18.128 5.12051 18.1132C5.11004 18.0989 5.09747 18.0868 5.0891 18.072L5.08857 18.0704C5.07915 18.0545 5.07339 18.0355 5.06658 18.0176C5.05977 18.0017 5.05087 17.9869 5.04668 17.97C5.04145 17.95 5.0404 17.9283 5.0383 17.9077C5.03621 17.8919 5.03202 17.876 5.03202 17.8602V17.8591V6.51271L2.59979 5.09923L0.838845 4.07715ZM5.45197 0.911087L1.25931 3.34559L5.45092 5.78009L9.64305 3.34506L5.45092 0.911087H5.45197ZM7.63234 16.1044L10.0646 14.692V4.07715L8.30362 5.09976L5.87087 6.51271V17.1275L7.63234 16.1044ZM20.5486 3.784L16.3564 6.2185L20.5486 8.653L24.7402 6.21797L20.5486 3.784ZM20.1291 9.38562L17.6964 7.97267L15.9354 6.95007V11.7694L18.3677 13.1818L20.1291 14.205V9.38562ZM10.4829 20.2461L16.6319 16.705L19.7055 14.9355L15.5165 12.5026L10.6934 15.3036L6.29762 17.8565L10.4829 20.2461Z" fill="white"/>
</svg>
