<svg width="91" height="20" viewBox="0 0 91 20" fill="none" xmlns="http://www.w3.org/2000/svg">
<path d="M8.34375 14.2344V15.5H1.5V4.22656H2.90625V14.2344H8.34375ZM12.7031 8.41406C12.0729 8.41406 11.5495 8.63281 11.1328 9.07031C10.7214 9.5026 10.4948 10.0599 10.4531 10.7422H14.8672C14.8516 10.0547 14.6458 9.49479 14.25 9.0625C13.8542 8.63021 13.3385 8.41406 12.7031 8.41406ZM14.8359 13.1719H16.1719C16.0521 13.8906 15.6771 14.4818 15.0469 14.9453C14.4219 15.4089 13.6693 15.6406 12.7891 15.6406C11.6276 15.6406 10.7135 15.2656 10.0469 14.5156C9.38021 13.7656 9.04688 12.75 9.04688 11.4688C9.04688 10.1979 9.38021 9.17448 10.0469 8.39844C10.7188 7.6224 11.612 7.23438 12.7266 7.23438C13.8203 7.23438 14.6849 7.60156 15.3203 8.33594C15.9557 9.07031 16.2734 10.0547 16.2734 11.2891V11.8047H10.4453V11.8828C10.4453 12.6641 10.6589 13.2891 11.0859 13.7578C11.513 14.2266 12.0911 14.4609 12.8203 14.4609C13.3307 14.4609 13.7656 14.3438 14.125 14.1094C14.4844 13.875 14.7214 13.5625 14.8359 13.1719ZM20.3281 14.4844C20.9688 14.4844 21.5052 14.2865 21.9375 13.8906C22.375 13.4896 22.5938 12.9974 22.5938 12.4141V11.75L20.4219 11.8828C19.875 11.9193 19.4505 12.0521 19.1484 12.2812C18.8516 12.5104 18.7031 12.8177 18.7031 13.2031C18.7031 13.5885 18.8516 13.8984 19.1484 14.1328C19.4453 14.3672 19.8385 14.4844 20.3281 14.4844ZM20.0234 15.6406C19.2161 15.6406 18.5625 15.4167 18.0625 14.9688C17.5677 14.5208 17.3203 13.9323 17.3203 13.2031C17.3203 12.5052 17.5755 11.9479 18.0859 11.5312C18.6016 11.1146 19.3281 10.8802 20.2656 10.8281L22.5938 10.6953V10.0156C22.5938 9.52083 22.4375 9.13281 22.125 8.85156C21.8125 8.57031 21.375 8.42969 20.8125 8.42969C20.2969 8.42969 19.8776 8.54427 19.5547 8.77344C19.2318 8.9974 19.026 9.3125 18.9375 9.71875H17.625C17.6719 8.99479 17.9844 8.40104 18.5625 7.9375C19.1458 7.46875 19.9062 7.23438 20.8438 7.23438C21.7969 7.23438 22.5521 7.47396 23.1094 7.95312C23.6719 8.43229 23.9531 9.07552 23.9531 9.88281V15.5H22.6641V14.1016H22.6328C22.388 14.5651 22.0286 14.9375 21.5547 15.2188C21.0807 15.5 20.5703 15.6406 20.0234 15.6406ZM25.6797 15.5V7.375H26.9609V8.70312H26.9922C27.1276 8.25 27.3698 7.89323 27.7188 7.63281C28.0729 7.36719 28.487 7.23438 28.9609 7.23438C29.0703 7.23438 29.2526 7.2526 29.5078 7.28906V8.60938C29.362 8.55729 29.1198 8.53125 28.7812 8.53125C28.2552 8.53125 27.8333 8.70573 27.5156 9.05469C27.1979 9.40365 27.0391 9.86458 27.0391 10.4375V15.5H25.6797ZM30.6172 15.5V7.375H31.8984V8.67188H31.9297C32.1641 8.21875 32.5 7.86719 32.9375 7.61719C33.375 7.36198 33.8984 7.23438 34.5078 7.23438C35.3932 7.23438 36.0833 7.5026 36.5781 8.03906C37.0729 8.57031 37.3203 9.29948 37.3203 10.2266V15.5H35.9609V10.4688C35.9609 9.80729 35.8047 9.30469 35.4922 8.96094C35.1797 8.61198 34.7135 8.4375 34.0938 8.4375C33.4531 8.4375 32.9401 8.64583 32.5547 9.0625C32.1693 9.47917 31.9766 10.0312 31.9766 10.7188V15.5H30.6172ZM53.6562 15.5H52.3438V6.8125H52.2891L48.6953 15.4219H47.5078L43.9141 6.8125H43.8594V15.5H42.5469V4.22656H44.1797L48.0703 13.6328H48.1328L52.0234 4.22656H53.6562V15.5ZM59 15.6406C57.8646 15.6406 56.9531 15.263 56.2656 14.5078C55.5781 13.7474 55.2344 12.724 55.2344 11.4375C55.2344 10.151 55.5781 9.13021 56.2656 8.375C56.9531 7.61458 57.8646 7.23438 59 7.23438C60.1302 7.23438 61.0391 7.61458 61.7266 8.375C62.4141 9.13021 62.7578 10.151 62.7578 11.4375C62.7578 12.7188 62.4141 13.7396 61.7266 14.5C61.0391 15.2604 60.1302 15.6406 59 15.6406ZM57.2578 13.6484C57.6901 14.1797 58.2708 14.4453 59 14.4453C59.7292 14.4453 60.3073 14.1823 60.7344 13.6562C61.1615 13.125 61.375 12.3854 61.375 11.4375C61.375 10.4896 61.1615 9.7526 60.7344 9.22656C60.3073 8.69531 59.7292 8.42969 59 8.42969C58.2708 8.42969 57.6901 8.69531 57.2578 9.22656C56.8307 9.75781 56.6172 10.4948 56.6172 11.4375C56.6172 12.3802 56.8307 13.1172 57.2578 13.6484ZM64.1328 15.5V7.375H65.4141V8.70312H65.4453C65.5807 8.25 65.8229 7.89323 66.1719 7.63281C66.526 7.36719 66.9401 7.23438 67.4141 7.23438C67.5234 7.23438 67.7057 7.2526 67.9609 7.28906V8.60938C67.8151 8.55729 67.5729 8.53125 67.2344 8.53125C66.7083 8.53125 66.2865 8.70573 65.9688 9.05469C65.651 9.40365 65.4922 9.86458 65.4922 10.4375V15.5H64.1328ZM71.9375 8.41406C71.3073 8.41406 70.7839 8.63281 70.3672 9.07031C69.9557 9.5026 69.7292 10.0599 69.6875 10.7422H74.1016C74.0859 10.0547 73.8802 9.49479 73.4844 9.0625C73.0885 8.63021 72.5729 8.41406 71.9375 8.41406ZM74.0703 13.1719H75.4062C75.2865 13.8906 74.9115 14.4818 74.2812 14.9453C73.6562 15.4089 72.9036 15.6406 72.0234 15.6406C70.862 15.6406 69.9479 15.2656 69.2812 14.5156C68.6146 13.7656 68.2812 12.75 68.2812 11.4688C68.2812 10.1979 68.6146 9.17448 69.2812 8.39844C69.9531 7.6224 70.8464 7.23438 71.9609 7.23438C73.0547 7.23438 73.9193 7.60156 74.5547 8.33594C75.1901 9.07031 75.5078 10.0547 75.5078 11.2891V11.8047H69.6797V11.8828C69.6797 12.6641 69.8932 13.2891 70.3203 13.7578C70.7474 14.2266 71.3255 14.4609 72.0547 14.4609C72.5651 14.4609 73 14.3438 73.3594 14.1094C73.7188 13.875 73.9557 13.5625 74.0703 13.1719Z" fill="url(#paint0_linear_6_7)"/>
<path d="M86.521 13.8357C86.2258 13.8357 86 13.5926 86 13.3147C86 13.1758 86.0521 13.0369 86.1563 12.95L89.2301 9.99784L86.1563 7.04564C85.9479 6.83725 85.9479 6.5073 86.1563 6.31628C86.3473 6.12525 86.6599 6.10788 86.8683 6.29891L90.3415 9.61579C90.5499 9.80681 90.5499 10.1368 90.3588 10.3452L90.3415 10.3625L86.8683 13.6968C86.7815 13.7836 86.6599 13.8357 86.521 13.8357Z" fill="white"/>
<defs>
<linearGradient id="paint0_linear_6_7" x1="0" y1="10" x2="76" y2="10" gradientUnits="userSpaceOnUse">
<stop stop-color="white"/>
<stop offset="1" stop-color="white" stop-opacity="0.29"/>
</linearGradient>
</defs>
</svg>
