<svg width="559" height="710" viewBox="0 0 559 710" fill="none" xmlns="http://www.w3.org/2000/svg">
<rect width="559" height="710" rx="15" fill="white" fill-opacity="0.02"/>
<rect x="0.5" y="0.5" width="558" height="709" rx="14.5" stroke="white" stroke-opacity="0.11"/>
<path d="M418.277 665.277L418.277 44.7236L142.143 44.7236L142.143 665.277L418.277 665.277Z" stroke="#4353FF" stroke-opacity="0.09" stroke-dasharray="4 3"/>
<path d="M419 78.7158L141.42 78.7157" stroke="#4353FF" stroke-opacity="0.09" stroke-dasharray="4 3"/>
<path d="M419 113.433L141.42 113.433" stroke="#4353FF" stroke-opacity="0.09" stroke-dasharray="4 3"/>
<path d="M419 148.149L141.42 148.149" stroke="#4353FF" stroke-opacity="0.09" stroke-dasharray="4 3"/>
<path d="M419 182.865L141.42 182.865" stroke="#4353FF" stroke-opacity="0.09" stroke-dasharray="4 3"/>
<path d="M419 217.582L141.42 217.582" stroke="#4353FF" stroke-opacity="0.09" stroke-dasharray="4 3"/>
<path d="M419 252.298L141.42 252.298" stroke="#4353FF" stroke-opacity="0.09" stroke-dasharray="4 3"/>
<path d="M419 287.015L141.42 287.015" stroke="#4353FF" stroke-opacity="0.09" stroke-dasharray="4 3"/>
<path d="M419 321.731L141.42 321.731" stroke="#4353FF" stroke-opacity="0.09" stroke-dasharray="4 3"/>
<path d="M419 356.447L141.42 356.447" stroke="#4353FF" stroke-opacity="0.09" stroke-dasharray="4 3"/>
<path d="M419 391.163L141.42 391.163" stroke="#4353FF" stroke-opacity="0.09" stroke-dasharray="4 3"/>
<path d="M419 425.88L141.42 425.88" stroke="#4353FF" stroke-opacity="0.09" stroke-dasharray="4 3"/>
<path d="M419 460.596L141.42 460.596" stroke="#4353FF" stroke-opacity="0.09" stroke-dasharray="4 3"/>
<path d="M419 495.311L141.42 495.311" stroke="#4353FF" stroke-opacity="0.09" stroke-dasharray="4 3"/>
<path d="M419 530.028L141.42 530.028" stroke="#4353FF" stroke-opacity="0.09" stroke-dasharray="4 3"/>
<path d="M419 564.744L141.42 564.744" stroke="#4353FF" stroke-opacity="0.09" stroke-dasharray="4 3"/>
<path d="M419 599.461L141.42 599.461" stroke="#4353FF" stroke-opacity="0.09" stroke-dasharray="4 3"/>
<path d="M419 634.176L141.42 634.176" stroke="#4353FF" stroke-opacity="0.09" stroke-dasharray="4 3"/>
<path d="M280.211 666L280.211 44" stroke="#4353FF" stroke-opacity="0.09" stroke-dasharray="4 3"/>
<path d="M245.513 666L245.513 44" stroke="#4353FF" stroke-opacity="0.09" stroke-dasharray="4 3"/>
<path d="M210.814 666L210.814 44" stroke="#4353FF" stroke-opacity="0.09" stroke-dasharray="4 3"/>
<path d="M176.117 666L176.117 44" stroke="#4353FF" stroke-opacity="0.09" stroke-dasharray="4 3"/>
<path d="M314.906 666L314.906 44" stroke="#4353FF" stroke-opacity="0.09" stroke-dasharray="4 3"/>
<path d="M349.605 666L349.605 44" stroke="#4353FF" stroke-opacity="0.09" stroke-dasharray="4 3"/>
<path d="M384.303 666L384.303 44" stroke="#4353FF" stroke-opacity="0.09" stroke-dasharray="4 3"/>
<path fill-rule="evenodd" clip-rule="evenodd" d="M296.475 251.269C296.471 242.035 296.507 232.802 296.434 223.57C296.412 220.949 296.572 218.487 299.132 217.052C308.666 211.709 317.631 205.341 327.72 201.008C332.836 198.808 338.28 197.67 343.794 196.916C353.755 197.971 358.153 202.042 359.923 212.454C362.086 225.19 361.634 238.099 361.988 250.946C362.216 259.191 361.959 267.466 364.69 275.426C371.448 282.965 378.993 282.899 387.086 277.773C388.396 276.944 389.912 276.674 391.415 276.407C393.485 287.22 391.937 298.128 392.226 308.988C392.275 310.95 390.185 311.665 388.813 312.601C370.603 325.037 362.956 342.874 362.304 364.287C361.952 375.817 361.394 387.351 361.448 398.882C361.58 426.957 349.236 448.798 328.022 466.075C318.247 474.038 308.061 481.562 296.442 486.804C295.024 485.038 294.86 482.942 294.853 480.799C294.832 474.068 294.952 467.335 294.814 460.607C294.713 455.695 296.683 452.131 300.73 449.495C304.596 446.975 308.4 444.357 312.019 441.486C319.736 435.367 323.591 427.493 323.788 417.545C324.065 403.342 324.695 389.148 325.876 374.98C327.383 356.884 333.461 340.563 344.178 325.922C347.923 320.807 347.854 320.753 341.594 319.022C339.156 318.349 336.683 317.738 335.863 314.849C334.644 312.285 332.213 311.353 329.821 310.373C325.761 299.645 324.808 288.506 324.74 277.117C324.693 269.109 323.544 261.121 323.644 253.063C323.763 243.314 321.905 242.024 312.462 244.387C308.291 243.952 305.718 247.245 302.35 248.681C300.38 249.521 299.092 251.924 296.475 251.269Z" fill="#0D0F23"/>
<path d="M296.934 223.565L296.934 223.566C296.987 230.306 296.983 237.048 296.978 243.787C296.976 246.144 296.974 248.5 296.975 250.856C297.899 250.976 298.629 250.641 299.369 250.125C299.648 249.931 299.907 249.727 300.179 249.513C300.335 249.389 300.496 249.263 300.667 249.133C301.115 248.793 301.604 248.455 302.154 248.221L302.154 248.221C302.957 247.879 303.72 247.422 304.493 246.923C304.741 246.763 304.992 246.597 305.246 246.429C305.771 246.082 306.308 245.727 306.848 245.403C308.451 244.445 310.224 243.676 312.425 243.881C314.753 243.301 316.654 242.936 318.19 242.875C319.745 242.814 320.995 243.062 321.942 243.786C322.892 244.512 323.447 245.647 323.764 247.16C324.081 248.671 324.174 250.625 324.144 253.07V253.07C324.094 257.075 324.355 261.067 324.635 265.074C324.653 265.331 324.672 265.588 324.69 265.845C324.953 269.59 325.218 273.349 325.24 277.114C325.307 288.408 326.247 299.41 330.212 309.993C330.23 310 330.247 310.007 330.265 310.015C332.551 310.947 335.046 311.965 336.315 314.634L336.333 314.672L336.344 314.712C337.065 317.253 339.168 317.834 341.618 318.51L341.727 318.54L341.727 318.54C343.281 318.97 344.49 319.306 345.349 319.646C346.178 319.975 346.855 320.37 347.105 321.025C347.359 321.691 347.096 322.417 346.67 323.174C346.23 323.958 345.511 324.948 344.582 326.217C333.919 340.784 327.873 357.017 326.374 375.021C325.194 389.177 324.565 403.36 324.288 417.554C324.088 427.649 320.166 435.665 312.33 441.878C308.693 444.762 304.876 447.389 301.003 449.914L301.003 449.914C299.036 451.196 297.596 452.687 296.657 454.434C295.718 456.181 295.265 458.212 295.314 460.596L294.814 460.607L295.314 460.596C295.403 464.95 295.385 469.313 295.366 473.668C295.356 476.047 295.345 478.425 295.353 480.797C295.359 482.799 295.51 484.627 296.601 486.183C308.008 480.977 318.042 473.56 327.706 465.687C348.823 448.49 361.079 426.784 360.948 398.884C360.908 390.241 361.211 381.593 361.513 372.957C361.615 370.06 361.716 367.165 361.805 364.271C362.461 342.734 370.163 324.732 388.531 312.189L388.813 312.601L388.531 312.189C388.827 311.986 389.156 311.793 389.473 311.607C389.542 311.567 389.61 311.527 389.678 311.487C390.064 311.259 390.428 311.035 390.743 310.786C391.366 310.297 391.745 309.762 391.726 309.001C391.726 309.001 391.726 309.001 391.726 309L392.226 308.988C392.129 305.331 392.24 301.669 392.351 298.007C392.57 290.793 392.788 283.579 391.415 276.407L296.934 223.565ZM296.934 223.565C296.912 220.929 297.095 218.767 299.376 217.489L299.376 217.488C302.579 215.693 305.724 213.779 308.86 211.871C310.398 210.934 311.934 209.999 313.474 209.08C318.162 206.282 322.903 203.621 327.917 201.468L327.917 201.468C332.956 199.301 338.329 198.171 343.802 197.42C348.698 197.946 352.142 199.205 354.585 201.538C357.039 203.882 358.553 207.38 359.43 212.538C361.076 222.231 361.201 232.013 361.327 241.837C361.366 244.875 361.404 247.916 361.488 250.96C361.52 252.102 361.542 253.248 361.564 254.396C361.701 261.488 361.84 268.659 364.217 275.588L364.25 275.684L364.318 275.759C367.762 279.602 371.45 281.55 375.349 281.847C379.236 282.144 383.253 280.792 387.354 278.195C388.436 277.511 389.68 277.231 391.015 276.987L296.934 223.565Z" stroke="white" stroke-opacity="0.13"/>
<path fill-rule="evenodd" clip-rule="evenodd" d="M178.566 438.583C181.073 433.071 179.76 427.23 179.591 421.614C179.322 412.78 179.925 405.782 188.52 399.624C203.247 389.077 208.862 373.2 210.049 355.105C210.805 343.565 210.868 332.072 210.833 320.571C210.751 294.568 219.793 272.566 239.011 255.062C248.225 246.67 258.48 239.544 269.177 233.091C271.123 231.916 272.865 230.401 274.702 229.042C276.747 239.663 275.144 250.384 275.58 261.049C275.671 263.23 273.738 263.908 272.277 264.624C252.926 274.113 245.207 289.345 246.536 310.952C247.629 328.727 246.469 346.708 240.65 363.954C237.293 373.897 232.197 382.884 225.803 391.124C222.914 394.846 223.751 397.052 228.002 398.051C238.337 400.479 242.706 408.043 244.331 417.465C246.755 431.524 246.61 445.796 246.967 460.014C247.014 461.867 245.807 464.456 248.922 465.277C250.335 473.751 252.849 475.013 260.918 471.432C265.655 469.33 269.61 465.806 274.514 464.028C276.394 464.969 275.568 466.717 275.591 468.098C275.688 474.039 274.882 480.099 275.803 485.894C277.309 495.381 273.204 500.478 265.175 504.607C254.818 509.933 245.189 516.749 233.426 518.867C226.946 520.036 220.63 519.957 216.332 513.889C214.818 511.753 212.295 512.989 210.787 511.461C211.058 509.766 211.669 508.105 211.319 506.349C208.412 491.732 209.39 476.934 209.268 462.19C209.243 459.106 208.69 456.089 208.422 453.041C207.616 443.871 205.307 435.909 194.631 433.903C190.534 434.226 187.1 436.329 183.509 438.022C181.945 438.757 180.487 440.838 178.566 438.583Z" fill="#0D0F23"/>
<path d="M180.091 421.598L180.091 421.599C180.129 422.873 180.227 424.16 180.326 425.465C180.335 425.584 180.344 425.703 180.353 425.822C180.461 427.245 180.564 428.688 180.582 430.131C180.617 432.918 180.338 435.734 179.156 438.487C179.503 438.839 179.802 439.001 180.053 439.066C180.349 439.142 180.646 439.1 180.981 438.962C181.326 438.819 181.674 438.59 182.066 438.324L182.148 438.267C182.501 438.026 182.893 437.759 183.296 437.57M180.091 421.598L183.509 438.022M180.091 421.598C179.956 417.186 180.044 413.305 181.206 409.772C182.361 406.259 184.59 403.054 188.811 400.031C203.706 389.363 209.356 373.314 210.548 355.138L210.049 355.105M180.091 421.598L210.049 355.105M183.296 437.57L183.509 438.022M183.296 437.57C183.296 437.57 183.296 437.57 183.295 437.57L183.509 438.022M183.296 437.57C183.95 437.261 184.606 436.935 185.266 436.607C188.163 435.166 191.159 433.675 194.592 433.405L194.658 433.4L194.723 433.412C200.192 434.439 203.566 437.01 205.657 440.53C207.73 444.019 208.515 448.398 208.92 452.997C209.01 454.028 209.137 455.074 209.265 456.13C209.506 458.125 209.752 460.155 209.768 462.186C209.795 465.457 209.769 468.725 209.742 471.988C209.648 483.48 209.555 494.915 211.81 506.251M183.509 438.022C184.184 437.704 184.853 437.371 185.523 437.038C188.415 435.601 191.304 434.165 194.631 433.903C205.307 435.909 207.616 443.871 208.422 453.041C208.515 454.107 208.644 455.17 208.773 456.232C209.012 458.208 209.252 460.185 209.268 462.19C209.295 465.443 209.268 468.698 209.242 471.954C209.148 483.454 209.053 494.957 211.319 506.349M211.81 506.251C211.81 506.251 211.809 506.251 211.809 506.251L211.319 506.349M211.81 506.251L211.319 506.349M211.81 506.251C212.002 507.214 211.927 508.137 211.779 509.011C211.709 509.425 211.621 509.837 211.536 510.236L211.523 510.298C211.452 510.63 211.384 510.953 211.326 511.275M211.319 506.349C211.578 507.645 211.312 508.89 211.046 510.135C210.952 510.576 210.858 511.017 210.787 511.461M246.967 460.014C246.909 457.693 246.864 455.37 246.819 453.046C246.589 441.141 246.359 429.228 244.331 417.465C242.706 408.043 238.337 400.479 228.002 398.051C223.751 397.052 222.914 394.846 225.803 391.124C232.197 382.884 237.293 373.897 240.65 363.954L246.967 460.014ZM246.967 460.014C246.977 460.424 246.926 460.87 246.874 461.325C246.692 462.926 246.496 464.637 248.922 465.277M246.967 460.014L274.474 464.576M210.787 511.461L211.143 511.11C211.202 511.17 211.263 511.224 211.326 511.275M210.787 511.461C211.47 512.153 212.36 512.278 213.271 512.406C214.373 512.561 215.504 512.72 216.332 513.889M210.787 511.461L211.281 511.54C211.295 511.451 211.31 511.363 211.326 511.275M211.326 511.275C211.856 511.697 212.519 511.793 213.361 511.913C213.449 511.926 213.539 511.939 213.63 511.952C214.662 512.105 215.857 512.353 216.74 513.6L216.332 513.889M216.332 513.889L216.74 513.6C218.813 516.527 221.357 517.996 224.166 518.603C226.996 519.214 230.118 518.955 233.337 518.375C239.151 517.328 244.449 515.119 249.601 512.494C252.177 511.182 254.711 509.769 257.255 508.348L257.453 508.237C259.929 506.853 262.416 505.464 264.947 504.162C268.925 502.116 271.866 499.862 273.639 496.997C275.403 494.146 276.048 490.628 275.309 485.973C274.842 483.029 274.814 480.029 274.888 477.038C274.912 476.093 274.945 475.152 274.979 474.214C275.052 472.167 275.124 470.134 275.091 468.106C275.085 467.745 275.131 467.367 275.172 467.025L275.181 466.952C275.227 466.575 275.263 466.237 275.25 465.92C275.236 465.609 275.175 465.347 275.042 465.121C274.932 464.936 274.76 464.749 274.474 464.576M216.332 513.889C220.63 519.957 226.946 520.036 233.426 518.867C242.323 517.265 250 512.975 257.694 508.675C260.172 507.29 262.652 505.904 265.175 504.607C273.204 500.478 277.309 495.381 275.803 485.894C275.199 482.09 275.338 478.171 275.478 474.247C275.551 472.194 275.624 470.139 275.591 468.098C275.586 467.773 275.627 467.427 275.67 467.076C275.807 465.938 275.951 464.748 274.514 464.028M274.474 464.576C272.159 465.444 270.047 466.707 267.918 468.033C267.697 468.171 267.475 468.309 267.254 468.448C265.287 469.677 263.285 470.929 261.121 471.889C259.091 472.79 257.378 473.401 255.927 473.665C254.474 473.929 253.236 473.852 252.196 473.32C251.154 472.787 250.39 471.838 249.801 470.521C249.243 469.273 248.826 467.659 248.481 465.668M274.474 464.576C274.417 464.542 274.356 464.508 274.291 464.475L274.514 464.028M274.474 464.576C274.544 464.55 274.614 464.524 274.685 464.498L274.514 464.028M274.474 464.576L272.057 264.175M274.514 464.028C271.815 465.007 269.403 466.514 266.99 468.023C265.019 469.255 263.048 470.487 260.918 471.432C252.849 475.013 250.335 473.751 248.922 465.277M248.922 465.277L248.428 465.36C248.446 465.464 248.463 465.566 248.481 465.668M248.922 465.277L248.794 465.761C248.686 465.732 248.582 465.701 248.481 465.668M248.481 465.668C247.793 465.443 247.283 465.115 246.926 464.691C246.516 464.203 246.349 463.637 246.296 463.08C246.244 462.531 246.3 461.961 246.357 461.447C246.364 461.387 246.371 461.327 246.378 461.269C246.43 460.808 246.477 460.4 246.467 460.027L246.467 460.027C246.409 457.699 246.364 455.372 246.319 453.046C246.089 441.14 245.859 429.273 243.838 417.55C243.034 412.886 241.557 408.726 239.036 405.44C236.522 402.164 232.948 399.727 227.887 398.538C225.737 398.032 224.219 397.176 223.75 395.766C223.285 394.366 223.95 392.695 225.408 390.818C231.772 382.615 236.84 373.677 240.176 363.794C245.968 346.629 247.127 328.718 246.037 310.983C245.369 300.114 246.973 290.804 251.212 283.005C255.454 275.202 262.307 268.956 272.057 264.175M272.057 264.175L272.277 264.624M272.057 264.175L246.536 310.952C245.207 289.345 252.926 274.113 272.277 264.624M272.057 264.175C272.057 264.175 272.057 264.175 272.057 264.175L272.277 264.624M272.057 264.175L272.277 264.624M272.057 264.175C272.213 264.099 272.369 264.025 272.522 263.952C273.134 263.662 273.719 263.385 274.195 262.998C274.752 262.546 275.118 261.973 275.081 261.07L275.081 261.069C274.924 257.227 275.03 253.37 275.136 249.532C275.178 248.025 275.219 246.52 275.244 245.02C275.33 239.956 275.234 234.926 274.356 229.928M272.057 264.175L274.356 229.928M210.049 355.105L210.548 355.138C211.305 343.579 211.368 332.072 211.333 320.57C211.251 294.699 220.241 272.835 239.348 255.432C248.53 247.069 258.756 239.961 269.435 233.519L269.435 233.519M210.049 355.105L269.435 233.519M269.435 233.519C270.792 232.7 272.067 231.706 273.315 230.734C273.664 230.462 274.011 230.192 274.356 229.928M269.435 233.519L274.356 229.928" stroke="white" stroke-opacity="0.13"/>
</svg>
