<svg width="18" height="22" viewBox="0 0 18 22" fill="none" xmlns="http://www.w3.org/2000/svg">
<path d="M1.8231 13.64L8.20605 21.6262C8.2991 21.7424 8.41933 21.8366 8.55732 21.9014C8.69532 21.9663 8.84733 22 9.00143 22C9.15553 22 9.30753 21.9663 9.44553 21.9014C9.58352 21.8366 9.70376 21.7424 9.7968 21.6262L16.1798 13.64C17.1893 12.3772 17.8063 10.8732 17.9613 9.29705C18.1164 7.7209 17.8033 6.13511 17.0574 4.71796C16.3114 3.30081 15.1621 2.10848 13.7387 1.27501C12.3153 0.441552 10.6743 0 9 0C7.32573 0 5.68466 0.441552 4.26127 1.27501C2.83788 2.10848 1.6886 3.30081 0.942649 4.71796C0.196695 6.13511 -0.116362 7.7209 0.0386723 9.29705C0.193706 10.8732 0.810684 12.3772 1.82024 13.64H1.8231ZM9.00143 4.01233C9.91766 4.01233 10.8133 4.26921 11.5751 4.75047C12.337 5.23174 12.9307 5.91579 13.2814 6.71611C13.632 7.51643 13.7237 8.39708 13.545 9.2467C13.3662 10.0963 12.925 10.8767 12.2771 11.4893C11.6293 12.1018 10.8038 12.519 9.90519 12.688C9.00657 12.857 8.07511 12.7702 7.22862 12.4387C6.38213 12.1072 5.65862 11.5458 5.14959 10.8256C4.64056 10.1053 4.36887 9.25848 4.36887 8.39222C4.37037 7.23104 4.85893 6.11783 5.72738 5.29675C6.59582 4.47567 7.77326 4.01376 9.00143 4.01233Z" fill="white"/>
</svg>
