<svg width="96" height="66" viewBox="0 0 96 66" fill="none" xmlns="http://www.w3.org/2000/svg">
<mask id="mask0_2_2" style="mask-type:luminance" maskUnits="userSpaceOnUse" x="0" y="0" width="96" height="67">
<path d="M0.568359 0.0078125H95.0526V66.0078H0.568359V0.0078125Z" fill="white"/>
</mask>
<g mask="url(#mask0_2_2)">
<path fill-rule="evenodd" clip-rule="evenodd" d="M39.7999 7.2343C42.8497 4.05935 47.0946 2.09325 51.7841 2.09325C58.0367 2.09325 63.4556 5.56693 66.3735 10.7427C68.9636 9.58485 71.7691 8.98707 74.6062 8.98851C85.8609 8.98851 94.9967 18.1938 94.9967 29.5527C94.9967 40.9117 85.8609 50.1169 74.6062 50.1169C73.2306 50.1169 71.8897 49.9787 70.5767 49.7175C68.0235 54.268 63.143 57.3596 57.5851 57.3596C55.3223 57.364 53.0885 56.8507 51.0546 55.8589C48.4667 61.9379 42.4398 66.2105 35.423 66.2105C28.0935 66.2105 21.8756 61.5905 19.4788 55.0947C18.412 55.3199 17.3247 55.433 16.2344 55.4324C7.51543 55.4324 0.463852 48.2766 0.463852 39.4882C0.463852 33.5829 3.6388 28.4418 8.34911 25.6629C7.34982 23.3609 6.83545 20.8777 6.83806 18.3682C6.83806 8.22499 15.0707 0.0270996 25.2139 0.0270996C31.1539 0.0270996 36.4686 2.85815 39.8033 7.25236" fill="#00A1E0" fill-opacity="0.12"/>
</g>
<path fill-rule="evenodd" clip-rule="evenodd" d="M14.2295 34.3287C14.1701 34.4837 14.2507 34.516 14.2698 34.5434C14.4473 34.6719 14.6276 34.765 14.8082 34.8696C15.7739 35.3802 16.684 35.5296 17.6358 35.5296C19.5741 35.5296 20.7795 34.4979 20.7795 32.8375V32.8048C20.7795 31.2695 19.4178 30.7102 18.1464 30.3107L17.98 30.2569C17.0178 29.9449 16.1876 29.6733 16.1876 29.0411V29.0088C16.1876 28.4669 16.6739 28.0674 17.4243 28.0674C18.2579 28.0674 19.2514 28.345 19.8871 28.6962C19.8871 28.6962 20.0754 28.8177 20.1438 28.6361C20.181 28.5378 20.5051 27.6704 20.5398 27.5731C20.5766 27.4713 20.512 27.3946 20.4457 27.355C19.7162 26.9103 18.7088 26.6081 17.6667 26.6081L17.4732 26.6088C15.6982 26.6088 14.4581 27.6822 14.4581 29.2176V29.2506C14.4581 30.8693 15.8267 31.3973 17.105 31.762L17.3107 31.8259C18.2416 32.1122 19.0475 32.3609 19.0475 33.0139V33.0466C19.0475 33.6475 18.523 34.0956 17.6823 34.0956C17.3555 34.0956 16.3137 34.0901 15.1848 33.3766C15.0483 33.297 14.9704 33.2397 14.8652 33.1755C14.8096 33.1418 14.6707 33.081 14.6102 33.263L14.2281 34.326M42.6081 34.326C42.5487 34.4809 42.6293 34.5132 42.6491 34.5406C42.8259 34.6692 43.0069 34.7622 43.1875 34.8668C44.1532 35.3774 45.0633 35.5268 46.0151 35.5268C47.9534 35.5268 49.1588 34.4951 49.1588 32.8347V32.8021C49.1588 31.2667 47.8006 30.7074 46.5257 30.3079L46.3593 30.2541C45.3971 29.9422 44.5669 29.6705 44.5669 29.0383V29.006C44.5669 28.4641 45.0532 28.0646 45.8036 28.0646C46.6372 28.0646 47.6272 28.3422 48.2664 28.6934C48.2664 28.6934 48.4547 28.815 48.5234 28.6333C48.5603 28.535 48.8847 27.6676 48.916 27.5703C48.9531 27.4686 48.8882 27.3918 48.8222 27.3522C48.0927 26.9076 47.0853 26.6053 46.0432 26.6053L45.8494 26.606C44.0744 26.606 42.8343 27.6794 42.8343 29.2148V29.2478C42.8343 30.8665 44.2029 31.3945 45.4812 31.7593L45.6865 31.8232C46.6209 32.1094 47.4233 32.3581 47.4233 33.0112V33.0438C47.4233 33.6448 46.8988 34.0929 46.0582 34.0929C45.7306 34.0929 44.6861 34.0873 43.5606 33.3738C43.4241 33.2943 43.3442 33.2394 43.2407 33.1727C43.2056 33.1505 43.042 33.0865 42.986 33.2602L42.6039 34.3232M61.9871 31.0718C61.9871 32.0097 61.812 32.7496 61.4695 33.2741C61.1277 33.7917 60.6115 34.0453 59.8925 34.0453C59.1734 34.0453 58.6593 33.7938 58.3224 33.2776C57.983 32.7565 57.8117 32.0132 57.8117 31.0753C57.8117 30.1374 57.984 29.401 58.3224 28.8834C58.6586 28.3693 59.1699 28.1227 59.8925 28.1227C60.615 28.1227 61.1291 28.3717 61.4695 28.8834C61.8141 29.401 61.9871 30.1374 61.9871 31.0753M63.6058 29.335C63.4464 28.7965 63.1994 28.3241 62.8694 27.9281C62.5391 27.5321 62.1226 27.2125 61.6258 26.9833C61.1326 26.7523 60.549 26.6359 59.889 26.6359C59.229 26.6359 58.6489 26.753 58.1522 26.9833C57.6589 27.2139 57.2386 27.5321 56.9086 27.9281C56.5793 28.3241 56.3319 28.7965 56.1722 29.335C56.0141 29.8699 55.9339 30.4535 55.9339 31.0753C55.9339 31.6971 56.0141 32.2807 56.1722 32.8156C56.3309 33.354 56.5786 33.8264 56.9086 34.2224C57.2389 34.6184 57.6589 34.9345 58.1522 35.1603C58.6489 35.3854 59.2325 35.5001 59.889 35.5001C60.5455 35.5001 61.1291 35.3854 61.6224 35.1603C62.1156 34.9352 62.5359 34.6184 62.8659 34.2224C63.1956 33.8264 63.4426 33.354 63.6024 32.8156C63.7601 32.2807 63.8403 31.6971 63.8403 31.0753C63.8403 30.457 63.7601 29.8699 63.6024 29.335M76.9066 33.7813C76.8534 33.6239 76.6999 33.6833 76.6999 33.6833C76.4647 33.7733 76.2136 33.8567 75.9461 33.8983C75.6765 33.9407 75.3764 33.9619 75.0603 33.9619C74.2787 33.9619 73.6535 33.7288 73.2088 33.2672C72.7607 32.8052 72.5106 32.0618 72.5141 31.0544C72.5165 30.1374 72.7382 29.4496 73.1359 28.9216C73.5284 28.4005 74.1328 28.1296 74.9318 28.1296C75.5987 28.1296 76.1094 28.2071 76.6443 28.3745C76.6443 28.3745 76.7711 28.4297 76.8319 28.2626C76.974 27.8701 77.0789 27.5887 77.2314 27.158C77.2744 27.0347 77.1688 26.9826 77.1303 26.9677C76.9205 26.8857 76.4251 26.7512 76.05 26.6946C75.6991 26.6411 75.2927 26.6133 74.8342 26.6133C74.1533 26.6133 73.5489 26.7297 73.0313 26.9604C72.5138 27.1907 72.0761 27.5092 71.7287 27.9052C71.3813 28.3012 71.1173 28.7736 70.9402 29.312C70.7648 29.847 70.6762 30.434 70.6762 31.0558C70.6762 32.3967 71.0374 33.4839 71.753 34.2794C72.4686 35.0784 73.5454 35.4813 74.9488 35.4813C75.779 35.4813 76.6301 35.3135 77.2414 35.0714C77.2414 35.0714 77.3582 35.0151 77.3074 34.879L76.908 33.7813M79.739 30.1687C79.8165 29.6476 79.9593 29.2134 80.1837 28.8764C80.5196 28.3623 81.0312 28.081 81.7503 28.081C82.4693 28.081 82.9452 28.3637 83.2856 28.8764C83.5114 29.2151 83.6101 29.665 83.6469 30.1687L79.7216 30.168L79.739 30.1687ZM85.1927 29.0223C85.0548 28.5048 84.7133 27.9802 84.491 27.7405C84.1367 27.3619 83.7928 27.0944 83.4489 26.9485C82.9524 26.7374 82.4183 26.6291 81.8788 26.63C81.1945 26.63 80.5727 26.7457 80.069 26.9809C79.5653 27.2178 79.1415 27.5401 78.8081 27.9431C78.4749 28.346 78.2245 28.8219 78.0647 29.3673C77.9049 29.9057 77.8243 30.4962 77.8243 31.1145C77.8243 31.7467 77.908 32.3338 78.0727 32.8653C78.2391 33.4002 78.5069 33.8692 78.8682 34.2582C79.2294 34.6507 79.6914 34.9564 80.2472 35.1718C80.7995 35.3854 81.47 35.4962 82.2376 35.4938C83.8216 35.4886 84.6553 35.136 84.9957 34.945C85.0565 34.9109 85.1139 34.8522 85.0423 34.6831L84.6845 33.6792C84.6296 33.5294 84.4782 33.5836 84.4782 33.5836C84.0856 33.7302 83.5298 33.9935 82.2272 33.99C81.3762 33.9887 80.7474 33.7375 80.3514 33.3439C79.9485 32.941 79.747 32.3539 79.7157 31.5203L85.2042 31.5244C85.2042 31.5244 85.3487 31.523 85.3636 31.382C85.3695 31.3237 85.5515 30.2565 85.2 29.0234L85.1927 29.0223ZM35.8664 30.1687C35.9439 29.6476 36.087 29.2134 36.311 28.8764C36.6473 28.3623 37.1586 28.081 37.8776 28.081C38.5967 28.081 39.0726 28.3637 39.413 28.8764C39.6385 29.2151 39.7371 29.665 39.7743 30.1687L35.849 30.168L35.8664 30.1687ZM41.3201 29.0223C41.1825 28.5048 40.8407 27.9802 40.6184 27.7405C40.2641 27.3619 39.9202 27.0944 39.5763 26.9485C39.0798 26.7374 38.5457 26.6291 38.0062 26.63C37.3219 26.63 36.7001 26.7457 36.1964 26.9809C35.6927 27.2178 35.2689 27.5401 34.9354 27.9431C34.603 28.346 34.3519 28.8219 34.1921 29.3673C34.0326 29.9057 33.9524 30.4962 33.9524 31.1145C33.9524 31.7467 34.0354 32.3338 34.2011 32.8653C34.3671 33.4002 34.6353 33.8692 34.9931 34.2582C35.3544 34.6507 35.8164 34.9564 36.3722 35.1718C36.9245 35.3854 37.5914 35.4962 38.3626 35.4938C39.9466 35.4886 40.7803 35.136 41.1207 34.945C41.1811 34.9109 41.2388 34.8522 41.1669 34.6831L40.8091 33.6792C40.7539 33.5294 40.6024 33.5836 40.6024 33.5836C40.2099 33.7302 39.6541 33.9935 38.3515 33.99C37.5039 33.9887 36.8717 33.7375 36.4757 33.3439C36.0727 32.941 35.8713 32.3539 35.84 31.5203L41.3284 31.5244C41.3284 31.5244 41.4729 31.523 41.4879 31.382C41.4938 31.3237 41.6758 30.2565 41.3239 29.0234L41.3201 29.0223ZM24.0211 33.7465C23.8061 33.5749 23.7762 33.5329 23.705 33.4214C23.5963 33.2536 23.5407 33.015 23.5407 32.7093C23.5407 32.2299 23.7005 31.8826 24.0305 31.6498C24.027 31.6505 24.5029 31.2399 25.6215 31.2538C26.1193 31.2627 26.616 31.3051 27.1082 31.3806V33.8713H27.1089C27.1089 33.8713 26.4141 34.021 25.6291 34.0682C24.514 34.1353 24.0208 33.7472 24.0243 33.7483L24.0211 33.7465ZM26.2026 29.8908C25.9803 29.8744 25.692 29.8664 25.3481 29.8664C24.8791 29.8664 24.4241 29.9248 24.0003 30.0394C23.573 30.1548 23.1874 30.3333 22.8574 30.5709C22.5265 30.807 22.2544 31.116 22.062 31.4741C21.8678 31.8353 21.7688 32.2591 21.7688 32.7385C21.7688 33.2248 21.8532 33.6451 22.0199 33.989C22.1833 34.3301 22.4293 34.625 22.7355 34.847C23.0402 35.0686 23.4164 35.2326 23.8506 35.3299C24.2813 35.4282 24.7676 35.4778 25.3026 35.4778C25.8653 35.4778 26.4246 35.4306 26.9665 35.3392C27.428 35.2596 27.8878 35.1702 28.3455 35.0711C28.5282 35.029 28.7311 34.9738 28.7311 34.9738C28.8666 34.9394 28.8561 34.7946 28.8561 34.7946L28.853 29.7924C28.853 28.6948 28.5598 27.8785 27.9811 27.3748C27.4045 26.8711 26.5604 26.6175 25.4662 26.6175C25.0563 26.6175 24.3928 26.6731 23.9968 26.7526C23.9968 26.7526 22.8019 26.9847 22.3086 27.3709C22.3086 27.3709 22.2002 27.4376 22.2593 27.5887L22.6483 28.6309C22.6966 28.766 22.8283 28.7198 22.8283 28.7198C22.8283 28.7198 22.8696 28.7035 22.9182 28.6746C23.9708 28.1015 25.3047 28.1188 25.3047 28.1188C25.8952 28.1188 26.3537 28.2387 26.6594 28.4731C26.9585 28.7028 27.111 29.0498 27.111 29.7793V30.0109C26.642 29.9429 26.2078 29.9036 26.2078 29.9036L26.2026 29.8908ZM70.3184 27.0667C70.3263 27.0483 70.3304 27.0286 70.3305 27.0087C70.3307 26.9887 70.3268 26.9689 70.3191 26.9505C70.3114 26.9321 70.3001 26.9155 70.2858 26.9015C70.2716 26.8876 70.2546 26.8766 70.2361 26.8693C70.1426 26.8339 69.6768 26.7356 69.319 26.7134C68.6312 26.6703 68.2491 26.7863 67.9052 26.9406C67.5655 27.0937 67.1896 27.34 66.9812 27.6249L66.9805 26.9579C66.9805 26.8662 66.9156 26.7922 66.8232 26.7922H65.4198C65.3288 26.7922 65.2628 26.8662 65.2628 26.9579V35.1211C65.2629 35.1652 65.2804 35.2075 65.3116 35.2386C65.3428 35.2698 65.3851 35.2874 65.4292 35.2875H66.8673C66.9114 35.2874 66.9536 35.2698 66.9847 35.2386C67.0158 35.2074 67.0333 35.1652 67.0333 35.1211V31.0221C67.0333 30.4733 67.0938 29.9279 67.2143 29.584C67.3331 29.244 67.4946 28.9727 67.6937 28.7781C67.8836 28.5903 68.1159 28.4508 68.371 28.3717C68.6105 28.303 68.8584 28.2682 69.1075 28.2682C69.394 28.2682 69.7084 28.3418 69.7084 28.3418C69.814 28.3537 69.8727 28.289 69.9085 28.1939C70.0026 27.9434 70.2698 27.1934 70.3219 27.0441" fill="#FFFFFE"/>
<path fill-rule="evenodd" clip-rule="evenodd" d="M56.885 23.2997C56.7072 23.246 56.5264 23.2031 56.3434 23.1712C56.0974 23.1301 55.8481 23.1108 55.5987 23.1135C54.6076 23.1135 53.8264 23.3935 53.2779 23.9465C52.7332 24.4954 52.3626 25.3315 52.1767 26.4316L52.1097 26.8029H50.8658C50.8658 26.8029 50.714 26.7967 50.682 26.9624L50.4778 28.1017C50.4635 28.2108 50.5104 28.2789 50.6563 28.2782H51.8672L50.6386 35.1363C50.5424 35.6886 50.4323 36.143 50.3103 36.4872C50.1901 36.8269 50.0727 37.0816 49.9282 37.2664C49.7882 37.4453 49.6555 37.5769 49.4266 37.6537C49.2377 37.7172 49.0202 37.7464 48.7819 37.7464C48.6492 37.7464 48.4728 37.7242 48.3425 37.6981C48.2122 37.6724 48.1445 37.6433 48.0469 37.6023C48.0469 37.6023 47.9048 37.5481 47.8489 37.6905C47.8034 37.8069 47.4807 38.6944 47.4425 38.8042C47.4036 38.9125 47.4581 38.998 47.5269 39.0227C47.688 39.0803 47.8079 39.1171 48.0274 39.1689C48.3324 39.2408 48.5895 39.2453 48.8302 39.2453C49.3346 39.2453 49.7941 39.1745 50.1752 39.0369C50.5587 38.8983 50.8925 38.6569 51.1878 38.33C51.507 37.9774 51.7078 37.6082 51.8999 37.1045C52.0899 36.6053 52.2518 35.9856 52.3813 35.2634L53.6159 28.2782H55.4208C55.4208 28.2782 55.573 28.2838 55.6046 28.1188L55.8088 26.9794C55.8231 26.8703 55.7765 26.8022 55.6299 26.8029H53.8782C53.8868 26.7633 53.9664 26.1471 54.1675 25.567C54.2533 25.3193 54.4148 25.1196 54.5517 24.9824C54.6795 24.8517 54.8369 24.7537 55.0106 24.6968C55.201 24.638 55.3994 24.6094 55.5987 24.6121C55.7637 24.6121 55.9255 24.6319 56.0489 24.6576C56.2187 24.6937 56.2847 24.7128 56.3292 24.726C56.5077 24.7806 56.5317 24.7278 56.5668 24.6413L56.9857 23.4908C57.0288 23.3671 56.9239 23.315 56.885 23.2997ZM32.4045 35.1509C32.4045 35.2426 32.3392 35.3173 32.2475 35.3173H30.7945C30.7024 35.3173 30.6371 35.2426 30.6371 35.1509V23.4557C30.6371 23.3643 30.7024 23.2903 30.7945 23.2903H32.2475C32.3392 23.2903 32.4045 23.3643 32.4045 23.4557V35.1509Z" fill="#FFFFFE"/>
</svg>
