<svg width="178" height="37" viewBox="0 0 178 37" fill="none" xmlns="http://www.w3.org/2000/svg">
<path d="M164.43 0.575684C160.28 0.583 157.1 1.66671 154.984 3.79593C152.53 6.27031 152.177 9.44481 152.185 11.1168C152.201 18.6728 157.079 19.884 162.246 21.1681L165.686 22.0085C169.164 22.8914 171.279 23.6013 171.293 26.0403C171.289 29.5354 167.874 30.2724 165.009 30.2724H164.841H164.72C159.257 30.2724 158.37 26.9381 158.325 24.9504L158.319 24.8036H151.724V25.0037C151.729 28.4305 153.066 36.4061 165.301 36.4061H165.365C167.457 36.4 177.904 35.8369 177.892 25.1942C177.881 18.9979 173.663 17.0759 169.538 16.0137L161.838 13.9939C160.285 13.6025 158.627 12.9856 158.612 10.6003C158.627 7.73199 161.367 6.70938 163.951 6.70938C167.827 6.72157 169.937 8.37651 170.232 11.635L170.243 11.7722L176.864 11.7686L176.861 11.6161C176.779 6.52469 173.48 0.575684 164.43 0.575684ZM108.857 0.69001C105.294 0.688789 102.413 3.48959 102.409 6.91518V31.7955C102.404 33.6455 103.949 35.6329 105.85 35.6427C106.199 35.6036 106.525 35.6427 106.525 35.6427H124.391V29.2898H108.883V6.92166L109.142 6.91064L111.454 18.6999L117.254 17.3069L115.452 6.80018C115.224 3.2807 112.456 0.698517 108.857 0.6912L108.857 0.69001ZM12.8175 0.737648C8.70534 0.737648 5.5483 1.81177 3.4349 3.93133C0.958085 6.41424 0.596621 9.60662 0.601499 11.2883C0.629548 18.8383 5.54573 20.0394 10.7481 21.315L14.1285 22.1819C17.4919 23.0063 19.6977 23.7334 19.7001 26.2272C19.7038 27.3126 19.3677 28.2019 18.7055 28.8702C17.6811 29.9007 15.8152 30.4487 13.3054 30.4536C7.48594 30.4317 6.79192 26.7224 6.76387 25.1297L6.76009 24.9811L0.136719 24.9713V25.1218C0.163548 28.5621 1.54684 36.5623 13.7891 36.5757C15.8866 36.5647 26.3487 35.9698 26.339 25.3772C26.3146 19.1699 22.303 17.2695 17.9701 16.1415L10.2797 14.1025C8.998 13.7903 7.05802 13.3174 7.03851 10.7527C7.04826 7.89663 9.76312 6.877 12.3033 6.877H12.3681C18.1266 6.88066 18.5348 10.5742 18.6848 11.9132H18.7H25.2929C25.2783 10.7864 24.8143 0.737499 12.8869 0.737499L12.8175 0.737648ZM25.7174 1.49604L25.7003 7.87365H35.22V35.6418H42.1387V7.87365H51.6108L51.5841 1.49604H25.7174ZM56.2562 1.49604L45.0121 35.6421H52.2605L54.4614 28.6453H65.8562L67.8588 35.6421H75.3398L64.1298 1.49604H64.0974H56.2562ZM76.5305 1.49604V35.6421H83.4569V23.4528L90.8674 23.4281C93.7661 23.4207 96.1263 22.5179 97.8775 20.7509C100.223 18.3887 101.039 14.8262 101.027 12.4945C101.002 5.74943 97.1891 1.49604 91.0636 1.49604H76.5305ZM125.694 1.49604V35.6421H149.952V29.2683H132.469V20.8461H147.824V14.5581L132.469 14.5734V7.76319H149.163L149.157 1.49604H125.694ZM83.4573 7.69256H88.4897H88.5678C92.5325 7.69256 94.1498 8.99573 94.1546 12.1933C94.1632 13.0616 94.1879 14.8733 92.9904 16.0842C92.2014 16.8842 90.9967 17.2904 89.4004 17.2904L83.4573 17.2977L83.4573 7.69256ZM60.1318 9.73901L63.9161 22.5474H56.277L60.1318 9.73901Z" fill="white"/>
</svg>
