<svg width="177" height="177" viewBox="0 0 177 177" fill="none" xmlns="http://www.w3.org/2000/svg">
<circle cx="88.5" cy="88.5" r="88.5" fill="#4353FF"/>
<path d="M48 114.77H128.574V114.997C128.574 117.311 126.681 119.203 124.368 119.203H52.2061C49.8924 119.203 48 117.311 48 114.997V114.77ZM89.0712 53.3844C89.6937 53.7415 90.4872 53.5277 90.8452 52.9053L92.5533 49.9468C92.9104 49.3244 92.6967 48.5309 92.0742 48.1729C91.4517 47.8158 90.6582 48.0295 90.3002 48.652L88.5921 51.6104C88.2341 52.2329 88.4487 53.0273 89.0712 53.3844ZM91.929 56.2484C92.2897 56.8709 93.0858 57.0828 93.7083 56.7221L96.6667 55.0141C97.2892 54.6534 97.5012 53.8573 97.1405 53.2356C96.7798 52.6132 95.9837 52.4012 95.3612 52.7619L92.4028 54.4699C91.7812 54.8297 91.5692 55.6259 91.929 56.2484ZM92.9727 60.1543C92.9727 60.8748 93.5569 61.459 94.2774 61.459H97.6926C98.4131 61.459 98.9973 60.8748 98.9973 60.1543C98.9973 59.4339 98.4131 58.8497 97.6926 58.8497H94.2774C93.5569 58.8497 92.9727 59.4339 92.9727 60.1543ZM104.99 121.813H71.5835L67.9679 128.017C67.6945 128.485 68.0641 129 68.5325 129H108.04C108.508 129 108.878 128.486 108.605 128.017L104.99 121.813ZM55.4129 77.3286C56.4041 79.0455 58.3054 79.9263 60.1649 79.7188L55.7193 72.0191C54.6097 73.5241 54.4218 75.6116 55.4129 77.3286ZM128.573 64.3613V112.161H121.949V83.6586C121.949 83.1198 121.509 82.6799 120.971 82.6799H116.31C115.771 82.6799 115.331 83.1198 115.331 83.6586V112.161H110.392V94.3291C110.392 93.7904 109.952 93.3504 109.413 93.3504H104.753C104.214 93.3504 103.774 93.7904 103.774 94.3291V112.161H98.8352V88.8354C98.8352 88.2966 98.3953 87.8566 97.8565 87.8566H93.1954C92.6566 87.8566 92.2167 88.2966 92.2167 88.8354V112.161H87.2777V101.61C87.2777 101.071 86.8377 100.632 86.299 100.632H81.6378C81.099 100.632 80.6591 101.071 80.6591 101.61V112.16H48V64.3613C48 62.0476 49.8933 60.1552 52.2061 60.1552H64.1011L62.7021 61.6852L57.2662 64.8235C55.6561 65.7532 54.7673 67.4639 54.8011 69.2068C52.101 71.4892 51.3271 75.4718 53.1527 78.6341C54.9783 81.7973 58.8148 83.1171 62.141 81.9202C63.1215 82.5116 64.2899 82.752 65.4325 82.5828L69.2832 89.253C70.3109 91.0332 72.6014 91.6468 74.3816 90.6191L76.4023 89.4525C78.1825 88.4248 78.7961 86.1343 77.7684 84.3541L74.3603 78.4507L85.6934 75.95C87.3204 77.0685 89.5156 77.2306 91.3323 76.1815C93.8472 74.7299 94.7155 71.4875 93.2639 68.9725L91.0242 65.0924C91.4374 64.5643 91.7794 63.9846 92.0439 63.3683C92.678 63.81 93.4474 64.0683 94.2774 64.0683H97.6926C99.854 64.0683 101.607 62.3148 101.607 60.1534H124.367C126.681 60.1543 128.573 62.0476 128.573 64.3613ZM75.6311 105.303C75.6311 104.583 75.0469 103.999 74.3264 103.999H55.8796C55.1591 103.999 54.5749 104.583 54.5749 105.303C54.5749 106.024 55.1591 106.608 55.8796 106.608H74.3255C75.0469 106.608 75.6311 106.024 75.6311 105.303ZM55.8796 101.224H74.3255C75.0433 101.224 75.6248 100.642 75.6248 99.9245C75.6248 99.2067 75.0433 98.6243 74.3255 98.6243H55.8796C55.1618 98.6243 54.5803 99.2058 54.5803 99.9236C54.5803 100.641 55.1618 101.224 55.8796 101.224ZM75.6311 94.5447C75.6311 93.8242 75.0469 93.24 74.3264 93.24H55.8796C55.1591 93.24 54.5749 93.8242 54.5749 94.5447C54.5749 95.2651 55.1591 95.8493 55.8796 95.8493H74.3255C75.0469 95.8502 75.6311 95.266 75.6311 94.5447ZM119.199 73.1403L114.326 72.9105C113.609 72.8767 112.999 73.4315 112.966 74.1493C112.932 74.8671 113.487 75.4762 114.204 75.5101L115.803 75.5858L106.953 83.7565L96.2731 76.5992C95.7076 76.2011 94.923 76.316 94.4965 76.869L82.9389 91.8944C82.4999 92.4626 82.605 93.2801 83.1731 93.7191C83.7413 94.1582 84.5588 94.0531 84.9979 93.4849L95.8136 79.4222L106.359 86.4888C106.868 86.8298 107.531 86.763 107.963 86.365L117.197 77.8415L116.985 79.009C116.859 79.7152 117.329 80.3912 118.035 80.5176C118.742 80.6441 119.418 80.1739 119.544 79.4677L120.403 74.7353C120.587 73.9489 120.012 73.1786 119.199 73.1403ZM90.0615 60.3075C90.0615 57.586 87.9572 55.356 85.2873 55.1566L89.553 62.5454C89.879 61.8677 90.0615 61.109 90.0615 60.3075ZM83.8027 73.6951L72.7546 54.559L65.2758 62.7369L72.9808 76.0827L83.8027 73.6951ZM73.077 88.3589L75.0976 87.1923C75.6328 86.8833 75.8172 86.1949 75.5082 85.6588L71.8293 79.286L67.8646 81.5747L71.5434 87.9475C71.8525 88.4836 72.5418 88.6679 73.077 88.3589ZM65.8653 79.717L70.5255 77.0267L63.2311 64.3924L58.5708 67.0828C57.4603 67.724 57.0783 69.1524 57.7186 70.2621L62.6852 78.8639C63.3264 79.9753 64.7548 80.3582 65.8653 79.717ZM86.3836 72.9453C87.1174 74.2161 88.7569 74.6551 90.0277 73.9222C91.2985 73.1884 91.7375 71.5489 91.0046 70.2781L79.3153 50.0315C78.5815 48.7606 76.942 48.3216 75.6711 49.0554C74.4003 49.7892 73.9613 51.4287 74.6951 52.6995L86.3836 72.9453Z" fill="white"/>
</svg>
