<svg width="24" height="14" viewBox="0 0 24 14" fill="none" xmlns="http://www.w3.org/2000/svg">
<path d="M6.59751 5.08445C6.59751 5.37254 6.62865 5.60613 6.68316 5.77743C6.74545 5.94873 6.82331 6.1356 6.93232 6.33804C6.97125 6.40033 6.98682 6.46262 6.98682 6.51713C6.98682 6.59499 6.9401 6.67285 6.83888 6.75071L6.34834 7.07774C6.27827 7.12446 6.20819 7.14782 6.1459 7.14782C6.06804 7.14782 5.99018 7.10888 5.91231 7.03881C5.8033 6.92201 5.70987 6.79743 5.63201 6.67285C5.55414 6.54048 5.47628 6.39255 5.39063 6.21346C4.7833 6.9298 4.02024 7.28797 3.10146 7.28797C2.44741 7.28797 1.92573 7.1011 1.5442 6.72736C1.16267 6.35361 0.968018 5.85529 0.968018 5.23239C0.968018 4.57055 1.20161 4.0333 1.67657 3.62841C2.15153 3.22352 2.78222 3.02108 3.58421 3.02108C3.84895 3.02108 4.12147 3.04444 4.40956 3.08337C4.69765 3.1223 4.99353 3.18459 5.30498 3.25467V2.68627C5.30498 2.09451 5.1804 1.68184 4.93903 1.44046C4.68986 1.19909 4.2694 1.08229 3.66986 1.08229C3.39734 1.08229 3.11703 1.11344 2.82894 1.18352C2.54085 1.25359 2.26054 1.33924 1.98802 1.44825C1.86344 1.50275 1.77001 1.5339 1.7155 1.54947C1.661 1.56504 1.62207 1.57283 1.59092 1.57283C1.48191 1.57283 1.42741 1.49497 1.42741 1.33146V0.949928C1.42741 0.825347 1.44298 0.731911 1.48191 0.677407C1.52084 0.622903 1.59092 0.568399 1.69993 0.513895C1.97245 0.373742 2.29947 0.256948 2.681 0.163512C3.06253 0.0622903 3.46742 0.0155726 3.89566 0.0155726C4.82223 0.0155726 5.49964 0.225802 5.93567 0.646262C6.36392 1.06672 6.58193 1.7052 6.58193 2.56169V5.08445H6.59751ZM3.43627 6.26796C3.69322 6.26796 3.95795 6.22125 4.23826 6.12781C4.51857 6.03438 4.76773 5.86308 4.97796 5.62949C5.10254 5.48155 5.19597 5.31804 5.24269 5.13117C5.28941 4.94429 5.32055 4.71849 5.32055 4.45376V4.12673C5.09475 4.07223 4.85338 4.02551 4.60422 3.99437C4.35505 3.96322 4.11368 3.94765 3.8723 3.94765C3.35062 3.94765 2.96909 4.04887 2.71215 4.2591C2.4552 4.46933 2.33062 4.76521 2.33062 5.15453C2.33062 5.52048 2.42405 5.793 2.61871 5.97987C2.80558 6.17453 3.0781 6.26796 3.43627 6.26796ZM9.68866 7.10888C9.54851 7.10888 9.45508 7.08553 9.39279 7.03102C9.33049 6.9843 9.27599 6.8753 9.22927 6.72736L7.39949 0.708552C7.35278 0.552827 7.32942 0.451605 7.32942 0.397101C7.32942 0.27252 7.39171 0.202444 7.51629 0.202444H8.27935C8.42728 0.202444 8.52851 0.225802 8.58301 0.280306C8.6453 0.327024 8.69202 0.436032 8.73874 0.583972L10.0468 5.7385L11.2615 0.583972C11.3004 0.428246 11.3471 0.327024 11.4094 0.280306C11.4717 0.233589 11.5807 0.202444 11.7209 0.202444H12.3438C12.4917 0.202444 12.5929 0.225802 12.6552 0.280306C12.7175 0.327024 12.772 0.436032 12.8032 0.583972L14.0334 5.80079L15.3804 0.583972C15.4272 0.428246 15.4817 0.327024 15.5362 0.280306C15.5985 0.233589 15.6997 0.202444 15.8398 0.202444H16.564C16.6885 0.202444 16.7586 0.264734 16.7586 0.397101C16.7586 0.436032 16.7508 0.474964 16.743 0.521682C16.7353 0.568399 16.7197 0.63069 16.6885 0.716339L14.812 6.73514C14.7653 6.89087 14.7108 6.99209 14.6485 7.03881C14.5862 7.08553 14.485 7.11667 14.3527 7.11667H13.683C13.5351 7.11667 13.4339 7.09331 13.3716 7.03881C13.3093 6.9843 13.2548 6.88308 13.2236 6.72736L12.0168 1.7052L10.8177 6.71957C10.7787 6.8753 10.732 6.97652 10.6697 7.03102C10.6074 7.08553 10.4984 7.10888 10.3583 7.10888H9.68866ZM19.694 7.31911C19.2892 7.31911 18.8843 7.2724 18.495 7.17896C18.1056 7.08553 17.802 6.9843 17.5995 6.86751C17.475 6.79743 17.3893 6.71957 17.3582 6.64949C17.327 6.57942 17.3114 6.50155 17.3114 6.43148V6.03438C17.3114 5.87086 17.3737 5.793 17.4905 5.793C17.5372 5.793 17.584 5.80079 17.6307 5.81636C17.6774 5.83193 17.7475 5.86308 17.8253 5.89422C18.0901 6.01102 18.3782 6.10445 18.6818 6.16674C18.9933 6.22903 19.2969 6.26018 19.6084 6.26018C20.0989 6.26018 20.4805 6.17453 20.7452 6.00323C21.0099 5.83193 21.1501 5.58277 21.1501 5.26353C21.1501 5.04552 21.08 4.86643 20.9399 4.71849C20.7997 4.57055 20.535 4.43819 20.1534 4.31361L19.0244 3.96322C18.456 3.78414 18.0356 3.5194 17.7786 3.16902C17.5217 2.82642 17.3893 2.4449 17.3893 2.04001C17.3893 1.71298 17.4594 1.42489 17.5995 1.17573C17.7397 0.926569 17.9266 0.708552 18.1601 0.537254C18.3937 0.358169 18.6585 0.225802 18.9699 0.132367C19.2814 0.0389314 19.6084 0 19.951 0C20.1223 0 20.3014 0.00778629 20.4727 0.0311452C20.6518 0.054504 20.8153 0.0856492 20.9788 0.116794C21.1345 0.155726 21.2824 0.194657 21.4226 0.241375C21.5628 0.288093 21.6718 0.334811 21.7496 0.381528C21.8586 0.443819 21.9365 0.506109 21.9832 0.576186C22.0299 0.638476 22.0533 0.724125 22.0533 0.833133V1.19909C22.0533 1.3626 21.991 1.44825 21.8742 1.44825C21.8119 1.44825 21.7107 1.4171 21.5783 1.35481C21.1345 1.15237 20.6362 1.05115 20.0834 1.05115C19.6395 1.05115 19.2892 1.12123 19.0478 1.26917C18.8064 1.4171 18.6818 1.64291 18.6818 1.96215C18.6818 2.18016 18.7597 2.36703 18.9154 2.51497C19.0711 2.66291 19.3592 2.81085 19.7719 2.94322L20.8776 3.2936C21.4382 3.47269 21.8431 3.72185 22.0844 4.04109C22.3258 4.36032 22.4426 4.72628 22.4426 5.13117C22.4426 5.46598 22.3725 5.76964 22.2402 6.03438C22.1 6.29911 21.9131 6.5327 21.6718 6.71957C21.4304 6.91423 21.1423 7.05438 20.8075 7.1556C20.4571 7.26461 20.0911 7.31911 19.694 7.31911Z" fill="white"/>
<path fill-rule="evenodd" clip-rule="evenodd" d="M21.1656 11.104C18.6039 12.996 14.8821 14.0005 11.6819 14.0005C7.19703 14.0005 3.15594 12.342 0.103715 9.58565C-0.13766 9.36763 0.0803558 9.07176 0.368449 9.24305C3.66984 11.1585 7.74207 12.3186 11.9544 12.3186C14.7964 12.3186 17.9188 11.7269 20.7919 10.5122C21.2201 10.3176 21.5861 10.7925 21.1656 11.104Z" fill="white"/>
<path fill-rule="evenodd" clip-rule="evenodd" d="M22.2324 9.88879C21.9054 9.46833 20.0678 9.68634 19.2347 9.78757C18.9855 9.81871 18.9466 9.6007 19.1724 9.43718C20.6362 8.40939 23.0422 8.70527 23.3225 9.04787C23.6028 9.39825 23.2446 11.8042 21.8743 12.9566C21.664 13.1357 21.4616 13.0422 21.555 12.8086C21.8665 12.0378 22.5595 10.3015 22.2324 9.88879Z" fill="white"/>
</svg>
