<svg width="16" height="18" viewBox="0 0 16 18" fill="none" xmlns="http://www.w3.org/2000/svg">
<path d="M9.3948 18.0002C9.99664 18.0002 10.5215 17.4754 10.5215 16.8735V14.2422H11.2738C11.7252 14.2422 12.0261 13.9413 12.0261 13.4899V5.97461H3.00562V13.49C3.00562 13.9414 3.30654 14.2423 3.75792 14.2423H4.51028V16.8736C4.51028 17.4754 5.035 18.0003 5.63696 18.0003C6.23874 18.0003 6.76352 17.4754 6.76352 16.8736V14.2423H8.26818V16.8736C8.26812 17.4754 8.79296 18.0002 9.3948 18.0002Z" fill="white"/>
<path d="M13.905 13.49C14.5068 13.49 15.0316 12.9652 15.0316 12.3633V7.10081C15.0316 6.50215 14.5068 5.97461 13.905 5.97461C13.3031 5.97461 12.7783 6.50215 12.7783 7.10081V12.3633C12.7783 12.9652 13.303 13.49 13.905 13.49Z" fill="white"/>
<path d="M1.12656 13.49C1.72846 13.49 2.25324 12.9652 2.25324 12.3633V7.10081C2.25324 6.50215 1.72852 5.97461 1.12656 5.97461C0.524719 5.97461 0 6.50215 0 7.10081V12.3633C0 12.9652 0.524719 13.49 1.12656 13.49Z" fill="white"/>
<path d="M11.1233 0.113521C10.9729 -0.0378403 10.7489 -0.0378403 10.5985 0.113521L9.58953 1.11917L9.54298 1.16566C8.94468 0.866063 8.27389 0.716443 7.52687 0.715002C7.52321 0.715002 7.5196 0.714882 7.51594 0.714882H7.51582C7.51204 0.714882 7.50855 0.715002 7.50477 0.715002C6.75781 0.716443 6.08702 0.866063 5.48878 1.16566L5.44211 1.11917L4.43316 0.113521C4.28264 -0.0378403 4.05884 -0.0378403 3.90844 0.113521C3.75792 0.264041 3.75792 0.487419 3.90844 0.63782L4.88448 1.61404C4.56998 1.82402 4.2848 2.08098 4.03679 2.37487C3.44306 3.07864 3.06436 3.99456 3.01228 4.98693C3.0118 4.99726 3.01078 5.00748 3.0103 5.01781C3.00712 5.08538 3.00562 5.15331 3.00562 5.22148H12.0261C12.0261 5.15331 12.0245 5.08538 12.0214 5.01781C12.0209 5.00748 12.0199 4.99726 12.0193 4.98693C11.9673 3.99456 11.5885 3.07858 10.9948 2.37493C10.7469 2.08104 10.4616 1.82408 10.1471 1.6141L11.1233 0.63788C11.2738 0.487419 11.2738 0.264041 11.1233 0.113521ZM5.63552 3.90794C5.32427 3.90794 5.07194 3.65561 5.07194 3.34436C5.07194 3.03311 5.32427 2.78078 5.63552 2.78078C5.94677 2.78078 6.1991 3.03311 6.1991 3.34436C6.1991 3.65561 5.94677 3.90794 5.63552 3.90794ZM9.39618 3.90794C9.08493 3.90794 8.8326 3.65561 8.8326 3.34436C8.8326 3.03311 9.08493 2.78078 9.39618 2.78078C9.70744 2.78078 9.95976 3.03311 9.95976 3.34436C9.95976 3.65561 9.70744 3.90794 9.39618 3.90794Z" fill="white"/>
</svg>
