<svg width="20" height="17" viewBox="0 0 20 17" fill="none" xmlns="http://www.w3.org/2000/svg">
<path d="M7.07373 12.1055V13.288C7.07373 13.8316 8.37964 14.274 9.99308 14.274C11.6065 14.274 12.9183 13.8316 12.9183 13.288V12.1055C12.2062 12.5421 11.0466 12.7165 9.99308 12.7165C8.94538 12.7165 7.7792 12.543 7.07373 12.1055Z" fill="white"/>
<path d="M7.07373 9.875V11.0576C7.07373 11.6011 8.37964 12.0436 9.99308 12.0436C11.6065 12.0436 12.9183 11.6011 12.9183 11.0576V9.875C12.2062 10.3117 11.0466 10.486 9.99308 10.486C8.94538 10.486 7.7792 10.3125 7.07373 9.875Z" fill="white"/>
<path d="M7.07373 14.335V15.5175C7.07373 16.0611 8.37964 16.5035 9.99308 16.5035C11.6065 16.5035 12.9183 16.0611 12.9183 15.5175V14.335C12.2062 14.7716 11.0466 14.946 9.99308 14.946C8.94538 14.946 7.7792 14.7724 7.07373 14.335Z" fill="white"/>
<path d="M9.99641 7.8418C8.38129 7.8418 7.07117 8.28342 7.07117 8.82863C7.07117 9.37385 8.38038 9.81547 9.99641 9.81547C11.6115 9.81547 12.9217 9.37385 12.9217 8.82863C12.9217 8.28342 11.6124 7.8418 9.99641 7.8418Z" fill="white"/>
<path d="M18.443 8.44575C17.7357 8.44575 17.128 8.91697 16.9454 9.59789H14.9643C14.9594 9.59789 14.9553 9.60036 14.9504 9.60118C14.864 8.52965 14.438 7.55349 13.7777 6.7812C13.7826 6.77709 13.7892 6.77544 13.7933 6.77051L15.1954 5.36921C15.4339 5.50737 15.7004 5.58056 15.9701 5.58056C16.827 5.58056 17.5236 4.8832 17.5236 4.02712C17.5236 3.17104 16.8262 2.47367 15.9701 2.47367C15.114 2.47367 14.4167 3.17022 14.4167 4.02712C14.4167 4.29602 14.4899 4.56248 14.6288 4.80179L13.2267 6.20392C13.2218 6.20886 13.2209 6.21462 13.216 6.21955C12.4422 5.56084 11.4668 5.1365 10.3954 5.05097C10.3954 5.04439 10.3995 5.03863 10.3995 5.03205V3.05097C11.0804 2.86841 11.5516 2.26068 11.5516 1.55344C11.5516 0.697364 10.8543 0 9.9982 0C9.14212 0 8.44475 0.697364 8.44475 1.55344C8.44475 2.26068 8.91597 2.8684 9.59689 3.05097V5.03205C9.59689 5.03863 9.60018 5.04439 9.60101 5.05097C8.52948 5.13649 7.55331 5.56084 6.78039 6.21955C6.77628 6.21462 6.77464 6.20886 6.7697 6.20392L5.36756 4.80179C5.50654 4.5633 5.57973 4.29604 5.57973 4.02712C5.57973 3.17104 4.88237 2.47367 4.02629 2.47367C3.17021 2.47367 2.47284 3.17022 2.47284 4.02712C2.47284 4.8832 3.17021 5.58056 4.02629 5.58056C4.29519 5.58056 4.56165 5.50737 4.80096 5.36921L6.20309 6.77051C6.20721 6.77544 6.21379 6.77709 6.21872 6.7812C5.55837 7.55423 5.13237 8.52955 5.04603 9.60118C5.0411 9.60118 5.03699 9.59789 5.03205 9.59789H3.05097C2.86923 8.91697 2.26068 8.44575 1.55344 8.44575C0.696543 8.44575 0 9.14312 0 9.9992C0 10.8553 0.697364 11.5526 1.55344 11.5526C2.25986 11.5526 2.8684 11.0814 3.05097 10.4005H5.42843C5.65129 10.4005 5.83139 10.227 5.83139 10.0041C5.83139 7.70561 7.70145 5.83552 10 5.83552C12.2986 5.83552 14.1686 7.70557 14.1686 10.0041C14.1686 10.2262 14.3487 10.4005 14.5716 10.4005H16.949C17.1308 11.0814 17.7393 11.5526 18.4466 11.5526C19.3035 11.5526 20 10.8553 20 9.9992C20 9.14312 19.3026 8.44575 18.4466 8.44575H18.443Z" fill="white"/>
</svg>
