<svg width="20" height="17" viewBox="0 0 20 17" fill="none" xmlns="http://www.w3.org/2000/svg">
<path fill-rule="evenodd" clip-rule="evenodd" d="M2.11094 10.6866C2.15119 10.7269 2.17723 10.7837 2.17723 10.8461C2.17723 10.9084 2.15119 10.9652 2.11094 11.0055C2.0707 11.0457 2.01388 11.0717 1.95154 11.0717C1.8892 11.0717 1.83238 11.0457 1.79213 11.0055C1.75188 10.9652 1.72584 10.9084 1.72584 10.8461C1.72584 10.7837 1.75189 10.7269 1.79213 10.6866C1.83238 10.644 1.8892 10.6204 1.95154 10.6204C2.01388 10.6204 2.0707 10.644 2.11094 10.6866ZM3.90467 9.65839V15.5817C3.90467 15.8058 3.7208 15.9897 3.49669 15.9897H0.407983C0.18386 15.9897 0 15.8081 0 15.5817V9.65839C0 9.43427 0.181504 9.25041 0.407983 9.25041H3.49669C3.7216 9.25041 3.90467 9.43428 3.90467 9.65839ZM2.82432 10.8461C2.82432 10.6054 2.72726 10.3876 2.56786 10.2297C2.41003 10.0719 2.19222 9.97326 1.95153 9.97326C1.71084 9.97326 1.49304 10.0703 1.3352 10.2297C1.17737 10.3876 1.07873 10.6054 1.07873 10.8461C1.07873 11.0867 1.1758 11.3045 1.3352 11.4624C1.49303 11.6202 1.71084 11.7189 1.95153 11.7189C2.19222 11.7189 2.41002 11.6218 2.56786 11.4624C2.72726 11.3053 2.82432 11.0867 2.82432 10.8461ZM18.4446 11.0362L14.7941 11.9248C14.8849 12.1308 14.9275 12.3636 14.9054 12.6177C14.8651 13.0762 14.6086 13.4842 14.2243 13.7367C13.7958 14.0192 13.275 14.0745 12.7802 13.9648L7.97977 12.9247C7.82825 12.8923 7.73118 12.7408 7.76355 12.5869L7.77933 12.508C7.81169 12.3565 7.9632 12.2594 8.11473 12.2918L12.9168 13.3319C14.301 13.6325 14.8336 12.0211 13.4842 11.6226L8.33263 10.1098C7.41723 9.84148 6.57284 9.81466 5.6417 10.0269L4.5511 10.2755V14.7705L8.69881 15.9818C9.94092 16.3433 11.1206 16.2667 12.3067 15.7538L19.2102 12.7637C20.386 12.2547 20.3418 10.5754 18.4446 11.0362ZM14.3577 11.3677L15.8887 10.9936C15.6622 9.67258 14.5045 8.66007 13.1212 8.66007H12.2729V6.07641L13.0486 6.16716C13.6625 6.24213 14.372 5.81599 14.6245 5.2257L14.952 4.46182C14.9844 4.38527 14.9804 4.30399 14.9378 4.23376C14.8976 4.16115 14.8289 4.11854 14.7476 4.10828L13.8772 4.00333C13.2632 3.92836 12.5538 4.3545 12.3013 4.94479L12.2752 5.00555V3.14711L12.6832 2.60182C13.0549 2.10703 13.0407 1.28078 12.6548 0.76548L12.156 0.101011C12.1055 0.0347235 12.0345 0 11.9517 0C11.8688 0 11.7962 0.0363013 11.7473 0.101011L11.2217 0.801784C10.8524 1.29657 10.8642 2.12282 11.2501 2.63812L11.6281 3.14554V5.00397L11.6021 4.94321C11.3472 4.35135 10.6401 3.9268 10.0261 4.00175L9.15569 4.10671C9.07283 4.11697 9.00654 4.15958 8.96393 4.23218C8.92368 4.30478 8.91737 4.38606 8.94973 4.46024L9.27722 5.22413C9.53211 5.81599 10.2408 6.24054 10.8532 6.16559L11.6265 6.07484V8.65849H10.7798C9.97167 8.65849 9.24013 9.00572 8.72479 9.55575L13.6624 11.0062C13.9236 11.0851 14.162 11.2059 14.3577 11.3677Z" fill="white"/>
</svg>
