<svg width="19" height="21" viewBox="0 0 19 21" fill="none" xmlns="http://www.w3.org/2000/svg">
<path d="M1.76005 10.3228C1.83852 10.3227 1.91564 10.3021 1.98388 10.263C2.03552 10.2333 2.08084 10.1936 2.11723 10.1462C2.15363 10.0988 2.18039 10.0446 2.19598 9.98668C2.21157 9.92879 2.21567 9.86838 2.20806 9.80889C2.20045 9.7494 2.18128 9.69202 2.15163 9.64003C1.39512 8.31526 1.33307 7.22241 1.80923 6.39304C2.46463 5.25335 4.2732 4.83217 6.64754 5.26633C6.76544 5.28787 6.887 5.26141 6.98561 5.19274C7.08423 5.12407 7.1519 5.01877 7.1738 4.89989C7.18441 4.84089 7.18339 4.78036 7.17082 4.72176C7.15824 4.66316 7.13435 4.60763 7.1005 4.55835C7.06665 4.50907 7.02352 4.46701 6.97356 4.43456C6.92359 4.40211 6.86779 4.37991 6.80933 4.36924C5.46772 4.12432 4.23551 4.12896 3.2524 4.38315C2.22747 4.64801 1.45992 5.18469 1.02559 5.93614C0.382135 7.05821 0.441885 8.47482 1.36662 10.0932C1.40632 10.1631 1.46363 10.2211 1.53272 10.2615C1.60181 10.3018 1.68024 10.3229 1.76005 10.3228Z" fill="white"/>
<path d="M14.3621 5.22898C15.8352 5.24799 16.7659 5.65049 17.2311 6.44506C17.8803 7.55339 17.3462 9.28877 15.8023 11.0866C15.7468 11.1514 15.7111 11.2305 15.6996 11.3148C15.688 11.399 15.7011 11.4847 15.7372 11.5618C15.7733 11.6388 15.8309 11.7041 15.9033 11.7497C15.9757 11.7953 16.0597 11.8194 16.1455 11.8192C16.2107 11.8192 16.2753 11.8053 16.3346 11.7782C16.3939 11.7512 16.4466 11.7117 16.489 11.6625C17.3626 10.6452 17.9671 9.60071 18.2367 8.64225C18.5173 7.6462 18.4391 6.7312 18.0083 5.9991C17.3777 4.92247 16.1747 4.36242 14.3717 4.33888H14.3653C14.2462 4.33816 14.1317 4.38435 14.0469 4.46731C13.9622 4.55026 13.9142 4.66318 13.9135 4.78121C13.9127 4.89925 13.9594 5.01273 14.0431 5.0967C14.1268 5.18068 14.2407 5.22826 14.3599 5.22898H14.3621Z" fill="white"/>
<path d="M12.6484 17.5145C12.5468 17.4534 12.4253 17.4353 12.3105 17.464C12.1956 17.4927 12.0967 17.5659 12.0351 17.6678C11.2897 18.9102 10.3738 19.5944 9.45617 19.5944C8.16191 19.5944 6.91217 18.2531 6.10673 16.0057C6.06622 15.8936 5.98335 15.8022 5.87619 15.7514C5.76904 15.7007 5.64631 15.6947 5.53478 15.7347C5.47927 15.7544 5.42816 15.7849 5.38438 15.8245C5.34061 15.8641 5.30503 15.912 5.2797 15.9655C5.25437 16.019 5.23979 16.077 5.23679 16.1362C5.23379 16.1954 5.24243 16.2546 5.26221 16.3104C5.7165 17.5813 6.32842 18.6329 7.03392 19.3518C7.76578 20.0996 8.60348 20.4959 9.45617 20.4959C10.7 20.4959 11.8884 19.6571 12.802 18.1341C12.8324 18.0834 12.8525 18.0272 12.8612 17.9687C12.8699 17.9101 12.8671 17.8504 12.8528 17.793C12.8385 17.7356 12.8131 17.6816 12.778 17.6341C12.743 17.5866 12.6989 17.5466 12.6484 17.5163V17.5145Z" fill="white"/>
<path d="M17.5186 14.0453C17.2763 14.0441 17.0373 14.1025 16.823 14.2153C16.6087 14.3281 16.4257 14.4919 16.2901 14.6921C16.1546 14.8923 16.0707 15.1228 16.046 15.363C16.0213 15.6032 16.0565 15.8458 16.1484 16.0693C14.2328 16.9596 10.6582 16.288 7.35543 14.3973C5.84724 13.5344 4.50678 12.4861 3.4784 11.3661C3.39748 11.2785 3.28514 11.2263 3.16579 11.2207C3.04644 11.2152 2.92971 11.2567 2.84094 11.3364C2.79695 11.376 2.76125 11.4239 2.73593 11.4773C2.7106 11.5307 2.69613 11.5885 2.69336 11.6475C2.69059 11.7065 2.69957 11.7655 2.71979 11.821C2.74001 11.8765 2.77106 11.9275 2.81115 11.971C3.90139 13.1581 5.31701 14.2667 6.90494 15.1753C8.75088 16.2314 10.6752 16.939 12.4698 17.2212C13.0002 17.307 13.5365 17.3514 14.0738 17.3541C15.1333 17.3541 16.0444 17.1577 16.7552 16.7701C16.9498 16.8885 17.1693 16.9604 17.3965 16.9801C17.6237 16.9998 17.8524 16.9667 18.0646 16.8835C18.2768 16.8004 18.4668 16.6693 18.6196 16.5007C18.7724 16.332 18.8839 16.1304 18.9454 15.9116C19.0068 15.6928 19.0165 15.4628 18.9738 15.2396C18.931 15.0165 18.8369 14.8062 18.6988 14.6254C18.5607 14.4446 18.3825 14.2981 18.1781 14.1974C17.9736 14.0968 17.7485 14.0447 17.5205 14.0453H17.5186ZM17.5186 16.0843C17.3886 16.0843 17.2623 16.0406 17.1603 15.9601C17.1322 15.9215 17.0981 15.8874 17.0595 15.8592C16.98 15.7562 16.9379 15.6293 16.94 15.4993C16.9421 15.3694 16.9883 15.2439 17.071 15.1435C17.1537 15.043 17.2682 14.9733 17.3957 14.9458C17.5232 14.9184 17.6563 14.9347 17.7733 14.9922C17.8903 15.0497 17.9844 15.1449 18.0402 15.2624C18.096 15.3799 18.1102 15.5127 18.0806 15.6393C18.051 15.7659 17.9792 15.8788 17.877 15.9596C17.7748 16.0404 17.6482 16.0844 17.5177 16.0843H17.5186Z" fill="white"/>
<path d="M1.56109 14.0905C1.58716 13.1147 2.12881 11.9332 3.10186 10.7325C4.16274 9.4266 5.69528 8.16205 7.41767 7.16831C8.93877 6.29162 10.4004 5.7041 11.9041 5.38233C11.9628 5.37086 12.0185 5.34777 12.0682 5.31441C12.1179 5.28106 12.1604 5.2381 12.1933 5.18807C12.2262 5.13803 12.2489 5.08192 12.2599 5.023C12.271 4.96408 12.2703 4.90353 12.2577 4.84491C12.2452 4.78629 12.2212 4.73075 12.187 4.68156C12.1528 4.63236 12.1093 4.59049 12.0588 4.55839C12.0083 4.52629 11.952 4.50461 11.8931 4.49461C11.8341 4.4846 11.7738 4.48648 11.7156 4.50013C10.1213 4.84117 8.56913 5.46404 6.96751 6.38617C3.1165 8.60545 0.545955 11.8547 0.663068 14.3343C0.370031 14.5287 0.155558 14.8214 0.0580709 15.16C-0.039416 15.4987 -0.013546 15.8611 0.131046 16.1823C0.275638 16.5035 0.529505 16.7626 0.847165 16.9131C1.16482 17.0637 1.52552 17.0958 1.86463 17.0037C2.20375 16.9117 2.49912 16.7015 2.69784 16.4109C2.89655 16.1202 2.98562 15.768 2.9491 15.4175C2.91257 15.0669 2.75283 14.7408 2.49849 14.4977C2.24416 14.2545 1.91184 14.1102 1.56109 14.0905ZM1.4792 16.1381C1.36628 16.1373 1.25613 16.103 1.16263 16.0394C1.06914 15.9759 0.996484 15.886 0.953833 15.7811C0.911182 15.6762 0.900444 15.561 0.922971 15.4499C0.945498 15.3389 1.00028 15.2371 1.08042 15.1572C1.16055 15.0774 1.26245 15.0232 1.37326 15.0014C1.48408 14.9796 1.59884 14.9912 1.70309 15.0347C1.80734 15.0783 1.89641 15.1518 1.95907 15.2461C2.02172 15.3403 2.05516 15.4511 2.05516 15.5644C2.05443 15.717 1.99339 15.8632 1.88541 15.9707C1.77744 16.0783 1.63135 16.1385 1.4792 16.1381Z" fill="white"/>
<path d="M9.55256 2.96678C9.79035 2.96739 10.0248 2.91001 10.2357 2.79955C10.4466 2.6891 10.6278 2.52885 10.7637 2.33255C11.5804 2.86942 12.3158 3.93994 12.855 5.36913C13.4485 6.9485 13.7607 8.83098 13.7607 10.8131C13.7607 12.5206 13.5238 14.1358 13.0759 15.571C13.058 15.6275 13.0514 15.687 13.0566 15.746C13.0618 15.8051 13.0786 15.8625 13.1061 15.915C13.1334 15.9678 13.1709 16.0146 13.2164 16.0527C13.2618 16.0909 13.3143 16.1196 13.3708 16.1372C13.4845 16.1726 13.6075 16.1613 13.713 16.1059C13.8185 16.0506 13.898 15.9555 13.9342 15.8415C14.4099 14.3195 14.6614 12.6111 14.6614 10.8131C14.6614 8.64682 14.3067 6.59855 13.6356 4.88875C12.9778 3.2134 12.0775 2.02301 11.0271 1.437C11.018 1.14577 10.9239 0.863661 10.7565 0.625897C10.5891 0.388133 10.3557 0.20524 10.0856 0.100045C9.81551 -0.00515003 9.52059 -0.0279888 9.23766 0.0343793C8.95473 0.0967475 8.69633 0.24156 8.49469 0.450744C8.29306 0.659928 8.15714 0.924219 8.10388 1.21063C8.05062 1.49704 8.08239 1.79289 8.19522 2.06125C8.30805 2.32962 8.49695 2.55861 8.73834 2.71964C8.97973 2.88068 9.26292 2.96663 9.55256 2.96678ZM9.55256 0.915752C9.66524 0.916568 9.77516 0.950929 9.86846 1.0145C9.96176 1.07808 10.0343 1.16802 10.0768 1.27298C10.1194 1.37795 10.1301 1.49324 10.1076 1.60433C10.0851 1.71541 10.0305 1.81731 9.9505 1.89718C9.87054 1.97706 9.76885 2.03132 9.65827 2.05314C9.54769 2.07496 9.43317 2.06335 9.32913 2.01978C9.2251 1.97621 9.13622 1.90263 9.0737 1.80832C9.01117 1.71401 8.97781 1.60318 8.97781 1.48982C8.97853 1.33707 9.03945 1.19086 9.1472 1.08324C9.25494 0.975618 9.40072 0.915385 9.55256 0.915752Z" fill="white"/>
<path d="M9.25798 9.75331C8.9889 9.8113 8.75071 9.96751 8.58937 10.1918C8.42802 10.4161 8.35495 10.6926 8.38427 10.9679C8.41358 11.2432 8.5432 11.4979 8.74811 11.6827C8.95302 11.8675 9.21869 11.9694 9.49387 11.9687C9.57316 11.9686 9.65223 11.9602 9.72975 11.9434C9.87431 11.9139 10.0116 11.8558 10.1336 11.7725C10.2557 11.6891 10.3601 11.5822 10.4407 11.458C10.5214 11.3337 10.5767 11.1946 10.6035 11.0486C10.6303 10.9027 10.628 10.7528 10.5967 10.6078C10.5655 10.4628 10.5059 10.3254 10.4215 10.2037C10.3371 10.082 10.2295 9.97841 10.1049 9.89891C9.98035 9.81942 9.84134 9.76561 9.69595 9.74061C9.55057 9.71562 9.40169 9.71994 9.25798 9.75331Z" fill="white"/>
</svg>
