<svg width="20" height="23" viewBox="0 0 20 23" fill="none" xmlns="http://www.w3.org/2000/svg">
<path fill-rule="evenodd" clip-rule="evenodd" d="M3.56423 6.19834C3.62618 5.90758 3.71011 5.62181 3.81103 5.34203H2.70294C2.60202 5.34802 2.5021 5.29706 2.44515 5.20214L1.36003 3.32166H1.31506C0.962353 3.32166 0.671594 3.0309 0.671594 2.67819C0.671594 2.32548 0.962353 2.03472 1.31506 2.03472C1.66778 2.03472 1.95854 2.32647 1.95854 2.67819C1.95854 2.81208 1.91957 2.93498 1.84663 3.03589L2.85381 4.77548H5.54474C6.00337 4.04307 6.64086 3.43257 7.38524 3.0079C8.1576 2.56625 9.05288 2.31348 10.003 2.31348C10.9482 2.31348 11.8435 2.56527 12.6159 3.0079C13.3603 3.43257 13.9978 4.04307 14.4564 4.77548H17.1474L18.1545 3.03589C18.0876 2.93497 18.0426 2.81207 18.0426 2.67819C18.0426 2.32548 18.3334 2.03472 18.6861 2.03472C19.0388 2.03472 19.3296 2.32647 19.3296 2.67819C19.3296 3.0309 19.0388 3.32166 18.6861 3.32166H18.6471L17.567 5.18413C17.522 5.28005 17.4271 5.341 17.3092 5.341H16.1901C16.291 5.62079 16.375 5.90654 16.4359 6.19732L17.3142 6.53803C17.4091 6.57201 17.4821 6.64495 17.532 6.74487H14.9981C14.8412 6.74487 14.7123 6.86777 14.7123 7.02465C14.7123 7.18152 14.8412 7.30942 14.9981 7.30942H18.78C18.8859 7.0966 19.1047 6.95172 19.3565 6.95172C19.7092 6.95172 20 7.24348 20 7.59519C20 7.94691 19.7092 8.23867 19.3565 8.23867C19.1047 8.23867 18.8859 8.09378 18.78 7.88097H17.583V8.18871C17.583 8.38955 17.4771 8.55741 17.3142 8.62435L16.4359 8.96008C16.4139 9.06599 16.3859 9.1729 16.358 9.27882H14.2767C13.9629 9.27882 13.6782 9.45268 13.5273 9.72546C13.3764 9.97226 13.2025 10.2011 13.0067 10.4139C12.7998 10.6327 12.571 10.8276 12.3182 10.9954C12.2123 11.0903 12.1953 11.2522 12.2733 11.3701C12.3572 11.488 12.5081 11.526 12.637 11.465C12.9218 11.2742 13.1795 11.0514 13.4144 10.7996C13.6432 10.5587 13.851 10.291 14.0249 10.0052C14.0698 9.91027 14.1647 9.84832 14.2767 9.84832H17.3152C17.4101 9.84832 17.5051 9.89828 17.556 9.9892L18.6471 11.8687H18.6861C19.0388 11.8687 19.3296 12.1594 19.3296 12.5122C19.3296 12.8639 19.0388 13.1556 18.6861 13.1556C18.3334 13.1556 18.0426 12.8649 18.0426 12.5122C18.0426 12.3783 18.0876 12.2544 18.1545 12.1535L17.1473 10.4139H15.9393C15.8164 10.6717 15.6815 10.9175 15.5306 11.1523L15.9113 12.0136C15.9783 12.1704 15.9343 12.3663 15.7884 12.5122L14.9321 13.3675C14.7862 13.5124 14.5904 13.5583 14.4345 13.4854L13.9989 13.2955C13.909 13.1836 13.797 13.0997 13.6632 13.0377L13.2265 12.8529C13.0816 12.7909 12.9248 12.775 12.7739 12.7909C12.7569 12.4662 12.5611 12.1584 12.2363 12.0196L11.7717 11.8237C11.6268 11.7558 11.464 11.7398 11.3131 11.7628C11.3071 11.5669 11.2341 11.3761 11.1172 11.2252C12.678 10.7446 13.813 9.29478 13.813 7.57711C13.813 5.47381 12.1064 3.76709 10.003 3.76709C7.89371 3.76709 6.18812 5.4737 6.18812 7.57711C6.18812 8.75216 6.71968 9.7983 7.553 10.4977L6.9315 11.9585C6.87055 12.1044 6.93649 12.2723 7.08238 12.3332C7.11635 12.3562 7.13833 12.3892 7.14432 12.4341C7.14432 12.4731 7.12734 12.5131 7.09936 12.5401C6.98146 12.5451 6.87055 12.568 6.75264 12.607C6.39494 12.7299 6.10917 12.9757 5.9473 13.3174L5.85238 13.3624L5.79143 12.3952L5.78543 12.3782C5.67952 11.5559 5.14795 11.0073 4.38656 10.7225C4.31961 10.6995 4.25766 10.6836 4.19072 10.6726C4.14575 10.5886 4.10079 10.5047 4.06182 10.4148H2.8528L1.84561 12.1544C1.91856 12.2553 1.95752 12.3782 1.95752 12.5131C1.95752 12.8648 1.66676 13.1565 1.31405 13.1565C0.961341 13.1565 0.670582 12.8658 0.670582 12.5131C0.670582 12.1604 0.961341 11.8696 1.31405 11.8696H1.35902L2.43314 10.0071C2.4781 9.9122 2.57303 9.85025 2.69092 9.85025H5.72334C5.81826 9.85025 5.91319 9.90021 5.96314 9.99114C6.08105 10.181 6.20994 10.3658 6.34983 10.5387C6.49471 10.7115 6.64659 10.8794 6.81445 11.0313C6.93235 11.0872 7.07223 11.0593 7.15616 10.9643C7.24609 10.8684 7.26207 10.7285 7.20112 10.6166C7.12818 10.5497 7.06123 10.4827 7.00028 10.4158C6.79845 10.203 6.6256 9.97413 6.47371 9.72735C6.32283 9.45357 6.03807 9.28071 5.72432 9.28071H3.64301C3.61504 9.17479 3.58706 9.06788 3.56408 8.96196L2.68579 8.62624C2.52392 8.55929 2.42302 8.39043 2.42302 8.1906V7.88285H1.22C1.11409 8.09468 0.895272 8.24055 0.643471 8.24055C0.290759 8.24055 0 7.9498 0 7.59708C0 7.24437 0.290759 6.95361 0.643471 6.95361C0.895267 6.95361 1.11408 7.0985 1.22 7.31131H5.00802C5.1649 7.31131 5.28781 7.18242 5.28781 7.02654C5.28781 6.87066 5.16491 6.74675 5.00802 6.74675H2.46809C2.51805 6.64584 2.59099 6.5739 2.68691 6.53992L3.56423 6.19834ZM11.8724 15.6476L7.6037 13.2145C7.39087 13.0966 7.16706 13.0737 6.93723 13.1466C6.70842 13.2255 6.53955 13.3814 6.44463 13.6052L5.19165 16.5417L5.09074 18.2653C5.08474 18.4562 5.1357 18.634 5.23562 18.7799C5.51541 18.1704 6.02497 17.7278 6.6125 17.5049L6.33872 16.9054C6.31074 16.8325 6.30475 16.7545 6.33872 16.6756L6.84731 15.4846C6.75239 15.3447 6.72941 15.1598 6.80235 14.993C6.91426 14.7292 7.21602 14.6123 7.47879 14.7242C7.74157 14.8361 7.86448 15.1378 7.75257 15.4016C7.67963 15.5635 7.53475 15.6754 7.36689 15.7034L6.90825 16.7835L7.17102 17.36C7.46178 17.3211 7.76354 17.3371 8.0543 17.405L8.74773 15.7823C8.6528 15.6424 8.62982 15.4636 8.70276 15.2957C8.81467 15.0329 9.11643 14.91 9.37921 15.0219C9.64198 15.1339 9.76489 15.4416 9.65298 15.6984C9.58004 15.8663 9.43516 15.9782 9.2673 16.0061L8.59085 17.5948C8.89361 17.7397 9.15639 17.9475 9.36322 18.1873L9.82185 18.0305L10.2805 16.9454C10.1856 16.8055 10.1626 16.6266 10.2355 16.4588C10.3474 16.196 10.6492 16.0721 10.913 16.185C11.1757 16.2969 11.2986 16.6046 11.1867 16.8614C11.1148 17.0293 10.9679 17.1412 10.8011 17.1692L10.2925 18.3672C10.2585 18.4461 10.1915 18.5011 10.1186 18.5231L9.69294 18.674C9.9837 19.2225 10.0676 19.877 9.88878 20.5035C9.94474 20.4645 9.9897 20.4255 10.0337 20.3806L11.1358 19.2115L12.2159 16.6766C12.3818 16.2909 12.2361 15.8554 11.8724 15.6476ZM13.0024 13.3814L13.4391 13.5662C13.59 13.6282 13.6629 13.807 13.595 13.9579L13.1643 14.9701L12.1791 14.5504L12.6097 13.5383C12.6777 13.3874 12.8516 13.3144 13.0024 13.3814ZM11.5536 12.3472L12.0172 12.5481C12.1741 12.615 12.247 12.7999 12.1801 12.9617L11.6875 14.1198L10.6414 13.6781L11.139 12.5141C11.2069 12.3582 11.3907 12.2793 11.5536 12.3472ZM10.0878 11.2951L10.5524 11.4909C10.7143 11.5579 10.7872 11.7477 10.7203 11.9046L10.1497 13.2475L9.1036 12.7999L9.67414 11.4629C9.74109 11.3011 9.93092 11.2281 10.0878 11.2951ZM8.54905 10.4168L9.01367 10.6176C9.17554 10.6856 9.24848 10.8694 9.18154 11.0313L8.61099 12.3692L7.56486 11.9216L8.1354 10.5847C8.20734 10.4278 8.39218 10.3498 8.54905 10.4168ZM9.92493 7.19944L10.3886 7.39528C10.5454 7.46222 10.6234 7.65207 10.5564 7.80894L9.58321 10.0921L8.53707 9.64445L9.51028 7.36131C9.57823 7.20543 9.76306 7.13249 9.92493 7.19944ZM4.63311 14.1647L5.2656 13.8959C5.40549 13.8339 5.56736 13.8569 5.68526 13.9408L4.87992 15.8203L4.41031 14.7292C4.31939 14.5124 4.42028 14.2606 4.63311 14.1647ZM5.22064 12.453L5.2706 13.1745L4.34734 13.2304C4.10653 13.2474 3.89471 13.0625 3.87773 12.8167L3.7988 11.5468C3.7878 11.4469 3.83277 11.3569 3.9107 11.295C3.99463 11.233 4.08956 11.222 4.18448 11.256C4.80598 11.4848 5.14768 11.8885 5.22064 12.453ZM9.26445 20.5824L8.44812 22.4958C8.36418 22.6917 8.13436 22.7806 7.93953 22.6967L5.11993 21.4936C4.92409 21.4097 4.82917 21.1799 4.9131 20.9841L5.72943 19.0766C6.1431 18.0974 7.27319 17.6438 8.25239 18.0584C9.2266 18.4781 9.67912 19.6082 9.26445 20.5824ZM7.93953 18.7908C8.51007 19.0376 8.77883 19.6971 8.53204 20.2676C8.28524 20.8442 7.62577 21.1069 7.05525 20.8601C6.48471 20.6193 6.21595 19.9589 6.46274 19.3833C6.70254 18.8138 7.36901 18.551 7.93953 18.7908ZM4.34744 4.20659C4.38641 4.13965 4.43137 4.0727 4.47034 4.01075L4.08964 3.14945C4.0227 2.98658 4.06666 2.79175 4.21254 2.65186L5.06886 1.79055C5.21374 1.64967 5.41057 1.60071 5.56645 1.67265L6.42775 2.05335C7.08821 1.62868 7.82663 1.31495 8.61598 1.14707L8.95769 0.268786C9.01864 0.105918 9.1925 0 9.39433 0H10.6083C10.8092 0 10.983 0.105913 11.044 0.268786L11.3857 1.14707C12.175 1.31494 12.9135 1.62868 13.5729 2.05335L14.4342 1.67265C14.5911 1.60071 14.7869 1.64967 14.9318 1.79055L15.7881 2.65186C15.934 2.79175 15.978 2.98758 15.911 3.14945L15.5303 4.01075C15.5693 4.0717 15.6143 4.13965 15.6532 4.20659H14.758C14.2714 3.51815 13.6339 2.93664 12.8955 2.51696C12.0112 2.00837 11.016 1.74559 10.0027 1.74559C8.98456 1.74559 7.98838 2.00837 7.10513 2.51696C6.36673 2.93661 5.72825 3.51815 5.24265 4.20659H4.34744ZM10.0038 5.78931C10.989 5.78931 11.7943 6.58965 11.7943 7.57985C11.7943 8.3802 11.2687 9.05664 10.5413 9.28647L11.0789 8.0335C11.2688 7.58586 11.0569 7.06527 10.6143 6.87545L10.1507 6.67361C9.70303 6.48377 9.17646 6.6966 8.98661 7.14422L8.43305 8.44718C8.29316 8.19038 8.20923 7.89361 8.20923 7.57989C8.20724 6.58969 9.01357 5.78931 10.0038 5.78931Z" fill="white"/>
</svg>
