<svg width="25" height="18" viewBox="0 0 25 18" fill="none" xmlns="http://www.w3.org/2000/svg">
<path fill-rule="evenodd" clip-rule="evenodd" d="M10.1616 1.86182C10.9495 1.04164 12.046 0.533743 13.2574 0.533743C14.8727 0.533743 16.2725 1.43109 17.0263 2.76814C17.6954 2.46903 18.4201 2.31461 19.153 2.31498C22.0604 2.31498 24.4205 4.69296 24.4205 7.62729C24.4205 10.5616 22.0604 12.9396 19.153 12.9396C18.7977 12.9396 18.4513 12.9039 18.1121 12.8364C17.4526 14.0119 16.1918 14.8106 14.756 14.8106C14.1715 14.8117 13.5944 14.6791 13.069 14.4229C12.4005 15.9933 10.8436 17.097 9.03093 17.097C7.13752 17.097 5.53126 15.9035 4.91209 14.2255C4.63651 14.2837 4.35562 14.3129 4.07397 14.3127C1.82162 14.3127 0 12.4642 0 10.1939C0 8.6684 0.820177 7.34032 2.03698 6.62244C1.77884 6.02777 1.64596 5.38629 1.64664 4.73801C1.64664 2.11774 3.77335 0 6.39361 0C7.92808 0 9.30103 0.73134 10.1625 1.86649L10.1616 1.86182ZM3.55699 8.86085C3.54431 8.89394 3.55634 8.90537 3.56368 8.91235C3.56521 8.91381 3.56655 8.91508 3.5674 8.9163C3.60255 8.94176 3.63812 8.96183 3.67384 8.98198L3.70649 9.00056C3.95595 9.13247 4.19106 9.17106 4.43693 9.17106C4.93765 9.17106 5.24903 8.90455 5.24903 8.47562V8.46718C5.24903 8.07055 4.89727 7.92608 4.56884 7.82288L4.52586 7.80897C4.27729 7.72839 4.06283 7.65822 4.06283 7.4949V7.48656C4.06283 7.34657 4.18846 7.24338 4.38228 7.24338C4.59765 7.24338 4.85429 7.31507 5.0185 7.4058C5.0185 7.4058 5.06714 7.4372 5.08482 7.39027C5.09442 7.36488 5.17814 7.14081 5.18712 7.11568C5.19663 7.08939 5.17994 7.06956 5.1628 7.05933C4.97435 6.94447 4.71412 6.8664 4.44492 6.8664L4.39494 6.86658C3.93639 6.86658 3.61604 7.14386 3.61604 7.54049V7.54901C3.61604 7.96718 3.96959 8.10357 4.29982 8.1978L4.35294 8.21431C4.59343 8.28825 4.80161 8.3525 4.80161 8.5212V8.52964C4.80161 8.68488 4.66611 8.80064 4.44896 8.80064C4.36452 8.80064 4.0954 8.7992 3.80376 8.61488C3.78279 8.60266 3.76718 8.59247 3.75225 8.58273C3.74208 8.57609 3.73222 8.56965 3.72121 8.56293C3.70685 8.55422 3.67095 8.53852 3.65534 8.58554L3.55663 8.86013L3.55699 8.86085ZM10.888 8.86013C10.8752 8.89333 10.8874 8.90473 10.8948 8.9117C10.8964 8.91313 10.8977 8.91438 10.8986 8.91559C10.9335 8.94096 10.969 8.96099 11.0046 8.98107L11.0377 8.99985C11.2871 9.13176 11.5222 9.17034 11.7681 9.17034C12.2688 9.17034 12.5802 8.90383 12.5802 8.4749V8.46646C12.5802 8.06983 12.2293 7.92536 11.9 7.82217L11.857 7.80826C11.6085 7.72767 11.394 7.6575 11.394 7.49418V7.48584C11.394 7.34585 11.5196 7.24266 11.7134 7.24266C11.9288 7.24266 12.1846 7.31436 12.3497 7.40508C12.3497 7.40508 12.3983 7.43648 12.4161 7.38955C12.4256 7.36416 12.5094 7.14009 12.5175 7.11496C12.5271 7.08867 12.5103 7.06884 12.4932 7.05861C12.3048 6.94375 12.0446 6.86568 11.7754 6.86568L11.7253 6.86586C11.2667 6.86586 10.9464 7.14314 10.9464 7.53977V7.54829C10.9464 7.96646 11.3 8.10286 11.6302 8.19708L11.6832 8.21359C11.9246 8.28753 12.1319 8.35178 12.1319 8.52048V8.52892C12.1319 8.68416 11.9964 8.79992 11.7792 8.79992C11.6946 8.79992 11.4248 8.79848 11.134 8.61417C11.1068 8.59829 11.0883 8.58621 11.0689 8.57359L11.0689 8.57357L11.0514 8.56221C11.0423 8.55647 11.0001 8.53996 10.9856 8.58482L10.8869 8.85941L10.888 8.86013ZM15.8941 8.01949C15.8941 8.26178 15.8489 8.45291 15.7604 8.58841C15.6721 8.72212 15.5388 8.78762 15.353 8.78762C15.1673 8.78762 15.0344 8.72266 14.9474 8.58931C14.8597 8.45471 14.8155 8.26267 14.8155 8.02039C14.8155 7.77811 14.86 7.58787 14.9474 7.45416C15.0343 7.32135 15.1664 7.25764 15.353 7.25764C15.5397 7.25764 15.6725 7.32198 15.7604 7.45416C15.8494 7.58787 15.8941 7.77811 15.8941 8.02039V8.01949ZM16.3123 7.57082C16.2711 7.43173 16.2073 7.30969 16.122 7.20739C16.0367 7.10509 15.9291 7.02254 15.8008 6.96331C15.6734 6.90364 15.5226 6.87358 15.3521 6.87358C15.1816 6.87358 15.0318 6.90382 14.9034 6.96331C14.776 7.0229 14.6674 7.10509 14.5822 7.20739C14.4971 7.30969 14.4332 7.43173 14.3919 7.57082C14.3511 7.70901 14.3304 7.85976 14.3304 8.02039C14.3304 8.18102 14.3511 8.33177 14.3919 8.46996C14.433 8.60905 14.4969 8.73109 14.5822 8.83339C14.6675 8.93569 14.776 9.01735 14.9034 9.07567C15.0318 9.13382 15.1825 9.16343 15.3521 9.16343C15.5217 9.16343 15.6725 9.13382 15.7999 9.07567C15.9273 9.01752 16.0359 8.93569 16.1211 8.83339C16.2063 8.73109 16.2701 8.60905 16.3114 8.46996C16.3521 8.33177 16.3728 8.18102 16.3728 8.02039C16.3728 7.86066 16.3521 7.70901 16.3114 7.57082H16.3123ZM19.7482 8.71943C19.7345 8.67877 19.6948 8.69412 19.6948 8.69412C19.6341 8.71736 19.5692 8.7389 19.5001 8.74967C19.4305 8.76061 19.3529 8.76609 19.2713 8.76609C19.0694 8.76609 18.9079 8.70588 18.793 8.58662C18.6772 8.46727 18.6126 8.27524 18.6135 8.01501C18.6142 7.77811 18.6714 7.60043 18.7742 7.46403C18.8756 7.32943 19.0317 7.25944 19.2381 7.25944C19.4104 7.25944 19.5423 7.27945 19.6805 7.3227C19.6805 7.3227 19.7132 7.33697 19.7289 7.29381L19.7628 7.20064C19.7848 7.1404 19.8057 7.08311 19.8321 7.00845C19.8433 6.97659 19.816 6.96313 19.806 6.95927C19.7518 6.9381 19.6239 6.90337 19.5269 6.88874C19.4363 6.87492 19.3313 6.86774 19.2129 6.86774C19.037 6.86774 18.8808 6.89781 18.7471 6.95739C18.6134 7.01688 18.5004 7.09917 18.4106 7.20147C18.3209 7.30377 18.2527 7.42581 18.2069 7.5649C18.1616 7.70309 18.1387 7.85474 18.1387 8.01536C18.1387 8.36174 18.2321 8.64261 18.4169 8.8481C18.6018 9.05449 18.88 9.15859 19.2425 9.15859C19.4569 9.15859 19.6768 9.11525 19.8347 9.0527C19.8347 9.0527 19.8649 9.03816 19.8518 9.00299L19.7486 8.71943H19.7482ZM20.4799 7.78618L20.48 7.786L21.4894 7.78618C21.4799 7.65607 21.4544 7.53986 21.3961 7.45237C21.3082 7.31992 21.1852 7.24687 20.9995 7.24687C20.8137 7.24687 20.6816 7.31956 20.5948 7.45237C20.5368 7.53937 20.5 7.65148 20.48 7.786L20.4754 7.786L20.4799 7.78618ZM21.8888 7.49006C21.8531 7.35635 21.7649 7.22085 21.7075 7.15893C21.616 7.06112 21.5271 6.99203 21.4383 6.95434C21.31 6.8998 21.1721 6.87181 21.0327 6.87205C20.8559 6.87205 20.6953 6.90193 20.5652 6.96268C20.4351 7.02388 20.3256 7.10716 20.2394 7.21125C20.1534 7.31534 20.0887 7.43828 20.0474 7.57916C20.0061 7.71825 19.9853 7.8708 19.9853 8.03053C19.9853 8.19385 20.0069 8.3455 20.0495 8.48279C20.0924 8.62099 20.1616 8.74213 20.255 8.84263C20.3483 8.94403 20.4676 9.023 20.6112 9.07863C20.7539 9.13382 20.9271 9.16245 21.1254 9.16182C21.5346 9.16047 21.7499 9.06939 21.8379 9.02004C21.8536 9.01124 21.8684 8.99608 21.8499 8.95238L21.7575 8.69304C21.7433 8.65437 21.7042 8.66837 21.7042 8.66837L21.6762 8.67904C21.5759 8.71772 21.4295 8.77417 21.1227 8.77336C20.9028 8.773 20.7404 8.70812 20.6381 8.60645C20.534 8.50236 20.482 8.3507 20.4739 8.13534L21.8917 8.13642C21.8917 8.13642 21.9291 8.13606 21.9329 8.09963L21.9337 8.09403C21.9397 8.05084 21.9759 7.7895 21.8906 7.49033L21.8888 7.49006ZM9.1464 7.78618L9.14643 7.786L10.1559 7.78618C10.1463 7.65607 10.1208 7.53986 10.0626 7.45237C9.97466 7.31992 9.85172 7.24687 9.66597 7.24687C9.48022 7.24687 9.34813 7.31956 9.26126 7.45237C9.20341 7.53937 9.16644 7.65148 9.14643 7.786L9.14191 7.786L9.1464 7.78618ZM10.5552 7.49006C10.5197 7.35635 10.4314 7.22085 10.374 7.15893C10.2824 7.06112 10.1936 6.99203 10.1048 6.95434C9.97651 6.8998 9.83854 6.87181 9.69917 6.87205C9.52239 6.87205 9.36177 6.90193 9.23165 6.96268C9.10153 7.02388 8.99206 7.10716 8.90591 7.21125C8.82004 7.31534 8.75516 7.43828 8.71388 7.57916C8.67269 7.71825 8.65196 7.8708 8.65196 8.03053C8.65196 8.19385 8.67341 8.3455 8.71621 8.48279C8.75911 8.62099 8.82838 8.74213 8.92081 8.84263C9.01413 8.94403 9.13348 9.023 9.27706 9.07863C9.41973 9.13382 9.59202 9.16245 9.79124 9.16182C10.2004 9.16047 10.4158 9.06939 10.5037 9.02004C10.5193 9.01124 10.5342 8.99608 10.5157 8.95238L10.4232 8.69304C10.409 8.65437 10.3698 8.66837 10.3698 8.66837L10.3419 8.67904C10.2416 8.71772 10.0951 8.77417 9.78837 8.77336C9.56941 8.773 9.40609 8.70812 9.3038 8.60645C9.1997 8.50236 9.14766 8.3507 9.13958 8.13534L10.5574 8.13642C10.5574 8.13642 10.5947 8.13606 10.5986 8.09963L10.5993 8.09403C10.6053 8.05083 10.6416 7.78949 10.5562 7.49033L10.5552 7.49006ZM6.08644 8.71045C6.03089 8.66612 6.02318 8.65526 6.00478 8.62646C5.97669 8.58312 5.96234 8.52147 5.96234 8.4425C5.96234 8.31867 6.00361 8.22893 6.08886 8.16881C6.08797 8.16899 6.2109 8.06292 6.49985 8.06651C6.62846 8.06882 6.75677 8.07976 6.88391 8.09927V8.74267H6.88409C6.88409 8.74267 6.70462 8.78134 6.50182 8.79355C6.21377 8.81087 6.08635 8.71063 6.08725 8.7109L6.08644 8.71045ZM6.64997 7.71439C6.59254 7.71018 6.51806 7.70811 6.42923 7.70811C6.30808 7.70811 6.19053 7.72319 6.08106 7.7528C5.97068 7.78259 5.87108 7.82872 5.78583 7.8901C5.70035 7.95108 5.63003 8.03091 5.58033 8.12341C5.53017 8.21673 5.5046 8.32621 5.5046 8.45004C5.5046 8.57567 5.5264 8.68425 5.56948 8.77309C5.61168 8.8612 5.67522 8.93739 5.75433 8.99473C5.83303 9.05198 5.93021 9.09434 6.04238 9.11946C6.15365 9.14486 6.27928 9.15769 6.41747 9.15769C6.56284 9.15769 6.70732 9.14549 6.8473 9.12189C6.96653 9.10132 7.08531 9.07823 7.20355 9.05261C7.25075 9.04175 7.30316 9.02748 7.30316 9.02748C7.33815 9.0186 7.33546 8.98118 7.33546 8.98118L7.33465 7.689C7.33465 7.40544 7.25892 7.19456 7.10942 7.06444C6.96046 6.93433 6.7424 6.86882 6.45974 6.86882C6.35385 6.86882 6.18246 6.88318 6.08016 6.90373C6.08016 6.90373 5.77147 6.96367 5.64405 7.06346C5.64405 7.06346 5.61605 7.08069 5.6313 7.11972L5.73181 7.38893C5.74428 7.42383 5.77829 7.4119 5.77829 7.4119C5.77829 7.4119 5.78897 7.40768 5.80153 7.40023C6.07343 7.25217 6.41801 7.25666 6.41801 7.25666C6.57056 7.25666 6.68901 7.28761 6.76798 7.34819C6.84524 7.4075 6.88463 7.49715 6.88463 7.68559V7.74544C6.76349 7.72785 6.65132 7.71771 6.65132 7.71771L6.64997 7.71439ZM18.0463 6.98485C18.0484 6.98012 18.0494 6.97502 18.0495 6.96987C18.0495 6.96472 18.0485 6.95961 18.0465 6.95485C18.0445 6.9501 18.0416 6.94579 18.0379 6.94219C18.0342 6.93858 18.0298 6.93576 18.025 6.93388C18.0009 6.92473 17.8806 6.89933 17.7881 6.89359C17.6105 6.88246 17.5118 6.91243 17.4229 6.95227C17.3352 6.99185 17.2381 7.05547 17.1842 7.12905L17.1841 6.95676C17.1841 6.93307 17.1673 6.91396 17.1434 6.91396H16.7809C16.7574 6.91396 16.7403 6.93307 16.7403 6.95676V9.06553C16.7403 9.07693 16.7449 9.08784 16.7529 9.0959C16.761 9.10396 16.7719 9.10849 16.7833 9.10852H17.1548C17.1662 9.10849 17.1771 9.10395 17.1851 9.09589C17.1932 9.08784 17.1977 9.07692 17.1977 9.06553V8.00666C17.1977 7.86488 17.2133 7.724 17.2444 7.63516C17.2751 7.54731 17.3169 7.47722 17.3683 7.42697C17.4173 7.37844 17.4773 7.34243 17.5433 7.32198C17.6051 7.30423 17.6691 7.29523 17.7335 7.29524C17.8075 7.29524 17.8887 7.31427 17.8887 7.31427C17.916 7.31732 17.9312 7.30063 17.9404 7.27604C17.9647 7.21134 18.0338 7.0176 18.0472 6.97902L18.0463 6.98485ZM14.4367 5.97883C14.484 5.98707 14.5307 5.99815 14.5766 6.01203C14.5867 6.01598 14.6138 6.02944 14.6026 6.06139L14.4944 6.35859C14.4854 6.38093 14.4792 6.39457 14.4331 6.38048C14.4216 6.37707 14.4045 6.37214 14.3606 6.36281C14.3288 6.35616 14.287 6.35105 14.2443 6.35105C14.1929 6.35035 14.1416 6.35774 14.0924 6.37295C14.0475 6.38765 14.0069 6.41295 13.9739 6.44671C13.9385 6.48215 13.8968 6.53375 13.8746 6.59773C13.8295 6.72799 13.808 6.86531 13.8017 6.90571C13.8008 6.91179 13.8002 6.91567 13.7999 6.91701H14.2524C14.2903 6.91683 14.3023 6.93442 14.2986 6.96259L14.2459 7.25692C14.2377 7.29955 14.1984 7.29811 14.1984 7.29811H13.7321L13.4132 9.10259C13.3797 9.28915 13.3379 9.44924 13.2888 9.57819C13.2392 9.7083 13.1874 9.80369 13.1049 9.89477C13.0286 9.97921 12.9424 10.0416 12.8433 10.0774C12.7449 10.1129 12.6261 10.1312 12.4959 10.1312C12.4337 10.1312 12.3673 10.1301 12.2885 10.1115C12.2318 10.0981 12.2008 10.0886 12.1592 10.0737C12.1414 10.0673 12.1273 10.0453 12.1374 10.0173C12.1472 9.9889 12.2306 9.75963 12.2424 9.72957C12.2568 9.69278 12.2935 9.70678 12.2935 9.70678L12.2953 9.70755C12.3196 9.71773 12.337 9.72507 12.3699 9.73155C12.4035 9.73828 12.4491 9.74402 12.4834 9.74402C12.5449 9.74402 12.6011 9.73648 12.6499 9.72006C12.7091 9.70023 12.7433 9.66622 12.7795 9.62C12.8168 9.57227 12.8472 9.50649 12.8782 9.41873C12.9097 9.3298 12.9382 9.21243 12.963 9.06975L13.2804 7.29811H12.9676C12.9299 7.29829 12.9178 7.2807 12.9215 7.25253L12.9742 6.9582C12.9825 6.91539 13.0217 6.91701 13.0217 6.91701H13.343L13.3604 6.82108C13.4084 6.53689 13.5041 6.3209 13.6448 6.17912C13.7865 6.03626 13.9883 5.96393 14.2443 5.96393C14.3088 5.96323 14.3732 5.96822 14.4367 5.97883ZM8.21209 9.1165C8.23578 9.1165 8.25265 9.09721 8.25265 9.07352V6.05232C8.25265 6.02872 8.23578 6.00961 8.21209 6.00961H7.83672C7.81294 6.00961 7.79607 6.02872 7.79607 6.05232V9.07352C7.79607 9.09721 7.81294 9.1165 7.83672 9.1165H8.21209Z" fill="white"/>
</svg>
