<svg width="18" height="18" viewBox="0 0 18 18" fill="none" xmlns="http://www.w3.org/2000/svg">
<path d="M1.2793 8.99956C1.2793 12.0556 3.05531 14.6966 5.63066 15.9482L1.94774 5.85742C1.51935 6.81763 1.2793 7.88024 1.2793 8.99956Z" fill="white"/>
<path d="M14.2122 8.61065C14.2122 7.65647 13.8694 6.99566 13.5755 6.48132C13.1841 5.84534 12.8173 5.30677 12.8173 4.67079C12.8173 3.96106 13.3555 3.3004 14.1137 3.3004C14.148 3.3004 14.1804 3.30466 14.2138 3.30657C12.8402 2.04813 11.0101 1.27979 9.00006 1.27979C6.30278 1.27979 3.92972 2.66369 2.54919 4.75982C2.73034 4.76525 2.90105 4.76907 3.04605 4.76907C3.85362 4.76907 5.10369 4.67108 5.10369 4.67108C5.51989 4.64655 5.56895 5.25785 5.15319 5.30706C5.15319 5.30706 4.73494 5.35628 4.26952 5.38066L7.08111 13.7436L8.77074 8.67618L7.56783 5.38037C7.15207 5.35598 6.7582 5.30677 6.7582 5.30677C6.34215 5.28238 6.39092 4.64626 6.80697 4.67079C6.80697 4.67079 8.08202 4.76878 8.84066 4.76878C9.64809 4.76878 10.8983 4.67079 10.8983 4.67079C11.3148 4.64626 11.3637 5.25755 10.9478 5.30677C10.9478 5.30677 10.5287 5.35598 10.0641 5.38037L12.8543 13.68L13.6244 11.1065C13.9582 10.0386 14.2122 9.27161 14.2122 8.61065Z" fill="white"/>
<path d="M9.13546 9.67529L6.81897 16.4066C7.51063 16.6099 8.2421 16.7212 9.00001 16.7212C9.89911 16.7212 10.7613 16.5657 11.5639 16.2835C11.5432 16.2504 11.5244 16.2153 11.509 16.1771L9.13546 9.67529Z" fill="white"/>
<path d="M15.7748 5.29492C15.808 5.54085 15.8268 5.80485 15.8268 6.08883C15.8268 6.87231 15.6804 7.75304 15.2397 8.85429L12.8813 15.6729C15.1767 14.3344 16.7206 11.8476 16.7206 8.99929C16.7207 7.65696 16.3778 6.3947 15.7748 5.29492Z" fill="white"/>
<path d="M9.00007 0C4.03756 0 0 4.03727 0 8.99978C0 13.9629 4.03756 18 9.00007 18C13.9624 18 18.0006 13.9629 18.0006 8.99978C18.0004 4.03727 13.9624 0 9.00007 0ZM9.00007 17.5875C4.26513 17.5875 0.412674 13.735 0.412674 8.99978C0.412674 4.26483 4.26498 0.412674 9.00007 0.412674C13.7349 0.412674 17.587 4.26483 17.587 8.99978C17.587 13.735 13.7349 17.5875 9.00007 17.5875Z" fill="white"/>
</svg>
