<svg width="18" height="18" viewBox="0 0 18 18" fill="none" xmlns="http://www.w3.org/2000/svg">
<path d="M6.60691 7.25117L10.6856 9.10941L14.7958 5.50316C14.8565 5.20523 14.8856 4.9017 14.8824 4.59766C14.8831 3.61611 14.5694 2.66015 13.9873 1.86983C13.4053 1.0795 12.5854 0.496365 11.6478 0.205852C10.7102 -0.0846611 9.70429 -0.0672783 8.77732 0.255454C7.85035 0.578185 7.0511 1.1893 6.49668 1.99926L5.81165 5.5504L6.60691 7.25117Z" fill="white"/>
<path d="M2.38641 11.5663C2.32566 11.8696 2.29663 12.1783 2.29979 12.4876C2.301 13.4732 2.61788 14.4325 3.20399 15.2249C3.79011 16.0173 4.61463 16.6011 5.55672 16.8908C6.4988 17.1805 7.5089 17.1608 8.43896 16.8345C9.36903 16.5083 10.1701 15.8928 10.7249 15.0781L11.402 11.5427L10.4965 9.81045L6.40211 7.94434L2.38641 11.5663Z" fill="white"/>
<path d="M2.3629 4.51139L5.15814 5.1728L5.77231 1.99961C5.39313 1.70928 4.92994 1.54992 4.4524 1.5455C3.97486 1.54108 3.50879 1.69184 3.12431 1.9751C2.73982 2.25836 2.45771 2.6588 2.32039 3.11619C2.18308 3.57359 2.198 4.0632 2.3629 4.51139Z" fill="white"/>
<path d="M2.11877 5.18018C1.51401 5.37863 0.985616 5.75966 0.606327 6.2708C0.227038 6.78194 0.0154969 7.39808 0.000819064 8.03441C-0.0138588 8.67073 0.169048 9.29597 0.524366 9.82406C0.879684 10.3521 1.38994 10.7571 1.98492 10.9833L5.90613 7.43999L5.1896 5.90458L2.11877 5.18018Z" fill="white"/>
<path d="M11.4336 15.0779C11.813 15.3647 12.275 15.5211 12.7507 15.5238C13.2263 15.5264 13.69 15.3752 14.0726 15.0927C14.4553 14.8101 14.7363 14.4114 14.8737 13.9561C15.0111 13.5007 14.9976 13.0132 14.8351 12.5661L12.0478 11.9126L11.4336 15.0779Z" fill="white"/>
<path d="M12.0006 11.1803L15.0714 11.8968C15.6762 11.6984 16.2046 11.3173 16.5839 10.8062C16.9632 10.2951 17.1747 9.67893 17.1894 9.0426C17.2041 8.40627 17.0211 7.78104 16.6658 7.25295C16.3105 6.72486 15.8002 6.31988 15.2053 6.09375L11.1896 9.61339L12.0006 11.1803Z" fill="white"/>
</svg>
