<svg width="20" height="20" viewBox="0 0 20 20" fill="none" xmlns="http://www.w3.org/2000/svg">
<path fill-rule="evenodd" clip-rule="evenodd" d="M16.2091 0H15.4183C15.3839 0.000244385 15.3509 0.0140408 15.3265 0.0384062C15.3022 0.0627716 15.2884 0.0957481 15.2881 0.130205V0.551855H15.287C15.2868 0.615445 15.2651 0.677101 15.2252 0.726678C15.1854 0.776255 15.1299 0.810801 15.0678 0.824632C14.8723 0.867836 14.6809 0.928194 14.4959 1.00501C14.3188 1.07846 14.1481 1.16658 13.9856 1.26845C13.9318 1.3101 13.8646 1.3307 13.7966 1.32641C13.7287 1.32211 13.6646 1.29321 13.6165 1.24511L13.3185 0.946203C13.2939 0.922006 13.2608 0.908443 13.2263 0.908443C13.1918 0.908443 13.1587 0.922006 13.1341 0.946203L12.5741 1.50622C12.55 1.53086 12.5365 1.56394 12.5365 1.59839C12.5365 1.63285 12.55 1.66593 12.5741 1.69056L12.8721 1.98854C12.917 2.03357 12.9452 2.09253 12.9521 2.15571C12.959 2.2189 12.9442 2.28256 12.9101 2.33622C12.6988 2.66751 12.546 3.03263 12.4584 3.41566C12.4495 3.48313 12.4164 3.54507 12.3652 3.58991C12.314 3.63474 12.2483 3.6594 12.1802 3.65927H11.7602C11.7257 3.65952 11.6927 3.67331 11.6683 3.69767C11.6439 3.72202 11.6301 3.755 11.6298 3.78948V4.58051C11.6301 4.61499 11.6439 4.64796 11.6683 4.67232C11.6927 4.69668 11.7257 4.71047 11.7602 4.71071H12.1802V4.71188C12.2439 4.71195 12.3056 4.73369 12.3552 4.77351C12.4048 4.81334 12.4394 4.86888 12.4532 4.93099C12.4964 5.12626 12.5568 5.31733 12.6336 5.50198C12.707 5.67912 12.795 5.84982 12.8968 6.0123C12.9385 6.06615 12.9591 6.13333 12.9548 6.20127C12.9505 6.26922 12.9216 6.33327 12.8735 6.38144L12.5755 6.67942C12.5514 6.70406 12.5379 6.73714 12.5379 6.77159C12.5379 6.80605 12.5514 6.83913 12.5755 6.86376L13.1355 7.42378C13.1601 7.44786 13.1932 7.46134 13.2276 7.46134C13.262 7.46134 13.295 7.44786 13.3196 7.42378L13.6162 7.12604C13.6613 7.08118 13.7202 7.05297 13.7834 7.04606C13.8466 7.03915 13.9102 7.05394 13.9639 7.08801C14.1332 7.19588 14.3116 7.28872 14.4971 7.36545C14.6743 7.4388 14.8573 7.49719 15.0443 7.53999C15.1118 7.54878 15.1738 7.58187 15.2187 7.63307C15.2635 7.68426 15.2882 7.75005 15.2881 7.81813V8.23815C15.2883 8.27265 15.3021 8.30568 15.3264 8.3301C15.3508 8.35451 15.3838 8.36834 15.4183 8.36859H16.2091C16.2436 8.36834 16.2767 8.35452 16.3011 8.33011C16.3255 8.3057 16.3393 8.27267 16.3396 8.23815V7.81813C16.3396 7.75447 16.3614 7.69274 16.4013 7.64311C16.4412 7.59348 16.4967 7.55892 16.5589 7.54512C16.9423 7.46036 17.3083 7.31039 17.6409 7.10177C17.6948 7.06006 17.762 7.03941 17.83 7.04371C17.898 7.048 17.9621 7.07694 18.0103 7.12511L18.3083 7.42309C18.3329 7.44717 18.366 7.46066 18.4004 7.46066C18.4349 7.46066 18.468 7.44717 18.4926 7.42309L19.0526 6.86306C19.0768 6.83849 19.0904 6.80538 19.0904 6.77089C19.0904 6.7364 19.0768 6.7033 19.0526 6.67872L18.7547 6.38075C18.7098 6.33571 18.6816 6.27676 18.6747 6.21357C18.6678 6.15039 18.6826 6.08673 18.7166 6.03306C18.9282 5.70211 19.0815 5.33732 19.1698 4.95456C19.1786 4.88705 19.2116 4.82505 19.2628 4.78017C19.314 4.73529 19.3798 4.7106 19.4479 4.71071H19.8698C19.9042 4.71041 19.9372 4.69659 19.9615 4.67224C19.9859 4.64789 19.9997 4.61495 20 4.58051V3.78948C19.9997 3.75504 19.9859 3.7221 19.9615 3.69775C19.9372 3.67339 19.9042 3.65958 19.8698 3.65927H19.4472C19.3836 3.65914 19.3219 3.63735 19.2723 3.59748C19.2227 3.55761 19.1882 3.50204 19.1744 3.43993C19.0896 3.05656 18.9397 2.69057 18.7311 2.35792C18.6894 2.30406 18.6687 2.23683 18.673 2.16883C18.6773 2.10083 18.7063 2.03673 18.7544 1.98854L19.0531 1.68963C19.0773 1.66512 19.0909 1.63205 19.0909 1.59758C19.0909 1.56311 19.0773 1.53003 19.0531 1.50552L18.4931 0.945503C18.4686 0.921264 18.4355 0.907669 18.401 0.907669C18.3666 0.907669 18.3335 0.921264 18.309 0.945503L18.011 1.24348C17.966 1.28834 17.907 1.31655 17.8438 1.32346C17.7806 1.33037 17.717 1.31558 17.6633 1.28152C17.332 1.07022 16.9669 0.917411 16.5839 0.829765C16.5163 0.821081 16.4542 0.788071 16.4093 0.736915C16.3643 0.68576 16.3395 0.619967 16.3396 0.551855V0.130205C16.3393 0.0957268 16.3254 0.0627505 16.301 0.0383915C16.2766 0.0140326 16.2436 0.000243619 16.2091 0ZM17.205 2.79381C17.5269 3.1157 17.7272 3.53924 17.7718 3.99225C17.8164 4.44527 17.7025 4.89973 17.4496 5.2782C17.1967 5.65667 16.8203 5.93574 16.3847 6.06785C15.9491 6.19996 15.4812 6.17694 15.0606 6.00272C14.6401 5.82849 14.293 5.51384 14.0784 5.11237C13.8639 4.7109 13.7951 4.24746 13.884 3.80101C13.9728 3.35456 14.2137 2.95272 14.5656 2.66397C14.9175 2.37522 15.3586 2.21742 15.8138 2.21745C16.0723 2.21714 16.3282 2.2679 16.5669 2.36681C16.8057 2.46572 17.0225 2.61083 17.205 2.79381ZM15.8138 1.6565C16.3989 1.65651 16.9658 1.85937 17.418 2.23052C17.8703 2.60166 18.1798 3.11814 18.2939 3.69193C18.4081 4.26573 18.3197 4.86134 18.0439 5.37729C17.7681 5.89324 17.322 6.29761 16.7815 6.52148C16.241 6.74536 15.6396 6.7749 15.0797 6.60506C14.5199 6.43523 14.0362 6.07653 13.7112 5.59009C13.3862 5.10365 13.2399 4.51956 13.2972 3.93734C13.3546 3.35512 13.6121 2.8108 14.0257 2.39713C14.2603 2.16193 14.539 1.97542 14.8459 1.84831C15.1527 1.72121 15.4817 1.65602 15.8138 1.6565ZM19.2825 18.3244V16.8877C19.2792 16.8838 19.2754 16.8803 19.2713 16.8774C19.2429 16.8575 19.2088 16.8476 19.1742 16.8492H12.4514L11.7436 17.8292C11.7223 17.8649 11.692 17.8944 11.6558 17.9148C11.6196 17.9353 11.5787 17.946 11.5371 17.9459H7.74533C7.70734 17.946 7.66988 17.937 7.63607 17.9196C7.60225 17.9023 7.57308 17.8771 7.55096 17.8463L6.8311 16.8489H0.108271C0.0736822 16.8474 0.0395453 16.8573 0.0112005 16.8772C0.00708963 16.8802 0.00333189 16.8836 0 16.8874V18.3241C0.00531526 18.4821 0.0463784 18.6367 0.120099 18.7765C0.193821 18.9163 0.298279 19.0375 0.425616 19.131C0.739125 19.3704 1.12417 19.4972 1.51859 19.4908H17.7639C18.1583 19.4972 18.5433 19.3704 18.8569 19.131C18.9842 19.0375 19.0887 18.9163 19.1624 18.7765C19.2362 18.6368 19.2772 18.4823 19.2825 18.3244ZM12.1889 5.88279C12.2299 5.97006 12.274 6.05562 12.3212 6.13947L12.177 6.28344C12.0476 6.41322 11.9749 6.58902 11.9749 6.77229C11.9749 6.95557 12.0476 7.13137 12.177 7.26115L12.737 7.82117C12.8668 7.95058 13.0426 8.02325 13.2258 8.02325C13.4091 8.02325 13.5849 7.95058 13.7147 7.82117L13.8587 7.6772C13.9955 7.75426 14.1369 7.82307 14.2819 7.88324C14.4266 7.94299 14.5747 7.99426 14.7253 8.03677V8.24025C14.7255 8.42354 14.7985 8.59926 14.9281 8.72887C15.0577 8.85847 15.2334 8.9314 15.4167 8.93164H16.2075C16.3908 8.9314 16.5665 8.85847 16.6961 8.72887C16.8257 8.59926 16.8986 8.42354 16.8989 8.24025V8.03677C17.0496 7.99428 17.1976 7.94293 17.3422 7.883C17.3609 7.8753 17.3798 7.86737 17.3985 7.85967V15.1003H1.91084V5.88326L12.1889 5.88279ZM17.8803 7.78967L17.9114 7.8207C17.9857 7.89482 18.076 7.95106 18.1753 7.98518C18.2747 8.0193 18.3804 8.0304 18.4847 8.01764V16.3683H12.3296C12.2916 16.3683 12.2542 16.3773 12.2204 16.3946C12.1866 16.412 12.1574 16.4371 12.1352 16.4679L11.4151 17.4654H7.8683L7.16034 16.4854C7.13895 16.4498 7.10868 16.4203 7.07248 16.3998C7.03629 16.3794 6.99541 16.3687 6.95383 16.3687H0.825565V4.65308H11.0714C11.0896 4.82283 11.1699 4.97988 11.2968 5.09409C11.4237 5.20829 11.5883 5.27161 11.7591 5.2719H11.9625C11.9749 5.31554 11.9877 5.35894 12.0015 5.40187H1.6705C1.60669 5.40187 1.5455 5.42722 1.50038 5.47234C1.45527 5.51745 1.42992 5.57865 1.42992 5.64245V15.3409C1.42992 15.3724 1.43615 15.4037 1.44824 15.4329C1.46033 15.4621 1.47806 15.4886 1.5004 15.5109C1.52274 15.5332 1.54926 15.5509 1.57845 15.563C1.60764 15.575 1.63892 15.5812 1.6705 15.5812H17.6409C17.6725 15.5812 17.7038 15.575 17.733 15.563C17.7621 15.5509 17.7887 15.5332 17.811 15.5109C17.8333 15.4886 17.8511 15.4621 17.8632 15.4329C17.8753 15.4037 17.8815 15.3724 17.8815 15.3409V7.78967H17.8803ZM8.12055 11.6687L6.37351 10.3854L8.12055 9.10198C8.15141 9.08074 8.1777 9.05352 8.19785 9.02193C8.21801 8.99034 8.23161 8.95503 8.23787 8.91809C8.24413 8.88114 8.24291 8.84332 8.23428 8.80686C8.22566 8.77039 8.2098 8.73603 8.18765 8.70581C8.1655 8.67559 8.13751 8.65012 8.10534 8.63091C8.07317 8.6117 8.03747 8.59914 8.00036 8.59398C7.96325 8.58882 7.92548 8.59116 7.88929 8.60086C7.8531 8.61057 7.81922 8.62743 7.78967 8.65047L5.74022 10.1562C5.71514 10.1737 5.69314 10.1952 5.67512 10.2199C5.63122 10.2798 5.61291 10.3547 5.6242 10.428C5.63549 10.5014 5.67546 10.5673 5.73532 10.6112L7.78873 12.1203C7.81829 12.1433 7.85216 12.1602 7.88835 12.1699C7.92455 12.1796 7.96232 12.1819 7.99943 12.1767C8.03654 12.1716 8.07224 12.159 8.10441 12.1398C8.13658 12.1206 8.16457 12.0951 8.18672 12.0649C8.20887 12.0347 8.22472 12.0003 8.23335 11.9639C8.24197 11.9274 8.2432 11.8896 8.23694 11.8526C8.23068 11.8157 8.21707 11.7804 8.19692 11.7488C8.17676 11.7172 8.15048 11.69 8.11961 11.6687H8.12055ZM11.5217 12.1203L13.5752 10.6112C13.611 10.5849 13.6401 10.5505 13.66 10.5107C13.6798 10.4709 13.69 10.4269 13.6895 10.3825C13.689 10.338 13.6779 10.2943 13.6572 10.2549C13.6365 10.2156 13.6067 10.1818 13.5703 10.1562L11.5208 8.6507C11.4913 8.62767 11.4574 8.6108 11.4212 8.6011C11.385 8.59139 11.3472 8.58905 11.3101 8.59421C11.273 8.59937 11.2373 8.61193 11.2051 8.63114C11.173 8.65035 11.145 8.67582 11.1228 8.70604C11.1007 8.73627 11.0848 8.77063 11.0762 8.80709C11.0676 8.84355 11.0663 8.88138 11.0726 8.91832C11.0789 8.95526 11.0925 8.99057 11.1126 9.02216C11.1328 9.05375 11.1591 9.08097 11.1899 9.10222L12.937 10.3856L11.1899 11.669C11.1591 11.6902 11.1328 11.7174 11.1126 11.749C11.0925 11.7806 11.0789 11.8159 11.0726 11.8529C11.0663 11.8898 11.0676 11.9276 11.0762 11.9641C11.0848 12.0006 11.1007 12.0349 11.1228 12.0652C11.145 12.0954 11.173 12.1208 11.2051 12.1401C11.2373 12.1593 11.273 12.1718 11.3101 12.177C11.3472 12.1821 11.385 12.1798 11.4212 12.1701C11.4574 12.1604 11.4913 12.1435 11.5208 12.1205L11.5217 12.1203ZM8.84041 13.0032L10.9872 7.98637C11.0029 7.95234 11.0117 7.91549 11.0129 7.87801C11.0142 7.84053 11.0079 7.80318 10.9944 7.76817C10.9809 7.73317 10.9606 7.70123 10.9345 7.67424C10.9085 7.64726 10.8773 7.62578 10.8428 7.61109C10.8083 7.59639 10.7712 7.58878 10.7337 7.58869C10.6962 7.58861 10.659 7.59607 10.6245 7.61061C10.5899 7.62516 10.5586 7.6465 10.5324 7.67337C10.5063 7.70024 10.4858 7.73209 10.4722 7.76703L8.32659 12.7839C8.30061 12.8516 8.30191 12.9267 8.33023 12.9935C8.35854 13.0603 8.41166 13.1135 8.47839 13.1419C8.54513 13.1702 8.62027 13.1716 8.68801 13.1457C8.75575 13.1198 8.8108 13.0687 8.84157 13.003L8.84041 13.0032Z" fill="white"/>
</svg>
