<svg width="23" height="11" viewBox="0 0 23 11" fill="none" xmlns="http://www.w3.org/2000/svg">
<path fill-rule="evenodd" clip-rule="evenodd" d="M0 0H22.2444L11.2444 11H0V0ZM11 7.38216V2.19993H13.2C15.3023 2.19993 16.28 2.88438 16.28 4.5466C16.28 6.01327 15.2534 6.84438 13.5423 6.84438H12.8578V8.79993H9.53337L9.28893 7.96882C8.55559 8.21327 7.72448 8.16438 6.99115 7.96882L6.64893 8.79993H4.79115L4.88893 8.35993C4.35115 8.84882 3.37337 9.04438 2.73781 9.04438C1.80893 9.04438 1.0267 8.84882 0.29337 8.40882L0.977815 7.08882C1.71115 7.52882 2.20004 7.6266 2.7867 7.57771C3.12893 7.57771 3.61781 7.47993 3.6667 7.03993C3.6667 6.69771 3.17781 6.50216 2.54226 6.3066C2.05337 6.15993 1.51559 5.96438 1.07559 5.67104C0.537815 5.27993 0.29337 4.79104 0.29337 4.1066C0.342259 3.61771 0.488926 3.17771 0.831148 2.83549C1.32004 2.3466 2.10226 2.05327 3.03115 2.05327C3.81337 2.05327 4.79115 2.24882 5.52448 2.63993L4.74226 3.95993C4.04695 3.61228 3.66067 3.57365 3.27439 3.53502C3.2261 3.53019 3.17781 3.52537 3.12893 3.51993C2.49337 3.47104 2.15115 3.71549 2.15115 3.95993C2.15115 4.30216 2.7867 4.5466 3.37337 4.74216C4.25337 5.03549 5.37781 5.4266 5.57337 6.50216L7.1867 2.19993H9.09337L11 7.38216ZM8.11559 4.30216L7.43115 6.50216C7.87115 6.64882 8.36004 6.64882 8.84893 6.50216L8.16448 4.30216H8.11559ZM12.8578 3.61771V5.37771H13.3467C13.9823 5.37771 14.4711 5.13327 14.4711 4.44882C14.4711 3.81327 13.9823 3.61771 13.3467 3.61771H12.8578Z" fill="white"/>
</svg>
