<svg width="20" height="20" viewBox="0 0 20 20" fill="none" xmlns="http://www.w3.org/2000/svg">
<path d="M2.22075 3.27808C2.17385 3.27808 2.12789 3.26495 2.08755 3.24057L0.70405 2.36545H0.704988C0.60275 2.28572 0.577424 2.14221 0.646833 2.03247C0.716243 1.92367 0.856939 1.88521 0.972317 1.94524L2.35582 2.81849V2.81755C2.41116 2.85319 2.45149 2.90947 2.46556 2.97419C2.48057 3.03891 2.46838 3.10738 2.43273 3.16272C2.38677 3.23494 2.3061 3.27902 2.22075 3.27808ZM0.334478 5.63708L1.92996 5.2769C2.06503 5.24688 2.14944 5.11369 2.12037 4.97862C2.1063 4.9139 2.06597 4.85668 2.00969 4.82104C1.95341 4.7854 1.88494 4.77414 1.82022 4.78915L0.224736 5.14933C0.0859171 5.16434 -0.0135095 5.28815 0.001498 5.42696C0.0174437 5.56484 0.141255 5.66426 0.279125 5.64926L0.334478 5.63708ZM3.93917 2.09722C4.0733 2.0672 4.15865 1.93495 4.12864 1.79988L3.76097 0.194071C3.74596 0.129351 3.70656 0.0730716 3.65028 0.038367C3.59401 0.0027235 3.52553 -0.0085311 3.46081 0.00647644C3.32762 0.0374304 3.24414 0.170621 3.27322 0.303818L3.6334 1.90211C3.65967 2.01842 3.76472 2.10002 3.88385 2.09721C3.90167 2.10002 3.92041 2.10003 3.93917 2.09722ZM17.9891 15.1041H17.9882C18.0444 15.0684 18.0838 15.0122 18.0989 14.9474C18.1129 14.8827 18.1017 14.8152 18.066 14.7589L17.1909 13.3754C17.1112 13.2825 16.9761 13.26 16.8711 13.3238C16.766 13.3867 16.7219 13.517 16.7679 13.6305L17.643 15.0159V15.0168C17.689 15.0881 17.7687 15.1313 17.8531 15.1313C17.9009 15.1322 17.9478 15.1191 17.9882 15.0937L17.9891 15.1041ZM14.8572 15.4971L15.2174 13.8988C15.2465 13.7647 15.163 13.6315 15.0298 13.6005C14.9651 13.5855 14.8966 13.5968 14.8403 13.6324C14.7841 13.668 14.7447 13.7234 14.7297 13.7881L14.3695 15.3864C14.3395 15.5215 14.4248 15.6547 14.5589 15.6847C14.5777 15.6865 14.5965 15.6865 14.6143 15.6847C14.7287 15.6847 14.8281 15.6078 14.8572 15.4971ZM19.9946 12.2451C20.0227 12.111 19.9383 11.9797 19.8042 11.9497L18.2087 11.5895C18.0708 11.5595 17.9339 11.6467 17.9039 11.7846C17.8729 11.9234 17.9601 12.0594 18.099 12.0903L19.6945 12.4505C19.7123 12.4524 19.731 12.4524 19.7498 12.4505C19.868 12.4505 19.9712 12.367 19.9946 12.2498V12.2451ZM14.3592 3.23028C13.5113 3.23028 12.7468 3.74147 12.4223 4.52467C12.0987 5.30787 12.2778 6.20926 12.8772 6.80863C13.4766 7.40799 14.378 7.58714 15.1612 7.26353C15.9444 6.93899 16.4556 6.17454 16.4556 5.32662C16.4537 4.16917 15.5167 3.23215 14.3592 3.23028ZM19.079 4.25828H18.9017C18.5838 4.23577 18.3071 4.03598 18.1851 3.74241C18.0632 3.44787 18.1176 3.11115 18.3258 2.8701L18.4506 2.74535H18.4515C18.5481 2.6478 18.5481 2.49022 18.4515 2.39266L17.2931 1.23427C17.1956 1.13766 17.038 1.13766 16.9404 1.23427L16.8504 1.32431C16.615 1.56162 16.2585 1.63195 15.9499 1.50253L15.8899 1.48002C15.6094 1.36277 15.4265 1.08888 15.4275 0.78405V0.606773C15.4275 0.540178 15.4012 0.476395 15.3543 0.429497C15.3074 0.382599 15.2436 0.356335 15.177 0.356335H13.5412C13.4033 0.356335 13.2908 0.468891 13.2908 0.606781V0.784057C13.2917 1.08889 13.1079 1.36373 12.8255 1.48002L12.7233 1.52223C12.4419 1.63948 12.1183 1.5757 11.9026 1.35996L11.7778 1.23521V1.23427C11.7309 1.18738 11.6671 1.16018 11.6005 1.16018C11.5339 1.16018 11.4692 1.18738 11.4223 1.23427L10.2649 2.39266C10.1673 2.49021 10.1673 2.64779 10.2649 2.74535L10.3896 2.8701C10.611 3.10928 10.6654 3.45821 10.5275 3.75367C10.4112 4.04821 10.1308 4.24424 9.81463 4.25361H9.63923C9.50135 4.25361 9.38879 4.36522 9.38879 4.50405V6.13987C9.38879 6.20553 9.41505 6.26931 9.46195 6.31621C9.50885 6.36311 9.57263 6.38938 9.63922 6.38938H9.8165C10.1345 6.41283 10.4112 6.61261 10.5331 6.90619C10.6551 7.19978 10.6006 7.53744 10.3924 7.77756L10.2667 7.90325C10.1701 8.0008 10.1701 8.15838 10.2667 8.25594L11.4223 9.41433V9.41339C11.4692 9.46123 11.5339 9.48749 11.6005 9.48749C11.6671 9.48749 11.7309 9.46123 11.7778 9.41339L11.9026 9.28864C12.1436 9.08041 12.4803 9.026 12.7749 9.14794C13.0685 9.26988 13.2682 9.54659 13.2907 9.86362V10.0418C13.2907 10.1075 13.317 10.1713 13.3639 10.2182C13.4108 10.2651 13.4746 10.2913 13.5412 10.2913H15.177C15.2436 10.2913 15.3074 10.2651 15.3543 10.2182C15.4012 10.1713 15.4274 10.1075 15.4274 10.0418V9.86362C15.4499 9.54659 15.6497 9.26988 15.9433 9.14794C16.2378 9.02601 16.5746 9.08041 16.8156 9.28864L16.9404 9.41339C17.0379 9.51094 17.1955 9.51094 17.2931 9.41339L18.4515 8.255V8.25594C18.5481 8.15839 18.5481 8.00081 18.4515 7.90325L18.3258 7.77756C18.1035 7.53932 18.0491 7.18946 18.1888 6.89493C18.3033 6.59946 18.5846 6.40249 18.9017 6.39499H19.079C19.1456 6.39499 19.2093 6.36873 19.2562 6.32183C19.3031 6.27493 19.3294 6.21115 19.3294 6.14456V4.50873C19.3294 4.37085 19.2169 4.25828 19.079 4.25828ZM14.3592 7.923C13.3087 7.923 12.3623 7.29081 11.9608 6.32C11.5584 5.35013 11.7807 4.23302 12.5236 3.49114C13.2655 2.74826 14.3827 2.52598 15.3525 2.92835C16.3233 3.32981 16.9555 4.27622 16.9555 5.32674C16.9526 6.75998 15.7923 7.92036 14.3592 7.923ZM15.1499 10.797C14.5346 11.7012 13.7007 12.4366 12.7261 12.9328V15.5273C12.7261 16.2636 12.1296 16.8611 11.3923 16.8629H8.24076C7.50446 16.8611 6.9079 16.2636 6.9079 15.5273V12.9328C5.02821 11.9863 3.72726 10.1817 3.42327 8.09841C3.12031 6.01611 3.85097 3.91503 5.3827 2.47046C6.91347 1.02599 9.05295 0.419112 11.1146 0.844029L11.0696 0.878734L9.91121 2.03712H9.91215C9.61949 2.33072 9.61949 2.80532 9.91215 3.09798L10.0369 3.22273C10.1138 3.31934 10.1251 3.45253 10.0669 3.56038C10.0303 3.67013 9.93184 3.74798 9.81647 3.7583H9.63919C9.2246 3.7583 8.88881 4.09408 8.88881 4.50867V6.1445C8.88881 6.55909 9.2246 6.89487 9.63919 6.89487H9.81647C9.93559 6.91082 10.0331 6.99524 10.0669 7.10967C10.1185 7.21472 10.1044 7.34041 10.0294 7.43044L9.90464 7.55519C9.61198 7.84785 9.61198 8.32245 9.90464 8.61605L11.063 9.77444L11.0621 9.7735C11.3557 10.0662 11.8303 10.0662 12.1229 9.7735L12.2477 9.64875C12.2955 9.6056 12.3584 9.58215 12.4231 9.58403C12.4794 9.58403 12.5347 9.59529 12.5854 9.61873C12.6951 9.65531 12.773 9.7538 12.7833 9.86918V10.0465C12.7833 10.461 13.1191 10.7968 13.5337 10.7968L15.1499 10.797ZM8.71349 11.9498C8.71443 11.8532 8.65909 11.7641 8.57092 11.7228L7.82054 11.3673C6.44265 10.7248 5.46904 9.44445 5.21955 7.94461C4.96911 6.44479 5.47468 4.91789 6.57023 3.86352C6.66684 3.76597 6.66684 3.60839 6.57023 3.51083C6.52333 3.46393 6.45955 3.43673 6.39295 3.43673C6.32636 3.43673 6.26164 3.46393 6.21474 3.51083C5.00194 4.67955 4.44104 6.36971 4.71679 8.03182C4.99161 9.69298 6.06747 11.113 7.59344 11.8279L8.19655 12.1158V14.0865H8.19561C8.19561 14.2244 8.30817 14.336 8.44606 14.336C8.58395 14.336 8.6965 14.2244 8.6965 14.0865L8.71349 11.9498ZM11.3923 17.3628H8.24069C8.11125 17.3628 7.98275 17.3487 7.85611 17.3206V17.8431H10.5142C10.6531 17.8431 10.7647 17.9547 10.7647 18.0935C10.7647 18.2314 10.6531 18.343 10.5142 18.343H7.90101C8.11393 19.3213 9.02939 19.9816 10.0246 19.8757C11.0198 19.7697 11.7749 18.9311 11.7777 17.9303V17.3206C11.651 17.3487 11.5217 17.3628 11.3923 17.3628Z" fill="white"/>
</svg>
