<svg width="20" height="23" viewBox="0 0 20 23" fill="none" xmlns="http://www.w3.org/2000/svg">
<path fill-rule="evenodd" clip-rule="evenodd" d="M11.7921 18.6778V16.1201H8.20785V18.6778C9.37135 18.5657 10.6287 18.5657 11.7921 18.6778ZM12.0442 19.2414C12.0338 19.2409 12.0234 19.2396 12.0135 19.2379C11.3865 19.1671 10.7085 19.1286 10.0001 19.1286C8.6518 19.1286 7.09811 19.2744 5.86337 19.6565C4.90144 19.9541 4.30638 20.3276 4.30638 20.7061C4.30638 21.0846 4.90144 21.4581 5.86337 21.7558C8.13787 22.4598 11.8624 22.4598 14.1369 21.7558C15.0988 21.4581 15.6939 21.0846 15.6939 20.7061C15.6939 20.3276 15.0988 19.9541 14.1369 19.6565C13.5512 19.4752 12.8395 19.3324 12.0444 19.2412L12.0442 19.2414ZM19.9997 13.752H0.000253643V14.1021C0.000253643 14.9173 0.668332 15.5854 1.48346 15.5854H18.5168C19.3319 15.5854 20 14.9173 20 14.1021L19.9997 13.752ZM0 13.2173H19.9997V1.48321C19.9997 0.668078 19.3317 0 18.5165 0H1.48346C0.668332 0 0.000253643 0.668078 0.000253643 1.48321V13.217L0 13.2173ZM7.02712 3.91872C5.8479 3.9281 4.81371 4.72751 4.50743 5.87072C4.05765 7.5489 5.32536 9.18449 7.04993 9.18449C7.19749 9.18449 7.31742 9.30416 7.31742 9.45197V12.5046C7.31742 12.6587 7.19395 12.7789 7.0256 12.7708C6.78651 12.7698 6.55249 12.7556 6.32481 12.7287C6.08293 12.7001 5.8441 12.6577 5.60932 12.6017C5.49421 12.5743 5.41435 12.4767 5.40471 12.3649L5.28403 11.5313C4.67705 11.3163 4.10988 10.9902 3.61878 10.5714L2.82215 10.8888C2.7177 10.9301 2.60259 10.901 2.53008 10.8239H2.52982C2.19895 10.4735 1.91042 10.0851 1.6655 9.66114H1.665C1.42008 9.23697 1.22815 8.79429 1.08972 8.33006C1.05726 8.22078 1.09783 8.1072 1.18327 8.04178L1.85312 7.51341C1.73624 6.88032 1.73751 6.22187 1.85414 5.59157L1.18175 5.06142C1.09098 4.99018 1.05904 4.87177 1.09301 4.76807C1.23043 4.30891 1.42211 3.86319 1.66525 3.44155C1.90459 3.02625 2.19388 2.6358 2.53058 2.27983C2.60766 2.19845 2.72378 2.17639 2.8219 2.21543L3.61928 2.53312C4.1109 2.11579 4.67781 1.7867 5.28377 1.57195L5.40699 0.72335C5.42297 0.611538 5.50613 0.525842 5.60983 0.501249C6.07685 0.389691 6.56694 0.332391 7.04993 0.332391C7.19749 0.332391 7.31742 0.452062 7.31742 0.599876V3.6525C7.31742 3.80893 7.18355 3.93215 7.02737 3.91897L7.02712 3.91872ZM6.78245 9.70653V12.231C6.49037 12.2166 6.19652 12.1796 5.90875 12.1202L5.78883 11.2934C5.77285 11.1819 5.69045 11.0964 5.58726 11.0716C5.27034 10.9692 4.96355 10.8333 4.67249 10.6654C4.38269 10.4983 4.10735 10.2978 3.85203 10.0655C3.76913 9.98998 3.65148 9.97655 3.55641 10.0224L2.79655 10.3254C2.52982 10.0245 2.3313 9.74202 2.12593 9.39417H2.12644C1.93578 9.06355 1.77605 8.7091 1.65562 8.34907L2.31229 7.83135C2.39519 7.76619 2.42917 7.66173 2.40838 7.56487C2.26132 6.88589 2.26259 6.21553 2.40939 5.53985C2.43221 5.43362 2.3886 5.32865 2.30645 5.26805L1.65663 4.7559C1.89901 4.02647 2.28414 3.35484 2.79553 2.77829L3.57466 3.08888C3.67227 3.12767 3.77927 3.1046 3.85203 3.03842V3.03893C4.35886 2.57901 4.95341 2.23546 5.60577 2.02629C5.70617 1.99409 5.77437 1.90789 5.78832 1.81002L5.90875 0.982214C6.19804 0.922886 6.49012 0.88663 6.7822 0.872685V3.39718C5.45289 3.50747 4.33553 4.44785 3.99123 5.73305C3.4806 7.63891 4.82005 9.53919 6.7822 9.70703L6.78245 9.70653ZM8.54405 5.43514V7.66883H6.31036V5.43514H8.54405ZM9.35867 6.88665C9.50623 6.88665 9.62616 7.00633 9.62616 7.15414C9.62616 7.30195 9.50648 7.42162 9.35867 7.42162H9.07902V7.93656C9.07902 8.08412 8.95934 8.20405 8.81153 8.20405H8.29659V8.4837C8.29659 8.63126 8.17692 8.75119 8.02911 8.75119C7.88129 8.75119 7.76162 8.63152 7.76162 8.4837V8.20405H7.09253V8.4837C7.09253 8.63126 6.97286 8.75119 6.82505 8.75119C6.67723 8.75119 6.55756 8.63152 6.55756 8.4837V8.20405H6.04262C5.89506 8.20405 5.77514 8.08438 5.77514 7.93656V7.42162H5.49548C5.34792 7.42162 5.228 7.30195 5.228 7.15414C5.228 7.00633 5.34767 6.88665 5.49548 6.88665H5.77514V6.21756H5.49548C5.34792 6.21756 5.228 6.09789 5.228 5.95008C5.228 5.80226 5.34767 5.68259 5.49548 5.68259H5.77514V5.16765C5.77514 5.02009 5.89481 4.90017 6.04262 4.90017H6.55756V4.62051C6.55756 4.47295 6.67723 4.35303 6.82505 4.35303C6.97286 4.35303 7.09253 4.4727 7.09253 4.62051V4.90017H7.76162V4.62051C7.76162 4.47295 7.88129 4.35303 8.02911 4.35303C8.17692 4.35303 8.29659 4.4727 8.29659 4.62051V4.90017H8.81153C8.95909 4.90017 9.07902 5.01984 9.07902 5.16765V5.68259H9.35867C9.50623 5.68259 9.62616 5.80226 9.62616 5.95008C9.62616 6.09789 9.50648 6.21756 9.35867 6.21756H9.07902V6.88665H9.35867ZM18.2491 6.21883C18.4331 6.4029 18.4331 6.70132 18.2491 6.88539C17.9532 7.18127 17.4446 6.97108 17.4446 6.55223C17.4446 6.13339 17.9532 5.9227 18.2491 6.21883ZM17.9156 5.54594C18.8089 5.54594 19.2594 6.63109 18.6271 7.26341C18.0794 7.81106 17.1484 7.55701 16.9456 6.81947H10.4618C10.3143 6.81947 10.1943 6.6998 10.1943 6.55198C10.1943 6.40417 10.314 6.2845 10.4618 6.2845H16.9456C17.064 5.85399 17.4578 5.54594 17.9156 5.54594ZM15.2707 1.5073C15.4548 1.69137 15.4548 1.98978 15.2707 2.17385C14.9748 2.46973 14.4662 2.2593 14.4662 1.8407C14.4662 1.42211 14.9748 1.21141 15.2707 1.50755V1.5073ZM14.9376 0.8344C15.8308 0.8344 16.2813 1.91955 15.649 2.55188C15.1014 3.09953 14.1704 2.84548 13.9675 2.10793H11.7724L10.6183 2.86399C10.5741 2.89593 10.5199 2.9147 10.4613 2.9147H8.35896C8.2114 2.9147 8.09148 2.79503 8.09148 2.64721C8.09148 2.4994 8.21115 2.37973 8.35896 2.37973H10.382L11.5467 1.61657C11.5919 1.58691 11.6428 1.57296 11.693 1.57296L13.9673 1.57271C14.0857 1.1422 14.4794 0.834147 14.9373 0.834147L14.9376 0.8344ZM16.9811 3.50088C17.1652 3.68495 17.1652 3.98337 16.9811 4.16744C16.6852 4.46332 16.1766 4.25313 16.1766 3.83429C16.1766 3.41544 16.6852 3.205 16.9811 3.50113V3.50088ZM16.6477 2.82799C17.5409 2.82799 17.9915 3.91314 17.3591 4.54547C16.8115 5.09311 15.8805 4.83907 15.6776 4.10152H14.6914L13.0652 4.90879C13.0254 4.93237 12.979 4.94581 12.9293 4.94581H10.4618C10.3143 4.94581 10.1943 4.82613 10.1943 4.67832C10.1943 4.53051 10.314 4.41084 10.4618 4.41084H12.8682L14.5121 3.59469C14.5502 3.57593 14.5905 3.56705 14.6303 3.56705V3.56629H15.6776C15.7961 3.13578 16.1898 2.82799 16.6477 2.82799ZM15.649 11.9749C15.1014 12.5226 14.1704 12.2685 13.9675 11.531H11.6933C11.6431 11.531 11.5921 11.5165 11.547 11.4871L10.3822 10.724H8.35922C8.21165 10.724 8.09173 10.6043 8.09173 10.4565C8.09173 10.3087 8.2114 10.189 8.35922 10.189H10.4616C10.5201 10.189 10.5744 10.2078 10.6185 10.2397L11.7726 10.9958H13.9678C14.1706 10.2582 15.1016 10.0042 15.6493 10.5518C16.0422 10.9448 16.0422 11.5817 15.6493 11.9747L15.649 11.9749ZM14.9376 11.7348C14.6772 11.7348 14.4662 11.5239 14.4662 11.2635C14.4662 10.8447 14.9748 10.6342 15.2707 10.9304C15.5666 11.2265 15.3564 11.7348 14.9376 11.7348ZM17.3591 9.98136C16.8115 10.529 15.8805 10.275 15.6776 9.53742H14.6303V9.53665C14.5905 9.53665 14.5502 9.52778 14.5121 9.50902L12.8679 8.69287H10.4616C10.314 8.69287 10.1941 8.5732 10.1941 8.42539C10.1941 8.27757 10.3138 8.1579 10.4616 8.1579H12.929C12.9787 8.1579 13.0251 8.17134 13.0649 8.19492L14.6911 9.00219H15.6774C15.8802 8.26439 16.8112 8.0106 17.3589 8.55824C17.7519 8.95123 17.7519 9.58812 17.3589 9.98111L17.3591 9.98136ZM16.6477 9.74126C16.3873 9.74126 16.1764 9.53032 16.1764 9.26993C16.1764 8.85108 16.685 8.6409 16.9808 8.93678C17.2767 9.23266 17.0668 9.74126 16.6477 9.74126Z" fill="white"/>
</svg>
