<svg width="23" height="24" viewBox="0 0 23 24" fill="none" xmlns="http://www.w3.org/2000/svg">
<path d="M11.3631 0.000190204C10.4147 0.0045969 9.50898 0.0854808 8.71207 0.226494C6.36446 0.64124 5.93823 1.50934 5.93823 3.11026V5.22458H11.4859V5.92936H5.93823H3.85623C2.24392 5.92936 0.832132 6.89845 0.390544 8.742C-0.118823 10.8551 -0.141417 12.1738 0.390544 14.3802C0.784893 16.0226 1.72665 17.1928 3.33896 17.1928H5.24638V14.6582C5.24638 12.8271 6.8307 11.2119 8.71207 11.2119H14.2533C15.7958 11.2119 17.0271 9.94192 17.0271 8.39284V3.11026C17.0271 1.6068 15.7588 0.477415 14.2533 0.226494C13.3003 0.0678538 12.3114 -0.00421656 11.3631 0.000190204ZM8.36292 1.7007C8.93595 1.7007 9.40391 2.17631 9.40391 2.7611C9.40391 3.34382 8.93595 3.81503 8.36292 3.81503C7.78782 3.81503 7.32192 3.34382 7.32192 2.7611C7.32192 2.17631 7.78782 1.7007 8.36292 1.7007Z" fill="white"/>
<path d="M17.719 5.9292V8.39268C17.719 10.3026 16.0997 11.9101 14.2533 11.9101H8.71207C7.19424 11.9101 5.93823 13.2092 5.93823 14.7292V20.0118C5.93823 21.5152 7.24559 22.3995 8.71207 22.8309C10.4682 23.3472 12.1522 23.4406 14.2533 22.8309C15.6499 22.4265 17.0271 21.6127 17.0271 20.0118V17.8975H11.4859V17.1927H17.0271H19.801C21.4133 17.1927 22.0141 16.0681 22.5748 14.38C23.154 12.6423 23.1294 10.9711 22.5748 8.74184C22.1764 7.13677 21.4153 5.9292 19.801 5.9292H17.719ZM14.6024 19.307C15.1775 19.307 15.6434 19.7782 15.6434 20.3609C15.6434 20.9457 15.1775 21.4213 14.6024 21.4213C14.0294 21.4213 13.5614 20.9457 13.5614 20.3609C13.5614 19.7782 14.0294 19.307 14.6024 19.307Z" fill="white"/>
</svg>
