<svg width="20" height="21" viewBox="0 0 20 21" fill="none" xmlns="http://www.w3.org/2000/svg">
<path d="M7.06921 8.51605V11.6809L9.80966 13.2633L12.5501 11.6809V8.51605L9.80966 6.93359L7.06921 8.51605ZM10.8999 9.18933V9.77719H11.016C11.1637 9.77719 11.2826 9.89606 11.2826 10.0437V11.6726C11.2826 11.8203 11.1628 11.9392 11.016 11.9392L8.60247 11.9382C8.45482 11.9382 8.33594 11.8194 8.33594 11.6717V10.0428C8.33594 9.89514 8.45574 9.77626 8.60247 9.77626H8.71856L8.71763 9.18933C8.71763 8.58756 9.20704 8.09814 9.80881 8.09814C10.4115 8.09814 10.8999 8.58756 10.8999 9.18933Z" fill="white"/>
<path d="M13.9023 13.3928C14.4503 12.6832 14.7512 11.8939 14.7381 10.9792C14.7224 9.80165 14.7279 7.03794 14.7307 6.01089C14.7316 5.7973 14.5589 5.6292 14.3453 5.62735C12.7666 5.61713 11.2649 5.05622 10.0679 4.04582C9.92022 3.92045 9.70848 3.93252 9.5636 4.06161C8.33776 5.16116 6.89377 5.70445 5.25169 5.79638C5.04645 5.80753 4.883 5.97097 4.88207 6.17715C4.87929 7.19777 4.8765 10.074 4.88115 11.3247C4.88207 11.4937 4.91086 11.6646 4.94708 11.8299C5.13003 12.6583 5.58137 13.3372 6.16458 13.9325C7.14711 14.9345 8.32748 15.6421 9.5997 16.2049C9.7065 16.2523 9.88016 16.2476 9.9851 16.1975C10.4439 15.9765 10.9073 15.7629 11.3475 15.5103C12.3189 14.9521 13.2105 14.2899 13.9023 13.3928ZM9.96559 13.8952C9.9173 13.923 9.86343 13.937 9.80957 13.937C9.75571 13.937 9.70185 13.923 9.65355 13.8952L6.6 12.1325C6.50342 12.0768 6.44399 11.9737 6.44399 11.8614V8.33615C6.44399 8.2247 6.50342 8.12069 6.6 8.06498L9.65355 6.30234C9.75013 6.24662 9.86994 6.24662 9.96652 6.30234L13.0201 8.06498C13.1166 8.1207 13.1761 8.22378 13.1761 8.33615V11.8614C13.1761 11.9728 13.1166 12.0768 13.0201 12.1325L9.96559 13.8952Z" fill="white"/>
<path d="M9.34344 9.18987V9.77773H10.2749V9.18987C10.2749 8.93356 10.066 8.72461 9.80966 8.72461C9.55242 8.72368 9.34344 8.93264 9.34344 9.18987Z" fill="white"/>
<path d="M11.1889 2.0626V3.95804C11.1889 4.13077 11.3291 4.271 11.5018 4.271C11.6746 4.271 11.8148 4.13077 11.8148 3.95804V2.22326L12.8261 1.49981C13.3954 1.79699 13.9897 1.36516 13.9897 0.798668C13.9888 0.357539 13.6313 0 13.1901 0C12.749 0 12.3906 0.357539 12.3906 0.799595C12.3906 0.874819 12.4138 0.942611 12.4333 1.01133L11.3198 1.80815C11.2371 1.86758 11.1889 1.9623 11.1889 2.0626Z" fill="white"/>
<path d="M8.11677 4.27099C8.2895 4.27099 8.42973 4.13076 8.42973 3.95803V2.06259C8.42973 1.96137 8.38144 1.86664 8.29879 1.80814L7.13238 0.97326C7.14538 0.915682 7.16767 0.86089 7.16767 0.798668C7.16767 0.357539 6.81013 0 6.36808 0C5.92695 0 5.56848 0.357539 5.56848 0.799595C5.56848 1.36979 6.18233 1.81836 6.76275 1.47939L7.80287 2.22419V3.95896C7.8038 4.13077 7.94404 4.27099 8.11677 4.27099Z" fill="white"/>
<path d="M1.32894 1.99287L2.39136 2.50549V4.40834C2.39136 4.51607 2.44708 4.61637 2.53809 4.67395L4.03605 5.61098C4.18185 5.70292 4.37595 5.65835 4.46696 5.51161C4.5589 5.36488 4.51432 5.17172 4.36759 5.08071L3.01729 4.23561V2.30953C3.01729 2.18972 2.94857 2.08014 2.84084 2.02813L1.59455 1.42636C1.60848 0.950881 1.23053 0.604492 0.799595 0.604492C0.358466 0.604492 0 0.962031 0 1.40409C0 2.08203 0.801466 2.4665 1.32894 1.99287Z" fill="white"/>
<path d="M8.11675 15.75C7.94401 15.75 7.80378 15.8902 7.80378 16.063V17.7977L6.76367 18.5416C6.18603 18.2045 5.5694 18.6465 5.5694 19.2214C5.5694 19.6635 5.92694 20.021 6.36806 20.021C6.80919 20.021 7.16766 19.6635 7.16766 19.2214C7.16766 19.1592 7.14537 19.1053 7.13237 19.0468L8.29878 18.2119C8.3805 18.1534 8.42972 18.0587 8.42972 17.9575V16.062C8.42972 15.8902 8.28948 15.75 8.11675 15.75Z" fill="white"/>
<path d="M12.8251 18.5212L11.8138 17.7977V16.063C11.8138 15.8902 11.6736 15.75 11.5008 15.75C11.3281 15.75 11.1879 15.8902 11.1879 16.063V17.9584C11.1879 18.0596 11.2362 18.1544 11.3188 18.2129L12.4323 19.0097C12.4128 19.0784 12.3896 19.1462 12.3896 19.2214C12.3905 19.6635 12.748 20.021 13.1901 20.021C13.6312 20.021 13.9897 19.6635 13.9897 19.2214C13.9888 18.6568 13.3944 18.224 12.8251 18.5212Z" fill="white"/>
<path d="M19.2004 0.530273C18.7593 0.530273 18.4008 0.88874 18.4008 1.32987C18.4008 1.3568 18.4138 1.37909 18.4157 1.40602L17.1276 2.02824C17.0199 2.08024 16.9511 2.18983 16.9511 2.30963V4.23571L15.5999 5.08081C15.4532 5.17182 15.4086 5.36498 15.5005 5.51172C15.5925 5.65845 15.7856 5.70209 15.9314 5.61108L17.4294 4.67405C17.5204 4.61647 17.5761 4.5171 17.5761 4.40845L17.5771 2.50559L18.7212 1.95303C19.2849 2.38765 20 1.95396 20 1.32989C20 0.888759 19.6425 0.530273 19.2004 0.530273Z" fill="white"/>
<path d="M4.37707 9.61876C4.54981 9.61876 4.69004 9.47853 4.69004 9.3058C4.69004 9.13307 4.54981 8.99284 4.37707 8.99284H2.12224C1.8622 8.0883 0.567627 8.30191 0.567627 9.20922C0.567627 10.0051 1.60589 10.3218 2.03772 9.61878L4.37707 9.61876Z" fill="white"/>
<path d="M18.1067 8.80095H15.7664C15.5937 8.80095 15.4534 8.94118 15.4534 9.11391C15.4534 9.28665 15.5937 9.42688 15.7664 9.42688H18.0212C18.1169 9.76119 18.4122 10.0101 18.7772 10.0101C19.2183 10.0101 19.5768 9.65254 19.5768 9.21048C19.5758 8.4146 18.5385 8.09702 18.1067 8.80095Z" fill="white"/>
<path d="M4.52824 13.6126L2.90584 15.235C2.84734 15.2935 2.8139 15.3734 2.8139 15.456V17.1982C2.52788 17.3199 2.32727 17.6031 2.32727 17.9337C2.32727 18.3749 2.68481 18.7333 3.12687 18.7333C3.56799 18.7333 3.92646 18.3758 3.92646 17.9337C3.92646 17.6031 3.72587 17.3199 3.43983 17.1982V15.5861L4.97122 14.0556C5.0938 13.933 5.0938 13.7352 4.97122 13.6135C4.84863 13.491 4.65082 13.491 4.52824 13.6126Z" fill="white"/>
<path d="M16.6188 17.1981C16.5882 15.454 16.6875 15.3955 16.5269 15.2348L14.9045 13.6124C14.7819 13.4899 14.5841 13.4899 14.4624 13.6124C14.3398 13.735 14.3398 13.9328 14.4624 14.0545L15.9938 15.585V17.1971C15.7078 17.3188 15.5072 17.602 15.5072 17.9327C15.5072 18.3738 15.8647 18.7323 16.3068 18.7323C16.7479 18.7323 17.1064 18.3747 17.1064 17.9327C17.1045 17.603 16.9039 17.3197 16.6188 17.1981Z" fill="white"/>
</svg>
