<svg width="17" height="19" viewBox="0 0 17 19" fill="none" xmlns="http://www.w3.org/2000/svg">
<path d="M4.25 3.0625L7.6875 4.9375V9.3125L4.25 7.4375V3.0625Z" fill="white"/>
<path d="M11.75 3.0625L8.3125 4.9375V9.3125L11.75 7.4375V3.0625Z" fill="white"/>
<path d="M11.4375 2.4375L8 4.3125L4.5625 2.4375L8 0.5625L11.4375 2.4375Z" fill="white"/>
<path d="M11.75 19L10.8125 16.8125H5.05056C4.71372 16.8125 4.38309 16.7218 4.09343 16.5498C3.80378 16.3779 3.5658 16.1311 3.4045 15.8353L0.1875 9.9375H1.09506C1.29714 9.9375 1.4962 9.9865 1.6752 10.0803C1.8542 10.1741 2.00779 10.3099 2.12281 10.476L4.5625 14H8.55122C8.65775 14 8.76252 13.9728 8.85557 13.9209C8.94862 13.869 9.02687 13.7942 9.08288 13.7036C9.13889 13.613 9.17081 13.5095 9.1756 13.4031C9.18039 13.2967 9.15789 13.1908 9.11025 13.0955L8.625 12.125H6.45694C6.0822 12.125 5.71606 12.0127 5.40575 11.8026C5.09544 11.5925 4.85521 11.2943 4.71603 10.9463L4.5625 10.5625H10.2592C10.6122 10.5625 10.958 10.6621 11.2569 10.8499C11.5557 11.0377 11.7955 11.3061 11.9486 11.6241L16.125 19H11.75Z" fill="white"/>
</svg>
