<svg width="19" height="18" viewBox="0 0 19 18" fill="none" xmlns="http://www.w3.org/2000/svg">
<path d="M8.64764 12.142H9.64172V9.42904H12.142V8.46443H9.64172V5.75146H8.64764V8.46443H6.17749V9.42904H8.64764V12.142Z" fill="white"/>
<path d="M4.04978 16.083H4.89701V13.655H7.13611V12.8963H4.89701V10.438H4.04978V12.8963H1.81067V13.655H4.04978V16.083Z" fill="white"/>
<path d="M13.4545 7.34907H14.3137V4.908H16.6154V4.17568H14.3137V1.7041H13.4545V4.17568H11.1835V4.908H13.4545V7.34907Z" fill="white"/>
<path d="M8.7764 18H9.51259V16.2911H11.077V15.6615H9.51259V13.9526H8.7764V15.6615H7.24268V16.2911H8.7764V18Z" fill="white"/>
<path d="M4.08003 7.34907H4.86675V4.87749H7.13611V4.17568H4.86675V1.7041H4.08003V4.17568H1.81067V4.87749H4.08003V7.34907Z" fill="white"/>
<path d="M16.019 10.9707H16.7551V9.27925H18.3195V8.61476H16.7551V6.92334H16.019V8.61476H14.4852V9.27925H16.019V10.9707Z" fill="white"/>
<path fill-rule="evenodd" clip-rule="evenodd" d="M13.4545 16.083H14.3137V13.655H16.6154V12.8963H14.3137V10.438H13.4545V12.8963H11.1835V13.655H13.4545V16.083Z" fill="white"/>
<path d="M10.9704 2.17883V1.66439H9.45097V0H8.90396V1.66439H7.38452V2.17883H8.90396V3.84322H9.45097V2.17883H10.9704ZM1.51945 10.8639H2.06645V9.19952H3.5859V8.68507H2.06645V7.05095H1.51945V8.68507H0V9.22978L1.51945 9.19952V10.8639Z" fill="white"/>
</svg>
