<svg width="17" height="20" viewBox="0 0 17 20" fill="none" xmlns="http://www.w3.org/2000/svg">
<path d="M17 5.61504C17 5.29558 16.9319 5.00753 16.7905 4.76661C16.6544 4.5257 16.4501 4.32669 16.1778 4.16958C13.9153 2.8655 11.6476 1.56145 9.3851 0.257372C8.77234 -0.0935266 8.18577 -0.0830477 7.57826 0.273079C6.67745 0.802051 2.16297 3.38922 0.822248 4.16958C0.267089 4.48904 0 4.98135 0 5.62029V13.4971C0 13.8113 0.0680794 14.0889 0.19901 14.3298C0.335191 14.5759 0.54468 14.7854 0.822248 14.9478C2.16822 15.7281 6.67745 18.3101 7.57826 18.8443C8.18577 19.2003 8.77757 19.216 9.3851 18.86C11.6476 17.5507 13.9153 16.2518 16.1778 14.9478C16.4606 14.7854 16.6648 14.5812 16.801 14.3298C16.9319 14.0889 17 13.8113 17 13.4971V5.61504Z" fill="white"/>
<path d="M8.52102 9.52734L0.188599 14.3246C0.32478 14.5708 0.534269 14.7803 0.811837 14.9426C2.15781 15.723 6.66704 18.3049 7.56785 18.8391C8.17535 19.1953 8.76718 19.211 9.37469 18.8548C11.6372 17.5455 13.9049 16.2467 16.1674 14.9426C16.4502 14.7803 16.6544 14.576 16.7906 14.3246L8.52102 9.52734Z" fill="white"/>
<path d="M6.0542 10.9466C6.54128 11.7951 7.45254 12.3659 8.49476 12.3659C9.54743 12.3659 10.4639 11.7898 10.9458 10.9309L8.52094 9.52734L6.0542 10.9466Z" fill="white"/>
<path d="M16.9999 5.61552C16.9999 5.29606 16.9318 5.00802 16.7905 4.76709L8.52087 9.52773L16.8009 14.325C16.9318 14.0841 16.9999 13.8065 16.9999 13.4923V5.61552Z" fill="white"/>
<path d="M10.9457 10.9308C10.4639 11.7845 9.54739 12.3658 8.49469 12.3658C7.44725 12.3658 6.53599 11.795 6.05416 10.9465C5.81849 10.5328 5.6823 10.0614 5.6823 9.55343C5.6823 7.99797 6.93924 6.74104 8.49469 6.74104C9.53166 6.74104 10.4377 7.30666 10.9248 8.14461L13.381 6.73056C12.4017 5.0442 10.5791 3.90771 8.48947 3.90771C5.36807 3.90771 2.84375 6.43729 2.84375 9.55343C2.84375 10.5747 3.11607 11.5383 3.59267 12.3658C4.56678 14.0574 6.39981 15.1991 8.49469 15.1991C10.5948 15.1991 12.4279 14.0522 13.402 12.3501L10.9457 10.9308ZM14.0514 8.21794H13.491V10.9256H14.0514V8.21794ZM15.2926 8.21794H14.7322V10.9256H15.2926V8.21794Z" fill="black"/>
<path d="M15.7484 8.67383H13.0408V9.23421H15.7484V8.67383ZM15.7484 9.9098H13.0408V10.4702H15.7484V9.9098Z" fill="black"/>
</svg>
