<svg width="20" height="20" viewBox="0 0 20 20" fill="none" xmlns="http://www.w3.org/2000/svg">
<path d="M9.99937 4.76562C7.10862 4.76562 4.76465 7.1096 4.76465 10.0003C4.76465 12.8911 7.10862 15.2351 9.99937 15.2351C12.8901 15.2351 15.2341 12.8911 15.2341 10.0003C15.2341 7.1096 12.8901 4.76562 9.99937 4.76562ZM9.73455 9.42957H10.2593C11.344 9.42957 12.2175 10.3647 12.1097 11.47C12.0275 12.3023 11.3696 12.9405 10.5677 13.0993V13.8444C10.5677 13.9266 10.5003 13.9941 10.418 13.9941H9.58076C9.49852 13.9941 9.42615 13.9275 9.42615 13.8444V13.11C8.60372 12.971 7.9614 12.2925 7.88901 11.4495C7.87832 11.3623 7.95645 11.285 8.04363 11.285H8.88088C8.95325 11.285 9.01987 11.331 9.02974 11.4026C9.08648 11.7423 9.37928 11.9997 9.73375 11.9997H10.2173C10.5776 11.9997 10.9057 11.7579 10.9625 11.4083C11.0398 10.9609 10.6952 10.5703 10.2585 10.5703H9.82176C8.85046 10.5703 7.98197 9.86544 7.88904 8.89991C7.79117 7.9023 8.49024 7.04451 9.42617 6.88988V6.1604C9.42617 6.07322 9.49854 6.00578 9.58079 6.00578H10.418C10.5003 6.00578 10.5677 6.07239 10.5677 6.1604V6.88988C11.3951 7.02888 12.0374 7.70738 12.1098 8.55532C12.1147 8.6425 12.0432 8.71487 11.956 8.71487H11.113C11.0464 8.71487 10.9798 8.66881 10.9699 8.6022C10.9131 8.26253 10.6154 8.00017 10.2601 8.00017H9.77652C9.42205 8.00017 9.09308 8.24196 9.03139 8.59643C8.95984 9.04383 9.30444 9.42872 9.7354 9.42872L9.73455 9.42957Z" fill="white"/>
<path d="M19.1677 7.96605L17.5335 7.72755C17.2687 7.08935 17.198 6.91827 16.934 6.28007L17.9209 4.95761C18.2096 4.57025 18.1709 4.02991 17.8296 3.6886L16.3139 2.1704C15.9725 1.82827 15.4314 1.78879 15.044 2.07829L13.7207 3.06685C13.0825 2.80203 12.9114 2.73213 12.2733 2.46729L12.0356 0.833118C11.9665 0.35447 11.5561 0 11.0733 0H8.92832C8.44472 0 8.03515 0.35447 7.96525 0.833118L7.72757 2.46729C7.08937 2.73211 6.91828 2.80201 6.28009 3.06685L4.95678 2.07911C4.56943 1.79043 4.02909 1.82909 3.68696 2.1704L2.1704 3.68778C1.82909 4.02909 1.78961 4.57025 2.07911 4.95679L3.06685 6.28009C2.80203 6.91828 2.73129 7.08937 2.46729 7.72839L0.832297 7.96689C0.35447 8.0368 0 8.44636 0 8.92914V11.0741C0 11.5577 0.35447 11.9673 0.833118 12.0364L2.46811 12.2741C2.73293 12.9131 2.80367 13.0834 3.06767 13.7224L2.07993 15.0448C1.79043 15.4322 1.82991 15.9734 2.17204 16.3147L3.68942 17.8312C4.03074 18.1725 4.57107 18.2112 4.95761 17.9225L6.28173 16.9348C6.91993 17.1996 7.09017 17.2703 7.72839 17.5343L7.96607 19.1693C8.03516 19.6472 8.44554 20.0016 8.92832 20.0016H11.0733C11.5569 20.0016 11.9665 19.6472 12.0356 19.1693L12.2733 17.5343C12.9115 17.2695 13.0825 17.1996 13.7199 16.9348L15.0432 17.9225C15.4306 18.2112 15.9709 18.1725 16.3122 17.8304L17.8296 16.313C18.1709 15.9717 18.2104 15.4305 17.9209 15.0432L16.9299 13.7158C17.1939 13.0792 17.2638 12.9098 17.5278 12.2732L19.1669 12.0355C19.6455 11.9665 20 11.5561 20 11.0725V8.92831C20 8.44554 19.6455 8.03513 19.1677 7.96605ZM9.9992 16.2191C6.56398 16.2191 3.77998 13.436 3.77998 10.0016C3.77998 6.56637 6.56398 3.78236 9.9992 3.78236C13.4344 3.78236 16.2184 6.56637 16.2184 10.0016C16.2184 13.4368 13.4344 16.2191 9.9992 16.2191Z" fill="white"/>
</svg>
