<svg width="18" height="17" viewBox="0 0 18 17" fill="none" xmlns="http://www.w3.org/2000/svg">
<path d="M16.7836 17C16.9767 17.0003 17.1672 16.9545 17.3391 16.8665C17.511 16.7785 17.6594 16.6508 17.7721 16.494C17.8847 16.3372 17.9583 16.1559 17.9867 15.965C18.0152 15.7741 17.9977 15.5792 17.9357 15.3964L13.0118 0.826533C12.9307 0.585846 12.776 0.376636 12.5697 0.228362C12.3633 0.0800882 12.1156 0.000218629 11.8615 0H6.13723C5.88299 0.000143687 5.63521 0.079978 5.42878 0.228257C5.22235 0.376537 5.06769 0.585788 4.98657 0.826533L0.0641022 15.3971C0.00221312 15.5798 -0.0151929 15.7747 0.0133258 15.9655C0.0418444 16.1563 0.115466 16.3375 0.22809 16.4942C0.340714 16.6509 0.489095 16.7785 0.660933 16.8665C0.832771 16.9544 1.02312 17.0002 1.21619 17H4.77179C5.02614 17 5.27409 16.9202 5.48066 16.772C5.68723 16.6237 5.842 16.4143 5.92316 16.1735L6.65608 14.0063L10.3659 16.7603C10.5753 16.916 10.8295 17.0001 11.0905 17M8.77738 7.60969L11.4954 15.6565C11.516 15.7173 11.5218 15.7821 11.5123 15.8456C11.5029 15.9091 11.4785 15.9694 11.4411 16.0216C11.4037 16.0738 11.3545 16.1163 11.2974 16.1457C11.2403 16.1751 11.177 16.1905 11.1128 16.1907H11.0902C11.0031 16.1908 10.9184 16.1629 10.8485 16.1111L3.8836 10.9409H7.52346M12.2566 16.191C12.3481 15.935 12.35 15.6554 12.262 15.3982L7.34202 0.826533L7.33665 0.811486H11.8622C11.9469 0.81134 12.0295 0.837741 12.0984 0.886973C12.1673 0.936205 12.219 1.00579 12.2462 1.08592L17.1676 15.6565C17.202 15.7581 17.1946 15.8691 17.1471 15.9653C17.0995 16.0614 17.0157 16.1347 16.9141 16.1692" fill="white"/>
</svg>
