<svg width="18" height="17" viewBox="0 0 18 17" fill="none" xmlns="http://www.w3.org/2000/svg">
<path fill-rule="evenodd" clip-rule="evenodd" d="M8.25314 0.114453C8.39286 0.0477034 8.54462 0.00930089 8.6995 0.00149847C8.89433 -0.00835247 9.08853 0.0304873 9.26428 0.114453L15.356 3.02323C15.5137 3.09852 15.6522 3.20807 15.7613 3.34374C15.8704 3.47941 15.9473 3.63772 15.9862 3.8069L17.4913 10.3442C17.5302 10.5135 17.5302 10.6893 17.4912 10.8586C17.4523 11.0278 17.3753 11.1862 17.2661 11.3219L13.0518 16.5645C12.9426 16.7 12.804 16.8094 12.6463 16.8845C12.4887 16.9596 12.316 16.9986 12.1411 16.9984L5.3802 17C5.20524 17 5.03251 16.961 4.87486 16.8857C4.71721 16.8105 4.57867 16.701 4.46955 16.5653L0.253614 11.3234C0.230044 11.2939 0.207946 11.2632 0.187399 11.2315C0.102662 11.1019 0.0450053 10.9567 0.0178429 10.8046C-0.0093195 10.6524 -0.00543618 10.4964 0.029263 10.3458L1.53195 3.80846C1.5709 3.63927 1.64778 3.48097 1.75689 3.34529C1.86599 3.20962 2.00451 3.10008 2.16216 3.02479L8.25314 0.114453ZM8.39532 2.63144C8.3953 2.40773 8.55855 2.22638 8.7599 2.22636C8.96124 2.22634 9.12444 2.40773 9.12447 2.63144C9.12451 2.64269 9.12476 2.65532 9.12501 2.66823C9.12547 2.6917 9.12595 2.71612 9.12525 2.73504C9.12208 2.82016 9.10876 2.8921 9.0952 2.96534C9.08821 3.00312 9.08115 3.04124 9.07539 3.0817L9.07305 3.10105C9.0434 3.34686 9.01865 3.55203 9.0341 3.74306C9.04653 3.82773 9.09092 3.8682 9.13335 3.90688C9.14009 3.91303 9.14678 3.91913 9.15329 3.92535C9.15437 3.95178 9.15862 4.03958 9.16186 4.08816C10.321 4.19113 11.3976 4.72122 12.1883 5.55034L12.3269 5.45141C12.3325 5.45174 12.3389 5.45223 12.3459 5.45277C12.398 5.45678 12.4859 5.46353 12.5482 5.42726C12.7074 5.32007 12.8527 5.17238 13.0268 4.99559L13.0397 4.98245C13.0672 4.95332 13.0922 4.92465 13.117 4.89626C13.1666 4.83951 13.2152 4.78384 13.2804 4.72772C13.2965 4.71384 13.3186 4.69658 13.339 4.68064C13.3469 4.6745 13.3545 4.66855 13.3614 4.66306C13.5363 4.52356 13.7796 4.53838 13.9052 4.69578C14.0307 4.85318 13.9905 5.09378 13.8156 5.23329C13.8074 5.23989 13.7983 5.24734 13.7891 5.25498C13.7705 5.2703 13.751 5.28637 13.7353 5.29794C13.6674 5.34813 13.6029 5.38228 13.5375 5.41694C13.5029 5.43526 13.4681 5.45373 13.4323 5.47478L13.432 5.47494C13.2141 5.60954 13.0334 5.72113 12.8901 5.85571C12.8315 5.91845 12.8274 5.9783 12.8236 6.03571C12.823 6.04458 12.8224 6.05339 12.8216 6.06214C12.8118 6.07108 12.7903 6.09036 12.7663 6.11178C12.7405 6.13485 12.7119 6.16041 12.6923 6.17821C13.0065 6.64593 13.2421 7.1768 13.3755 7.75724C13.5075 8.33232 13.5281 8.90709 13.4518 9.45935L13.599 9.50219C13.6021 9.50658 13.6056 9.51171 13.6095 9.51739C13.6385 9.56014 13.6889 9.63414 13.7564 9.66033C13.9421 9.71881 14.1509 9.74069 14.4023 9.76703L14.41 9.76783C14.4511 9.77125 14.4904 9.7728 14.5293 9.77433C14.6035 9.77724 14.6765 9.78012 14.7597 9.79588C14.7787 9.79946 14.8031 9.80551 14.8263 9.81128C14.8403 9.81476 14.8539 9.81813 14.8657 9.8208C15.0806 9.87267 15.2185 10.0702 15.1742 10.2648C15.1298 10.4595 14.9198 10.5778 14.7036 10.5312C14.7028 10.5311 14.7018 10.531 14.7007 10.5308C14.6998 10.5307 14.6989 10.5306 14.6982 10.5305C14.6969 10.5302 14.6958 10.5297 14.6946 10.5293C14.6935 10.5288 14.6924 10.5284 14.6912 10.5281C14.6803 10.5257 14.6684 10.5234 14.6564 10.521C14.6353 10.5167 14.6138 10.5124 14.5969 10.5079C14.5149 10.4859 14.4478 10.4569 14.3796 10.4273C14.344 10.4119 14.3082 10.3964 14.2697 10.3817L14.2587 10.3777C14.0224 10.293 13.8257 10.2224 13.6341 10.1947C13.5488 10.188 13.4996 10.2222 13.4524 10.255C13.4449 10.2602 13.4375 10.2653 13.43 10.2703C13.4033 10.2649 13.3214 10.2504 13.2742 10.243C12.9248 11.3409 12.181 12.2915 11.1724 12.8869C11.178 12.9004 11.1849 12.9188 11.192 12.938C11.2072 12.9788 11.2238 13.0234 11.2332 13.0342C11.23 13.0427 11.2266 13.0511 11.2232 13.0596C11.2018 13.1126 11.1797 13.1676 11.2052 13.2492C11.2759 13.4327 11.3904 13.612 11.5284 13.828C11.5513 13.8621 11.5743 13.8935 11.5972 13.9246C11.6411 13.9845 11.6843 14.0434 11.724 14.1185C11.734 14.1375 11.7463 14.1636 11.7576 14.1874C11.7625 14.1979 11.7673 14.2079 11.7715 14.2167C11.8652 14.4171 11.7964 14.648 11.6165 14.7347C11.4351 14.8221 11.2096 14.7298 11.1125 14.5283C11.1083 14.5197 11.1036 14.5103 11.0988 14.5006C11.0876 14.4779 11.0755 14.4537 11.0673 14.4348C11.0331 14.3564 11.0136 14.2854 10.9938 14.2132C10.9838 14.1764 10.9736 14.1392 10.9613 14.1006L10.9579 14.0906C10.8767 13.8526 10.8093 13.6549 10.7113 13.4875C10.6631 13.4163 10.6054 13.399 10.5502 13.3824C10.5418 13.3798 10.5334 13.3773 10.5251 13.3746C10.5191 13.3643 10.5047 13.3381 10.4889 13.3096C10.4742 13.2829 10.4584 13.2542 10.4472 13.2344C10.2458 13.3105 10.0375 13.3739 9.82167 13.4229C8.87569 13.6377 7.92872 13.5505 7.08271 13.2258L7.00014 13.3754C6.93867 13.3918 6.87939 13.4085 6.84303 13.4519C6.74971 13.5632 6.6958 13.7219 6.63851 13.8905C6.61429 13.9618 6.58945 14.0348 6.56078 14.1068C6.54832 14.1461 6.53811 14.1838 6.52799 14.2212C6.50861 14.2929 6.48955 14.3633 6.45562 14.441C6.44779 14.459 6.4364 14.4817 6.42557 14.5033C6.42023 14.5139 6.41502 14.5243 6.41044 14.5337V14.5345C6.4103 14.5348 6.40981 14.535 6.40966 14.5353C6.31236 14.7362 6.08755 14.8281 5.90643 14.741C5.72644 14.6543 5.65771 14.4234 5.75141 14.2229C5.75645 14.2125 5.76209 14.2003 5.7679 14.1877C5.77814 14.1656 5.78894 14.1422 5.79815 14.1248C5.83803 14.0493 5.88145 13.9898 5.92562 13.9294C5.94823 13.8984 5.97104 13.8672 5.99367 13.8334C6.13169 13.6175 6.2529 13.4238 6.32366 13.2403C6.34144 13.1794 6.31512 13.0959 6.29125 13.0342L6.35747 12.8753C5.38703 12.3002 4.62065 11.3838 4.25495 10.25L4.09604 10.2773C4.09121 10.2746 4.08584 10.2715 4.07998 10.2681C4.03409 10.2415 3.95858 10.1976 3.88649 10.2033C3.69466 10.231 3.49783 10.3017 3.26127 10.3865L3.25082 10.3903C3.21304 10.4047 3.17774 10.4199 3.14276 10.4349C3.07392 10.4645 3.00634 10.4935 2.92365 10.5157C2.90497 10.5207 2.88056 10.5258 2.8572 10.5308C2.8476 10.5328 2.83817 10.5348 2.82939 10.5367C2.82821 10.537 2.8271 10.5374 2.82599 10.5378C2.82481 10.5383 2.82363 10.5388 2.82238 10.539C2.82156 10.5392 2.8206 10.5393 2.81963 10.5394C2.81867 10.5395 2.81771 10.5396 2.81692 10.5398C2.60075 10.5864 2.39086 10.468 2.34641 10.2734C2.30197 10.0788 2.44001 9.88129 2.65489 9.82937L2.66034 9.82781L2.66346 9.82703C2.67265 9.82488 2.6826 9.82245 2.69277 9.81997C2.71642 9.81421 2.74131 9.80814 2.76083 9.80444C2.84403 9.78868 2.91707 9.78581 2.99124 9.7829C3.03017 9.78137 3.06942 9.77982 3.1106 9.7764L3.1189 9.77553C3.37007 9.7492 3.57864 9.72734 3.76418 9.6689C3.81678 9.64732 3.86733 9.58088 3.90615 9.52987C3.91123 9.52319 3.91611 9.51678 3.92076 9.51076L4.07345 9.46636C3.90236 8.28158 4.19186 7.1188 4.81739 6.17743L4.70054 6.07305C4.69972 6.06807 4.69888 6.06237 4.69795 6.0561C4.69039 6.00508 4.67717 5.91586 4.62731 5.86272C4.48394 5.7281 4.30317 5.61644 4.08513 5.48179C4.04964 5.46091 4.01516 5.44257 3.98098 5.4244C3.9155 5.38958 3.85113 5.35535 3.78288 5.30495C3.76707 5.29328 3.74751 5.27718 3.72885 5.26183C3.72143 5.25572 3.71416 5.24974 3.70732 5.24419C3.70647 5.24354 3.7056 5.24295 3.70473 5.24236C3.70377 5.2417 3.7028 5.24104 3.70186 5.2403C3.52695 5.10084 3.48676 4.86022 3.61228 4.70279C3.68288 4.61424 3.79077 4.57042 3.90284 4.57425C3.99001 4.57724 4.08027 4.60906 4.1568 4.67007C4.16354 4.6754 4.17094 4.68119 4.17859 4.68717C4.19919 4.70327 4.22161 4.72079 4.23781 4.73473C4.30257 4.79043 4.3506 4.84569 4.39954 4.902C4.42458 4.93081 4.44986 4.9599 4.47775 4.98946L4.48413 4.99595C4.66108 5.17566 4.80808 5.32497 4.96929 5.43349C5.04361 5.47678 5.10296 5.46741 5.15987 5.45843C5.16857 5.45705 5.17722 5.45569 5.18585 5.45452C5.2068 5.47 5.27724 5.52053 5.31751 5.548C5.93802 4.88964 6.75305 4.40203 7.69968 4.18709C7.91967 4.13714 8.13992 4.10395 8.35871 4.08582L8.36728 3.93158C8.41582 3.88459 8.47027 3.81699 8.48569 3.74306C8.50144 3.54838 8.4762 3.33902 8.44581 3.08693L8.44518 3.0817C8.43942 3.04124 8.43236 3.00312 8.42537 2.96534C8.41181 2.8921 8.39849 2.82016 8.39532 2.73504C8.39465 2.71697 8.39512 2.69416 8.39558 2.67184C8.3958 2.66147 8.39601 2.6512 8.3961 2.64156C8.39607 2.63995 8.39589 2.63837 8.39572 2.63679C8.39552 2.63502 8.39532 2.63325 8.39532 2.63144ZM8.19512 6.96656L8.3034 5.05412C8.17417 5.06978 8.04446 5.09165 7.91468 5.12111C7.20425 5.28242 6.5878 5.63263 6.10585 6.10654L7.67397 7.21817L7.67709 7.21661C7.73021 7.25541 7.79557 7.27815 7.86639 7.27815C8.03926 7.27815 8.18007 7.14154 8.18733 6.97045L8.19512 6.96656ZM11.4015 6.10732C10.8137 5.53171 10.0466 5.15613 9.21717 5.05412L9.32545 6.96344L9.32701 6.96422C9.32979 7.02994 9.35296 7.09504 9.39711 7.1504C9.5049 7.28554 9.69974 7.3106 9.83803 7.2096L9.84348 7.21194L11.4015 6.10732ZM6.96898 8.10155L5.53718 6.82088C5.11225 7.51313 4.91094 8.34344 5.00435 9.1976L6.83967 8.66789L6.84122 8.66165C6.90468 8.64432 6.96378 8.60718 7.00793 8.55182C7.11572 8.41665 7.09666 8.22169 6.96742 8.10935L6.96898 8.10155ZM12.4422 7.96912C12.3463 7.5516 12.1852 7.16648 11.9725 6.82166L10.5485 8.0961L10.5493 8.1C10.4996 8.14315 10.463 8.20156 10.4472 8.2706C10.4087 8.43913 10.5103 8.60716 10.6755 8.6523L10.677 8.6601L12.5217 9.19137C12.5607 8.79342 12.537 8.38164 12.4422 7.96912ZM9.0528 8.20049H8.46621L8.10086 8.65542L8.23174 9.22409L8.7599 9.47804L9.2865 9.22487L9.41737 8.6562L9.0528 8.20049ZM10.4207 9.76549C10.3965 9.76103 10.3716 9.75878 10.3467 9.76004C10.3052 9.76214 10.2635 9.77277 10.2236 9.79198C10.0679 9.86699 10.0001 10.0514 10.0678 10.2087L10.0655 10.2119L10.8024 11.9919C11.5128 11.5393 12.0444 10.8631 12.3223 10.0825L10.4238 9.7616L10.4207 9.76549ZM7.46676 10.0179C7.4331 9.87041 7.30315 9.76986 7.15828 9.76783C7.13758 9.76754 7.11623 9.76941 7.09518 9.77328L7.09206 9.76939L5.21 10.0888C5.50046 10.8924 6.04345 11.5474 6.72515 11.9849L7.4543 10.2228L7.44884 10.2158C7.47485 10.1553 7.48252 10.0869 7.46676 10.0179ZM8.89856 10.5718C8.84988 10.5483 8.79868 10.538 8.74821 10.5398C8.63719 10.5439 8.53187 10.6058 8.47634 10.7096H8.47478L7.54933 12.3829C8.1898 12.6012 8.8971 12.65 9.60667 12.4889C9.73327 12.4601 9.85706 12.4256 9.97747 12.3853L9.04968 10.7089H9.04267C9.01165 10.6509 8.96236 10.6025 8.89856 10.5718Z" fill="white"/>
</svg>
