<svg width="20" height="22" viewBox="0 0 20 22" fill="none" xmlns="http://www.w3.org/2000/svg">
<path d="M1.85763 8.08814L2.82034 7.4C2.9322 7.45763 3.04746 7.51187 3.1661 7.55593C3.21356 6.98983 3.39661 6.46441 3.68475 6.00678C3.07119 5.7322 2.64407 5.11864 2.64407 4.40339C2.64407 3.43051 3.4339 2.64068 4.40678 2.64068C5.37966 2.64068 6.1661 3.42712 6.16949 4.4C6.32542 4.37966 6.48136 4.36271 6.64068 4.36271C6.95254 4.36271 7.25763 4.40339 7.55254 4.48475C7.77627 4.1322 8.04068 3.81017 8.32881 3.52203L7.64407 3.40678C7.57966 3.2 7.49831 3.00339 7.39661 2.81695L8.08475 1.85424L6.95254 0.722034L5.98983 1.41017C5.80339 1.31186 5.60678 1.22712 5.4 1.16271L5.20678 0H3.60339L3.41017 1.1661C3.20339 1.23051 3.00678 1.31186 2.82034 1.41356L1.85763 0.725424L0.725424 1.85763L1.41356 2.82034C1.31525 3.00678 1.23051 3.20678 1.1661 3.41017L0 3.60678V5.21017L1.1661 5.40339C1.23051 5.61017 1.31186 5.80678 1.41356 5.99322L0.725424 6.95593L1.85763 8.08814Z" fill="white"/>
<path d="M14.5763 13.8983H14.2373V15.9322H16.3254C18.3695 15.8305 20 14.1457 20 12.0745C20 10.2779 18.7729 8.77284 17.1119 8.33894C17.1593 8.06775 17.1864 7.78979 17.1864 7.50504C17.1864 4.7864 14.983 2.58301 12.2644 2.58301C10.3288 2.58301 8.66101 3.70165 7.85762 5.32538C7.48813 5.14911 7.07796 5.04402 6.64067 5.04402C5.08813 5.04402 3.82711 6.30165 3.82711 7.85758C3.82711 8.02369 3.84406 8.1864 3.87118 8.34572C2.22711 8.78979 1.01355 10.2881 1.01355 12.0745C1.01355 14.1457 2.64067 15.8305 4.68813 15.9322H7.45423V17.6271H6.43728V16.9491H4.40338V18.983H6.43728V18.305H7.79321C7.97965 18.305 8.1322 18.1525 8.1322 17.9661V15.9322V13.8983H8.81016V15.9322H10.8441V19.661H9.82711V18.983H7.79321V21.0169H9.82711V20.3389H11.183C11.3695 20.3389 11.522 20.1864 11.522 20V15.9322V13.8983H12.2V15.9322H12.878V20C12.878 20.1864 13.0305 20.3389 13.2169 20.3389H14.5729V21.0169H16.6068V18.983H14.5729V19.661H13.5559V15.9322V13.8983H13.8949C14.0813 13.8983 14.2339 13.7457 14.2339 13.5593C14.2339 13.3728 14.0813 13.2203 13.8949 13.2203H14.5729C14.7593 13.2203 14.9119 13.3728 14.9119 13.5593C14.9119 13.7457 14.7627 13.8983 14.5763 13.8983ZM11.6949 11.1864H7.42711L7.8644 11.6237C7.9966 11.7559 7.9966 11.9694 7.8644 12.1017C7.79999 12.1694 7.71525 12.2033 7.62711 12.2033C7.53897 12.2033 7.45423 12.1694 7.38643 12.105L6.36948 11.0881C6.23728 10.9559 6.23728 10.7423 6.36948 10.6101L7.38643 9.59318C7.51864 9.46097 7.7322 9.46097 7.8644 9.59318C7.9966 9.72538 7.9966 9.93894 7.8644 10.0711L7.42711 10.5084H11.6949C11.8813 10.5084 12.0339 10.661 12.0339 10.8474C12.0339 11.0339 11.8813 11.1864 11.6949 11.1864ZM14.6475 9.39318L13.6305 10.4101C13.5627 10.4745 13.478 10.5084 13.3898 10.5084C13.3017 10.5084 13.2169 10.4745 13.1491 10.4101C13.0169 10.2779 13.0169 10.0644 13.1491 9.93216L13.5898 9.49148H9.32203C9.13559 9.49148 8.98304 9.33894 8.98304 9.1525C8.98304 8.96606 9.13559 8.81352 9.32203 8.81352H13.5898L13.1525 8.37623C13.0203 8.24403 13.0203 8.03047 13.1525 7.89826C13.2847 7.76606 13.4983 7.76606 13.6305 7.89826L14.6475 8.91521C14.7797 9.04403 14.7797 9.26097 14.6475 9.39318ZM12.2644 4.27792C12.078 4.27792 11.9254 4.12538 11.9254 3.93894C11.9254 3.7525 12.078 3.59996 12.2644 3.59996C14.4169 3.59996 16.1695 5.3525 16.1695 7.50504C16.1695 7.69148 16.0169 7.84403 15.8305 7.84403C15.6441 7.84403 15.4915 7.69148 15.4915 7.50504C15.4915 5.72538 14.0441 4.27792 12.2644 4.27792Z" fill="white"/>
</svg>
