<svg width="22" height="13" viewBox="0 0 22 13" fill="none" xmlns="http://www.w3.org/2000/svg">
<path fill-rule="evenodd" clip-rule="evenodd" d="M2.01364 1.90381C3.30295 0.684819 5.05164 0 6.875 0H15.125C16.9484 0 18.697 0.684819 19.9864 1.90381C21.2757 3.12279 22 4.77609 22 6.5C22 8.22391 21.2757 9.87721 19.9864 11.0962C18.697 12.3152 16.9484 13 15.125 13H6.875C5.05164 13 3.30295 12.3152 2.01364 11.0962C0.724328 9.87721 0 8.22391 0 6.5C0 4.77609 0.724328 3.12279 2.01364 1.90381ZM6.875 2.6C5.78098 2.6 4.73177 3.01089 3.95818 3.74228C3.1846 4.47368 2.75 5.46566 2.75 6.5C2.75 7.53434 3.1846 8.52632 3.95818 9.25772C4.73177 9.98911 5.78098 10.4 6.875 10.4H15.125C16.219 10.4 17.2682 9.98911 18.0418 9.25772C18.8154 8.52632 19.25 7.53434 19.25 6.5C19.25 5.46566 18.8154 4.47368 18.0418 3.74228C17.2682 3.01089 16.219 2.6 15.125 2.6H6.875Z" fill="white"/>
</svg>
