<svg width="17" height="17" viewBox="0 0 17 17" fill="none" xmlns="http://www.w3.org/2000/svg">
<path d="M16.66 2.26312C16.5006 1.84344 16.1181 1.25375 15.5763 0.834063C15.2575 0.595 14.8962 0.36125 14.3862 0.2125C13.8337 0.053125 13.1538 0 12.325 0H4.675C3.84094 0 3.16625 0.0531249 2.61906 0.217812C2.10906 0.371875 1.73188 0.600312 1.42375 0.839375C0.881875 1.25375 0.499375 1.84875 0.334687 2.26844C0.00531247 3.11312 0 4.06938 0 4.675V12.325C0 12.9306 0.00531247 13.8869 0.334687 14.7369C0.499375 15.1566 0.881875 15.7463 1.42375 16.1659C1.73719 16.405 2.10906 16.6388 2.61906 16.7875C3.16625 16.9469 3.84094 17 4.675 17H12.325C13.1591 17 13.8338 16.9469 14.3809 16.7822C14.8909 16.6281 15.2681 16.3997 15.5763 16.1606C16.1181 15.7463 16.5006 15.1512 16.6653 14.7316C17 13.8869 17 12.9253 17 12.3197V4.66969C17 4.06406 16.9947 3.10781 16.6653 2.25781L16.66 2.26312ZM3.36813 11.6875H2.73594V7.91031H3.36813V11.6875ZM3.05469 7.27281C2.84219 7.27281 2.66156 7.0975 2.66156 6.87969C2.66156 6.66188 2.83688 6.48656 3.05469 6.48656C3.2725 6.48656 3.45312 6.66188 3.45312 6.87969C3.44781 7.0975 3.2725 7.27281 3.05469 7.27281ZM6.85313 11.7831C5.185 11.7831 4.13313 10.5931 4.13313 8.69656C4.13313 6.8 5.185 5.60469 6.85313 5.60469C8.52125 5.60469 9.57312 6.8 9.57312 8.69656C9.57312 10.5931 8.52125 11.7831 6.85313 11.7831ZM12.3569 11.7831C11.1031 11.7831 10.2213 11.0925 10.1628 10.0619H10.7313C10.795 10.7791 11.4697 11.2678 12.41 11.2678C13.3078 11.2678 13.9506 10.7791 13.9506 10.1044C13.9506 9.54656 13.5628 9.21187 12.6756 8.98875L11.9319 8.7975C10.8216 8.51594 10.3275 8.04844 10.3275 7.25688C10.3275 6.29 11.1988 5.59937 12.3781 5.59937C13.5469 5.59937 14.3969 6.29 14.4341 7.24094H13.8656C13.8125 6.56625 13.2122 6.11469 12.3622 6.11469C11.5334 6.11469 10.9172 6.57688 10.9172 7.23563C10.9172 7.75094 11.2891 8.05375 12.1709 8.27688L12.8191 8.44156C14.025 8.74438 14.5297 9.20656 14.5297 10.0406C14.5297 11.0925 13.685 11.7831 12.3569 11.7831ZM8.99406 8.69656C8.99406 10.2638 8.16531 11.2572 6.85313 11.2572C5.54094 11.2572 4.7175 10.2638 4.7175 8.69656C4.7175 7.12406 5.54094 6.13062 6.85313 6.13062C8.16531 6.13062 8.99406 7.12406 8.99406 8.69656Z" fill="white"/>
</svg>
