<svg width="20" height="21" viewBox="0 0 20 21" fill="none" xmlns="http://www.w3.org/2000/svg">
<path fill-rule="evenodd" clip-rule="evenodd" d="M5.26572 12.2802C5.52997 16.3138 10.4577 18.1873 13.3329 15.3122C14.12 14.5251 14.631 13.4618 14.7084 12.2802H5.26572ZM15.3371 12.2802H18.6384V13.3625C15.7244 13.3625 17.4461 13.0714 15.9149 15.5801C15.8397 15.7032 15.8581 15.8629 15.9603 15.9649L17.0919 17.0965L15.1173 19.0711C13.053 17.0068 14.4772 18.025 11.6236 18.7147C11.4804 18.7493 11.3843 18.8775 11.3843 19.0186L11.3833 20.6177H8.59096C8.59096 17.7037 8.882 19.4254 6.37337 17.8942C6.24748 17.8174 6.08882 17.8401 5.98899 17.94L4.85692 19.0711L2.88233 17.0965C4.94661 15.0322 3.92849 16.4565 3.23875 13.6028C3.20412 13.4596 3.07596 13.3635 2.93481 13.3636L1.33578 13.3626V12.2801H4.63708C4.71533 13.6351 5.29686 14.8551 6.19764 15.7558C9.46803 19.0262 15.072 16.8705 15.3371 12.2802ZM8.27468 11.6526H11.6995V5.36544L9.97988 4.27517L8.27468 5.36364V11.6526ZM5.57571 11.6526H7.64709V6.58202L5.57571 7.40915V11.6526ZM12.3268 6.58191L12.3271 11.6526H14.3984V7.40917L12.3268 6.58191ZM6.3357 8.02966H6.95493V8.65725H6.3357V8.02966ZM6.3357 9.44082H6.95493V10.0684H6.3357V9.44082ZM13.0178 8.02966H13.637V8.65725H13.0178V8.02966ZM13.0178 9.44082H13.637V10.0684H13.0178V9.44082ZM10.4564 0.204493C9.82878 -0.421243 8.8782 0.531015 9.50473 1.15755C10.1297 1.78254 11.0824 0.832106 10.4564 0.204493ZM4.1592 2.01014C3.30248 2.23964 3.65556 3.53655 4.50769 3.30846C5.35552 3.08156 5.01902 1.77971 4.1592 2.01014ZM0.341249 5.96837C-0.439082 6.41857 0.2621 7.58107 1.01278 7.13339C1.16324 7.04364 1.27702 6.90805 1.32601 6.72489C1.48727 6.12201 0.820438 5.67494 0.341249 5.96837ZM19.9767 6.37671C19.8807 6.01802 19.5145 5.80503 19.1519 5.90228C18.2996 6.13088 18.6466 7.4291 19.5018 7.19986C19.8602 7.10381 20.0735 6.73779 19.9767 6.37671ZM16.3345 2.30688C15.893 1.58665 14.7311 2.18775 15.1922 3.01961C15.4409 3.4683 16.2459 3.44644 16.4101 2.83346C16.4603 2.64608 16.4308 2.48318 16.3345 2.30688ZM9.01883 5.73722H10.9554V6.36481H9.01883V5.73722ZM9.01883 7.29228H10.9554V7.91986H9.01883V7.29228ZM9.01883 8.84733H10.9554V9.47492H9.01883V8.84733ZM9.01883 10.4024H10.9554V11.03H9.01883V10.4024ZM16.1151 11.6526V7.31943C16.1151 7.1681 16.2223 7.04179 16.3648 7.01219L18.1177 6.54247C18.1162 6.75474 18.171 6.96434 18.2758 7.14894L16.7427 7.55973V11.6526H16.1151ZM3.23145 11.6526V7.55973L1.72482 7.15604C1.83097 6.97213 1.88705 6.7631 1.88705 6.5507L3.60935 7.01219C3.75186 7.04179 3.85904 7.1681 3.85904 7.31943V11.6526H3.23145ZM6.17602 6.49641V4.08383L5.18899 3.514C5.33803 3.36429 5.44688 3.17685 5.50183 2.97312L6.61985 3.6186C6.72823 3.668 6.8036 3.77734 6.8036 3.90424V6.24582L6.17602 6.49641ZM9.6665 3.73383V1.84955C9.87154 1.90484 10.089 1.90473 10.2941 1.84955V3.73203C10.0257 3.56188 10.0024 3.51953 9.6665 3.73383ZM13.1706 6.24582V3.90424C13.1706 3.77734 13.246 3.668 13.3544 3.6186L14.5778 2.91228C14.6221 3.11913 14.7207 3.31054 14.863 3.4691L13.7982 4.08383V6.49641L13.1706 6.24582Z" fill="white"/>
</svg>
