<svg width="20" height="16" viewBox="0 0 20 16" fill="none" xmlns="http://www.w3.org/2000/svg">
<path fill-rule="evenodd" clip-rule="evenodd" d="M7.08642 9.30827V15.7978C6.23425 15.7978 5.31654 15.7978 4.39882 15.7978V11.2093L7.08642 9.30827ZM14.7559 2.35984C13.1827 2.35984 13.1827 0 14.7559 0C16.5258 0 18.2301 0 20 0V5.11299C20 6.68622 17.6402 6.68622 17.6402 5.11299V4.12972L11.085 10.947L7.15197 8.1939L1.84232 11.8648C0.596852 12.7169 -0.779723 10.8159 0.531301 9.89823L7.15197 5.30965L10.8228 7.80059L16.0014 2.35984H14.7559ZM3.41555 11.9303V15.7978H0.727954V12.9791C1.25236 13.1102 1.84232 13.0447 2.43228 12.6514L3.41555 11.9303ZM18.2301 7.14508V15.7978H15.5425V7.66949L16.9191 6.22736C17.2469 6.68622 17.7057 7.01398 18.2301 7.14508ZM14.4937 8.71831V15.7978C13.6415 15.7978 12.7238 15.7978 11.8061 15.7978V11.537L14.4937 8.71831ZM10.8228 11.8648V15.7978C9.90512 15.7978 9.05295 15.7978 8.13524 15.7978V10.0293L10.8228 11.8648Z" fill="white"/>
</svg>
