<svg width="20" height="22" viewBox="0 0 20 22" fill="none" xmlns="http://www.w3.org/2000/svg">
<path d="M17.2559 9.96136V11.1734C17.2559 11.2427 17.2281 11.31 17.1786 11.3596C17.1291 11.4091 17.0618 11.4368 16.9915 11.4368H14.3356C14.189 11.4368 14.0712 11.319 14.0712 11.1734C14.0712 9.71873 13.2948 8.374 12.0353 7.64723C10.7757 6.91941 9.22299 6.91941 7.96362 7.64723C6.70404 8.37405 5.92773 9.71878 5.92773 11.1734C5.92773 11.2427 5.9 11.31 5.85049 11.3595C5.80098 11.4091 5.73364 11.4368 5.66334 11.4368H3.00744C2.86089 11.4368 2.74304 11.3189 2.74304 11.1734V9.96135C2.74304 9.8148 2.86088 9.69695 3.00744 9.69695H3.27184H3.27085C3.78575 9.68507 4.24126 9.36226 4.42249 8.88099C4.64529 8.40371 4.5532 7.83927 4.18978 7.45803L4.00461 7.27286H4.0056C3.90262 7.16988 3.90262 7.00352 4.0056 6.90052L5.72165 5.18447C5.82464 5.08149 5.991 5.08149 6.09399 5.18447L6.27916 5.37162C6.62674 5.71524 7.14562 5.8192 7.59913 5.63602L7.75261 5.57265C8.20812 5.38352 8.5052 4.93791 8.5052 4.44479V4.18039C8.5052 4.03482 8.62303 3.91698 8.76861 3.91698H11.1927C11.263 3.91698 11.3303 3.94471 11.3798 3.99422C11.4293 4.04373 11.4571 4.11106 11.4571 4.18038V4.44478C11.4571 4.93791 11.7541 5.3835 12.2097 5.57264L12.2968 5.6073V5.60631C12.7939 5.81525 13.3672 5.70137 13.7465 5.31915L13.8812 5.18447C13.9841 5.08149 14.1505 5.08149 14.2535 5.18447L15.9696 6.90053C16.0191 6.95004 16.0458 7.01638 16.0468 7.0857C16.0468 7.156 16.0191 7.22334 15.9696 7.27285L15.7844 7.45802H15.7854C15.4447 7.84321 15.3536 8.38983 15.5497 8.86514C15.7458 9.34045 16.1953 9.66325 16.7092 9.69692H16.9736C17.0469 9.69197 17.1182 9.71771 17.1717 9.76722C17.2262 9.81772 17.2559 9.88809 17.2559 9.96136ZM9.9995 8.22351C8.37156 8.2245 7.05157 9.54446 7.04955 11.1735C7.04955 11.2428 7.07727 11.3101 7.12678 11.3596C7.1763 11.4091 7.24363 11.4369 7.31394 11.4369H12.685C12.7554 11.4369 12.8227 11.4091 12.8722 11.3596C12.9217 11.3101 12.9494 11.2428 12.9494 11.1735C12.9475 9.54454 11.6275 8.22452 9.9995 8.22351ZM16.1202 18.3158C14.0893 20.0358 11.4275 20.821 8.78854 20.4804C6.14862 20.1388 3.7741 18.7029 2.24703 16.5225L3.10753 16.7364C3.24814 16.7721 3.39074 16.6869 3.42737 16.5463C3.4442 16.478 3.4343 16.4057 3.39766 16.3453C3.36201 16.2849 3.3026 16.2413 3.23427 16.2245L1.74794 15.8551C1.67962 15.8373 1.60634 15.8482 1.54593 15.8839C1.48553 15.9205 1.44196 15.9789 1.42513 16.0472L1.05578 17.5336V17.5346C1.03598 17.6029 1.04489 17.6772 1.08054 17.7395C1.11618 17.8019 1.17659 17.8465 1.2459 17.8643C1.31621 17.8811 1.38949 17.8693 1.44989 17.8306C1.51129 17.793 1.55387 17.7316 1.56773 17.6613L1.78657 16.785L1.78756 16.784C3.39172 19.1021 5.89903 20.6349 8.69334 21.0052C11.4876 21.3756 14.3078 20.5497 16.4608 18.7307C16.5727 18.6366 16.5865 18.4693 16.4925 18.3583C16.3984 18.2464 16.232 18.2326 16.1201 18.3266L16.1202 18.3158ZM0.540993 11.086C0.543964 8.57679 1.54112 6.17145 3.31375 4.39595C5.08638 2.62045 7.49063 1.6204 9.99975 1.61331H10.0364L9.40561 2.24408V2.24507C9.32936 2.32033 9.30659 2.43322 9.34719 2.53224C9.38779 2.63126 9.48384 2.69562 9.59078 2.69661C9.66109 2.69562 9.72843 2.6679 9.77794 2.6174L10.8602 1.53509V1.5341C10.9107 1.48459 10.9385 1.41725 10.9385 1.34694C10.9385 1.27664 10.9107 1.2093 10.8602 1.15979L9.77794 0.0774844V0.0764942C9.67495 -0.0254981 9.5086 -0.0254981 9.4056 0.0764942C9.30361 0.179478 9.30361 0.345835 9.4056 0.448831L10.0393 1.08554H9.99973C6.84394 1.08851 3.87422 2.57879 1.98693 5.10779C0.0995598 7.63782 -0.483688 10.9086 0.411489 13.9346C0.446147 14.0514 0.555072 14.1297 0.675887 14.1247C0.700643 14.1237 0.726389 14.1198 0.750154 14.1118C0.888787 14.0692 0.968005 13.9237 0.926414 13.7841C0.665996 12.9077 0.531312 11.9997 0.528346 11.0856L0.540993 11.086ZM19.3503 16.4571H18.4313C20.0474 13.9241 20.4375 10.798 19.4958 7.94517C18.5531 5.09231 16.3765 2.81488 13.5693 1.74335C13.4336 1.69087 13.2821 1.7582 13.2287 1.89386C13.2029 1.95922 13.2049 2.03349 13.2336 2.09785C13.2623 2.16222 13.3158 2.21272 13.3821 2.23747C16.0101 3.24155 18.0561 5.36259 18.9642 8.02533C19.8722 10.6881 19.5494 13.6172 18.0828 16.0184V15.1866C18.0828 15.041 17.964 14.9222 17.8184 14.9222C17.6729 14.9222 17.5541 15.041 17.5541 15.1866V16.7205C17.5541 16.7908 17.5818 16.8581 17.6313 16.9076C17.6808 16.9571 17.7481 16.9848 17.8184 16.9848H19.3503C19.4959 16.9848 19.6137 16.867 19.6137 16.7204C19.6137 16.5749 19.4958 16.4571 19.3503 16.4571ZM9.7351 11.9654V15.7331C9.09641 15.8688 8.66268 16.4639 8.73102 17.1135C8.79935 17.7631 9.34694 18.2562 9.9995 18.2562C10.6521 18.2562 11.1997 17.7631 11.268 17.1135C11.3363 16.4639 10.9026 15.8688 10.2639 15.7331V11.9654H9.7351ZM5.796 14.3914V15.7332C5.1583 15.8689 4.72556 16.463 4.7939 17.1106C4.86222 17.7592 5.40784 18.2513 6.05941 18.2513C6.71098 18.2513 7.25759 17.7592 7.32591 17.1106C7.39324 16.463 6.96151 15.8689 6.32381 15.7332V14.5766L8.0666 13.935C8.17058 13.8963 8.2389 13.7973 8.23791 13.6864V11.9654H7.71013V13.5022L5.96733 14.1469V14.1459C5.86435 14.1845 5.796 14.2825 5.796 14.3914ZM14.0316 14.1459L12.2888 13.5012V11.9654H11.7611V13.6864C11.7601 13.7973 11.8284 13.8963 11.9324 13.9349L13.6752 14.5766V15.7332C13.0365 15.8688 12.6027 16.464 12.6711 17.1136C12.7384 17.7631 13.286 18.2563 13.9396 18.2563C14.5921 18.2563 15.1397 17.7631 15.208 17.1136C15.2754 16.464 14.8417 15.8688 14.203 15.7332V14.3914C14.203 14.2825 14.1346 14.1845 14.0316 14.1459Z" fill="white"/>
</svg>
