<svg width="20" height="14" viewBox="0 0 20 14" fill="none" xmlns="http://www.w3.org/2000/svg">
<path d="M9.87694 0.0353669C9.77128 -0.011789 9.6546 -0.011789 9.54894 0.0353669L0 4.24966L0.538349 4.48913L9.58483 8.4646C9.69049 8.51176 9.80717 8.51176 9.91283 8.4646L18.2822 4.76605C18.3722 4.72713 18.4498 4.65668 18.5046 4.5642C18.5595 4.47172 18.5889 4.36166 18.5889 4.2489C18.5889 4.13613 18.5595 4.02608 18.5046 3.9336C18.4498 3.84111 18.3722 3.77066 18.2822 3.73174L9.87694 0.0353669Z" fill="white"/>
<path d="M4.19242 7.36798C4.15709 7.35275 4.11916 7.34782 4.08186 7.35361C4.04456 7.3594 4.00901 7.37573 3.97824 7.40121C3.94748 7.4267 3.92242 7.46057 3.9052 7.49994C3.88799 7.5393 3.87914 7.58299 3.8794 7.62726V10.7983C3.8794 12.1864 6.47642 13.3004 9.71447 13.3004C11.9058 13.3004 13.7941 12.7818 14.8057 12.0303C15.2789 11.6709 15.5569 11.2346 15.5569 10.7985V7.58307C15.557 7.53867 15.5478 7.49492 15.5303 7.45559C15.5128 7.41626 15.4874 7.38253 15.4564 7.3573C15.4253 7.33207 15.3895 7.3161 15.3521 7.31075C15.3146 7.30541 15.2766 7.31085 15.2413 7.32662L9.79458 9.72527C9.74216 9.74885 9.68419 9.74885 9.63178 9.72527L4.19242 7.36798ZM19.1631 4.98979C19.1215 5.00562 19.0845 5.03509 19.0565 5.07477C19.0286 5.11445 19.0108 5.16268 19.0053 5.21381L18.8877 6.31299L18.487 9.6519C18.4822 9.69084 18.4847 9.73052 18.4942 9.76825C18.5036 9.80597 18.5199 9.84086 18.5418 9.87054C18.5637 9.90022 18.5909 9.92399 18.6213 9.94024C18.6517 9.9565 18.6848 9.96485 18.7182 9.96474H19.7675C19.8008 9.96469 19.8338 9.95623 19.8641 9.93993C19.8944 9.92363 19.9213 9.89988 19.9432 9.87027C19.965 9.84066 19.9812 9.80588 19.9906 9.76829C20 9.73069 20.0025 9.69115 19.9979 9.65234L19.4669 5.2112C19.4625 5.1714 19.4505 5.13327 19.432 5.09955C19.4135 5.06583 19.3889 5.03738 19.3599 5.01623C19.3309 4.99509 19.2983 4.98179 19.2644 4.97729C19.2305 4.9728 19.1961 4.97721 19.1639 4.99023L19.1631 4.98979Z" fill="white"/>
</svg>
