<svg width="29" height="13" viewBox="0 0 29 13" fill="none" xmlns="http://www.w3.org/2000/svg">
<path d="M14.5221 0C11.5162 0 8.96838 2.00662 8.17874 4.72537C7.49246 3.28331 6.00526 2.27302 4.29227 2.27302C1.9365 2.27302 0 4.17987 0 6.49957C0 8.81926 1.9365 10.727 4.29227 10.727C6.00526 10.727 7.49246 9.71607 8.17874 8.27375C8.96838 10.9927 11.5162 13 14.5221 13C17.5058 13 20.0406 11.023 20.8504 8.3347C21.5494 9.74427 23.0182 10.727 24.7068 10.727C27.0626 10.727 29 8.81926 29 6.49957C29 4.17987 27.0626 2.27302 24.7068 2.27302C23.0182 2.27302 21.5494 3.25511 20.8504 4.66443C20.0406 1.97636 17.5058 0 14.5221 0ZM14.5221 2.48108C16.7912 2.48108 18.604 4.26517 18.604 6.49957C18.604 8.73395 16.7912 10.5189 14.5221 10.5189C12.253 10.5189 10.4411 8.73395 10.4411 6.49957C10.4411 4.26517 12.253 2.48108 14.5221 2.48108ZM4.29227 4.7541C5.28643 4.7541 6.06576 5.52062 6.06576 6.49957C6.06576 7.4785 5.28643 8.2459 4.29227 8.2459C3.29811 8.2459 2.51966 7.4785 2.51966 6.49957C2.51966 5.52062 3.29811 4.7541 4.29227 4.7541ZM24.7068 4.7541C25.701 4.7541 26.4803 5.52062 26.4803 6.49957C26.4803 7.4785 25.701 8.2459 24.7068 8.2459C23.7127 8.2459 22.9342 7.4785 22.9342 6.49957C22.9342 5.52062 23.7127 4.7541 24.7068 4.7541Z" fill="white"/>
</svg>
