<svg width="20" height="20" viewBox="0 0 20 20" fill="none" xmlns="http://www.w3.org/2000/svg">
<path d="M15.1724 16.5516H4.82759V15.1722H4.13794V18.9653C4.13794 19.5357 4.60208 19.9998 5.17242 19.9998H14.8276C15.3979 19.9998 15.8621 19.5357 15.8621 18.9653V14.4202C15.6245 14.3802 15.3945 14.3198 15.1724 14.2412V16.5516ZM6.65277 18.8643C6.58794 18.9291 6.50035 18.9653 6.40897 18.9653H6.2069C6.01656 18.9653 5.86208 18.8109 5.86208 18.6205V17.9309C5.86208 17.7405 6.01656 17.586 6.2069 17.586H6.40897C6.50035 17.586 6.58828 17.6222 6.65277 17.6871L7.24139 18.2757L6.65277 18.8643ZM10.6897 18.6205C10.6897 18.8109 10.5352 18.9653 10.3448 18.9653H9.65518C9.46484 18.9653 9.31035 18.8109 9.31035 18.6205V17.9309C9.31035 17.7405 9.46484 17.586 9.65518 17.586H10.3448C10.5352 17.586 10.6897 17.7405 10.6897 17.9309V18.6205ZM14.1379 18.6205C14.1379 18.8109 13.9835 18.9653 13.7931 18.9653H13.591C13.4997 18.9653 13.4117 18.9291 13.3472 18.8643L12.7586 18.2757L13.3472 17.6871C13.4121 17.6222 13.4997 17.586 13.591 17.586H13.7931C13.9835 17.586 14.1379 17.7405 14.1379 17.9309V18.6205Z" fill="white"/>
<path d="M5.45552 13.6714L5.63759 13.6131C5.83069 13.5514 6.02552 13.4696 6.21793 13.3703L6.38793 13.2828L7.11035 13.7124L8.19414 12.6286L7.76448 11.9062L7.85207 11.7362C7.95138 11.5438 8.0331 11.3486 8.09483 11.1559L8.1531 10.9738L8.96552 10.7669V9.23413L8.15379 9.02758L8.09552 8.84551C8.03379 8.65275 7.95207 8.45758 7.85276 8.26482L7.76517 8.09482L8.19483 7.37241L7.11103 6.28861L6.38862 6.71827L6.21862 6.63068C6.02621 6.53137 5.83103 6.44965 5.63828 6.38792L5.45621 6.32965L5.24931 5.51758H3.71655L3.51 6.3293L3.32793 6.38758C3.13483 6.4493 2.94 6.53103 2.74759 6.63034L2.57759 6.71792L1.85517 6.28827L0.771379 7.37206L1.20103 8.09447L1.11345 8.26447C1.01414 8.45723 0.932414 8.65241 0.87069 8.84516L0.812414 9.02723L0 9.23379V10.7665L0.811724 10.9731L0.87 11.1552C0.931724 11.3483 1.01345 11.5431 1.11276 11.7355L1.20034 11.9055L0.77069 12.6279L1.85448 13.7117L2.5769 13.2821L2.7469 13.3696C2.93931 13.469 3.13448 13.5507 3.32724 13.6124L3.50931 13.6707L3.71621 14.4831H5.24897L5.45552 13.6714ZM1.72414 10.0003C1.72414 8.47689 2.95931 7.24172 4.48276 7.24172C6.00621 7.24172 7.24138 8.47689 7.24138 10.0003C7.24138 11.5238 6.00621 12.759 4.48276 12.759C2.95931 12.759 1.72414 11.5238 1.72414 10.0003Z" fill="white"/>
<path d="M4.82759 2.06897H15.1724V6.44828C15.3945 6.36931 15.6245 6.30931 15.8621 6.26931V1.03448C15.8621 0.464138 15.3979 0 14.8276 0H5.17242C4.60208 0 4.13794 0.464138 4.13794 1.03448V4.82759H4.82759V2.06897ZM9.65518 0.689655H11.7241V1.37931H9.65518V0.689655ZM8.27587 0.689655H8.96553V1.37931H8.27587V0.689655Z" fill="white"/>
<path d="M6.36066 14.0684C6.25135 14.1191 6.14135 14.1653 6.031 14.2064L5.78514 15.1726H5.51721V15.8622H14.4827V13.9229C13.2479 13.206 12.4138 11.8726 12.4138 10.345C12.4138 8.81741 13.2479 7.48396 14.4827 6.76707V2.75879H5.51721V4.82775H5.78514L6.031 5.79396C6.141 5.835 6.25135 5.88086 6.36066 5.93189L7.21928 5.42155L9.06135 7.26362L8.55101 8.12189C8.60169 8.2312 8.6479 8.34155 8.68894 8.45155L9.65514 8.69775V11.3029L8.68894 11.5488C8.6479 11.6588 8.60204 11.7691 8.55101 11.8784L9.06135 12.7371L7.21928 14.5791L6.36066 14.0684ZM9.99997 3.79327L13.4482 5.51741L9.99997 7.24155V3.79327Z" fill="white"/>
<path d="M16.5518 11.0342C15.4307 11.0342 14.4742 11.7966 14.2121 12.8704C14.8276 13.4407 15.6483 13.7928 16.5518 13.7928C17.4552 13.7928 18.2759 13.4407 18.8914 12.8704C18.6293 11.7966 17.6728 11.0342 16.5518 11.0342Z" fill="white"/>
<path d="M16.5517 6.89648C14.6504 6.89648 13.1035 8.44338 13.1035 10.3448C13.1035 11.0541 13.3193 11.7141 13.6879 12.2627C14.0062 11.4868 14.6217 10.8817 15.3862 10.5727C15.0452 10.2575 14.8276 9.81028 14.8276 9.31028C14.8276 8.35959 15.601 7.58614 16.5517 7.58614C17.5024 7.58614 18.2759 8.35959 18.2759 9.31028C18.2759 9.81028 18.0583 10.2575 17.7172 10.5727C18.4817 10.8817 19.0972 11.4868 19.4155 12.2627C19.7841 11.7141 20 11.0541 20 10.3448C20 8.44338 18.4531 6.89648 16.5517 6.89648Z" fill="white"/>
<path d="M16.5517 10.3444C17.123 10.3444 17.5862 9.8812 17.5862 9.30987C17.5862 8.73854 17.123 8.27539 16.5517 8.27539C15.9804 8.27539 15.5172 8.73854 15.5172 9.30987C15.5172 9.8812 15.9804 10.3444 16.5517 10.3444Z" fill="white"/>
</svg>
