<svg width="20" height="20" viewBox="0 0 20 20" fill="none" xmlns="http://www.w3.org/2000/svg">
<path fill-rule="evenodd" clip-rule="evenodd" d="M8.39989 14.7816C8.47239 14.5199 8.57739 14.2674 8.71156 14.0307L8.16737 13.0457L8.99988 12.2132L9.98491 12.7574C10.2216 12.6232 10.4741 12.519 10.7358 12.4457L11.0483 11.3649H12.2249L12.5374 12.4457C12.7991 12.5182 13.0516 12.6232 13.2883 12.7574L14.2733 12.2132L15.1058 13.0457L14.5616 14.0307C14.6958 14.2674 14.8 14.5199 14.8733 14.7816L15.9542 15.0941V16.2708L14.8733 16.5833C14.8008 16.845 14.6958 17.0975 14.5616 17.3341L15.1058 18.3191L14.2733 19.1517L13.2883 18.6075C13.0516 18.7416 12.7991 18.8458 12.5374 18.9191L12.2249 20H11.0483L10.7358 18.9191C10.4741 18.8466 10.2216 18.7416 9.98491 18.6083L8.99988 19.1525L8.16737 18.32L8.71072 17.3333C8.57655 17.0966 8.47238 16.8441 8.39906 16.5824L7.3182 16.2699V15.0933L8.39989 14.7816ZM5.71993 1.32867C5.66993 1.43033 5.54659 1.47284 5.44408 1.422C5.34241 1.372 5.29991 1.24866 5.35075 1.14615L5.62909 0.58198C5.67909 0.480311 5.80243 0.43781 5.90494 0.488644C6.00661 0.538647 6.04911 0.661982 5.99827 0.764491L5.71993 1.32867ZM7.05579 2.51037C6.96579 2.57954 6.83663 2.56204 6.76744 2.47203C6.69828 2.38203 6.71578 2.25287 6.80578 2.18369L7.2808 1.81952C7.3708 1.75035 7.49996 1.76785 7.56915 1.85785C7.63832 1.94785 7.62082 2.07701 7.53081 2.1462L7.05579 2.51037ZM2.25909 1.14116C2.30909 1.24283 2.26742 1.36617 2.16575 1.41701C2.06408 1.46701 1.94074 1.42534 1.8899 1.32367L1.61406 0.765323C1.56405 0.663654 1.60572 0.540315 1.70739 0.489476C1.80906 0.439474 1.9324 0.481143 1.98324 0.582812L2.25909 1.14116ZM0.797376 2.17703C0.887379 2.2462 0.904879 2.37537 0.83571 2.46538C0.766542 2.55539 0.637372 2.57288 0.547362 2.50371L0.0806836 2.1462C-0.00931969 2.07703 -0.0268198 1.94786 0.0423488 1.85785C0.111517 1.76785 0.240688 1.75035 0.330697 1.81951L0.797376 2.17703ZM4.01154 0.843661C4.01154 1.11449 3.60069 1.11366 3.60069 0.843661L3.60152 0.202813C3.60152 -0.0680202 4.01237 -0.0671882 4.01237 0.202813L4.01154 0.843661ZM13.8968 4.00961C14.136 4.00961 14.3301 4.20378 14.3301 4.44294C14.3301 4.6821 14.136 4.87627 13.8968 4.87627C13.6576 4.87627 13.4635 4.6821 13.4635 4.44294C13.4635 4.20378 13.6576 4.00961 13.8968 4.00961ZM15.9152 4.00961C16.1543 4.00961 16.3485 4.20378 16.3485 4.44294C16.3485 4.6821 16.1543 4.87627 15.9152 4.87627C15.676 4.87627 15.4818 4.6821 15.4818 4.44294C15.4818 4.20378 15.676 4.00961 15.9152 4.00961ZM17.9344 4.00961C18.1735 4.00961 18.3677 4.20378 18.3677 4.44294C18.3677 4.6821 18.1735 4.87627 17.9344 4.87627C17.6952 4.87627 17.501 4.6821 17.501 4.44294C17.501 4.20378 17.6952 4.00961 17.9344 4.00961ZM4.00571 11.2955V14.8265C4.00571 15.019 4.05905 15.1907 4.14405 15.3124C4.21488 15.4132 4.30572 15.4765 4.39988 15.4765H6.90576V14.784L8.07161 14.4473C8.11995 14.3073 8.17745 14.1698 8.24245 14.0365L7.65577 12.974L8.92663 11.7031L9.98916 12.2898C10.1225 12.2248 10.26 12.1681 10.4 12.1198L10.7367 10.9539H12.5342L12.8709 12.1198C13.0109 12.1681 13.1484 12.2256 13.2817 12.2898L14.3443 11.7031L15.6151 12.974L15.0285 14.0365C15.0935 14.1698 15.1501 14.3073 15.1993 14.4473L16.3651 14.784V15.4765H18.871C18.9652 15.4765 19.056 15.414 19.1269 15.3132C19.2127 15.1915 19.2652 15.019 19.2652 14.8273L19.2669 6.02372H7.05578C6.86661 6.49791 6.57327 6.92541 6.2016 7.27542C5.92325 7.5371 5.68909 7.82459 5.52909 8.1721C5.57076 8.19794 5.60826 8.22794 5.64326 8.26294C5.69576 8.31544 5.73826 8.37627 5.77076 8.44378C5.88326 8.56461 5.9466 8.72295 5.9466 8.88878C5.9466 9.20962 5.71159 9.48297 5.39742 9.53379C5.57909 9.9163 5.33492 10.3655 4.91824 10.4246C4.91741 10.4338 4.91741 10.443 4.91658 10.4521C4.95075 10.528 4.96908 10.6113 4.96908 10.6971C4.96908 11.0263 4.70074 11.2947 4.37156 11.2947L4.00571 11.2955ZM4.82824 9.58634C4.88741 9.58634 4.94157 9.61051 4.98074 9.65051C5.11908 9.78885 5.01658 10.0197 4.82824 10.0197H2.77069C2.71153 10.0197 2.65736 9.99553 2.61819 9.95553C2.47985 9.81719 2.58236 9.58634 2.77069 9.58634H4.82824ZM4.37073 10.5122C4.42157 10.5122 4.46824 10.533 4.50157 10.5672C4.61991 10.6855 4.5324 10.883 4.37073 10.883H3.22903C3.1782 10.883 3.13153 10.8622 3.09819 10.828C2.97986 10.7097 3.06736 10.5122 3.22903 10.5122H4.37073ZM4.56074 5.17958H4.99407C5.37908 5.17958 5.57241 4.71207 5.30074 4.43955C5.02825 4.16705 4.56072 4.36121 4.56072 4.74622L4.56074 5.17958ZM3.0382 5.17958V4.74624C3.0382 4.36123 2.57069 4.1679 2.29817 4.43957C2.02568 4.71207 2.21984 5.1796 2.60485 5.1796L3.0382 5.17958ZM4.11906 8.20643H3.48071L3.47988 5.6214H4.11823L4.11906 8.20643ZM3.0382 8.20643V5.6214H2.60487C1.82736 5.6214 1.43567 4.67721 1.9857 4.1272C2.53573 3.57719 3.4799 3.96886 3.4799 4.74637V5.17971H4.11825V4.74637C4.11825 3.96886 5.06245 3.57717 5.61245 4.1272C6.16246 4.67723 5.77079 5.6214 4.99328 5.6214H4.55995V8.20643H5.06829C5.24246 7.73307 5.52829 7.34223 5.91749 6.97557C6.22333 6.68805 6.46999 6.33888 6.63917 5.94971C7.14169 4.78718 6.87834 3.43125 5.98499 2.538C4.77745 1.33046 2.81989 1.33046 1.61325 2.538C0.378212 3.77304 0.410725 5.78053 1.68075 6.97565C2.06993 7.34234 2.35578 7.73318 2.52995 8.20651L3.0382 8.20643ZM5.29234 8.6481C5.35817 8.6481 5.41818 8.6756 5.46234 8.71894C5.61652 8.87311 5.50235 9.12978 5.29234 9.12978H2.30645C2.24062 9.12978 2.18062 9.10228 2.13645 9.05895C1.98228 8.90478 2.09645 8.6481 2.30645 8.6481H5.29234ZM7.19071 5.61144H19.2667V3.72723C19.2667 3.47805 19.0626 3.27389 18.8134 3.27389H6.98975C7.32142 4.00308 7.39321 4.83226 7.19071 5.61144ZM12.7441 7.75229C12.6541 7.68312 12.6375 7.55395 12.7066 7.46394C12.7758 7.37393 12.905 7.35727 12.995 7.42644L14.38 8.4948C14.4858 8.57647 14.4842 8.74063 14.3792 8.82063L12.9941 9.87815C12.9041 9.94732 12.775 9.92982 12.7058 9.83982C12.6366 9.74981 12.6541 9.62065 12.7441 9.55147L13.9158 8.65645L12.7441 7.75229ZM11.9749 7.22227C12.0158 7.1156 12.1341 7.06227 12.2408 7.1031C12.3475 7.14394 12.4008 7.26227 12.3599 7.36895L11.3358 10.0581C11.2949 10.1639 11.1766 10.2172 11.0699 10.1772C10.9632 10.1364 10.9107 10.0181 10.9507 9.91141L11.9749 7.22227ZM10.2766 7.42728C10.3666 7.35811 10.4957 7.37478 10.5649 7.46478C10.6341 7.55478 10.6174 7.68394 10.5274 7.75313L9.35489 8.65815L10.5266 9.55317C10.6166 9.62234 10.6341 9.75151 10.5649 9.84152C10.4958 9.93152 10.3666 9.94903 10.2766 9.87986L8.89153 8.82234C8.78653 8.7415 8.78403 8.57817 8.8907 8.4965L10.2766 7.42728ZM15.7675 8.03397C15.4958 8.03397 15.4958 7.62146 15.7675 7.62146H17.1683C17.44 7.62146 17.44 8.03397 17.1683 8.03397H15.7675ZM17.8959 8.03397C17.6242 8.03397 17.6242 7.62146 17.8959 7.62146H18.2184C18.49 7.62146 18.49 8.03397 18.2184 8.03397H17.8959ZM15.7675 7.16728C15.4958 7.16728 15.4958 6.75477 15.7675 6.75477H18.2192C18.4908 6.75477 18.4908 7.16728 18.2192 7.16728H15.7675ZM11.6357 13.8516C10.6249 13.8516 9.80571 14.6708 9.80571 15.6817C9.80571 16.6925 10.6249 17.5117 11.6357 17.5117C12.6466 17.5117 13.4658 16.6925 13.4658 15.6817C13.4658 14.6716 12.6466 13.8516 11.6357 13.8516Z" fill="white"/>
</svg>
