<svg width="20" height="18" viewBox="0 0 20 18" fill="none" xmlns="http://www.w3.org/2000/svg">
<path d="M0 6.04688V15.5812C0 16.4742 0.73516 17.2093 1.62816 17.2093H18.3718C19.2648 17.2093 20 16.4742 20 15.5812V6.04688H0ZM15.4417 10.484L14.7161 13.7394C14.6045 14.2234 14.2042 14.567 13.7211 14.6228V14.8835C13.7211 15.2646 13.4045 15.5812 13.0235 15.5812C12.6424 15.5812 12.3258 15.2646 12.3258 14.8835V14.6507H10V14.8835C10 15.2646 9.68343 15.5812 9.30235 15.5812C8.92126 15.5812 8.60469 15.2646 8.60469 14.8835V14.6228C8.12069 14.567 7.7213 14.2225 7.60967 13.7394L7.52595 13.3583C7.52595 13.3583 7.47973 13.2746 7.46055 13.2188L6.28849 8.67965C6.28849 8.67965 6.18646 8.59593 6.09315 8.59593H5.10683C4.72575 8.59593 4.40918 8.27937 4.40918 7.89828C4.40918 7.51719 4.72575 7.20063 5.10683 7.20063H6.09315C6.77249 7.20063 7.37683 7.62882 7.61838 8.26106L7.82332 9.06074H14.2975C14.6507 9.06074 14.9856 9.21858 15.2088 9.49764C15.4321 9.77669 15.5158 10.1299 15.4417 10.4744V10.484Z" fill="white"/>
<path d="M20 4.65162V1.62816C20 0.73516 19.2648 0 18.3718 0H1.62816C0.73516 0 0 0.73516 0 1.62816V4.65162H20ZM8.13989 2.23249C8.13989 2.02756 8.30732 1.86011 8.51227 1.86011H9.16371C9.36864 1.86011 9.53609 2.02755 9.53609 2.23249V2.88393C9.53609 3.08887 9.36865 3.25631 9.16371 3.25631H8.51227C8.30733 3.25631 8.13989 3.08888 8.13989 2.88393V2.23249ZM5.34927 2.23249C5.34927 2.02756 5.51671 1.86011 5.72165 1.86011H6.37309C6.57803 1.86011 6.74547 2.02755 6.74547 2.23249V2.88393C6.74547 3.08887 6.57804 3.25631 6.37309 3.25631H5.72165C5.51672 3.25631 5.34927 3.08888 5.34927 2.88393V2.23249ZM2.79061 2.23249C2.79061 2.02756 2.95805 1.86011 3.16299 1.86011H3.81444C4.01937 1.86011 4.18682 2.02755 4.18682 2.23249V2.88393C4.18682 3.08887 4.01938 3.25631 3.81444 3.25631H3.16299C2.95806 3.25631 2.79061 3.08888 2.79061 2.88393V2.23249Z" fill="white"/>
<path d="M8.92985 13.2555H13.3948L14.0088 10.4648H8.31592L8.92985 13.2555Z" fill="white"/>
</svg>
