<svg width="20" height="20" viewBox="0 0 20 20" fill="none" xmlns="http://www.w3.org/2000/svg">
<path fill-rule="evenodd" clip-rule="evenodd" d="M9.12642 0H10.8736C11.1226 0 11.3261 0.20369 11.3261 0.452476V1.27661C11.3261 1.77505 11.6106 2.20073 12.0711 2.39156C12.5316 2.5824 13.0338 2.48241 13.3863 2.12993L13.969 1.54718C14.145 1.37115 14.433 1.37115 14.6091 1.54718L15.8445 2.78261C16.0205 2.95863 16.0205 3.24663 15.8445 3.42265L15.2617 4.0054C14.9093 4.35789 14.8093 4.86003 15.0001 5.32057C15.1909 5.7811 15.6166 6.06562 16.1151 6.06562H16.9392C17.1882 6.06562 17.3917 6.26931 17.3917 6.51809V6.56624C16.429 6.66558 15.4818 6.9185 14.5535 7.31063C14.237 7.44439 14.0782 7.80123 14.1906 8.12583L14.2699 8.35501C13.8627 8.31057 13.4858 8.22016 13.1155 8.11276C13.1689 7.88097 13.1972 7.63959 13.1972 7.39146C13.1972 5.62556 11.7657 4.19406 9.99978 4.19406C8.23388 4.19406 6.80239 5.62556 6.80239 7.39146C6.80239 7.89099 6.91698 8.36351 7.12132 8.78483C6.88212 8.79093 6.6475 8.782 6.41244 8.75738C6.15842 8.73059 5.90245 8.68505 5.63841 8.61905L5.80921 8.12605C5.92162 7.80145 5.7628 7.44439 5.44627 7.31085C4.51801 6.91872 3.57079 6.6658 2.60811 6.56646V6.51831C2.60811 6.26931 2.8118 6.06583 3.06058 6.06583H3.88471C4.38316 6.06583 4.80884 5.78132 4.99967 5.32079C5.19051 4.86025 5.09052 4.3581 4.73803 4.00562L4.15528 3.42287C3.97926 3.24685 3.97926 2.95885 4.15528 2.78282L5.39072 1.54739C5.56674 1.37137 5.85474 1.37137 6.03076 1.54739L6.61351 2.13014C6.96599 2.48263 7.46814 2.58262 7.92868 2.39178C8.38921 2.20095 8.67373 1.77527 8.67373 1.27682V0.452476C8.67394 0.203473 8.87763 0 9.12642 0ZM8.07028 17.1427C7.95264 17.0218 7.95547 16.8285 8.07616 16.7109C8.19707 16.5933 8.3903 16.5961 8.50794 16.7168C9.2787 17.5067 10.0449 18.2984 10.8246 19.0783C11.0875 19.3412 11.5169 19.3412 11.7798 19.0783C12.0421 18.816 12.0421 18.3853 11.7798 18.123C11.7809 18.1219 10.0675 16.3673 9.91155 16.2074C9.79391 16.0865 9.79675 15.8933 9.91743 15.7757C10.0383 15.658 10.2316 15.6609 10.3492 15.7815C11.0592 16.5092 11.7646 17.2418 12.4828 17.96C12.7451 18.2223 13.1758 18.2223 13.4379 17.96C13.7008 17.6971 13.7011 17.2679 13.4379 17.0048C13.439 17.0037 11.7256 15.2491 11.5696 15.0892C11.452 14.9683 11.4548 14.7751 11.5755 14.6574C11.6964 14.5398 11.8896 14.5426 12.0073 14.6633C12.6883 15.3613 13.3654 16.0661 14.054 16.7549C14.315 17.0159 14.7483 17.0157 15.0093 16.7549C15.2763 16.4878 15.2609 16.0617 15.0045 15.7937C14.8611 15.6434 14.718 15.4929 14.5744 15.3428C14.3644 15.2572 14.169 15.1284 13.9989 14.9585L10.4416 11.404C10.1418 11.6485 9.70808 12.0341 9.70808 12.5619C9.70808 13.2584 9.37804 13.8292 8.87589 14.2357C8.33954 14.6698 7.60408 14.9128 6.87602 14.9128C6.70697 14.9128 6.56994 14.7757 6.56994 14.6067V11.3389C6.56994 10.8507 6.75904 10.415 7.11457 10.0806L7.9095 9.33316C7.3688 9.40505 6.86295 9.41899 6.35057 9.36475C6.04993 9.33294 5.74864 9.27826 5.43821 9.19831L3.60891 14.4803C4.5424 14.9491 5.17875 15.5981 5.89177 16.3286C6.17127 16.615 9.24014 19.7702 9.24602 19.7643C9.4349 19.9532 9.7462 19.9466 9.93552 19.7619C10.1298 19.5708 10.1316 19.2508 9.93878 19.058L8.07028 17.1427ZM14.4916 8.99549C13.7126 8.94865 13.0451 8.73756 12.3589 8.52036C11.1875 8.14958 10.2588 7.96222 9.2543 8.90683L7.53262 10.5257C7.29538 10.7488 7.18167 11.0137 7.18167 11.3391V14.2838C7.66943 14.2298 8.13738 14.0481 8.49051 13.7623C8.85563 13.4667 9.09548 13.0569 9.09548 12.5619C9.09548 11.7053 9.73793 11.1869 10.1211 10.8775C10.1322 10.8684 10.2579 10.764 10.2582 10.7642C10.3778 10.6577 10.5612 10.6614 10.6764 10.7758L14.4291 14.5263C14.7574 14.8544 15.2121 14.9454 15.6415 14.7701C15.902 14.6637 16.1412 14.5483 16.3741 14.4322L14.4916 8.99549ZM20 7.30105C18.2639 6.95031 16.5279 7.14158 14.7918 7.87487C14.772 7.88315 14.7622 7.90537 14.7692 7.92584L17.2427 15.0683C17.2485 15.0851 17.2636 15.0957 17.2812 15.0957H20V7.30105ZM0 7.30105V15.0957H2.71878C2.73642 15.0957 2.75145 15.0851 2.75734 15.0683L5.23081 7.92584C5.23778 7.90558 5.22798 7.88336 5.20816 7.87487C3.4721 7.14136 1.73605 6.95009 0 7.30105Z" fill="white"/>
</svg>
