<svg width="20" height="20" viewBox="0 0 20 20" fill="none" xmlns="http://www.w3.org/2000/svg">
<path fill-rule="evenodd" clip-rule="evenodd" d="M13.529 5.15892C13.9209 5.26403 14.2483 5.51389 14.4499 5.8628C14.8385 6.53567 14.6498 7.386 14.0398 7.83746L12.5347 5.23049C12.8466 5.09523 13.1938 5.06939 13.5298 5.15899L13.529 5.15892ZM4.14499 15.0047L6.24542 13.7917L3.47812 9.00497L1.38026 10.2163C0.743584 10.5833 0.287829 11.1804 0.096563 11.8955C-0.0955605 12.6114 0.000932428 13.3558 0.368816 13.9924C0.880571 14.8781 1.81191 15.3744 2.76824 15.3744C3.23692 15.3744 3.71162 15.2555 4.14585 15.0048L4.14499 15.0047ZM8.52764 17.7504L6.7632 14.6953L5.1168 15.6456L6.88038 18.7007C7.14315 19.1547 7.72555 19.3107 8.17958 19.0488C8.39755 18.923 8.55435 18.7171 8.62069 18.4715C8.68703 18.2251 8.65343 17.9693 8.52764 17.7504ZM15.0874 11.7352L9.68203 2.37375C9.56916 2.17818 9.38478 2.07135 9.16079 2.07135H9.14787C8.91869 2.07566 8.7326 2.18938 8.62491 2.3927C8.43537 2.7511 8.25186 3.13363 8.05801 3.53855C7.24214 5.24183 6.32544 7.15698 4.37143 8.46752L7.15683 13.2853C9.26675 12.2498 11.3827 12.4126 13.2651 12.5582C13.714 12.5926 14.137 12.6254 14.5428 12.64C14.7728 12.6486 14.9641 12.5444 15.0821 12.348C15.201 12.1507 15.2027 11.9327 15.0881 11.7346L15.0874 11.7352ZM13.7287 2.12298C13.5849 2.37197 13.6701 2.69073 13.9191 2.83462C14.001 2.88201 14.0906 2.90441 14.1793 2.90441C14.3594 2.90441 14.5343 2.81136 14.6308 2.64422L15.7068 0.781565C15.8507 0.53258 15.7654 0.213812 15.5164 0.0699217C15.2675 -0.0739553 14.9487 0.0113377 14.8048 0.260323L13.7287 2.12298ZM20 7.83492C20 7.54716 19.7674 7.31454 19.4779 7.31454H17.3275C17.0397 7.31454 16.8071 7.54802 16.8071 7.83578C16.8071 8.12354 17.0406 8.35616 17.3275 8.35616H19.4779C19.7674 8.35616 20 8.12268 20 7.83492ZM18.7551 3.3764C18.6103 3.12741 18.2933 3.04212 18.0443 3.18599L16.136 4.28705C15.887 4.43093 15.8017 4.74971 15.9456 4.99869C16.0421 5.16583 16.217 5.25888 16.397 5.25888C16.4858 5.25888 16.5754 5.23648 16.6572 5.1891L18.5655 4.08718C18.8145 3.9433 18.9007 3.62452 18.7559 3.37554L18.7551 3.3764Z" fill="white"/>
</svg>
