<svg width="20" height="20" viewBox="0 0 20 20" fill="none" xmlns="http://www.w3.org/2000/svg">
<path fill-rule="evenodd" clip-rule="evenodd" d="M2.20773 11.7673H0V18.6338H2.20773V11.7673ZM2.6995 18.1541L4.11102 18.1752C4.13585 18.1733 4.16081 18.1753 4.18502 18.1812L9.81068 19.5182C9.92596 19.5473 10.0458 19.5539 10.1636 19.5376L12.7584 19.2027C12.9201 19.1826 13.074 19.1214 13.2053 19.0249L19.6696 14.3695C19.9193 14.121 20.0113 13.9284 19.9989 13.7861C19.9906 13.717 19.9567 13.6536 19.9038 13.6084C19.8199 13.5363 19.7213 13.4832 19.6149 13.4528C19.4313 13.3931 19.2375 13.3713 19.0453 13.3889C18.8531 13.4065 18.6664 13.463 18.4967 13.555L13.9235 16.3892C13.9104 16.3972 13.8967 16.4039 13.8824 16.4094L13.0426 16.7327C13.0026 16.7526 12.958 16.7611 12.9135 16.7574L11.7926 16.6619C11.7657 16.6601 11.7391 16.6579 11.7126 16.655L7.30184 16.2772C7.24003 16.2681 7.18401 16.2358 7.14517 16.1869C7.10632 16.1379 7.08757 16.0761 7.09272 16.0138C7.09787 15.9515 7.12654 15.8936 7.17289 15.8517C7.21925 15.8098 7.27982 15.7871 7.34229 15.7883L11.8626 16.173C12.0937 16.1793 12.3218 16.1201 12.5206 16.0023C12.6121 15.9513 12.6913 15.8809 12.7527 15.7961C12.8141 15.7113 12.8562 15.614 12.8762 15.5112C12.8851 15.4074 12.8725 15.3028 12.8391 15.204C12.8056 15.1053 12.7522 15.0145 12.6819 14.9375C12.5114 14.7223 12.2809 14.5625 12.0195 14.4784L7.92561 13.821C7.90905 13.8188 7.89275 13.8149 7.87694 13.8095C7.42066 13.6265 6.99961 13.3656 6.63252 13.0386C5.86787 12.432 5.02611 11.7644 3.0386 12.1177C3.0256 12.1199 3.01245 12.1211 2.99927 12.1213C2.90216 12.1226 2.80616 12.1202 2.71283 12.1155H2.70016V18.1554L2.6995 18.1541ZM8.1736 9.53913C8.28863 10.1439 8.45661 10.7375 8.67559 11.3129C8.87695 11.8735 9.18035 12.392 9.57046 12.8422C8.28277 12.6018 7.09814 11.9769 6.17275 11.0498C5.94753 10.8244 5.73906 10.583 5.54899 10.3273C6.22104 10.0066 6.9315 9.77349 7.66294 9.63379C7.82916 9.59957 7.99953 9.56802 8.17404 9.53913H8.1736ZM10.5191 12.9148C9.99689 12.7573 9.51224 12.1062 9.13269 11.1342C8.92696 10.5934 8.76873 10.0358 8.65981 9.46757C9.27656 9.38846 9.89735 9.34484 10.5191 9.33691V12.9148ZM7.88872 6.70319H4.27502C4.31639 7.84399 4.65928 8.95346 5.26877 9.91867C5.99672 9.56244 6.76903 9.30513 7.56517 9.15358C7.73524 9.11847 7.90931 9.08603 8.08738 9.05625C7.96444 8.27772 7.89804 7.49131 7.88872 6.70319ZM10.5187 6.70319H8.38093C8.38993 7.46703 8.45417 8.22923 8.57315 8.98381C9.21853 8.89951 9.8683 8.85314 10.5191 8.84492V6.70319H10.5187ZM8.08694 3.85881C7.90916 3.82918 7.73509 3.79681 7.56472 3.7617C6.76871 3.60965 5.99657 3.35197 5.26877 2.99549C4.6593 3.96064 4.31642 5.07003 4.27502 6.21075H7.88872C7.89801 5.42265 7.96425 4.63625 8.08694 3.85769V3.85881ZM10.5187 4.07036C9.86785 4.06195 9.21809 4.01551 8.5727 3.93125C8.45373 4.68583 8.38949 5.44802 8.38048 6.21187H10.5187V4.06991V4.07036ZM12.9566 3.93125C12.3111 4.0155 11.6613 4.06195 11.0104 4.07036V6.21187H13.1486C13.1396 5.44803 13.0754 4.68584 12.9566 3.93125ZM16.2612 2.99549C15.5332 3.35163 14.7609 3.60893 13.9648 3.76059C13.7949 3.7957 13.6208 3.82806 13.4426 3.85769C13.5653 4.63625 13.6315 5.42265 13.6408 6.21075H17.255C17.2136 5.07003 16.8707 3.96064 16.2612 2.99549ZM13.3564 3.3757C13.2414 2.7708 13.0734 2.17719 12.8544 1.60174C12.6531 1.04116 12.3497 0.522716 11.9595 0.0726651C13.2473 0.312819 14.4321 0.937775 15.3574 1.86507C15.5827 2.09039 15.7911 2.33184 15.9812 2.5875C15.3091 2.90817 14.5985 3.14118 13.867 3.28082C13.7011 3.31534 13.5307 3.34696 13.3559 3.3757H13.3564ZM11.0109 3.57814C11.6326 3.57011 12.2534 3.52648 12.8702 3.44748C12.7612 2.87926 12.603 2.3216 12.3973 1.78085C12.0177 0.808427 11.5331 0.157552 11.0109 0V3.5777V3.57814ZM8.65981 3.44748C9.27658 3.52648 9.89736 3.57011 10.5191 3.57814V0C9.99689 0.157552 9.51224 0.808427 9.13269 1.78063C8.92696 2.32138 8.76873 2.87926 8.65981 3.44748ZM5.54877 2.5875C6.52519 1.27288 7.96146 0.374852 9.5709 0.0726651C9.1808 0.522758 8.87739 1.04119 8.67603 1.60174C8.45708 2.17722 8.28911 2.77083 8.17404 3.3757C7.99983 3.34608 7.82946 3.31445 7.66294 3.28082C6.93151 3.14118 6.22105 2.90817 5.54899 2.5875H5.54877ZM12.9068 8.97736C12.9131 8.96536 12.9193 8.95336 12.9257 8.94136L12.7457 8.6747C12.6921 8.59594 12.6677 8.50096 12.6766 8.40613C12.6856 8.31129 12.7273 8.22254 12.7946 8.15516L13.0942 7.85561C13.1116 7.64613 13.1253 7.43014 13.1353 7.20762C13.1421 7.046 13.1468 6.87748 13.1493 6.70208H11.0109V8.84381C11.3253 8.84825 11.6371 8.86114 11.9442 8.88203C12.2728 8.90425 12.5944 8.93603 12.9068 8.97625V8.97736ZM12.422 11.0678C12.2489 11.5628 11.9935 12.0251 11.6664 12.4351C11.4963 12.653 11.2685 12.819 11.0089 12.9139V9.33624C11.3173 9.34039 11.6175 9.35254 11.9095 9.37269C12.1842 9.39106 12.452 9.41602 12.7131 9.44757L12.7113 9.45291L12.3964 9.51357C12.3026 9.5312 12.218 9.58106 12.1571 9.65451C12.0963 9.72796 12.063 9.82039 12.0631 9.91578V10.6602C12.0629 10.7556 12.0962 10.8481 12.1571 10.9216C12.2179 10.9951 12.3026 11.045 12.3964 11.0626L12.4208 11.0673L12.422 11.0678ZM12.9491 12.5762C12.6582 12.6802 12.3603 12.7631 12.0575 12.8242L11.9609 12.8431C11.9875 12.8142 12.014 12.7846 12.0402 12.7542C12.3682 12.3493 12.63 11.895 12.8157 11.4082C12.8486 11.4855 12.8851 11.5617 12.9248 11.636L12.7448 11.9026C12.6913 11.9814 12.6668 12.0764 12.6758 12.1712C12.6847 12.266 12.7264 12.3548 12.7937 12.4222L12.9493 12.5777L12.9491 12.5762ZM16.2279 7.23384L16.2885 7.54873C16.3774 7.57584 16.4642 7.60695 16.5488 7.64206C16.6345 7.67739 16.7185 7.71739 16.8005 7.76117L17.0672 7.58117C17.0999 7.55906 17.1356 7.5417 17.1732 7.52961C17.1973 7.38532 17.2164 7.24169 17.2305 7.09874C17.243 6.97015 17.2516 6.8383 17.2565 6.70319H13.6408C13.6381 6.87533 13.6329 7.05088 13.625 7.22984C13.6207 7.32332 13.6159 7.4168 13.6104 7.51028C13.6924 7.51027 13.7726 7.53498 13.8404 7.58117L14.1059 7.76117C14.1879 7.71672 14.2719 7.67739 14.3577 7.64206C14.4435 7.60672 14.529 7.57539 14.6179 7.54873L14.6783 7.23384C14.6961 7.14005 14.746 7.0554 14.8195 6.99453C14.8931 6.93367 14.9856 6.90041 15.081 6.90052H15.8254C15.9208 6.90046 16.0133 6.93374 16.0868 6.99461C16.1602 7.05547 16.2102 7.14009 16.2279 7.23384ZM15.835 7.79072C15.8438 7.83695 15.8657 7.87966 15.8982 7.91372C15.9307 7.94778 15.9723 7.97174 16.0181 7.98272C16.1354 8.01144 16.2503 8.0491 16.3619 8.09538C16.4714 8.14053 16.5773 8.19394 16.6787 8.25515C16.7191 8.28117 16.7661 8.29474 16.8141 8.29419C16.8621 8.29363 16.9088 8.27898 16.9485 8.25204L17.2843 8.02449L17.7169 8.45715L17.4907 8.79048C17.4637 8.82937 17.4486 8.87528 17.4471 8.92262C17.4457 8.96996 17.4581 9.01669 17.4827 9.05714C17.5454 9.16023 17.6 9.26803 17.6461 9.37957C17.6905 9.48705 17.7271 9.59764 17.7554 9.71046C17.7644 9.75904 17.7879 9.80378 17.8227 9.83882C17.8576 9.87386 17.9022 9.89759 17.9507 9.9069L18.3487 9.98356V10.594L17.9507 10.6707C17.9044 10.6794 17.8617 10.7014 17.8276 10.7338C17.7935 10.7663 17.7695 10.808 17.7585 10.8538C17.7017 11.0865 17.6099 11.3093 17.4861 11.5144C17.4601 11.5547 17.4466 11.6018 17.4471 11.6498C17.4477 11.6978 17.4624 11.7445 17.4894 11.7842L17.7169 12.12L17.2843 12.5526L16.951 12.3264C16.9121 12.2994 16.8662 12.2842 16.8188 12.2828C16.7715 12.2814 16.7248 12.2938 16.6843 12.3184C16.4814 12.4414 16.2612 12.5334 16.031 12.5911C15.9823 12.5999 15.9375 12.6233 15.9024 12.6582C15.8674 12.6931 15.8437 12.7378 15.8345 12.7864L15.7579 13.1844H15.1479L15.0712 12.7864C15.0623 12.7404 15.0403 12.6979 15.008 12.664C14.9756 12.6301 14.9341 12.6063 14.8886 12.5953C14.7712 12.5667 14.6562 12.5291 14.5446 12.4828C14.4352 12.4376 14.3293 12.3842 14.2279 12.3231C14.1876 12.2971 14.1405 12.2835 14.0926 12.284C14.0446 12.2846 13.9978 12.2992 13.9581 12.3262L13.6219 12.5526L13.1893 12.12L13.4155 11.7866C13.4425 11.7477 13.4577 11.7018 13.4591 11.6545C13.4605 11.6072 13.4481 11.5604 13.4235 11.52C13.3609 11.4168 13.3063 11.309 13.2602 11.1975C13.2157 11.0901 13.1791 10.9795 13.1508 10.8667C13.142 10.818 13.1185 10.7732 13.0837 10.7381C13.0488 10.703 13.0041 10.6793 12.9555 10.6702L12.5575 10.5935V9.98334L12.9553 9.90645C13.0015 9.89756 13.0442 9.87558 13.0783 9.84311C13.1123 9.81065 13.1364 9.76908 13.1475 9.72334C13.2042 9.4904 13.296 9.26742 13.4197 9.06203C13.4457 9.02172 13.4593 8.97464 13.4587 8.92667C13.4582 8.8787 13.4435 8.83195 13.4166 8.79225L13.189 8.45648L13.6219 8.02449L13.9553 8.25049C13.9941 8.27754 14.04 8.29273 14.0874 8.29419C14.1347 8.29565 14.1814 8.28332 14.2219 8.25871C14.3249 8.19601 14.4327 8.1414 14.5441 8.09538C14.6516 8.05082 14.7622 8.01427 14.875 7.98605C14.9237 7.97719 14.9685 7.95377 15.0036 7.9189C15.0386 7.88402 15.0623 7.83933 15.0715 7.79072L15.1481 7.39273H15.7585L15.835 7.79072ZM16.3588 9.38269C16.1494 9.17286 15.8738 9.04213 15.5788 9.01276C15.2839 8.98339 14.9879 9.05721 14.7412 9.22164C14.4946 9.38607 14.3126 9.63093 14.2263 9.91449C14.14 10.198 14.1547 10.5028 14.2679 10.7767C14.3811 11.0507 14.5857 11.2769 14.847 11.4168C15.1083 11.5568 15.41 11.6018 15.7008 11.5442C15.9916 11.4866 16.2534 11.33 16.4416 11.101C16.6298 10.872 16.7328 10.5849 16.733 10.2884C16.7332 10.1202 16.7001 9.95359 16.6357 9.79816C16.5714 9.64272 16.4769 9.50153 16.3579 9.38269H16.3588ZM15.4532 8.51604C15.8634 8.51604 16.261 8.65828 16.5781 8.91853C16.8952 9.17878 17.1122 9.54093 17.1922 9.94328C17.2723 10.3456 17.2103 10.7633 17.0169 11.125C16.8235 11.4868 16.5106 11.7703 16.1316 11.9273C15.7526 12.0842 15.3309 12.1049 14.9383 11.9858C14.5458 11.8667 14.2067 11.6151 13.9788 11.274C13.751 10.9329 13.6484 10.5233 13.6887 10.115C13.729 9.70681 13.9096 9.32516 14.1997 9.03514C14.3641 8.87024 14.5595 8.73948 14.7746 8.65035C14.9897 8.56123 15.2204 8.51573 15.4532 8.51604Z" fill="white"/>
</svg>
