<svg width="16" height="17" viewBox="0 0 16 17" fill="none" xmlns="http://www.w3.org/2000/svg">
<path fill-rule="evenodd" clip-rule="evenodd" d="M15.991 3.84585C15.9969 3.86851 15.9999 3.89188 16 3.91535V7.56436C16 7.61119 15.988 7.6572 15.9653 7.69772C15.9425 7.73825 15.9098 7.77186 15.8705 7.79516L12.903 9.55847V13.0535C12.903 13.1486 12.8541 13.2364 12.7742 13.2843L6.57993 16.9646C6.56575 16.9729 6.55029 16.9782 6.53482 16.9839C6.52902 16.9859 6.52354 16.9895 6.51742 16.9912C6.47412 17.0029 6.42861 17.0029 6.38531 16.9912C6.37822 16.9892 6.37177 16.9852 6.36501 16.9825C6.35083 16.9772 6.33601 16.9725 6.32247 16.9646L0.129536 13.2843C0.0901945 13.261 0.0575054 13.2274 0.0347636 13.1868C0.0120219 13.1463 3.11723e-05 13.1003 0 13.0535L0 2.10648C0 2.08254 0.0032223 2.05926 0.00902244 2.03664C0.0109558 2.02899 0.015467 2.02201 0.0180449 2.01436C0.0228783 2.00039 0.0273895 1.98609 0.0344786 1.97312C0.039312 1.96447 0.0464011 1.95749 0.0522012 1.94951C0.0596125 1.93886 0.0663793 1.92789 0.0750796 1.91858C0.0824908 1.91093 0.0921577 1.90527 0.100536 1.89862C0.10988 1.89064 0.118258 1.88199 0.128892 1.87568L3.22584 0.0355426C3.26505 0.0122559 3.3095 0 3.35473 0C3.39997 0 3.44442 0.0122559 3.48363 0.0355426L6.58026 1.87568H6.5809C6.59121 1.88233 6.59991 1.89064 6.60926 1.89829C6.61763 1.90494 6.62698 1.91093 6.63439 1.91825C6.64341 1.92789 6.64986 1.93886 6.65759 1.94951C6.66307 1.95749 6.67048 1.96447 6.67499 1.97312C6.6824 1.98642 6.68659 2.00039 6.69175 2.01436C6.69432 2.02201 6.69884 2.02899 6.70077 2.03697C6.7067 2.05964 6.70974 2.08301 6.70979 2.10648V8.94387L9.29021 7.41037V3.91502C9.29021 3.89174 9.29343 3.86813 9.29923 3.84585C9.30149 3.83786 9.30568 3.83088 9.30825 3.82323C9.31341 3.80926 9.31792 3.79496 9.32501 3.78199C9.32984 3.77334 9.33693 3.76636 9.34241 3.75838C9.35014 3.74774 9.35659 3.73676 9.36561 3.72745C9.37302 3.7198 9.38237 3.71415 9.39074 3.70749C9.40041 3.69951 9.40879 3.69087 9.4191 3.68455L12.5164 1.84441C12.5556 1.82109 12.6 1.80882 12.6453 1.80882C12.6905 1.80882 12.735 1.82109 12.7742 1.84441L15.8708 3.68455C15.8817 3.6912 15.8901 3.69951 15.8998 3.70716C15.9078 3.71381 15.9172 3.7198 15.9246 3.72712C15.9336 3.73676 15.9401 3.74774 15.9478 3.75838C15.9536 3.76636 15.9607 3.77334 15.9652 3.78199C15.9726 3.79496 15.9768 3.80926 15.982 3.82323C15.9849 3.83088 15.989 3.83786 15.991 3.84585ZM15.4838 7.41037V4.37597L14.4001 5.01983L12.903 5.90947V8.94387L15.4841 7.41037H15.4838ZM12.3872 12.8995V9.86311L10.9146 10.7311L6.70947 13.2081V16.2731L12.3872 12.8995ZM0.516212 2.5671V12.8995L6.19326 16.2728V13.2085L3.22745 11.4761L3.22649 11.4754L3.2252 11.4748C3.21521 11.4688 3.20683 11.4601 3.19749 11.4528C3.18943 11.4462 3.18009 11.4408 3.173 11.4335L3.17235 11.4325C3.16397 11.4242 3.15817 11.4139 3.15109 11.4046C3.14464 11.3956 3.13691 11.388 3.13175 11.3787L3.13143 11.3777C3.12563 11.3677 3.12208 11.3557 3.1179 11.3444C3.11371 11.3344 3.10823 11.3251 3.10565 11.3145C3.10243 11.3018 3.10178 11.2882 3.1005 11.2752C3.09921 11.2652 3.09663 11.2553 3.09663 11.2453V11.2446V4.1006L1.59987 3.21063L0.516212 2.5671ZM3.35506 0.573648L0.774963 2.10648L3.35441 3.63932L5.93418 2.10615L3.35441 0.573648H3.35506ZM4.69682 10.1398L6.19358 9.25051V2.5671L5.10992 3.21096L3.61284 4.1006V10.784L4.69682 10.1398ZM12.6453 2.38252L10.0655 3.91535L12.6453 5.44819L15.2247 3.91502L12.6453 2.38252ZM12.3872 5.90947L10.8901 5.01983L9.80642 4.37597V7.41037L11.3032 8.29968L12.3872 8.94387V5.90947ZM6.45104 12.7475L10.235 10.5179L12.1265 9.40382L9.54864 7.87199L6.58058 9.63563L3.87546 11.243L6.45104 12.7475Z" fill="white"/>
</svg>
