<svg width="20" height="20" viewBox="0 0 20 20" fill="none" xmlns="http://www.w3.org/2000/svg">
<path fill-rule="evenodd" clip-rule="evenodd" d="M10.4864 4.00928H9.51335V4.85037C9.51335 4.9856 9.40368 5.0961 9.26761 5.0961H8.42653V6.06829H9.26761C9.33276 6.06829 9.39542 6.09386 9.4416 6.14003C9.48778 6.18621 9.51334 6.24888 9.51334 6.31402V7.1551H10.4855L10.4864 6.31484C10.4864 6.2497 10.5119 6.18703 10.5581 6.14086C10.6051 6.09468 10.6678 6.06912 10.7329 6.06912H11.574L11.5748 5.0961H10.7329C10.6678 5.09692 10.6051 5.07054 10.5581 5.02436C10.5119 4.97819 10.4855 4.91552 10.4864 4.85037L10.4864 4.00928ZM9.33689 3.51701H10.6628C10.7461 3.51701 10.8261 3.54999 10.8846 3.60936C10.944 3.66791 10.9778 3.74789 10.977 3.83118V4.60548H11.7496C11.8337 4.60548 11.9137 4.63846 11.9731 4.697C12.0325 4.75637 12.0663 4.83636 12.0663 4.91964V6.24557C12.0663 6.32968 12.0333 6.40966 11.9739 6.46903C11.9146 6.52841 11.8337 6.56139 11.7505 6.56056H10.9778V7.33321C10.9778 7.41649 10.944 7.49648 10.8855 7.55503C10.8261 7.6144 10.7469 7.64738 10.6628 7.64738H9.3369C9.16291 7.64738 9.02273 7.50638 9.0219 7.33321V6.56056H8.24925C8.07527 6.56056 7.93508 6.41956 7.93426 6.24557V4.91964C7.93508 4.74648 8.07609 4.60547 8.24925 4.60547H9.0219V3.83282C9.0219 3.74954 9.05571 3.66956 9.11426 3.61018C9.12333 3.60194 9.1324 3.59369 9.14229 3.58627C9.19754 3.54174 9.26598 3.51783 9.33689 3.51783V3.51701ZM12.1784 3.40322C12.8562 4.0802 13.1803 5.03426 13.055 5.98427C12.9296 6.93427 12.3697 7.77198 11.5402 8.25099C10.7107 8.73007 9.70549 8.79522 8.82066 8.42911C7.93506 8.06216 7.27127 7.30438 7.02307 6.37919C6.77569 5.45401 6.97277 4.46533 7.55575 3.7059C8.13955 2.94562 9.0433 2.50036 10.0006 2.50118C10.8186 2.49953 11.602 2.82441 12.18 3.40327L12.1784 3.40322ZM10.0008 2.00884C11.1115 2.00884 12.1596 2.52585 12.8358 3.40651C13.5119 4.288 13.7395 5.43335 13.4526 6.50706C13.1648 7.57984 12.3946 8.45804 11.3688 8.88272C10.3422 9.3082 9.17705 9.23151 8.21489 8.67657C7.25259 8.1208 6.60365 7.14943 6.45934 6.04866C6.31422 4.947 6.68939 3.84125 7.47441 3.05619C8.14398 2.38497 9.0535 2.00815 10.001 2.00897L10.0008 2.00884ZM10.9606 17.1152L10.7388 18.7074L15.9526 19.4323L16.1744 17.8391L10.9606 17.1152ZM11.504 16.6954C11.5494 16.1652 11.5098 15.6309 11.3886 15.1122C11.2855 14.6265 11.2327 14.1318 11.2294 13.6346C11.2896 12.9856 11.5683 12.3754 12.0194 11.9046C12.5257 11.4041 13.0963 10.9745 13.7172 10.6265L13.7296 10.6182C14.2301 10.2678 14.691 9.86374 15.1033 9.4127C15.4282 9.06555 15.7143 8.68377 15.9568 8.27395C16.0425 8.32177 16.125 8.3762 16.2025 8.43557C16.4384 8.61285 16.6231 8.84868 16.7385 9.11998C16.8416 9.36157 16.8457 9.63369 16.7492 9.87776C16.7129 9.96599 16.6651 10.0485 16.6074 10.1243L15.274 11.5113C15.1034 11.6861 15.0572 11.9483 15.1586 12.1709C15.1908 12.246 15.2353 12.3152 15.2922 12.3738C15.3499 12.4356 15.4192 12.4843 15.4967 12.5181C15.7094 12.6113 15.9585 12.5593 16.1159 12.3878L17.23 11.3035C17.4575 11.0627 17.6464 10.7881 17.789 10.4888C17.9506 10.1779 18.0702 9.8456 18.1428 9.50257L18.88 5.37378H18.8808C19.0292 4.98457 19.27 4.63742 19.5817 4.36118C19.6311 4.31748 19.693 4.29027 19.7581 4.28202C19.7804 4.28202 19.806 4.29852 19.8323 4.33397C19.9511 4.55661 20.0088 4.80646 19.9989 5.05878C19.9865 5.37543 19.9808 5.86852 19.9742 6.45234C19.9519 8.4965 19.9156 11.6835 19.5231 12.4215C19.0036 13.3994 18.3234 14.0121 17.6959 14.5769C16.8589 15.3306 16.1126 16.0035 15.8851 17.3055L11.5032 16.6962L11.504 16.6954ZM13.2991 18.1179C13.3742 18.0428 13.4921 18.0313 13.5803 18.0906C13.6685 18.1492 13.7023 18.2622 13.6619 18.3603C13.6215 18.4584 13.5168 18.5136 13.4129 18.493C13.309 18.4724 13.234 18.3809 13.234 18.2754C13.234 18.216 13.2579 18.1599 13.2991 18.1179ZM12.952 17.7699C13.1928 17.5299 13.5696 17.4928 13.8524 17.6817C14.1361 17.8713 14.2458 18.2341 14.1155 18.5483C13.9852 18.8625 13.6504 19.0414 13.3164 18.9746C12.9833 18.9086 12.7425 18.6151 12.7425 18.2754C12.7425 18.0857 12.8176 17.9043 12.952 17.7699ZM4.11411 17.3048C3.88735 16.0028 3.14027 15.3299 2.30332 14.5762C1.67662 14.0114 0.995529 13.3987 0.476047 12.4207C0.0835387 11.6819 0.0480959 8.49481 0.0250022 6.45078C0.0184055 5.86698 0.0126333 5.37387 0.000264071 5.05723H0.00108861C-0.00880622 4.8049 0.0489141 4.55505 0.167655 4.33241C0.194041 4.29695 0.218779 4.28046 0.241867 4.28046C0.307008 4.28953 0.368853 4.31675 0.418329 4.35962C0.730031 4.63669 0.969981 4.98383 1.11922 5.37304L1.85641 9.50184C1.9298 9.84486 2.04854 10.1772 2.21098 10.488C2.35364 10.7874 2.54164 11.062 2.76922 11.3027L3.88323 12.3871C4.04072 12.5586 4.28975 12.6105 4.50249 12.5165C4.58001 12.4835 4.64927 12.4349 4.70699 12.3731C4.76389 12.3137 4.80842 12.2452 4.84057 12.1702C4.942 11.9476 4.89665 11.6853 4.72596 11.5105L3.3926 10.1236C3.33488 10.0477 3.28705 9.96526 3.25077 9.87702C3.15429 9.63296 3.15759 9.36084 3.26067 9.11924C3.37611 8.84794 3.56164 8.61213 3.79748 8.43483C3.87499 8.37463 3.95662 8.32104 4.04239 8.27321C4.28481 8.68303 4.57095 9.06481 4.89584 9.41196C5.30896 9.863 5.7699 10.2671 6.27043 10.6175L6.28279 10.6257H6.28197C6.90288 10.9737 7.47349 11.4033 7.9798 11.9039C8.43167 12.3739 8.71038 12.9841 8.76976 13.6338C8.76646 14.1302 8.71369 14.6258 8.61144 15.1115C8.4894 15.6301 8.45064 16.1645 8.49517 16.6947L4.11411 17.3048ZM9.26122 18.7074L9.0394 17.1152L3.82558 17.84L4.0474 19.4331L9.26122 18.7074ZM7.04811 17.7682C7.28888 18.0098 7.32517 18.3867 7.13634 18.6695C6.94751 18.9523 6.58468 19.062 6.26969 18.9317C5.95552 18.8014 5.77742 18.4675 5.84338 18.1335C5.91018 17.7996 6.2029 17.5596 6.54346 17.5596C6.73311 17.5588 6.91453 17.6347 7.04811 17.7682ZM6.70014 18.1154C6.77518 18.1904 6.78672 18.3075 6.72817 18.3957C6.6688 18.484 6.55583 18.5186 6.45854 18.4782C6.36042 18.437 6.30434 18.3331 6.32496 18.2292C6.3464 18.1253 6.4371 18.0502 6.54348 18.0502C6.60203 18.0502 6.65891 18.0733 6.70014 18.1154ZM14.5946 7.05194C13.9713 8.61452 12.5703 9.51984 10.4074 10.9169C10.3035 10.9837 10.1996 11.0504 9.9992 11.1807C9.79883 11.0504 9.69493 10.9837 9.59103 10.9169C7.429 9.52001 6.02797 8.61467 5.40545 7.05194V1.88583C6.19623 1.92541 6.98454 1.76626 7.69857 1.42324C8.51574 1.03487 9.28754 0.557415 9.99992 0C10.7124 0.557415 11.4842 1.03485 12.3013 1.42324C13.0154 1.76627 13.8037 1.92541 14.5944 1.88583L14.5946 7.05194Z" fill="white"/>
</svg>
