<svg width="22" height="20" viewBox="0 0 22 20" fill="none" xmlns="http://www.w3.org/2000/svg">
<path d="M9.15135 8.59886C8.27285 8.09166 7.58626 7.30875 7.19806 6.37157C6.80987 5.43438 6.74176 4.39529 7.00431 3.41545C7.26686 2.43561 7.84538 1.56978 8.65016 0.952252C9.45494 0.334722 10.441 0 11.4554 0C12.4698 0 13.4559 0.334722 14.2606 0.952252C15.0654 1.56978 15.644 2.43561 15.9065 3.41545C16.1691 4.39529 16.1009 5.43438 15.7127 6.37157C15.3246 7.30875 14.638 8.09166 13.7595 8.59886L12.372 6.19575C12.7215 5.99397 12.9947 5.68251 13.1491 5.30967C13.3035 4.93683 13.3306 4.52345 13.2262 4.13364C13.1217 3.74383 12.8916 3.39938 12.5714 3.1537C12.2512 2.90803 11.859 2.77487 11.4554 2.77487C11.0518 2.77487 10.6596 2.90803 10.3394 3.1537C10.0192 3.39938 9.78908 3.74383 9.68463 4.13364C9.58018 4.52345 9.60727 4.93683 9.76171 5.30967C9.91615 5.68251 10.1893 5.99397 10.5388 6.19575L9.15135 8.59886Z" fill="white"/>
<path d="M19.0192 9.71413C19.8977 10.2213 20.5843 11.0042 20.9725 11.9414C21.3607 12.8786 21.4288 13.9177 21.1662 14.8975C20.9037 15.8774 20.3251 16.7432 19.5204 17.3607C18.7156 17.9783 17.7295 18.313 16.7151 18.313C15.7007 18.313 14.7147 17.9783 13.9099 17.3607C13.1051 16.7432 12.5266 15.8774 12.264 14.8975C12.0015 13.9177 12.0696 12.8786 12.4578 11.9414C12.846 11.0042 13.5326 10.2213 14.4111 9.71413L15.7985 12.1172C15.449 12.319 15.1759 12.6305 15.0214 13.0033C14.867 13.3762 14.8399 13.7895 14.9443 14.1794C15.0488 14.5692 15.279 14.9136 15.5991 15.1593C15.9193 15.405 16.3116 15.5381 16.7151 15.5381C17.1187 15.5381 17.511 15.405 17.8311 15.1593C18.1513 14.9136 18.3815 14.5692 18.4859 14.1794C18.5904 13.7895 18.5633 13.3762 18.4088 13.0033C18.2544 12.6305 17.9812 12.319 17.6317 12.1172L19.0192 9.71413Z" fill="white"/>
<path d="M10.903 13.7052C10.903 14.7196 10.5682 15.7057 9.9507 16.5104C9.33317 17.3152 8.46735 17.8937 7.48751 18.1563C6.50767 18.4188 5.46858 18.3507 4.53139 17.9625C3.5942 17.5743 2.8113 16.8878 2.3041 16.0093C1.79689 15.1308 1.59374 14.1094 1.72615 13.1037C1.85856 12.098 2.31912 11.1641 3.03641 10.4468C3.7537 9.72947 4.68764 9.26891 5.69336 9.1365C6.69909 9.0041 7.7204 9.20725 8.5989 9.71445L7.21146 12.1176C6.86197 11.9158 6.45566 11.835 6.05555 11.8876C5.65545 11.9403 5.2839 12.1235 4.99854 12.4089C4.71318 12.6943 4.52996 13.0658 4.47728 13.4659C4.42461 13.866 4.50542 14.2723 4.7072 14.6218C4.90898 14.9713 5.22045 15.2445 5.59329 15.3989C5.96613 15.5533 6.37951 15.5804 6.76932 15.476C7.15913 15.3715 7.50358 15.1414 7.74925 14.8212C7.99492 14.501 8.12809 14.1088 8.12809 13.7052L10.903 13.7052Z" fill="white"/>
</svg>
