<svg width="23" height="22" viewBox="0 0 23 22" fill="none" xmlns="http://www.w3.org/2000/svg">
<path d="M20.8089 7.54444C18.9109 7.23784 15.518 7.1197 14.3579 8.86902C13.4621 10.2202 15.1552 12.0717 16.6971 13.8649C17.9328 15.301 19.2778 16.6733 18.7287 17.475C18.2808 18.1306 15.4061 18.1293 14.4159 18.181C13.2139 18.2434 11.4818 18.2474 11.1796 18.4093C10.9084 18.5527 10.7573 18.9987 11.7745 19.1779C12.592 19.3225 14.5386 19.6158 16.5919 19.6145C18.7355 19.6145 20.987 19.2681 21.4753 17.6356C21.8679 16.3243 20.5067 14.9187 19.3101 13.4932C18.0016 11.9323 16.6742 10.8201 16.7861 9.71451C16.8711 8.85445 18.5857 8.80536 21.4295 8.75626C22.0203 8.74564 23.1981 8.71777 22.9714 8.25854C22.7691 7.8524 21.8882 7.71831 20.8089 7.54444ZM12.0605 11.4373C10.8436 10.6157 8.67443 10.341 6.88831 10.4326C5.29781 10.5149 2.56332 11.0126 2.66585 11.5077C2.76298 12.0425 4.49377 11.8766 5.287 11.8766C7.0313 11.8766 9.7995 11.9815 10.2352 13.0871C11.1755 15.4695 4.80002 19.7472 3.4402 19.3357C2.82504 19.1512 4.6894 16.0415 5.36527 14.924C5.76728 14.2564 6.37972 13.2079 5.85765 13.1362C5.27352 13.0565 4.63003 14.044 4.21183 14.6134C3.0773 16.1596 1.91578 17.8479 0.983601 19.5827C0.694909 20.1189 -0.260184 21.7315 0.0676303 21.9399C0.37386 22.1336 1.83214 21.8576 3.68705 21.1342C9.51755 18.8633 12.1428 15.9035 12.8456 13.4587C13.0925 12.5973 12.6662 11.8461 12.0605 11.4373ZM7.73146 0.993141C7.61139 0.606911 9.55668 0.10519 11.6895 0.0122833C13.8385 -0.0806255 16.3801 0.34008 16.8549 1.73503C17.6306 4.02056 13.6955 7.35335 10.2676 8.99118C9.42584 9.39201 8.91722 9.50211 8.70408 9.47424C8.50307 9.4477 8.4707 9.26191 8.53681 9.13449C8.65822 8.89426 9.21269 8.40451 9.95195 7.87228C13.8115 5.09832 15.0661 3.06361 14.3377 2.23939C13.8695 1.71114 11.9134 1.34351 9.8818 1.34351C9.33005 1.34351 7.8812 1.46166 7.73146 0.993141Z" fill="white"/>
</svg>
