<svg width="13" height="18" viewBox="0 0 13 18" fill="none" xmlns="http://www.w3.org/2000/svg">
<path d="M1.18835 0H1.99698V0.801596H2.74233V0H3.55095V2.42588H2.74233V1.61725H2.00401V2.42588H1.18835M4.61975 0.808627H3.90605V0H6.14559V0.808627H5.42837V2.42588H4.61975M6.50069 0H7.34799L7.86832 0.854332L8.38866 0H9.23596V2.42588H8.42733V1.22349L7.86129 2.0954L7.29525 1.22349V2.42588H6.50069M9.63675 0H10.4454V1.62429H11.5915V2.42588H9.63675" fill="white"/>
<path fill-rule="evenodd" clip-rule="evenodd" d="M0 3.53662L1.1602 16.559L6.36706 18.0005L11.595 16.552L12.7552 3.53662H0ZM2.36952 6.1979H6.3775V6.19804H10.3714L10.2237 7.7942H6.37044V7.79406H4.12037L4.26803 9.42889H6.3775V9.42903H10.0796L9.64011 14.33L6.3775 15.2351V15.244L3.1008 14.3299L2.87579 11.8231H4.47898L4.59148 13.0994L6.37423 13.5766L8.15294 13.0995L8.33927 11.0252H6.37044V11.0215H2.80547L2.36952 6.1979Z" fill="white"/>
</svg>
