<svg width="20" height="21" viewBox="0 0 20 21" fill="none" xmlns="http://www.w3.org/2000/svg">
<path d="M12.1136 9.80371L7.90812 11.177L4.24937 12.7918L3.22578 13.062C2.96509 13.31 2.69175 13.5611 2.39612 13.8154C2.07189 14.0951 1.76991 14.3495 1.53782 14.5338C1.28036 14.7372 0.898898 15.1187 0.70501 15.3602C0.415724 15.7226 0.186861 16.1072 0.0883117 16.4029C-0.0865351 16.9369 -0.000666177 17.4773 0.336275 17.9764C0.768584 18.6121 1.63005 19.2606 2.63451 19.7024C3.14633 19.9282 4.00776 20.2174 4.65621 20.3795C5.73379 20.6529 7.8191 20.9486 8.96661 20.9931C9.19863 21.0026 9.51018 21.0026 9.52286 20.9931C9.54832 20.9771 9.72633 20.637 9.93299 20.2143C10.6387 18.7743 11.1473 17.4233 11.4238 16.2694C11.5891 15.5701 11.7194 14.6387 11.8052 13.5357C11.8275 13.2274 11.837 12.1943 11.8179 11.8446C11.7893 11.2724 11.7384 10.8083 11.659 10.3537C11.6463 10.287 11.6431 10.2266 11.6495 10.2234C11.6622 10.2139 11.7003 10.2012 12.2184 10.0517L12.1136 9.80381V9.80374H12.1136V9.80371ZM11.1537 10.3664C11.1918 10.3664 11.2935 11.3423 11.3189 11.959C11.3253 12.0893 11.3221 12.1751 11.3157 12.1751C11.2903 12.1751 10.7785 11.8732 10.413 11.6443C10.0951 11.444 9.49118 11.0435 9.39583 10.9672C9.36397 10.945 9.36714 10.9418 9.62784 10.8528C10.0696 10.7033 11.1187 10.3664 11.1537 10.3664ZM9.01116 11.0721C9.03979 11.0721 9.11284 11.1134 9.28769 11.2215C9.9425 11.6315 10.8326 12.1275 11.214 12.2928C11.3316 12.3436 11.3443 12.3245 11.0742 12.5089C10.4956 12.9031 9.774 13.2909 8.8903 13.6819C8.73457 13.7518 8.60425 13.8058 8.60109 13.8058C8.59475 13.8058 8.61376 13.7264 8.63917 13.631C8.85216 12.8394 8.97297 12.0384 8.97936 11.3963C8.98253 11.0784 8.98253 11.0784 9.01116 11.0689C9.00477 11.0721 9.00793 11.0721 9.01116 11.0721ZM8.56932 11.2406C8.58833 11.2596 8.57565 11.9717 8.55021 12.1656C8.49299 12.6297 8.40399 13.062 8.25781 13.5484C8.22284 13.6659 8.191 13.7645 8.18471 13.7708C8.17193 13.7867 7.73644 13.3608 7.5934 13.1955C7.34544 12.9094 7.15158 12.6233 7.00853 12.3436C6.93541 12.2005 6.821 11.9208 6.83051 11.9113C6.88136 11.8763 8.5566 11.2279 8.56932 11.2406ZM6.49036 12.0575C6.49353 12.0575 6.49669 12.0575 6.49992 12.0607C6.50625 12.067 6.52855 12.1179 6.54762 12.1751C6.6493 12.4517 6.87814 12.8585 7.07528 13.1192C7.29143 13.4053 7.57437 13.7104 7.80954 13.9107C7.88587 13.9743 7.95576 14.0347 7.96527 14.0442C7.98439 14.0633 7.99073 14.0601 7.47257 14.2572C6.87185 14.4861 6.21698 14.7149 5.46677 14.9565C5.28756 15.0143 5.10852 15.0726 4.92964 15.1314C4.90098 15.1409 4.91054 15.125 4.99318 14.9947C5.36509 14.413 5.93089 13.2718 6.24879 12.4644C6.30283 12.3245 6.35687 12.1847 6.36642 12.1529C6.37915 12.1083 6.39501 12.0924 6.43632 12.0702C6.45857 12.0639 6.48085 12.0575 6.49036 12.0575ZM5.85467 12.3213C5.86418 12.3277 5.70206 12.6678 5.54311 12.9793C5.23476 13.5801 4.89782 14.1714 4.44644 14.8898C4.37015 15.0137 4.29707 15.1282 4.28751 15.1409C4.27163 15.1632 4.26524 15.1568 4.21439 15.0583C4.10631 14.8453 4.01728 14.5719 3.96961 14.3208C3.92191 14.0728 3.93147 13.6405 3.98553 13.3735C4.02681 13.1764 4.02367 13.1796 4.11902 13.1319C4.5259 12.9253 5.84194 12.3086 5.85467 12.3213ZM11.338 12.5439V12.6774C11.338 13.3862 11.2617 14.3589 11.1504 15.0678C11.1314 15.1918 11.1154 15.2935 11.1123 15.2967C11.1123 15.2967 11.0201 15.2713 10.912 15.2395C10.4352 15.09 9.9171 14.8707 9.4498 14.6133C9.14141 14.4448 8.69324 14.1682 8.70598 14.1555C8.7091 14.1523 8.84264 14.0824 8.99838 13.9997C9.62149 13.6755 10.219 13.3258 10.7372 12.9794C10.9311 12.849 11.2235 12.6393 11.2872 12.582L11.338 12.5439ZM3.45464 13.4847C3.46735 13.4847 3.46417 13.5102 3.4451 13.6246C3.43237 13.7073 3.4165 13.8599 3.41018 13.9647C3.38469 14.4288 3.46103 14.7722 3.68989 15.2426C3.75347 15.3729 3.80436 15.481 3.80114 15.4842C3.77887 15.5033 1.67457 16.12 1.01334 16.3011C0.816268 16.3552 0.644646 16.4029 0.631864 16.406C0.609657 16.4124 0.606461 16.4092 0.615989 16.3551C0.689091 15.8879 1.04513 15.2776 1.541 14.7626C1.87161 14.4193 2.13546 14.219 2.58684 13.9615C2.91107 13.7772 3.41014 13.5007 3.44828 13.4879C3.44831 13.4847 3.45147 13.4847 3.45464 13.4847ZM8.41354 14.3716C8.41671 14.3684 8.49299 14.4098 8.58517 14.4638C9.26544 14.858 10.2127 15.2236 11.0201 15.4111L11.0932 15.427L10.9915 15.4842C10.5687 15.7194 9.1796 16.2979 7.75872 16.8288C7.55206 16.9051 7.34865 16.9814 7.31045 16.9973C7.27231 17.0132 7.23733 17.0227 7.23733 17.0195C7.23733 17.0163 7.29459 16.9051 7.36764 16.7684C7.76499 16.0246 8.16555 15.1186 8.36898 14.4892C8.39447 14.4288 8.41032 14.3748 8.41354 14.3716ZM7.90812 14.5369C7.91134 14.5402 7.88588 14.6069 7.85407 14.6832C7.57754 15.3539 7.21511 16.085 6.75103 16.9051C6.63344 17.115 6.53488 17.2834 6.53165 17.2834C6.52853 17.2834 6.43313 17.2262 6.31871 17.1563C5.64477 16.743 5.04719 16.2344 4.65623 15.7417L4.59899 15.6718L4.88823 15.5923C5.92453 15.3094 6.80501 15.0042 7.67921 14.6292C7.80321 14.5783 7.90495 14.5369 7.90812 14.5369ZM11.0487 15.6336C11.0519 15.7067 10.8898 16.3616 10.7563 16.8352C10.645 17.2325 10.5496 17.5441 10.3748 18.0939C10.2985 18.3356 10.2318 18.5358 10.2286 18.5358C10.2254 18.5358 10.2064 18.5326 10.1873 18.5263C9.24322 18.3546 8.39766 18.1162 7.60296 17.7984C7.38041 17.7093 7.06256 17.5663 7.04349 17.5504C7.03715 17.544 7.22789 17.455 7.46946 17.3501C8.9158 16.7175 10.4162 15.9991 10.9311 15.6908C10.9915 15.6527 11.0392 15.6336 11.0487 15.6336ZM3.79797 15.8816C3.80433 15.8879 3.40062 16.4696 2.83478 17.2611C2.63771 17.5377 2.40884 17.8619 2.32303 17.9827C2.23719 18.1035 2.10688 18.2942 2.03376 18.4087L1.90019 18.6153L1.75714 18.4945C1.58865 18.3546 1.29625 18.0558 1.16592 17.8905C0.892522 17.5504 0.708191 17.1912 0.635074 16.8639C0.600099 16.7112 0.600099 16.6349 0.631849 16.6254C0.679518 16.6127 1.52826 16.4124 2.323 16.228C2.76485 16.1264 3.2766 16.0056 3.46097 15.9611C3.64536 15.9165 3.79481 15.8816 3.79797 15.8816ZM4.20483 16.0373L4.30652 16.1518C4.76432 16.6635 5.23159 17.0419 5.79741 17.3724C5.89915 17.4297 5.97542 17.4805 5.96903 17.4837C5.94684 17.4996 4.00455 18.1893 3.10498 18.5009C2.59958 18.6789 2.18313 18.8219 2.17999 18.8219C2.17683 18.8219 2.1482 18.8029 2.11636 18.7806L2.05918 18.7393L2.15135 18.6058C2.45014 18.1734 2.82529 17.6998 3.64223 16.7144L4.20483 16.0373ZM6.74153 17.8524C6.74466 17.8492 6.88453 17.9001 7.05617 17.9637C7.46946 18.1194 7.79682 18.2179 8.23553 18.3292C8.77593 18.4659 9.55789 18.5994 10.0188 18.6376C10.0888 18.6439 10.1269 18.6503 10.1142 18.6598C10.0919 18.6726 9.62468 18.8283 9.28136 18.9364C8.73457 19.108 7.06574 19.6007 5.70524 19.9917C5.45411 20.0648 5.23794 20.1252 5.22523 20.1284C5.19348 20.1348 5.08854 20.1061 5.08854 20.0934C5.08854 20.0871 5.16482 19.9886 5.25702 19.8805C5.71474 19.3337 6.16934 18.7234 6.54762 18.1449C6.65249 17.9859 6.74153 17.8556 6.74153 17.8524ZM6.18202 17.8683C6.18519 17.8715 5.95952 18.2338 5.56539 18.8569C5.39688 19.1207 5.20932 19.4195 5.14255 19.5244C5.07898 19.6261 4.98363 19.7851 4.92961 19.8741L4.83741 20.0362L4.78974 20.0235C4.67527 19.9917 3.87106 19.7088 3.65807 19.623C3.39422 19.518 3.12085 19.3909 2.91739 19.2828C2.66312 19.1461 2.34527 18.9427 2.37067 18.9364C2.37702 18.9332 2.81252 18.8155 3.33699 18.6725C4.72932 18.2942 5.50173 18.0749 6.0072 17.916C6.0994 17.8874 6.17885 17.8651 6.18202 17.8683ZM10.1396 18.7965H10.1428C10.1555 18.8283 9.64057 20.2587 9.45294 20.7101C9.41167 20.8118 9.39583 20.8373 9.37353 20.834C9.31949 20.8309 8.5725 20.726 8.11788 20.6592C7.32641 20.5385 5.99766 20.3064 5.66391 20.2301L5.58763 20.2142L6.0612 20.1061C7.07845 19.8772 7.56797 19.7533 8.06384 19.6007C8.69008 19.41 9.30997 19.1715 9.93615 18.8791C10.0347 18.8346 10.1173 18.7996 10.1396 18.7965Z" fill="white"/>
<path d="M7.7779 0.000162813C7.70796 -0.00932125 6.57946 0.397555 5.85155 0.693144C4.86928 1.09372 4.10642 1.47519 3.63594 1.80571C3.46114 1.92974 3.24176 2.14904 3.20684 2.23485C3.19413 2.26665 3.18774 2.30479 3.18774 2.34293L3.61372 2.74664L4.62772 3.07087L7.04043 3.5032L9.79957 3.97684L9.8282 3.73844C9.81869 3.73844 9.8123 3.73527 9.80284 3.73527L9.44037 3.67803L9.36731 3.54771C8.9922 2.88651 8.57896 2.06638 8.33739 1.51327C8.14986 1.08413 7.97183 0.588292 7.87327 0.232251C7.81922 0.0160965 7.81289 0.00338765 7.77797 0.000221414V0.00014805H7.7779V0.000162813ZM7.72698 0.16233H7.73024C7.73337 0.165467 7.74609 0.254532 7.75883 0.35937C7.81282 0.804461 7.91144 1.23353 8.06717 1.69765C8.18476 2.04733 8.18476 2.02827 8.0481 1.98692C7.72387 1.89794 6.27118 1.64681 5.21901 1.50059C5.05052 1.47833 4.90747 1.45609 4.90747 1.45292C4.89476 1.44022 5.66717 1.03648 6.00731 0.877578C6.4428 0.677269 7.63801 0.178205 7.72698 0.16233ZM4.66265 1.58641L4.78668 1.62768C5.46053 1.85659 7.15478 2.18084 8.08939 2.25712C8.19426 2.26666 8.28331 2.27622 8.28643 2.27622C8.2896 2.27939 8.20065 2.32707 8.08618 2.38109C7.63485 2.60678 7.13893 2.88335 6.79562 3.09633C6.69393 3.15988 6.6017 3.21077 6.58902 3.21077C6.5763 3.21077 6.50957 3.19805 6.43963 3.18851L6.31249 3.16941L5.99465 2.85787C5.43517 2.31433 4.99649 1.89475 4.828 1.73578L4.66265 1.58641ZM4.53555 1.68492L4.98375 2.24441C5.22849 2.55275 5.47644 2.85472 5.53053 2.92144C5.58452 2.98824 5.62905 3.0423 5.62588 3.04547C5.61316 3.055 4.97745 2.931 4.64045 2.85475C4.29396 2.77525 4.15093 2.73711 3.93795 2.67039L3.76311 2.61315V2.56861C3.76627 2.35563 4.0365 2.03777 4.49423 1.71357L4.53555 1.68492ZM8.3437 2.44784C8.35644 2.44784 8.37229 2.47644 8.41043 2.56227C8.51851 2.80066 8.85552 3.4428 8.93809 3.56676C8.9636 3.60812 9.00803 3.61129 8.55987 3.53817C7.48229 3.3633 7.13577 3.30614 7.13577 3.29978C7.13577 3.29661 7.16756 3.27435 7.20888 3.25208C7.54267 3.06775 7.8796 2.8325 8.17843 2.58137C8.25154 2.52096 8.3183 2.46375 8.33098 2.45419C8.33415 2.44784 8.34054 2.44468 8.3437 2.44784Z" fill="white"/>
<path d="M3.22893 2.18994C3.22893 2.18994 3.15904 2.30124 3.22578 2.46655C3.26715 2.56823 3.38792 2.69219 3.52458 2.81936C3.52458 2.81936 4.93913 4.19894 5.11079 4.39605C5.89274 5.29879 6.23289 6.18886 6.26468 7.41588C6.28375 8.20422 6.13431 8.89718 5.76242 9.70142C5.10123 11.1446 3.70573 12.7372 1.55371 14.5046L1.86846 14.3997C2.07189 14.2471 2.34845 14.085 2.9969 13.729C4.49408 12.9088 6.17884 12.1554 8.24506 11.3798C11.2203 10.2608 16.1125 8.95117 18.8971 8.52527L19.1864 8.48073L19.1418 8.4108C18.8876 8.01662 18.7127 7.77188 18.5029 7.51122C17.8926 6.75466 17.152 6.14119 16.246 5.63257C14.9999 4.93645 13.3882 4.39288 11.3475 3.98917C10.9629 3.91285 10.1173 3.76664 9.43072 3.66174C7.97482 3.43611 7.0339 3.28032 5.99765 3.1023C5.62576 3.0387 5.06942 2.94336 4.70069 2.86391C4.50997 2.82254 4.14444 2.73673 3.85835 2.6382C3.62949 2.54915 3.29887 2.46014 3.22893 2.18994ZM4.0491 2.98467C4.05224 2.98153 4.10309 3.00054 4.16989 3.02281C4.29068 3.06409 4.44642 3.11179 4.63084 3.16268C4.77036 3.20106 4.91023 3.23814 5.05043 3.27392C5.24115 3.32158 5.40006 3.3661 5.40323 3.3661C5.42552 3.38836 5.74659 4.41503 5.85467 4.80921C5.89593 4.95866 5.92778 5.08578 5.9246 5.08578C5.92133 5.089 5.88642 5.03493 5.84511 4.96182C5.47318 4.30698 4.88511 3.64263 4.20484 3.10858C4.11587 3.04506 4.0491 2.98783 4.0491 2.98467ZM5.61305 3.41698C5.62896 3.41698 5.69889 3.42652 5.78467 3.44558C6.32507 3.56636 7.29462 3.75074 7.91445 3.85565C8.01937 3.87152 8.10204 3.89064 8.10204 3.89696C8.10204 3.90335 8.06385 3.92555 8.01615 3.95102C7.9113 4.00503 7.48849 4.25613 7.34866 4.35152C6.99579 4.58674 6.67795 4.84104 6.44906 5.0699C6.35688 5.1621 6.27738 5.23839 6.27738 5.23839C6.27738 5.23839 6.25836 5.18437 6.2424 5.11757C6.12803 4.67572 5.88958 4.02088 5.67343 3.55999C5.63845 3.4869 5.60983 3.42013 5.60983 3.4138C5.60983 3.42014 5.60983 3.41698 5.61305 3.41698ZM8.36585 3.94147C8.38492 3.94781 8.41671 4.0559 8.48027 4.29429C8.59791 4.75524 8.65195 5.27019 8.63288 5.75019C8.62649 5.8837 8.62016 6.00765 8.61377 6.02358L8.60425 6.05533L8.43897 6.00132C8.09883 5.89324 7.54575 5.73109 7.07213 5.59761C6.80189 5.52449 6.58261 5.45774 6.58261 5.45139C6.58261 5.43229 6.97679 5.03814 7.14525 4.88875C7.46624 4.6058 8.33722 3.93192 8.36585 3.94147ZM8.58518 3.97322C8.59474 3.96374 9.90121 4.18938 10.4956 4.30383C10.9375 4.38964 11.5796 4.52317 11.6177 4.53909C11.6368 4.54542 11.57 4.58356 11.357 4.67891C10.5179 5.05722 9.8948 5.3973 9.27501 5.81058C9.11289 5.91866 8.97618 6.00765 8.97302 6.00765C8.96985 6.00765 8.96667 5.91549 8.96667 5.80422C8.96667 5.20027 8.84587 4.58994 8.62331 4.07498C8.60107 4.02412 8.582 3.97645 8.58518 3.97322ZM11.9642 4.6408C11.9738 4.65033 11.9324 4.90784 11.8943 5.06039C11.7798 5.53403 11.4715 6.23659 11.0933 6.89773C11.0265 7.01535 10.9661 7.11072 10.9597 7.11388C10.9534 7.11705 10.8676 7.06935 10.769 7.01214C10.4003 6.79599 9.98069 6.59255 9.52292 6.4018C9.39581 6.34779 9.28453 6.30325 9.28135 6.29695C9.25905 6.27785 10.2826 5.60077 10.823 5.27654C11.2522 5.0159 11.9515 4.62806 11.9642 4.6408ZM12.2058 4.67893C12.2344 4.67893 12.813 4.83789 13.1149 4.92689C13.8619 5.14942 14.7202 5.4641 15.2796 5.71839L15.5117 5.82333L15.3496 5.86145C13.9828 6.17612 12.813 6.53855 11.6845 6.99628C11.5923 7.03442 11.5096 7.06622 11.5033 7.06622C11.4969 7.06622 11.5287 6.99311 11.5701 6.90408C11.9102 6.18251 12.1295 5.42914 12.1835 4.78699C12.1868 4.72658 12.1962 4.67893 12.2058 4.67893ZM6.44589 6.00132C6.4554 5.99176 6.89727 6.09669 7.13568 6.16338C7.49805 6.26514 8.26728 6.52259 8.26728 6.54169C8.26728 6.54486 8.18149 6.61797 8.0798 6.70701C7.66338 7.05349 7.26282 7.419 6.7828 7.88312C6.63975 8.01986 6.51899 8.1311 6.51266 8.1311C6.50627 8.1311 6.50315 8.11198 6.50627 8.08657C6.57937 7.55251 6.56352 6.86592 6.46179 6.16977C6.45222 6.08074 6.44271 6.00448 6.44589 6.00132ZM15.7311 6.01088C15.7374 6.01719 15.5276 6.34779 15.3941 6.53531C15.2034 6.80868 14.9236 7.17113 14.291 7.96581C13.9573 8.38537 13.5822 8.85904 13.4582 9.01797C13.331 9.1769 13.2262 9.31038 13.223 9.31038C13.2198 9.31038 13.1785 9.25319 13.134 9.18327C12.778 8.64922 12.352 8.18193 11.8466 7.76235C11.7512 7.68286 11.6464 7.59703 11.6114 7.5716C11.5764 7.54618 11.5478 7.52075 11.5478 7.51758C11.5478 7.50807 12.0881 7.27596 12.4982 7.1107C13.2167 6.81824 14.1956 6.46859 14.93 6.24288C15.3146 6.1221 15.7247 6.00448 15.7311 6.01088ZM15.9758 6.07441C15.9885 6.07125 16.0648 6.1094 16.157 6.16338C16.9295 6.60523 17.686 7.17426 18.2836 7.75917C18.4521 7.92449 18.8685 8.3568 18.8621 8.35996C18.8621 8.35996 18.7159 8.37267 18.5443 8.38537C17.206 8.48712 15.4927 8.76999 13.8461 9.16732C13.7348 9.19273 13.6363 9.21499 13.6299 9.21499C13.6236 9.21499 13.7475 9.09104 13.9033 8.94166C14.8696 8.01028 15.3115 7.42221 15.8328 6.37319C15.9059 6.21747 15.9695 6.08396 15.9758 6.07441C15.9727 6.07441 15.9727 6.07441 15.9758 6.07441ZM8.89669 6.79921C8.94122 6.80869 9.35446 7.00267 9.66597 7.15839C9.95206 7.30138 10.3812 7.5303 10.4035 7.54935C10.4066 7.55251 10.254 7.63199 10.0665 7.72419C9.46889 8.02299 8.95713 8.30587 8.42306 8.63012C8.27049 8.72232 8.14335 8.79865 8.14018 8.79865C8.12746 8.79865 8.13062 8.78587 8.21646 8.63012C8.50257 8.10885 8.7314 7.4858 8.86178 6.87863C8.87444 6.83096 8.88718 6.79921 8.89669 6.79921ZM8.48344 6.87546C8.493 6.88502 8.38492 7.27598 8.31819 7.48897C8.18782 7.89268 7.9685 8.39809 7.75555 8.77955C7.70463 8.86851 7.62836 8.99885 7.58704 9.07196L7.50759 9.1991L7.32958 9.0275C7.12298 8.82722 6.95447 8.70325 6.73836 8.59196C6.65247 8.5475 6.58575 8.50932 6.58575 8.503C6.58575 8.47757 7.12931 7.98486 7.54573 7.62884C7.84452 7.37135 8.47392 6.86594 8.48344 6.87546ZM11.0106 7.91494L11.1664 8.01663C11.5223 8.24872 11.9419 8.55703 12.2631 8.82722C12.4442 8.97659 12.7938 9.29134 12.8638 9.36762L12.9019 9.40898L12.6445 9.48207C11.1886 9.88574 10.0633 10.2449 8.75047 10.7281C8.60425 10.7822 8.48027 10.8267 8.47072 10.8267C8.4517 10.8267 8.43575 10.8425 8.76321 10.5405C9.60243 9.76818 10.3462 8.91621 10.8993 8.08655L11.0106 7.91494ZM10.3462 8.08023C10.3526 8.08657 9.9171 8.70005 9.65641 9.04655C9.3449 9.45981 8.79178 10.1528 8.41034 10.6041C8.25144 10.7917 8.11478 10.9474 8.10839 10.9506C8.09883 10.9538 8.09566 10.9061 8.09566 10.833C8.09566 10.4483 7.99714 10.0383 7.82546 9.68865C7.75235 9.54244 7.73962 9.50746 7.75557 9.49158C7.81595 9.43752 8.74096 8.90985 9.32583 8.59517C9.72 8.38538 10.3366 8.07387 10.3462 8.08023ZM6.32824 9.06565C6.3378 9.06565 6.41091 9.10377 6.49357 9.1483C6.69701 9.25954 6.8782 9.38351 7.04031 9.51705C7.04664 9.52338 6.96402 9.59016 6.85595 9.66958C6.55395 9.88574 6.09622 10.2323 5.82925 10.4452C5.54945 10.6678 5.53998 10.6741 5.57173 10.6264C5.78155 10.3054 5.8864 10.1242 5.9977 9.89214C6.09622 9.68555 6.19475 9.44076 6.26468 9.22778C6.2901 9.13559 6.32191 9.06565 6.32824 9.06565ZM7.39953 9.90482C7.41537 9.90169 7.4345 9.93026 7.52029 10.0574C7.70148 10.3276 7.84135 10.69 7.87637 10.9824L7.88266 11.046L7.44723 11.2145C6.66838 11.5165 5.95002 11.8153 5.46361 12.0378C5.32696 12.1014 5.08854 12.2158 4.93281 12.2921C4.77703 12.3716 4.64988 12.432 4.64988 12.4288C4.64988 12.4256 4.7484 12.3525 4.86919 12.2635C5.81971 11.5737 6.64297 10.8171 7.25964 10.0606C7.32641 9.98112 7.38683 9.908 7.39314 9.90484L7.39953 9.90482ZM6.90683 10.0256C6.91955 10.0383 6.55718 10.4484 6.30923 10.6995C5.69572 11.3258 5.08857 11.8153 4.33518 12.2921C4.23983 12.3525 4.15402 12.4065 4.14446 12.4129C4.12219 12.4256 4.15079 12.3938 4.4814 12.0346C4.69122 11.8089 4.85013 11.6182 5.03133 11.383C5.15211 11.2273 5.17438 11.205 5.34924 11.081C5.81653 10.744 6.8941 10.0129 6.90683 10.0256Z" fill="white"/>
</svg>
