<svg width="20" height="22" viewBox="0 0 20 22" fill="none" xmlns="http://www.w3.org/2000/svg">
<path fill-rule="evenodd" clip-rule="evenodd" d="M13.6502 5.46945C13.577 5.63524 13.3855 5.71494 13.216 5.64898C13.0475 5.58303 12.9595 5.39526 13.0173 5.22304L13.0969 4.79893C13.0969 4.28962 14.1403 4.22459 13.6502 5.46945ZM19.1921 9.92491C19.3799 9.92491 19.5319 10.077 19.5319 10.2647C19.5319 10.4525 19.3799 10.6046 19.1921 10.6046C18.2651 10.6037 17.4141 10.0944 16.9763 9.27728C16.9003 9.11423 16.9653 8.92096 17.1238 8.83576C17.2822 8.75057 17.4792 8.8037 17.5735 8.95668C17.8923 9.55392 18.5152 9.92674 19.1921 9.92491ZM17.1659 7.90328C17.1073 8.08099 16.9167 8.17809 16.7381 8.12037C16.5604 8.06358 16.4624 7.87305 16.5183 7.69443L16.6474 6.86452C16.6474 6.67674 16.7995 6.52468 16.9873 6.52468C17.1751 6.52468 17.328 6.67674 17.328 6.86452C17.3271 7.21718 17.2722 7.5671 17.1659 7.90328ZM13.4963 18.9458C13.3085 18.9458 13.1555 18.7938 13.1555 18.606C13.1555 18.4182 13.3085 18.2661 13.4963 18.2661C14.3518 18.2661 15.0462 17.5718 15.0462 16.7162C15.0462 16.5285 15.1982 16.3755 15.386 16.3755C15.5738 16.3755 15.7258 16.5285 15.7258 16.7162C15.7258 17.9474 14.7274 18.9458 13.4963 18.9458ZM17.7172 16.1088C17.1484 16.1097 16.5997 15.9009 16.1765 15.5226C16.0354 15.3971 15.8202 15.4099 15.6956 15.5501C15.5701 15.6911 15.5829 15.9064 15.724 16.031C16.2727 16.5192 16.9817 16.7885 17.7172 16.7885C17.905 16.7885 18.0571 16.6365 18.0571 16.4487C18.0571 16.2609 17.905 16.1088 17.7172 16.1088ZM12.279 8.32538C13.6337 8.49576 14.6495 9.64717 14.6495 11.013C14.6495 12.3778 13.6337 13.5301 12.279 13.7005V15.5436H12.5483C12.8625 14.5799 12.6912 14.8895 13.4185 14.5873C14.1458 14.285 13.805 14.1861 14.711 14.6486L15.5738 13.7876L15.2972 13.2426C15.1589 12.9677 15.5015 12.7058 15.6627 12.0701C15.7332 11.7953 16.0758 11.7605 16.4697 11.6313V10.4121C15.5061 10.1007 15.8157 10.271 15.5134 9.54189C15.2111 8.81274 15.1122 9.15717 15.5748 8.2494L14.711 7.38012L14.1696 7.65493C13.8948 7.79599 13.6328 7.4534 12.9852 7.28944C12.7131 7.22165 12.6783 6.87907 12.5492 6.48518L12.279 6.48426L12.279 8.32538ZM12.279 13.0153V9.01504C13.2527 9.18175 13.9635 10.0263 13.9635 11.0138C13.9635 12.0012 13.2527 12.8458 12.279 13.0125V13.0153ZM11.5993 3.56483H9.5795V17.5414H11.5984V3.56319L11.5993 3.56483ZM0.148285 17.0815C-0.0715576 17.4653 -0.0376654 17.9435 0.23439 18.2916C0.506455 18.6397 0.96171 18.7899 1.38674 18.6699C1.81268 18.5508 2.1232 18.1854 2.1736 17.7466C2.22398 17.3078 2.00322 16.8819 1.61666 16.6684C1.09544 16.3872 0.44598 16.5704 0.148285 17.0815ZM2.32931 16.3616L4.29415 12.9585V12.9594C4.35369 12.8532 4.46635 12.7881 4.58727 12.7881H8.89993V11.9088H4.40694C4.07168 11.8996 3.76024 12.081 3.60268 12.3778L1.55539 15.9208L1.98408 16.104C2.10591 16.1764 2.21858 16.2634 2.32026 16.3614L2.32931 16.3616ZM0.0356316 3.55585C-0.0742895 3.97539 0.0750204 4.42056 0.415777 4.68986C0.756527 4.95824 1.22369 5.00038 1.60658 4.79611C2.45572 4.21444 2.32382 3.04469 1.37208 2.78639C1.09362 2.71128 0.796837 2.75067 0.546768 2.89448C0.296699 3.03921 0.1144 3.27645 0.0402044 3.55584L0.0356316 3.55585ZM8.8999 8.67729V9.55392H4.40692C4.07531 9.56033 3.76845 9.37896 3.61457 9.08492L1.55539 5.54188C1.83843 5.4512 2.0995 5.30098 2.32026 5.10128L4.28509 8.50432C4.34464 8.60967 4.45639 8.6747 4.57822 8.6747L8.8999 8.67729ZM5.22297 1.61396C5.36861 1.87137 5.61043 2.06005 5.89624 2.13976C6.32035 2.25334 6.77286 2.10037 7.04033 1.75138C7.3078 1.40238 7.33986 0.926064 7.12002 0.545004C6.90019 0.163944 6.47241 -0.0476438 6.03638 0.00912827C5.60036 0.066836 5.24129 0.380105 5.12679 0.805133C5.05534 1.0772 5.08923 1.36664 5.22297 1.61396ZM6.62996 2.8002V2.80111C6.34141 2.87439 6.03914 2.87439 5.75059 2.80111V4.66062C5.75151 5.16533 6.16005 5.57387 6.66476 5.57478H8.91081L8.91172 4.69084H6.94871C6.76093 4.69084 6.60888 4.53878 6.60888 4.35101V2.80111L6.62996 2.8002ZM5.73868 18.2916V16.4413C5.73959 15.9366 6.14905 15.528 6.65285 15.5271H8.8989L8.89981 16.4157H6.94871C6.76093 16.4157 6.60888 16.5677 6.60888 16.7555V18.2917C6.32033 18.2175 6.01806 18.2175 5.72951 18.2917L5.73868 18.2916ZM5.2248 20.5313C5.36495 20.7868 5.60037 20.9755 5.88067 21.0562C6.16005 21.1358 6.46051 21.101 6.71424 20.9581C7.09438 20.7392 7.30506 20.3142 7.25011 19.8791C7.19607 19.444 6.88554 19.0849 6.46325 18.9667C6.04097 18.8495 5.58937 18.996 5.31825 19.3395C5.04618 19.683 5.00681 20.1566 5.2184 20.5404L5.2248 20.5313ZM15.1377 2.40432C14.3472 2.01226 13.3836 1.6422 12.6994 2.26875H12.6985C12.4255 2.50965 12.2726 2.85865 12.279 3.22231V5.8018C13.1538 5.8018 13.0127 5.7102 13.3296 6.68391L14.0194 6.96971C14.4343 6.75903 14.7769 6.4824 15.0188 6.73522L16.2316 7.94527C16.4661 8.17977 16.194 8.53426 15.9971 8.94647L16.27 9.61516C16.7106 9.75806 17.1494 9.80752 17.1494 10.1474V11.8612C17.1494 12.201 16.7106 12.2505 16.27 12.3934L15.9842 13.0832C16.1949 13.4981 16.4697 13.8407 16.2187 14.0825L15.0059 15.2953C14.7714 15.5298 14.4197 15.2605 14.0066 15.0489L13.3168 15.3347C13.1712 15.7781 13.1245 16.2141 12.7819 16.2141H12.2662V17.8977C12.2295 19.3706 13.9974 20.8217 15.8359 19.6986C16.8298 19.0913 16.5907 18.5875 17.0084 18.5398C17.6038 18.4574 18.1223 18.0901 18.398 17.556C18.6747 17.0211 18.6737 16.3863 18.3971 15.8532C18.3531 15.768 18.3476 15.6691 18.3806 15.5793C18.4145 15.4895 18.4841 15.419 18.573 15.3842C19.609 14.9106 20.1064 13.7189 19.7125 12.6499C19.1427 13.1904 18.388 13.4917 17.602 13.4917C17.4142 13.4917 17.2622 13.3388 17.2622 13.151C17.2622 12.9632 17.4142 12.8112 17.602 12.8112C18.519 12.8084 19.3544 12.2844 19.7565 11.46C20.1586 10.6356 20.0569 9.6546 19.4945 8.93004C19.3727 8.77524 19.4524 8.59478 19.4524 8.31814C19.4505 7.45892 18.9898 6.66566 18.2441 6.23789C17.4994 5.8092 16.5825 5.81194 15.8387 6.24338C15.6784 6.32491 15.4814 6.2672 15.3907 6.11148C15.3 5.95576 15.3458 5.75698 15.4961 5.65714C16.0136 5.35301 16.609 5.20828 17.2081 5.23945C17.5021 4.86939 17.5983 4.38022 17.4673 3.9268C17.3354 3.47245 16.9928 3.11062 16.5467 2.95492C16.1006 2.7992 15.6069 2.86973 15.2213 3.1427C14.8366 3.41659 14.6076 3.85994 14.6076 4.33168C14.6076 4.51946 14.4555 4.67243 14.2677 4.67243C14.0799 4.67243 13.9279 4.51945 13.9279 4.33168C13.927 3.51002 14.3976 2.76066 15.1377 2.40432Z" fill="white"/>
</svg>
