<svg width="20" height="20" viewBox="0 0 20 20" fill="none" xmlns="http://www.w3.org/2000/svg">
<path d="M9.99999 3.44824C6.38618 3.44824 3.44812 6.38608 3.44812 10.0001C3.44812 13.6141 6.38596 16.552 9.99999 16.552C13.614 16.552 16.5519 13.6141 16.5519 10.0001C16.5519 6.38608 13.614 3.44824 9.99999 3.44824ZM10.2414 12.1379C10.1103 12.2759 9.88964 12.2759 9.75862 12.1379C9.62069 12.0069 9.62069 11.7862 9.75862 11.6552C9.88966 11.5173 10.1104 11.5173 10.2414 11.6552C10.3793 11.7862 10.3793 12.0069 10.2414 12.1379ZM11.7035 10.6759C11.6414 10.7448 11.5517 10.7793 11.4621 10.7793C11.3724 10.7793 11.2897 10.7448 11.2207 10.6759C10.5655 10.0276 9.43445 10.0276 8.77939 10.6759C8.64836 10.8138 8.42766 10.8138 8.29663 10.6759C8.1587 10.5448 8.1587 10.3241 8.29663 10.1931C9.20698 9.27587 10.7931 9.27587 11.7037 10.1931C11.8416 10.3241 11.8414 10.5448 11.7035 10.6759ZM13.1724 9.21379C13.1035 9.28276 13.0138 9.31724 12.9241 9.31724C12.8345 9.31724 12.7517 9.28276 12.6828 9.21379C11.9655 8.49655 11.0138 8.10345 10 8.10345C8.98629 8.10345 8.03452 8.49655 7.31732 9.21379C7.18628 9.35172 6.96558 9.35172 6.82765 9.21379C6.69661 9.08276 6.69661 8.86205 6.82765 8.72412C7.67594 7.88274 8.80007 7.41377 10.0001 7.41377C11.2001 7.41377 12.3242 7.88274 13.1725 8.72412C13.3035 8.86205 13.3035 9.08274 13.1724 9.21379Z" fill="white"/>
<path d="M9.65524 2.0069V2.41381C9.65524 2.60432 9.80955 2.75864 10.0001 2.75864C10.1906 2.75864 10.3449 2.60432 10.3449 2.41381V2.0069C10.7449 1.86896 11.0346 1.48276 11.0346 1.03449C11.0346 0.46206 10.5725 0 10.0001 0C9.42766 0 8.96558 0.462082 8.96558 1.03449C8.96558 1.48276 9.25523 1.86896 9.65524 2.0069ZM10.0001 0.689637C10.1932 0.689637 10.3449 0.841362 10.3449 1.03447C10.3449 1.22757 10.1932 1.3793 10.0001 1.3793C9.80696 1.3793 9.65524 1.22757 9.65524 1.03447C9.65524 0.841362 9.80696 0.689637 10.0001 0.689637Z" fill="white"/>
<path d="M15.3647 4.98031C15.4526 4.98031 15.5414 4.94669 15.6087 4.87945L15.8958 4.59237L15.8966 4.59324C16.0346 4.6622 16.1863 4.69669 16.338 4.69669C16.607 4.69669 16.869 4.59324 17.069 4.39324C17.476 3.98633 17.476 3.33116 17.069 2.93116C16.669 2.52425 16.0139 2.52425 15.607 2.93116C15.2966 3.24149 15.2276 3.71046 15.4139 4.09667C15.4139 4.09753 15.4147 4.09753 15.4147 4.0984L15.1208 4.39236C14.9863 4.52684 14.9863 4.74495 15.1208 4.88028C15.188 4.94752 15.2759 4.98114 15.3647 4.98114L15.3647 4.98031ZM16.0966 3.41391C16.1656 3.35184 16.2483 3.31736 16.338 3.31736C16.4277 3.31736 16.5173 3.35184 16.5863 3.41391C16.7173 3.55185 16.7173 3.77254 16.5863 3.90358C16.4483 4.04151 16.2277 4.04151 16.0966 3.90358C15.9587 3.77255 15.9587 3.55185 16.0966 3.41391Z" fill="white"/>
<path d="M18.9655 8.96582C18.5172 8.96582 18.131 9.25548 17.9931 9.65548H17.5862C17.3956 9.65548 17.2413 9.80979 17.2413 10.0003C17.2413 10.1908 17.3956 10.3451 17.5862 10.3451H17.9931C18.131 10.7451 18.5172 11.0348 18.9655 11.0348C19.5379 11.0348 20 10.5727 20 10.0003C20 9.4279 19.5379 8.96582 18.9655 8.96582ZM18.9655 10.3451C18.7724 10.3451 18.6207 10.1934 18.6207 10.0003C18.6207 9.8072 18.7724 9.65548 18.9655 9.65548C19.1586 9.65548 19.3103 9.8072 19.3103 10.0003C19.3103 10.1934 19.1586 10.3451 18.9655 10.3451Z" fill="white"/>
<path d="M15.9034 15.4135C15.9025 15.4135 15.9025 15.4144 15.9017 15.4144L15.6077 15.1204C15.4732 14.9859 15.2551 14.9859 15.1198 15.1204C14.9853 15.2549 14.9853 15.473 15.1198 15.6083L15.4137 15.9023C15.4137 15.9031 15.4129 15.9031 15.4129 15.904C15.2267 16.2902 15.2956 16.7592 15.606 17.0695C15.806 17.2695 16.075 17.373 16.337 17.373C16.606 17.373 16.8681 17.2695 17.0681 17.0695C17.475 16.6695 17.475 16.0144 17.0681 15.6074C16.7577 15.2971 16.2888 15.2281 15.9026 15.4143L15.9034 15.4135ZM16.5862 16.5859C16.4482 16.7169 16.2275 16.7169 16.0965 16.5859C15.9586 16.448 15.9586 16.2273 16.0965 16.0962C16.1655 16.0273 16.2482 15.9928 16.3379 15.9928C16.4276 15.9928 16.5172 16.0273 16.5862 16.0962C16.7172 16.2273 16.7172 16.448 16.5862 16.5859Z" fill="white"/>
<path d="M10.3446 17.993V17.586C10.3446 17.3955 10.1903 17.2412 9.99982 17.2412C9.8093 17.2412 9.65499 17.3955 9.65499 17.586V17.993C9.25499 18.1309 8.96533 18.5171 8.96533 18.9654C8.96533 19.5378 9.42741 19.9998 9.99982 19.9998C10.5722 19.9998 11.0343 19.5378 11.0343 18.9654C11.0343 18.5171 10.7447 18.1309 10.3446 17.993ZM9.99982 19.3102C9.80672 19.3102 9.65499 19.1585 9.65499 18.9654C9.65499 18.7723 9.80672 18.6206 9.99982 18.6206C10.1929 18.6206 10.3446 18.7723 10.3446 18.9654C10.3446 19.1585 10.1929 19.3102 9.99982 19.3102Z" fill="white"/>
<path d="M4.39211 15.1212L4.09815 15.4152C4.09729 15.4152 4.09729 15.4143 4.09643 15.4143C3.71022 15.2281 3.24125 15.2971 2.93091 15.6074C2.524 16.0144 2.524 16.6695 2.93091 17.0695C3.13092 17.2695 3.393 17.373 3.66195 17.373C3.92402 17.373 4.19298 17.2695 4.39299 17.0695C4.70333 16.7592 4.77232 16.2902 4.5861 15.904C4.5861 15.9031 4.58523 15.9031 4.58523 15.9023L4.87919 15.6083C5.01368 15.4738 5.01368 15.2557 4.87919 15.1204C4.74471 14.9859 4.5266 14.9859 4.39127 15.1204L4.39211 15.1212ZM3.90333 16.5868C3.77229 16.7178 3.55159 16.7178 3.41366 16.5868C3.28262 16.4488 3.28262 16.2281 3.41366 16.0971C3.48262 16.0281 3.57228 15.9936 3.66193 15.9936C3.75159 15.9936 3.83435 16.0281 3.90333 16.0971C4.04126 16.2281 4.04126 16.4488 3.90333 16.5868Z" fill="white"/>
<path d="M2.75864 10.0003C2.75864 9.80979 2.60432 9.65548 2.41381 9.65548H2.0069C1.86896 9.25548 1.48276 8.96582 1.03449 8.96582C0.46206 8.96582 0 9.4279 0 10.0003C0 10.5727 0.462082 11.0348 1.03449 11.0348C1.48276 11.0348 1.86896 10.7451 2.0069 10.3451H2.41381C2.60432 10.3451 2.75864 10.1908 2.75864 10.0003ZM1.03449 10.3451C0.841384 10.3451 0.689659 10.1934 0.689659 10.0003C0.689659 9.8072 0.841384 9.65548 1.03449 9.65548C1.22759 9.65548 1.37932 9.8072 1.37932 10.0003C1.37932 10.1934 1.22759 10.3451 1.03449 10.3451Z" fill="white"/>
<path d="M3.66193 4.69654C3.81365 4.69654 3.96538 4.66206 4.10331 4.59309L4.10417 4.59223L4.39125 4.8793C4.45849 4.94655 4.54642 4.98017 4.63522 4.98017C4.72315 4.98017 4.81194 4.94655 4.87919 4.8793C5.01368 4.74482 5.01368 4.52671 4.87919 4.39138L4.58523 4.09742C4.58523 4.09656 4.5861 4.09656 4.5861 4.09569C4.7723 3.70949 4.70334 3.24052 4.39299 2.93018C3.98608 2.52327 3.33092 2.52327 2.93091 2.93018C2.524 3.33018 2.524 3.98535 2.93091 4.39226C3.13092 4.59226 3.393 4.69571 3.66195 4.69571L3.66193 4.69654ZM3.41365 3.41377C3.48262 3.35171 3.57227 3.31722 3.66193 3.31722C3.75158 3.31722 3.83434 3.35171 3.90332 3.41377C4.04125 3.55171 4.04125 3.7724 3.90332 3.90344C3.77228 4.04138 3.55158 4.04138 3.41365 3.90344C3.28262 3.77241 3.28262 3.55171 3.41365 3.41377Z" fill="white"/>
</svg>
