<svg width="20" height="20" viewBox="0 0 20 20" fill="none" xmlns="http://www.w3.org/2000/svg">
<path d="M1.25052 12.922C1.01709 12.922 0.833681 13.1096 0.833681 13.3389V14.6644C0.345977 14.8395 0 15.298 0 15.8399C0 16.5277 0.558566 17.0905 1.25052 17.0905C1.93831 17.0905 2.50104 16.5277 2.50104 15.8399C2.50104 15.298 2.1509 14.8395 1.66736 14.6644V13.7557H3.74739V15.4273C3.74739 15.6565 3.93497 15.8441 4.16423 15.8441H7.07795V18.341H5.33556C5.16465 17.8574 4.70613 17.5073 4.16423 17.5073C3.47228 17.5073 2.91371 18.07 2.91371 18.7578C2.91371 19.4456 3.47228 20.0083 4.16423 20.0083C4.70613 20.0083 5.16465 19.6582 5.33556 19.1747H7.49479C7.72405 19.1747 7.91163 18.9871 7.91163 18.7578V15.8441H12.08V18.7578C12.08 18.9871 12.2676 19.1747 12.4969 19.1747H14.6561C14.8312 19.6582 15.2897 20.0083 15.8316 20.0083C16.5194 20.0083 17.0821 19.4456 17.0821 18.7578C17.0821 18.07 16.5194 17.5073 15.8316 17.5073C15.2897 17.5073 14.8312 17.8574 14.6561 18.341H12.9137V15.8441H15.8358C16.065 15.8441 16.2526 15.6565 16.2526 15.4273V13.7557H18.3326V14.6644C17.8491 14.8395 17.499 15.298 17.499 15.8399C17.499 16.5277 18.0617 17.0905 18.7495 17.0905C19.4373 17.0905 20 16.5277 20 15.8399C20 15.298 19.6499 14.8395 19.1663 14.6644V13.3389C19.1663 13.1096 18.9787 12.922 18.7495 12.922H16.2526V10.4252H17.574C17.7491 10.9087 18.2076 11.2589 18.7495 11.2589C19.4373 11.2589 20 10.6961 20 10.0083C20 9.31638 19.4373 8.75782 18.7495 8.75782C18.2076 8.75782 17.7491 9.10796 17.574 9.5915H16.2526V7.08629H18.7495C18.9787 7.08629 19.1663 6.89871 19.1663 6.66945V5.31471C19.6499 5.14381 20 4.68529 20 4.14339C20 3.45144 19.4373 2.89287 18.7495 2.89287C18.0617 2.89287 17.499 3.45144 17.499 4.14339C17.499 4.68529 17.8491 5.14381 18.3326 5.31471V6.2526H16.2526V4.58941C16.2526 4.36015 16.065 4.17257 15.8358 4.17257H12.9137V1.66736H14.6561C14.8312 2.1509 15.2897 2.50104 15.8316 2.50104C16.5194 2.50104 17.0821 1.93831 17.0821 1.25052C17.0821 0.562734 16.5194 0 15.8316 0C15.2897 0 14.8312 0.350146 14.6561 0.833681H12.4969C12.2676 0.833681 12.08 1.02126 12.08 1.25052V4.17257H7.91163V1.25052C7.91163 1.02126 7.72405 0.833681 7.49479 0.833681H5.33556C5.16465 0.350146 4.70613 0 4.16423 0C3.47228 0 2.91371 0.562734 2.91371 1.25052C2.91371 1.93831 3.47228 2.50104 4.16423 2.50104C4.70613 2.50104 5.16465 2.1509 5.33556 1.66736H7.07795V4.17257H4.16423C3.93497 4.17257 3.74739 4.36015 3.74739 4.58941V6.2526H1.66736V5.31471C2.1509 5.14381 2.50104 4.68529 2.50104 4.14339C2.50104 3.45144 1.93831 2.89287 1.25052 2.89287C0.558566 2.89287 0 3.45144 0 4.14339C0 4.68529 0.345977 5.14381 0.833681 5.31471V6.66945C0.833681 6.89871 1.01709 7.08629 1.25052 7.08629H3.74739V9.5915H2.42184C2.25094 9.10796 1.79241 8.75782 1.25052 8.75782C0.558566 8.75782 0 9.31638 0 10.0083C0 10.6961 0.558566 11.2589 1.25052 11.2589C1.79241 11.2589 2.25094 10.9087 2.42184 10.4252H3.74739V12.922H1.25052ZM6.05252 10.321C5.95665 10.0584 5.90246 9.78324 5.90246 9.50396C5.90246 8.17007 6.96957 7.08629 8.28262 7.08629C8.92872 7.08629 9.5123 7.34889 9.93747 7.77407C10.1876 7.65319 10.4544 7.58649 10.7336 7.58649C11.4589 7.58649 12.0884 7.995 12.4052 8.62026C12.501 8.59942 12.5969 8.58691 12.697 8.58691C13.4681 8.58691 14.0934 9.22468 14.0934 10.0042C14.0934 10.1376 14.0684 10.2626 14.035 10.3877C14.3685 10.6461 14.5852 11.0504 14.5852 11.5048C14.5852 12.2843 13.9558 12.922 13.1847 12.922H12.4635C12.105 12.6511 11.4589 11.8633 11.4589 11.6715C11.4589 11.4423 11.2714 11.2547 11.0421 11.2547C10.8128 11.2547 10.6253 11.4423 10.6253 11.6715C10.6253 11.9925 10.9129 12.4844 11.288 12.922H9.09962C8.85369 12.5969 8.54106 11.8508 8.54106 11.6715C8.54106 11.4423 8.35348 11.2547 8.12422 11.2547C7.89496 11.2547 7.70738 11.4423 7.70738 11.6715C7.70738 11.9842 7.89079 12.4802 8.16173 12.922H6.81117C6.04002 12.922 5.41476 12.2843 5.41476 11.5048C5.41476 11.0088 5.66903 10.5711 6.05252 10.321Z" fill="white"/>
</svg>
