<svg width="20" height="26" viewBox="0 0 20 26" fill="none" xmlns="http://www.w3.org/2000/svg">
<path d="M0 4.28809V21.4266H20V4.28809H0ZM2.85781 5.23666C3.74057 5.23666 4.49026 5.84837 4.70287 6.66789H8.15586C8.36848 5.84837 9.11724 5.23666 10 5.23666C10.8828 5.23666 11.6325 5.84837 11.8451 6.66789H15.2981C15.5107 5.84837 16.2594 5.23666 17.1422 5.23666C18.1884 5.23666 19.0477 6.09594 19.0477 7.14217C19.0477 8.18841 18.1884 9.04676 17.1422 9.04676C16.2608 9.04676 15.5129 8.4378 15.299 7.62018H13.4381C14.8611 8.47769 15.9187 9.84347 16.3917 11.4405C17.3442 11.5421 18.0954 12.3531 18.0954 13.3311C18.0954 14.3774 17.2361 15.2367 16.1899 15.2367C15.1437 15.2367 14.2844 14.3774 14.2844 13.3311C14.2844 12.5512 14.7621 11.8781 15.4385 11.5856C14.8835 9.8579 13.5273 8.46289 11.7493 7.89266C11.4558 8.56915 10.78 9.04676 10 9.04676C9.22029 9.04676 8.54527 8.56967 8.25165 7.89359C6.47389 8.46358 5.11453 9.8569 4.55873 11.5837C5.23681 11.8755 5.71562 12.55 5.71561 13.3311C5.71561 14.3774 4.85726 15.2367 3.81103 15.2367C2.7648 15.2367 1.90552 14.3774 1.90551 13.3311C1.90551 12.3529 2.65636 11.5418 3.60923 11.4405C4.08249 9.84321 5.14026 8.47747 6.56375 7.62018H4.70194C4.48801 8.4378 3.73921 9.04676 2.85781 9.04676C1.81157 9.04676 0.953222 8.18841 0.953222 7.14217C0.953222 6.09594 1.81157 5.23666 2.85781 5.23666ZM2.85781 6.18895C2.32623 6.18895 1.90551 6.6106 1.90551 7.14217C1.90551 7.67375 2.32623 8.09447 2.85781 8.09447C3.38938 8.09447 3.81103 7.67375 3.81103 7.14217C3.81103 6.6106 3.38938 6.18895 2.85781 6.18895ZM10 6.18895C9.46842 6.18895 9.04771 6.6106 9.04771 7.14217C9.04771 7.67375 9.46842 8.09447 10 8.09447C10.5316 8.09447 10.9532 7.67375 10.9532 7.14217C10.9532 6.6106 10.5316 6.18895 10 6.18895ZM17.1422 6.18895C16.6106 6.18895 16.1899 6.6106 16.1899 7.14217C16.1899 7.67375 16.6106 8.09447 17.1422 8.09447C17.6738 8.09447 18.0954 7.67375 18.0954 7.14217C18.0954 6.6106 17.6738 6.18895 17.1422 6.18895ZM10 9.99905C10.0673 9.99939 10.1337 10.014 10.195 10.0419C10.2562 10.0698 10.3108 10.1103 10.3552 10.1609L14.1653 14.4462C14.219 14.507 14.2562 14.5806 14.2735 14.6598C14.2907 14.7391 14.2874 14.8214 14.2639 14.8991L12.8364 19.6587C12.8071 19.757 12.7469 19.8433 12.6646 19.9046C12.5823 19.966 12.4824 19.9991 12.3798 19.9991H7.62113C7.51834 19.9993 7.41824 19.9663 7.33577 19.9049C7.2533 19.8436 7.1929 19.7572 7.16358 19.6587L5.73328 14.8991C5.71027 14.8211 5.70759 14.7386 5.72549 14.6593C5.7434 14.58 5.7813 14.5067 5.83558 14.4462L9.64568 10.1609C9.69 10.1104 9.74447 10.07 9.80554 10.0421C9.8666 10.0142 9.93287 9.99952 10 9.99905ZM10.4743 11.7279V14.2844H9.52199V11.7325L6.72464 14.8777L7.97173 19.0468H12.0246L13.2763 14.8777L10.4743 11.7279ZM3.81103 12.3789C3.27945 12.3789 2.85781 12.7996 2.85781 13.3311C2.85781 13.8627 3.27945 14.2844 3.81103 14.2844C4.34261 14.2844 4.76332 13.8627 4.76332 13.3311C4.76332 12.7996 4.34261 12.3789 3.81103 12.3789ZM16.1899 12.3789C15.6583 12.3789 15.2376 12.7996 15.2376 13.3311C15.2376 13.8627 15.6583 14.2844 16.1899 14.2844C16.7215 14.2844 17.1422 13.8627 17.1422 13.3311C17.1422 12.7996 16.7215 12.3789 16.1899 12.3789Z" fill="white"/>
<path d="M0 22.3789V23.3312C0 23.3312 0.00563572 23.947 0.305961 24.5476C0.606287 25.1483 1.18421 25.7147 2.3798 25.7147H17.6165C18.816 25.7147 19.39 25.1483 19.6903 24.5476C19.9906 23.947 20 23.3312 20 23.3312V22.3789H0ZM8.09542 23.3312H11.9055V24.2835H8.09542V23.3312Z" fill="white"/>
<path d="M2.3798 0C1.18309 0 0.606287 0.566465 0.305961 1.16712C0.00563762 1.76777 0 2.38259 0 2.38259V3.33581H20V2.38259C20 1.17852 19.4335 0.609077 18.8329 0.308751C18.2322 0.00842351 17.6165 0 17.6165 0H2.3798ZM7.14219 1.4303H9.04771V2.38259H7.14219V1.4303ZM10 1.4303H13.8101V2.38259H10V1.4303Z" fill="white"/>
</svg>
