<svg width="19" height="22" viewBox="0 0 19 22" fill="none" xmlns="http://www.w3.org/2000/svg">
<path d="M9.40763 21.2026C9.1237 21.2026 8.84171 21.1281 8.59278 20.9848L5.99903 19.4492C5.61164 19.2325 5.80067 19.1559 5.92844 19.1117C6.44497 18.9309 6.54979 18.89 7.10114 18.5769C7.15909 18.5439 7.23494 18.5555 7.29425 18.5905L9.28686 19.773C9.35882 19.8119 9.46092 19.8119 9.52763 19.773L17.297 15.2883C17.3689 15.2475 17.4156 15.1639 17.4156 15.0783V6.1129C17.4156 6.02344 17.3689 5.9437 17.2954 5.89897L9.52918 1.41822C9.45723 1.37544 9.36193 1.37544 9.28998 1.41822L1.52528 5.89897C1.45002 5.94176 1.40218 6.02538 1.40218 6.11095V15.0763C1.40218 15.1619 1.44885 15.2436 1.52276 15.2844L3.65034 16.5135C4.80553 17.0911 5.51148 16.4105 5.51148 15.7259V6.87719C5.51148 6.75078 5.61066 6.65355 5.73707 6.65355H6.72113C6.84365 6.65355 6.94478 6.75078 6.94478 6.87719V15.7298C6.94478 17.2701 6.10464 18.1549 4.64411 18.1549C4.19487 18.1549 3.84092 18.1549 2.85298 17.6687L0.814859 16.4941C0.311164 16.2024 0 15.6578 0 15.0763V6.11095C0 5.52752 0.311164 4.98299 0.814859 4.69516L8.592 0.208577C9.08403 -0.0695255 9.73747 -0.0695255 10.2256 0.208577L17.993 4.69711C18.4948 4.98688 18.8079 5.52947 18.8079 6.1129V15.0783C18.8079 15.6598 18.4948 16.2024 17.993 16.4941L10.2256 20.9807C9.97667 21.1246 9.69468 21.1985 9.40686 21.1985" fill="white"/>
<path d="M11.8074 15.0247C8.40795 15.0247 7.69519 13.4642 7.69519 12.1553C7.69519 12.0309 7.79554 11.9317 7.9202 11.9317H8.9237C9.03455 11.9317 9.1279 12.0124 9.14541 12.1219C9.2971 13.1445 9.74828 13.6602 11.8039 13.6602C13.4414 13.6602 14.1376 13.2903 14.1376 12.422C14.1376 11.9222 13.9393 11.5507 11.3955 11.3018C9.26793 11.0917 7.95326 10.6231 7.95326 8.92139C7.95326 7.3539 9.27571 6.42041 11.4908 6.42041C13.9782 6.42041 15.2111 7.28389 15.3667 9.1392C15.3726 9.20338 15.3492 9.26561 15.3064 9.31228C15.2637 9.35701 15.2034 9.38424 15.1411 9.38424H14.1318C14.0268 9.38424 13.9354 9.31034 13.914 9.20921C13.6709 8.13375 13.0836 7.78953 11.4869 7.78953C9.69967 7.78953 9.49158 8.41186 9.49158 8.8786C9.49158 9.44453 9.73662 9.60983 12.1481 9.92878C14.5363 10.2458 15.6701 10.6931 15.6701 12.3714C15.6701 14.0634 14.2582 15.0338 11.7961 15.0338" fill="white"/>
</svg>
