<svg width="20" height="19" viewBox="0 0 20 19" fill="none" xmlns="http://www.w3.org/2000/svg">
<path fill-rule="evenodd" clip-rule="evenodd" d="M11.0909 10.1626C10.5726 9.64431 9.76031 9.56445 9.1513 9.97196C8.54139 10.3786 8.30451 11.1591 8.58496 11.8362C8.8654 12.5133 9.58514 12.8981 10.304 12.7556C11.0228 12.6122 11.5401 11.9814 11.5401 11.2489C11.541 10.8414 11.3786 10.4503 11.0909 10.1626ZM2.37599 9.93021H2.37508C1.62086 9.38564 1.22696 8.46987 1.35039 7.54773C1.47473 6.62468 2.09643 5.84507 2.96773 5.51922C3.1066 5.46749 3.18011 5.31592 3.13473 5.17523C2.78349 4.08882 3.24273 2.90441 4.23566 2.3399C5.22767 1.77446 6.48109 1.98504 7.23526 2.84182C7.30424 2.92078 7.41134 2.95345 7.51208 2.92804C7.61373 2.90172 7.69179 2.82185 7.71447 2.71929C8.04394 1.66011 8.81269 0.792435 9.82646 0.338661C10.8394 -0.116042 11.9984 -0.112417 13.0085 0.34683C14.0195 0.806087 14.7837 1.67739 15.1078 2.73931C15.1486 2.87363 15.2838 2.95622 15.4227 2.93081C16.441 2.74203 17.4685 3.21581 17.9867 4.11251C17.9894 4.11704 17.9921 4.12158 17.9948 4.12521V4.12612C18.504 5.02103 18.3978 6.1401 17.728 6.92242C17.6282 7.03859 17.6418 7.21376 17.7579 7.3136C17.7788 7.33084 17.8015 7.34536 17.826 7.35625C18.3443 7.62854 18.6719 8.16222 18.681 8.74762C18.6901 9.33301 18.3778 9.87668 17.8678 10.1644C17.8505 10.0419 17.7534 9.94567 17.63 9.92933L15.9473 9.69699C15.8066 9.15151 15.5897 8.62873 15.3038 8.14317L16.3221 6.79992V6.80083C16.4147 6.6901 16.4074 6.52673 16.3058 6.42508L15.567 5.68538L14.8282 4.94658C14.7302 4.84947 14.5759 4.83949 14.4652 4.92208L13.1092 5.94949H13.1101C12.6246 5.66359 12.1018 5.44667 11.5572 5.3051L11.3249 3.6224C11.3058 3.48535 11.1887 3.3828 11.0508 3.3828H8.95872C8.81986 3.3828 8.70277 3.48536 8.68372 3.62333L8.45137 5.30603C7.9068 5.44762 7.38401 5.66454 6.89845 5.94952L5.55612 4.93119C5.44539 4.83861 5.28292 4.84496 5.18036 4.94662L3.70278 6.4242V6.42511C3.60475 6.52313 3.59386 6.67742 3.67736 6.78815L4.70478 8.14411V8.1432C4.41888 8.62876 4.20196 9.15154 4.06039 9.69702L2.37768 9.92937H2.37496L2.37599 9.93021ZM6.0889 10.9712L2.69175 10.9722V10.4448L4.3218 10.2207C4.43979 10.2043 4.53418 10.1154 4.55687 9.99921C4.69755 9.38839 4.93987 8.80481 5.27387 8.27475C5.33468 8.17673 5.32923 8.05148 5.26026 7.95981L4.26553 6.64742L5.40185 5.5111L6.71424 6.50582V6.50492C6.81044 6.57843 6.94295 6.58025 7.04189 6.51036C7.30419 6.34609 7.5801 6.2036 7.86691 6.08561C8.15644 5.9649 8.45596 5.8696 8.76182 5.79971C8.87527 5.77429 8.96149 5.68081 8.97602 5.56555L9.20019 3.9373H10.8085L11.0336 5.56736H11.0327C11.049 5.68535 11.137 5.77974 11.2541 5.80242C11.5573 5.8714 11.854 5.96579 12.1417 6.08561C12.4322 6.20541 12.7126 6.35062 12.9786 6.51854C13.0757 6.57935 13.2009 6.57481 13.2926 6.50493L14.605 5.5102L15.1732 6.07836L15.7431 6.64743L14.7484 7.95982C14.6758 8.05602 14.674 8.18853 14.7439 8.28654C15.0751 8.81657 15.3147 9.39744 15.4536 10.0064C15.479 10.1199 15.5734 10.2052 15.6887 10.2206L17.3169 10.4448V10.9712H13.9207C13.8245 9.63885 13.0576 8.44724 11.8849 7.80735C10.7132 7.16749 9.29544 7.16749 8.12371 7.80735C6.95108 8.44721 6.18415 9.6389 6.08796 10.9712L6.0889 10.9712ZM16.9374 11.5267L16.9365 15.757L18.1872 16.4795V16.4786C18.5647 16.1028 19.1629 16.0647 19.5849 16.3906C20.0078 16.7155 20.124 17.3027 19.8572 17.7647C19.5903 18.2257 19.0231 18.4182 18.5303 18.2148C18.0383 18.0115 17.7724 17.4742 17.9095 16.9587L16.5372 16.1673C16.4419 16.121 16.3811 16.0239 16.3811 15.9177V11.5268L16.9374 11.5267ZM3.62834 11.5267L3.62743 15.9169C3.62743 16.0231 3.56662 16.1202 3.47132 16.1665L2.09904 16.9588C2.23699 17.4762 1.97106 18.0162 1.47642 18.2213C0.981773 18.4264 0.411802 18.2331 0.143139 17.7693C-0.124594 17.3055 -0.00752406 16.7147 0.417239 16.3889C0.841992 16.0621 1.44194 16.1011 1.82131 16.4787L3.07199 15.7563V11.5268L3.62834 11.5267ZM6.05172 11.5267V13.4672H6.05081C6.56725 13.6069 6.90032 14.107 6.82955 14.6361C6.75966 15.1662 6.30767 15.5619 5.77309 15.5619C5.23941 15.5619 4.78743 15.1662 4.71663 14.6361C4.64674 14.107 4.97983 13.6069 5.49536 13.4672V11.5267H6.05172ZM14.6249 11.5267V13.4672C15.1404 13.6069 15.4735 14.1061 15.4027 14.6361C15.3328 15.1653 14.8808 15.561 14.3471 15.561C13.8126 15.561 13.3615 15.1653 13.2907 14.6361C13.2208 14.1061 13.553 13.6069 14.0685 13.4672V11.5267H14.6249ZM10.2828 13.3219V15.0918C10.7983 15.2316 11.1314 15.7316 11.0615 16.2608C10.9907 16.7899 10.5396 17.1856 10.005 17.1856C9.47045 17.1856 9.01937 16.7899 8.94858 16.2608C8.87869 15.7316 9.21178 15.2315 9.72731 15.0918V13.3219C9.91156 13.3465 10.0985 13.3465 10.2828 13.3219Z" fill="white"/>
</svg>
