<svg width="19" height="10" viewBox="0 0 19 10" fill="none" xmlns="http://www.w3.org/2000/svg">
<path fill-rule="evenodd" clip-rule="evenodd" d="M0 5C0 7.7614 4.25563 10 9.50502 10C14.7544 10 19.0101 7.7614 19.0101 5C19.0101 2.23864 14.7544 0 9.50502 0C4.25563 0 0 2.23864 0 5ZM5.65566 3.78588H5.07782L4.75044 5.47044H5.16415C5.55562 5.47044 5.84413 5.4012 6.02159 5.26458C6.19493 5.13112 6.31587 4.89346 6.38112 4.55827C6.43919 4.25886 6.42213 4.04764 6.33179 3.94746C6.27733 3.88713 6.11706 3.78588 5.65566 3.78588ZM3.97001 2.58263H6.069C6.75973 2.58263 7.27686 2.77363 7.60593 3.15036C7.7793 3.3488 7.89046 3.58686 7.93899 3.86245L8.41419 1.41753C8.43303 1.32062 8.51791 1.25062 8.61668 1.25062H9.69961C9.76121 1.25062 9.81959 1.27816 9.85878 1.32571C9.89797 1.37322 9.91382 1.43579 9.9021 1.49626L9.69091 2.5828H10.4054C11.0721 2.5828 11.5286 2.70446 11.8012 2.95477C11.9878 3.12635 12.0914 3.36117 12.111 3.65609L12.2872 2.74953C12.306 2.65262 12.3909 2.58263 12.4897 2.58263H14.5886C15.2794 2.58263 15.7965 2.77363 16.1256 3.15032C16.4579 3.53069 16.5616 4.05661 16.4339 4.71342C16.3824 4.97841 16.2937 5.2248 16.1703 5.44575C16.0469 5.66663 15.884 5.87081 15.6863 6.05271C15.4472 6.27634 15.177 6.43813 14.8833 6.53353C14.5978 6.62652 14.2337 6.67369 13.8011 6.67369H13.0363L12.8098 7.83895C12.791 7.93587 12.706 8.00586 12.6073 8.00586H11.5158C11.4542 8.00586 11.3958 7.97836 11.3566 7.93081C11.3175 7.88327 11.3016 7.82073 11.3133 7.76026L11.5314 6.63849C11.4982 6.66093 11.4583 6.67386 11.4159 6.67386H10.3157C10.2541 6.67386 10.1958 6.64636 10.1566 6.59881C10.1174 6.55127 10.1015 6.48873 10.1133 6.42826L10.544 4.21121C10.5864 3.99325 10.5608 3.89596 10.5412 3.87495C10.5385 3.872 10.471 3.80324 10.1491 3.80324H9.45363L8.92822 6.50695C8.90938 6.60386 8.82446 6.67386 8.72573 6.67386H7.6428C7.58119 6.67386 7.52282 6.64636 7.48363 6.59881C7.44443 6.55127 7.42855 6.48873 7.44031 6.42826L7.62139 5.49657C7.5019 5.69801 7.3491 5.88488 7.1666 6.05278C6.9275 6.27637 6.65735 6.43813 6.36372 6.53353C6.07821 6.62652 5.71407 6.67369 5.28152 6.67369H4.51663L4.29014 7.83895C4.2713 7.93587 4.18642 8.00586 4.08765 8.00586H2.99613C2.93452 8.00586 2.87615 7.97836 2.83695 7.93081C2.7978 7.88327 2.78191 7.82073 2.79367 7.76026L3.76755 2.74953C3.78639 2.65262 3.87127 2.58263 3.97001 2.58263ZM14.1753 3.78588H13.5974L13.2701 5.47044H13.6838C14.0752 5.47044 14.3637 5.4012 14.5412 5.26458C14.7145 5.13112 14.8355 4.89346 14.9007 4.55823C14.9588 4.25886 14.9418 4.04764 14.8514 3.94746C14.797 3.88713 14.6367 3.78588 14.1753 3.78588Z" fill="white"/>
</svg>
