<svg width="20" height="23" viewBox="0 0 20 23" fill="none" xmlns="http://www.w3.org/2000/svg">
<path d="M9.99529 22.1399C9.86738 22.1399 9.74132 22.1073 9.62929 22.0438C7.6797 20.9495 4.65361 19.2509 2.96151 18.2958C2.63564 18.5348 2.24162 18.6618 1.83732 18.658C1.07355 18.6524 0.390994 18.179 0.120219 17.4648C-0.150555 16.7505 0.0455221 15.9428 0.613221 15.4321C1.18185 14.9213 2.00539 14.813 2.68608 15.1585C3.3677 15.503 3.76638 16.2323 3.69075 16.9923C5.24725 17.8709 8.15777 19.504 9.9952 20.5357L15.0811 17.6795C15.4405 17.4834 15.8906 17.6132 16.0904 17.9699C16.2912 18.3266 16.167 18.7785 15.8122 18.983L10.3611 22.0438C10.249 22.1063 10.1232 22.1399 9.99529 22.1399ZM1.4657 16.8084C1.47037 17.0128 1.63937 17.1744 1.84385 17.1716C2.04833 17.1678 2.21174 16.9998 2.20892 16.7953C2.20425 16.5908 2.03525 16.4293 1.83078 16.433C1.62629 16.4358 1.46381 16.6039 1.4657 16.8084ZM9.99529 18.7766C9.86271 18.7766 9.73198 18.7421 9.61808 18.6749L4.40887 15.7486L4.40794 15.7477C4.17264 15.6161 4.02697 15.3667 4.02697 15.0969C4.03631 15.0549 4.0195 8.13415 4.0279 8.09495V8.07908L4.02884 8.08001C4.03817 7.93902 4.08766 7.80269 4.1717 7.68786L4.17543 7.68319L4.1773 7.68039L4.17823 7.67945L4.17917 7.67758L4.18103 7.67572C4.24266 7.59542 4.32016 7.52819 4.40793 7.4787L9.62933 4.54579V4.54486C9.85715 4.41787 10.1345 4.41787 10.3614 4.54486C10.3707 4.55046 15.5828 7.47849 15.5911 7.48231L15.5949 7.48418H15.5958C15.5958 7.48511 15.5911 7.48605 15.5977 7.48511L15.5986 7.48605L15.5967 7.48698C15.6668 7.52806 15.7293 7.57942 15.7816 7.64011L15.7835 7.64291H15.7844L15.7863 7.64478L15.7853 7.64571L15.79 7.65038H15.7909L15.7937 7.65318H15.7947L15.8003 7.65878H15.8012C15.8012 7.65878 15.8012 7.65598 15.8021 7.66065L15.804 7.66252H15.8049L15.8059 7.66438H15.8068L15.8077 7.66625H15.8087L15.8115 7.66905L15.8124 7.67092L15.8143 7.67185L15.8152 7.67279L15.8162 7.67465H15.8171L15.819 7.67652L15.8124 7.67839L15.8143 7.68026H15.8152C15.8152 7.68026 15.8171 7.67746 15.8162 7.68212L15.8171 7.68306L15.818 7.68493L15.819 7.68586L15.8208 7.68679L15.8292 7.6952L15.8311 7.698L15.833 7.69987L15.8367 7.70547L15.8386 7.7064L15.8395 7.70827L15.8414 7.71107L15.8442 7.71387H15.8451V7.7148H15.846L15.8479 7.71667L15.8488 7.71854L15.8516 7.72134C15.8516 7.72134 15.8535 7.71947 15.8526 7.72321H15.8535L15.8544 7.72508L15.8563 7.72694L15.8572 7.72881L15.8591 7.73161L15.86 7.73348L15.8619 7.73535L15.8628 7.73721H15.8638L15.8647 7.73908L15.8656 7.74002L15.8666 7.74188L15.8675 7.74282L15.8684 7.74468L15.8694 7.74562L15.8703 7.74749L15.861 7.74842C15.9207 7.84926 15.9562 7.96317 15.9646 8.08082V8.08828L15.9655 8.09295C15.9749 8.10696 15.9609 15.0743 15.9665 15.0978L15.9655 15.0968C15.9655 15.3667 15.8199 15.616 15.5846 15.7486L10.3744 18.6748C10.2596 18.742 10.1288 18.7776 9.99529 18.7766ZM10.7423 11.5003V16.7535L14.4697 14.6592V9.40692L10.7423 11.5003ZM5.52087 14.6591L9.24832 16.7534V11.5012L5.52087 9.40685V14.6591ZM6.29865 8.1297L9.99527 10.2072L13.6919 8.13063L9.99527 6.05405L6.29865 8.1297ZM18.1541 18.6583C17.2783 18.6546 16.5239 18.0402 16.3437 17.184C16.1634 16.3268 16.607 15.4613 17.4072 15.1055V6.85511L12.3361 4.00084C11.9832 3.79542 11.8608 3.34444 12.0607 2.98869C12.2614 2.63294 12.7096 2.5041 13.0681 2.69925L18.5192 5.76841L18.5202 5.76747C18.7555 5.90006 18.9011 6.14844 18.9011 6.41922V15.1056C19.6985 15.4623 20.1402 16.3279 19.96 17.1831C19.7798 18.0384 19.0281 18.6527 18.1541 18.6583ZM17.7816 16.8086C17.7741 16.9076 17.8115 17.0056 17.8833 17.0738C17.9562 17.1429 18.0551 17.1765 18.1541 17.1644C18.2503 17.169 18.3455 17.1326 18.4156 17.0654C18.4856 16.9982 18.5248 16.9057 18.5248 16.8086C18.5248 16.7115 18.4856 16.6182 18.4156 16.5509C18.3455 16.4837 18.2503 16.4482 18.1541 16.4529C18.0551 16.4408 17.9562 16.4744 17.8833 16.5425C17.8115 16.6116 17.7741 16.7087 17.7816 16.8086ZM1.83744 14.4491C1.42473 14.4491 1.09047 14.1149 1.09047 13.7021V6.4191C1.10634 6.07642 1.32857 5.77763 1.65258 5.6656C2.96538 4.92608 6.54435 2.91124 8.13917 2.01559C8.09808 1.51324 8.26242 1.01558 8.59388 0.6365C8.92628 0.257421 9.39688 0.0286439 9.90014 0.00251775C10.4034 -0.0236275 10.8964 0.154714 11.2652 0.497384C11.635 0.84006 11.8497 1.31812 11.8609 1.8214C11.8535 2.52729 11.452 3.16875 10.8217 3.48528C10.1905 3.80087 9.43606 3.73738 8.86649 3.32094C7.3464 4.17342 4.02802 6.04183 2.58451 6.85502V13.7021C2.58451 13.9 2.50608 14.0905 2.36602 14.2305C2.22597 14.3706 2.03539 14.4491 1.83744 14.4491ZM9.71066 2.0857C9.93568 2.27431 10.3549 2.24723 10.368 1.82238C10.3306 1.19399 9.31757 1.48626 9.71066 2.0857Z" fill="white"/>
</svg>
