<svg width="20" height="20" viewBox="0 0 20 20" fill="none" xmlns="http://www.w3.org/2000/svg">
<path fill-rule="evenodd" clip-rule="evenodd" d="M0 5.22585V5.74251C0 6.20294 0.372907 6.57585 0.833333 6.57585H2.5V16.5758H0.833333C0.372907 16.5758 0 16.9488 0 17.4092V19.0758C0 19.5363 0.372907 19.9092 0.833333 19.9092H19.1667C19.6271 19.9092 20 19.5363 20 19.0758V17.4092C20 16.9488 19.6271 16.5758 19.1667 16.5758H17.5V6.57585H19.1667C19.6271 6.57585 20 6.20294 20 5.74251V5.22585C20 4.90502 19.8156 4.6123 19.5271 4.47377L10.3604 0.082032C10.1323 -0.027344 9.86771 -0.027344 9.6396 0.082032L0.472933 4.47377C0.1844 4.61231 0 4.90502 0 5.22585ZM5.83333 16.5757H8.33333V6.57571H5.83333V16.5757ZM14.1667 6.57571V16.5757H11.6667V6.57571H14.1667Z" fill="white"/>
</svg>
