<svg width="20" height="20" viewBox="0 0 20 20" fill="none" xmlns="http://www.w3.org/2000/svg">
<path fill-rule="evenodd" clip-rule="evenodd" d="M0 2.21591C0 0.992096 0.992096 0 2.21591 0H17.2841C18.5079 0 19.5 0.992096 19.5 2.21591V17.2841C19.5 18.5079 18.5079 19.5 17.2841 19.5H2.21591C0.992096 19.5 0 18.5079 0 17.2841V2.21591ZM2.21591 0.886364C1.48162 0.886364 0.886364 1.48162 0.886364 2.21591V17.2841C0.886364 18.0184 1.48162 18.6136 2.21591 18.6136H17.2841C18.0184 18.6136 18.6136 18.0184 18.6136 17.2841V2.21591C18.6136 1.48162 18.0184 0.886364 17.2841 0.886364H2.21591Z" fill="white"/>
<path d="M12.9027 14.8893C13.2549 15.45 13.7131 15.8621 14.5235 15.8621C15.2043 15.8621 15.6392 15.5304 15.6392 15.072C15.6392 14.5226 15.1923 14.3281 14.443 14.0085L14.0323 13.8366C12.8467 13.3441 12.059 12.7271 12.059 11.4228C12.059 10.2213 12.9979 9.30664 14.4652 9.30664C15.5098 9.30664 16.2608 9.66114 16.802 10.5893L15.5226 11.3903C15.2409 10.8978 14.937 10.7038 14.4652 10.7038C13.984 10.7038 13.679 11.0015 13.679 11.3903C13.679 11.8709 13.9843 12.0655 14.6892 12.3632L15.0999 12.5347C16.4959 13.1184 17.2841 13.7135 17.2841 15.0514C17.2841 16.4937 16.1221 17.2839 14.5615 17.2839C13.0357 17.2839 12.0499 16.5749 11.5675 15.6456L12.9027 14.8893ZM7.09876 15.0281C7.35687 15.4746 7.59166 15.8521 8.15615 15.8521C8.69594 15.8521 9.03647 15.6462 9.03647 14.8455V9.39811H10.6794V14.8671C10.6794 16.5259 9.682 17.2809 8.22609 17.2809C6.9106 17.2809 6.14878 16.6171 5.76135 15.8176L7.09876 15.0281Z" fill="white"/>
</svg>
