<svg width="20" height="22" viewBox="0 0 20 22" fill="none" xmlns="http://www.w3.org/2000/svg">
<path fill-rule="evenodd" clip-rule="evenodd" d="M2.28541 0.361922L0.361427 2.28565H1.91729C2.01474 2.2852 2.10807 2.2463 2.177 2.17742C2.24593 2.10854 2.28488 2.01524 2.28541 1.91779V0.361922ZM3.2261 7.5657C3.2741 7.61373 3.30105 7.67885 3.30103 7.74675C3.301 7.81465 3.27401 7.87975 3.22598 7.92775C3.17795 7.97574 3.11283 8.00269 3.04493 8.00267C2.97704 8.00264 2.91193 7.97565 2.86394 7.92762L1.7096 6.77329C1.6858 6.74951 1.66693 6.72128 1.65405 6.69021C1.64117 6.65914 1.63454 6.62584 1.63454 6.5922C1.63454 6.55857 1.64117 6.52526 1.65405 6.49419C1.66693 6.46312 1.6858 6.43489 1.7096 6.41112L2.86394 5.25678C2.88735 5.23168 2.91557 5.21155 2.94693 5.19758C2.97828 5.18361 3.01212 5.17609 3.04644 5.17547C3.08076 5.17484 3.11486 5.18112 3.1467 5.19394C3.17854 5.20676 3.20748 5.22586 3.23179 5.25008C3.2561 5.27431 3.27529 5.30319 3.28822 5.33498C3.30115 5.36678 3.30755 5.40085 3.30704 5.43517C3.30653 5.46949 3.29913 5.50336 3.28527 5.53476C3.27141 5.56616 3.25137 5.59446 3.22635 5.61796L2.25273 6.59158L3.22635 7.56496L3.2261 7.5657ZM6.08781 5.61796C6.0414 5.56964 6.01579 5.50506 6.01646 5.43807C6.01714 5.37107 6.04405 5.30702 6.09142 5.25965C6.13879 5.21227 6.20285 5.18536 6.26984 5.18469C6.33683 5.18401 6.40142 5.20963 6.44973 5.25604L7.60333 6.41013C7.62712 6.4339 7.646 6.46213 7.65888 6.4932C7.67176 6.52427 7.67839 6.55758 7.67839 6.59121C7.67839 6.62485 7.67176 6.65815 7.65888 6.68922C7.646 6.72029 7.62712 6.74852 7.60333 6.7723L6.44874 7.92762C6.39992 7.97114 6.33629 7.99432 6.27091 7.9924C6.20553 7.99048 6.14337 7.9636 6.09718 7.91729C6.051 7.87098 6.02429 7.80874 6.02255 7.74336C6.02081 7.67798 6.04416 7.61441 6.08781 7.5657L7.06119 6.59232L6.08781 5.61796ZM4.33712 8.77178C4.32846 8.80429 4.31348 8.83477 4.29303 8.86149C4.27259 8.88821 4.24708 8.91064 4.21796 8.9275C4.18885 8.94436 4.1567 8.95533 4.12335 8.95976C4.09 8.9642 4.0561 8.96202 4.0236 8.95336C3.95794 8.93586 3.90193 8.893 3.86787 8.8342C3.85101 8.80509 3.84005 8.77294 3.83561 8.73959C3.83118 8.70624 3.83335 8.67234 3.84202 8.63983L4.97457 4.41262C4.99207 4.34697 5.03493 4.29095 5.09373 4.2569C5.15252 4.22285 5.22244 4.21355 5.28809 4.23104C5.35375 4.24854 5.40976 4.2914 5.44382 4.3502C5.47787 4.409 5.48717 4.47892 5.46967 4.54457L4.33712 8.77178ZM1.89081 12.4061C1.82292 12.4061 1.75781 12.3791 1.70981 12.3311C1.66181 12.2831 1.63484 12.218 1.63484 12.1501C1.63484 12.0822 1.66181 12.0171 1.70981 11.9691C1.75781 11.9211 1.82292 11.8942 1.89081 11.8942H12.6061C12.674 11.8942 12.7391 11.9211 12.7871 11.9691C12.8351 12.0171 12.8621 12.0822 12.8621 12.1501C12.8621 12.218 12.8351 12.2831 12.7871 12.3311C12.7391 12.3791 12.674 12.4061 12.6061 12.4061H1.89081ZM8.53636 5.90462C8.46981 5.90255 8.40669 5.87467 8.36035 5.82687C8.31401 5.77907 8.2881 5.7151 8.2881 5.64853C8.2881 5.58196 8.31401 5.518 8.36035 5.4702C8.40669 5.42239 8.46981 5.39451 8.53636 5.39244H12.6061C12.6727 5.39451 12.7358 5.42239 12.7821 5.4702C12.8285 5.518 12.8544 5.58196 12.8544 5.64853C12.8544 5.7151 12.8285 5.77907 12.7821 5.82687C12.7358 5.87467 12.6727 5.90255 12.6061 5.90462H8.53636ZM8.53636 8.0717C8.46847 8.0717 8.40336 8.04473 8.35536 7.99673C8.30735 7.94872 8.28039 7.88362 8.28039 7.81573C8.28039 7.74784 8.30735 7.68274 8.35536 7.63473C8.40336 7.58673 8.46847 7.55976 8.53636 7.55976H12.6061C12.674 7.55976 12.7391 7.58673 12.7871 7.63473C12.8351 7.68274 12.8621 7.74784 12.8621 7.81573C12.8621 7.88362 12.8351 7.94872 12.7871 7.99673C12.7391 8.04473 12.674 8.0717 12.6061 8.0717H8.53636ZM1.89081 10.239C1.82426 10.237 1.76114 10.2091 1.7148 10.1613C1.66847 10.1135 1.64255 10.0495 1.64255 9.98293C1.64255 9.91636 1.66847 9.8524 1.7148 9.80459C1.76114 9.75679 1.82426 9.7289 1.89081 9.72684H12.6061C12.6727 9.7289 12.7358 9.75679 12.7821 9.80459C12.8285 9.8524 12.8544 9.91636 12.8544 9.98293C12.8544 10.0495 12.8285 10.1135 12.7821 10.1613C12.7358 10.2091 12.6727 10.237 12.6061 10.239H1.89081ZM15.272 16.2476L14.8633 16.4575V18.6098C14.8628 18.843 14.7699 19.0665 14.605 19.2315C14.44 19.3964 14.2165 19.4893 13.9833 19.4898H1.87942V20.9682C1.87981 21.0656 1.91869 21.159 1.9876 21.2279C2.0565 21.2968 2.14984 21.3357 2.24728 21.3361H15.8627C15.9601 21.3357 16.0535 21.2968 16.1224 21.2279C16.1913 21.159 16.2301 21.0656 16.2305 20.9682V14.873L15.3834 16.1543C15.3561 16.1955 15.3174 16.2279 15.272 16.2476ZM12.8297 14.7715L14.6658 15.9857L14.5123 16.0644C14.4974 16.0704 14.4831 16.0778 14.4697 16.0865L12.6673 17.0121L12.7032 16.517C12.7032 16.5078 12.7049 16.4986 12.7051 16.4892L12.8289 14.7712L12.8297 14.7715ZM14.3514 11.2156L12.47 14.0612H1.89081C1.82426 14.0633 1.76114 14.0912 1.7148 14.139C1.66847 14.1868 1.64255 14.2508 1.64255 14.3173C1.64255 14.3839 1.66847 14.4479 1.7148 14.4957C1.76114 14.5435 1.82426 14.5714 1.89081 14.5734H12.3313L12.2113 16.2286H1.89081C1.82292 16.2286 1.75781 16.2555 1.70981 16.3035C1.66181 16.3515 1.63484 16.4166 1.63484 16.4845C1.63484 16.5524 1.66181 16.6175 1.70981 16.6655C1.75781 16.7135 1.82292 16.7405 1.89081 16.7405H12.1741L12.1246 17.4284C12.1214 17.4753 12.1311 17.5221 12.1527 17.5638C12.1743 17.6055 12.2069 17.6405 12.2471 17.6648C12.2872 17.6892 12.3333 17.7021 12.3802 17.7021C12.4272 17.702 12.4732 17.6891 12.5133 17.6646L14.3516 16.7204V18.6098C14.3511 18.7072 14.3121 18.8005 14.2432 18.8694C14.1743 18.9383 14.0809 18.9772 13.9835 18.9776H0.368111C0.270665 18.9772 0.177336 18.9383 0.108407 18.8694C0.0394788 18.8005 0.000520741 18.7072 0 18.6098V2.79784H1.91779C2.15103 2.79732 2.37457 2.70443 2.5395 2.5395C2.70443 2.37457 2.79732 2.15103 2.79784 1.91779V0H13.9833C14.0807 0.000455188 14.174 0.0393503 14.243 0.108233C14.3119 0.177115 14.3508 0.270418 14.3514 0.367863V11.2156ZM17.3638 7.58699L19.5007 9.00274L19.926 8.36183C19.9914 8.26223 20.0147 8.14079 19.9909 8.02404C19.967 7.9073 19.898 7.80473 19.7988 7.73874L18.411 6.82082C18.3114 6.75542 18.1899 6.7321 18.0732 6.75594C17.9564 6.77978 17.8539 6.84885 17.7879 6.94806L17.3638 7.58699ZM16.2308 7.49317V2.7263C16.2304 2.62885 16.1915 2.53551 16.1226 2.46661C16.0537 2.39771 15.9604 2.35882 15.8629 2.35843H14.8633V10.4415L15.8562 8.94011C15.7543 8.85051 15.6881 8.72711 15.67 8.59261C15.6518 8.45811 15.6827 8.32157 15.7572 8.2081L16.2239 7.50381L16.231 7.49317H16.2308ZM16.6922 7.76399C16.7011 7.76445 16.7096 7.76727 16.717 7.77216L19.596 9.67782C19.6069 9.68508 19.6145 9.69638 19.6171 9.70924C19.6197 9.7221 19.6171 9.73546 19.6099 9.74639L19.1432 10.4507C19.1362 10.4614 19.1253 10.4689 19.1128 10.4717C19.0996 10.4743 19.0859 10.4717 19.0747 10.4643L16.1969 8.55814C16.1862 8.55109 16.1786 8.54018 16.1758 8.52769C16.1732 8.51453 16.1758 8.50088 16.183 8.48957L16.6209 7.8286C16.6486 7.81162 16.6728 7.78953 16.6922 7.7635V7.76399ZM17.5609 10.0754L18.4159 10.6433L16.2825 13.8689C16.2756 13.878 16.2693 13.8876 16.2637 13.8976L15.0987 15.6592L14.2422 15.093L17.5609 10.0754ZM14.8301 11.4179C14.8245 11.4279 14.8181 11.4375 14.8111 11.4466L12.9601 14.2452L13.8162 14.8113L17.1351 9.79318L16.2796 9.22628L14.8301 11.4179Z" fill="white"/>
</svg>
