<svg width="20" height="19" viewBox="0 0 20 19" fill="none" xmlns="http://www.w3.org/2000/svg">
<path fill-rule="evenodd" clip-rule="evenodd" d="M2.70098 11.3869C2.74552 11.4001 2.7884 11.4174 2.82964 11.4372C3.08447 11.5592 3.27003 11.7885 3.33683 12.0623C3.4028 12.3361 3.34342 12.6256 3.17271 12.8499C3.09354 12.9555 2.94345 12.9769 2.83706 12.8969C2.7315 12.8169 2.71088 12.6668 2.79088 12.5613C2.89561 12.4235 2.91376 12.2388 2.83871 12.0829C2.76283 11.9271 2.60695 11.8265 2.43377 11.8231C2.12451 12.1225 1.66349 12.2017 1.27257 12.0211C1.15794 11.9625 1.11093 11.8248 1.16453 11.7077C1.21814 11.5914 1.35339 11.5378 1.47215 11.5864C1.70223 11.6937 1.97604 11.6326 2.1385 11.4388C2.30097 11.2442 2.31252 10.9638 2.16654 10.7568C2.08984 10.6487 2.11624 10.4986 2.22427 10.4228C2.33313 10.3461 2.48242 10.3725 2.5591 10.4805C2.74383 10.7444 2.79665 11.0792 2.70098 11.3869ZM6.64229 10.9836C6.60353 11.0166 6.56807 11.0537 6.53838 11.0949C6.35034 11.3464 6.36271 11.6945 6.56642 11.9336C6.65136 12.0343 6.63899 12.186 6.53838 12.2718C6.43694 12.3567 6.28602 12.3444 6.20024 12.2437C5.85304 11.8347 5.83406 11.2409 6.15323 10.8104C6.19859 10.7494 6.24972 10.6925 6.30662 10.6421C6.14168 10.3848 6.08559 10.0739 6.14828 9.77536C6.16147 9.71268 6.19941 9.65825 6.25219 9.62361C6.3058 9.58898 6.37095 9.57743 6.4328 9.59062C6.56228 9.61784 6.64475 9.74485 6.61754 9.87434C6.56723 10.1077 6.64311 10.3502 6.81712 10.5135C6.99114 10.6768 7.2369 10.7378 7.46699 10.6735C7.59399 10.6372 7.72678 10.7122 7.76223 10.8392C7.79769 10.9671 7.72347 11.099 7.59646 11.1345C7.27069 11.2252 6.92267 11.1699 6.64063 10.9836L6.64229 10.9836ZM6.00644 14.2339C6.06417 14.1184 6.20355 14.0689 6.32066 14.1233C6.43859 14.177 6.4922 14.3147 6.44189 14.4343C6.33551 14.6627 6.39736 14.9341 6.59199 15.094C6.78663 15.254 7.06456 15.2615 7.26825 15.113C7.31938 15.0743 7.38371 15.0578 7.44722 15.0668C7.51072 15.0767 7.56762 15.1114 7.60556 15.1633C7.6435 15.2145 7.65834 15.2796 7.64762 15.3431C7.63772 15.4066 7.60144 15.4627 7.54948 15.499C7.16928 15.7769 6.65055 15.7621 6.28684 15.4635C5.92395 15.165 5.80851 14.6586 6.00644 14.2322V14.2339ZM6.31158 4.79755C6.1821 4.76951 6.09963 4.64086 6.1285 4.51137C6.15654 4.38189 6.28519 4.30025 6.41468 4.32911C6.64147 4.37859 6.87652 4.28045 7.00022 4.08334C7.12392 3.88623 7.11073 3.63305 6.96723 3.44996C6.88641 3.34522 6.90455 3.19513 7.00929 3.11347C7.1132 3.03264 7.26412 3.05079 7.34494 3.15553C7.61296 3.49778 7.63771 3.97117 7.40597 4.33982C7.17421 4.70764 6.73631 4.89075 6.31158 4.79755ZM6.4856 6.11792C6.58291 6.0305 6.73054 6.03627 6.82042 6.13194C6.90949 6.22678 6.90619 6.37604 6.813 6.46677C6.62909 6.6416 6.61507 6.93107 6.78166 7.12242C6.94908 7.31458 7.23689 7.34098 7.43567 7.18262C7.53958 7.1051 7.68638 7.12407 7.76637 7.22551C7.8472 7.32695 7.83235 7.47375 7.73339 7.55786C7.33423 7.8762 6.75363 7.82342 6.41879 7.43663C6.08314 7.05067 6.11366 6.46843 6.4856 6.11792ZM3.22791 8.04198C3.26585 7.91497 3.39863 7.84322 3.52564 7.88034C3.65265 7.91827 3.72522 8.05188 3.68729 8.17889C3.61306 8.42135 3.70791 8.68361 3.91986 8.823C4.13181 8.96237 4.41056 8.94588 4.60438 8.78176C4.65221 8.73888 4.71571 8.71826 4.78004 8.72238C4.84437 8.72733 4.90375 8.75784 4.94499 8.8065C4.98705 8.85599 5.00684 8.91949 5.00106 8.98382C4.99529 9.04814 4.96395 9.1067 4.91365 9.14711C4.55819 9.44731 4.04769 9.47864 3.65843 9.22298C3.26916 8.96815 3.09431 8.48733 3.22791 8.04198ZM9.56171 5.56779H13.8453C14.1685 5.56779 14.4308 5.83005 14.4308 6.15333V13.2516C14.4308 13.5757 14.1685 13.838 13.8453 13.838H9.56171V14.1794L14.4943 14.1802C14.6477 14.1794 14.7722 14.0549 14.773 13.9007V5.505C14.773 5.35078 14.6485 5.22625 14.4943 5.22542H9.56171V5.56779ZM2.39164 9.15356C2.52112 9.15768 2.62422 9.26407 2.62422 9.39355C2.62422 9.52385 2.52113 9.63024 2.39164 9.63354C1.07045 9.63354 0 10.7048 0 12.026C0 13.3464 1.07048 14.4177 2.39164 14.4177H2.4502C2.75287 13.5773 3.54953 13.0165 4.4427 13.0165C4.57548 13.0165 4.68269 13.1237 4.68269 13.2565C4.68269 13.3884 4.57548 13.4965 4.4427 13.4965C3.90251 13.4956 3.39532 13.7612 3.08934 14.2074C2.78337 14.6527 2.71657 15.2209 2.91203 15.7257C3.10748 16.2296 3.53882 16.6056 4.06497 16.7293C4.59114 16.853 5.14534 16.7095 5.5445 16.3442C5.60635 16.2881 5.69295 16.2683 5.77294 16.2914C5.85294 16.3153 5.91561 16.3788 5.93706 16.4597C6.04427 16.7805 6.24881 17.0601 6.52259 17.2596C7.0133 17.6143 7.66152 17.6638 8.20088 17.3891C8.74025 17.1137 9.08086 16.5603 9.08168 15.9541V3.4514C9.08003 2.60196 8.41944 1.89928 7.57082 1.84486C6.72302 1.79125 5.97829 2.404 5.86861 3.24686C5.85212 3.37717 5.73253 3.47036 5.60223 3.45387C5.59481 3.45387 5.58739 3.45139 5.57996 3.44974C5.50491 3.4349 5.42739 3.42335 5.34821 3.41511C5.27399 3.40768 5.19399 3.40438 5.10658 3.40438C4.47155 3.40438 3.86291 3.65592 3.41427 4.10456C2.96563 4.55321 2.71327 5.16184 2.71327 5.79605C2.71327 5.88099 2.71656 5.95934 2.72399 6.03109V6.04099C2.81141 6.03274 2.90048 6.02862 2.99037 6.02862C3.75241 6.0278 4.48392 6.33129 5.02246 6.87148C5.11318 6.9655 5.11235 7.11558 5.01916 7.20797C4.92597 7.30036 4.77588 7.30034 4.68267 7.2088C3.92641 6.45501 2.76272 6.29337 1.82908 6.81211C0.896324 7.33085 0.419642 8.40464 0.660453 9.44465C0.679421 9.52547 0.702514 9.60464 0.729728 9.68299C1.21466 9.33826 1.7962 9.15274 2.39164 9.15356ZM9.56171 13.3579V6.04768H13.8453C13.9038 6.04768 13.9508 6.09551 13.9508 6.15324V13.2515C13.9508 13.3101 13.9038 13.3579 13.8453 13.3579L9.56171 13.3579ZM12.4185 18.0341C12.4185 18.4217 12.6742 18.7631 13.0461 18.8736C13.4181 18.9833 13.818 18.8357 14.0292 18.5108C14.2403 18.1858 14.2131 17.7603 13.9615 17.465C13.71 17.1698 13.2943 17.0749 12.9397 17.2324L12.242 16.3921V14.6998H11.7621V16.4011C11.7621 16.5067 11.7992 16.609 11.8668 16.6898L12.5719 17.5384C12.4713 17.6844 12.4185 17.8576 12.4185 18.0341ZM15.9086 15.2078C16.1008 15.3991 16.3704 15.4915 16.6401 15.4569C16.909 15.4222 17.1465 15.2655 17.2842 15.0313C17.4219 14.7979 17.4434 14.5134 17.3419 14.261C17.2413 14.0095 17.0294 13.819 16.7688 13.7439V13.2409C16.7688 13.1444 16.73 13.0512 16.6616 12.9827L16.6599 12.9811C16.5915 12.9126 16.4983 12.8739 16.4018 12.8739H15.2934V13.3538H16.2896V13.7439C15.9911 13.8297 15.7593 14.0664 15.681 14.3674C15.6035 14.6684 15.6901 14.9876 15.9103 15.2078L15.9086 15.2078ZM18.504 10.323C18.7844 10.6026 19.2157 10.6595 19.5588 10.4632C19.9019 10.267 20.0709 9.86532 19.972 9.48266C19.8722 9.09999 19.5291 8.83114 19.134 8.827C18.7382 8.82205 18.3893 9.08266 18.2805 9.46285H15.2934V9.94283H18.2805C18.3217 10.0863 18.3984 10.2175 18.504 10.323ZM16.7688 5.6617V6.16477C16.7688 6.26126 16.73 6.35445 16.6616 6.42291L16.6599 6.42456C16.5915 6.49301 16.4983 6.53177 16.4018 6.53177H15.2934V6.0518H16.2896V5.6617C15.869 5.54129 15.6018 5.13059 15.662 4.69761C15.7222 4.26463 16.0925 3.94218 16.5296 3.94218C16.9667 3.94218 17.337 4.26463 17.3972 4.69761C17.4583 5.13059 17.1894 5.54129 16.7688 5.6617ZM13.2951 2.2482C13.1731 2.2482 13.0518 2.22264 12.9397 2.17315L12.2419 3.01354V4.70585H11.762V3.00446C11.762 2.95251 11.771 2.90055 11.7884 2.85107C11.7908 2.84529 11.7925 2.83952 11.7958 2.83375C11.8131 2.79086 11.837 2.75128 11.8667 2.71664L12.5718 1.86801L12.5727 1.86719C12.3442 1.53483 12.3722 1.09031 12.6403 0.789283C12.9083 0.488259 13.3471 0.408263 13.7042 0.596301C14.0604 0.784334 14.2427 1.19092 14.1462 1.58266C14.0497 1.97359 13.6984 2.2482 13.2951 2.2482Z" fill="white"/>
</svg>
