<svg width="33" height="56" viewBox="0 0 33 56" fill="none" xmlns="http://www.w3.org/2000/svg">
<g clip-path="url(#clip0_593_316)">
<path fill-rule="evenodd" clip-rule="evenodd" d="M13.4749 10.1866C13.4749 9.6023 13.643 9.05999 13.9336 8.59837H19.0871C19.3778 9.05676 19.5459 9.6023 19.5459 10.1866C19.5459 11.849 18.1859 13.1973 16.5104 13.1973C14.8348 13.1973 13.4749 11.849 13.4749 10.1866ZM6.51897 25.2122C6.10252 25.2122 5.76416 24.8776 5.76416 24.4633C5.76416 24.0512 6.10252 23.7155 6.51897 23.7155H26.5018C26.9183 23.7155 27.2566 24.0512 27.2566 24.4633C27.2566 24.8776 26.9183 25.2122 26.5018 25.2122H6.51897ZM6.51897 29.6282C6.10252 29.6282 5.76416 29.2936 5.76416 28.8804C5.76416 28.4672 6.10252 28.1315 6.51897 28.1315H25.7644C26.1808 28.1315 26.5192 28.4672 26.5192 28.8804C26.5192 29.2936 26.1808 29.6282 25.7644 29.6282H6.51897ZM6.51897 34.0453C6.10252 34.0453 5.76416 33.7096 5.76416 33.2964C5.76416 32.8832 6.10252 32.5486 6.51897 32.5486H22.9544C23.3709 32.5486 23.7092 32.8832 23.7092 33.2964C23.7092 33.7096 23.3709 34.0453 22.9544 34.0453H6.51897ZM6.51897 42.8784C6.10252 42.8784 5.76416 42.5427 5.76416 42.1295C5.76416 41.7163 6.10252 41.3806 6.51897 41.3806H11.769C12.1854 41.3806 12.5238 41.7163 12.5238 42.1295C12.5238 42.5427 12.1854 42.8784 11.769 42.8784H6.51897ZM6.51897 38.4613C6.10252 38.4613 5.76416 38.1267 5.76416 37.7135C5.76416 37.3003 6.10252 36.9646 6.51897 36.9646H14.8696C15.286 36.9646 15.6244 37.3003 15.6244 37.7135C15.6244 38.1267 15.286 38.4613 14.8696 38.4613H6.51897ZM6.55692 0.84668H26.4649C29.7716 0.84668 32.4524 3.51092 32.4524 6.78957V49.9049C32.4524 53.1857 29.7716 55.8467 26.4649 55.8467H6.55692C3.25031 55.8467 0.568359 53.1857 0.568359 49.9049V6.78204C0.568359 3.4937 3.24488 0.84668 6.55692 0.84668ZM2.63106 47.5925H30.381V6.73254H2.63106V47.5925ZM16.5028 49.4519C17.8573 49.4519 18.9646 50.5343 18.9646 51.8944C18.9646 53.2405 17.8747 54.3381 16.5028 54.3381C15.1483 54.3381 14.0399 53.2567 14.0399 51.8944C14.0399 50.5516 15.1309 49.4519 16.5028 49.4519ZM20.0903 42.8289C20.2175 42.9395 20.2952 43.0958 20.3064 43.2632C20.3176 43.4307 20.2613 43.5957 20.1499 43.722C19.9189 43.9846 19.5155 44.0104 19.2509 43.7812L17.2413 42.0337C16.9767 41.8045 16.9507 41.4043 17.1817 41.1417L17.2468 41.0782L19.2509 39.3361C19.3138 39.2814 19.387 39.2396 19.4663 39.2129C19.5455 39.1863 19.6293 39.1754 19.7128 39.1809C19.7963 39.1864 19.8779 39.2082 19.9529 39.245C20.0279 39.2817 20.0948 39.3328 20.1499 39.3953C20.2051 39.4578 20.2473 39.5304 20.2741 39.609C20.3009 39.6876 20.3119 39.7708 20.3064 39.8536C20.3008 39.9364 20.2789 40.0174 20.2418 40.0918C20.2047 40.1662 20.1533 40.2327 20.0903 40.2873L18.6284 41.5581L20.0903 42.8289ZM24.9119 43.7812C24.7847 43.8914 24.6186 43.9471 24.4501 43.936C24.2816 43.9249 24.1243 43.8479 24.0129 43.722C23.7819 43.4584 23.8079 43.0592 24.0725 42.8289L25.5344 41.5581L24.0725 40.2873C24.0096 40.2327 23.9581 40.1662 23.9211 40.0918C23.884 40.0174 23.8621 39.9364 23.8565 39.8536C23.8453 39.6863 23.9016 39.5215 24.0129 39.3953C24.1242 39.2692 24.2815 39.1921 24.4501 39.181C24.6187 39.1699 24.7848 39.2257 24.9119 39.3361L26.9172 41.0782L26.9812 41.1417C27.0363 41.2042 27.0785 41.2768 27.1053 41.3554C27.1322 41.434 27.1432 41.5171 27.1376 41.6C27.1321 41.6828 27.1101 41.7638 27.0731 41.8382C27.036 41.9126 26.9845 41.9791 26.9215 42.0337L24.9119 43.7812ZM21.9654 38.9746C22.0456 38.6346 22.3894 38.4226 22.7332 38.5011C23.0759 38.5808 23.2895 38.9219 23.2104 39.263L22.0619 44.1417C21.9816 44.4817 21.6379 44.6947 21.2952 44.6151C21.1302 44.5769 20.9873 44.4754 20.8977 44.3328C20.808 44.1902 20.779 44.0182 20.8169 43.8544L21.9654 38.9746ZM25.2709 10.3006V10.9312C25.2709 11.5209 24.7851 12.004 24.1897 12.004H23.0835C22.9425 12.6227 22.7159 13.2091 22.4165 13.7504L23.1551 14.4832C23.5748 14.9007 23.5748 15.5829 23.1551 16.0004L22.256 16.8924C21.8352 17.3099 21.1477 17.3099 20.7269 16.8924L20.0534 16.2252C19.4872 16.5748 18.8717 16.8388 18.2271 17.0086V17.92C18.2271 18.5096 17.7402 18.9928 17.1459 18.9928H15.8749C15.2795 18.9928 14.7936 18.5096 14.7936 17.92V17.0215C14.1429 16.8549 13.5211 16.5923 12.9489 16.2425L12.2939 16.8924C11.8731 17.3099 11.1844 17.3099 10.7648 16.8924L9.86571 16.0004C9.44492 15.5839 9.44492 14.9007 9.86571 14.4832L10.5739 13.7816C10.261 13.2247 10.0305 12.626 9.88957 12.004H8.83002C8.23572 12.004 7.74878 11.5209 7.74878 10.9312V9.67009C7.74878 9.09657 8.20752 8.62527 8.77905 8.59837H12.3991C12.2255 9.07223 12.137 9.57264 12.1377 10.0768C12.1377 10.1511 12.1388 10.2264 12.1431 10.3006C12.1388 10.3749 12.1377 10.4491 12.1377 10.5234C12.1377 12.9068 14.0844 14.8393 16.4865 14.8393C18.8887 14.8393 20.8353 12.9068 20.8353 10.5234C20.8353 10.4491 20.8343 10.3749 20.8299 10.3006C20.8343 10.2264 20.8353 10.1511 20.8353 10.0768C20.8353 9.55711 20.7432 9.05891 20.574 8.59837H24.2417C24.8122 8.62527 25.2709 9.09657 25.2709 9.67009V10.3006Z" fill="white"/>
</g>
<defs>
<clipPath id="clip0_593_316">
<rect width="31.8841" height="55" fill="white" transform="translate(0.568359 0.84668)"/>
</clipPath>
</defs>
</svg>
