<svg width="177" height="177" viewBox="0 0 177 177" fill="none" xmlns="http://www.w3.org/2000/svg">
<circle cx="88.5" cy="88.5" r="88.5" fill="#4353FF"/>
<path d="M78.743 114.716C78.743 115.045 78.7716 115.374 78.8289 115.688H90.1991C90.2563 115.374 90.2849 115.045 90.2849 114.716C90.2849 111.541 87.6962 108.952 84.5211 108.952C81.346 108.952 78.743 111.526 78.743 114.716Z" fill="white"/>
<path d="M108.707 66.5738C108.564 67.0171 108.207 67.3461 107.763 67.4891C106.776 67.7895 105.832 68.1756 104.96 68.6333C104.545 68.8478 104.059 68.8478 103.644 68.6476L99.754 66.7025L97.0365 69.4199L98.9816 73.3101C99.1962 73.7249 99.1819 74.2112 98.9673 74.6259C98.524 75.4555 98.1378 76.3994 97.8231 77.4292C97.6944 77.8725 97.3512 78.2158 96.9078 78.3731L92.7745 79.7461V83.5934L96.9078 84.9807C97.3512 85.1238 97.6801 85.4813 97.8231 85.9247C98.1235 86.9115 98.5097 87.8555 98.9816 88.7279C99.1962 89.1427 99.2105 89.629 98.9959 90.0437L97.0508 93.9339L99.7682 96.6514L103.658 94.7063C104.073 94.506 104.559 94.506 104.974 94.7206C105.847 95.1782 106.791 95.5644 107.778 95.879C108.221 96.0078 108.564 96.351 108.721 96.7944L110.109 100.928H114.986V91.5312C114.028 91.8172 113.041 91.9888 112.04 91.9888C106.362 91.9888 101.756 87.3692 101.756 81.7055C101.756 76.0419 106.376 71.4222 112.04 71.4222C113.041 71.4222 114.028 71.5796 114.986 71.8799V62.4833H110.109L108.707 66.5738Z" fill="white"/>
<path d="M73.2366 111.354C73.1079 111.798 72.7646 112.141 72.3212 112.298L69.1461 113.356V115.688H75.9683C75.9254 115.373 75.8825 115.044 75.8825 114.715C75.8825 109.953 79.7584 106.091 84.5067 106.091C89.2551 106.091 93.131 109.967 93.131 114.715C93.131 115.044 93.0881 115.359 93.0452 115.688H99.8673V113.356L96.6922 112.298C96.2489 112.155 95.9056 111.798 95.7626 111.34C95.5338 110.582 95.2334 109.838 94.8615 109.137C94.647 108.723 94.6327 108.236 94.8472 107.821L96.3347 104.832L94.4039 102.902L91.4147 104.389C90.9999 104.589 90.4994 104.589 90.0989 104.375C89.441 104.017 88.6973 103.717 87.8821 103.459C87.4387 103.331 87.0811 102.987 86.9381 102.544L85.8797 99.3689H83.148L82.0897 102.558C81.9466 103.002 81.5891 103.331 81.1457 103.474C80.3591 103.717 79.6011 104.017 78.9146 104.389C78.4998 104.603 78.0135 104.618 77.5988 104.403L74.6096 102.916L72.6788 104.847L74.1662 107.836C74.3808 108.251 74.3664 108.751 74.1519 109.152C73.7944 109.781 73.4797 110.525 73.2366 111.354Z" fill="white"/>
<path d="M61.8096 115.674H66.2862V112.313C66.2862 111.698 66.6866 111.154 67.2587 110.954L70.7342 109.796C70.9058 109.324 71.0917 108.866 71.2919 108.437L69.6615 105.162C69.3898 104.618 69.4899 103.946 69.9332 103.517L73.3229 100.127C73.7662 99.6838 74.4241 99.5837 74.9676 99.8555L78.2428 101.486C78.6719 101.286 79.1296 101.1 79.6015 100.928L80.76 97.4384C80.9603 96.852 81.5037 96.4658 82.1187 96.4658H86.9243C87.5393 96.4658 88.0828 96.8663 88.283 97.4527L89.4415 100.928C89.9135 101.1 90.3568 101.286 90.8002 101.486L94.0754 99.8555C94.6332 99.5837 95.2911 99.6838 95.7202 100.127L99.1098 103.517C99.5389 103.946 99.6533 104.618 99.3815 105.162L97.7511 108.437C97.9656 108.88 98.1515 109.338 98.3089 109.796L101.784 110.954C102.371 111.154 102.771 111.698 102.771 112.313V115.674H115V103.76H109.093C108.478 103.76 107.934 103.374 107.734 102.787L106.247 98.368C105.574 98.1392 104.931 97.8675 104.316 97.5814L100.14 99.6695C99.5961 99.9413 98.9239 99.8412 98.4948 99.3978L94.3185 95.2215C93.8895 94.7925 93.7751 94.1203 94.0468 93.5768L96.1349 89.4005C95.8346 88.7855 95.5771 88.1419 95.3483 87.4697L90.9289 85.9823C90.3425 85.7821 89.9564 85.2386 89.9564 84.6236V78.7168C89.9564 78.1018 90.3568 77.5583 90.9289 77.3581L95.3483 75.8849C95.5771 75.2127 95.8489 74.5691 96.1349 73.9541L94.0468 69.7779C93.7751 69.2344 93.8752 68.5622 94.3185 68.1331L98.4948 63.9569C98.9239 63.5135 99.5961 63.4134 100.14 63.6851L104.316 65.7732C104.931 65.4729 105.574 65.2155 106.247 64.9866L107.734 60.5529C107.934 59.9665 108.478 59.5804 109.093 59.5804H115V56.5483H61.8096V115.674Z" fill="white"/>
<path d="M112.096 43.29H64.67C63.0968 43.29 61.8096 44.5772 61.8096 46.1505V53.6735H114.957V46.1505C114.957 44.5772 113.684 43.29 112.096 43.29ZM98.7236 50.6271H78.0426C77.256 50.6271 76.6124 49.9835 76.6124 49.1969C76.6124 48.4102 77.256 47.7666 78.0426 47.7666H98.7093C99.496 47.7666 100.14 48.4102 100.14 49.1969C100.14 49.9835 99.5103 50.6271 98.7236 50.6271Z" fill="white"/>
<path d="M61.8096 130.534C61.8096 132.107 63.0968 133.394 64.67 133.394H112.096C113.669 133.394 114.957 132.107 114.957 130.534V118.534H61.8096V130.534ZM89.8562 123.011C91.4867 123.011 92.8025 124.326 92.8025 125.957C92.8025 127.587 91.4867 128.903 89.8562 128.903C88.2258 128.903 86.91 127.587 86.91 125.957C86.91 124.326 88.2258 123.011 89.8562 123.011Z" fill="white"/>
<path d="M114.213 74.5833C113.498 74.3544 112.755 74.24 112.011 74.24C107.921 74.24 104.588 77.5724 104.588 81.6629C104.588 85.7533 107.921 89.0857 112.011 89.0857C112.755 89.0857 113.498 88.9713 114.213 88.7425C114.471 88.6567 114.714 88.671 114.957 88.7282V74.5833C114.714 74.6548 114.471 74.6691 114.213 74.5833Z" fill="white"/>
</svg>
