<svg width="302" height="50" viewBox="0 0 302 50" fill="none" xmlns="http://www.w3.org/2000/svg">
<g clip-path="url(#clip0_593_154)">
<path d="M80.7069 15.9522C79.7899 15.1983 78.7135 14.6427 77.5972 14.2856C76.3613 13.9284 75.0457 13.73 73.77 13.73C71.936 13.6903 70.1021 14.1268 68.4676 14.9999C66.9925 15.7935 65.7566 16.9443 64.9194 18.3729C64.0821 16.9046 62.8462 15.7141 61.3313 14.9602C59.6568 14.1268 57.7831 13.73 55.9093 13.73C54.5937 13.73 53.2382 13.9284 52.0023 14.2856C50.8461 14.6427 49.7697 15.1983 48.8527 15.9919C47.9358 16.7459 47.2182 17.738 46.7398 18.8094C46.2215 20.0395 45.9424 21.3491 45.9823 22.6983V36.5872C45.9823 37.3808 46.6202 38.0157 47.4175 38.0157H48.0554C48.8527 38.0157 49.4906 37.3808 49.4906 36.5872V24.1268C49.4508 22.9761 49.6102 21.8649 49.969 20.7538C50.2481 19.9205 50.7265 19.1268 51.3644 18.4919C51.9624 17.8967 52.68 17.4602 53.4774 17.2221C54.3545 16.9443 55.2714 16.8253 56.1884 16.8253C57.1053 16.8253 58.0223 16.9443 58.8994 17.2618C59.6967 17.5395 60.4542 17.9761 61.0522 18.5713C61.6901 19.2459 62.2084 20.0395 62.4874 20.9126C62.8861 22.0634 63.0456 23.2538 63.0057 24.4443V36.5475C63.0057 37.3411 63.6436 37.9761 64.4409 37.9761H65.0788C65.8762 37.9761 66.5141 37.3411 66.5141 36.5475V24.4046C66.4742 23.2141 66.6735 22.0237 67.0722 20.8729C67.3911 19.9999 67.8696 19.2062 68.5473 18.5316C69.1453 17.9364 69.9028 17.4999 70.7002 17.2221C71.5772 16.9443 72.4942 16.7856 73.4111 16.7856C75.3647 16.7856 76.9992 17.3411 78.2351 18.4126C79.471 19.484 80.069 21.3491 80.069 23.9284V36.5078C80.069 37.3014 80.7069 37.9364 81.5043 37.9364H82.1421C82.9395 37.9364 83.5774 37.3014 83.5774 36.5078V22.4999C83.6172 21.1903 83.3382 19.8411 82.8199 18.6507C82.3016 17.6586 81.584 16.7062 80.7069 15.9522Z" fill="white"/>
<path d="M100.202 35.1192C98.9663 35.1192 97.7304 34.8812 96.6141 34.405C95.5776 33.9685 94.6207 33.2938 93.8633 32.4605C93.0659 31.6272 92.4679 30.6351 92.0692 29.5637C91.6307 28.4129 91.3915 27.2224 91.4313 25.9923C91.4313 24.7621 91.6307 23.5319 92.0692 22.3811C92.4679 21.3097 93.0659 20.3177 93.8633 19.4446C94.6606 18.6113 95.6174 17.9367 96.654 17.5002C98.9663 16.5875 101.518 16.5875 103.83 17.5002C104.867 17.9367 105.824 18.6113 106.621 19.4446C107.418 20.278 108.016 21.27 108.415 22.3811C108.853 23.5319 109.053 24.7621 109.053 25.9923C109.053 27.2224 108.853 28.4129 108.415 29.5637C107.618 31.7462 105.983 33.4923 103.83 34.405C102.674 34.8812 101.438 35.1589 100.202 35.1192ZM109.212 17.3018C108.056 16.1907 106.701 15.278 105.226 14.7224C101.996 13.4923 98.4082 13.4923 95.1789 14.7224C92.1888 15.9129 89.7968 18.2542 88.6007 21.1907C87.3649 24.2462 87.3649 27.6589 88.6007 30.7542C89.8366 33.7304 92.1888 36.0716 95.1789 37.2621C98.4082 38.5319 101.996 38.5319 105.226 37.2621C109.81 35.397 112.8 30.9526 112.76 25.9923C112.76 24.3653 112.442 22.6986 111.804 21.1907C111.206 19.7621 110.289 18.4129 109.212 17.3018Z" fill="white"/>
<path d="M135.804 16.5477C134.807 15.635 133.611 14.9207 132.336 14.4842C130.861 13.9683 129.306 13.7302 127.751 13.7699C126.196 13.7302 124.681 14.008 123.206 14.4842C121.93 14.9207 120.774 15.635 119.777 16.5477C118.821 17.4207 118.103 18.5318 117.585 19.7223C117.066 20.9921 116.827 22.381 116.827 23.7699V36.627C116.827 37.4207 117.465 38.0556 118.262 38.0556H118.9C119.698 38.0556 120.335 37.4207 120.335 36.627V24.6826C120.335 22.2223 120.973 20.2778 122.169 18.9286C123.365 17.5794 125.279 16.9048 127.751 16.9048C130.223 16.9048 132.136 17.5794 133.372 18.9286C134.608 20.2778 135.206 22.2223 135.206 24.6826V36.627C135.206 37.4207 135.844 38.0556 136.641 38.0556H137.279C138.077 38.0556 138.714 37.4207 138.714 36.627V23.7699C138.714 22.381 138.475 21.0318 137.957 19.7223C137.479 18.4921 136.761 17.4207 135.804 16.5477Z" fill="white"/>
<path d="M204.057 15.9923C203.14 15.2383 202.064 14.6828 200.947 14.3256C199.712 13.9685 198.396 13.7701 197.08 13.7701C195.246 13.7304 193.413 14.1669 191.778 15.0399C190.303 15.8336 189.067 16.9843 188.23 18.4129C187.393 16.9447 186.157 15.7542 184.642 15.0002C182.967 14.1669 181.093 13.7304 179.22 13.7701C177.904 13.7701 176.549 13.9685 175.313 14.3256C174.156 14.6828 173.08 15.2383 172.123 16.032C171.206 16.7859 170.489 17.778 170.01 18.8494C169.492 20.0796 169.213 21.3891 169.253 22.7383V36.6272C169.253 37.4209 169.891 38.0558 170.688 38.0558H171.326C172.123 38.0558 172.761 37.4209 172.761 36.6272V24.1669C172.721 23.0161 172.921 21.905 173.24 20.7939C173.519 19.9605 173.997 19.1669 174.635 18.532C175.233 17.9367 175.951 17.5002 176.748 17.2621C177.625 16.9844 178.542 16.8653 179.459 16.8653C180.376 16.8653 181.293 16.9844 182.17 17.3018C182.967 17.5796 183.725 18.0161 184.323 18.6113C184.961 19.2859 185.479 20.0796 185.758 20.9526C186.157 22.1034 186.316 23.2939 186.316 24.4843V36.6272C186.316 37.4209 186.954 38.0558 187.751 38.0558H188.389C189.187 38.0558 189.824 37.4209 189.824 36.6272V24.4843C189.785 23.2939 189.984 22.1034 190.343 20.9526C190.662 20.0796 191.14 19.2859 191.818 18.6113C192.416 18.0161 193.173 17.5796 193.971 17.3018C194.848 17.024 195.765 16.8653 196.682 16.8653C198.635 16.8653 200.27 17.4209 201.506 18.4923C202.742 19.5637 203.379 21.4288 203.379 24.0082V36.5875C203.379 37.3812 204.017 38.0161 204.815 38.0161H205.453C206.25 38.0161 206.888 37.3812 206.888 36.5875V22.6193C206.928 21.3097 206.649 19.9605 206.13 18.7701C205.652 17.659 204.934 16.7066 204.057 15.9923Z" fill="white"/>
<path d="M223.314 16.6272C224.071 16.6272 224.829 16.7065 225.586 16.8653C226.264 16.9843 226.942 17.2621 227.54 17.5795C228.098 17.897 228.536 18.3732 228.895 18.8891C229.254 19.524 229.413 20.1986 229.374 20.9129C229.413 22.2621 228.616 23.4922 227.38 24.0478C226.384 24.524 225.347 24.8811 224.231 25.0795C222.556 25.3573 220.842 25.5161 219.128 25.4764C218.251 25.4764 217.453 25.4764 216.656 25.4367C215.858 25.397 215.221 25.397 214.463 25.3573C214.503 24.2859 214.742 23.2145 215.101 22.2224C215.5 21.1907 216.058 20.1986 216.815 19.3653C217.573 18.5319 218.49 17.8573 219.526 17.3811C220.762 16.8653 222.038 16.6272 223.314 16.6272ZM230.57 15.8732C229.693 15.1589 228.696 14.643 227.619 14.3256C226.304 13.9288 224.908 13.77 223.513 13.77C221.759 13.77 220.045 14.0478 218.41 14.6827C216.895 15.278 215.54 16.151 214.383 17.2621C213.227 18.3732 212.35 19.7621 211.752 21.2303C211.114 22.8573 210.795 24.6034 210.795 26.3494C210.755 28.0954 211.074 29.8414 211.792 31.4684C212.43 32.897 213.347 34.1668 214.503 35.1589C215.659 36.151 217.015 36.9446 218.49 37.4208C220.045 37.9367 221.719 38.2145 223.354 38.1748C224.35 38.1748 225.347 38.0954 226.344 37.897C227.181 37.7383 227.978 37.5399 228.776 37.2621C229.413 37.0637 230.011 36.7859 230.609 36.5081C231.287 36.151 231.566 35.278 231.207 34.6034C231.207 34.5637 231.168 34.5637 231.168 34.524L231.048 34.3256C230.649 33.7303 229.892 33.4922 229.214 33.77C228.776 33.9684 228.257 34.2065 227.659 34.4446C226.423 34.9208 225.108 35.1192 223.752 35.0795C221.161 35.0795 219.008 34.4446 217.453 33.2145C215.898 31.9446 214.902 30.1589 214.623 28.1748C215.42 28.2145 216.177 28.2542 216.895 28.2542C217.692 28.2542 218.569 28.2542 219.606 28.2542C221.759 28.2938 223.872 28.0954 225.985 27.7383C227.42 27.5002 228.815 26.9843 230.091 26.2303C231.008 25.6748 231.805 24.8811 232.284 23.9288C232.722 23.0161 232.962 22.0637 232.922 21.0319C232.922 20.0399 232.722 19.0478 232.324 18.0954C231.925 17.3018 231.327 16.4684 230.57 15.8732Z" fill="white"/>
<path d="M275.021 7.18255C274.543 6.70636 273.945 6.46826 273.267 6.46826C271.911 6.46826 270.835 7.53969 270.835 8.88889C270.835 8.88889 270.835 8.8889 270.835 8.92858C270.835 9.5635 271.074 10.1984 271.553 10.6746C271.991 11.1508 272.629 11.4286 273.307 11.4286C274.662 11.4286 275.779 10.3175 275.779 8.92858C275.779 8.25397 275.499 7.65874 275.021 7.18255Z" fill="white"/>
<path d="M273.626 13.77H272.988C272.191 13.77 271.553 14.4049 271.553 15.1986V36.5875C271.553 37.3811 272.191 38.016 272.988 38.016H273.626C274.423 38.016 275.061 37.3811 275.061 36.5875V15.1986C275.101 14.4446 274.423 13.8097 273.626 13.77Z" fill="white"/>
<path d="M163.512 13.77H162.874C162.076 13.77 161.439 14.4049 161.439 15.1986V27.143C161.439 29.6034 160.84 31.5478 159.605 32.897C158.369 34.2462 156.535 34.9208 154.023 34.9208C151.511 34.9208 149.638 34.2462 148.402 32.897C147.166 31.5478 146.568 29.6034 146.568 27.143V15.1986C146.568 14.4049 145.93 13.77 145.133 13.77H144.495C143.697 13.77 143.06 14.4049 143.06 15.1986V28.0954C143.06 29.4843 143.299 30.8335 143.817 32.143C144.295 33.3335 145.053 34.4049 146.01 35.3176C147.006 36.2303 148.202 36.9446 149.478 37.3811C150.953 37.897 152.508 38.1351 154.063 38.0954C155.618 38.1351 157.133 37.8573 158.608 37.3811C159.884 36.9446 161.04 36.2303 162.037 35.3176C162.993 34.4446 163.711 33.3732 164.229 32.143C164.748 30.8732 164.987 29.4843 164.987 28.0954V15.1986C164.947 14.4446 164.309 13.77 163.512 13.77Z" fill="white"/>
<path d="M265.174 13.6108C262.025 13.6108 259.593 14.3648 257.958 15.8727C256.324 17.3807 255.486 19.5235 255.486 22.2616V36.6267C255.486 37.4204 256.124 38.0553 256.922 38.0553H257.559C258.357 38.0553 258.995 37.4204 258.995 36.6267V23.6902C258.995 22.6981 259.074 21.6664 259.314 20.714C259.473 19.9204 259.872 19.1664 260.39 18.5712C260.908 17.9759 261.586 17.5394 262.344 17.2616C263.34 16.9442 264.377 16.7854 265.453 16.8251H265.533C266.41 16.8251 267.168 16.1505 267.168 15.2775C267.168 14.4045 266.49 13.6505 265.573 13.6505L265.174 13.6108Z" fill="white"/>
<path d="M248.909 35.0398C248.39 35.1588 247.832 35.2382 247.314 35.1985C246.118 35.2382 244.922 34.881 243.965 34.2064C243.128 33.5715 242.729 32.381 242.729 30.7541V16.9842H248.988C249.786 16.9842 250.424 16.3493 250.424 15.5556V15.1985C250.424 14.4048 249.786 13.7699 248.988 13.7699H242.729V10.0794C242.729 9.2858 242.091 8.65088 241.294 8.65088H240.656C239.859 8.65088 239.221 9.2858 239.221 10.0794V13.7302H237.068C236.271 13.7302 235.633 14.3652 235.633 15.1588V15.5556C235.633 16.3493 236.271 16.9842 237.068 16.9842H239.261V31.2302C239.261 32.1826 239.42 33.0953 239.699 34.008C239.978 34.8414 240.457 35.5953 241.055 36.2302C241.693 36.8652 242.49 37.381 243.367 37.6985C244.404 38.0556 245.52 38.254 246.636 38.2144C247.434 38.2144 248.271 38.135 249.068 38.016C249.387 37.9763 249.905 37.8175 250.384 37.6191C251.062 37.381 251.46 36.6668 251.221 35.9922V35.9525L251.101 35.635C250.862 34.9604 250.105 34.6033 249.427 34.8413C249.228 34.9207 249.028 34.9604 248.949 35.0001" fill="white"/>
<path d="M295.832 34.6032C294.636 35 293.361 35.1985 292.125 35.1191C290.889 35.1191 289.693 34.9604 288.537 34.5635C287.46 34.2461 286.463 33.6905 285.626 32.9366C284.749 32.1429 284.111 31.1905 283.673 30.1191C283.154 28.7699 282.915 27.381 282.955 25.9524C282.915 24.5635 283.154 23.1747 283.633 21.8651C284.032 20.7937 284.63 19.8413 285.427 19.0477C286.224 18.2937 287.141 17.7381 288.178 17.4207C289.294 17.0635 290.49 16.8651 291.686 16.8651C292.842 16.8254 294.038 16.9842 295.155 17.3413L295.553 17.5C296.311 17.8175 297.188 17.4604 297.507 16.7064C297.507 16.7064 297.507 16.6667 297.547 16.6667L297.626 16.3889C297.905 15.635 297.507 14.8016 296.749 14.4842L296.59 14.4445C295.434 14.008 293.799 13.8096 291.766 13.8096C290.052 13.8096 288.377 14.0873 286.743 14.6032C285.267 15.1191 283.912 15.9524 282.796 17.0239C281.679 18.135 280.802 19.4842 280.204 20.9524C279.566 22.6191 279.247 24.4048 279.247 26.1905C279.208 27.9366 279.527 29.6826 280.204 31.2699C281.36 34.1667 283.752 36.4286 286.703 37.4207C288.297 37.9762 289.932 38.2143 291.606 38.2143C293.201 38.254 294.756 38.0556 296.271 37.6191C296.789 37.4604 297.268 37.2619 297.746 37.0635C298.384 36.7858 298.703 36.0715 298.464 35.3969L298.344 35.0397C298.105 34.3651 297.307 33.9683 296.63 34.2461C296.59 34.2461 296.59 34.2461 296.55 34.2858C296.311 34.4048 296.072 34.5239 295.832 34.6032Z" fill="white"/>
<path d="M7.55051 38.1747C0.613561 30.9922 0.892635 19.5636 8.10866 12.6588C13.73 7.30168 22.1819 6.11121 29.1189 9.72232C29.6371 10.0001 29.7966 10.5953 29.5574 11.1112L29.5175 11.1509V11.1906C29.1189 11.8652 28.2418 12.143 27.5242 11.7858C19.8297 8.01597 10.5007 11.1906 6.7133 18.8493C2.92588 26.508 6.11528 35.7938 13.8097 39.5636C21.5042 43.3334 30.8332 40.1588 34.6206 32.5001C36.614 28.4525 36.7336 23.6906 34.9395 19.5239C34.6206 18.8096 34.8997 17.9366 35.5774 17.5398H35.6173C36.1356 17.262 36.7734 17.4604 37.0126 17.9366C37.0126 17.9366 37.0126 17.9763 37.0525 17.9763C41.3183 26.9842 37.491 37.7382 28.4411 42.0239C21.3447 45.3572 12.9326 43.8096 7.55051 38.1747Z" fill="white"/>
<path d="M27.4046 19.2463C23.8165 15.5161 17.9161 15.3971 14.1686 18.9685C10.421 22.5399 10.3014 28.4129 13.8895 32.1431C17.4776 35.8732 23.378 35.9923 27.1255 32.4209C30.8332 28.8494 30.9528 22.9764 27.4046 19.2463ZM12.0157 33.8891C7.47082 29.1669 7.63029 21.6272 12.3745 17.1034C17.1188 12.5796 24.6936 12.7383 29.2385 17.4605C33.7834 22.1828 33.6239 29.7224 28.8797 34.2463C24.0956 38.8097 16.5606 38.6113 12.0157 33.8891Z" fill="white"/>
<path d="M22.8993 23.532C21.7033 22.2621 19.7099 22.2224 18.4342 23.4526C17.1584 24.6431 17.1185 26.6272 18.3544 27.897C19.5505 29.1669 21.5438 29.2066 22.8196 27.9764C24.0555 26.7463 24.0954 24.7621 22.8993 23.532ZM16.4807 29.6431C14.288 27.3812 14.3677 23.7701 16.6401 21.5875C18.9126 19.405 22.5405 19.4843 24.7333 21.7463C26.926 24.0082 26.8462 27.6193 24.5738 29.8018C22.3013 31.9843 18.6734 31.905 16.4807 29.6431Z" fill="white"/>
<path d="M30.6334 14.365C30.5138 13.1746 31.351 12.0635 32.5869 11.9444C33.783 11.8254 34.8993 12.6587 35.0189 13.8888C35.1385 15.0793 34.3012 16.1904 33.0653 16.3095C31.8294 16.4285 30.753 15.5555 30.6334 14.365Z" fill="white"/>
</g>
<defs>
<clipPath id="clip0_593_154">
<rect width="301" height="50" fill="white" transform="translate(0.8125)"/>
</clipPath>
</defs>
</svg>
