<svg width="192" height="192" viewBox="0 0 192 192" fill="none" xmlns="http://www.w3.org/2000/svg">
<g clip-path="url(#clip0_593_137)">
<path d="M31.5513 150.672C-0.933949 117.036 0.37293 63.5172 34.1651 31.1827C60.4893 6.09555 100.069 0.52065 132.554 17.4312C134.981 18.732 135.728 21.5195 134.608 23.9353L134.421 24.1211V24.3069C132.554 27.4661 128.447 28.7669 125.086 27.0944C89.0539 9.44051 45.3669 24.3069 27.6307 60.1722C9.89447 96.0375 24.8302 139.522 60.8627 157.176C96.8952 174.83 140.582 159.963 158.318 124.098C167.653 105.143 168.213 82.8435 159.812 63.3313C158.318 59.9864 159.625 55.8981 162.799 54.0398H162.986C165.413 52.739 168.4 53.6681 169.52 55.8981C169.52 55.8981 169.52 56.084 169.707 56.084C189.683 98.2675 171.761 148.627 129.38 168.697C96.1484 184.307 56.7554 177.06 31.5513 150.672Z" fill="#050505"/>
<path d="M33.8201 30.8207L33.8194 30.8214C-0.170494 63.3451 -1.48796 117.181 31.1905 151.018C56.5444 177.562 96.1686 184.85 129.593 169.15L129.594 169.149C172.224 148.961 190.254 98.3032 170.159 55.87L170.023 55.584H169.921C168.65 53.1852 165.467 52.2204 162.863 53.5398H162.799H162.664L162.547 53.6083C159.154 55.5949 157.759 59.9549 159.354 63.532C167.696 82.9094 167.139 105.054 157.87 123.876C140.256 159.494 96.8683 174.26 61.0827 156.727C25.2969 139.194 10.4664 96.009 28.0789 60.3939C45.6925 24.7765 89.0795 10.0109 124.865 27.5426C128.466 29.3341 132.855 27.9398 134.852 24.5613L134.921 24.4436V24.3289L134.961 24.2897L135.024 24.2266L135.062 24.1456C136.282 21.5145 135.475 18.4291 132.79 16.9905L132.785 16.9877C100.111 -0.020998 60.3 5.58525 33.8201 30.8207Z" stroke="white" stroke-opacity="0.3"/>
<path d="M124.527 62.0312C107.724 44.5631 80.0929 44.0056 62.5434 60.7304C44.9939 77.4551 44.4338 104.958 61.2365 122.426C78.0392 139.894 105.67 140.452 123.22 123.727C140.583 107.002 141.143 79.4992 124.527 62.0312ZM52.4618 130.603C31.1783 108.489 31.9251 73.181 54.142 51.9963C76.3589 30.8117 111.831 31.555 133.115 53.6688C154.398 75.7826 153.651 111.09 131.434 132.275C109.031 153.646 73.7452 152.716 52.4618 130.603Z" fill="#050505"/>
<path d="M62.8883 61.0923C80.2389 44.5572 107.554 45.1088 124.165 62.3766C140.591 79.6459 140.037 106.833 122.874 123.366C105.523 139.9 78.2077 139.348 61.5969 122.079C44.9857 104.81 45.5399 77.6254 62.8883 61.0923ZM53.797 51.6345C31.3794 73.0104 30.626 108.636 52.1015 130.949C73.5749 153.26 109.176 154.198 131.78 132.637C154.197 111.261 154.95 75.6354 133.475 53.3221C112.001 31.0097 76.2129 30.2601 53.797 51.6345Z" stroke="white" stroke-opacity="0.3"/>
<path d="M103.429 82.1012C97.8282 76.1546 88.4934 75.9688 82.5191 81.7295C76.5448 87.3044 76.3581 96.5959 82.1457 102.542C87.7466 108.489 97.0814 108.675 103.056 102.914C108.843 97.1534 109.03 87.8619 103.429 82.1012ZM73.371 110.719C63.1026 100.127 63.476 83.2161 74.1177 72.9954C84.7595 62.7748 101.749 63.1465 112.017 73.7388C122.286 84.3311 121.912 101.242 111.27 111.462C100.629 121.683 83.6393 121.311 73.371 110.719Z" fill="#050505"/>
<path d="M103.065 82.444L103.065 82.444L103.071 82.4497C108.473 88.0062 108.304 96.9823 102.706 102.557C96.928 108.125 87.9151 107.939 82.5097 102.2L82.5097 102.2L82.504 102.194C76.9082 96.4443 77.0946 87.4752 82.8602 82.0951L82.8603 82.0951L82.8662 82.0894C88.6439 76.5182 97.6588 76.704 103.065 82.444ZM73.7714 72.6348C62.9317 83.0457 62.5491 100.274 73.012 111.067C83.4703 121.855 100.775 122.236 111.617 111.823C122.457 101.412 122.839 84.1838 112.376 73.3908C101.918 62.6025 84.6133 62.2219 73.7714 72.6348Z" stroke="white" stroke-opacity="0.3"/>
<path d="M139.649 39.1727C139.089 33.5978 143.009 28.3946 148.797 27.8371C154.398 27.2796 159.625 31.182 160.186 36.9428C160.746 42.5177 156.825 47.721 151.037 48.2784C145.25 48.8359 140.209 44.7477 139.649 39.1727Z" fill="#050505"/>
<path d="M148.748 27.3395C142.668 27.9256 138.565 33.3901 139.151 39.2227C139.74 45.0816 145.034 49.3591 151.085 48.7761C157.166 48.1905 161.269 42.7262 160.683 36.8937C160.094 30.8369 154.602 26.7572 148.748 27.3395Z" stroke="white" stroke-opacity="0.3"/>
</g>
<defs>
<clipPath id="clip0_593_137">
<rect width="192" height="192" fill="white"/>
</clipPath>
</defs>
</svg>
