<svg width="177" height="177" viewBox="0 0 177 177" fill="none" xmlns="http://www.w3.org/2000/svg">
<circle cx="88.5" cy="88.5" r="88.5" fill="#4353FF"/>
<path fill-rule="evenodd" clip-rule="evenodd" d="M102.656 101.677C97.9654 104.593 92.9863 107.013 87.7901 108.897C89.4486 115.542 86.3152 122.827 82.3845 129C94.6034 123.372 103.849 114.996 102.652 101.669L102.656 101.677ZM69.0095 90.1894C70.8887 85.0142 73.2996 80.0443 76.2045 75.3632C70.5518 74.7874 64.8951 76.4327 60.4407 79.9589C56.072 83.3579 52.2573 88.608 49 95.705C55.1544 91.8086 62.4168 88.69 69.0093 90.2755L69.0095 90.1894ZM115.067 51.442C117.305 56.5873 121.416 60.6894 126.567 62.9292C127.768 58.3598 128.584 53.7006 129 49C124.294 49.4188 119.634 50.2342 115.067 51.442ZM110.638 73.7847C110.638 71.212 109.088 68.8936 106.707 67.9139C104.326 66.9343 101.59 67.4876 99.7779 69.3124C97.9623 71.1372 97.4307 73.8744 98.4303 76.2451C99.4298 78.6159 101.758 80.149 104.334 80.1303C106.018 80.1341 107.636 79.4647 108.83 78.2756C110.02 77.0828 110.69 75.4674 110.687 73.7847H110.638ZM111.398 66.6799C114.277 69.5555 115.141 73.8781 113.584 77.6359C112.027 81.3936 108.358 83.8432 104.285 83.8432C100.216 83.8432 96.5435 81.3939 94.9862 77.6359C93.4326 73.8778 94.2937 69.5552 97.1762 66.6799C101.103 62.761 107.467 62.761 111.398 66.6799ZM70.8782 96.2806C71.1552 95.3233 71.4435 94.4633 71.7504 93.5734V93.5696C71.8291 93.4574 71.8927 93.334 71.9414 93.2069C72.005 93.0349 72.0462 92.8517 72.0649 92.6684C74.1613 86.5808 77.0363 80.7887 80.6264 75.4376C80.8809 75.2244 81.0756 74.944 81.1804 74.6261C84.3062 70.1277 88.061 66.0967 92.325 62.6603C98.0339 58.1207 104.532 54.673 111.492 52.4854C114.086 58.8498 119.125 63.9095 125.486 66.5267C118.777 87.243 103.683 100.3 81.6711 107.057L70.8782 96.2806ZM64.7463 106.055L63.1254 107.671L70.2643 114.794L71.874 113.186L64.7426 106.055H64.7463ZM66.0491 102.129L75.805 111.874C76.5126 112.581 76.9918 113.254 77.98 113.254V113.25C78.7624 113.261 79.4737 112.794 79.7732 112.068C80.0726 111.347 79.9004 110.517 79.3427 109.967L67.9173 98.5773C67.3707 98.0239 66.5397 97.8593 65.8209 98.1585C65.1021 98.4539 64.6342 99.1606 64.6379 99.9384C64.6679 100.941 65.349 101.448 66.0491 102.129Z" fill="white"/>
</svg>
