<svg width="267" height="267" viewBox="0 0 267 267" fill="none" xmlns="http://www.w3.org/2000/svg">
<rect width="267" height="267" rx="51" fill="url(#paint0_linear_1065_22)"/>
<rect x="7" y="7" width="253" height="253" rx="43" fill="#D9D9D9"/>
<rect x="7" y="7" width="253" height="253" rx="43" fill="url(#paint1_linear_1065_22)"/>
<rect x="11" y="11" width="245" height="245" rx="43" fill="#D9D9D9"/>
<rect x="11" y="11" width="245" height="245" rx="43" fill="url(#paint2_linear_1065_22)"/>
<g style="mix-blend-mode:soft-light">
<path d="M129.734 76.0309C129.487 76.0534 128.7 76.1321 127.992 76.1883C111.658 77.6607 96.3583 86.4727 86.6681 100.017C81.2722 107.547 77.8211 116.09 76.5171 125.138C76.0562 128.296 76 129.229 76 133.511C76 137.794 76.0562 138.727 76.5171 141.885C79.6422 163.477 95.0093 181.618 115.851 188.339C119.583 189.542 123.518 190.362 127.992 190.857C129.734 191.048 137.266 191.048 139.008 190.857C146.731 190.002 153.274 188.092 159.726 184.798C160.716 184.293 160.907 184.158 160.772 184.045C160.682 183.978 156.466 178.324 151.408 171.491L142.212 159.071L130.69 142.02C124.349 132.646 119.133 124.98 119.088 124.98C119.043 124.969 118.999 132.545 118.976 141.795C118.942 157.992 118.931 158.643 118.729 159.026C118.436 159.576 118.212 159.801 117.739 160.048C117.38 160.228 117.065 160.262 115.368 160.262H113.423L112.906 159.936C112.568 159.722 112.321 159.441 112.152 159.116L111.916 158.61L111.939 136.074L111.973 113.527L112.321 113.089C112.501 112.853 112.883 112.549 113.153 112.403C113.614 112.178 113.794 112.156 115.739 112.156C118.032 112.156 118.414 112.246 119.01 112.897C119.178 113.077 125.417 122.474 132.882 133.792C140.346 145.111 150.553 160.565 155.567 168.152L164.673 181.944L165.133 181.64C169.214 178.987 173.531 175.211 176.948 171.277C184.221 162.926 188.909 152.743 190.483 141.885C190.944 138.727 191 137.794 191 133.511C191 129.229 190.944 128.296 190.483 125.138C187.358 103.546 171.991 85.4049 151.149 78.6835C147.473 77.4921 143.561 76.6716 139.177 76.1771C138.098 76.0647 130.667 75.941 129.734 76.0309ZM153.274 110.807C153.813 111.077 154.252 111.594 154.409 112.133C154.499 112.425 154.521 118.675 154.499 132.758L154.465 152.967L150.902 147.505L147.327 142.042V127.352C147.327 117.854 147.372 112.515 147.439 112.257C147.619 111.627 148.013 111.133 148.552 110.841C149.013 110.605 149.182 110.582 150.947 110.582C152.61 110.582 152.903 110.605 153.274 110.807Z" fill="white"/>
</g>
<defs>
<linearGradient id="paint0_linear_1065_22" x1="133.5" y1="0" x2="133.5" y2="267" gradientUnits="userSpaceOnUse">
<stop stop-color="#6D7AFF"/>
<stop offset="0.435" stop-color="#2631AB"/>
<stop offset="1" stop-color="#4353FF"/>
</linearGradient>
<linearGradient id="paint1_linear_1065_22" x1="236.5" y1="249.5" x2="21" y2="32.5" gradientUnits="userSpaceOnUse">
<stop stop-color="#6D7AFF"/>
<stop offset="0.435" stop-color="#2631AB"/>
<stop offset="1" stop-color="#4353FF"/>
</linearGradient>
<linearGradient id="paint2_linear_1065_22" x1="133.5" y1="11" x2="87" y2="268" gradientUnits="userSpaceOnUse">
<stop stop-color="#4353FF"/>
<stop offset="1" stop-color="#6D7AFF"/>
</linearGradient>
</defs>
</svg>
