<svg width="267" height="267" viewBox="0 0 267 267" fill="none" xmlns="http://www.w3.org/2000/svg">
<rect width="267" height="267" rx="51" fill="url(#paint0_linear_1065_239)"/>
<rect x="7" y="7" width="253" height="253" rx="43" fill="#D9D9D9"/>
<rect x="7" y="7" width="253" height="253" rx="43" fill="url(#paint1_linear_1065_239)"/>
<rect x="11" y="11" width="245" height="245" rx="43" fill="#D9D9D9"/>
<rect x="11" y="11" width="245" height="245" rx="43" fill="url(#paint2_linear_1065_239)"/>
<g style="mix-blend-mode:soft-light">
<path d="M211 134.006C210.942 121.451 200.772 111.295 188.208 111.237C179.122 111.237 171.326 116.735 167.675 124.48C163.478 109.844 150.074 98.9936 134.115 99C118.074 99 104.599 109.971 100.486 124.722C96.8924 116.831 88.9807 111.237 79.792 111.237C67.2282 111.301 57.0577 121.457 57 133.994V134C57.0577 146.543 67.2282 156.699 79.7856 156.763C88.9743 156.763 96.886 151.163 100.479 143.272C104.592 158.035 118.074 169 134.115 169C150.074 169 163.478 158.15 167.681 143.52C171.332 151.271 179.122 156.763 188.202 156.763C200.772 156.712 210.949 146.549 211 134.006ZM79.792 143.405H79.6957C78.468 143.401 77.2531 143.157 76.1204 142.688C74.9878 142.218 73.9595 141.531 73.0943 140.667C72.2292 139.803 71.5441 138.779 71.0781 137.652C70.6122 136.526 70.3745 135.319 70.3787 134.102V134C70.3787 128.725 74.5111 124.601 79.792 124.601C85.0665 124.601 89.2052 128.725 89.2052 134C89.2052 139.275 85.0729 143.399 79.792 143.405ZM134.115 155.643H134.019C122.104 155.643 112.446 146.002 112.446 134.102V134C112.446 121.966 122.071 112.357 134.115 112.357C146.166 112.357 155.791 121.966 155.791 134C155.791 146.034 146.166 155.643 134.115 155.643ZM188.202 143.405H188.105C186.878 143.401 185.663 143.157 184.53 142.688C183.397 142.218 182.369 141.531 181.504 140.667C180.639 139.803 179.954 138.779 179.488 137.652C179.022 136.526 178.784 135.319 178.788 134.102V134C178.788 128.725 182.921 124.601 188.202 124.601C193.482 124.601 197.621 128.725 197.621 134C197.621 139.275 193.482 143.405 188.202 143.405Z" fill="white"/>
</g>
<defs>
<linearGradient id="paint0_linear_1065_239" x1="133.5" y1="0" x2="133.5" y2="267" gradientUnits="userSpaceOnUse">
<stop stop-color="#6D7AFF"/>
<stop offset="0.435" stop-color="#2631AB"/>
<stop offset="1" stop-color="#4353FF"/>
</linearGradient>
<linearGradient id="paint1_linear_1065_239" x1="236.5" y1="249.5" x2="21" y2="32.5" gradientUnits="userSpaceOnUse">
<stop stop-color="#6D7AFF"/>
<stop offset="0.435" stop-color="#2631AB"/>
<stop offset="1" stop-color="#4353FF"/>
</linearGradient>
<linearGradient id="paint2_linear_1065_239" x1="133.5" y1="11" x2="87" y2="268" gradientUnits="userSpaceOnUse">
<stop stop-color="#4353FF"/>
<stop offset="1" stop-color="#6D7AFF"/>
</linearGradient>
</defs>
</svg>
