<svg width="32" height="23" viewBox="0 0 32 23" fill="none" xmlns="http://www.w3.org/2000/svg">
<path d="M30.4444 14.3333H27.6667V11.5556C27.6667 11.2489 27.4183 11 27.1111 11H16.5556V8.77778H19.3333C19.6406 8.77778 19.8889 8.52889 19.8889 8.22222V1.55556C19.8889 1.24889 19.6406 1 19.3333 1H12.6667C12.36 1 12.1111 1.24889 12.1111 1.55556V8.22222C12.1111 8.52889 12.36 8.77778 12.6667 8.77778H15.4444V11H4.88889C4.58222 11 4.33333 11.2489 4.33333 11.5556V14.3333H1.55556C1.24889 14.3333 1 14.5817 1 14.8889V21.5556C1 21.8628 1.24889 22.1111 1.55556 22.1111H8.22222C8.52889 22.1111 8.77778 21.8628 8.77778 21.5556V14.8889C8.77778 14.5817 8.52889 14.3333 8.22222 14.3333H5.44444V12.1111H15.4444V14.3333H12.6667C12.36 14.3333 12.1111 14.5817 12.1111 14.8889V21.5556C12.1111 21.8628 12.36 22.1111 12.6667 22.1111H19.3333C19.6406 22.1111 19.8889 21.8628 19.8889 21.5556V14.8889C19.8889 14.5817 19.6406 14.3333 19.3333 14.3333H16.5556V12.1111H26.5556V14.3333H23.7778C23.4706 14.3333 23.2222 14.5817 23.2222 14.8889V21.5556C23.2222 21.8628 23.4706 22.1111 23.7778 22.1111H30.4444C30.7517 22.1111 31 21.8628 31 21.5556V14.8889C31 14.5817 30.7517 14.3333 30.4444 14.3333ZM13.2222 2.11111H18.7778V7.66667H13.2222V2.11111ZM7.66667 21H2.11111V15.4444H7.66667V21ZM18.7778 21H13.2222V15.4444H18.7778V21ZM29.8889 21H24.3333V15.4444H29.8889V21Z" fill="#4353FF" stroke="#4353FF"/>
</svg>
