<svg width="267" height="267" viewBox="0 0 267 267" fill="none" xmlns="http://www.w3.org/2000/svg">
<rect width="267" height="267" rx="51" fill="url(#paint0_linear_1065_28)"/>
<rect x="7" y="7" width="253" height="253" rx="43" fill="#D9D9D9"/>
<rect x="7" y="7" width="253" height="253" rx="43" fill="url(#paint1_linear_1065_28)"/>
<rect x="11" y="11" width="245" height="245" rx="43" fill="#D9D9D9"/>
<rect x="11" y="11" width="245" height="245" rx="43" fill="url(#paint2_linear_1065_28)"/>
<g style="mix-blend-mode:soft-light">
<path d="M132.439 179C131.948 179 131.461 178.871 131.031 178.624L126.552 175.972C125.883 175.598 126.209 175.465 126.43 175.389C127.322 175.077 127.503 175.006 128.455 174.465C128.555 174.408 128.686 174.428 128.789 174.489L132.23 176.531C132.355 176.598 132.531 176.598 132.646 176.531L146.064 168.786C146.189 168.715 146.269 168.571 146.269 168.423V152.939C146.269 152.784 146.189 152.647 146.062 152.569L132.649 144.831C132.524 144.757 132.36 144.757 132.236 144.831L118.825 152.569C118.695 152.643 118.613 152.788 118.613 152.936V168.42C118.613 168.567 118.693 168.708 118.821 168.779L122.495 170.902C124.491 171.899 125.71 170.724 125.71 169.541V154.259C125.71 154.041 125.881 153.873 126.099 153.873H127.799C128.011 153.873 128.185 154.041 128.185 154.259V169.548C128.185 172.208 126.734 173.737 124.212 173.737C123.436 173.737 122.825 173.737 121.118 172.897L117.598 170.868C116.728 170.364 116.191 169.424 116.191 168.42V152.936C116.191 151.928 116.728 150.987 117.598 150.49L131.03 142.742C131.88 142.261 133.008 142.261 133.852 142.742L147.267 150.494C148.133 150.994 148.674 151.931 148.674 152.939V168.423C148.674 169.427 148.133 170.364 147.267 170.868L133.852 178.617C133.422 178.865 132.935 178.993 132.437 178.993" fill="white"/>
<path d="M136.584 168.33C130.712 168.33 129.481 165.635 129.481 163.375C129.481 163.16 129.655 162.989 129.87 162.989H131.603C131.795 162.989 131.956 163.128 131.986 163.317C132.248 165.083 133.027 165.974 136.578 165.974C139.406 165.974 140.608 165.335 140.608 163.835C140.608 162.972 140.265 162.331 135.872 161.901C132.198 161.538 129.927 160.728 129.927 157.789C129.927 155.082 132.211 153.47 136.037 153.47C140.333 153.47 142.462 154.961 142.731 158.166C142.741 158.277 142.701 158.384 142.627 158.465C142.553 158.542 142.449 158.589 142.341 158.589H140.598C140.417 158.589 140.259 158.461 140.222 158.287C139.802 156.429 138.788 155.835 136.03 155.835C132.943 155.835 132.584 156.909 132.584 157.716C132.584 158.693 133.007 158.979 137.172 159.529C141.297 160.077 143.255 160.849 143.255 163.748C143.255 166.67 140.816 168.346 136.564 168.346M152.908 151.925H153.358C153.728 151.925 153.798 151.666 153.798 151.515C153.798 151.119 153.526 151.119 153.375 151.119H152.911L152.908 151.925ZM152.36 150.655H153.358C153.701 150.655 154.372 150.655 154.372 151.421C154.372 151.955 154.03 152.066 153.825 152.133C154.225 152.16 154.251 152.422 154.305 152.792C154.332 153.023 154.376 153.423 154.456 153.557H153.842C153.825 153.423 153.731 152.684 153.731 152.644C153.691 152.479 153.633 152.399 153.429 152.399H152.921V153.561H152.36V150.655ZM151.161 152.1C151.161 153.302 152.132 154.276 153.324 154.276C154.527 154.276 155.498 153.282 155.498 152.1C155.498 150.894 154.513 149.937 153.321 149.937C152.146 149.937 151.158 150.88 151.158 152.096M155.914 152.106C155.914 153.531 154.749 154.693 153.328 154.693C151.917 154.693 150.742 153.544 150.742 152.106C150.742 150.642 151.944 149.52 153.328 149.52C154.722 149.52 155.911 150.645 155.911 152.106" fill="white"/>
<path fill-rule="evenodd" clip-rule="evenodd" d="M90.8871 118.414C90.8871 117.796 90.5613 117.228 90.0279 116.921L75.8014 108.735C75.5612 108.594 75.2922 108.52 75.0194 108.51H74.8723C74.5996 108.52 74.3305 108.594 74.0864 108.735L59.8605 116.921C59.3305 117.23 59 117.797 59 118.415L59.0312 140.463C59.0312 140.768 59.1891 141.054 59.4578 141.205C59.7198 141.366 60.049 141.366 60.3109 141.205L68.7684 136.362C69.3024 136.044 69.6282 135.482 69.6282 134.87V124.57C69.6282 123.956 69.954 123.388 70.4864 123.083L74.087 121.009C74.3544 120.854 74.648 120.778 74.9469 120.778C75.2411 120.778 75.5414 120.854 75.8014 121.008L79.4003 123.082C79.933 123.387 80.2602 123.955 80.2602 124.569V134.869C80.2602 135.48 80.5903 136.044 81.1217 136.36L89.5738 141.2C89.8391 141.358 90.1693 141.358 90.4336 141.2C90.6943 141.049 90.8595 140.763 90.8595 140.458L90.8871 118.414ZM158.019 129.893C158.019 130.046 157.937 130.188 157.804 130.264L152.917 133.081C152.785 133.157 152.621 133.157 152.488 133.081L147.601 130.264C147.467 130.188 147.386 130.046 147.386 129.893V124.251C147.386 124.098 147.467 123.956 147.598 123.879L152.482 121.057C152.616 120.98 152.781 120.98 152.915 121.057L157.802 123.879C157.936 123.956 158.017 124.098 158.017 124.251L158.019 129.893ZM159.339 88.1088C159.072 87.9603 158.747 87.9643 158.484 88.1178C158.222 88.2723 158.06 88.5545 158.06 88.8601V110.692C158.06 110.907 157.946 111.105 157.76 111.213C157.575 111.32 157.345 111.32 157.159 111.213L153.595 109.16C153.064 108.853 152.411 108.853 151.878 109.16L137.647 117.374C137.115 117.679 136.787 118.247 136.787 118.858V135.289C136.787 135.904 137.115 136.468 137.647 136.777L151.878 144.996C152.409 145.302 153.064 145.302 153.597 144.996L167.828 136.774C168.359 136.465 168.688 135.901 168.688 135.286V94.3356C168.688 93.7122 168.349 93.1389 167.804 92.8342L159.339 88.1088ZM206.729 124.103C207.258 123.796 207.583 123.229 207.583 122.618V118.635C207.583 118.023 207.257 117.458 206.728 117.149L192.587 108.94C192.053 108.631 191.398 108.631 190.864 108.94L176.636 117.153C176.102 117.462 175.776 118.026 175.776 118.641V135.065C175.776 135.683 176.109 136.254 176.643 136.56L190.78 144.617C191.301 144.916 191.939 144.92 192.466 144.628L201.018 139.875C201.286 139.724 201.458 139.438 201.458 139.129C201.458 138.82 201.293 138.531 201.024 138.38L186.709 130.165C186.44 130.013 186.276 129.728 186.276 129.422V124.27C186.276 123.962 186.437 123.679 186.706 123.526L191.16 120.956C191.425 120.802 191.751 120.802 192.016 120.956L196.473 123.526C196.738 123.677 196.903 123.962 196.903 124.268V128.319C196.903 128.624 197.068 128.91 197.333 129.064C197.598 129.215 197.928 129.215 198.193 129.061L206.729 124.103Z" fill="white"/>
<path fill-rule="evenodd" clip-rule="evenodd" d="M191.517 123.335C191.618 123.275 191.744 123.275 191.846 123.335L194.577 124.91C194.679 124.969 194.742 125.078 194.742 125.195V128.349C194.742 128.467 194.679 128.576 194.577 128.635L191.846 130.21C191.744 130.27 191.618 130.27 191.517 130.21L188.788 128.635C188.684 128.576 188.62 128.467 188.62 128.349V125.195C188.62 125.078 188.681 124.969 188.785 124.91L191.517 123.335Z" fill="white"/>
<mask id="mask0_1065_28" style="mask-type:luminance" maskUnits="userSpaceOnUse" x="97" y="108" width="33" height="37">
<path d="M112.984 109.022L98.8332 117.19C98.3032 117.496 97.9781 118.06 97.9781 118.67V135.017C97.9781 135.627 98.3032 136.191 98.8332 136.496L112.985 144.67C113.514 144.975 114.166 144.975 114.694 144.67L128.844 136.496C129.371 136.191 129.697 135.626 129.697 135.017V118.67C129.697 118.06 129.371 117.496 128.84 117.19L114.693 109.022C114.428 108.87 114.132 108.794 113.837 108.794C113.541 108.794 113.245 108.87 112.98 109.022" fill="white"/>
</mask>
<g mask="url(#mask0_1065_28)">
<path d="M143.996 115.803L104.123 96.2583L83.6775 137.966L123.55 157.512L143.996 115.803Z" fill="white"/>
</g>
<mask id="mask1_1065_28" style="mask-type:luminance" maskUnits="userSpaceOnUse" x="98" y="108" width="32" height="37">
<path d="M98.3288 136.054C98.4642 136.23 98.6335 136.382 98.8326 136.496L110.971 143.508L112.993 144.67C113.296 144.845 113.64 144.919 113.979 144.893C114.092 144.884 114.205 144.863 114.315 144.832L129.239 117.505C129.125 117.38 128.991 117.276 128.841 117.189L119.576 111.838L114.678 109.02C114.539 108.94 114.388 108.883 114.235 108.842L98.3288 136.054Z" fill="white"/>
</mask>
<g mask="url(#mask1_1065_28)">
<path d="M81.0891 121.584L109.244 159.691L146.48 132.18L118.323 94.0746L81.0891 121.584Z" fill="white"/>
</g>
<mask id="mask2_1065_28" style="mask-type:luminance" maskUnits="userSpaceOnUse" x="98" y="108" width="32" height="37">
<path d="M113.668 108.804C113.43 108.827 113.198 108.901 112.984 109.023L98.8738 117.167L114.089 144.88C114.301 144.85 114.509 144.779 114.697 144.671L128.848 136.497C129.284 136.243 129.583 135.815 129.674 135.329L114.163 108.831C114.049 108.809 113.935 108.797 113.817 108.797C113.77 108.797 113.723 108.8 113.676 108.804" fill="white"/>
</mask>
<g mask="url(#mask2_1065_28)">
<path d="M98.8732 108.797V144.881H129.668V108.797H98.8732Z" fill="white"/>
</g>
</g>
<defs>
<linearGradient id="paint0_linear_1065_28" x1="133.5" y1="0" x2="133.5" y2="267" gradientUnits="userSpaceOnUse">
<stop stop-color="#6D7AFF"/>
<stop offset="0.435" stop-color="#2631AB"/>
<stop offset="1" stop-color="#4353FF"/>
</linearGradient>
<linearGradient id="paint1_linear_1065_28" x1="236.5" y1="249.5" x2="21" y2="32.5" gradientUnits="userSpaceOnUse">
<stop stop-color="#6D7AFF"/>
<stop offset="0.435" stop-color="#2631AB"/>
<stop offset="1" stop-color="#4353FF"/>
</linearGradient>
<linearGradient id="paint2_linear_1065_28" x1="133.5" y1="11" x2="87" y2="268" gradientUnits="userSpaceOnUse">
<stop stop-color="#4353FF"/>
<stop offset="1" stop-color="#6D7AFF"/>
</linearGradient>
</defs>
</svg>
