<svg width="177" height="177" viewBox="0 0 177 177" fill="none" xmlns="http://www.w3.org/2000/svg">
<circle cx="88.5" cy="88.5" r="88.5" fill="#4353FF"/>
<path fill-rule="evenodd" clip-rule="evenodd" d="M67.4749 73.3061C65.5526 76.4023 64.5625 79.9884 64.6238 83.6354C64.6136 85.3808 64.8483 87.1194 65.3247 88.7968H54.3622C51.3817 88.8002 48.9626 91.2192 48.9592 94.1997V102.137C46.9654 102.767 45.7304 104.757 46.0502 106.823C46.3667 108.891 48.1461 110.415 50.2386 110.415C52.3276 110.415 54.1071 108.891 54.4269 106.823C54.7433 104.757 53.5082 102.767 51.5144 102.137V94.1997C51.5144 92.6278 52.7903 91.352 54.3622 91.352H66.3995C67.1276 92.883 68.6348 93.897 70.3292 93.9854H81.884L81.8738 98.2553H68.7033C65.7194 98.2587 63.3037 100.678 63.3003 103.658V106.639C61.3065 107.268 60.0715 109.259 60.3879 111.324C60.7077 113.392 62.4872 114.917 64.5762 114.917C66.6686 114.917 68.4481 113.392 68.7645 111.324C69.0843 109.259 67.8493 107.268 65.8555 106.639V103.658C65.8555 102.086 67.1314 100.814 68.7033 100.811H83.1359C83.8334 100.811 84.4015 100.249 84.4117 99.5516L84.4355 93.9888H87.416V106.638C85.4222 107.268 84.1872 109.258 84.507 111.323C84.8235 113.389 86.6029 114.913 88.692 114.913C90.7844 114.913 92.5639 113.389 92.8803 111.323C93.2001 109.258 91.965 107.268 89.9713 106.638V93.9853H92.5775L92.6286 99.572C92.649 100.259 93.2138 100.811 93.901 100.811H108.293C109.865 100.811 111.14 102.086 111.144 103.658V106.639C109.15 107.268 107.915 109.259 108.231 111.324C108.551 113.392 110.331 114.917 112.42 114.917C114.512 114.917 116.292 113.392 116.608 111.324C116.928 109.259 115.693 107.268 113.699 106.639V103.658C113.696 100.678 111.277 98.2587 108.296 98.2553H95.1395L95.1157 93.9854H109.416C111.223 94.0092 112.88 92.9817 113.662 91.352H122.641H122.638C124.21 91.3554 125.486 92.6278 125.486 94.1997V102.137C123.492 102.767 122.257 104.757 122.577 106.823C122.893 108.888 124.672 110.415 126.762 110.415C128.854 110.415 130.63 108.888 130.95 106.823C131.27 104.757 130.031 102.767 128.041 102.137V94.1997C128.037 91.2192 125.618 88.8002 122.635 88.7968H114.516C114.949 86.718 114.591 84.5506 113.513 82.7201C107.167 80.5664 102.724 81.6552 99.9304 86.0646V86.0612C99.5527 86.6566 98.7634 86.8336 98.168 86.4559C97.5725 86.0816 97.3956 85.2923 97.7733 84.6969C101.029 79.5593 106.143 77.9432 112.975 79.8792C112.417 74.2483 107.688 69.9575 102.03 69.9514C101.741 69.9514 101.438 69.9617 101.139 69.9889C100.57 70.0331 100.04 69.6963 99.8388 69.1621C98.226 64.8649 94.1228 62.0137 89.533 62.0001C85.6781 61.9865 82.1057 64.0007 80.1218 67.3043C84.7763 71.8601 87.0695 77.219 86.9435 83.2481C86.9299 83.9422 86.3651 84.4968 85.6711 84.4968H85.6405C84.9362 84.4832 84.3782 83.898 84.3918 83.1937C84.5109 77.658 82.3946 72.9254 77.9374 68.7437C77.3386 68.6416 76.7296 68.5906 76.124 68.5906C72.6093 68.5191 69.319 70.312 67.4749 73.3061Z" fill="white"/>
</svg>
