<svg width="267" height="267" viewBox="0 0 267 267" fill="none" xmlns="http://www.w3.org/2000/svg">
<rect width="267" height="267" rx="51" fill="url(#paint0_linear_1065_190)"/>
<rect x="7" y="7" width="253" height="253" rx="43" fill="#D9D9D9"/>
<rect x="7" y="7" width="253" height="253" rx="43" fill="url(#paint1_linear_1065_190)"/>
<rect x="11" y="11" width="245" height="245" rx="43" fill="#D9D9D9"/>
<rect x="11" y="11" width="245" height="245" rx="43" fill="url(#paint2_linear_1065_190)"/>
<g style="mix-blend-mode:soft-light">
<path d="M182.836 135.602C191.84 140.879 197.891 150.629 197.91 161.793C197.942 178.598 184.293 192.246 167.43 192.273C150.567 192.305 136.871 178.703 136.84 161.898C136.82 150.734 142.836 140.965 151.824 135.652L160.598 150.43C160.817 150.8 160.692 151.277 160.336 151.52C157.016 153.77 154.84 157.566 154.848 161.867C154.86 168.762 160.481 174.344 167.398 174.328C174.317 174.316 179.914 168.718 179.902 161.824C179.895 157.524 177.707 153.734 174.379 151.496C174.024 151.254 173.895 150.777 174.113 150.406L182.836 135.602Z" fill="white"/>
<path d="M115.442 135.422C110.886 132.879 105.753 131.547 100.535 131.555C83.668 131.555 70 145.18 70 161.985C70 178.789 83.668 192.415 100.535 192.415C117.481 192.415 131.485 178.078 131.059 161.203H113.871C113.418 161.203 113.063 161.586 113.059 162.035C113.016 168.758 107.387 174.469 100.535 174.469C93.613 174.469 88.008 168.879 88.008 161.984C88.008 155.09 93.613 149.5 100.535 149.5C102.344 149.5 104.067 149.883 105.621 150.574C106.004 150.742 106.457 150.614 106.668 150.258L115.442 135.422Z" fill="white"/>
<path d="M117.91 130.648C108.918 125.355 102.883 115.594 102.883 104.43C102.883 87.625 116.555 74 133.418 74C150.281 74 163.953 87.625 163.953 104.43C163.953 115.594 157.918 125.355 148.926 130.648L140.175 115.86C139.956 115.49 140.081 115.013 140.441 114.77C143.761 112.524 145.944 108.731 145.944 104.43C145.944 97.536 140.335 91.946 133.417 91.946C126.499 91.946 120.89 97.536 120.89 104.431C120.89 108.731 123.073 112.524 126.394 114.771C126.754 115.013 126.878 115.489 126.659 115.861L117.91 130.648Z" fill="white"/>
</g>
<defs>
<linearGradient id="paint0_linear_1065_190" x1="133.5" y1="0" x2="133.5" y2="267" gradientUnits="userSpaceOnUse">
<stop stop-color="#6D7AFF"/>
<stop offset="0.435" stop-color="#2631AB"/>
<stop offset="1" stop-color="#4353FF"/>
</linearGradient>
<linearGradient id="paint1_linear_1065_190" x1="236.5" y1="249.5" x2="21" y2="32.5" gradientUnits="userSpaceOnUse">
<stop stop-color="#6D7AFF"/>
<stop offset="0.435" stop-color="#2631AB"/>
<stop offset="1" stop-color="#4353FF"/>
</linearGradient>
<linearGradient id="paint2_linear_1065_190" x1="133.5" y1="11" x2="87" y2="268" gradientUnits="userSpaceOnUse">
<stop stop-color="#4353FF"/>
<stop offset="1" stop-color="#6D7AFF"/>
</linearGradient>
</defs>
</svg>
