<svg width="267" height="267" viewBox="0 0 267 267" fill="none" xmlns="http://www.w3.org/2000/svg">
<rect width="267" height="267" rx="51" fill="url(#paint0_linear_1065_231)"/>
<rect x="7" y="7" width="253" height="253" rx="43" fill="#D9D9D9"/>
<rect x="7" y="7" width="253" height="253" rx="43" fill="url(#paint1_linear_1065_231)"/>
<rect x="11" y="11" width="245" height="245" rx="43" fill="#D9D9D9"/>
<rect x="11" y="11" width="245" height="245" rx="43" fill="url(#paint2_linear_1065_231)"/>
<g style="mix-blend-mode:soft-light">
<path fill-rule="evenodd" clip-rule="evenodd" d="M169.263 122.329H172.913V141.026H188.734L186.41 144.678H169.263V122.329ZM140.609 144.678L127.111 123.38C126.281 121.998 124.069 121.998 123.128 123.436L109.742 144.678H114.167L118.205 138.261H126.835L129.104 134.609H120.474L125.177 127.253L136.185 144.678H140.609ZM148.822 122.337C142.655 122.337 138.595 127.336 138.595 133.504C138.595 139.67 142.656 144.672 148.822 144.672L163.817 144.654L166.164 141.034H148.932C144.775 141.034 142.343 137.662 142.343 133.504C142.343 129.345 144.774 125.974 148.932 125.974H164.282L166.548 122.325L148.822 122.337ZM55.2274 125.974H71.0474C75.2061 125.974 77.6376 129.345 77.6376 133.504C77.6376 137.662 75.2071 141.034 71.0474 141.034H55.2274C51.0687 141.034 48.6382 137.662 48.6382 133.504C48.6382 129.345 51.0687 125.974 55.2274 125.974ZM55.2274 122.337C49.0596 122.337 45 127.336 45 133.504C45 139.67 49.0596 144.672 55.2274 144.672H71.0474C77.2152 144.672 81.2748 139.67 81.2748 133.504C81.2748 127.336 77.2152 122.337 71.0474 122.337H55.2274ZM192.634 135.274C193.228 138.579 195.502 141.034 199.051 141.034H216.283L213.934 144.654L198.941 144.672C192.772 144.672 188.715 139.67 188.715 133.504C188.715 127.336 192.773 122.337 198.941 122.337L216.666 122.326L214.402 125.975H199.052C195.552 125.975 193.268 128.388 192.635 131.624H214.292L211.969 135.275L192.634 135.274ZM101.914 135.598C103.653 135.567 105.31 134.855 106.529 133.615C107.747 132.375 108.43 130.706 108.43 128.967C108.43 127.228 107.747 125.559 106.529 124.319C105.31 123.079 103.653 122.367 101.914 122.337L83.3 122.328V144.677H87.394V125.975H101.914C102.708 125.975 103.469 126.29 104.03 126.851C104.592 127.412 104.907 128.174 104.907 128.967C104.907 129.761 104.592 130.522 104.03 131.083C103.469 131.644 102.708 131.96 101.914 131.96H90.2702L103.406 144.652H108.691L99.2869 135.606L101.914 135.598ZM220.49 122.35C221.439 122.35 222.19 123.1 222.19 124.094C222.19 125.105 221.44 125.848 220.49 125.848C219.529 125.848 218.781 125.105 218.781 124.094C218.781 123.1 219.529 122.35 220.49 122.35V122C219.335 122 218.359 122.888 218.359 124.093C218.359 125.31 219.336 126.198 220.49 126.198C221.635 126.198 222.612 125.31 222.612 124.093C222.612 122.888 221.635 122 220.49 122V122.35Z" fill="white"/>
<path fill-rule="evenodd" clip-rule="evenodd" d="M220.047 123.2H220.548C220.803 123.2 221.074 123.255 221.074 123.555C221.074 123.927 220.796 123.951 220.484 123.951H220.046V124.262H220.468L221.108 125.312H221.518L220.829 124.246C221.185 124.201 221.456 124.013 221.456 123.58C221.456 123.102 221.172 122.89 220.601 122.89H219.678V125.312H220.045V123.2H220.047Z" fill="white"/>
</g>
<defs>
<linearGradient id="paint0_linear_1065_231" x1="133.5" y1="0" x2="133.5" y2="267" gradientUnits="userSpaceOnUse">
<stop stop-color="#6D7AFF"/>
<stop offset="0.435" stop-color="#2631AB"/>
<stop offset="1" stop-color="#4353FF"/>
</linearGradient>
<linearGradient id="paint1_linear_1065_231" x1="236.5" y1="249.5" x2="21" y2="32.5" gradientUnits="userSpaceOnUse">
<stop stop-color="#6D7AFF"/>
<stop offset="0.435" stop-color="#2631AB"/>
<stop offset="1" stop-color="#4353FF"/>
</linearGradient>
<linearGradient id="paint2_linear_1065_231" x1="133.5" y1="11" x2="87" y2="268" gradientUnits="userSpaceOnUse">
<stop stop-color="#4353FF"/>
<stop offset="1" stop-color="#6D7AFF"/>
</linearGradient>
</defs>
</svg>
