<svg width="179" height="57" viewBox="0 0 179 57" fill="none" xmlns="http://www.w3.org/2000/svg">
<path d="M28.1367 56.2891C12.6779 56.2891 0.136719 43.7478 0.136719 28.2891C0.136719 12.8213 12.6689 0.289062 28.1367 0.289062C43.5955 0.289062 56.1367 12.8213 56.1367 28.2891C56.1367 43.7478 43.5955 56.2891 28.1367 56.2891Z" fill="white"/>
<path d="M50.2101 13.9741C50.7398 15.6978 51.0361 17.5201 51.0361 19.4143C51.0361 25.5278 48.0287 30.8962 43.4593 34.2627C35.5144 40.1249 23.9338 40.1338 7.94531 45.17C12.7751 50.9425 20.0287 54.614 28.1351 54.614C42.6693 54.614 54.4564 42.827 54.4564 28.2928C54.4564 23.0142 52.8943 18.1037 50.2101 13.9741Z" fill="#0164A8"/>
<path d="M43.9206 7.2299C39.5218 3.92628 34.0546 1.96924 28.1386 1.96924C13.6045 1.96924 1.81738 13.7563 1.81738 28.2905C1.81738 34.1437 3.72953 39.5391 6.95236 43.9109C24.6555 38.758 38.633 24.8702 43.9206 7.2299Z" fill="#ED3136"/>
<path d="M118.553 27.8586V27.8047C118.535 27.5713 118.49 27.1942 118.445 26.7813C118.346 26.0362 118.185 25.3 117.96 24.5908C116.264 19.2404 111.721 15.7842 106.38 15.7842C105.85 15.7842 105.293 15.8201 104.755 15.8919C97.9051 16.7717 93.2548 22.966 94.1706 30.0041C94.9965 36.369 100.123 40.7319 106.362 40.7319C106.891 40.7319 107.439 40.696 107.987 40.6332C111.317 40.2113 114.235 38.8199 116.425 36.1175C116.551 35.956 116.614 35.7676 116.587 35.5881C116.569 35.4353 116.479 35.2828 116.308 35.166C115.94 34.9058 114.63 34.2683 113.921 33.9273C113.705 33.8194 113.543 33.7387 113.445 33.6938C113.229 33.586 113.077 33.5322 112.933 33.5322C112.762 33.5322 112.601 33.6219 112.439 33.8105C111.03 35.4534 109.243 36.3151 107.421 36.5485C107.062 36.5934 106.712 36.6204 106.371 36.6204C103.049 36.6204 99.6917 34.394 98.7222 31.3417L98.6952 31.2609L98.7671 31.2251C98.9376 31.1353 100.491 30.4172 102.798 30.4172C103.085 30.4172 103.372 30.4262 103.66 30.453C104.324 30.4979 104.988 30.5876 105.689 30.6774C106.981 30.848 108.328 31.0275 109.89 31.0275C110.859 31.0275 111.802 30.9557 112.772 30.821C116.578 30.0938 118.086 29.0256 118.095 29.0076C118.607 28.6665 118.589 28.3792 118.553 27.8586ZM114.253 26.3055C113.624 26.512 112.762 26.6825 111.694 26.8172C111.182 26.889 110.626 26.916 109.961 26.916C108.848 26.916 107.645 26.8262 106.478 26.7364H106.433C105.356 26.6556 104.333 26.5748 103.354 26.5748C102.654 26.5748 102.008 26.6197 101.397 26.6915C99.5658 26.9249 98.1204 27.4995 98.1204 27.4995L98.1383 27.3469C98.4974 23.6841 101.577 20.5421 105.311 20.0484C105.652 20.0035 106.011 19.9855 106.361 19.9855C109.881 19.9855 113.292 22.6518 114.306 26.1888L114.324 26.2786L114.253 26.3055Z" fill="white"/>
<path d="M178.179 17.1908C178.179 16.8676 177.919 16.6162 177.604 16.6162H174.453C174.139 16.6162 173.879 16.8766 173.879 17.1908V39.5709C173.879 39.8851 174.139 40.1455 174.453 40.1455H177.604C177.919 40.1455 178.179 39.8851 178.179 39.5709V17.1908Z" fill="white"/>
<path d="M176.029 8.62842C174.467 8.62842 173.184 9.90319 173.184 11.4742C173.184 13.0362 174.467 14.311 176.029 14.311C177.6 14.311 178.875 13.0362 178.875 11.4742C178.875 9.91216 177.6 8.62842 176.029 8.62842Z" fill="white"/>
<path d="M134.194 40.7477C134.391 40.7567 134.598 40.7656 134.795 40.7656C138.027 40.7656 141.043 39.5178 143.279 37.2645C145.541 34.9753 146.789 31.8243 146.789 28.404C146.789 21.3299 141.34 15.791 134.382 15.791C128.717 15.791 123.942 19.5166 122.478 25.0645C122.227 26.0071 121.976 28.4041 121.976 30.792V48.3603C121.976 48.6835 122.227 48.9439 122.55 48.9439L125.683 48.9349C126.006 48.9349 126.267 48.6745 126.267 48.3603V37.2915L126.428 37.453C127.954 38.9253 130.8 40.5861 134.194 40.7477ZM134.328 20.0372C138.79 20.0372 142.291 23.7088 142.291 28.395C142.291 33.108 138.969 36.672 134.571 36.672C132.344 36.672 130.289 35.873 128.78 34.4366C127.227 32.9554 126.365 30.8547 126.365 28.5476C126.365 23.8525 129.938 20.0372 134.328 20.0372Z" fill="white"/>
<path d="M78.0482 40.7477C78.2456 40.7567 78.4522 40.7656 78.6496 40.7656C81.8904 40.7656 84.8978 39.5178 87.1331 37.2645C89.3953 34.9753 90.6432 31.8243 90.6432 28.404C90.6432 21.3299 85.1851 15.791 78.2367 15.791C72.5721 15.791 67.7872 19.5166 66.3329 25.0645C66.0814 26.0071 65.8301 28.4041 65.8301 30.792V48.3603C65.8301 48.6835 66.0904 48.9439 66.4046 48.9439L69.5376 48.9349C69.8609 48.9349 70.1211 48.6745 70.1211 48.3603L70.1033 37.2735L70.2649 37.4351C71.8 38.9253 74.6458 40.5861 78.0482 40.7477ZM78.1828 20.0372C82.6444 20.0372 86.1456 23.7088 86.1456 28.395C86.1456 33.108 82.8331 36.672 78.4251 36.672C76.1988 36.672 74.1431 35.873 72.6348 34.4366C71.0818 32.9554 70.22 30.8547 70.22 28.5476C70.2111 23.8525 73.793 20.0372 78.1828 20.0372Z" fill="white"/>
<path d="M149.795 36.8267C152.515 39.3135 155.487 40.7318 159.347 40.7318H159.464C166.125 40.6869 169.105 37.0512 169.105 33.4693C169.105 28.5139 164.419 27.1583 162.992 26.8621C162.534 26.7723 162.049 26.6825 161.564 26.5838C160.406 26.3594 159.203 26.126 158.108 25.8297C157.345 25.6232 154.84 24.7883 154.84 22.9211C154.84 20.8653 157.121 19.7611 159.266 19.7611C161.071 19.7611 162.57 20.0663 164.491 21.5655C164.635 21.6822 164.85 21.8169 165.11 21.8169C165.299 21.8169 165.487 21.7451 165.676 21.6104C166.205 21.2154 167.184 20.3985 167.83 19.7521C167.983 19.5995 168.055 19.4289 168.046 19.2494C168.028 18.9801 167.83 18.7556 167.723 18.6659C165.155 16.628 162.677 15.7932 159.194 15.7842H159.176C154.185 15.7842 150.414 18.9891 150.414 23.2353C150.414 26.6017 153.18 28.9987 158.207 29.9862L161.349 30.5876C163.414 30.9647 164.581 32.0598 164.536 33.5949C164.5 35.0942 162.659 36.6472 159.643 36.6472C157.174 36.6472 155.011 35.6867 153.188 34.0348L153.161 34.0079C153.036 33.8912 152.883 33.7476 152.677 33.7476C152.533 33.7476 152.381 33.8194 152.21 33.945C152.021 34.0977 149.921 35.7584 149.696 35.9919C149.598 36.0996 149.544 36.2164 149.553 36.3419C149.553 36.5395 149.678 36.719 149.795 36.8267Z" fill="white"/>
</svg>
