<svg width="179" height="179" viewBox="0 0 179 179" fill="none" xmlns="http://www.w3.org/2000/svg">
<path d="M89.4297 178C40.6821 178 1.13477 138.452 1.13477 89.7051C1.13477 40.9291 40.6537 1.41016 89.4297 1.41016C138.177 1.41016 177.725 40.9291 177.725 89.7051C177.725 138.452 138.177 178 89.4297 178Z" fill="#131317" fill-opacity="0.5" stroke="white" stroke-opacity="0.1"/>
<path d="M159.034 44.5581C160.705 49.9934 161.639 55.7401 161.639 61.7132C161.639 80.9914 152.155 97.9201 137.746 108.536C112.693 127.022 76.1747 127.05 25.7568 142.931C40.9869 161.134 63.8604 172.711 89.4232 172.711C135.255 172.711 172.424 135.542 172.424 89.7105C172.424 73.065 167.499 57.5801 159.034 44.5581Z" fill="#07070D"/>
<path d="M139.199 23.2945C125.327 12.8769 108.087 6.70557 89.4318 6.70557C43.6 6.70557 6.43066 43.8749 6.43066 89.7068C6.43066 108.164 12.4604 125.178 22.6233 138.964C78.4481 122.715 122.525 78.9211 139.199 23.2945Z" fill="#07070D"/>
</svg>
