<svg width="19" height="19" viewBox="0 0 19 19" fill="none" xmlns="http://www.w3.org/2000/svg">
<path d="M16.3126 17.1967C15.9515 17.748 15.3242 18.0711 14.6589 18.0331C13.9936 17.9951 13.1382 17.9 12.5489 17.748C9.9257 17.0636 7.20747 15.4289 4.90742 13.1289C2.60738 10.8288 0.972626 8.11057 0.288314 5.48738C0.136245 4.89811 0.0602105 4.06173 0.00318451 3.39643C-0.0348328 2.75014 0.269315 2.12286 0.820566 1.76169L3.15863 0.20298C3.7669 -0.196202 4.58428 0.0128861 4.90742 0.65918L6.80829 4.32786C7.07441 4.84109 6.94135 5.48739 6.48514 5.84855L4.77436 7.17916C5.45867 8.45274 6.10496 9.4792 7.35953 10.7148C8.51906 11.8743 9.52652 12.5586 10.8381 13.2619L12.1877 11.5321C12.5489 11.0759 13.1952 10.9239 13.7084 11.209L17.3961 13.1098C18.0424 13.433 18.2515 14.2504 17.8523 14.8587L16.3126 17.1967Z" fill="white"/>
</svg>
