<svg width="267" height="267" viewBox="0 0 267 267" fill="none" xmlns="http://www.w3.org/2000/svg">
<rect width="267" height="267" rx="51" fill="url(#paint0_linear_1065_86)"/>
<rect x="7" y="7" width="253" height="253" rx="43" fill="#D9D9D9"/>
<rect x="7" y="7" width="253" height="253" rx="43" fill="url(#paint1_linear_1065_86)"/>
<rect x="11" y="11" width="245" height="245" rx="43" fill="#D9D9D9"/>
<rect x="11" y="11" width="245" height="245" rx="43" fill="url(#paint2_linear_1065_86)"/>
<g style="mix-blend-mode:soft-light">
<path d="M134 104.294C167.209 104.294 192.745 118.451 192.745 134C192.745 149.549 167.189 163.706 134 163.706C100.791 163.706 75.255 149.549 75.255 134C75.255 118.451 100.811 104.294 134 104.294ZM134 101C99.7644 101 72 115.765 72 134C72 152.235 99.7644 167 134 167C168.236 167 196 152.235 196 134C196 115.765 168.236 101 134 101ZM114.276 131.353C112.746 139.294 107.34 138.471 100.694 138.471L103.349 124.627C110.711 124.627 115.71 123.824 114.276 131.353ZM90.8713 152.49H97.9819L99.6675 143.706C107.631 143.706 112.571 144.294 117.144 139.961C122.201 135.255 123.518 126.882 119.914 122.686C118.035 120.49 115.012 119.412 110.905 119.412H97.2069L90.8713 152.49ZM126.851 110.608H133.923L132.237 119.392C138.34 119.392 143.998 118.941 146.729 121.49C149.597 124.157 148.221 127.569 145.121 143.667H137.952C140.936 128.098 141.498 126.804 140.413 125.627C139.367 124.49 136.984 124.725 131.229 124.725L127.587 143.667H120.515L126.851 110.608ZM169.844 131.353C168.294 139.412 162.733 138.471 156.262 138.471L158.916 124.627C166.318 124.627 171.277 123.824 169.844 131.353ZM146.439 152.49H153.569L155.254 143.706C163.624 143.706 168.255 144.196 172.731 139.961C177.788 135.255 179.105 126.882 175.501 122.686C173.622 120.49 170.599 119.412 166.492 119.412H152.794L146.439 152.49Z" fill="white"/>
</g>
<defs>
<linearGradient id="paint0_linear_1065_86" x1="133.5" y1="0" x2="133.5" y2="267" gradientUnits="userSpaceOnUse">
<stop stop-color="#6D7AFF"/>
<stop offset="0.435" stop-color="#2631AB"/>
<stop offset="1" stop-color="#4353FF"/>
</linearGradient>
<linearGradient id="paint1_linear_1065_86" x1="236.5" y1="249.5" x2="21" y2="32.5" gradientUnits="userSpaceOnUse">
<stop stop-color="#6D7AFF"/>
<stop offset="0.435" stop-color="#2631AB"/>
<stop offset="1" stop-color="#4353FF"/>
</linearGradient>
<linearGradient id="paint2_linear_1065_86" x1="133.5" y1="11" x2="87" y2="268" gradientUnits="userSpaceOnUse">
<stop stop-color="#4353FF"/>
<stop offset="1" stop-color="#6D7AFF"/>
</linearGradient>
</defs>
</svg>
