<svg width="177" height="177" viewBox="0 0 177 177" fill="none" xmlns="http://www.w3.org/2000/svg">
<circle cx="88.5" cy="88.5" r="88.5" fill="#4353FF"/>
<path d="M56.2191 75.5626C55.387 79.8009 58.141 83.9103 62.3753 84.7501C62.8792 84.8438 63.3948 84.8907 63.9065 84.8907C65.4495 84.8946 66.9573 84.4376 68.2346 83.5782C69.9573 82.422 71.1487 80.629 71.5471 78.5938C71.6252 78.2383 71.6721 77.879 71.6877 77.5157L76.1096 74.5469C76.2971 75.3829 76.3909 76.2383 76.3909 77.0938C76.3909 77.9063 76.3127 78.7188 76.1565 79.5157C74.8127 86.2891 68.2346 90.6957 61.4615 89.3516C54.6881 88.0078 50.2815 81.4297 51.6256 74.6566C52.7936 68.8207 57.9068 64.6096 63.8596 64.5786C64.6838 64.5786 65.5041 64.6607 66.3127 64.8286C67.9533 65.1567 69.508 65.8091 70.8908 66.7505L66.4533 69.7193C66.1134 69.5943 65.7619 69.4967 65.4064 69.4224C61.1759 68.5904 57.0707 71.3361 56.2191 75.5626ZM85.3441 81.3282C86.1644 77.2305 85.7855 72.9805 84.2503 69.0942L78.8753 72.7036C79.594 75.1059 79.7112 77.6489 79.219 80.1098C78.4143 84.1723 76.0276 87.7543 72.5862 90.059C69.1448 92.3637 64.926 93.2074 60.8632 92.4028C56.7968 91.5981 53.2187 89.2114 50.914 85.77C48.6093 82.3286 47.7656 78.1098 48.5663 74.047C49.371 69.9806 51.7577 66.4025 55.1991 64.0978C58.6405 61.7931 62.8553 60.9455 66.9221 61.7501C69.3909 62.2345 71.7033 63.3165 73.6565 64.9063L79.0315 61.2969C74.3245 56.7774 67.8435 54.5977 61.3595 55.3477C54.879 56.0977 49.0705 59.7071 45.5195 65.1836C41.9687 70.6602 41.0507 77.4336 43.0117 83.6566C44.9726 89.8832 49.6094 94.9066 55.6597 97.3596C61.7066 99.8088 68.5347 99.4338 74.2767 96.3323C80.0189 93.2346 84.0775 87.7307 85.3427 81.3283L85.3441 81.3282ZM66.6761 73.336C66.1214 72.9141 65.4808 72.6212 64.7972 72.4844C64.5003 72.4219 64.1956 72.3907 63.8909 72.3907C61.6526 72.3946 59.7307 73.9766 59.2971 76.1719C59.0549 77.3907 59.3088 78.6563 60.0002 79.6875C60.6917 80.7187 61.7659 81.4336 62.9846 81.6719C64.5588 81.9961 66.1917 81.4844 67.2971 80.3164C68.4026 79.1445 68.8244 77.4883 68.4104 75.9336L105.156 51.3286C105.5 51.102 105.738 50.7427 105.821 50.3403C105.899 49.9341 105.813 49.5122 105.578 49.1723C105.102 48.4575 104.141 48.2661 103.422 48.7348L75.9221 67.1408L66.6761 73.336ZM100.906 43L88.0471 51.5938L87.2033 55.8282L100.078 47.2188L100.906 43ZM92.4373 63.609L96.6561 64.4527L109.5 55.8433L105.297 55.0152L92.4373 63.609ZM132.503 131.734H126.253V87.984H115.315V131.734H109.065V95.796H98.1273V131.734H91.8773V102.046H80.9393V131.734H74.6893V108.296H63.7513V131.734H57.5013C56.638 131.734 55.9388 132.433 55.9388 133.296C55.9388 134.16 56.638 134.859 57.5013 134.859H132.501C133.365 134.859 134.064 134.16 134.064 133.296C134.064 132.433 133.365 131.734 132.501 131.734H132.503Z" fill="white"/>
</svg>
