<svg width="30" height="30" viewBox="0 0 30 30" fill="none" xmlns="http://www.w3.org/2000/svg">
<g opacity="0.7">
<path d="M17.1428 6.96415C17.1428 6.54033 17.0172 6.12603 16.7817 5.77364C16.5462 5.42125 16.2116 5.14659 15.82 4.98441C15.4285 4.82222 14.9976 4.77978 14.5819 4.86246C14.1663 4.94515 13.7844 5.14923 13.4847 5.44892C13.1851 5.7486 12.981 6.13042 12.8983 6.5461C12.8156 6.96177 12.858 7.39263 13.0202 7.78418C13.1824 8.17574 13.4571 8.51041 13.8095 8.74587C14.1619 8.98133 14.5762 9.107 15 9.107C15.5683 9.107 16.1133 8.88124 16.5152 8.47938C16.9171 8.07751 17.1428 7.53247 17.1428 6.96415ZM13.9285 6.96415C13.9285 6.75224 13.9914 6.54509 14.1091 6.36889C14.2268 6.1927 14.3942 6.05537 14.59 5.97428C14.7857 5.89318 15.0012 5.87196 15.209 5.91331C15.4168 5.95465 15.6077 6.05669 15.7576 6.20653C15.9074 6.35638 16.0095 6.54729 16.0508 6.75512C16.0922 6.96296 16.0709 7.17839 15.9898 7.37417C15.9088 7.56994 15.7714 7.73728 15.5952 7.85501C15.419 7.97274 15.2119 8.03558 15 8.03558C14.7158 8.03558 14.4433 7.92269 14.2424 7.72176C14.0414 7.52083 13.9285 7.24831 13.9285 6.96415Z" fill="white"/>
<path d="M8.85533 25.2546L6.16819 23.6475C6.08688 23.5988 5.99411 23.5725 5.89933 23.5713C5.80455 23.5702 5.71116 23.5942 5.6287 23.6409C5.54624 23.6877 5.47765 23.7554 5.42994 23.8373C5.38223 23.9192 5.3571 24.0123 5.35712 24.1071V27.3214C5.3571 27.4162 5.38223 27.5093 5.42994 27.5912C5.47765 27.6731 5.54624 27.7409 5.6287 27.7876C5.71116 27.8343 5.80455 27.8583 5.89933 27.8572C5.99411 27.856 6.08688 27.8298 6.16819 27.781L8.85533 26.1739C8.93478 26.1263 9.00055 26.059 9.04621 25.9784C9.09187 25.8979 9.11588 25.8069 9.11588 25.7143C9.11588 25.6217 9.09187 25.5306 9.04621 25.4501C9.00055 25.3695 8.93478 25.3022 8.85533 25.2546ZM6.42855 26.3769V25.0516L7.5364 25.7143L6.42855 26.3769Z" fill="white"/>
<path d="M24.1072 24.1072H21.4286C21.2865 24.1072 21.1503 24.1636 21.0498 24.2641C20.9493 24.3646 20.8929 24.5008 20.8929 24.6429V27.3215C20.8929 27.4635 20.9493 27.5998 21.0498 27.7003C21.1503 27.8007 21.2865 27.8572 21.4286 27.8572H24.1072C24.2492 27.8572 24.3855 27.8007 24.486 27.7003C24.5864 27.5998 24.6429 27.4635 24.6429 27.3215V24.6429C24.6429 24.5008 24.5864 24.3646 24.486 24.2641C24.3855 24.1636 24.2492 24.1072 24.1072 24.1072ZM23.5715 26.7857H21.9643V25.1786H23.5715V26.7857Z" fill="white"/>
<path d="M27.8571 19.2857H23.5714V16.6071C23.5714 16.0388 23.3457 15.4938 22.9438 15.0919C22.5419 14.6901 21.9969 14.4643 21.4286 14.4643H17.1429V13.9286C17.1429 13.6444 17.03 13.3719 16.829 13.171C16.6281 12.97 16.3556 12.8571 16.0714 12.8571H15.5357V10.7143H19.8214C20.3897 10.7143 20.9348 10.4885 21.3367 10.0867C21.7385 9.68479 21.9643 9.13975 21.9643 8.57143V2.14286C21.9643 1.57454 21.7385 1.02949 21.3367 0.627628C20.9348 0.225765 20.3897 0 19.8214 0H10.1786C9.61025 0 9.06521 0.225765 8.66334 0.627628C8.26148 1.02949 8.03571 1.57454 8.03571 2.14286V8.57143C8.03571 9.13975 8.26148 9.68479 8.66334 10.0867C9.06521 10.4885 9.61025 10.7143 10.1786 10.7143H14.4643V12.8571H13.9286C13.6444 12.8571 13.3719 12.97 13.171 13.171C12.97 13.3719 12.8571 13.6444 12.8571 13.9286V14.4643H8.57143C8.00311 14.4643 7.45806 14.6901 7.0562 15.0919C6.65434 15.4938 6.42857 16.0388 6.42857 16.6071V19.2857H2.14286C1.57454 19.2857 1.02949 19.5115 0.627628 19.9133C0.225765 20.3152 0 20.8603 0 21.4286V27.8571C0 28.4255 0.225765 28.9705 0.627628 29.3724C1.02949 29.7742 1.57454 30 2.14286 30H11.7857C12.354 30 12.8991 29.7742 13.3009 29.3724C13.7028 28.9705 13.9286 28.4255 13.9286 27.8571V21.4286C13.9286 20.8603 13.7028 20.3152 13.3009 19.9133C12.8991 19.5115 12.354 19.2857 11.7857 19.2857H7.5V16.6071C7.5 16.323 7.61288 16.0505 7.81381 15.8495C8.01475 15.6486 8.28727 15.5357 8.57143 15.5357H12.8571V16.0714C12.8571 16.3556 12.97 16.6281 13.171 16.829C13.3719 17.03 13.6444 17.1429 13.9286 17.1429H16.0714C16.3556 17.1429 16.6281 17.03 16.829 16.829C17.03 16.6281 17.1429 16.3556 17.1429 16.0714V15.5357H21.4286C21.7127 15.5357 21.9853 15.6486 22.1862 15.8495C22.3871 16.0505 22.5 16.323 22.5 16.6071V19.2857H18.2143C17.646 19.2857 17.1009 19.5115 16.6991 19.9133C16.2972 20.3152 16.0714 20.8603 16.0714 21.4286V27.8571C16.0714 28.4255 16.2972 28.9705 16.6991 29.3724C17.1009 29.7742 17.646 30 18.2143 30H27.8571C28.4255 30 28.9705 29.7742 29.3724 29.3724C29.7742 28.9705 30 28.4255 30 27.8571V21.4286C30 20.8603 29.7742 20.3152 29.3724 19.9133C28.9705 19.5115 28.4255 19.2857 27.8571 19.2857ZM9.10714 8.57143V3.75H13.3929C13.5349 3.75 13.6712 3.69356 13.7717 3.59309C13.8721 3.49263 13.9286 3.35637 13.9286 3.21429C13.9286 3.07221 13.8721 2.93594 13.7717 2.83548C13.6712 2.73501 13.5349 2.67857 13.3929 2.67857H9.10714V2.14286C9.10714 1.8587 9.22003 1.58617 9.42096 1.38524C9.62189 1.18431 9.89441 1.07143 10.1786 1.07143H19.8214C20.1056 1.07143 20.3781 1.18431 20.579 1.38524C20.78 1.58617 20.8929 1.8587 20.8929 2.14286V8.57143C20.8929 8.85559 20.78 9.12811 20.579 9.32904C20.3781 9.52997 20.1056 9.64286 19.8214 9.64286H10.1786C9.89441 9.64286 9.62189 9.52997 9.42096 9.32904C9.22003 9.12811 9.10714 8.85559 9.10714 8.57143ZM12.8571 21.4286V27.8571C12.8571 28.1413 12.7443 28.4138 12.5433 28.6148C12.3424 28.8157 12.0699 28.9286 11.7857 28.9286H2.14286C1.8587 28.9286 1.58617 28.8157 1.38524 28.6148C1.18431 28.4138 1.07143 28.1413 1.07143 27.8571V23.0357H5.35714C5.49922 23.0357 5.63548 22.9793 5.73595 22.8788C5.83642 22.7783 5.89286 22.6421 5.89286 22.5C5.89286 22.3579 5.83642 22.2217 5.73595 22.1212C5.63548 22.0207 5.49922 21.9643 5.35714 21.9643H1.07143V21.4286C1.07143 21.1444 1.18431 20.8719 1.38524 20.671C1.58617 20.47 1.8587 20.3571 2.14286 20.3571H11.7857C12.0699 20.3571 12.3424 20.47 12.5433 20.671C12.7443 20.8719 12.8571 21.1444 12.8571 21.4286ZM13.9286 16.0714V13.9286H16.0714V16.0714H13.9286ZM28.9286 27.8571C28.9286 28.1413 28.8157 28.4138 28.6148 28.6148C28.4138 28.8157 28.1413 28.9286 27.8571 28.9286H18.2143C17.9301 28.9286 17.6576 28.8157 17.4567 28.6148C17.2557 28.4138 17.1429 28.1413 17.1429 27.8571V23.0357H21.4286C21.5707 23.0357 21.7069 22.9793 21.8074 22.8788C21.9078 22.7783 21.9643 22.6421 21.9643 22.5C21.9643 22.3579 21.9078 22.2217 21.8074 22.1212C21.7069 22.0207 21.5707 21.9643 21.4286 21.9643H17.1429V21.4286C17.1429 21.1444 17.2557 20.8719 17.4567 20.671C17.6576 20.47 17.9301 20.3571 18.2143 20.3571H27.8571C28.1413 20.3571 28.4138 20.47 28.6148 20.671C28.8157 20.8719 28.9286 21.1444 28.9286 21.4286V27.8571Z" fill="white"/>
<path d="M16.0714 3.75014H18.75C18.8921 3.75014 19.0283 3.6937 19.1288 3.59323C19.2293 3.49277 19.2857 3.35651 19.2857 3.21443C19.2857 3.07234 19.2293 2.93608 19.1288 2.83562C19.0283 2.73515 18.8921 2.67871 18.75 2.67871H16.0714C15.9293 2.67871 15.7931 2.73515 15.6926 2.83562C15.5921 2.93608 15.5357 3.07234 15.5357 3.21443C15.5357 3.35651 15.5921 3.49277 15.6926 3.59323C15.7931 3.6937 15.9293 3.75014 16.0714 3.75014Z" fill="white"/>
<path d="M26.7857 21.9641H24.1071C23.965 21.9641 23.8288 22.0206 23.7283 22.121C23.6279 22.2215 23.5714 22.3577 23.5714 22.4998C23.5714 22.6419 23.6279 22.7782 23.7283 22.8786C23.8288 22.9791 23.965 23.0355 24.1071 23.0355H26.7857C26.9278 23.0355 27.064 22.9791 27.1645 22.8786C27.265 22.7782 27.3214 22.6419 27.3214 22.4998C27.3214 22.3577 27.265 22.2215 27.1645 22.121C27.064 22.0206 26.9278 21.9641 26.7857 21.9641Z" fill="white"/>
<path d="M8.03571 23.0355H10.7143C10.8564 23.0355 10.9926 22.9791 11.0931 22.8786C11.1936 22.7782 11.25 22.6419 11.25 22.4998C11.25 22.3577 11.1936 22.2215 11.0931 22.121C10.9926 22.0206 10.8564 21.9641 10.7143 21.9641H8.03571C7.89363 21.9641 7.75737 22.0206 7.65691 22.121C7.55644 22.2215 7.5 22.3577 7.5 22.4998C7.5 22.6419 7.55644 22.7782 7.65691 22.8786C7.75737 22.9791 7.89363 23.0355 8.03571 23.0355Z" fill="white"/>
</g>
</svg>
