<svg width="267" height="267" viewBox="0 0 267 267" fill="none" xmlns="http://www.w3.org/2000/svg">
<rect width="267" height="267" rx="51" fill="url(#paint0_linear_1065_92)"/>
<rect x="7" y="7" width="253" height="253" rx="43" fill="#D9D9D9"/>
<rect x="7" y="7" width="253" height="253" rx="43" fill="url(#paint1_linear_1065_92)"/>
<rect x="11" y="11" width="245" height="245" rx="43" fill="#D9D9D9"/>
<rect x="11" y="11" width="245" height="245" rx="43" fill="url(#paint2_linear_1065_92)"/>
<g style="mix-blend-mode:soft-light">
<path d="M133.834 79.5576C106.023 79.5576 107.759 91.6178 107.759 91.6178L107.793 104.113H134.33V107.861H97.2458C97.2458 107.861 79.4551 105.841 79.4551 133.905C79.4551 161.963 94.9865 160.97 94.9865 160.97H104.257V147.948C104.257 147.948 103.757 132.416 119.542 132.416H145.86C145.86 132.416 160.648 132.656 160.648 118.124V94.0962C160.648 94.0962 162.894 79.5576 133.834 79.5576ZM119.199 87.9583C121.839 87.9583 123.975 90.0944 123.975 92.7338C123.975 95.3731 121.839 97.5092 119.199 97.5092C118.572 97.5101 117.95 97.3872 117.371 97.1476C116.791 96.9079 116.264 96.5562 115.82 96.1126C115.377 95.6689 115.025 95.1421 114.785 94.5623C114.546 93.9825 114.423 93.3612 114.424 92.7338C114.424 90.0944 116.56 87.9583 119.199 87.9583Z" fill="white"/>
<path d="M134.621 188.531C162.432 188.531 160.696 176.47 160.696 176.47L160.662 163.975H134.125V160.227H171.206C171.206 160.227 189 162.247 189 134.186C189 106.126 173.468 107.122 173.468 107.122H164.198V120.141C164.198 120.141 164.698 135.672 148.913 135.672H122.595C122.595 135.672 107.807 135.432 107.807 149.964V173.992C107.807 173.992 105.561 188.531 134.621 188.531ZM149.256 180.13C148.628 180.131 148.007 180.008 147.427 179.768C146.847 179.529 146.321 179.177 145.877 178.733C145.433 178.29 145.082 177.763 144.842 177.183C144.602 176.603 144.479 175.982 144.48 175.354C144.48 172.719 146.616 170.582 149.256 170.582C151.895 170.582 154.031 172.715 154.031 175.354C154.031 177.997 151.895 180.13 149.256 180.13Z" fill="white"/>
</g>
<defs>
<linearGradient id="paint0_linear_1065_92" x1="133.5" y1="0" x2="133.5" y2="267" gradientUnits="userSpaceOnUse">
<stop stop-color="#6D7AFF"/>
<stop offset="0.435" stop-color="#2631AB"/>
<stop offset="1" stop-color="#4353FF"/>
</linearGradient>
<linearGradient id="paint1_linear_1065_92" x1="236.5" y1="249.5" x2="21" y2="32.5" gradientUnits="userSpaceOnUse">
<stop stop-color="#6D7AFF"/>
<stop offset="0.435" stop-color="#2631AB"/>
<stop offset="1" stop-color="#4353FF"/>
</linearGradient>
<linearGradient id="paint2_linear_1065_92" x1="133.5" y1="11" x2="87" y2="268" gradientUnits="userSpaceOnUse">
<stop stop-color="#4353FF"/>
<stop offset="1" stop-color="#6D7AFF"/>
</linearGradient>
</defs>
</svg>
