<svg width="267" height="267" viewBox="0 0 267 267" fill="none" xmlns="http://www.w3.org/2000/svg">
<rect width="267" height="267" rx="51" fill="url(#paint0_linear_1065_53)"/>
<rect x="7" y="7" width="253" height="253" rx="43" fill="#D9D9D9"/>
<rect x="7" y="7" width="253" height="253" rx="43" fill="url(#paint1_linear_1065_53)"/>
<rect x="11" y="11" width="245" height="245" rx="43" fill="#D9D9D9"/>
<rect x="11" y="11" width="245" height="245" rx="43" fill="url(#paint2_linear_1065_53)"/>
<g style="mix-blend-mode:soft-light">
<path d="M133.061 142.852C138.375 142.852 142.682 138.544 142.682 133.231C142.682 127.918 138.375 123.61 133.061 123.61C127.748 123.61 123.441 127.918 123.441 133.231C123.441 138.544 127.748 142.852 133.061 142.852Z" fill="white"/>
<path fill-rule="evenodd" clip-rule="evenodd" d="M87.0666 127.302C84.7444 129.398 83.784 131.406 83.784 133.232C83.784 135.058 84.7444 137.066 87.0666 139.163C89.3885 141.259 92.8802 143.254 97.3945 144.978C106.407 148.419 119.016 150.596 133.06 150.596C147.105 150.596 159.714 148.419 168.726 144.978C173.241 143.254 176.732 141.259 179.054 139.163C181.376 137.066 182.337 135.058 182.337 133.232C182.337 131.406 181.376 129.398 179.054 127.302C176.732 125.206 173.241 123.211 168.726 121.487C159.714 118.046 147.105 115.868 133.06 115.868C119.016 115.868 106.407 118.046 97.3945 121.487C92.8802 123.211 89.3885 125.206 87.0666 127.302ZM95.7205 117.103C105.392 113.41 118.594 111.175 133.06 111.175C147.527 111.175 160.729 113.41 170.4 117.103C175.228 118.946 179.296 121.198 182.199 123.818C185.101 126.438 187.03 129.616 187.03 133.232C187.03 136.849 185.101 140.026 182.199 142.646C179.296 145.267 175.228 147.519 170.4 149.362C160.729 153.055 147.527 155.289 133.06 155.289C118.594 155.289 105.392 153.055 95.7205 149.362C90.8929 147.519 86.8245 145.267 83.9219 142.646C81.0196 140.026 79.091 136.849 79.091 133.232C79.091 129.616 81.0196 126.438 83.9219 123.818C86.8245 121.198 90.8929 118.946 95.7205 117.103Z" fill="white"/>
<path fill-rule="evenodd" clip-rule="evenodd" d="M115.2 90.4348C112.223 89.4718 110.004 89.6441 108.423 90.5572C106.841 91.4702 105.582 93.306 104.928 96.3652C104.274 99.4241 104.292 103.446 105.056 108.217C106.582 117.743 111.001 129.751 118.023 141.914C125.045 154.077 133.236 163.908 140.722 169.992C144.472 173.04 147.946 175.066 150.922 176.029C153.898 176.992 156.118 176.82 157.699 175.907C159.281 174.993 160.539 173.158 161.194 170.098C161.848 167.04 161.83 163.018 161.066 158.247C159.54 148.721 155.121 136.712 148.099 124.55C141.077 112.387 132.886 102.556 125.4 96.4715C121.65 93.4238 118.176 91.3976 115.2 90.4348ZM128.36 92.8297C136.393 99.3589 144.93 109.675 152.163 122.203C159.396 134.731 164.062 147.282 165.7 157.504C166.517 162.607 166.601 167.256 165.783 171.08C164.965 174.904 163.178 178.162 160.046 179.971C156.913 181.779 153.198 181.698 149.477 180.494C145.757 179.29 141.772 176.893 137.762 173.634C129.729 167.105 121.192 156.789 113.959 144.26C106.726 131.732 102.06 119.181 100.422 108.959C99.6048 103.857 99.521 99.2075 100.339 95.3836C101.157 91.5601 102.944 88.3013 106.076 86.4929C109.208 84.6845 112.924 84.7661 116.644 85.9696C120.365 87.1732 124.349 89.5705 128.36 92.8297Z" fill="white"/>
<path fill-rule="evenodd" clip-rule="evenodd" d="M161.194 96.3658C160.539 93.3066 159.281 91.4708 157.699 90.5577C156.118 89.6446 153.898 89.4724 150.922 90.4353C147.946 91.3981 144.472 93.4244 140.722 96.4721C133.236 102.557 125.045 112.388 118.023 124.55C111.001 136.713 106.582 148.722 105.056 158.247C104.292 163.019 104.274 167.04 104.928 170.099C105.582 173.158 106.841 174.994 108.423 175.907C110.004 176.82 112.223 176.992 115.2 176.029C118.176 175.067 121.65 173.04 125.4 169.993C132.886 163.908 141.076 154.077 148.099 141.914C155.121 129.752 159.539 117.743 161.066 108.217C161.83 103.446 161.848 99.4246 161.194 96.3658ZM165.699 108.96C164.062 119.182 159.396 131.733 152.163 144.261C144.93 156.789 136.393 167.105 128.36 173.635C124.349 176.894 120.365 179.291 116.644 180.495C112.924 181.698 109.208 181.78 106.076 179.971C102.944 178.163 101.157 174.904 100.339 171.081C99.5209 167.257 99.6047 162.607 100.422 157.505C102.06 147.283 106.726 134.732 113.959 122.204C121.192 109.676 129.729 99.3595 137.762 92.8302C141.772 89.571 145.757 87.1737 149.477 85.9701C153.197 84.7666 156.913 84.6851 160.046 86.4934C163.178 88.3018 164.965 91.5607 165.783 95.3842C166.601 99.208 166.517 103.857 165.699 108.96Z" fill="white"/>
</g>
<defs>
<linearGradient id="paint0_linear_1065_53" x1="133.5" y1="0" x2="133.5" y2="267" gradientUnits="userSpaceOnUse">
<stop stop-color="#6D7AFF"/>
<stop offset="0.435" stop-color="#2631AB"/>
<stop offset="1" stop-color="#4353FF"/>
</linearGradient>
<linearGradient id="paint1_linear_1065_53" x1="236.5" y1="249.5" x2="21" y2="32.5" gradientUnits="userSpaceOnUse">
<stop stop-color="#6D7AFF"/>
<stop offset="0.435" stop-color="#2631AB"/>
<stop offset="1" stop-color="#4353FF"/>
</linearGradient>
<linearGradient id="paint2_linear_1065_53" x1="133.5" y1="11" x2="87" y2="268" gradientUnits="userSpaceOnUse">
<stop stop-color="#4353FF"/>
<stop offset="1" stop-color="#6D7AFF"/>
</linearGradient>
</defs>
</svg>
