<svg width="26" height="32" viewBox="0 0 26 32" fill="none" xmlns="http://www.w3.org/2000/svg">
<path fill-rule="evenodd" clip-rule="evenodd" d="M13.0002 0C16.0227 0 18.4733 2.45991 18.4733 5.49451C18.4733 8.52911 16.0231 10.9894 13.0002 10.9894C9.97759 10.9894 7.52741 8.52945 7.52741 5.49451C7.52708 2.45991 9.97759 0 13.0002 0ZM0.350787 30.4713H25.6492C25.8421 30.4713 26 30.6298 26 30.8235V31.6478C26 31.8415 25.8421 32 25.6492 32H0.350787C0.157871 32 0 31.8415 0 31.6478V30.8235C0 30.6298 0.157871 30.4713 0.350787 30.4713ZM2.90109 15.2477H23.0996C24.8141 15.2477 26.1162 16.7513 25.8775 18.4559L25.005 29.456H14.6266L14.4834 28.5589H14.7261C14.9474 28.5589 15.1286 28.377 15.1286 28.1548V27.8764C15.1286 27.6542 14.9474 27.4722 14.7261 27.4722H14.4037L15.7123 24.9992L13.5062 21.4422V24.189C13.5185 24.1967 13.5309 24.2047 13.5429 24.2131C13.7905 24.3857 13.9527 24.6735 13.9527 24.9992C13.9527 25.5274 13.5262 25.9556 13.0002 25.9556C12.4742 25.9556 12.0476 25.5274 12.0476 24.9992C12.0476 24.6725 12.2108 24.384 12.4601 24.2114C12.4715 24.2037 12.4828 24.196 12.4945 24.1887V21.4419L10.2883 24.9989L11.597 27.4719H11.2746C11.0533 27.4719 10.8721 27.6539 10.8721 27.876V28.1545C10.8721 28.3766 11.0533 28.5586 11.2746 28.5586H11.5172L11.3741 29.4556H0.995623L0.123159 18.4556C-0.115483 16.7509 1.18654 15.2477 2.90109 15.2477ZM8.11484 17.3444C7.93127 16.9862 7.55912 16.7412 7.13023 16.7412C6.51911 16.7412 6.02347 17.2388 6.02347 17.8524C6.02347 18.4659 6.51911 18.9636 7.13023 18.9636C7.55912 18.9636 7.93094 18.7186 8.11484 18.3604H9.69122C8.12519 19.3067 7.01475 20.8813 6.66697 22.6888H5.98141V24.8475H8.13153V22.6884H7.70131C8.20496 20.5043 10.017 18.8265 12.2305 18.5078L13.0002 19.2809L13.7698 18.5082C15.9834 18.8268 17.7954 20.5043 18.299 22.6888H17.8688V24.8475H20.0189V22.6884H19.3334C18.9856 20.881 17.8751 19.3064 16.3091 18.3601H17.8855C18.0691 18.7183 18.4412 18.9632 18.8701 18.9632C19.4812 18.9632 19.9769 18.4656 19.9769 17.8521C19.9769 17.2385 19.4812 16.7409 18.8701 16.7409C18.4412 16.7409 18.0694 16.9858 17.8855 17.3441H13.917L13.0002 16.4236L12.0833 17.3441L8.11484 17.3444ZM19.7529 14.2317C17.9579 12.6125 15.5885 11.624 13.0002 11.624C10.4118 11.624 8.04241 12.6125 6.24742 14.2317H19.7529Z" fill="#4353FF"/>
</svg>
