<svg width="29" height="29" viewBox="0 0 29 29" fill="none" xmlns="http://www.w3.org/2000/svg">
<path opacity="0.7" d="M28.6935 27.2256L21.0316 19.5739C23.6903 16.4099 24.5188 12.093 23.2198 8.16877C21.9222 4.24617 18.6818 1.27584 14.661 0.321913C10.6401 -0.631952 6.41084 0.566196 3.48851 3.48855C0.566186 6.4109 -0.631929 10.6399 0.321897 14.6611C1.27576 18.682 4.2458 21.9223 8.1687 23.22C12.0926 24.519 16.4096 23.6905 19.5738 21.0318L27.2254 28.6937C27.4192 28.8888 27.6842 29 27.9595 29C28.2348 29 28.4998 28.8888 28.6937 28.6937C28.8888 28.4998 29 28.2348 29 27.9595C29 27.6842 28.8886 27.4195 28.6935 27.2256ZM2.10931 11.9325C2.10931 9.32685 3.1446 6.82837 4.9864 4.98668C6.82821 3.14486 9.32655 2.10957 11.9322 2.10957C14.5379 2.10957 17.0364 3.14486 18.878 4.98668C20.7199 6.8285 21.7551 9.32685 21.7551 11.9325C21.7551 14.5382 20.7199 17.0367 18.878 18.8784C17.0362 20.7202 14.5379 21.7555 11.9322 21.7555C9.32784 21.7529 6.83072 20.7164 4.98905 18.8758C3.14853 17.034 2.11189 14.5369 2.10931 11.9325ZM18.1364 16.0686C18.1364 16.3426 18.0279 16.6062 17.834 16.8001C17.6401 16.994 17.3765 17.1026 17.1025 17.1026H6.76248C6.19118 17.1026 5.72848 16.6398 5.72848 16.0685C5.72848 15.4972 6.19118 15.0345 6.76248 15.0345V9.86452C6.76248 9.29322 7.22518 8.83052 7.79648 8.83052C8.36777 8.83052 8.83047 9.29322 8.83047 9.86452V15.0345H10.8985V7.79651C10.8985 7.22521 11.3612 6.76251 11.9325 6.76251C12.5038 6.76251 12.9665 7.22521 12.9665 7.79651V15.0345H15.0345V11.9325C15.0345 11.3612 15.4972 10.8985 16.0685 10.8985C16.6398 10.8985 17.1025 11.3612 17.1025 11.9325V15.0345C17.3765 15.0345 17.6401 15.1431 17.834 15.337C18.0279 15.5309 18.1364 15.7946 18.1364 16.0686Z" fill="white"/>
</svg>
