<svg width="177" height="177" viewBox="0 0 177 177" fill="none" xmlns="http://www.w3.org/2000/svg">
<circle cx="88.5" cy="88.5" r="88.5" fill="#4353FF"/>
<path fill-rule="evenodd" clip-rule="evenodd" d="M100.289 95.2111H109.041H109.038C107.706 97.4028 106.098 99.4166 104.255 101.202C101.153 104.192 99.2004 107.919 99.6105 112.212L100.837 126.432C100.87 126.679 100.786 126.926 100.612 127.1C100.449 127.289 100.213 127.394 99.9624 127.39H69.6238C69.1847 127.394 68.811 127.071 68.7529 126.636L67.824 120.318C67.5446 118.46 66.3 116.918 64.424 116.918L61.7097 116.922C57.5006 116.9 54.0969 113.485 54.0933 109.276V98.9271H49.3362C48.2549 98.9598 47.2244 98.4808 46.5494 97.6354C45.9253 96.877 45.8237 95.8175 46.2918 94.9502L54.0933 79.8664C54.0933 71.1977 57.8888 62.9609 64.4786 57.3326C71.0719 51.701 79.7984 49.2372 88.3622 50.5943C96.9259 51.9513 104.462 56.9878 108.994 64.3795H100.177C99.4984 63.6791 98.7763 63.0224 98.0143 62.4128C96.523 61.2153 94.393 61.2407 92.9306 62.4781L90.6446 64.4012L90.6483 64.3976C90.5793 64.4593 90.485 64.4774 90.4015 64.4448C90.3181 64.4121 90.26 64.3323 90.2564 64.2416L89.977 61.2698C89.8101 59.3647 88.3114 57.848 86.4101 57.6557C84.8098 57.4851 83.1916 57.4851 81.5913 57.6557C79.6863 57.8625 78.1986 59.3902 78.0425 61.2952L77.7922 64.267V64.2706C77.7885 64.3614 77.7341 64.4448 77.6507 64.4811C77.5672 64.5174 77.4692 64.4992 77.4003 64.4376L75.107 62.5325C73.6302 61.3133 71.5001 61.3133 70.0233 62.5325C68.775 63.5486 67.6356 64.6951 66.6232 65.9507C65.4112 67.4493 65.4439 69.5974 66.6994 71.0598L68.6226 73.3349C68.6806 73.4038 68.6988 73.5018 68.6625 73.5889C68.6262 73.6723 68.5464 73.7304 68.4556 73.734L65.4911 74.0134C63.5933 74.1803 62.0802 75.668 61.877 77.5622C61.7065 79.1661 61.7065 80.7807 61.877 82.3846C62.0911 84.2896 63.626 85.7737 65.5383 85.9225L68.5101 86.1729C68.5972 86.1801 68.677 86.2382 68.7096 86.318C68.7459 86.4015 68.7314 86.4922 68.677 86.5648L66.7647 88.8581C65.5491 90.3349 65.5491 92.4649 66.7647 93.9382C67.7844 95.1901 68.931 96.3294 70.1901 97.3382C71.6851 98.5321 73.815 98.503 75.2738 97.2656L77.5489 95.3425C77.6179 95.2808 77.7122 95.2663 77.7957 95.299C77.8828 95.3316 77.9408 95.4114 77.9481 95.4985L78.2166 98.4703V98.474C78.3908 100.379 79.8894 101.892 81.7944 102.084C83.3983 102.259 85.013 102.259 86.6168 102.084C88.5146 101.878 90.0023 100.35 90.1547 98.4449L90.4051 95.4731C90.4124 95.3787 90.4668 95.2989 90.5539 95.2626C90.6374 95.23 90.7353 95.2445 90.8043 95.3062L93.0976 97.164C94.5708 98.3905 96.708 98.3905 98.1813 97.164C98.9252 96.558 99.6286 95.9042 100.289 95.2111ZM98.1989 87.5584L100.122 89.8335C100.811 90.6499 100.811 91.8474 100.122 92.6674C99.2004 93.8286 98.1517 94.8881 97.0014 95.8243C96.1886 96.4811 95.0274 96.4811 94.2146 95.8243L91.9104 93.9664C91.3371 93.4838 90.5424 93.3605 89.8493 93.6508C89.1599 93.9411 88.6882 94.5942 88.6301 95.3417L88.3689 98.3135C88.2927 99.3839 87.4581 100.244 86.3913 100.349C84.9181 100.502 83.434 100.502 81.9608 100.349C80.8976 100.244 80.0558 99.3985 79.9651 98.3316L79.6857 95.3598C79.6313 94.605 79.1559 93.9483 78.4592 93.658C77.7662 93.3641 76.9642 93.4875 76.3873 93.9773L74.1122 95.9077C73.2885 96.5863 72.1019 96.5863 71.2782 95.9077C70.117 94.9788 69.0575 93.9301 68.1213 92.7762C67.4392 91.9562 67.4392 90.7659 68.1213 89.9423L70.0264 87.6489H70.0228C70.5054 87.0756 70.6251 86.2773 70.3384 85.5879C70.0482 84.8948 69.3986 84.4231 68.6511 84.3614L65.6793 84.111H65.6757C64.6379 84.0276 63.7961 83.2365 63.6509 82.206C63.4949 80.7292 63.4949 79.2414 63.6509 77.7646C63.7271 76.6833 64.569 75.8124 65.6503 75.7035L68.6221 75.435C69.3659 75.3661 70.0154 74.8871 70.2985 74.1941C70.5815 73.501 70.4545 72.7063 69.9683 72.1367L68.027 69.8797C67.3485 69.056 67.3485 67.8694 68.027 67.0457C68.9523 65.8846 70.001 64.8287 71.1585 63.8961C71.9713 63.243 73.1325 63.243 73.9453 63.8961L76.2386 65.8012C76.8119 66.2838 77.6103 66.4035 78.2997 66.1132C78.9928 65.8266 79.4645 65.1734 79.5262 64.4259L79.7765 61.4541C79.86 60.3873 80.6946 59.531 81.7577 59.4185C83.2309 59.2624 84.7223 59.2624 86.1955 59.4185C87.2586 59.5237 88.0969 60.3655 88.1948 61.4251L88.4633 64.3969C88.5286 65.1481 89.004 65.7939 89.7006 66.0806C90.3937 66.3673 91.1884 66.2403 91.7617 65.754L94.0369 63.8309C94.8569 63.1451 96.0508 63.1451 96.8708 63.8309C98.032 64.7526 99.0879 65.8012 100.02 66.9515C100.699 67.7752 100.699 68.9654 100.02 69.7855L98.1081 72.0788L98.1045 72.0824C97.6509 72.663 97.5493 73.4468 97.8433 74.1253C98.1372 74.8038 98.7794 75.2684 99.5161 75.3337L102.488 75.584H102.491C103.555 75.6711 104.407 76.4984 104.524 77.5616C104.683 79.0384 104.683 80.5262 104.524 82.003C104.426 83.0661 103.576 83.908 102.51 83.9987L99.545 84.2781C98.7976 84.347 98.1517 84.8224 97.8686 85.5154C97.5856 86.2121 97.7126 87.0032 98.1988 87.5765L98.1989 87.5584ZM94.7154 79.8476C94.7082 75.5513 92.1137 71.6795 88.1404 70.0428C84.1707 68.4027 79.6023 69.3171 76.5688 72.3578C73.5317 75.3986 72.6245 79.967 74.2719 83.9369C75.9192 87.9065 79.791 90.4938 84.0869 90.4938C86.9063 90.4938 89.6096 89.3726 91.6017 87.3804C93.5937 85.3883 94.715 82.685 94.715 79.8656L94.7154 79.8476ZM92.941 79.8476C92.97 83.4399 90.8292 86.6947 87.5199 88.0881C84.2106 89.4815 80.386 88.7413 77.8349 86.2122C75.2876 83.6794 74.5184 79.8621 75.8863 76.5421C77.258 73.2219 80.4946 71.0557 84.087 71.0593C88.9566 71.0629 92.9081 74.9964 92.9407 79.866L92.941 79.8476ZM90.6187 76.1319C90.2232 75.5694 89.4539 75.4352 88.8914 75.8234L81.3004 81.1756L79.174 78.1094C78.9926 77.8337 78.7095 77.6413 78.3866 77.5724C78.0636 77.5071 77.7262 77.5724 77.4504 77.7575C77.1783 77.9425 76.9859 78.2292 76.9242 78.5521C76.8626 78.8751 76.9351 79.2125 77.1202 79.4847L79.907 83.654C80.063 83.9805 80.3678 84.2091 80.7234 84.2672C81.079 84.3253 81.4419 84.2055 81.6923 83.9442L90.3211 77.8954C90.8763 77.5035 91.0106 76.7342 90.6187 76.179L90.6187 76.1319ZM124.822 102.802C124.662 102.788 124.499 102.788 124.339 102.802L120.551 93.9955H120.547C120.406 93.6617 120.083 93.4403 119.72 93.4258H112.009C111.722 94.0209 111.407 94.616 111.08 95.1893L119.117 95.1929L122.713 103.571C121.411 104.602 121.044 106.42 121.843 107.875C122.641 109.33 124.372 109.994 125.939 109.45C127.507 108.902 128.45 107.305 128.174 105.669C127.899 104.036 126.48 102.838 124.822 102.838L124.822 102.802ZM119.72 66.1534C120.072 66.1425 120.384 65.932 120.529 65.6164L124.339 56.7807C124.499 56.7916 124.662 56.7916 124.822 56.7807C126.476 56.7807 127.888 55.5869 128.164 53.954C128.436 52.3248 127.496 50.7318 125.932 50.1875C124.372 49.6468 122.645 50.3072 121.846 51.7587C121.052 53.2065 121.418 55.0208 122.714 56.0477L119.118 64.379H111.018C111.345 64.9632 111.661 65.5511 111.947 66.1535L119.72 66.1534ZM127.253 76.1755L127.256 76.1792C125.566 76.1828 124.092 77.3294 123.668 78.9659H115.086V80.7294H123.668C123.998 82.1192 125.094 83.1968 126.487 83.5017C127.881 83.8101 129.328 83.2912 130.21 82.1663C131.088 81.0451 131.248 79.5174 130.62 78.2365C129.989 76.9556 128.683 76.1465 127.256 76.1573L127.253 76.1755ZM106.399 80.7476C106.399 81.2302 106.345 81.6765 106.298 82.1882C106.102 84.0896 104.589 85.5882 102.684 85.7624L99.7119 86.0309V86.0345C99.6212 86.0418 99.545 86.0998 99.5124 86.1833C99.4797 86.2704 99.4942 86.3647 99.5559 86.4337L101.468 88.7088C102.608 90.0514 102.735 91.9854 101.773 93.4659H110.024C112.06 89.5252 113.181 85.1781 113.301 80.748L106.399 80.7476ZM101.403 70.8815L99.545 73.1748V73.1785C99.4833 73.2438 99.4652 73.3417 99.5014 73.4252C99.5377 73.5123 99.6212 73.5667 99.7119 73.5667L102.684 73.828C104.592 73.9804 106.12 75.4645 106.327 77.3659C106.381 77.9029 106.428 78.4436 106.447 78.9806H113.359V78.9842C113.228 74.5102 112.085 70.1232 110.013 66.154H101.689C102.64 67.6235 102.524 69.5389 101.403 70.8815Z" fill="white"/>
</svg>
