<svg width="109" height="93" viewBox="0 0 109 93" fill="none" xmlns="http://www.w3.org/2000/svg">
<rect x="11.25" y="1.25" width="85.5" height="85.5" rx="20.75" fill="url(#paint0_radial_1_480)" stroke="url(#paint1_linear_1_480)" stroke-width="1.5"/>
<g filter="url(#filter0_d_1_480)">
<mask id="mask0_1_480" style="mask-type:luminance" maskUnits="userSpaceOnUse" x="33" y="32" width="43" height="24">
<path d="M33.0976 43.9999C33.0976 50.1047 42.5058 55.0537 54.1109 55.0537C65.7161 55.0537 75.1243 50.1047 75.1243 43.9999C75.1243 37.8952 65.7161 32.9461 54.1109 32.9461C42.5058 32.9461 33.0976 37.8952 33.0976 43.9999Z" fill="white"/>
</mask>
<g mask="url(#mask0_1_480)">
<path d="M33.0974 43.9999C33.0974 50.1047 42.5056 55.0537 54.1108 55.0537C65.7159 55.0537 75.1242 50.1047 75.1242 43.9999C75.1242 37.8952 65.7159 32.9461 54.1108 32.9461C42.5056 32.9461 33.0974 37.8952 33.0974 43.9999Z" fill="url(#paint2_radial_1_480)"/>
</g>
<mask id="mask1_1_480" style="mask-type:luminance" maskUnits="userSpaceOnUse" x="32" y="31" width="44" height="26">
<path d="M32.2222 31.6875H75.9999V56.3125H32.2222V31.6875Z" fill="white"/>
</mask>
<g mask="url(#mask1_1_480)">
<path d="M54.1106 54.2334C65.2624 54.2334 74.3031 49.6519 74.3031 44.0003C74.3031 38.3488 65.2624 33.7671 54.1106 33.7671C42.9587 33.7671 33.9181 38.3488 33.9181 44.0003C33.9181 49.6519 42.9587 54.2334 54.1106 54.2334Z" fill="#777BB3"/>
</g>
<mask id="mask2_1_480" style="mask-type:luminance" maskUnits="userSpaceOnUse" x="32" y="31" width="44" height="26">
<path d="M32.2222 31.6875H75.9999V56.3125H32.2222V31.6875Z" fill="white"/>
</mask>
<g mask="url(#mask2_1_480)">
<path d="M44.5142 45.2688C45.4312 45.2688 46.1158 45.0997 46.5489 44.7663C46.9774 44.4364 47.2734 43.8648 47.4285 43.0674C47.5731 42.3221 47.518 41.8017 47.2648 41.5209C47.0059 41.2341 46.446 41.0886 45.6009 41.0886H44.1354L43.323 45.2688H44.5142ZM39.7213 50.418C39.6532 50.418 39.5886 50.3876 39.5454 50.335C39.5021 50.2825 39.4845 50.2133 39.4975 50.1465L41.6505 39.069C41.6714 38.9619 41.7652 38.8845 41.8744 38.8845H46.5146C47.973 38.8845 49.0585 39.2805 49.7408 40.0616C50.4267 40.8467 50.6385 41.9443 50.3703 43.3237C50.2611 43.8857 50.0734 44.4076 49.8123 44.8748C49.551 45.3426 49.2055 45.7755 48.7855 46.1616C48.2826 46.6322 47.7135 46.9734 47.0955 47.1742C46.4872 47.3724 45.7061 47.4728 44.7737 47.4728H42.8948L42.3582 50.2334C42.3374 50.3406 42.2436 50.418 42.1344 50.418H39.7213Z" fill="black"/>
<path d="M44.3231 41.3161H45.6006C46.6206 41.3161 46.9749 41.54 47.0953 41.6733C47.2951 41.8948 47.3328 42.3618 47.2044 43.0237C47.0601 43.7647 46.7928 44.2901 46.4095 44.5852C46.0172 44.8872 45.3794 45.0403 44.514 45.0403H43.5993L44.3231 41.3161ZM46.5144 38.656H41.874C41.6557 38.656 41.4681 38.8108 41.4264 39.025L39.2734 50.1025C39.2474 50.2362 39.2825 50.3745 39.3691 50.4796C39.4557 50.5847 39.5848 50.6455 39.721 50.6455H42.1341C42.3524 50.6455 42.5401 50.4908 42.5817 50.2765L43.0824 47.7004H44.7734C45.7297 47.7004 46.5347 47.5961 47.1659 47.3905C47.8151 47.1796 48.4123 46.822 48.9409 46.3277C49.3781 45.9255 49.7382 45.474 50.011 44.9857C50.284 44.4972 50.48 43.9525 50.5938 43.3667C50.8762 41.9147 50.6468 40.752 49.9121 39.9111C49.1846 39.0783 48.0414 38.656 46.5144 38.656ZM43.0461 45.4963H44.514C45.4869 45.4963 46.2116 45.3131 46.6877 44.9465C47.164 44.5799 47.4851 43.968 47.652 43.1105C47.8117 42.2872 47.739 41.7063 47.4338 41.3678C47.1283 41.0294 46.5173 40.8601 45.6006 40.8601H43.9472L43.0461 45.4963ZM46.5144 39.112C47.9103 39.112 48.9287 39.4784 49.5688 40.2111C50.2088 40.9439 50.4015 41.9666 50.1462 43.2797C50.041 43.8207 49.8633 44.3152 49.613 44.7632C49.3624 45.2116 49.0352 45.6216 48.6309 45.9933C48.149 46.4442 47.6137 46.7655 47.0247 46.9569C46.4357 47.1488 45.6855 47.2444 44.7734 47.2444H42.7064L42.1341 50.1895H39.721L41.874 39.112H46.5144Z" fill="white"/>
<path d="M55.9027 47.4731C55.8346 47.4731 55.7701 47.4427 55.7268 47.3901C55.6834 47.3376 55.6659 47.2685 55.6789 47.2017L56.6313 42.3003C56.7219 41.8342 56.6995 41.4996 56.5684 41.3582C56.4882 41.2718 56.2471 41.1269 55.5342 41.1269H53.8088L52.6114 47.2886C52.5906 47.3958 52.4967 47.4731 52.3876 47.4731H49.9935C49.9254 47.4731 49.8608 47.4427 49.8175 47.3901C49.7742 47.3376 49.7566 47.2685 49.7696 47.2017L51.9227 36.1241C51.9435 36.017 52.0373 35.9397 52.1465 35.9397H54.5406C54.6087 35.9397 54.6732 35.9701 54.7165 36.0226C54.7598 36.0752 54.7774 36.1443 54.7644 36.2112L54.2448 38.8848H56.101C57.515 38.8848 58.4739 39.1341 59.0324 39.647C59.6016 40.1702 59.7792 41.0067 59.5604 42.1337L58.5586 47.2886C58.5378 47.3958 58.444 47.4731 58.3348 47.4731H55.9027Z" fill="black"/>
<path d="M54.5411 35.7112H52.147C51.9286 35.7112 51.741 35.8659 51.6993 36.0802L49.5463 47.1577C49.5203 47.2914 49.5554 47.4297 49.6421 47.5348C49.7287 47.6399 49.8578 47.7007 49.994 47.7007H52.3881C52.6064 47.7007 52.7941 47.5459 52.8357 47.3317L53.9973 41.3544H55.5348C56.2464 41.3544 56.3957 41.5064 56.4017 41.513C56.4449 41.5594 56.5017 41.7745 56.408 42.2564L55.4556 47.1577C55.4296 47.2914 55.4647 47.4297 55.5513 47.5348C55.638 47.6399 55.767 47.7007 55.9032 47.7007H58.3353C58.5536 47.7007 58.7413 47.5459 58.783 47.3317L59.7846 42.1768C60.0197 40.9667 59.8186 40.059 59.1872 39.4787C58.5846 38.9253 57.5753 38.6563 56.1015 38.6563H54.5219L54.9887 36.2542C55.0147 36.1205 54.9796 35.9822 54.893 35.8772C54.8063 35.7721 54.6773 35.7112 54.5411 35.7112ZM54.5411 36.1672L53.9687 39.1123H56.1015C57.4435 39.1123 58.3691 39.3466 58.8786 39.8145C59.388 40.2826 59.5407 41.0412 59.337 42.0898L58.3353 47.2447H55.9032L56.8556 42.3434C56.964 41.7858 56.9242 41.4055 56.736 41.2027C56.5477 40.9999 56.1473 40.8984 55.5348 40.8984H53.6213L52.3881 47.2447H49.994L52.147 36.1672H54.5411Z" fill="white"/>
<path d="M63.3483 45.2688C64.2653 45.2688 64.9499 45.0997 65.383 44.7663C65.8115 44.4365 66.1075 43.8648 66.2627 43.0674C66.4073 42.3221 66.3522 41.8017 66.0989 41.5209C65.84 41.2341 65.2801 41.0886 64.435 41.0886H62.9695L62.1571 45.2688H63.3483ZM58.5554 50.418C58.4874 50.418 58.4228 50.3876 58.3796 50.335C58.3362 50.2825 58.3186 50.2133 58.3316 50.1465L60.4846 39.069C60.5055 38.9619 60.5993 38.8845 60.7085 38.8845H65.3487C66.8072 38.8845 67.8926 39.2805 68.5749 40.0616C69.2609 40.8467 69.4726 41.9442 69.2045 43.3237C69.0952 43.8857 68.9075 44.4076 68.6464 44.8748C68.3851 45.3426 68.0396 45.7755 67.6196 46.1616C67.1167 46.6322 66.5476 46.9734 65.9296 47.1742C65.3213 47.3724 64.5401 47.4728 63.6078 47.4728H61.7288L61.1924 50.2334C61.1715 50.3406 61.0778 50.418 60.9685 50.418H58.5554Z" fill="black"/>
<path d="M63.1579 41.3161H64.4354C65.4554 41.3161 65.8097 41.54 65.9301 41.6733C66.1299 41.8948 66.1676 42.3618 66.0392 43.0236C65.8949 43.7647 65.6275 44.2901 65.2444 44.5852C64.852 44.8872 64.2142 45.0403 63.3488 45.0403H62.4342L63.1579 41.3161ZM65.3492 38.656H60.7089C60.4906 38.656 60.3029 38.8108 60.2613 39.025L58.1083 50.1025C58.0823 50.2362 58.1174 50.3745 58.204 50.4796C58.2906 50.5847 58.4197 50.6455 58.5559 50.6455H60.969C61.1872 50.6455 61.375 50.4908 61.4166 50.2765L61.9172 47.7004H63.6082C64.5645 47.7004 65.3695 47.5961 66.0007 47.3905C66.6499 47.1796 67.2473 46.8219 67.7759 46.3275C68.213 45.9254 68.573 45.474 68.8458 44.9857C69.1188 44.4972 69.3149 43.9525 69.4286 43.3667C69.711 41.9147 69.4816 40.752 68.747 39.9111C68.0195 39.0783 66.8763 38.656 65.3492 38.656ZM61.881 45.4963H63.3488C64.3217 45.4963 65.0464 45.3131 65.5225 44.9465C65.9988 44.5799 66.3199 43.968 66.4869 43.1105C66.6466 42.2872 66.5739 41.7063 66.2686 41.3678C65.9631 41.0294 65.3521 40.8601 64.4354 40.8601H62.782L61.881 45.4963ZM65.3492 39.112C66.7451 39.112 67.7635 39.4784 68.4036 40.2111C69.0437 40.9439 69.2363 41.9666 68.981 43.2797C68.8759 43.8207 68.6981 44.3152 68.4478 44.7632C68.1972 45.2116 67.87 45.6216 67.4657 45.9933C66.9838 46.4442 66.4485 46.7655 65.8595 46.9569C65.2705 47.1488 64.5203 47.2444 63.6082 47.2444H61.5413L60.969 50.1895H58.5559L60.7089 39.112H65.3492Z" fill="white"/>
</g>
</g>
<defs>
<filter id="filter0_d_1_480" x="0.0975952" y="3.94629" width="108.027" height="88.1074" filterUnits="userSpaceOnUse" color-interpolation-filters="sRGB">
<feFlood flood-opacity="0" result="BackgroundImageFix"/>
<feColorMatrix in="SourceAlpha" type="matrix" values="0 0 0 0 0 0 0 0 0 0 0 0 0 0 0 0 0 0 127 0" result="hardAlpha"/>
<feOffset dy="4"/>
<feGaussianBlur stdDeviation="16.5"/>
<feComposite in2="hardAlpha" operator="out"/>
<feColorMatrix type="matrix" values="0 0 0 0 0.466667 0 0 0 0 0.482353 0 0 0 0 0.701961 0 0 0 1 0"/>
<feBlend mode="normal" in2="BackgroundImageFix" result="effect1_dropShadow_1_480"/>
<feBlend mode="normal" in="SourceGraphic" in2="effect1_dropShadow_1_480" result="shape"/>
</filter>
<radialGradient id="paint0_radial_1_480" cx="0" cy="0" r="1" gradientUnits="userSpaceOnUse" gradientTransform="translate(54 44) rotate(90) scale(42)">
<stop stop-color="#383C68"/>
<stop offset="1" stop-color="#242854"/>
</radialGradient>
<linearGradient id="paint1_linear_1_480" x1="54" y1="2" x2="54" y2="86" gradientUnits="userSpaceOnUse">
<stop stop-color="#515684"/>
<stop offset="1" stop-color="#0D1033"/>
</linearGradient>
<radialGradient id="paint2_radial_1_480" cx="0" cy="0" r="1" gradientUnits="userSpaceOnUse" gradientTransform="translate(45.714 36.8323) scale(27.5935)">
<stop stop-color="#AEB2D5"/>
<stop offset="0.3" stop-color="#AEB2D5"/>
<stop offset="0.75" stop-color="#484C89"/>
<stop offset="1" stop-color="#484C89"/>
</radialGradient>
</defs>
</svg>
