<svg width="88" height="89" viewBox="0 0 88 89" fill="none" xmlns="http://www.w3.org/2000/svg">
<rect x="1.25" y="2.25" width="85.5" height="85.5" rx="20.75" fill="url(#paint0_radial_1_473)" stroke="url(#paint1_linear_1_473)" stroke-width="1.5"/>
<g opacity="0.7" filter="url(#filter0_f_1_473)">
<path fill-rule="evenodd" clip-rule="evenodd" d="M67.9729 31.0851C67.9907 31.1504 67.9998 31.2178 68 31.2854V41.8031C68 41.9381 67.9641 42.0707 67.8958 42.1876C67.8276 42.3044 67.7295 42.4013 67.6114 42.4684L58.7091 47.5509V57.6248C58.7091 57.8989 58.5622 58.152 58.3225 58.29L39.7398 68.8979C39.6973 68.9218 39.6509 68.9372 39.6045 68.9535C39.5871 68.9592 39.5706 68.9698 39.5523 68.9746C39.4224 69.0085 39.2858 69.0085 39.1559 68.9746C39.1347 68.9688 39.1153 68.9573 39.095 68.9496C39.0525 68.9343 39.008 68.9209 38.9674 68.8979L20.3886 58.29C20.2706 58.2228 20.1725 58.1259 20.1043 58.0091C20.0361 57.8923 20.0001 57.7598 20 57.6248V26.0716C20 26.0026 20.0097 25.9355 20.0271 25.8703C20.0329 25.8483 20.0464 25.8281 20.0541 25.8061C20.0686 25.7658 20.0822 25.7246 20.1034 25.6872C20.1179 25.6623 20.1392 25.6422 20.1566 25.6192C20.1788 25.5885 20.1991 25.5569 20.2252 25.53C20.2475 25.508 20.2765 25.4917 20.3016 25.4725C20.3296 25.4495 20.3548 25.4246 20.3867 25.4064L29.6775 20.1024C29.7952 20.0353 29.9285 20 30.0642 20C30.1999 20 30.3333 20.0353 30.4509 20.1024L39.7408 25.4064H39.7427C39.7736 25.4255 39.7997 25.4495 39.8278 25.4715C39.8529 25.4907 39.8809 25.508 39.9032 25.5291C39.9302 25.5569 39.9496 25.5885 39.9728 25.6192C39.9892 25.6422 40.0114 25.6623 40.025 25.6872C40.0472 25.7256 40.0598 25.7658 40.0752 25.8061C40.083 25.8281 40.0965 25.8483 40.1023 25.8713C40.1201 25.9366 40.1292 26.004 40.1294 26.0716V45.7794L47.8706 41.3593V31.2845C47.8706 31.2174 47.8803 31.1493 47.8977 31.0851C47.9045 31.0621 47.917 31.0419 47.9248 31.0199C47.9402 30.9796 47.9538 30.9384 47.975 30.901C47.9895 30.8761 48.0108 30.856 48.0272 30.833C48.0504 30.8023 48.0698 30.7707 48.0968 30.7438C48.1191 30.7218 48.1471 30.7055 48.1722 30.6863C48.2012 30.6633 48.2264 30.6384 48.2573 30.6202L57.5491 25.3163C57.6667 25.249 57.8001 25.2137 57.9358 25.2137C58.0715 25.2137 58.2049 25.249 58.3225 25.3163L67.6124 30.6202C67.6452 30.6393 67.6704 30.6633 67.6994 30.6853C67.7235 30.7045 67.7516 30.7218 67.7738 30.7429C67.8009 30.7707 67.8202 30.8023 67.8434 30.833C67.8608 30.856 67.8821 30.8761 67.8956 30.901C67.9178 30.9384 67.9304 30.9796 67.9459 31.0199C67.9546 31.0419 67.9671 31.0621 67.9729 31.0851ZM66.4514 41.3593V32.6131L63.2004 34.4689L58.7091 37.0332V45.7794L66.4523 41.3593H66.4514ZM57.1615 57.1809V48.429L52.7437 50.9309L40.1284 58.0705V66.9049L57.1615 57.1809ZM21.5486 27.3993V57.1809L38.5798 66.904V58.0715L29.6824 53.0782L29.6795 53.0762L29.6756 53.0743C29.6456 53.0571 29.6205 53.0321 29.5925 53.0111C29.5683 52.9919 29.5403 52.9765 29.519 52.9555L29.5171 52.9526C29.4919 52.9286 29.4745 52.8989 29.4533 52.8721C29.4339 52.8462 29.4107 52.8241 29.3953 52.7973L29.3943 52.7944C29.3769 52.7657 29.3663 52.7311 29.3537 52.6986C29.3411 52.6698 29.3247 52.643 29.317 52.6123C29.3073 52.5759 29.3054 52.5365 29.3015 52.4992C29.2976 52.4704 29.2899 52.4416 29.2899 52.4129V52.411V31.8194L24.7996 29.2542L21.5486 27.3993ZM30.0652 21.6535L22.3249 26.0716L30.0632 30.4898L37.8026 26.0707L30.0632 21.6535H30.0652ZM34.0905 49.2265L38.5807 46.6632V27.3993L35.3298 29.2551L30.8385 31.8194V51.0833L34.0905 49.2265ZM57.9358 26.8673L50.1965 31.2854L57.9358 35.7036L65.6741 31.2845L57.9358 26.8673ZM57.1615 37.0332L52.6702 34.4689L49.4193 32.6131V41.3593L53.9095 43.9226L57.1615 45.7794V37.0332ZM39.3531 56.7429L50.705 50.3164L56.3794 47.1051L48.6459 42.6898L39.7417 47.7733L31.6264 52.4062L39.3531 56.7429Z" fill="#FF2D20"/>
</g>
<g opacity="0.7" filter="url(#filter1_f_1_473)">
<path fill-rule="evenodd" clip-rule="evenodd" d="M60.9808 34.9179C60.9934 34.9646 60.9999 35.0127 61 35.061V42.5737C61 42.6701 60.9746 42.7648 60.9262 42.8483C60.8779 42.9317 60.8084 43.0009 60.7247 43.0489L54.419 46.6792V53.8748C54.419 54.0707 54.3149 54.2514 54.1451 54.35L40.9824 61.927C40.9522 61.9442 40.9194 61.9551 40.8865 61.9668C40.8742 61.9709 40.8625 61.9784 40.8495 61.9818C40.7575 62.0061 40.6608 62.0061 40.5688 61.9818C40.5537 61.9777 40.54 61.9695 40.5256 61.964C40.4955 61.9531 40.464 61.9435 40.4353 61.927L27.2753 54.35C27.1917 54.302 27.1222 54.2328 27.0739 54.1494C27.0255 54.0659 27.0001 53.9713 27 53.8748V31.3369C27 31.2876 27.0068 31.2396 27.0192 31.1931C27.0233 31.1773 27.0329 31.163 27.0383 31.1472C27.0486 31.1185 27.0582 31.089 27.0733 31.0623C27.0835 31.0445 27.0986 31.0301 27.1109 31.0137C27.1267 30.9918 27.1411 30.9692 27.1595 30.95C27.1753 30.9343 27.1958 30.9226 27.2136 30.9089C27.2335 30.8925 27.2513 30.8747 27.2739 30.8617L33.8549 27.0732C33.9382 27.0252 34.0327 27 34.1288 27C34.2249 27 34.3194 27.0252 34.4027 27.0732L40.983 30.8617H40.9844C41.0063 30.8754 41.0248 30.8925 41.0447 30.9082C41.0625 30.9219 41.0823 30.9343 41.0981 30.9493C41.1173 30.9692 41.1309 30.9918 41.1474 31.0137C41.159 31.0301 41.1748 31.0445 41.1844 31.0623C41.2001 31.0897 41.209 31.1185 41.22 31.1472C41.2254 31.163 41.235 31.1773 41.2391 31.1938C41.2517 31.2404 41.2582 31.2885 41.2583 31.3369V45.4139L46.7417 42.2567V35.0603C46.7417 35.0124 46.7485 34.9638 46.7609 34.9179C46.7657 34.9015 46.7746 34.8871 46.78 34.8714C46.791 34.8426 46.8006 34.8132 46.8156 34.7865C46.8259 34.7686 46.841 34.7543 46.8526 34.7378C46.8691 34.7159 46.8827 34.6933 46.9019 34.6742C46.9177 34.6584 46.9375 34.6468 46.9553 34.6331C46.9759 34.6166 46.9937 34.5988 47.0156 34.5858L53.5973 30.7973C53.6806 30.7493 53.775 30.724 53.8712 30.724C53.9673 30.724 54.0618 30.7493 54.1451 30.7973L60.7254 34.5858C60.7487 34.5995 60.7665 34.6166 60.787 34.6324C60.8042 34.6461 60.824 34.6584 60.8398 34.6735C60.8589 34.6933 60.8726 34.7159 60.8891 34.7378C60.9014 34.7543 60.9165 34.7686 60.926 34.7865C60.9418 34.8132 60.9507 34.8426 60.9617 34.8714C60.9678 34.8871 60.9767 34.9015 60.9808 34.9179ZM59.903 42.2567V36.0093L57.6003 37.3349L54.419 39.1666V45.4139L59.9037 42.2567H59.903ZM53.3227 53.5578V47.3064L50.1935 49.0935L41.2576 54.1932V60.5035L53.3227 53.5578ZM28.097 32.2852V53.5578L40.1607 60.5028V54.1939L33.8583 50.6273L33.8563 50.6259L33.8535 50.6245C33.8323 50.6122 33.8145 50.5944 33.7947 50.5793C33.7775 50.5656 33.7577 50.5547 33.7426 50.5396L33.7412 50.5376C33.7234 50.5204 33.7111 50.4992 33.6961 50.48C33.6824 50.4616 33.6659 50.4458 33.655 50.4266L33.6543 50.4246C33.642 50.404 33.6344 50.3794 33.6255 50.3561C33.6166 50.3356 33.605 50.3164 33.5995 50.2945C33.5927 50.2685 33.5913 50.2404 33.5886 50.2137C33.5858 50.1931 33.5803 50.1726 33.5803 50.1521V50.1507V35.4424L30.3997 33.6101L28.097 32.2852ZM34.1295 28.181L28.6468 31.3369L34.1281 34.4927L39.6101 31.3362L34.1281 28.181H34.1295ZM36.9807 47.8761L40.1614 46.0452V32.2852L37.8586 33.6108L34.6773 35.4424V49.2024L36.9807 47.8761ZM53.8712 31.9052L48.3892 35.061L53.8712 38.2169L59.3525 35.0603L53.8712 31.9052ZM53.3227 39.1666L50.1414 37.3349L47.8386 36.0093V42.2567L51.0193 44.0876L53.3227 45.4139V39.1666ZM40.7085 53.2449L48.7493 48.6546L52.7688 46.3608L47.2909 43.207L40.9837 46.8381L35.2353 50.1473L40.7085 53.2449Z" fill="#FF2D20"/>
</g>
<g opacity="0.7" filter="url(#filter2_f_1_473)">
<path fill-rule="evenodd" clip-rule="evenodd" d="M66.9741 31.6326C66.9911 31.6953 66.9998 31.7599 67 31.8248V41.9132C67 42.0427 66.9656 42.1699 66.9002 42.2819C66.8348 42.394 66.7408 42.4869 66.6276 42.5513L58.0963 47.4264V57.0891C58.0963 57.352 57.9555 57.5948 57.7257 57.7272L39.9173 67.902C39.8765 67.925 39.8321 67.9397 39.7876 67.9554C39.7709 67.9609 39.7552 67.971 39.7376 67.9756C39.6131 68.0081 39.4822 68.0081 39.3578 67.9756C39.3374 67.9701 39.3188 67.959 39.2994 67.9517C39.2586 67.937 39.216 67.9241 39.1771 67.902L21.3724 57.7272C21.2593 57.6627 21.1653 57.5697 21.0999 57.4577C21.0346 57.3457 21.0001 57.2185 21 57.0891V26.8238C21 26.7576 21.0093 26.6932 21.0259 26.6307C21.0315 26.6096 21.0445 26.5903 21.0519 26.5691C21.0658 26.5305 21.0787 26.491 21.0991 26.4551C21.113 26.4312 21.1334 26.4119 21.1501 26.3898C21.1714 26.3604 21.1908 26.33 21.2159 26.3043C21.2372 26.2832 21.265 26.2675 21.289 26.2491C21.3159 26.2271 21.34 26.2032 21.3706 26.1857L30.2743 21.0983C30.387 21.0339 30.5148 21 30.6449 21C30.7749 21 30.9027 21.0339 31.0154 21.0983L39.9182 26.1857H39.9201C39.9497 26.2041 39.9747 26.2271 40.0016 26.2482C40.0257 26.2666 40.0526 26.2832 40.0739 26.3034C40.0998 26.33 40.1183 26.3604 40.1406 26.3898C40.1563 26.4119 40.1776 26.4312 40.1906 26.4551C40.2119 26.4919 40.224 26.5305 40.2388 26.5691C40.2462 26.5903 40.2592 26.6096 40.2647 26.6316C40.2818 26.6943 40.2905 26.7589 40.2907 26.8238V45.7272L47.7093 41.4875V31.8239C47.7093 31.7595 47.7186 31.6942 47.7353 31.6326C47.7418 31.6106 47.7538 31.5913 47.7612 31.5701C47.7761 31.5315 47.789 31.492 47.8094 31.4561C47.8233 31.4322 47.8437 31.4129 47.8594 31.3908C47.8817 31.3614 47.9002 31.331 47.9261 31.3053C47.9474 31.2842 47.9743 31.2685 47.9984 31.2501C48.0262 31.2281 48.0503 31.2042 48.0799 31.1867L56.9846 26.0993C57.0973 26.0348 57.2251 26.0009 57.3551 26.0009C57.4852 26.0009 57.613 26.0348 57.7257 26.0993L66.6285 31.1867C66.66 31.2051 66.6841 31.2281 66.7119 31.2492C66.735 31.2676 66.7619 31.2842 66.7832 31.3044C66.8092 31.331 66.8277 31.3614 66.8499 31.3908C66.8666 31.4129 66.887 31.4322 66.9 31.4561C66.9213 31.492 66.9333 31.5315 66.9481 31.5701C66.9565 31.5913 66.9685 31.6106 66.9741 31.6326ZM65.5159 41.4875V33.0983L62.4004 34.8784L58.0963 37.3379V45.7272L65.5168 41.4875H65.5159ZM56.6131 56.6634V48.2686L52.3794 50.6684L40.2897 57.5166V65.9905L56.6131 56.6634ZM22.4841 28.0973V56.6634L38.8056 65.9895V57.5175L30.2789 52.728L30.2762 52.7262L30.2724 52.7243C30.2437 52.7078 30.2196 52.6839 30.1928 52.6637C30.1696 52.6453 30.1427 52.6306 30.1224 52.6103L30.1205 52.6076C30.0964 52.5846 30.0798 52.5561 30.0594 52.5303C30.0408 52.5055 30.0186 52.4844 30.0038 52.4586L30.0029 52.4559C29.9862 52.4283 29.976 52.3952 29.964 52.3639C29.9519 52.3363 29.9362 52.3106 29.9287 52.2812C29.9195 52.2462 29.9176 52.2085 29.9139 52.1727C29.9102 52.1451 29.9028 52.1175 29.9028 52.0899V52.0881V32.3369L25.5996 29.8764L22.4841 28.0973ZM30.6458 22.586L23.228 26.8238L30.6439 31.0616L38.0608 26.8229L30.6439 22.586H30.6458ZM34.5034 49.0336L38.8065 46.5749V28.0973L35.691 29.8774L31.3869 32.3369V50.8146L34.5034 49.0336ZM57.3551 27.587L49.9383 31.8248L57.3551 36.0626L64.7711 31.8239L57.3551 27.587ZM56.6131 37.3379L52.309 34.8784L49.1935 33.0983V41.4875L53.4966 43.9462L56.6131 45.7272V37.3379ZM39.5467 56.2432L50.4256 50.079L55.8636 46.9988L48.4523 42.7637L39.9192 47.6397L32.1419 52.0835L39.5467 56.2432Z" fill="#FF2D20"/>
</g>
<g opacity="0.7" filter="url(#filter3_d_1_473)">
<path fill-rule="evenodd" clip-rule="evenodd" d="M60.9808 34.9179C60.9934 34.9646 60.9999 35.0127 61 35.061V42.5737C61 42.6701 60.9746 42.7648 60.9262 42.8483C60.8779 42.9317 60.8084 43.0009 60.7247 43.0489L54.419 46.6792V53.8748C54.419 54.0707 54.3149 54.2514 54.1451 54.35L40.9824 61.927C40.9522 61.9442 40.9194 61.9551 40.8865 61.9668C40.8742 61.9709 40.8625 61.9784 40.8495 61.9818C40.7575 62.0061 40.6608 62.0061 40.5688 61.9818C40.5537 61.9777 40.54 61.9695 40.5256 61.964C40.4955 61.9531 40.464 61.9435 40.4353 61.927L27.2753 54.35C27.1917 54.302 27.1222 54.2328 27.0739 54.1494C27.0255 54.0659 27.0001 53.9713 27 53.8748V31.3369C27 31.2876 27.0068 31.2396 27.0192 31.1931C27.0233 31.1773 27.0329 31.163 27.0383 31.1472C27.0486 31.1185 27.0582 31.089 27.0733 31.0623C27.0835 31.0445 27.0986 31.0301 27.1109 31.0137C27.1267 30.9918 27.1411 30.9692 27.1595 30.95C27.1753 30.9343 27.1958 30.9226 27.2136 30.9089C27.2335 30.8925 27.2513 30.8747 27.2739 30.8617L33.8549 27.0732C33.9382 27.0252 34.0327 27 34.1288 27C34.2249 27 34.3194 27.0252 34.4027 27.0732L40.983 30.8617H40.9844C41.0063 30.8754 41.0248 30.8925 41.0447 30.9082C41.0625 30.9219 41.0823 30.9343 41.0981 30.9493C41.1173 30.9692 41.1309 30.9918 41.1474 31.0137C41.159 31.0301 41.1748 31.0445 41.1844 31.0623C41.2001 31.0897 41.209 31.1185 41.22 31.1472C41.2254 31.163 41.235 31.1773 41.2391 31.1938C41.2517 31.2404 41.2582 31.2885 41.2583 31.3369V45.4139L46.7417 42.2567V35.0603C46.7417 35.0124 46.7485 34.9638 46.7609 34.9179C46.7657 34.9015 46.7746 34.8871 46.78 34.8714C46.791 34.8426 46.8006 34.8132 46.8156 34.7865C46.8259 34.7686 46.841 34.7543 46.8526 34.7378C46.8691 34.7159 46.8827 34.6933 46.9019 34.6742C46.9177 34.6584 46.9375 34.6468 46.9553 34.6331C46.9759 34.6166 46.9937 34.5988 47.0156 34.5858L53.5973 30.7973C53.6806 30.7493 53.775 30.724 53.8712 30.724C53.9673 30.724 54.0618 30.7493 54.1451 30.7973L60.7254 34.5858C60.7487 34.5995 60.7665 34.6166 60.787 34.6324C60.8042 34.6461 60.824 34.6584 60.8398 34.6735C60.8589 34.6933 60.8726 34.7159 60.8891 34.7378C60.9014 34.7543 60.9165 34.7686 60.926 34.7865C60.9418 34.8132 60.9507 34.8426 60.9617 34.8714C60.9678 34.8871 60.9767 34.9015 60.9808 34.9179ZM59.903 42.2567V36.0093L57.6003 37.3349L54.419 39.1666V45.4139L59.9037 42.2567H59.903ZM53.3227 53.5578V47.3064L50.1935 49.0935L41.2576 54.1932V60.5035L53.3227 53.5578ZM28.097 32.2852V53.5578L40.1607 60.5028V54.1939L33.8583 50.6273L33.8563 50.6259L33.8535 50.6245C33.8323 50.6122 33.8145 50.5944 33.7947 50.5793C33.7775 50.5656 33.7577 50.5547 33.7426 50.5396L33.7412 50.5376C33.7234 50.5204 33.7111 50.4992 33.6961 50.48C33.6824 50.4616 33.6659 50.4458 33.655 50.4266L33.6543 50.4246C33.642 50.404 33.6344 50.3794 33.6255 50.3561C33.6166 50.3356 33.605 50.3164 33.5995 50.2945C33.5927 50.2685 33.5913 50.2404 33.5886 50.2137C33.5858 50.1931 33.5803 50.1726 33.5803 50.1521V50.1507V35.4424L30.3997 33.6101L28.097 32.2852ZM34.1295 28.181L28.6468 31.3369L34.1281 34.4927L39.6101 31.3362L34.1281 28.181H34.1295ZM36.9807 47.8761L40.1614 46.0452V32.2852L37.8586 33.6108L34.6773 35.4424V49.2024L36.9807 47.8761ZM53.8712 31.9052L48.3892 35.061L53.8712 38.2169L59.3525 35.0603L53.8712 31.9052ZM53.3227 39.1666L50.1414 37.3349L47.8386 36.0093V42.2567L51.0193 44.0876L53.3227 45.4139V39.1666ZM40.7085 53.2449L48.7493 48.6546L52.7688 46.3608L47.2909 43.207L40.9837 46.8381L35.2353 50.1473L40.7085 53.2449Z" fill="url(#paint2_linear_1_473)"/>
</g>
<defs>
<filter id="filter0_f_1_473" x="0" y="0" width="88" height="89" filterUnits="userSpaceOnUse" color-interpolation-filters="sRGB">
<feFlood flood-opacity="0" result="BackgroundImageFix"/>
<feBlend mode="normal" in="SourceGraphic" in2="BackgroundImageFix" result="shape"/>
<feGaussianBlur stdDeviation="10" result="effect1_foregroundBlur_1_473"/>
</filter>
<filter id="filter1_f_1_473" x="7" y="7" width="74" height="75" filterUnits="userSpaceOnUse" color-interpolation-filters="sRGB">
<feFlood flood-opacity="0" result="BackgroundImageFix"/>
<feBlend mode="normal" in="SourceGraphic" in2="BackgroundImageFix" result="shape"/>
<feGaussianBlur stdDeviation="10" result="effect1_foregroundBlur_1_473"/>
</filter>
<filter id="filter2_f_1_473" x="1" y="1" width="86" height="87" filterUnits="userSpaceOnUse" color-interpolation-filters="sRGB">
<feFlood flood-opacity="0" result="BackgroundImageFix"/>
<feBlend mode="normal" in="SourceGraphic" in2="BackgroundImageFix" result="shape"/>
<feGaussianBlur stdDeviation="10" result="effect1_foregroundBlur_1_473"/>
</filter>
<filter id="filter3_d_1_473" x="11" y="15" width="66" height="67" filterUnits="userSpaceOnUse" color-interpolation-filters="sRGB">
<feFlood flood-opacity="0" result="BackgroundImageFix"/>
<feColorMatrix in="SourceAlpha" type="matrix" values="0 0 0 0 0 0 0 0 0 0 0 0 0 0 0 0 0 0 127 0" result="hardAlpha"/>
<feOffset dy="4"/>
<feGaussianBlur stdDeviation="8"/>
<feComposite in2="hardAlpha" operator="out"/>
<feColorMatrix type="matrix" values="0 0 0 0 1 0 0 0 0 0.176471 0 0 0 0 0.12549 0 0 0 1 0"/>
<feBlend mode="normal" in2="BackgroundImageFix" result="effect1_dropShadow_1_473"/>
<feBlend mode="normal" in="SourceGraphic" in2="effect1_dropShadow_1_473" result="shape"/>
</filter>
<radialGradient id="paint0_radial_1_473" cx="0" cy="0" r="1" gradientUnits="userSpaceOnUse" gradientTransform="translate(44 45) rotate(90) scale(42)">
<stop stop-color="#383C68"/>
<stop offset="1" stop-color="#242854"/>
</radialGradient>
<linearGradient id="paint1_linear_1_473" x1="44" y1="3" x2="44" y2="87" gradientUnits="userSpaceOnUse">
<stop stop-color="#515684"/>
<stop offset="1" stop-color="#0D1033"/>
</linearGradient>
<linearGradient id="paint2_linear_1_473" x1="61" y1="44.5" x2="27" y2="44.5" gradientUnits="userSpaceOnUse">
<stop stop-color="#FF2D20"/>
<stop offset="0.5" stop-color="#FF9D97"/>
<stop offset="1" stop-color="#FF2D20"/>
</linearGradient>
</defs>
</svg>
