<svg width="27" height="30" viewBox="0 0 27 30" fill="none" xmlns="http://www.w3.org/2000/svg">
<path d="M4.662 27H1.5C1.10218 27 0.720644 27.158 0.43934 27.4393C0.158035 27.7206 0 28.1022 0 28.5C0 28.8978 0.158035 29.2794 0.43934 29.5607C0.720644 29.842 1.10218 30 1.5 30H25.5C25.8978 30 26.2794 29.842 26.5607 29.5607C26.842 29.2794 27 28.8978 27 28.5C27 28.1022 26.842 27.7206 26.5607 27.4393C26.2794 27.158 25.8978 27 25.5 27H22.338C21.9675 22.839 20.7315 15.585 16.599 13.5C20.445 11.3655 21.7785 6.285 22.245 3H25.5C25.8978 3 26.2794 2.84196 26.5607 2.56066C26.842 2.27936 27 1.89782 27 1.5C27 1.10218 26.842 0.720644 26.5607 0.43934C26.2794 0.158035 25.8978 0 25.5 0H1.5C1.10218 0 0.720644 0.158035 0.43934 0.43934C0.158035 0.720644 0 1.10218 0 1.5C0 1.89782 0.158035 2.27936 0.43934 2.56066C0.720644 2.84196 1.10218 3 1.5 3H4.755C5.2215 6.285 6.555 11.3655 10.401 13.5C6.2685 15.585 5.0325 22.839 4.662 27ZM9 21.9C9 20.1 13.5 16.5 13.5 16.5C13.5 16.5 18 20.1 18 21.9V27H9V21.9Z" fill="#4353FF"/>
</svg>
