<svg width="106" height="94" viewBox="0 0 106 94" fill="none" xmlns="http://www.w3.org/2000/svg">
<rect x="10.25" y="1.25" width="85.5" height="85.5" rx="20.75" fill="url(#paint0_radial_1_479)" stroke="url(#paint1_linear_1_479)" stroke-width="1.5"/>
<g filter="url(#filter0_ddd_1_479)">
<path d="M52.5142 55.9418C52.3906 55.9418 52.2678 55.9094 52.1594 55.847L51.0301 55.1784C50.8614 55.0841 50.9437 55.0507 50.9994 55.0315C51.2243 54.9527 51.2699 54.9349 51.51 54.7986C51.5352 54.7842 51.5682 54.7893 51.594 54.8045L52.4617 55.3194C52.493 55.3363 52.5374 55.3363 52.5665 55.3194L55.9494 53.3667C55.9807 53.3489 56.001 53.3125 56.001 53.2752V49.3716C56.001 49.3326 55.9807 49.2979 55.9487 49.2785L52.5672 47.3275C52.5358 47.3088 52.4943 47.3088 52.463 47.3275L49.0822 49.2785C49.0494 49.2971 49.0286 49.3335 49.0286 49.3708V53.2744C49.0286 53.3117 49.0489 53.3472 49.0811 53.365L50.0074 53.9002C50.5104 54.1517 50.8178 53.8553 50.8178 53.5572V49.7044C50.8178 49.6493 50.861 49.607 50.916 49.607H51.3445C51.3978 49.607 51.4419 49.6493 51.4419 49.7044V53.5589C51.4419 54.2296 51.0761 54.6149 50.4401 54.6149C50.2445 54.6149 50.0904 54.6149 49.6603 54.4032L48.7728 53.8917C48.5535 53.7647 48.418 53.5276 48.418 53.2744V49.3708C48.418 49.1167 48.5535 48.8796 48.7728 48.7543L52.1591 46.8008C52.3733 46.6797 52.6579 46.6797 52.8704 46.8008L56.2524 48.7551C56.4709 48.8813 56.6072 49.1176 56.6072 49.3716V53.2752C56.6072 53.5284 56.4709 53.7647 56.2524 53.8917L52.8704 55.8452C52.762 55.9079 52.6392 55.9401 52.5139 55.9401" fill="#689F63"/>
<path d="M53.5597 53.2515C52.0796 53.2515 51.7692 52.572 51.7692 52.0022C51.7692 51.948 51.8129 51.9048 51.8672 51.9048H52.3041C52.3524 51.9048 52.393 51.9399 52.4007 51.9876C52.4667 52.4328 52.6632 52.6574 53.5582 52.6574C54.2712 52.6574 54.5743 52.4963 54.5743 52.1182C54.5743 51.9006 54.488 51.7389 53.3804 51.6305C52.454 51.5391 51.8816 51.335 51.8816 50.594C51.8816 49.9115 52.4574 49.5051 53.4219 49.5051C54.5049 49.5051 55.0418 49.8811 55.1095 50.6889C55.112 50.7168 55.1019 50.7439 55.0832 50.7642C55.0646 50.7837 55.0384 50.7956 55.0113 50.7956H54.5718C54.5261 50.7956 54.4863 50.7634 54.477 50.7194C54.3711 50.2511 54.1154 50.1012 53.4202 50.1012C52.642 50.1012 52.5514 50.3722 52.5514 50.5754C52.5514 50.8218 52.6581 50.8938 53.7081 51.0327C54.7479 51.1707 55.2416 51.3655 55.2416 52.0962C55.2416 52.8329 54.6268 53.2555 53.5548 53.2555M57.6752 49.1156H57.7887C57.8819 49.1156 57.8996 49.0504 57.8996 49.0123C57.8996 48.9123 57.831 48.9123 57.7929 48.9123H57.6761L57.6752 49.1156ZM57.5372 48.7955H57.7887C57.8751 48.7955 58.0444 48.7955 58.0444 48.9886C58.0444 49.1232 57.9581 49.1511 57.9064 49.1681C58.0072 49.1748 58.0139 49.2409 58.0275 49.334C58.0343 49.3925 58.0453 49.4932 58.0656 49.5271H57.9106C57.9064 49.4932 57.8827 49.3069 57.8827 49.2968C57.8725 49.2553 57.8581 49.235 57.8065 49.235H57.6786V49.528H57.5372V48.7955ZM57.2349 49.1596C57.2349 49.4628 57.4796 49.7083 57.7802 49.7083C58.0834 49.7083 58.3281 49.4577 58.3281 49.1596C58.3281 48.8556 58.08 48.6143 57.7794 48.6143C57.483 48.6143 57.2341 48.8522 57.2341 49.1588M58.4331 49.1613C58.4331 49.5203 58.1393 49.8133 57.7811 49.8133C57.4254 49.8133 57.1291 49.5237 57.1291 49.1613C57.1291 48.7921 57.4322 48.5093 57.7811 48.5093C58.1325 48.5093 58.4323 48.7929 58.4323 49.1613" fill="#689F63"/>
<path fill-rule="evenodd" clip-rule="evenodd" d="M42.039 40.6676C42.039 40.5118 41.9568 40.3687 41.8224 40.2912L38.2358 38.2276C38.1752 38.192 38.1074 38.1734 38.0386 38.1708H38.0015C37.9328 38.1734 37.865 38.192 37.8034 38.2276L34.2169 40.2912C34.0833 40.3691 34 40.5122 34 40.668L34.0079 46.2262C34.0079 46.3033 34.0477 46.3753 34.1154 46.4134C34.1815 46.454 34.2644 46.454 34.3305 46.4134L36.4627 45.1923C36.5973 45.1122 36.6795 44.9706 36.6795 44.8164V42.2197C36.6795 42.0647 36.7616 41.9216 36.8958 41.8446L37.8036 41.3218C37.871 41.2828 37.945 41.2635 38.0203 41.2635C38.0945 41.2635 38.1702 41.2827 38.2358 41.3217L39.1431 41.8443C39.2774 41.9214 39.3599 42.0645 39.3599 42.2195V44.8159C39.3599 44.97 39.4431 45.1123 39.5771 45.1919L41.7079 46.4121C41.7748 46.4519 41.858 46.4519 41.9247 46.4121C41.9904 46.374 42.032 46.302 42.032 46.225L42.039 40.6676ZM58.9634 43.5615C58.9634 43.6002 58.9428 43.636 58.9092 43.6552L57.6773 44.3653C57.6438 44.3845 57.6025 44.3845 57.5692 44.3653L56.3371 43.6552C56.3032 43.6359 56.2829 43.6001 56.2829 43.5615V42.1393C56.2829 42.1005 56.3032 42.0647 56.3362 42.0453L57.5675 41.334C57.6013 41.3145 57.6428 41.3145 57.6767 41.334L58.9088 42.0453C58.9426 42.0647 58.963 42.1005 58.963 42.1393L58.9634 43.5615ZM59.2962 33.0274C59.2289 32.99 59.1471 32.991 59.0807 33.0297C59.0147 33.0687 58.9739 33.1398 58.9739 33.2168V38.7209C58.9739 38.7751 58.9451 38.8251 58.8982 38.8522C58.8516 38.8793 58.7936 38.8793 58.7466 38.8522L57.8482 38.3347C57.7144 38.2573 57.5496 38.2573 57.4153 38.3347L53.8275 40.4053C53.6934 40.4824 53.6107 40.6255 53.6107 40.7796V44.922C53.6107 45.077 53.6934 45.2193 53.8275 45.2972L57.4153 47.3692C57.5493 47.4463 57.7142 47.4463 57.8486 47.3692L61.4364 45.2963C61.5702 45.2184 61.6532 45.0761 61.6532 44.9212V34.5973C61.6532 34.4401 61.5676 34.2956 61.4305 34.2188L59.2962 33.0274ZM71.2436 42.1018C71.3769 42.0244 71.4589 41.8815 71.4589 41.7274V40.7235C71.4589 40.569 71.3768 40.4265 71.2433 40.3488L67.6783 38.2792C67.5437 38.2013 67.3786 38.2013 67.2439 38.2792L63.657 40.3496C63.5223 40.4275 63.4402 40.5698 63.4402 40.7247V44.8655C63.4402 45.0213 63.524 45.1652 63.6587 45.2423L67.2228 47.2737C67.354 47.3491 67.5149 47.3499 67.6479 47.2762L69.8037 46.0781C69.8715 46.04 69.9147 45.968 69.9147 45.8901C69.9147 45.8122 69.8732 45.7393 69.8054 45.7012L66.1965 43.63C66.1287 43.5919 66.0872 43.5199 66.0872 43.4429V42.1439C66.0872 42.0664 66.1279 41.9949 66.1956 41.9563L67.3185 41.3085C67.3853 41.2695 67.4675 41.2695 67.5344 41.3085L68.6581 41.9563C68.725 41.9944 68.7664 42.0664 68.7664 42.1434V43.1646C68.7664 43.2417 68.8079 43.3137 68.8748 43.3526C68.9417 43.3907 69.0247 43.3907 69.0916 43.3518L71.2436 42.1018Z" fill="white"/>
<path fill-rule="evenodd" clip-rule="evenodd" d="M67.4091 41.9082C67.4345 41.8932 67.4663 41.8932 67.492 41.9082L68.1805 42.3054C68.2062 42.3203 68.222 42.3477 68.222 42.3773V43.1725C68.222 43.2021 68.2062 43.2295 68.1805 43.2444L67.492 43.6416C67.4663 43.6566 67.4345 43.6566 67.4091 43.6416L66.721 43.2444C66.6948 43.2295 66.6787 43.2021 66.6787 43.1725V42.3773C66.6787 42.3477 66.694 42.3203 66.7202 42.3054L67.4091 41.9082Z" fill="#689F63"/>
<mask id="mask0_1_479" style="mask-type:luminance" maskUnits="userSpaceOnUse" x="43" y="38" width="9" height="10">
<path d="M47.6094 38.2993L44.0419 40.3584C43.9083 40.4354 43.8263 40.5777 43.8263 40.7315V44.8526C43.8263 45.0064 43.9083 45.1486 44.0419 45.2257L47.6096 47.2864C47.743 47.3632 47.9075 47.3632 48.0407 47.2864L51.6078 45.2257C51.7407 45.1486 51.8229 45.0064 51.8229 44.8526V40.7315C51.8229 40.5777 51.7407 40.4354 51.607 40.3584L48.0403 38.2993C47.9734 38.2609 47.8989 38.2417 47.8244 38.2417C47.7499 38.2417 47.6754 38.2609 47.6085 38.2993" fill="white"/>
</mask>
<g mask="url(#mask0_1_479)">
<path d="M55.4277 40.0085L45.3751 35.0811L40.2208 45.5958L50.2731 50.5235L55.4277 40.0085Z" fill="url(#paint2_linear_1_479)"/>
</g>
<mask id="mask1_1_479" style="mask-type:luminance" maskUnits="userSpaceOnUse" x="43" y="38" width="9" height="10">
<path d="M43.915 45.1147C43.9491 45.159 43.9918 45.1974 44.042 45.2262L47.1023 46.9938L47.612 47.2868C47.6882 47.3308 47.7751 47.3495 47.8605 47.3431C47.8889 47.3408 47.9174 47.3355 47.9451 47.3276L51.7077 40.4382C51.6789 40.4069 51.6452 40.3807 51.6075 40.3586L49.2715 39.0097L48.0368 38.2993C48.0017 38.279 47.9637 38.2646 47.925 38.2544L43.915 45.1147Z" fill="white"/>
</mask>
<g mask="url(#mask1_1_479)">
<path d="M39.569 41.4666L46.6671 51.0736L56.0545 44.138L48.9559 34.5312L39.569 41.4666Z" fill="url(#paint3_linear_1_479)"/>
</g>
<mask id="mask2_1_479" style="mask-type:luminance" maskUnits="userSpaceOnUse" x="44" y="38" width="8" height="10">
<path d="M47.7819 38.2448C47.722 38.2507 47.6635 38.2693 47.6095 38.3L44.0522 40.3532L47.8881 47.3399C47.9415 47.3323 47.994 47.3145 48.0414 47.2871L51.6089 45.2264C51.719 45.1625 51.7943 45.0545 51.8172 44.932L47.9068 38.2518C47.878 38.2461 47.8492 38.2432 47.8195 38.2432C47.8077 38.2432 47.7958 38.2438 47.784 38.2449" fill="white"/>
</mask>
<g mask="url(#mask2_1_479)">
<path d="M44.0517 38.2432V47.3401H51.8152V38.2432H44.0517Z" fill="url(#paint4_linear_1_479)"/>
</g>
</g>
<defs>
<filter id="filter0_ddd_1_479" x="0" y="3" width="105.459" height="90.9419" filterUnits="userSpaceOnUse" color-interpolation-filters="sRGB">
<feFlood flood-opacity="0" result="BackgroundImageFix"/>
<feColorMatrix in="SourceAlpha" type="matrix" values="0 0 0 0 0 0 0 0 0 0 0 0 0 0 0 0 0 0 127 0" result="hardAlpha"/>
<feOffset dy="4"/>
<feGaussianBlur stdDeviation="17"/>
<feComposite in2="hardAlpha" operator="out"/>
<feColorMatrix type="matrix" values="0 0 0 0 0.423529 0 0 0 0 0.643137 0 0 0 0 0.368627 0 0 0 1 0"/>
<feBlend mode="normal" in2="BackgroundImageFix" result="effect1_dropShadow_1_479"/>
<feColorMatrix in="SourceAlpha" type="matrix" values="0 0 0 0 0 0 0 0 0 0 0 0 0 0 0 0 0 0 127 0" result="hardAlpha"/>
<feOffset dy="4"/>
<feGaussianBlur stdDeviation="17"/>
<feComposite in2="hardAlpha" operator="out"/>
<feColorMatrix type="matrix" values="0 0 0 0 0.423529 0 0 0 0 0.643137 0 0 0 0 0.368627 0 0 0 1 0"/>
<feBlend mode="normal" in2="effect1_dropShadow_1_479" result="effect2_dropShadow_1_479"/>
<feColorMatrix in="SourceAlpha" type="matrix" values="0 0 0 0 0 0 0 0 0 0 0 0 0 0 0 0 0 0 127 0" result="hardAlpha"/>
<feOffset dy="4"/>
<feGaussianBlur stdDeviation="17"/>
<feComposite in2="hardAlpha" operator="out"/>
<feColorMatrix type="matrix" values="0 0 0 0 0.423529 0 0 0 0 0.643137 0 0 0 0 0.368627 0 0 0 1 0"/>
<feBlend mode="normal" in2="effect2_dropShadow_1_479" result="effect3_dropShadow_1_479"/>
<feBlend mode="normal" in="SourceGraphic" in2="effect3_dropShadow_1_479" result="shape"/>
</filter>
<radialGradient id="paint0_radial_1_479" cx="0" cy="0" r="1" gradientUnits="userSpaceOnUse" gradientTransform="translate(53 44) rotate(90) scale(42)">
<stop stop-color="#383C68"/>
<stop offset="1" stop-color="#242854"/>
</radialGradient>
<linearGradient id="paint1_linear_1_479" x1="53" y1="2" x2="53" y2="86" gradientUnits="userSpaceOnUse">
<stop stop-color="#515684"/>
<stop offset="1" stop-color="#0D1033"/>
</linearGradient>
<linearGradient id="paint2_linear_1_479" x1="50.3984" y1="37.537" x2="45.2444" y2="48.0511" gradientUnits="userSpaceOnUse">
<stop offset="0.3" stop-color="#3E863D"/>
<stop offset="0.5" stop-color="#55934F"/>
<stop offset="0.8" stop-color="#5AAD45"/>
</linearGradient>
<linearGradient id="paint3_linear_1_479" x1="43.1606" y1="46.3252" x2="52.5483" y2="39.3887" gradientUnits="userSpaceOnUse">
<stop offset="0.57" stop-color="#3E863D"/>
<stop offset="0.72" stop-color="#619857"/>
<stop offset="1" stop-color="#76AC64"/>
</linearGradient>
<linearGradient id="paint4_linear_1_479" x1="44.0543" y1="42.7919" x2="51.8167" y2="42.7919" gradientUnits="userSpaceOnUse">
<stop offset="0.16" stop-color="#6BBF47"/>
<stop offset="0.38" stop-color="#79B461"/>
<stop offset="0.47" stop-color="#75AC64"/>
<stop offset="0.7" stop-color="#659E5A"/>
<stop offset="0.9" stop-color="#3E863D"/>
</linearGradient>
</defs>
</svg>
