<svg width="107" height="94" viewBox="0 0 107 94" fill="none" xmlns="http://www.w3.org/2000/svg">
<rect x="10.25" y="1.25" width="85.5" height="85.5" rx="20.75" fill="url(#paint0_radial_1_483)" stroke="url(#paint1_linear_1_483)" stroke-width="1.5"/>
<g filter="url(#filter0_d_1_483)">
<path d="M44.5467 40.8985C44.5467 41.4027 44.6012 41.8115 44.6966 42.1113C44.8056 42.4111 44.9419 42.7381 45.1327 43.0924C45.2008 43.2014 45.2281 43.3105 45.2281 43.4058C45.2281 43.5421 45.1463 43.6784 44.9691 43.8147L44.1106 44.387C43.988 44.4688 43.8653 44.5096 43.7563 44.5096C43.6201 44.5096 43.4838 44.4415 43.3475 44.3189C43.1567 44.1145 42.9932 43.8964 42.8569 43.6784C42.7207 43.4467 42.5844 43.1878 42.4345 42.8744C41.3716 44.1281 40.0361 44.7549 38.4282 44.7549C37.2835 44.7549 36.3705 44.4279 35.7027 43.7738C35.035 43.1197 34.6943 42.2475 34.6943 41.1574C34.6943 39.9991 35.1031 39.0588 35.9344 38.3502C36.7656 37.6416 37.8694 37.2873 39.273 37.2873C39.7363 37.2873 40.2133 37.3282 40.7175 37.3963C41.2217 37.4645 41.7395 37.5735 42.2846 37.6961V36.7013C42.2846 35.6657 42.0666 34.9434 41.6441 34.521C41.2081 34.0986 40.4722 33.8942 39.4229 33.8942C38.946 33.8942 38.4554 33.9487 37.9512 34.0713C37.447 34.194 36.9564 34.3439 36.4795 34.5346C36.2614 34.63 36.0979 34.6845 36.0025 34.7118C35.9071 34.739 35.839 34.7527 35.7845 34.7527C35.5937 34.7527 35.4983 34.6164 35.4983 34.3302V33.6625C35.4983 33.4445 35.5256 33.2809 35.5937 33.1856C35.6619 33.0902 35.7845 32.9948 35.9753 32.8994C36.4522 32.6541 37.0246 32.4497 37.6923 32.2862C38.36 32.109 39.0686 32.0273 39.8181 32.0273C41.4397 32.0273 42.6253 32.3952 43.3884 33.131C44.1379 33.8669 44.5194 34.9843 44.5194 36.4833V40.8985H44.5467ZM39.0141 42.9698C39.4638 42.9698 39.9271 42.888 40.4177 42.7245C40.9083 42.561 41.3443 42.2612 41.7123 41.8524C41.9303 41.5935 42.0938 41.3073 42.1756 40.9802C42.2574 40.6532 42.3119 40.258 42.3119 39.7947V39.2223C41.9167 39.127 41.4942 39.0452 41.0582 38.9907C40.6221 38.9362 40.1997 38.9089 39.7772 38.9089C38.8642 38.9089 38.1965 39.0861 37.7468 39.454C37.2971 39.8219 37.0791 40.3398 37.0791 41.0211C37.0791 41.6616 37.2426 42.1385 37.5833 42.4656C37.9103 42.8063 38.3873 42.9698 39.0141 42.9698ZM49.9566 44.4415C49.7114 44.4415 49.5478 44.4006 49.4388 44.3052C49.3298 44.2235 49.2344 44.0327 49.1526 43.7738L45.9503 33.2401C45.8685 32.9675 45.8276 32.7904 45.8276 32.695C45.8276 32.4769 45.9367 32.3543 46.1547 32.3543H47.4901C47.7491 32.3543 47.9262 32.3952 48.0216 32.4906C48.1306 32.5723 48.2124 32.7631 48.2941 33.022L50.5835 42.0431L52.7093 33.022C52.7774 32.7495 52.8592 32.5723 52.9682 32.4906C53.0772 32.4088 53.268 32.3543 53.5133 32.3543H54.6035C54.8624 32.3543 55.0395 32.3952 55.1486 32.4906C55.2576 32.5723 55.353 32.7631 55.4075 33.022L57.5605 42.1522L59.918 33.022C59.9998 32.7495 60.0952 32.5723 60.1906 32.4906C60.2996 32.4088 60.4767 32.3543 60.722 32.3543H61.9893C62.2074 32.3543 62.33 32.4633 62.33 32.695C62.33 32.7631 62.3164 32.8313 62.3028 32.913C62.2891 32.9948 62.2619 33.1038 62.2074 33.2537L58.9232 43.7874C58.8415 44.0599 58.7461 44.2371 58.6371 44.3189C58.5281 44.4006 58.3509 44.4551 58.1193 44.4551H56.9473C56.6884 44.4551 56.5113 44.4143 56.4022 44.3189C56.2932 44.2235 56.1978 44.0463 56.1433 43.7738L54.0311 34.9843L51.9326 43.7602C51.8644 44.0327 51.7827 44.2098 51.6737 44.3052C51.5646 44.4006 51.3739 44.4415 51.1286 44.4415H49.9566ZM67.4674 44.8094C66.7588 44.8094 66.0502 44.7277 65.3688 44.5641C64.6875 44.4006 64.156 44.2235 63.8017 44.0191C63.5837 43.8964 63.4338 43.7602 63.3793 43.6375C63.3248 43.5149 63.2975 43.3786 63.2975 43.256V42.561C63.2975 42.2748 63.4066 42.1385 63.611 42.1385C63.6927 42.1385 63.7745 42.1522 63.8562 42.1794C63.938 42.2067 64.0606 42.2612 64.1969 42.3157C64.6602 42.5201 65.1644 42.6836 65.6959 42.7926C66.241 42.9016 66.7724 42.9562 67.3175 42.9562C68.176 42.9562 68.8437 42.8063 69.3071 42.5065C69.7704 42.2067 70.0157 41.7706 70.0157 41.2119C70.0157 40.8303 69.893 40.5169 69.6477 40.258C69.4025 39.9991 68.9391 39.7674 68.2714 39.5494L66.2955 38.9362C65.3007 38.6228 64.5649 38.1594 64.1152 37.5462C63.6655 36.9466 63.4338 36.2789 63.4338 35.5703C63.4338 34.998 63.5564 34.4938 63.8017 34.0577C64.047 33.6216 64.3741 33.2401 64.7829 32.9403C65.1917 32.6268 65.655 32.3952 66.2001 32.2317C66.7452 32.0681 67.3175 32 67.9171 32C68.2169 32 68.5303 32.0136 68.8301 32.0545C69.1435 32.0954 69.4297 32.1499 69.7159 32.2044C69.9884 32.2725 70.2473 32.3407 70.4926 32.4224C70.7379 32.5042 70.9287 32.586 71.065 32.6677C71.2557 32.7767 71.392 32.8858 71.4738 33.0084C71.5555 33.1174 71.5964 33.2673 71.5964 33.4581V34.0986C71.5964 34.3847 71.4874 34.5346 71.283 34.5346C71.174 34.5346 70.9968 34.4801 70.7652 34.3711C69.9884 34.0168 69.1163 33.8397 68.1488 33.8397C67.372 33.8397 66.7588 33.9623 66.3364 34.2212C65.9139 34.4801 65.6959 34.8753 65.6959 35.434C65.6959 35.8156 65.8322 36.1426 66.1047 36.4015C66.3772 36.6605 66.8815 36.9194 67.6037 37.151L69.5387 37.7642C70.5199 38.0777 71.2285 38.5137 71.6509 39.0724C72.0734 39.6312 72.2778 40.2716 72.2778 40.9802C72.2778 41.5662 72.1551 42.0977 71.9235 42.561C71.6782 43.0243 71.3511 43.4331 70.9287 43.7602C70.5062 44.1008 70.002 44.3461 69.4161 44.5233C68.8029 44.714 68.1624 44.8094 67.4674 44.8094Z" fill="white"/>
<path fill-rule="evenodd" clip-rule="evenodd" d="M70.0427 51.4319C65.5594 54.7432 59.0457 56.5011 53.445 56.5011C45.5958 56.5011 38.5233 53.5986 33.1815 48.7746C32.7591 48.393 33.1406 47.8752 33.6448 48.175C39.4227 51.5272 46.5497 53.5577 53.9219 53.5577C58.8958 53.5577 64.3602 52.522 69.3886 50.3962C70.1381 50.0555 70.7786 50.8868 70.0427 51.4319Z" fill="#FF9900"/>
<path fill-rule="evenodd" clip-rule="evenodd" d="M71.9099 49.3064C71.3375 48.5705 68.1215 48.9521 66.6635 49.1292C66.2274 49.1837 66.1593 48.8022 66.5544 48.516C69.1163 46.7172 73.3271 47.2351 73.8177 47.8347C74.3082 48.4479 73.6814 52.6586 71.283 54.6755C70.9151 54.9889 70.5608 54.8254 70.7243 54.4165C71.2694 53.0675 72.4822 50.0286 71.9099 49.3064Z" fill="#FF9900"/>
</g>
<defs>
<filter id="filter0_d_1_483" x="0" y="3" width="106.973" height="90.501" filterUnits="userSpaceOnUse" color-interpolation-filters="sRGB">
<feFlood flood-opacity="0" result="BackgroundImageFix"/>
<feColorMatrix in="SourceAlpha" type="matrix" values="0 0 0 0 0 0 0 0 0 0 0 0 0 0 0 0 0 0 127 0" result="hardAlpha"/>
<feOffset dy="4"/>
<feGaussianBlur stdDeviation="16.5"/>
<feComposite in2="hardAlpha" operator="out"/>
<feColorMatrix type="matrix" values="0 0 0 0 1 0 0 0 0 0.6 0 0 0 0 0 0 0 0 1 0"/>
<feBlend mode="normal" in2="BackgroundImageFix" result="effect1_dropShadow_1_483"/>
<feBlend mode="normal" in="SourceGraphic" in2="effect1_dropShadow_1_483" result="shape"/>
</filter>
<radialGradient id="paint0_radial_1_483" cx="0" cy="0" r="1" gradientUnits="userSpaceOnUse" gradientTransform="translate(53 44) rotate(90) scale(42)">
<stop stop-color="#383C68"/>
<stop offset="1" stop-color="#242854"/>
</radialGradient>
<linearGradient id="paint1_linear_1_483" x1="53" y1="2" x2="53" y2="86" gradientUnits="userSpaceOnUse">
<stop stop-color="#515684"/>
<stop offset="1" stop-color="#0D1033"/>
</linearGradient>
</defs>
</svg>
