<svg width="50" height="50" viewBox="0 0 50 50" fill="none" xmlns="http://www.w3.org/2000/svg">
<circle cx="25" cy="25" r="25" fill="#4353FF"/>
<path d="M20.7126 29.6937C24.4512 25.9552 24.6287 25.7776 28.3482 22.0582C28.3731 22.0704 28.398 22.0826 28.4166 22.1011C28.3709 22.2334 28.3252 22.3657 28.2856 22.5042C27.7147 24.3494 28.0617 26.0188 29.1003 27.5533C29.137 27.6155 29.2561 27.6202 29.3434 27.6566C29.3635 27.5623 29.4216 27.4423 29.385 27.3676C29.196 26.9751 28.9376 26.615 28.7801 26.2159C28.0527 24.3949 28.2708 22.6675 29.4471 21.0335C29.5238 20.9321 29.4698 20.751 29.4846 20.5877C28.8279 20.9229 28.2964 21.2688 27.7292 21.4772C26.0717 22.0832 24.5137 21.835 23.0653 20.9207C22.885 20.804 22.6752 20.5561 22.4817 20.9475C24.1704 22.1784 25.3907 22.356 28.1518 21.7473C27.9738 21.9254 27.853 22.0462 27.7322 22.167C24.2289 25.6703 24.2611 25.638 20.7577 29.1539C20.6242 29.2874 20.3276 29.4231 20.7126 29.6937Z" fill="#727272" stroke="white"/>
</svg>
