<svg width="30" height="19" viewBox="0 0 30 19" fill="none" xmlns="http://www.w3.org/2000/svg">
<path opacity="0.7" fill-rule="evenodd" clip-rule="evenodd" d="M2.74587 2.78249C4.50403 1.00089 6.8886 0 9.375 0H20.625C23.1114 0 25.496 1.00089 27.2541 2.78249C29.0123 4.56408 30 6.98044 30 9.5C30 12.0196 29.0123 14.4359 27.2541 16.2175C25.496 17.9991 23.1114 19 20.625 19H9.375C6.8886 19 4.50403 17.9991 2.74587 16.2175C0.98772 14.4359 0 12.0196 0 9.5C0 6.98044 0.98772 4.56408 2.74587 2.78249ZM9.375 3.8C7.88316 3.8 6.45242 4.40053 5.39752 5.46949C4.34263 6.53845 3.75 7.98827 3.75 9.5C3.75 11.0117 4.34263 12.4616 5.39752 13.5305C6.45242 14.5995 7.88316 15.2 9.375 15.2H20.625C22.1168 15.2 23.5476 14.5995 24.6025 13.5305C25.6574 12.4616 26.25 11.0117 26.25 9.5C26.25 7.98827 25.6574 6.53845 24.6025 5.46949C23.5476 4.40053 22.1168 3.8 20.625 3.8H9.375Z" fill="white"/>
</svg>
