<svg width="26" height="30" viewBox="0 0 26 30" fill="none" xmlns="http://www.w3.org/2000/svg">
<g opacity="0.7">
<path d="M25.9999 8.58769C25.9999 8.0991 25.8958 7.65856 25.6795 7.29009C25.4713 6.92165 25.1589 6.61728 24.7424 6.37699C21.2822 4.38252 17.8139 2.38809 14.3536 0.393626C13.4165 -0.14304 12.5194 -0.127014 11.5903 0.417649C10.2126 1.22666 3.30806 5.18351 1.25755 6.37699C0.408488 6.86557 0 7.61851 0 8.59572V20.6425C0 21.1231 0.104121 21.5476 0.304367 21.9161C0.512644 22.2926 0.833037 22.6129 1.25755 22.8612C3.31609 24.0547 10.2126 28.0036 11.5903 28.8206C12.5194 29.3651 13.4245 29.3892 14.3536 28.8446C17.8139 26.8421 21.2822 24.8557 24.7424 22.8612C25.1749 22.6129 25.4873 22.3005 25.6956 21.9161C25.8958 21.5476 25.9999 21.1231 25.9999 20.6425V8.58769Z" fill="white"/>
<path d="M13.032 14.571L0.288361 21.908C0.496637 22.2845 0.817031 22.6049 1.24155 22.8532C3.30008 24.0467 10.1965 27.9955 11.5742 28.8125C12.5034 29.3572 13.4085 29.3813 14.3376 28.8366C17.7979 26.8341 21.2662 24.8477 24.7264 22.8532C25.1589 22.6049 25.4713 22.2925 25.6796 21.908L13.032 14.571Z" fill="white"/>
<path d="M9.25938 16.7417C10.0043 18.0393 11.398 18.9124 12.992 18.9124C14.602 18.9124 16.0037 18.0313 16.7406 16.7177L13.032 14.571L9.25938 16.7417Z" fill="white"/>
<path d="M26 8.58788C26 8.0993 25.8958 7.65876 25.6796 7.29028L13.032 14.5712L25.6956 21.9083C25.8958 21.5398 26 21.1153 26 20.6347V8.58788Z" fill="white"/>
<path d="M16.7405 16.7175C16.0037 18.0231 14.6019 18.9122 12.9919 18.9122C11.39 18.9122 9.99627 18.0391 9.25936 16.7415C8.89892 16.1088 8.69064 15.3879 8.69064 14.6109C8.69064 12.232 10.613 10.3096 12.9919 10.3096C14.5779 10.3096 15.9636 11.1747 16.7085 12.4563L20.4651 10.2936C18.9673 7.71446 16.1798 5.97632 12.9839 5.97632C8.21005 5.97632 4.34933 9.84507 4.34933 14.6109C4.34933 16.1728 4.76582 17.6467 5.49474 18.9122C6.98455 21.4994 9.788 23.2455 12.9919 23.2455C16.2039 23.2455 19.0073 21.4914 20.4972 18.8882L16.7405 16.7175ZM21.4904 12.5684H20.6333V16.7095H21.4904V12.5684ZM23.3887 12.5684H22.5316V16.7095H23.3887V12.5684Z" fill="black"/>
<path d="M24.0855 13.2654H19.9444V14.1224H24.0855V13.2654ZM24.0855 15.1557H19.9444V16.0127H24.0855V15.1557Z" fill="black"/>
</g>
</svg>
