<svg width="27" height="28" viewBox="0 0 27 28" fill="none" xmlns="http://www.w3.org/2000/svg">
<g opacity="0.7">
<path d="M13.3392 0.0334264C12.2259 0.0385995 11.1627 0.13355 10.2272 0.299088C7.47132 0.785962 6.97096 1.80503 6.97096 3.68437V6.1664H13.4835V6.99375H6.97096H4.52688C2.63416 6.99375 0.97685 8.13138 0.458464 10.2955C-0.139488 12.7762 -0.166011 14.3241 0.458464 16.9143C0.921395 18.8423 2.02694 20.2161 3.91965 20.2161H6.15879V17.2407C6.15879 15.0911 8.01864 13.195 10.2272 13.195H16.7321C18.5428 13.195 19.9884 11.7041 19.9884 9.88566V3.68437C19.9884 1.91945 18.4994 0.593646 16.7321 0.299088C15.6134 0.112858 14.4526 0.0282533 13.3392 0.0334264ZM9.81733 2.02968C10.49 2.02968 11.0394 2.588 11.0394 3.27449C11.0394 3.95855 10.49 4.51171 9.81733 4.51171C9.14222 4.51171 8.59529 3.95855 8.59529 3.27449C8.59529 2.588 9.14222 2.02968 9.81733 2.02968Z" fill="white"/>
<path d="M20.8005 6.99365V9.88556C20.8005 12.1276 18.8997 14.0147 16.7321 14.0147H10.2272C8.44538 14.0147 6.97093 15.5397 6.97093 17.3241V23.5254C6.97093 25.2903 8.50566 26.3284 10.2272 26.8347C12.2887 27.4409 14.2655 27.5505 16.7321 26.8347C18.3716 26.36 19.9883 25.4047 19.9883 23.5254V21.0433H13.4834V20.216H19.9883H23.2446C25.1373 20.216 25.8426 18.8958 26.5008 16.9142C27.1808 14.8742 27.1518 12.9124 26.5008 10.2954C26.0331 8.41123 25.1397 6.99365 23.2446 6.99365H20.8005ZM17.142 22.698C17.8171 22.698 18.364 23.2512 18.364 23.9352C18.364 24.6217 17.8171 25.1801 17.142 25.1801C16.4693 25.1801 15.9199 24.6217 15.9199 23.9352C15.9199 23.2512 16.4693 22.698 17.142 22.698Z" fill="white"/>
</g>
</svg>
