<svg width="29" height="29" viewBox="0 0 29 29" fill="none" xmlns="http://www.w3.org/2000/svg">
<g opacity="0.7">
<path d="M0.998566 23.3808C0.994347 24.0083 1.42046 24.5568 2.02903 24.7087L14.9042 27.8845C15.845 28.1176 16.8385 27.9942 17.6939 27.5396L27.0441 22.4716C27.8573 22.0381 28.2137 21.0635 27.8731 20.2071C27.5335 19.3411 26.5832 18.8813 25.693 19.1534L23.3578 19.9255L24.0877 18.9087C24.5844 18.2305 24.4864 17.2866 23.8609 16.7255C23.2344 16.1633 22.2852 16.1686 21.665 16.7371L16.0823 22.1678L12.0713 20.6827C11.951 20.6342 11.8825 20.5076 11.9088 20.3811L12.1483 19.1618C12.1651 19.0616 12.2411 18.9814 12.3392 18.9572L15.8768 18.3338C16.7385 18.1313 17.3039 17.3065 17.1826 16.4301C17.0613 15.5536 16.2924 14.9134 15.4085 14.9524L9.03387 15.3574C8.39471 15.3964 7.77452 15.5905 7.22819 15.9248L4.29723 17.7126C3.82472 18.0016 3.28154 18.1545 2.7278 18.1556H2.34917C1.59927 18.1609 0.995961 18.7715 0.99912 19.5214L0.998566 23.3808ZM22.2861 17.3879C22.5635 17.139 22.9843 17.1421 23.2575 17.3953C23.5339 17.6516 23.5771 18.0735 23.3588 18.3804L21.9043 20.4055L17.7845 21.7682L22.2861 17.3879ZM1.89824 19.5216C1.89507 19.2685 2.09547 19.0596 2.34861 19.0554H2.72725C3.44658 19.0554 4.15217 18.8561 4.76604 18.4816L7.6951 16.6928V16.6918C8.11699 16.4344 8.59477 16.2846 9.08732 16.254L15.4631 15.849C15.8596 15.8343 16.2077 16.1095 16.2836 16.4998C16.3701 16.9217 16.1138 17.3383 15.6983 17.4512L12.1744 18.0713C11.7124 18.1631 11.3527 18.5249 11.2641 18.9879L11.0247 20.2071V20.2061C10.9108 20.7672 11.222 21.3262 11.7577 21.5255L15.9229 23.0675C16.1613 23.154 16.4218 23.1604 16.6633 23.0844L25.966 20.0087C26.4058 19.8737 26.8741 20.1037 27.0344 20.534C27.2084 20.9654 27.0291 21.4579 26.6188 21.6763L17.2643 26.7452C16.6062 27.0943 15.8415 27.1892 15.118 27.0109L2.24393 23.834C2.03825 23.7813 1.8948 23.5935 1.89799 23.3805L1.89824 19.5216Z" fill="white" stroke="white" stroke-width="0.3"/>
<path d="M18.2338 16.3633C18.4142 16.6049 18.6979 16.7473 18.9995 16.7473C19.3001 16.7473 19.5838 16.6049 19.7642 16.3633L27.8253 5.30349C28.07 4.96808 28.0531 4.51034 27.7863 4.19286L25.3868 1.33346C25.2064 1.11935 24.9396 0.997001 24.6601 0.998054H13.3375C13.058 0.996999 12.7922 1.11935 12.6119 1.33346L10.2124 4.19286C9.94447 4.51034 9.92759 4.96914 10.1723 5.30454L18.2338 16.3633ZM14.6286 5.04833L17.8191 14.2667L11.1026 5.04833H14.6286ZM26.8981 5.04833L20.1784 14.2678L23.3688 5.04833H26.8981ZM22.4187 5.04833L18.9993 14.9226L15.5809 5.04833H22.4187ZM15.8234 4.14866L17.4266 1.90315L20.5738 1.90737L22.1749 4.14867L15.8234 4.14866ZM24.6978 1.91266L26.5752 4.14866H23.2803L21.6803 1.90842L24.6978 1.91266ZM13.3374 1.89789L16.3213 1.90105L14.7171 4.14867H11.4284L13.3374 1.89789Z" fill="white" stroke="white" stroke-width="0.3"/>
</g>
</svg>
