<svg width="32" height="28" viewBox="0 0 32 28" fill="none" xmlns="http://www.w3.org/2000/svg">
<g opacity="0.7">
<path d="M31.1698 9.42476C31.1698 4.2271 26.3918 0 20.519 0C15.0117 0 10.3896 3.76908 9.92399 8.57433C4.38685 8.90864 0 12.9859 0 17.9696C0.0198106 19.9767 0.728047 21.9168 2.00829 23.4633C1.65417 24.2161 1.16261 24.8971 0.558405 25.4679C0.260007 25.6933 0.0643764 26.0288 0.013598 26.399C-0.0371678 26.7692 0.0606489 27.1444 0.287231 27.4428C0.558389 27.7969 0.981838 28.0037 1.42759 28C3.62286 27.9616 5.80462 27.6483 7.92292 27.0689C8.8305 27.2917 9.76284 27.3982 10.6976 27.3858C16.2322 27.3685 20.7836 23.5895 21.2629 18.8029C21.9463 18.767 22.6273 18.6804 23.2984 18.5429C25.407 19.1174 27.5788 19.427 29.763 19.4641C30.1988 19.4604 30.6087 19.2573 30.8761 18.9131C31.1089 18.6135 31.2104 18.2321 31.1572 17.857C31.1163 17.5128 30.9405 17.1995 30.6693 16.9841C30.07 16.4281 29.5773 15.7682 29.2157 15.0352C29.1959 14.9399 29.2244 14.8396 29.2925 14.769C30.4898 13.2424 31.1485 11.3641 31.1695 9.42522L31.1698 9.42476ZM10.6533 25.8019H10.641C9.78415 25.8019 8.92983 25.6954 8.09778 25.485C7.96282 25.4515 7.82167 25.454 7.68794 25.4911C5.78983 26.0273 3.83486 26.3331 1.86363 26.4049C2.6474 25.6063 3.26277 24.6566 3.67134 23.6141C3.78154 23.3306 3.71963 23.0086 3.51286 22.7858C2.28831 21.477 1.60115 19.7547 1.58505 17.9618C1.58505 13.6418 5.6524 10.1266 10.6532 10.1266C15.3891 10.1266 19.3575 13.3261 19.6954 17.4863C19.7078 17.6436 19.7214 17.8033 19.7214 17.9618C19.7226 22.2656 15.669 25.7808 10.6532 25.7982L10.6533 25.8019ZM27.7919 15.7432C28.1844 16.5282 28.7019 17.2439 29.321 17.8642C27.4278 17.7961 25.5497 17.5101 23.722 17.0123C23.436 16.9331 23.1351 16.9281 22.8467 16.9975C22.3254 17.1114 21.7955 17.1832 21.2618 17.2142C20.8483 12.6032 16.662 8.95331 11.5248 8.57928C12.0115 4.63587 15.8943 1.58631 20.5214 1.58631C25.5187 1.58631 29.5873 5.10276 29.5873 9.41767V9.41643C29.5675 11.0037 29.0252 12.5403 28.0446 13.7884C27.5852 14.3357 27.4873 15.0981 27.7919 15.7432Z" fill="white"/>
<path d="M13.3241 17.2749H11.447V15.3991C11.447 14.9608 11.0917 14.6067 10.6546 14.6067C10.2163 14.6067 9.86219 14.9608 9.86219 15.3991V17.2749H7.97895C7.54188 17.2749 7.18652 17.6303 7.18652 18.0674C7.18652 18.5057 7.54188 18.8598 7.97895 18.8598H9.86219V20.7381C9.86219 21.1751 10.2163 21.5305 10.6546 21.5305C11.0917 21.5305 11.447 21.1751 11.447 20.7381V18.8598H13.3241C13.7612 18.8598 14.1165 18.5057 14.1165 18.0674C14.1165 17.6303 13.7612 17.2749 13.3241 17.2749Z" fill="white"/>
<path d="M25.27 7.78174C24.8168 7.78174 24.4082 8.05413 24.2349 8.47264C24.0603 8.89113 24.1556 9.37276 24.4763 9.69347C24.797 10.0142 25.2786 10.1095 25.6972 9.93616C26.1157 9.76281 26.3881 9.35547 26.3881 8.9023C26.3881 8.28322 25.8878 7.78301 25.27 7.78174Z" fill="white"/>
<path d="M21.6347 8.90213C21.6347 10.3953 19.3949 10.3953 19.3949 8.90213C19.3949 7.40892 21.6347 7.40892 21.6347 8.90213Z" fill="white"/>
</g>
</svg>
