<svg width="31" height="20" viewBox="0 0 31 20" fill="none" xmlns="http://www.w3.org/2000/svg">
<g opacity="0.7">
<path fill-rule="evenodd" clip-rule="evenodd" d="M11.7553 10.8216C8.92214 11.2644 6.75226 13.7129 6.75226 16.6725V18.632C6.75226 19.0099 7.05832 19.3159 7.43619 19.3159H23.5633C23.9412 19.3159 24.2473 19.0099 24.2473 18.632V16.6725C24.2473 13.7128 22.0792 11.2646 19.2442 10.8216C20.6531 9.71192 21.5593 7.99013 21.5593 6.05972C21.5593 2.71532 18.8441 0 15.4996 0C12.1551 0 9.43987 2.71519 9.43987 6.05972C9.43987 7.99013 10.3464 9.71192 11.7553 10.8216ZM12.6735 12.1193H18.3279C20.8414 12.1193 22.8793 14.1574 22.8793 16.6725V17.948H8.11999V16.6725C8.11999 14.1573 10.1581 12.1193 12.6731 12.1193H12.6735ZM15.4998 10.7515C12.9112 10.7515 10.808 8.6484 10.808 6.05963C10.808 3.46924 12.9111 1.36777 15.4998 1.36777C18.0886 1.36777 20.1917 3.46915 20.1917 6.05963C20.1917 8.64832 18.0886 10.7515 15.4998 10.7515Z" fill="white"/>
<path fill-rule="evenodd" clip-rule="evenodd" d="M7.15625 11.1687C5.61401 9.62641 5.61401 7.12663 7.15625 5.5843C7.42299 5.31756 7.42299 4.88325 7.15625 4.61655C6.88781 4.34982 6.45521 4.34982 6.1868 4.61655C4.11278 6.69228 4.11278 10.0608 6.1868 12.1365C6.45524 12.4032 6.88785 12.4032 7.15625 12.1365C7.42299 11.8698 7.42299 11.4354 7.15625 11.1687Z" fill="white"/>
<path fill-rule="evenodd" clip-rule="evenodd" d="M3.88 14.4427C0.530477 11.0932 0.530477 5.65605 3.88 2.30622C4.14673 2.03949 4.14673 1.60688 3.88 1.34018C3.61156 1.07345 3.18066 1.07345 2.91226 1.34018C-0.970752 5.22319 -0.970752 11.5258 2.91226 15.4088C3.1807 15.6755 3.61159 15.6755 3.88 15.4088C4.14673 15.142 4.14673 14.7094 3.88 14.4427Z" fill="white"/>
<path fill-rule="evenodd" clip-rule="evenodd" d="M24.8132 12.1365C26.8873 10.0608 26.8873 6.6922 24.8132 4.61655C24.5448 4.34982 24.1122 4.34982 23.8438 4.61655C23.5771 4.88328 23.5771 5.3176 23.8438 5.5843C25.386 7.12654 25.386 9.62633 23.8438 11.1687C23.5771 11.4354 23.5771 11.8697 23.8438 12.1364C24.1122 12.4031 24.5448 12.4032 24.8132 12.1365Z" fill="white"/>
<path fill-rule="evenodd" clip-rule="evenodd" d="M28.0878 15.4088C31.9708 11.5258 31.9708 5.22315 28.0878 1.34018C27.8193 1.07345 27.3884 1.07345 27.12 1.34018C26.8533 1.60692 26.8533 2.03952 27.12 2.30622C30.4696 5.65574 30.4696 11.0929 27.12 14.4427C26.8533 14.7095 26.8533 15.1421 27.12 15.4088C27.3885 15.6755 27.8194 15.6755 28.0878 15.4088Z" fill="white"/>
</g>
</svg>
