<svg width="16" height="29" viewBox="0 0 16 29" fill="none" xmlns="http://www.w3.org/2000/svg">
<g opacity="0.7">
<path d="M13.8033 0.919922H2.31285C1.73052 0.920816 1.1723 1.15254 0.760536 1.56431C0.348768 1.97608 0.117044 2.5343 0.11615 3.11662V26.0434C0.117044 26.6258 0.348768 27.184 0.760536 27.5957C1.1723 28.0075 1.73052 28.2392 2.31285 28.2401H13.8033C14.3856 28.2392 14.9438 28.0075 15.3556 27.5957C15.7674 27.184 15.9991 26.6258 16 26.0434V3.11662C15.9991 2.5343 15.7674 1.97608 15.3556 1.56431C14.9438 1.15254 14.3856 0.920816 13.8033 0.919922ZM10.7617 1.93378L10.5522 2.30215C10.5194 2.3626 10.4704 2.41268 10.4107 2.44672C10.351 2.48076 10.2829 2.49741 10.2142 2.49479H5.88503C5.81633 2.49741 5.74827 2.48076 5.68855 2.44672C5.62882 2.41268 5.57982 2.3626 5.54707 2.30215L5.35444 1.93378H10.7617ZM14.9828 26.0434C14.9828 26.3571 14.8581 26.658 14.6363 26.8798C14.4145 27.1017 14.1136 27.2263 13.7999 27.2263H2.31285C1.99914 27.2263 1.69828 27.1017 1.47646 26.8798C1.25463 26.658 1.13001 26.3571 1.13001 26.0434V3.11662C1.13001 2.80292 1.25463 2.50206 1.47646 2.28023C1.69828 2.0584 1.99914 1.93378 2.31285 1.93378H4.1885L4.67853 2.79895C4.79881 3.01419 4.97435 3.19344 5.18703 3.3182C5.39971 3.44296 5.64183 3.5087 5.88841 3.50865H10.2311C10.4771 3.5081 10.7185 3.44208 10.9306 3.31735C11.1426 3.19262 11.3176 3.01369 11.4376 2.79895L11.9209 1.93378H13.8033C14.117 1.93378 14.4179 2.0584 14.6397 2.28023C14.8615 2.50206 14.9861 2.80292 14.9861 3.11662L14.9828 26.0434ZM9.74784 25.7325C9.74784 25.867 9.69443 25.9959 9.59937 26.091C9.5043 26.186 9.37536 26.2394 9.24091 26.2394H6.87523C6.74079 26.2394 6.61185 26.186 6.51678 26.091C6.42171 25.9959 6.3683 25.867 6.3683 25.7325C6.3683 25.5981 6.42171 25.4691 6.51678 25.3741C6.61185 25.279 6.74079 25.2256 6.87523 25.2256H9.24091C9.37536 25.2256 9.5043 25.279 9.59937 25.3741C9.69443 25.4691 9.74784 25.5981 9.74784 25.7325ZM12.4515 15.577V13.5898C12.4515 13.2761 12.3269 12.9753 12.105 12.7534C11.8832 12.5316 11.5823 12.407 11.2686 12.407H4.84751C4.5338 12.407 4.23294 12.5316 4.01111 12.7534C3.78929 12.9753 3.66467 13.2761 3.66467 13.5898V15.5702C3.66467 15.8839 3.78929 16.1848 4.01111 16.4066C4.23294 16.6285 4.5338 16.7531 4.84751 16.7531H11.2686C11.5823 16.7531 11.8832 16.6285 12.105 16.4066C12.3269 16.1848 12.4515 15.8839 12.4515 15.5702V15.577ZM4.67853 15.577V13.5898C4.67853 13.545 4.69633 13.502 4.72802 13.4703C4.75971 13.4386 4.80269 13.4208 4.84751 13.4208H11.2686C11.3135 13.4208 11.3564 13.4386 11.3881 13.4703C11.4198 13.502 11.4376 13.545 11.4376 13.5898V15.5702C11.4376 15.615 11.4198 15.658 11.3881 15.6897C11.3564 15.7214 11.3135 15.7392 11.2686 15.7392H4.84751C4.80269 15.7392 4.75971 15.7214 4.72802 15.6897C4.69633 15.658 4.67853 15.615 4.67853 15.5702V15.577ZM7.55114 8.89226V6.46913C7.55114 6.33468 7.60455 6.20574 7.69962 6.11067C7.79469 6.01561 7.92363 5.9622 8.05807 5.9622C8.19252 5.9622 8.32146 6.01561 8.41653 6.11067C8.51159 6.20574 8.565 6.33468 8.565 6.46913V8.89564C8.565 9.03009 8.51159 9.15903 8.41653 9.25409C8.32146 9.34916 8.19252 9.40257 8.05807 9.40257C7.92363 9.40257 7.79469 9.34916 7.69962 9.25409C7.60455 9.15903 7.55114 9.03009 7.55114 8.89564V8.89226ZM10.052 10.582C10.0046 10.5352 9.96695 10.4794 9.94126 10.4179C9.91556 10.3564 9.90233 10.2904 9.90233 10.2238C9.90233 10.1572 9.91556 10.0912 9.94126 10.0297C9.96695 9.96819 10.0046 9.9124 10.052 9.86557L11.7756 8.1589C11.8191 8.1008 11.8747 8.05273 11.9385 8.01797C12.0022 7.98321 12.0727 7.96255 12.1452 7.9574C12.2176 7.95225 12.2903 7.96273 12.3584 7.98813C12.4264 8.01353 12.4882 8.05325 12.5396 8.1046C12.5909 8.15596 12.6306 8.21775 12.656 8.2858C12.6814 8.35384 12.6919 8.42655 12.6868 8.49899C12.6816 8.57144 12.661 8.64193 12.6262 8.7057C12.5914 8.76947 12.5434 8.82503 12.4853 8.8686L10.7617 10.5854C10.6667 10.6803 10.5378 10.7337 10.4035 10.7337C10.2691 10.7337 10.1403 10.6803 10.0452 10.5854L10.052 10.582ZM5.35444 10.5854L3.63087 8.8686C3.57277 8.82503 3.52471 8.76947 3.48994 8.7057C3.45518 8.64193 3.43452 8.57144 3.42938 8.49899C3.42423 8.42655 3.43471 8.35384 3.4601 8.2858C3.4855 8.21775 3.52522 8.15596 3.57658 8.1046C3.62793 8.05325 3.68973 8.01353 3.75777 7.98813C3.82581 7.96273 3.89852 7.95225 3.97097 7.9574C4.04341 7.96255 4.11391 7.98321 4.17768 8.01797C4.24145 8.05273 4.297 8.1008 4.34058 8.1589L6.05738 9.87571C6.1048 9.92254 6.14244 9.97832 6.16813 10.0398C6.19382 10.1013 6.20705 10.1673 6.20705 10.2339C6.20705 10.3006 6.19382 10.3666 6.16813 10.4281C6.14244 10.4896 6.1048 10.5453 6.05738 10.5922C5.96233 10.6871 5.83349 10.7404 5.69915 10.7404C5.56482 10.7404 5.43597 10.6871 5.34092 10.5922L5.35444 10.5854ZM12.225 18.8822L8.69005 17.7027C8.51523 17.6484 8.32932 17.6405 8.1505 17.6795C7.97167 17.7186 7.80604 17.8034 7.66982 17.9257C7.53359 18.048 7.43142 18.2035 7.3733 18.3771C7.31518 18.5506 7.30309 18.7363 7.33823 18.916L8.05807 22.5659C8.10286 22.789 8.2191 22.9916 8.38922 23.1428C8.55935 23.294 8.77409 23.3857 9.00096 23.404H9.09559C9.30778 23.4039 9.51491 23.3392 9.68939 23.2184C9.86387 23.0977 9.99743 22.9267 10.0723 22.7281L10.6367 21.3053C10.6394 21.2988 10.6436 21.293 10.6488 21.2884C10.6541 21.2837 10.6603 21.2802 10.6671 21.2783L12.1507 20.8863C12.3733 20.8306 12.5717 20.7039 12.7158 20.5253C12.8599 20.3467 12.9417 20.126 12.949 19.8967C12.9563 19.6673 12.8885 19.4418 12.756 19.2545C12.6235 19.0671 12.4336 18.9281 12.2149 18.8585L12.225 18.8822ZM11.8871 19.9197L10.4238 20.3252C10.2642 20.3677 10.1169 20.447 9.99367 20.5568C9.8704 20.6665 9.77463 20.8037 9.71405 20.9572L9.13953 22.3699C9.13953 22.3699 9.13953 22.3969 9.09897 22.3935C9.05842 22.3901 9.06518 22.3935 9.0618 22.3631L8.31492 18.7098C8.31195 18.7041 8.31041 18.6977 8.31041 18.6912C8.31041 18.6848 8.31195 18.6784 8.31492 18.6727C8.32077 18.6683 8.32788 18.6659 8.33519 18.6659C8.34251 18.6659 8.34962 18.6683 8.35547 18.6727L11.8905 19.8487C11.8905 19.8487 11.9175 19.8487 11.9175 19.8893C11.9175 19.9298 11.9175 19.9163 11.9006 19.9197H11.8871Z" fill="white"/>
</g>
</svg>
