<svg width="177" height="177" viewBox="0 0 177 177" fill="none" xmlns="http://www.w3.org/2000/svg">
<circle cx="88.5" cy="88.5" r="88.5" fill="#4353FF"/>
<path d="M125 62.5952V107.083H51V62.5952C51 60.3079 52.7846 58.4215 55.0168 58.283V100.182C55.0168 102.402 56.8158 104.218 59.0146 104.218H116.986C119.185 104.218 120.984 102.402 120.984 100.182V58.283C123.216 58.4206 125 60.3079 125 62.5952ZM118.742 57.2528H57.2579V50.7735C57.2579 49.798 58.0483 49 59.0146 49H116.986C117.953 49 118.743 49.798 118.743 50.7735L118.742 57.2528ZM66.7161 53.1264C66.7161 52.1508 65.933 51.3611 64.9676 51.3611C64.0013 51.3611 63.219 52.1517 63.219 53.1264C63.219 54.1011 64.0022 54.8917 64.9676 54.8917C65.933 54.8917 66.7161 54.102 66.7161 53.1264ZM73.4198 53.1264C73.4198 52.1508 72.6366 51.3611 71.6712 51.3611C70.7049 51.3611 69.9227 52.1517 69.9227 53.1264C69.9227 54.1011 70.7058 54.8917 71.6712 54.8917C72.6366 54.8917 73.4198 54.102 73.4198 53.1264ZM80.1234 53.1264C80.1234 52.1508 79.3403 51.3611 78.3749 51.3611C77.4095 51.3611 76.6263 52.1517 76.6263 53.1264C76.6263 54.1011 77.4095 54.8917 78.3749 54.8917C79.3403 54.8917 80.1234 54.102 80.1234 53.1264ZM111.519 53.1264C111.519 52.5015 111.017 51.995 110.398 51.995H94.4934C93.8745 51.995 93.3728 52.5015 93.3728 53.1264C93.3728 53.7513 93.8745 54.2577 94.4934 54.2577H110.398C111.017 54.2577 111.519 53.7513 111.519 53.1264ZM77.2182 80.7349C77.2182 74.723 82.0452 69.8496 88 69.8496C93.9548 69.8496 98.7818 74.723 98.7818 80.7349C98.7818 86.7469 93.9548 91.6202 88 91.6202C82.0452 91.6211 77.2182 86.7469 77.2182 80.7349ZM85.0885 80.6484C85.5811 81.1467 86.1955 81.5192 86.8794 81.7141V85.2894C86.8027 85.232 86.7296 85.1683 86.6629 85.1C86.3173 84.7493 86.1125 84.261 86.1152 83.771C86.1179 83.1488 85.6199 82.6424 85.0037 82.6396C84.3874 82.6369 83.8858 83.1397 83.8831 83.7619C83.8795 84.8768 84.2936 85.8952 85.0785 86.6913C85.5703 87.1905 86.1892 87.5676 86.8803 87.7662V88.4147C86.8803 89.0396 87.382 89.5461 88.0009 89.5461C88.6198 89.5461 89.1215 89.0396 89.1215 88.4147V87.7726C89.809 87.5767 90.4243 87.2051 90.916 86.7095C92.5247 85.0854 92.5202 82.4483 90.9133 80.8233C90.4207 80.325 89.8063 79.9525 89.1224 79.7575V76.1822C89.1991 76.2405 89.2713 76.3034 89.3389 76.3717C89.6746 76.7115 89.883 77.1733 89.883 77.6716C89.883 77.7262 89.8866 77.78 89.8938 77.8319C89.9561 78.393 90.4261 78.8293 90.9981 78.8321C91.5693 78.8339 92.0411 78.4039 92.1097 77.8455C92.1187 77.7891 92.1232 77.7308 92.1232 77.6716C92.1232 76.5575 91.6631 75.5309 90.9233 74.7804C90.4315 74.2821 89.8135 73.905 89.1215 73.7064V73.0569C89.1215 72.4321 88.6198 71.9256 88.0009 71.9256C87.382 71.9256 86.8803 72.4321 86.8803 73.0569V73.6991C86.1928 73.895 85.5775 74.2666 85.0858 74.7621C83.4771 76.3854 83.4807 79.0233 85.0885 80.6484ZM57.2579 100.181V59.5155H118.743V100.181C118.743 101.156 117.953 101.954 116.986 101.954H59.0146C58.0483 101.954 57.2579 101.156 57.2579 100.181ZM105.941 73.8594L109.919 78.8248C110.151 79.1144 110.589 79.1144 110.822 78.8248L114.8 73.8594C114.971 73.6472 114.784 73.3348 114.519 73.3876L112.341 73.8184V65.6896C112.341 65.4564 112.152 65.2669 111.922 65.2669H108.818C108.588 65.2669 108.4 65.4573 108.4 65.6896V73.8184L106.222 73.3876C105.956 73.3348 105.771 73.6472 105.941 73.8594ZM73.0634 80.7349C73.0634 89.0633 79.7508 95.8149 88 95.8149C96.2492 95.8149 102.937 89.0633 102.937 80.7349C102.937 72.4065 96.2492 65.6549 88 65.6549C79.7508 65.6549 73.0634 72.4065 73.0634 80.7349ZM61.1998 73.8594L65.1778 78.8248C65.4097 79.1144 65.8482 79.1144 66.081 78.8248L70.0589 73.8594C70.2295 73.6472 70.0427 73.3348 69.7774 73.3876L67.5994 73.8184V65.6896C67.5994 65.4564 67.4109 65.2669 67.1808 65.2669H64.0771C63.847 65.2669 63.6584 65.4573 63.6584 65.6896V73.8184L61.4804 73.3876C61.2161 73.3348 61.0293 73.6472 61.1998 73.8594ZM86.8794 79.2374V76.1786C86.8054 76.2342 86.7351 76.2952 86.6701 76.3617C85.9294 77.1095 85.9339 78.3101 86.6728 79.057C86.7369 79.1226 86.8063 79.1827 86.8794 79.2374ZM89.3272 82.4128C89.2631 82.3481 89.1937 82.2871 89.1206 82.2324V85.2913C89.1946 85.2357 89.2649 85.1747 89.3299 85.1082C90.0706 84.3612 90.0661 83.1597 89.3272 82.4128ZM76.2276 115.076L75.2829 119.035H100.718L99.7733 115.076H76.2276ZM106.202 121.297H69.7982C67.6915 121.297 65.9835 123.022 65.9835 125.149C65.9835 127.276 67.6915 129 69.7982 129H106.201C108.308 129 110.016 127.276 110.016 125.149C110.016 123.022 108.309 121.297 106.202 121.297ZM55.2793 112.813H120.721C122.786 112.813 124.521 111.317 124.916 109.345H51.0839C51.4791 111.317 53.2141 112.813 55.2793 112.813Z" fill="white"/>
</svg>
