<svg width="267" height="267" viewBox="0 0 267 267" fill="none" xmlns="http://www.w3.org/2000/svg">
<rect width="267" height="267" rx="51" fill="url(#paint0_linear_1065_220)"/>
<rect x="7" y="7" width="253" height="253" rx="43" fill="#D9D9D9"/>
<rect x="7" y="7" width="253" height="253" rx="43" fill="url(#paint1_linear_1065_220)"/>
<rect x="11" y="11" width="245" height="245" rx="43" fill="#D9D9D9"/>
<rect x="11" y="11" width="245" height="245" rx="43" fill="url(#paint2_linear_1065_220)"/>
<g style="mix-blend-mode:soft-light">
<path d="M152.804 133.74C153.278 133.022 153.519 132.005 153.519 130.714C153.519 129.425 153.278 128.41 152.806 127.699C152.336 126.996 151.627 126.653 150.638 126.653C149.647 126.653 148.942 126.996 148.481 127.699C148.014 128.41 147.777 129.425 147.777 130.714C147.777 132.005 148.014 133.023 148.481 133.74C148.942 134.453 149.647 134.797 150.638 134.797C151.627 134.797 152.336 134.451 152.804 133.74Z" fill="white"/>
<path d="M178.528 127.7C178.222 128.164 178.024 128.761 177.919 129.477H183.293C183.239 128.787 183.104 128.164 182.793 127.7C182.325 126.996 181.671 126.607 180.682 126.607C179.693 126.607 178.989 126.994 178.528 127.7Z" fill="white"/>
<path d="M118.182 127.7C117.877 128.164 117.681 128.761 117.573 129.477H122.947C122.893 128.787 122.758 128.164 122.449 127.7C121.979 126.996 121.325 126.607 120.336 126.607C119.347 126.607 118.644 126.994 118.182 127.7Z" fill="white"/>
<path d="M100.851 133.965C100.951 134.117 100.992 134.176 101.286 134.411C101.286 134.411 101.962 134.945 103.495 134.852C104.573 134.787 105.529 134.582 105.529 134.582V131.156C105.529 131.156 104.564 130.997 103.484 130.982C101.947 130.962 101.299 131.526 101.299 131.526C100.845 131.847 100.627 132.323 100.627 132.986C100.627 133.404 100.703 133.734 100.851 133.965Z" fill="white"/>
<path fill-rule="evenodd" clip-rule="evenodd" d="M139.583 90.8462C133.128 90.8462 127.291 93.5557 123.098 97.9241C118.485 91.8926 111.209 88 103.022 88C89.0778 88 77.7722 99.2888 77.7722 113.215C77.7722 116.78 78.5149 120.17 79.85 123.243C73.3648 127.033 69 134.118 69 142.233C69 154.343 78.7148 164.157 90.6982 164.157C92.2279 164.157 93.7186 163.998 95.1575 163.692C98.45 172.624 107.028 178.992 117.093 178.992C126.757 178.992 135.05 173.122 138.609 164.75C141.317 166.071 144.357 166.812 147.573 166.812C155.252 166.812 161.943 162.581 165.453 156.318C167.271 156.685 169.12 156.87 170.974 156.868C186.452 156.868 199 144.211 199 128.596C199 112.983 186.452 100.326 170.974 100.326C166.939 100.326 163.104 101.187 159.639 102.735C155.652 95.6314 148.165 90.8462 139.583 90.8462ZM145.734 119.848C146.019 119.902 146.238 119.952 146.478 120.026C146.53 120.046 146.677 120.118 146.617 120.289L146.042 121.871C145.993 121.989 145.96 122.061 145.714 121.987C145.652 121.968 145.562 121.943 145.328 121.892C145.16 121.857 144.936 121.832 144.71 121.832C144.412 121.832 144.139 121.868 143.901 121.946C143.667 122.022 143.454 122.154 143.269 122.339C143.082 122.528 142.859 122.804 142.741 123.143C142.506 123.823 142.392 124.54 142.355 124.77L142.343 124.842H144.752C144.954 124.842 145.017 124.935 144.999 125.085L144.717 126.652C144.674 126.879 144.465 126.872 144.465 126.872H141.984L140.285 136.478C140.108 137.47 139.884 138.322 139.622 139.008C139.36 139.702 139.084 140.209 138.645 140.695C138.237 141.142 137.778 141.474 137.252 141.665C136.728 141.853 136.095 141.951 135.402 141.951C135.071 141.951 134.717 141.946 134.298 141.848C133.996 141.776 133.832 141.724 133.609 141.646C133.515 141.611 133.441 141.494 133.493 141.345C133.547 141.194 133.991 139.974 134.053 139.813C134.13 139.619 134.324 139.692 134.324 139.692C134.46 139.75 134.554 139.789 134.732 139.824C134.912 139.861 135.154 139.891 135.335 139.891C135.663 139.891 135.964 139.85 136.222 139.763C136.537 139.658 136.719 139.476 136.911 139.232C137.112 138.976 137.272 138.626 137.437 138.159C137.606 137.685 137.758 137.061 137.889 136.302L139.578 126.872H137.914C137.714 126.872 137.649 126.778 137.669 126.629L137.948 125.061C137.993 124.835 138.201 124.842 138.201 124.842H139.911L140.004 124.333C140.259 122.82 140.769 121.67 141.519 120.914C142.273 120.155 143.347 119.77 144.71 119.77C145.101 119.77 145.445 119.796 145.734 119.848ZM112.6 136.55C112.726 136.55 112.816 136.448 112.816 136.322V120.24C112.816 120.115 112.726 120.013 112.6 120.013H110.602C110.476 120.013 110.387 120.115 110.387 120.24V136.322C110.387 136.448 110.476 136.55 110.602 136.55H112.6ZM87.8659 135.461C87.8271 135.424 87.7625 135.363 87.83 135.187L88.3563 133.727C88.4396 133.475 88.6304 133.559 88.7063 133.607C88.7677 133.644 88.8228 133.68 88.8802 133.717C88.9578 133.767 89.0395 133.82 89.147 133.883C90.697 134.862 92.1322 134.872 92.5822 134.872C93.7415 134.872 94.46 134.257 94.46 133.431V133.387C94.46 132.484 93.3567 132.145 92.0752 131.751L91.7877 131.663C90.0265 131.159 88.147 130.436 88.147 128.209V128.164C88.147 126.051 89.8506 124.578 92.2913 124.578L92.5579 124.576C93.9912 124.576 95.3765 124.992 96.3783 125.602C96.469 125.657 96.5579 125.761 96.5079 125.902C96.4616 126.031 96.0171 127.227 95.9653 127.361C95.8708 127.611 95.6134 127.444 95.6134 127.444C94.7357 126.959 93.3727 126.577 92.2245 126.577C91.1912 126.577 90.5246 127.126 90.5246 127.87V127.916C90.5246 128.787 91.664 129.157 92.9853 129.586L93.2153 129.661C94.969 130.214 96.8374 130.981 96.8374 133.093V133.137C96.8374 135.42 95.1819 136.838 92.5153 136.838C91.2061 136.838 89.954 136.633 88.6282 135.93L88.4728 135.842C88.2754 135.732 88.0792 135.622 87.8855 135.481L87.8659 135.461ZM126.904 135.461C126.866 135.424 126.801 135.363 126.869 135.187L127.395 133.727C127.472 133.488 127.699 133.575 127.746 133.607L127.836 133.665C127.94 133.732 128.039 133.798 128.185 133.883C129.735 134.862 131.171 134.872 131.62 134.872C132.78 134.872 133.5 134.257 133.5 133.431V133.387C133.5 132.485 132.396 132.145 131.116 131.752L130.826 131.663C129.065 131.159 127.185 130.436 127.185 128.209V128.164C127.185 126.051 128.889 124.578 131.33 124.578L131.596 124.576C133.03 124.576 134.415 124.992 135.416 125.602C135.507 125.657 135.597 125.761 135.546 125.902C135.5 126.031 135.055 127.227 135.003 127.361C134.909 127.611 134.652 127.444 134.652 127.444C133.774 126.959 132.411 126.577 131.263 126.577C130.229 126.577 129.563 127.126 129.563 127.87V127.916C129.563 128.786 130.702 129.157 132.022 129.585L132.254 129.661C134.008 130.214 135.876 130.981 135.876 133.093V133.137C135.876 135.42 134.22 136.838 131.554 136.838C130.245 136.838 128.993 136.633 127.667 135.93L127.511 135.841C127.314 135.732 127.118 135.622 126.924 135.481L126.914 135.469L126.904 135.461ZM154.733 126.388C155.186 126.931 155.527 127.582 155.745 128.322C155.963 129.057 156.073 129.862 156.073 130.714C156.073 131.566 155.964 132.372 155.745 133.107C155.527 133.845 155.186 134.498 154.733 135.04C154.279 135.584 153.703 136.02 153.023 136.329C152.342 136.638 151.54 136.796 150.638 136.796C149.734 136.796 148.932 136.638 148.251 136.329C147.571 136.02 146.995 135.584 146.541 135.04C146.086 134.496 145.747 133.844 145.527 133.107C145.31 132.373 145.201 131.568 145.201 130.714C145.201 129.86 145.31 129.057 145.527 128.322C145.747 127.585 146.088 126.933 146.54 126.388C146.995 125.844 147.57 125.407 148.251 125.088C148.93 124.771 149.734 124.611 150.638 124.611C151.54 124.611 152.344 124.771 153.023 125.088C153.704 125.407 154.279 125.844 154.733 126.388ZM173.741 134.318C173.741 134.318 173.95 134.236 174.024 134.453L174.571 135.962C174.641 136.149 174.48 136.227 174.48 136.227C173.639 136.558 172.469 136.79 171.328 136.79C169.398 136.79 167.919 136.233 166.934 135.136C165.95 134.043 165.452 132.551 165.452 130.705C165.452 129.851 165.574 129.044 165.815 128.309C166.057 127.571 166.42 126.919 166.898 126.375C167.376 125.83 167.98 125.394 168.691 125.077C169.404 124.758 170.237 124.599 171.172 124.599C171.798 124.599 172.361 124.638 172.843 124.712C173.357 124.79 174.039 124.973 174.328 125.086C174.38 125.106 174.524 125.179 174.465 125.347C174.326 125.745 174.215 126.05 174.098 126.371L173.918 126.87C173.835 127.099 173.659 127.023 173.659 127.023C172.926 126.792 172.226 126.686 171.308 126.686C170.206 126.686 169.38 127.055 168.837 127.773C168.291 128.495 167.987 129.444 167.983 130.705C167.98 132.09 168.324 133.114 168.939 133.747C169.552 134.381 170.408 134.701 171.485 134.701C171.924 134.701 172.333 134.671 172.706 134.614C173.072 134.557 173.417 134.442 173.741 134.318ZM184.448 126.139C184.756 126.468 185.225 127.189 185.413 127.901C185.865 129.489 185.674 130.874 185.641 131.115L185.637 131.148C185.616 131.341 185.418 131.344 185.418 131.344L177.884 131.337C177.932 132.481 178.204 133.292 178.761 133.844C179.304 134.383 180.171 134.728 181.339 134.729C182.97 134.733 183.751 134.434 184.285 134.229L184.432 134.174C184.432 134.174 184.641 134.098 184.715 134.303L185.208 135.683C185.308 135.917 185.228 135.998 185.145 136.044C184.673 136.305 183.526 136.79 181.35 136.798C180.293 136.8 179.372 136.648 178.615 136.355C177.852 136.061 177.215 135.639 176.721 135.1C176.225 134.565 175.858 133.919 175.628 133.185C175.4 132.457 175.286 131.648 175.286 130.779C175.286 129.926 175.397 129.116 175.617 128.374C175.836 127.628 176.18 126.97 176.638 126.418C177.095 125.865 177.678 125.42 178.372 125.094C179.065 124.768 179.919 124.611 180.86 124.611C181.667 124.611 182.404 124.785 183.019 125.048C183.489 125.252 183.963 125.616 184.448 126.139ZM124.103 126.139C124.41 126.468 124.877 127.189 125.065 127.901C125.517 129.483 125.33 130.864 125.296 131.112L125.292 131.148C125.272 131.341 125.073 131.344 125.073 131.344L117.538 131.337C117.586 132.481 117.859 133.292 118.416 133.844C118.959 134.383 119.825 134.728 120.992 134.729C122.626 134.733 123.406 134.434 123.939 134.229L124.086 134.174C124.086 134.174 124.295 134.098 124.372 134.303L124.862 135.683C124.962 135.917 124.883 135.998 124.8 136.044C124.327 136.305 123.181 136.79 121.005 136.798C119.947 136.8 119.027 136.648 118.27 136.355C117.507 136.061 116.87 135.639 116.375 135.1C115.879 134.565 115.512 133.919 115.283 133.185C115.055 132.457 114.94 131.648 114.94 130.779C114.94 129.926 115.053 129.116 115.271 128.374C115.49 127.628 115.834 126.97 116.292 126.418C116.749 125.865 117.333 125.42 118.027 125.094C118.719 124.768 119.575 124.611 120.514 124.611C121.321 124.611 122.058 124.785 122.673 125.048C123.144 125.252 123.618 125.616 124.103 126.139ZM103.108 129.082C103.582 129.082 103.978 129.095 104.284 129.117C104.284 129.117 104.879 129.171 105.527 129.263V128.944C105.527 127.941 105.317 127.465 104.906 127.15C104.484 126.826 103.858 126.663 103.043 126.663C103.043 126.663 101.21 126.639 99.7601 127.428C99.6933 127.467 99.636 127.49 99.636 127.49C99.636 127.49 99.4563 127.552 99.3896 127.367L98.8563 125.934C98.7748 125.726 98.9229 125.634 98.9229 125.634C99.6007 125.104 101.247 124.786 101.247 124.786C101.791 124.676 102.701 124.598 103.266 124.598C104.771 124.598 105.936 124.949 106.727 125.641C107.521 126.336 107.925 127.456 107.925 128.967L107.928 135.858C107.928 135.858 107.943 136.058 107.756 136.104C107.581 136.152 107.405 136.197 107.228 136.239C106.977 136.296 106.069 136.48 105.33 136.606C104.584 136.734 103.814 136.796 103.041 136.796C102.308 136.796 101.638 136.728 101.047 136.593C100.447 136.458 99.9303 136.234 99.5118 135.928C99.0897 135.623 98.7582 135.226 98.5285 134.751C98.2989 134.276 98.1841 133.696 98.1841 133.03C98.1841 132.375 98.3193 131.789 98.586 131.293C98.8498 130.8 99.2236 130.375 99.6785 130.05C100.134 129.724 100.664 129.478 101.253 129.321C101.838 129.163 102.462 129.082 103.108 129.082ZM164.945 124.964C164.995 124.982 165.115 125.064 165.058 125.235C164.988 125.44 164.621 126.471 164.491 126.816C164.444 126.947 164.362 127.036 164.218 127.02C164.218 127.02 163.784 126.918 163.39 126.918C163.116 126.918 162.729 126.953 162.379 127.061C162.036 127.166 161.723 127.353 161.447 127.62C161.173 127.888 160.951 128.262 160.788 128.729C160.622 129.201 160.538 129.953 160.538 130.706V136.321C160.538 136.382 160.514 136.441 160.471 136.483C160.429 136.526 160.371 136.551 160.31 136.551H158.331C158.205 136.551 158.101 136.448 158.101 136.321V125.083C158.101 124.955 158.192 124.853 158.318 124.853H160.249C160.375 124.853 160.466 124.955 160.466 125.083V125.999C160.755 125.612 161.273 125.271 161.74 125.06C162.211 124.849 162.736 124.69 163.682 124.747C164.177 124.779 164.818 124.914 164.945 124.964Z" fill="white"/>
</g>
<defs>
<linearGradient id="paint0_linear_1065_220" x1="133.5" y1="0" x2="133.5" y2="267" gradientUnits="userSpaceOnUse">
<stop stop-color="#6D7AFF"/>
<stop offset="0.435" stop-color="#2631AB"/>
<stop offset="1" stop-color="#4353FF"/>
</linearGradient>
<linearGradient id="paint1_linear_1065_220" x1="236.5" y1="249.5" x2="21" y2="32.5" gradientUnits="userSpaceOnUse">
<stop stop-color="#6D7AFF"/>
<stop offset="0.435" stop-color="#2631AB"/>
<stop offset="1" stop-color="#4353FF"/>
</linearGradient>
<linearGradient id="paint2_linear_1065_220" x1="133.5" y1="11" x2="87" y2="268" gradientUnits="userSpaceOnUse">
<stop stop-color="#4353FF"/>
<stop offset="1" stop-color="#6D7AFF"/>
</linearGradient>
</defs>
</svg>
