<svg width="239" height="167" viewBox="0 0 239 167" fill="none" xmlns="http://www.w3.org/2000/svg">
<mask id="path-1-inside-1_1_205" fill="white">
<path fill-rule="evenodd" clip-rule="evenodd" d="M99.911 18.5357C107.582 10.5503 118.258 5.60531 130.053 5.60531C145.779 5.60531 159.408 14.3421 166.747 27.3598C173.262 24.4476 180.318 22.9441 187.453 22.9477C215.76 22.9477 238.738 46.1001 238.738 74.6693C238.738 103.238 215.76 126.391 187.453 126.391C183.993 126.391 180.621 126.043 177.319 125.386C170.897 136.831 158.622 144.607 144.643 144.607C138.952 144.618 133.334 143.327 128.218 140.833C121.709 156.122 106.551 166.868 88.9027 166.868C70.4682 166.868 54.8294 155.248 48.8011 138.911C46.118 139.477 43.3831 139.761 40.641 139.76C18.7117 139.76 0.97612 121.762 0.97612 99.6581C0.97612 84.8057 8.96151 71.8753 20.8085 64.8859C18.2952 59.096 17.0015 52.8505 17.0081 46.5387C17.0081 21.0274 37.7141 0.408691 63.2254 0.408691C78.1653 0.408691 91.5325 7.52914 99.9198 18.5811"/>
</mask>
<path fill-rule="evenodd" clip-rule="evenodd" d="M99.911 18.5357C107.582 10.5503 118.258 5.60531 130.053 5.60531C145.779 5.60531 159.408 14.3421 166.747 27.3598C173.262 24.4476 180.318 22.9441 187.453 22.9477C215.76 22.9477 238.738 46.1001 238.738 74.6693C238.738 103.238 215.76 126.391 187.453 126.391C183.993 126.391 180.621 126.043 177.319 125.386C170.897 136.831 158.622 144.607 144.643 144.607C138.952 144.618 133.334 143.327 128.218 140.833C121.709 156.122 106.551 166.868 88.9027 166.868C70.4682 166.868 54.8294 155.248 48.8011 138.911C46.118 139.477 43.3831 139.761 40.641 139.76C18.7117 139.76 0.97612 121.762 0.97612 99.6581C0.97612 84.8057 8.96151 71.8753 20.8085 64.8859C18.2952 59.096 17.0015 52.8505 17.0081 46.5387C17.0081 21.0274 37.7141 0.408691 63.2254 0.408691C78.1653 0.408691 91.5325 7.52914 99.9198 18.5811" fill="#050505" fill-opacity="0.5"/>
<path d="M166.747 27.3598L165.876 27.8509L166.323 28.6446L167.155 28.2727L166.747 27.3598ZM187.453 22.9477L187.453 23.9477H187.453V22.9477ZM177.319 125.386L177.514 124.405L176.802 124.264L176.447 124.897L177.319 125.386ZM144.643 144.607V143.607L144.641 143.607L144.643 144.607ZM128.218 140.833L128.656 139.934L127.71 139.472L127.298 140.441L128.218 140.833ZM48.8011 138.911L49.7392 138.564L49.4401 137.754L48.5946 137.932L48.8011 138.911ZM40.641 139.76L40.6416 138.76H40.641V139.76ZM20.8085 64.8859L21.3167 65.7472L22.0777 65.2982L21.7258 64.4877L20.8085 64.8859ZM17.0081 46.5387L18.0081 46.5398V46.5387H17.0081ZM100.632 19.2285C108.125 11.4288 118.545 6.60531 130.053 6.60531V4.60531C117.972 4.60531 107.039 9.67186 99.1899 17.8429L100.632 19.2285ZM130.053 6.60531C145.394 6.60531 158.702 15.1257 165.876 27.8509L167.618 26.8687C160.114 13.5584 146.164 4.60531 130.053 4.60531V6.60531ZM167.155 28.2727C173.541 25.418 180.458 23.9442 187.453 23.9477L187.454 21.9477C180.177 21.9441 172.982 23.4772 166.339 26.4469L167.155 28.2727ZM187.453 23.9477C215.2 23.9477 237.738 46.6447 237.738 74.6693H239.738C239.738 45.5556 216.32 21.9477 187.453 21.9477V23.9477ZM237.738 74.6693C237.738 102.694 215.2 125.391 187.453 125.391V127.391C216.32 127.391 239.738 103.783 239.738 74.6693H237.738ZM187.453 125.391C184.061 125.391 180.754 125.05 177.514 124.405L177.124 126.367C180.488 127.036 183.926 127.391 187.453 127.391V125.391ZM176.447 124.897C170.194 136.042 158.243 143.607 144.643 143.607V145.607C159.001 145.607 171.601 137.621 178.191 125.875L176.447 124.897ZM144.641 143.607C139.103 143.618 133.635 142.361 128.656 139.934L127.78 141.731C133.032 144.293 138.801 145.618 144.645 145.607L144.641 143.607ZM127.298 140.441C120.94 155.376 106.135 165.868 88.9027 165.868V167.868C106.967 167.868 122.478 156.868 129.138 141.224L127.298 140.441ZM88.9027 165.868C70.9011 165.868 55.6276 154.523 49.7392 138.564L47.8629 139.257C54.0313 155.974 70.0353 167.868 88.9027 167.868V165.868ZM48.5946 137.932C45.9796 138.484 43.3141 138.761 40.6416 138.76L40.6404 140.76C43.4521 140.761 46.2564 140.47 49.0076 139.889L48.5946 137.932ZM40.641 138.76C19.2754 138.76 1.97612 121.221 1.97612 99.6581H-0.02388C-0.02388 122.303 18.1481 140.76 40.641 140.76V138.76ZM1.97612 99.6581C1.97612 85.1733 9.76239 72.5638 21.3167 65.7472L20.3004 64.0246C8.16062 71.1867 -0.02388 84.438 -0.02388 99.6581H1.97612ZM21.7258 64.4877C19.2672 58.8238 18.0016 52.7142 18.0081 46.5398L16.0081 46.5377C16.0013 52.9868 17.3232 59.3682 19.8912 65.2841L21.7258 64.4877ZM18.0081 46.5387C18.0081 21.5822 38.264 1.40869 63.2254 1.40869V-0.591309C37.1643 -0.591309 16.0081 20.4727 16.0081 46.5387H18.0081ZM63.2254 1.40869C77.8421 1.40869 90.9186 8.37443 99.1232 19.1856L100.716 17.9766C92.1464 6.68385 78.4884 -0.591309 63.2254 -0.591309V1.40869Z" fill="white" fill-opacity="0.3" mask="url(#path-1-inside-1_1_205)"/>
</svg>
