<svg width="267" height="267" viewBox="0 0 267 267" fill="none" xmlns="http://www.w3.org/2000/svg">
<rect width="267" height="267" rx="51" fill="url(#paint0_linear_1065_135)"/>
<rect x="7" y="7" width="253" height="253" rx="43" fill="#D9D9D9"/>
<rect x="7" y="7" width="253" height="253" rx="43" fill="url(#paint1_linear_1065_135)"/>
<rect x="11" y="11" width="245" height="245" rx="43" fill="#D9D9D9"/>
<rect x="11" y="11" width="245" height="245" rx="43" fill="url(#paint2_linear_1065_135)"/>
<g style="mix-blend-mode:soft-light">
<path d="M61 97V170H134.791L207 97H61ZM80.856 110.577H80.8864C86.1363 110.583 92.536 112.083 97.1654 114.469L92.1771 123.262C87.0975 120.778 84.5425 120.544 81.6529 120.39C77.3459 120.157 75.1803 121.713 75.1498 123.391C75.1073 125.433 79.2196 127.283 83.0886 128.544C88.9529 130.426 96.4111 132.94 97.5487 140.227L108.268 111.591H120.714L133.27 145.878L133.227 111.598H147.645C161.375 111.598 167.829 116.295 167.829 127.087C167.829 136.771 161.199 142.545 149.969 142.545H145.327L145.266 155.421L123.439 155.402L121.918 149.819C119.668 150.569 117.131 150.981 114.436 150.981C111.662 150.981 109.052 150.545 106.753 149.752L104.575 155.402L92.4082 155.439L92.9557 152.599C92.7793 152.752 92.609 152.906 92.4265 153.054C89.1719 155.698 85.0778 156.921 80.0347 157.013L78.739 157.026C73.2328 157.082 67.8118 155.649 63.0379 152.875L67.4788 143.972C72.2846 146.843 75.3019 147.489 79.3777 147.403C81.4887 147.36 83.0156 146.972 84.0072 145.933C84.591 145.322 84.9292 144.513 84.9562 143.664C84.9988 141.352 81.732 140.264 77.7474 139.016C74.5172 138.007 70.8428 136.624 67.9776 134.496C64.577 131.975 62.9588 128.815 63.0379 124.35C63.0586 121.184 64.2928 118.149 66.4811 115.883C69.6383 112.581 74.7362 110.577 80.856 110.577ZM145.321 120.846V132.553H148.491C152.712 132.553 156.076 131.139 156.083 126.626C156.083 122.266 152.712 120.846 148.491 120.846H145.321ZM114.375 125.562L109.825 140.085C111.181 140.608 112.751 140.903 114.43 140.903C116.06 140.903 117.593 140.614 118.944 140.129L114.466 125.556L114.375 125.562Z" fill="white"/>
</g>
<defs>
<linearGradient id="paint0_linear_1065_135" x1="133.5" y1="0" x2="133.5" y2="267" gradientUnits="userSpaceOnUse">
<stop stop-color="#6D7AFF"/>
<stop offset="0.435" stop-color="#2631AB"/>
<stop offset="1" stop-color="#4353FF"/>
</linearGradient>
<linearGradient id="paint1_linear_1065_135" x1="236.5" y1="249.5" x2="21" y2="32.5" gradientUnits="userSpaceOnUse">
<stop stop-color="#6D7AFF"/>
<stop offset="0.435" stop-color="#2631AB"/>
<stop offset="1" stop-color="#4353FF"/>
</linearGradient>
<linearGradient id="paint2_linear_1065_135" x1="133.5" y1="11" x2="87" y2="268" gradientUnits="userSpaceOnUse">
<stop stop-color="#4353FF"/>
<stop offset="1" stop-color="#6D7AFF"/>
</linearGradient>
</defs>
</svg>
