<svg width="29" height="30" viewBox="0 0 29 30" fill="none" xmlns="http://www.w3.org/2000/svg">
<path d="M12.1303 6.2022C12.1147 7.18698 12.9951 7.50393 13.886 7.69306V4.77002C13.0186 4.84176 12.146 5.17045 12.1303 6.2022Z" fill="#4353FF"/>
<path d="M16.3096 10.114C16.3474 9.1775 15.5309 8.8488 14.6687 8.65576V11.5423C15.4135 11.4523 16.2691 11.1275 16.3096 10.114Z" fill="#4353FF"/>
<path d="M14.2199 0C9.68875 0 6.00269 3.68606 6.00269 8.21725C6.00269 12.7484 9.68875 16.4345 14.2199 16.4345C18.7511 16.4345 22.4372 12.7484 22.4372 8.21725C22.4372 3.68606 18.7511 0 14.2199 0ZM17.1169 6.34033C16.9134 6.41337 16.6891 6.31033 16.616 6.10685C16.453 5.65684 16.2717 5.42467 15.8712 5.14946C15.5621 4.93816 15.1552 4.81424 14.6686 4.7712V7.85338C15.5243 8.02686 17.1612 8.44815 17.0921 10.1451C17.0412 11.3855 16.1438 12.1721 14.6686 12.3234V13.4334C14.6686 13.6499 14.4938 13.8247 14.2773 13.8247C14.0608 13.8247 13.886 13.6499 13.886 13.4334V12.3403C13.1829 12.3064 12.5882 12.1369 12.1251 11.8199C11.589 11.4521 11.3086 11.0908 11.0882 10.4855C11.0138 10.2821 11.1182 10.0577 11.3217 9.98338C11.5251 9.91164 11.7495 10.0134 11.8238 10.2169C11.9882 10.6669 12.1682 10.899 12.5686 11.1742C12.9012 11.4025 13.3486 11.5277 13.886 11.5577V8.4912C13.0825 8.33337 11.3203 7.9551 11.3477 6.18643C11.3673 4.90688 12.3116 4.11123 13.886 3.99122V2.9973C13.886 2.78078 14.0608 2.60599 14.2773 2.60599C14.4938 2.60599 14.6686 2.78077 14.6686 2.9973V3.98728C15.3208 4.03424 15.8765 4.20119 16.3147 4.50121C16.8508 4.87035 17.1312 5.23294 17.3517 5.83556C17.426 6.03903 17.3204 6.26336 17.1182 6.33773L17.1169 6.34033Z" fill="#4353FF"/>
<path d="M25.9589 9.39111C24.5919 9.39111 23.4806 10.5024 23.4806 11.8694V15.2449C24.091 15.344 24.6806 15.6414 25.1345 16.1162C26.1989 17.2275 26.2301 19.0014 25.2075 20.1546L22.1397 23.6032C22.0615 23.6919 21.9571 23.7389 21.8476 23.7389C21.7536 23.7389 21.6649 23.7023 21.5867 23.6397C21.4249 23.4936 21.4145 23.2484 21.5554 23.0867L24.6232 19.638C25.3797 18.7876 25.3536 17.478 24.5658 16.6537C24.2632 16.3407 23.8823 16.132 23.4806 16.038V16.0406C22.8258 15.8815 22.1319 16.0315 21.5932 16.4698L17.5939 19.7241C15.807 21.1772 15.0935 23.5381 15.777 25.7372C16.0496 26.6151 16.1879 27.5255 16.1879 28.4438V29.6085C16.1879 29.8251 16.3627 29.9999 16.5792 29.9999H24.918C25.1345 29.9999 25.3093 29.8251 25.3093 29.6085V27.0416C25.3093 25.7138 25.6458 24.3964 26.2811 23.2316L27.3728 21.2308C28.0706 19.9499 28.4397 18.5034 28.4397 17.0452V11.8695C28.4397 10.5026 27.3284 9.39128 25.9615 9.39128L25.9589 9.39111Z" fill="#4353FF"/>
<path d="M2.48086 9.39111C3.84783 9.39111 4.95913 10.5024 4.95913 11.8694V15.2449C4.3487 15.344 3.75911 15.6414 3.30522 16.1162C2.24088 17.2275 2.20959 19.0014 3.23218 20.1546L6.3 23.6032C6.37826 23.6919 6.48261 23.7389 6.59218 23.7389C6.68609 23.7389 6.77479 23.7023 6.85304 23.6397C7.01478 23.4936 7.02522 23.2484 6.88435 23.0867L3.81653 19.638C3.06001 18.7876 3.08609 17.478 3.87392 16.6537C4.17653 16.3407 4.55741 16.132 4.95914 16.038V16.0406C5.6139 15.8815 6.30784 16.0315 6.84651 16.4698L10.8458 19.7241C12.6327 21.1772 13.3462 23.5381 12.6627 25.7372C12.3901 26.6151 12.2519 27.5255 12.2519 28.4438V29.6085C12.2519 29.8251 12.0771 29.9999 11.8605 29.9999H3.52174C3.30522 29.9999 3.13043 29.8251 3.13043 29.6085V27.0416C3.13043 25.7138 2.79391 24.3964 2.15868 23.2316L1.06695 21.2308C0.36914 19.9499 0 18.5034 0 17.0452V11.8695C0 10.5026 1.11129 9.39128 2.47827 9.39128L2.48086 9.39111Z" fill="#4353FF"/>
</svg>
