<svg width="599" height="233" viewBox="0 0 599 233" fill="none" xmlns="http://www.w3.org/2000/svg">
<g clip-path="url(#clip0_593_111)">
<path d="M597.039 0.810547H1.81348V265.758H597.039V0.810547Z" stroke="#4353FF" stroke-opacity="0.2" stroke-dasharray="4 3"/>
<path d="M34.418 0.117188V266.452" stroke="#4353FF" stroke-opacity="0.2" stroke-dasharray="4 3"/>
<path d="M67.7178 0.117188V266.452" stroke="#4353FF" stroke-opacity="0.2" stroke-dasharray="4 3"/>
<path d="M101.017 0.117188V266.452" stroke="#4353FF" stroke-opacity="0.2" stroke-dasharray="4 3"/>
<path d="M134.316 0.117188V266.452" stroke="#4353FF" stroke-opacity="0.2" stroke-dasharray="4 3"/>
<path d="M167.616 0.117188V266.452" stroke="#4353FF" stroke-opacity="0.2" stroke-dasharray="4 3"/>
<path d="M200.915 0.117188V266.452" stroke="#4353FF" stroke-opacity="0.2" stroke-dasharray="4 3"/>
<path d="M234.215 0.117188V266.452" stroke="#4353FF" stroke-opacity="0.2" stroke-dasharray="4 3"/>
<path d="M267.514 0.117188V266.452" stroke="#4353FF" stroke-opacity="0.2" stroke-dasharray="4 3"/>
<path d="M300.812 0.117188V266.452" stroke="#4353FF" stroke-opacity="0.2" stroke-dasharray="4 3"/>
<path d="M334.113 0.117188V266.452" stroke="#4353FF" stroke-opacity="0.2" stroke-dasharray="4 3"/>
<path d="M367.412 0.117188V266.452" stroke="#4353FF" stroke-opacity="0.2" stroke-dasharray="4 3"/>
<path d="M400.711 0.117188V266.452" stroke="#4353FF" stroke-opacity="0.2" stroke-dasharray="4 3"/>
<path d="M434.01 0.117188V266.452" stroke="#4353FF" stroke-opacity="0.2" stroke-dasharray="4 3"/>
<path d="M467.311 0.117188V266.452" stroke="#4353FF" stroke-opacity="0.2" stroke-dasharray="4 3"/>
<path d="M500.609 0.117188V266.452" stroke="#4353FF" stroke-opacity="0.2" stroke-dasharray="4 3"/>
<path d="M533.908 0.117188V266.452" stroke="#4353FF" stroke-opacity="0.2" stroke-dasharray="4 3"/>
<path d="M567.207 0.117188V266.452" stroke="#4353FF" stroke-opacity="0.2" stroke-dasharray="4 3"/>
<path d="M597.732 133.284H1.11914" stroke="#4353FF" stroke-opacity="0.2" stroke-dasharray="4 3"/>
<path d="M597.732 166.576H1.11914" stroke="#4353FF" stroke-opacity="0.2" stroke-dasharray="4 3"/>
<path d="M597.732 199.868H1.11914" stroke="#4353FF" stroke-opacity="0.2" stroke-dasharray="4 3"/>
<path d="M597.732 233.16H1.11914" stroke="#4353FF" stroke-opacity="0.2" stroke-dasharray="4 3"/>
<path d="M597.732 99.9927H1.11914" stroke="#4353FF" stroke-opacity="0.2" stroke-dasharray="4 3"/>
<path d="M597.732 66.7012H1.11914" stroke="#4353FF" stroke-opacity="0.2" stroke-dasharray="4 3"/>
<path d="M597.732 33.4087H1.11914" stroke="#4353FF" stroke-opacity="0.2" stroke-dasharray="4 3"/>
<g clip-path="url(#clip1_593_111)">
<path d="M234.551 175.672C202.066 142.036 203.373 88.5172 237.165 56.1827C263.489 31.0956 303.069 25.5207 335.554 42.4312C337.981 43.732 338.728 46.5195 337.608 48.9353L337.421 49.1211V49.3069C335.554 52.4661 331.447 53.7669 328.086 52.0944C292.054 34.4405 248.367 49.3069 230.631 85.1722C212.894 121.037 227.83 164.522 263.863 182.176C299.895 199.83 343.582 184.963 361.318 149.098C370.653 130.143 371.213 107.844 362.812 88.3313C361.318 84.9864 362.625 80.8981 365.799 79.0398H365.986C368.413 77.739 371.4 78.6681 372.52 80.8981C372.52 80.8981 372.52 81.084 372.707 81.084C392.683 123.267 374.761 173.627 332.38 193.697C299.148 209.307 259.755 202.06 234.551 175.672Z" fill="#050505"/>
<path d="M236.82 55.8207L236.819 55.8214C202.83 88.3451 201.512 142.181 234.19 176.018C259.544 202.562 299.169 209.85 332.593 194.15L332.594 194.149C375.224 173.961 393.254 123.303 373.159 80.87L373.023 80.584H372.921C371.65 78.1852 368.467 77.2204 365.863 78.5398H365.799H365.664L365.547 78.6083C362.154 80.5949 360.759 84.9549 362.354 88.532C370.696 107.909 370.139 130.054 360.87 148.876C343.256 184.494 299.868 199.26 264.083 181.727C228.297 164.194 213.466 121.009 231.079 85.3939C248.692 49.7765 292.08 35.0109 327.865 52.5426C331.466 54.3341 335.855 52.9398 337.852 49.5613L337.921 49.4436V49.3289L337.961 49.2897L338.024 49.2266L338.062 49.1456C339.282 46.5145 338.475 43.4291 335.79 41.9905L335.785 41.9877C303.111 24.979 263.3 30.5852 236.82 55.8207Z" stroke="white" stroke-opacity="0.3"/>
<path d="M327.527 87.0312C310.724 69.5631 283.093 69.0056 265.543 85.7304C247.994 102.455 247.434 129.958 264.237 147.426C281.039 164.894 308.67 165.452 326.22 148.727C343.583 132.002 344.143 104.499 327.527 87.0312ZM255.462 155.603C234.178 133.489 234.925 98.181 257.142 76.9963C279.359 55.8117 314.831 56.555 336.115 78.6688C357.398 100.783 356.651 136.09 334.434 157.275C312.031 178.646 276.745 177.716 255.462 155.603Z" fill="#050505"/>
<path d="M265.888 86.0923C283.239 69.5572 310.554 70.1088 327.165 87.3766C343.591 104.646 343.037 131.833 325.874 148.366C308.523 164.9 281.208 164.348 264.597 147.079C247.986 129.81 248.54 102.625 265.888 86.0923ZM256.797 76.6345C234.379 98.0104 233.626 133.636 255.102 155.949C276.575 178.26 312.176 179.198 334.78 157.637C357.197 136.261 357.95 100.635 336.475 78.3221C315.001 56.0097 279.213 55.2601 256.797 76.6345Z" stroke="white" stroke-opacity="0.3"/>
<path d="M306.429 107.101C300.828 101.155 291.493 100.969 285.519 106.73C279.545 112.304 279.358 121.596 285.146 127.542C290.747 133.489 300.081 133.675 306.056 127.914C311.843 122.153 312.03 112.862 306.429 107.101ZM276.371 135.719C266.103 125.127 266.476 108.216 277.118 97.9954C287.759 87.7748 304.749 88.1465 315.017 98.7388C325.286 109.331 324.912 126.242 314.27 136.462C303.629 146.683 286.639 146.311 276.371 135.719Z" fill="#050505"/>
<path d="M306.065 107.444L306.065 107.444L306.071 107.45C311.473 113.006 311.304 121.982 305.706 127.557C299.928 133.125 290.915 132.939 285.51 127.2L285.51 127.2L285.504 127.194C279.908 121.444 280.095 112.475 285.86 107.095L285.86 107.095L285.866 107.089C291.644 101.518 300.659 101.704 306.065 107.444ZM276.771 97.6348C265.932 108.046 265.549 125.274 276.012 136.067C286.47 146.855 303.775 147.236 314.617 136.823C325.457 126.412 325.839 109.184 315.376 98.3908C304.918 87.6025 287.613 87.2219 276.771 97.6348Z" stroke="white" stroke-opacity="0.3"/>
<path d="M342.649 64.1727C342.089 58.5978 346.009 53.3946 351.797 52.8371C357.398 52.2796 362.625 56.182 363.186 61.9428C363.746 67.5177 359.825 72.721 354.037 73.2784C348.25 73.8359 343.209 69.7477 342.649 64.1727Z" fill="#050505"/>
<path d="M351.748 52.3395C345.668 52.9256 341.565 58.3901 342.151 64.2227C342.74 70.0816 348.034 74.3591 354.085 73.7761C360.166 73.1905 364.269 67.7262 363.683 61.8937C363.094 55.8369 357.602 51.7572 351.748 52.3395Z" stroke="white" stroke-opacity="0.3"/>
</g>
</g>
<defs>
<clipPath id="clip0_593_111">
<rect width="598" height="233" fill="white" transform="translate(0.568359)"/>
</clipPath>
<clipPath id="clip1_593_111">
<rect width="192" height="192" fill="white" transform="translate(203 25)"/>
</clipPath>
</defs>
</svg>
