<svg width="88" height="89" viewBox="0 0 88 89" fill="none" xmlns="http://www.w3.org/2000/svg">
<rect x="1.25" y="1.25" width="85.5" height="85.5" rx="20.75" fill="url(#paint0_radial_1_488)" stroke="url(#paint1_linear_1_488)" stroke-width="1.5"/>
<g filter="url(#filter0_d_1_488)">
<path d="M43.4414 25.0033C43.0953 25.0208 42.7561 25.1066 42.4439 25.2558L28.8319 31.7597C28.4796 31.928 28.1701 32.1728 27.9262 32.476C27.6824 32.7792 27.5106 33.133 27.4236 33.511L24.0654 48.1205C23.9879 48.4571 23.9792 48.8057 24.0399 49.1457C24.1006 49.4857 24.2294 49.8102 24.4188 50.0999C24.4647 50.1707 24.5141 50.2393 24.5668 50.3053L33.9884 62.0197C34.2323 62.3229 34.5419 62.5676 34.8942 62.7358C35.2465 62.9039 35.6325 62.9912 36.0235 62.9911L51.1326 62.9877C51.5235 62.9879 51.9094 62.9009 52.2617 62.7331C52.614 62.5652 52.9237 62.3208 53.1677 62.018L62.5859 50.3019C62.8299 49.9986 63.0018 49.6447 63.0889 49.2664C63.1761 48.8882 63.1761 48.4953 63.089 48.117L59.7256 33.5076C59.6386 33.1295 59.4668 32.7757 59.2229 32.4725C58.9791 32.1693 58.6696 31.9245 58.3173 31.7562L44.7036 25.2558C44.3108 25.0681 43.8768 24.9813 43.4414 25.0033Z" fill="#326CE5"/>
<path d="M43.5763 29.9751C43.1263 29.9751 42.7615 30.3804 42.7615 30.8804C42.7615 30.888 42.7631 30.8954 42.7633 30.903C42.7626 30.9709 42.7593 31.0528 42.7615 31.1119C42.7723 31.4002 42.8351 31.6209 42.8729 31.8866C42.9415 32.4552 42.9989 32.9265 42.9635 33.3646C42.929 33.5298 42.8073 33.6809 42.6988 33.7859L42.6797 34.1306C42.1908 34.1711 41.6985 34.2453 41.2069 34.3569C39.0914 34.8372 37.27 35.9269 35.8833 37.3982C35.7933 37.3368 35.6359 37.2239 35.5891 37.1893C35.4436 37.209 35.2966 37.2538 35.1051 37.1423C34.7405 36.8969 34.4084 36.5581 34.0066 36.15C33.8225 35.9548 33.6892 35.7689 33.4704 35.5807C33.4208 35.538 33.3449 35.4802 33.2894 35.4362C33.1184 35.2999 32.9166 35.2288 32.7218 35.2221C32.4714 35.2135 32.2303 35.3115 32.0725 35.5094C31.792 35.8612 31.8818 36.3989 32.2727 36.7106C32.2767 36.7137 32.2809 36.7162 32.2849 36.7193C32.3386 36.7628 32.4044 36.8186 32.4538 36.8551C32.6859 37.0265 32.8979 37.1142 33.1292 37.2502C33.6165 37.5512 34.0205 37.8007 34.3409 38.1015C34.466 38.2349 34.4879 38.4699 34.5045 38.5716L34.7656 38.8049C33.3677 40.9086 32.7208 43.5072 33.1031 46.1549L32.7619 46.2541C32.672 46.3702 32.5449 46.5529 32.412 46.6075C31.9928 46.7395 31.521 46.788 30.9514 46.8477C30.684 46.87 30.4532 46.8567 30.1697 46.9104C30.1073 46.9222 30.0204 46.9449 29.9521 46.9609C29.9497 46.9614 29.9475 46.9621 29.9451 46.9626C29.9414 46.9635 29.9365 46.9653 29.933 46.9661C29.4527 47.0821 29.1443 47.5235 29.2436 47.9584C29.3429 48.3934 29.812 48.6579 30.2951 48.5538C30.2985 48.553 30.3036 48.5529 30.3072 48.5521C30.3127 48.5508 30.3175 48.5482 30.3229 48.5468C30.3903 48.5321 30.4746 48.5156 30.5336 48.4998C30.8123 48.4252 31.0142 48.3156 31.2647 48.2195C31.8038 48.0262 32.2503 47.8647 32.6853 47.8017C32.867 47.7875 33.0584 47.9138 33.1536 47.9671L33.5087 47.9062C34.326 50.44 36.0387 52.4879 38.2074 53.773L38.0594 54.1281C38.1127 54.266 38.1716 54.4526 38.1318 54.5888C37.9737 54.9989 37.7028 55.4317 37.3944 55.9142C37.245 56.1372 37.0922 56.3102 36.9574 56.5653C36.9252 56.6264 36.8841 56.7202 36.853 56.7847C36.6436 57.2327 36.7972 57.7487 37.1994 57.9424C37.6042 58.1372 38.1066 57.9317 38.324 57.4828C38.3243 57.4821 38.3254 57.4817 38.3257 57.481C38.326 57.4805 38.3255 57.4798 38.3257 57.4793C38.3567 57.4157 38.4006 57.332 38.4267 57.2721C38.5422 57.0077 38.5806 56.7811 38.6617 56.5253C38.8773 55.9838 38.9957 55.4156 39.2925 55.0616C39.3738 54.9647 39.5062 54.9274 39.6436 54.8906L39.8281 54.5564C41.7188 55.2821 43.835 55.4768 45.9491 54.9968C46.4313 54.8873 46.8969 54.7456 47.347 54.5755C47.3989 54.6675 47.4952 54.8443 47.5211 54.8889C47.6607 54.9343 47.813 54.9577 47.9372 55.1413C48.1592 55.5206 48.311 55.9694 48.496 56.5114C48.5772 56.7671 48.6173 56.9938 48.7327 57.2582C48.7591 57.3185 48.8027 57.4033 48.8337 57.4671C49.0507 57.9175 49.5547 58.1237 49.9601 57.9285C50.3622 57.7347 50.516 57.2187 50.3065 56.7708C50.2754 56.7062 50.2326 56.6125 50.2003 56.5514C50.0655 56.2963 49.9127 56.125 49.7633 55.9021C49.4549 55.4195 49.199 55.0187 49.0409 54.6086C48.9747 54.3971 49.052 54.2656 49.1035 54.1281C49.0727 54.0927 49.0067 53.893 48.9678 53.7991C51.2216 52.4683 52.884 50.344 53.6647 47.8905C53.7701 47.9071 53.9533 47.9395 54.0128 47.9515C54.1354 47.8706 54.248 47.7652 54.469 47.7826C54.9039 47.8455 55.3504 48.0071 55.8895 48.2004C56.1401 48.2964 56.342 48.4078 56.6207 48.4824C56.6796 48.4982 56.764 48.5129 56.8313 48.5277C56.8367 48.529 56.8415 48.5317 56.847 48.5329C56.8506 48.5337 56.8557 48.5339 56.8592 48.5346C57.3423 48.6387 57.8114 48.3743 57.9107 47.9393C58.0099 47.5044 57.7015 47.0629 57.2213 46.947C57.1514 46.9311 57.0524 46.9041 56.9845 46.8913C56.701 46.8376 56.4703 46.8508 56.2029 46.8286C55.6333 46.7689 55.1615 46.7204 54.7423 46.5883C54.5713 46.522 54.4497 46.3186 54.3906 46.2349L54.0616 46.1392C54.2322 44.905 54.1862 43.6205 53.891 42.3354C53.593 41.0382 53.0665 39.8518 52.3642 38.8066C52.4486 38.7299 52.608 38.5887 52.6532 38.5472C52.6664 38.401 52.6551 38.2477 52.8064 38.0859C53.1268 37.785 53.5308 37.5355 54.0181 37.2346C54.2493 37.0985 54.4631 37.0108 54.6953 36.8394C54.7478 36.8006 54.8194 36.7393 54.8746 36.6949C55.2654 36.3831 55.3554 35.8454 55.0748 35.4937C54.7942 35.142 54.2505 35.1088 53.8596 35.4206C53.804 35.4646 53.7285 35.5221 53.6786 35.5651C53.4598 35.7533 53.3248 35.9391 53.1407 36.1343C52.7389 36.5425 52.4067 36.8829 52.0422 37.1284C51.8842 37.2204 51.6528 37.1885 51.5477 37.1824L51.2379 37.4034C49.4709 35.5506 47.0651 34.3659 44.4745 34.1358C44.4673 34.0272 44.4578 33.831 44.4554 33.772C44.3493 33.6705 44.2212 33.5838 44.189 33.3646C44.1536 32.9265 44.2128 32.4552 44.2813 31.8866C44.3191 31.6209 44.382 31.4002 44.3927 31.1119C44.3952 31.0463 44.3913 30.9512 44.391 30.8804C44.3909 30.3804 44.0262 29.9751 43.5763 29.9751ZM42.5561 36.2945L42.3141 40.5684L42.2967 40.5771C42.2805 40.9594 41.9658 41.2647 41.5795 41.2647C41.4212 41.2647 41.2751 41.2139 41.1564 41.1272L41.1495 41.1307L37.6451 38.6464C38.7221 37.5874 40.0997 36.8047 41.6874 36.4442C41.9774 36.3784 42.2673 36.3295 42.5561 36.2945ZM44.5982 36.2945C46.4518 36.5225 48.166 37.3618 49.4796 38.6482L45.9978 41.1167L45.9856 41.1115C45.6766 41.3372 45.2412 41.2812 45.0003 40.9792C44.9016 40.8555 44.8498 40.71 44.8436 40.5631L44.8401 40.5614L44.5982 36.2945ZM36.3742 40.2428L39.574 43.1048L39.5705 43.1222C39.8593 43.3733 39.9019 43.809 39.661 44.1111C39.5623 44.2348 39.4303 44.3178 39.2885 44.3565L39.285 44.3705L35.1835 45.5543C34.9747 43.6454 35.4246 41.7898 36.3742 40.2428ZM50.7557 40.2446C51.2311 41.0151 51.5911 41.8758 51.8054 42.8089C52.0172 43.7308 52.0703 44.651 51.983 45.5403L47.8606 44.353L47.8571 44.3356C47.4879 44.2347 47.2611 43.8592 47.347 43.4826C47.3822 43.3283 47.4641 43.1978 47.5751 43.1013L47.5733 43.0926L50.7557 40.2446ZM42.9199 43.3259H44.2308L45.0456 44.3443L44.7531 45.6152L43.5763 46.181L42.3959 45.6134L42.1035 44.3426L42.9199 43.3259ZM47.1224 46.8112C47.1781 46.8084 47.2336 46.8134 47.2878 46.8234L47.2948 46.8146L51.5373 47.5319C50.9164 49.2763 49.7283 50.7875 48.1408 51.7988L46.494 47.8209L46.4992 47.8139C46.3479 47.4624 46.4993 47.0502 46.8474 46.8825C46.9365 46.8396 47.0296 46.8159 47.1224 46.8112ZM39.997 46.8286C40.3208 46.8331 40.6112 47.0578 40.6864 47.3874C40.7216 47.5417 40.7045 47.6946 40.6463 47.8296L40.6585 47.8453L39.0291 51.7831C37.5056 50.8055 36.2922 49.3418 35.6431 47.5458L39.849 46.8321L39.856 46.8408C39.903 46.8321 39.9507 46.8279 39.997 46.8286ZM43.5501 48.5538C43.6629 48.5497 43.7774 48.5728 43.8861 48.6252C44.0287 48.6938 44.1389 48.8019 44.2082 48.9316H44.2239L46.2973 52.6779C46.0282 52.7681 45.7515 52.8452 45.4686 52.9095C43.8829 53.2695 42.3022 53.1604 40.8709 52.6727L42.9391 48.9333H42.9426C43.0667 48.7013 43.302 48.5629 43.5501 48.5538Z" fill="white" stroke="white" stroke-width="0.25"/>
</g>
<defs>
<filter id="filter0_d_1_488" x="2" y="7" width="83.1543" height="81.9912" filterUnits="userSpaceOnUse" color-interpolation-filters="sRGB">
<feFlood flood-opacity="0" result="BackgroundImageFix"/>
<feColorMatrix in="SourceAlpha" type="matrix" values="0 0 0 0 0 0 0 0 0 0 0 0 0 0 0 0 0 0 127 0" result="hardAlpha"/>
<feOffset dy="4"/>
<feGaussianBlur stdDeviation="11"/>
<feComposite in2="hardAlpha" operator="out"/>
<feColorMatrix type="matrix" values="0 0 0 0 0.196078 0 0 0 0 0.423529 0 0 0 0 0.898039 0 0 0 1 0"/>
<feBlend mode="normal" in2="BackgroundImageFix" result="effect1_dropShadow_1_488"/>
<feBlend mode="normal" in="SourceGraphic" in2="effect1_dropShadow_1_488" result="shape"/>
</filter>
<radialGradient id="paint0_radial_1_488" cx="0" cy="0" r="1" gradientUnits="userSpaceOnUse" gradientTransform="translate(44 44) rotate(90) scale(42)">
<stop stop-color="#383C68"/>
<stop offset="1" stop-color="#242854"/>
</radialGradient>
<linearGradient id="paint1_linear_1_488" x1="44" y1="2" x2="44" y2="86" gradientUnits="userSpaceOnUse">
<stop stop-color="#515684"/>
<stop offset="1" stop-color="#0D1033"/>
</linearGradient>
</defs>
</svg>
