<svg width="88" height="88" viewBox="0 0 88 88" fill="none" xmlns="http://www.w3.org/2000/svg">
<rect x="1.25" y="1.25" width="85.5" height="85.5" rx="20.75" fill="url(#paint0_radial_1_490)" stroke="url(#paint1_linear_1_490)" stroke-width="1.5"/>
<g filter="url(#filter0_d_1_490)">
<path d="M58.3896 40.7218L33.9235 26.0556C33.9235 26.0556 32.3247 25.8201 31.6653 26.3185C30.9381 26.868 30.6865 28.7061 30.6865 28.7061V58.0384C30.6865 58.0384 30.9119 60.2238 31.6651 60.7775C32.5156 61.4026 34.5258 60.5123 34.5258 60.5123L58.6155 46.0228C58.6155 46.0228 60.1963 44.8742 60.1963 43.2839C60.1963 41.6936 58.3896 40.7218 58.3896 40.7218Z" fill="#FFDA1C"/>
<path d="M40.3644 41.6794V38.353H42.7279V41.6794H46.1417V44.0428H42.7279V47.2817H40.3644V44.0428H36.863V41.6794H40.3644Z" fill="black"/>
</g>
<defs>
<filter id="filter0_d_1_490" x="8.68652" y="8" width="73.5098" height="79" filterUnits="userSpaceOnUse" color-interpolation-filters="sRGB">
<feFlood flood-opacity="0" result="BackgroundImageFix"/>
<feColorMatrix in="SourceAlpha" type="matrix" values="0 0 0 0 0 0 0 0 0 0 0 0 0 0 0 0 0 0 127 0" result="hardAlpha"/>
<feOffset dy="4"/>
<feGaussianBlur stdDeviation="11"/>
<feComposite in2="hardAlpha" operator="out"/>
<feColorMatrix type="matrix" values="0 0 0 0 1 0 0 0 0 0.854902 0 0 0 0 0.109804 0 0 0 1 0"/>
<feBlend mode="normal" in2="BackgroundImageFix" result="effect1_dropShadow_1_490"/>
<feBlend mode="normal" in="SourceGraphic" in2="effect1_dropShadow_1_490" result="shape"/>
</filter>
<radialGradient id="paint0_radial_1_490" cx="0" cy="0" r="1" gradientUnits="userSpaceOnUse" gradientTransform="translate(44 44) rotate(90) scale(42)">
<stop stop-color="#383C68"/>
<stop offset="1" stop-color="#242854"/>
</radialGradient>
<linearGradient id="paint1_linear_1_490" x1="44" y1="2" x2="44" y2="86" gradientUnits="userSpaceOnUse">
<stop stop-color="#515684"/>
<stop offset="1" stop-color="#0D1033"/>
</linearGradient>
</defs>
</svg>
