<svg width="88" height="88" viewBox="0 0 88 88" fill="none" xmlns="http://www.w3.org/2000/svg">
<rect x="1.25" y="1.25" width="85.5" height="85.5" rx="20.75" fill="url(#paint0_radial_1_493)" stroke="url(#paint1_linear_1_493)" stroke-width="1.5"/>
<g filter="url(#filter0_d_1_493)">
<path d="M40.2726 41.1088C38.4225 40.0407 36.9766 38.3919 36.159 36.4182C35.3415 34.4446 35.1981 32.2563 35.751 30.1928C36.3039 28.1293 37.5223 26.3059 39.2171 25.0054C40.9119 23.7049 42.9885 23 45.1248 23C47.2611 23 49.3377 23.7049 51.0325 25.0054C52.7274 26.3059 53.9457 28.1293 54.4986 30.1928C55.0515 32.2563 54.9081 34.4446 54.0906 36.4182C53.2731 38.3919 51.8271 40.0407 49.977 41.1088L47.0552 36.048C47.7912 35.623 48.3664 34.9671 48.6917 34.1819C49.0169 33.3967 49.074 32.5262 48.854 31.7053C48.634 30.8843 48.1493 30.1589 47.4751 29.6416C46.8008 29.1242 45.9747 28.8438 45.1248 28.8438C44.2749 28.8438 43.4488 29.1242 42.7745 29.6416C42.1003 30.1589 41.6156 30.8843 41.3956 31.7053C41.1757 32.5262 41.2327 33.3967 41.558 34.1819C41.8832 34.9671 42.4584 35.623 43.1944 36.048L40.2726 41.1088Z" fill="#FF0101"/>
<path d="M61.0544 43.4586C62.9045 44.5267 64.3504 46.1755 65.1679 48.1491C65.9855 50.1228 66.1289 52.3111 65.576 54.3746C65.0231 56.4381 63.8047 58.2615 62.1099 59.562C60.415 60.8625 58.3384 61.5674 56.2022 61.5674C54.0659 61.5674 51.9893 60.8625 50.2944 59.562C48.5996 58.2615 47.3813 56.4381 46.8283 54.3746C46.2754 52.3111 46.4189 50.1228 47.2364 48.1491C48.0539 46.1755 49.4998 44.5267 51.3499 43.4586L54.2718 48.5194C53.5358 48.9443 52.9605 49.6003 52.6353 50.3855C52.3101 51.1706 52.253 52.0412 52.473 52.8621C52.6929 53.683 53.1776 54.4084 53.8519 54.9258C54.5261 55.4432 55.3523 55.7236 56.2022 55.7236C57.052 55.7236 57.8782 55.4432 58.5524 54.9258C59.2267 54.4084 59.7114 53.683 59.9313 52.8621C60.1513 52.0412 60.0942 51.1706 59.769 50.3855C59.4438 49.6003 58.8685 48.9443 58.1325 48.5194L61.0544 43.4586Z" fill="#0101FF"/>
<path d="M43.9611 51.8626C43.9611 53.9989 43.2562 56.0754 41.9557 57.7703C40.6552 59.4651 38.8318 60.6835 36.7683 61.2364C34.7048 61.7893 32.5165 61.6459 30.5428 60.8283C28.5692 60.0108 26.9204 58.5649 25.8523 56.7148C24.7841 54.8647 24.3563 52.7139 24.6351 50.5959C24.914 48.4779 25.8839 46.511 27.3945 45.0005C28.9051 43.4899 30.8719 42.5199 32.9899 42.2411C35.1079 41.9623 37.2587 42.3901 39.1088 43.4582L36.187 48.5191C35.4509 48.0941 34.5953 47.9239 33.7527 48.0349C32.9101 48.1458 32.1276 48.5317 31.5266 49.1326C30.9257 49.7336 30.5398 50.516 30.4289 51.3586C30.318 52.2012 30.4882 53.0569 30.9131 53.7929C31.338 54.5289 31.994 55.1042 32.7791 55.4294C33.5643 55.7546 34.4349 55.8117 35.2558 55.5917C36.0767 55.3718 36.8021 54.8871 37.3195 54.2128C37.8369 53.5386 38.1173 52.7124 38.1173 51.8626L43.9611 51.8626Z" fill="#01FF01"/>
</g>
<defs>
<filter id="filter0_d_1_493" x="2.55209" y="5" width="85.3546" height="82.5674" filterUnits="userSpaceOnUse" color-interpolation-filters="sRGB">
<feFlood flood-opacity="0" result="BackgroundImageFix"/>
<feColorMatrix in="SourceAlpha" type="matrix" values="0 0 0 0 0 0 0 0 0 0 0 0 0 0 0 0 0 0 127 0" result="hardAlpha"/>
<feOffset dy="4"/>
<feGaussianBlur stdDeviation="11"/>
<feComposite in2="hardAlpha" operator="out"/>
<feColorMatrix type="matrix" values="0 0 0 0 1 0 0 0 0 0.00392157 0 0 0 0 0.00392157 0 0 0 1 0"/>
<feBlend mode="normal" in2="BackgroundImageFix" result="effect1_dropShadow_1_493"/>
<feBlend mode="normal" in="SourceGraphic" in2="effect1_dropShadow_1_493" result="shape"/>
</filter>
<radialGradient id="paint0_radial_1_493" cx="0" cy="0" r="1" gradientUnits="userSpaceOnUse" gradientTransform="translate(44 44) rotate(90) scale(42)">
<stop stop-color="#383C68"/>
<stop offset="1" stop-color="#242854"/>
</radialGradient>
<linearGradient id="paint1_linear_1_493" x1="44" y1="2" x2="44" y2="86" gradientUnits="userSpaceOnUse">
<stop stop-color="#515684"/>
<stop offset="1" stop-color="#0D1033"/>
</linearGradient>
</defs>
</svg>
