<svg width="88" height="88" viewBox="0 0 88 88" fill="none" xmlns="http://www.w3.org/2000/svg">
<rect x="1.25" y="1.25" width="85.5" height="85.5" rx="20.75" fill="url(#paint0_radial_1_492)" stroke="url(#paint1_linear_1_492)" stroke-width="1.5"/>
<g filter="url(#filter0_d_1_492)">
<path d="M44.2876 27C38.8463 27 34.2344 30.6888 32.805 35.6868C31.5627 33.0358 28.8706 31.1786 25.7698 31.1786C21.5054 31.1786 18 34.684 18 38.9483C18 43.2127 21.5054 46.7197 25.7698 46.7197C28.8706 46.7197 31.5627 44.8613 32.805 42.2099C34.2344 47.2082 38.8463 50.8982 44.2876 50.8982C49.6886 50.8982 54.277 47.2638 55.743 42.3219C57.0082 44.9131 59.667 46.7197 62.7238 46.7197C66.9881 46.7197 70.4951 43.2127 70.4951 38.9483C70.4951 34.684 66.9881 31.1786 62.7238 31.1786C59.667 31.1786 57.0082 32.984 55.743 35.5748C54.277 30.6332 49.6886 27 44.2876 27ZM44.2876 31.561C48.3951 31.561 51.6765 34.8408 51.6765 38.9483C51.6765 43.0559 48.3951 46.3372 44.2876 46.3372C40.1801 46.3372 36.9003 43.0559 36.9003 38.9483C36.9003 34.8408 40.1801 31.561 44.2876 31.561ZM25.7698 35.7396C27.5694 35.7396 28.9801 37.1487 28.9801 38.9483C28.9801 40.7479 27.5694 42.1586 25.7698 42.1586C23.9702 42.1586 22.561 40.7479 22.561 38.9483C22.561 37.1487 23.9702 35.7396 25.7698 35.7396ZM62.7238 35.7396C64.5234 35.7396 65.9341 37.1487 65.9341 38.9483C65.9341 40.7479 64.5234 42.1586 62.7238 42.1586C60.9242 42.1586 59.515 40.7479 59.515 38.9483C59.515 37.1487 60.9242 35.7396 62.7238 35.7396Z" fill="#0082C9"/>
<path d="M23.4668 54.5025C23.315 54.5025 23.2495 54.5892 23.2495 54.741V61.0291C23.2495 61.1809 23.315 61.2665 23.4668 61.2665H23.6408C23.7926 61.2665 23.8782 61.1809 23.8782 61.0291V55.8074L27.3108 61.1346C27.3257 61.1579 27.342 61.1734 27.3583 61.1905C27.3632 61.1963 27.3665 61.2023 27.372 61.2074C27.3866 61.2207 27.4027 61.2277 27.4184 61.2359C27.4272 61.2405 27.434 61.2472 27.4437 61.2506C27.4506 61.2529 27.4578 61.2515 27.4649 61.2534C27.4891 61.2596 27.5138 61.2661 27.5429 61.2661H27.7159C27.8677 61.2661 27.9332 61.1805 27.9332 61.0287V54.7408C27.9332 54.5891 27.8677 54.5024 27.7159 54.5024H27.5429C27.3911 54.5024 27.3045 54.5891 27.3045 54.7408V59.9628L23.8719 54.6356C23.8602 54.6174 23.846 54.6064 23.8329 54.5923C23.7932 54.5363 23.7305 54.5026 23.6409 54.5026L23.4668 54.5025ZM64.6823 54.5891C64.5305 54.5891 64.5958 54.6757 64.5958 54.8275V56.9742C64.5958 57.191 64.6168 57.3423 64.6168 57.3423H64.5958C64.5958 57.3423 64.1836 56.3887 63.0346 56.3887C61.7771 56.3887 60.8877 57.386 60.9311 58.8603C60.9311 60.3346 61.7332 61.354 63.0124 61.354C64.2482 61.354 64.6601 60.3561 64.6601 60.3561H64.6823C64.6823 60.3561 64.639 60.4865 64.639 60.6599V61.0281C64.639 61.1798 64.7256 61.2454 64.8774 61.2454H65.0293C65.1811 61.2454 65.2455 61.1587 65.2455 61.007V54.8275C65.2455 54.6757 65.007 54.5891 64.8552 54.5891H64.6823ZM47.8357 54.6112C47.684 54.6112 47.7714 54.6979 47.7714 54.8496V60.161C47.7714 61.2017 48.4645 61.3319 48.8548 61.3319C49.0282 61.3319 49.0932 61.2453 49.0932 61.0935V60.9416C49.0932 60.7898 49.0064 60.7253 48.898 60.7253C48.6812 60.7037 48.4001 60.6383 48.4001 60.0312V54.8496C48.4001 54.6979 48.1616 54.6112 48.0098 54.6112L47.8357 54.6112ZM40.0528 55.1745C39.901 55.1745 39.8144 55.2612 39.8144 55.4129V56.5406V57.0828V59.5323C39.8144 60.6597 40.4436 61.2887 41.4843 61.2887C41.6794 61.2887 41.7438 61.2242 41.7438 61.0724V60.9416C41.7438 60.7682 41.6794 60.7249 41.4843 60.7032C41.1157 60.6815 40.4431 60.5515 40.4431 59.4458V57.0607H41.4189C41.5706 57.0607 41.6573 56.9962 41.6573 56.8444V56.779C41.6573 56.6273 41.5706 56.5406 41.4189 56.5406H40.4431V55.4129C40.4431 55.2612 40.3786 55.1745 40.2268 55.1745H40.0528ZM31.4175 56.3887C30.1166 56.3887 29.0751 57.3214 29.0535 58.8825C29.0535 60.3568 30.138 61.3752 31.5472 61.3752C32.3061 61.3752 32.8694 61.0502 33.1296 60.8551C33.238 60.7684 33.26 60.6597 33.195 60.5513L33.1296 60.4437C33.0645 60.3136 32.9569 60.2916 32.8268 60.3783C32.61 60.5517 32.1754 60.8119 31.5683 60.8119C30.5927 60.8119 29.7471 60.1177 29.7254 58.9036H33.1728C33.3029 58.9036 33.4112 58.7952 33.4112 58.6652C33.4112 57.2993 32.6967 56.3887 31.4175 56.3887ZM44.8873 56.3887C43.4781 56.3887 42.3941 57.4293 42.3725 58.9036C42.3725 60.3779 43.457 61.3973 44.8662 61.3973C45.7335 61.3973 46.3187 60.9848 46.5572 60.7897C46.6657 60.6813 46.6866 60.5949 46.6216 60.4648L46.5572 60.3783C46.4705 60.2482 46.3835 60.2262 46.2534 60.3129C46.0366 60.508 45.5816 60.8119 44.9095 60.8119C43.8688 60.8119 43.0444 60.031 43.0444 58.9036C43.0444 57.7545 43.8688 56.9742 44.9095 56.9742C45.4732 56.9742 45.8847 57.256 46.1015 57.4077C46.2316 57.4944 46.3397 57.4946 46.4264 57.3645L46.4918 57.2559C46.6003 57.1258 46.5781 57.0177 46.4697 56.931C46.2312 56.7358 45.7112 56.3887 44.8873 56.3887ZM52.2156 56.3887C50.8281 56.3887 49.7008 57.4511 49.7008 58.8603C49.7008 60.2912 50.8281 61.3752 52.2156 61.3752C53.6032 61.3752 54.7305 60.2912 54.7305 58.8603C54.7305 57.4511 53.6032 56.3887 52.2156 56.3887ZM38.1899 56.4615C38.1368 56.47 38.0857 56.5057 38.0369 56.5638L37.1592 57.6092L36.5031 58.3919L35.5083 57.2073L34.9693 56.5638C34.9205 56.5057 34.8652 56.4738 34.8079 56.4689C34.7506 56.4643 34.6909 56.4855 34.6328 56.5343L34.4999 56.6461C34.3836 56.7437 34.3897 56.8516 34.4872 56.9679L35.3649 58.0132L36.0927 58.8814L35.0273 60.1504C35.0262 60.1514 35.0257 60.1527 35.0252 60.1532L34.4872 60.7935C34.3896 60.9098 34.4005 61.0325 34.5167 61.13L34.6496 61.2408C34.7659 61.3384 34.8717 61.3138 34.9693 61.1975L35.8459 60.1521L36.5031 59.3694L37.4978 60.5551C37.4983 60.556 37.4995 60.5569 37.5 60.5574L38.0369 61.1988C38.1345 61.315 38.2571 61.3248 38.3734 61.2272L38.5063 61.1164C38.6226 61.0189 38.6165 60.911 38.519 60.7947L37.6413 59.7483L36.9134 58.8811L37.9789 57.611C37.98 57.6101 37.9805 57.6092 37.981 57.6083L38.519 56.968C38.6165 56.8517 38.6057 56.729 38.4895 56.6315L38.3565 56.5207C38.2984 56.4719 38.243 56.453 38.1899 56.4615ZM56.0101 56.4974C55.8583 56.4974 55.7928 56.5841 55.7928 56.7358V59.5323C55.7928 60.7681 56.7034 61.3752 57.8308 61.3752C58.9582 61.3752 59.8688 60.7681 59.8688 59.5323V56.7358C59.8905 56.5841 59.8044 56.4974 59.6526 56.4974H59.4785C59.3268 56.4974 59.2401 56.5841 59.2401 56.7358V59.3593C59.2401 60.0965 58.7631 60.7687 57.8308 60.7687C56.9202 60.7687 56.4215 60.0965 56.4215 59.3593V56.7358C56.4215 56.5841 56.3348 56.4974 56.1831 56.4974L56.0101 56.4974ZM31.3953 56.931C32.0891 56.931 32.6959 57.4295 32.7392 58.4268H29.7476C29.8994 57.4512 30.5931 56.931 31.3953 56.931ZM52.2156 56.9743C53.2346 56.9743 54.0585 57.7764 54.0585 58.8604C54.0585 59.9878 53.2346 60.8119 52.2156 60.8119C51.1966 60.8119 50.3722 59.9661 50.3506 58.8604C50.3506 57.798 51.1966 56.9743 52.2156 56.9743ZM63.0778 56.9743C64.0968 56.9743 64.5958 57.9069 64.5958 58.8826C64.5958 60.2484 63.8578 60.8119 63.0557 60.8119C62.1667 60.8119 61.5604 60.0533 61.5387 58.8826C61.5387 57.6684 62.2323 56.9743 63.0778 56.9743Z" fill="#0082C9"/>
</g>
<defs>
<filter id="filter0_d_1_492" x="3" y="16" width="82.4951" height="64.3975" filterUnits="userSpaceOnUse" color-interpolation-filters="sRGB">
<feFlood flood-opacity="0" result="BackgroundImageFix"/>
<feColorMatrix in="SourceAlpha" type="matrix" values="0 0 0 0 0 0 0 0 0 0 0 0 0 0 0 0 0 0 127 0" result="hardAlpha"/>
<feOffset dy="4"/>
<feGaussianBlur stdDeviation="7.5"/>
<feComposite in2="hardAlpha" operator="out"/>
<feColorMatrix type="matrix" values="0 0 0 0 0 0 0 0 0 0.509804 0 0 0 0 0.788235 0 0 0 1 0"/>
<feBlend mode="normal" in2="BackgroundImageFix" result="effect1_dropShadow_1_492"/>
<feBlend mode="normal" in="SourceGraphic" in2="effect1_dropShadow_1_492" result="shape"/>
</filter>
<radialGradient id="paint0_radial_1_492" cx="0" cy="0" r="1" gradientUnits="userSpaceOnUse" gradientTransform="translate(44 44) rotate(90) scale(42)">
<stop stop-color="#383C68"/>
<stop offset="1" stop-color="#242854"/>
</radialGradient>
<linearGradient id="paint1_linear_1_492" x1="44" y1="2" x2="44" y2="86" gradientUnits="userSpaceOnUse">
<stop stop-color="#515684"/>
<stop offset="1" stop-color="#0D1033"/>
</linearGradient>
</defs>
</svg>
