<svg width="88" height="88" viewBox="0 0 88 88" fill="none" xmlns="http://www.w3.org/2000/svg">
<rect x="1.25" y="1.25" width="85.5" height="85.5" rx="20.75" fill="url(#paint0_radial_1_494)" stroke="url(#paint1_linear_1_494)" stroke-width="1.5"/>
<g filter="url(#filter0_d_1_494)">
<path fill-rule="evenodd" clip-rule="evenodd" d="M29.295 36.2218C31.4048 34.1589 34.2663 33 37.25 33H50.75C53.7337 33 56.5952 34.1589 58.705 36.2218C60.8147 38.2847 62 41.0826 62 44C62 46.9174 60.8147 49.7153 58.705 51.7782C56.5952 53.8411 53.7337 55 50.75 55H37.25C34.2663 55 31.4048 53.8411 29.295 51.7782C27.1853 49.7153 26 46.9174 26 44C26 41.0826 27.1853 38.2847 29.295 36.2218ZM37.25 37.4C35.4598 37.4 33.7429 38.0954 32.477 39.3331C31.2112 40.5708 30.5 42.2496 30.5 44C30.5 45.7504 31.2112 47.4292 32.477 48.6669C33.7429 49.9046 35.4598 50.6 37.25 50.6H50.75C52.5402 50.6 54.2571 49.9046 55.523 48.6669C56.7888 47.4292 57.5 45.7504 57.5 44C57.5 42.2496 56.7888 40.5708 55.523 39.3331C54.2571 38.0954 52.5402 37.4 50.75 37.4H37.25Z" fill="#C74634"/>
</g>
<defs>
<filter id="filter0_d_1_494" x="4" y="15" width="80" height="66" filterUnits="userSpaceOnUse" color-interpolation-filters="sRGB">
<feFlood flood-opacity="0" result="BackgroundImageFix"/>
<feColorMatrix in="SourceAlpha" type="matrix" values="0 0 0 0 0 0 0 0 0 0 0 0 0 0 0 0 0 0 127 0" result="hardAlpha"/>
<feOffset dy="4"/>
<feGaussianBlur stdDeviation="11"/>
<feComposite in2="hardAlpha" operator="out"/>
<feColorMatrix type="matrix" values="0 0 0 0 0.780392 0 0 0 0 0.27451 0 0 0 0 0.203922 0 0 0 1 0"/>
<feBlend mode="normal" in2="BackgroundImageFix" result="effect1_dropShadow_1_494"/>
<feBlend mode="normal" in="SourceGraphic" in2="effect1_dropShadow_1_494" result="shape"/>
</filter>
<radialGradient id="paint0_radial_1_494" cx="0" cy="0" r="1" gradientUnits="userSpaceOnUse" gradientTransform="translate(44 44) rotate(90) scale(42)">
<stop stop-color="#383C68"/>
<stop offset="1" stop-color="#242854"/>
</radialGradient>
<linearGradient id="paint1_linear_1_494" x1="44" y1="2" x2="44" y2="86" gradientUnits="userSpaceOnUse">
<stop stop-color="#515684"/>
<stop offset="1" stop-color="#0D1033"/>
</linearGradient>
</defs>
</svg>
