<svg width="88" height="88" viewBox="0 0 88 88" fill="none" xmlns="http://www.w3.org/2000/svg">
<rect x="1.25" y="1.25" width="85.5" height="85.5" rx="20.75" fill="url(#paint0_radial_1_480)" stroke="url(#paint1_linear_1_480)" stroke-width="1.5"/>
<g filter="url(#filter0_d_1_480)">
<mask id="mask0_1_480" style="mask-type:luminance" maskUnits="userSpaceOnUse" x="23" y="32" width="43" height="24">
<path d="M23.0976 43.9999C23.0976 50.1047 32.5058 55.0537 44.1109 55.0537C55.7161 55.0537 65.1243 50.1047 65.1243 43.9999C65.1243 37.8952 55.7161 32.9461 44.1109 32.9461C32.5058 32.9461 23.0976 37.8952 23.0976 43.9999Z" fill="white"/>
</mask>
<g mask="url(#mask0_1_480)">
<path d="M23.0974 43.9999C23.0974 50.1047 32.5056 55.0537 44.1108 55.0537C55.7159 55.0537 65.1242 50.1047 65.1242 43.9999C65.1242 37.8952 55.7159 32.9461 44.1108 32.9461C32.5056 32.9461 23.0974 37.8952 23.0974 43.9999Z" fill="url(#paint2_radial_1_480)"/>
</g>
<mask id="mask1_1_480" style="mask-type:luminance" maskUnits="userSpaceOnUse" x="22" y="31" width="44" height="26">
<path d="M22.2222 31.6875H65.9999V56.3125H22.2222V31.6875Z" fill="white"/>
</mask>
<g mask="url(#mask1_1_480)">
<path d="M44.1106 54.2334C55.2624 54.2334 64.3031 49.6519 64.3031 44.0003C64.3031 38.3488 55.2624 33.7671 44.1106 33.7671C32.9587 33.7671 23.9181 38.3488 23.9181 44.0003C23.9181 49.6519 32.9587 54.2334 44.1106 54.2334Z" fill="#777BB3"/>
</g>
<mask id="mask2_1_480" style="mask-type:luminance" maskUnits="userSpaceOnUse" x="22" y="31" width="44" height="26">
<path d="M22.2222 31.6875H65.9999V56.3125H22.2222V31.6875Z" fill="white"/>
</mask>
<g mask="url(#mask2_1_480)">
<path d="M34.5142 45.2688C35.4312 45.2688 36.1158 45.0997 36.5489 44.7663C36.9774 44.4364 37.2734 43.8648 37.4285 43.0674C37.5731 42.3221 37.518 41.8017 37.2648 41.5209C37.0059 41.2341 36.446 41.0886 35.6009 41.0886H34.1354L33.323 45.2688H34.5142ZM29.7213 50.418C29.6532 50.418 29.5886 50.3876 29.5454 50.335C29.5021 50.2825 29.4845 50.2133 29.4975 50.1465L31.6505 39.069C31.6714 38.9619 31.7652 38.8845 31.8744 38.8845H36.5146C37.973 38.8845 39.0585 39.2805 39.7408 40.0616C40.4267 40.8467 40.6385 41.9443 40.3703 43.3237C40.2611 43.8857 40.0734 44.4076 39.8123 44.8748C39.551 45.3426 39.2055 45.7755 38.7855 46.1616C38.2826 46.6322 37.7135 46.9734 37.0955 47.1742C36.4872 47.3724 35.7061 47.4728 34.7737 47.4728H32.8948L32.3582 50.2334C32.3374 50.3406 32.2436 50.418 32.1344 50.418H29.7213Z" fill="black"/>
<path d="M34.3231 41.3161H35.6006C36.6206 41.3161 36.9749 41.54 37.0953 41.6733C37.2951 41.8948 37.3328 42.3618 37.2044 43.0237C37.0601 43.7647 36.7928 44.2901 36.4095 44.5852C36.0172 44.8872 35.3794 45.0403 34.514 45.0403H33.5993L34.3231 41.3161ZM36.5144 38.656H31.874C31.6557 38.656 31.4681 38.8108 31.4264 39.025L29.2734 50.1025C29.2474 50.2362 29.2825 50.3745 29.3691 50.4796C29.4557 50.5847 29.5848 50.6455 29.721 50.6455H32.1341C32.3524 50.6455 32.5401 50.4908 32.5817 50.2765L33.0824 47.7004H34.7734C35.7297 47.7004 36.5347 47.5961 37.1659 47.3905C37.8151 47.1796 38.4123 46.822 38.9409 46.3277C39.3781 45.9255 39.7382 45.474 40.011 44.9857C40.284 44.4972 40.48 43.9525 40.5938 43.3667C40.8762 41.9147 40.6468 40.752 39.9121 39.9111C39.1846 39.0783 38.0414 38.656 36.5144 38.656ZM33.0461 45.4963H34.514C35.4869 45.4963 36.2116 45.3131 36.6877 44.9465C37.164 44.5799 37.4851 43.968 37.652 43.1105C37.8117 42.2872 37.739 41.7063 37.4338 41.3678C37.1283 41.0294 36.5173 40.8601 35.6006 40.8601H33.9472L33.0461 45.4963ZM36.5144 39.112C37.9103 39.112 38.9287 39.4784 39.5688 40.2111C40.2088 40.9439 40.4015 41.9666 40.1462 43.2797C40.041 43.8207 39.8633 44.3152 39.613 44.7632C39.3624 45.2116 39.0352 45.6216 38.6309 45.9933C38.149 46.4442 37.6137 46.7655 37.0247 46.9569C36.4357 47.1488 35.6855 47.2444 34.7734 47.2444H32.7064L32.1341 50.1895H29.721L31.874 39.112H36.5144Z" fill="white"/>
<path d="M45.9027 47.4731C45.8346 47.4731 45.7701 47.4427 45.7268 47.3901C45.6834 47.3376 45.6659 47.2685 45.6789 47.2017L46.6313 42.3003C46.7219 41.8342 46.6995 41.4996 46.5684 41.3582C46.4882 41.2718 46.2471 41.1269 45.5342 41.1269H43.8088L42.6114 47.2886C42.5906 47.3958 42.4967 47.4731 42.3876 47.4731H39.9935C39.9254 47.4731 39.8608 47.4427 39.8175 47.3901C39.7742 47.3376 39.7566 47.2685 39.7696 47.2017L41.9227 36.1241C41.9435 36.017 42.0373 35.9397 42.1465 35.9397H44.5406C44.6087 35.9397 44.6732 35.9701 44.7165 36.0226C44.7598 36.0752 44.7774 36.1443 44.7644 36.2112L44.2448 38.8848H46.101C47.515 38.8848 48.4739 39.1341 49.0324 39.647C49.6016 40.1702 49.7792 41.0067 49.5604 42.1337L48.5586 47.2886C48.5378 47.3958 48.444 47.4731 48.3348 47.4731H45.9027Z" fill="black"/>
<path d="M44.5411 35.7112H42.147C41.9286 35.7112 41.741 35.8659 41.6993 36.0802L39.5463 47.1577C39.5203 47.2914 39.5554 47.4297 39.6421 47.5348C39.7287 47.6399 39.8578 47.7007 39.994 47.7007H42.3881C42.6064 47.7007 42.7941 47.5459 42.8357 47.3317L43.9973 41.3544H45.5348C46.2464 41.3544 46.3957 41.5064 46.4017 41.513C46.4449 41.5594 46.5017 41.7745 46.408 42.2564L45.4556 47.1577C45.4296 47.2914 45.4647 47.4297 45.5513 47.5348C45.638 47.6399 45.767 47.7007 45.9032 47.7007H48.3353C48.5536 47.7007 48.7413 47.5459 48.783 47.3317L49.7846 42.1768C50.0197 40.9667 49.8186 40.059 49.1872 39.4787C48.5846 38.9253 47.5753 38.6563 46.1015 38.6563H44.5219L44.9887 36.2542C45.0147 36.1205 44.9796 35.9822 44.893 35.8772C44.8063 35.7721 44.6773 35.7112 44.5411 35.7112ZM44.5411 36.1672L43.9687 39.1123H46.1015C47.4435 39.1123 48.3691 39.3466 48.8786 39.8145C49.388 40.2826 49.5407 41.0412 49.337 42.0898L48.3353 47.2447H45.9032L46.8556 42.3434C46.964 41.7858 46.9242 41.4055 46.736 41.2027C46.5477 40.9999 46.1473 40.8984 45.5348 40.8984H43.6213L42.3881 47.2447H39.994L42.147 36.1672H44.5411Z" fill="white"/>
<path d="M53.3483 45.2688C54.2653 45.2688 54.9499 45.0997 55.383 44.7663C55.8115 44.4365 56.1075 43.8648 56.2627 43.0674C56.4073 42.3221 56.3522 41.8017 56.0989 41.5209C55.84 41.2341 55.2801 41.0886 54.435 41.0886H52.9695L52.1571 45.2688H53.3483ZM48.5554 50.418C48.4874 50.418 48.4228 50.3876 48.3796 50.335C48.3362 50.2825 48.3186 50.2133 48.3316 50.1465L50.4846 39.069C50.5055 38.9619 50.5993 38.8845 50.7085 38.8845H55.3487C56.8072 38.8845 57.8926 39.2805 58.5749 40.0616C59.2609 40.8467 59.4726 41.9442 59.2045 43.3237C59.0952 43.8857 58.9075 44.4076 58.6464 44.8748C58.3851 45.3426 58.0396 45.7755 57.6196 46.1616C57.1167 46.6322 56.5476 46.9734 55.9296 47.1742C55.3213 47.3724 54.5401 47.4728 53.6078 47.4728H51.7288L51.1924 50.2334C51.1715 50.3406 51.0778 50.418 50.9685 50.418H48.5554Z" fill="black"/>
<path d="M53.1579 41.3161H54.4354C55.4554 41.3161 55.8097 41.54 55.9301 41.6733C56.1299 41.8948 56.1676 42.3618 56.0392 43.0236C55.8949 43.7647 55.6275 44.2901 55.2444 44.5852C54.852 44.8872 54.2142 45.0403 53.3488 45.0403H52.4342L53.1579 41.3161ZM55.3492 38.656H50.7089C50.4906 38.656 50.3029 38.8108 50.2613 39.025L48.1083 50.1025C48.0823 50.2362 48.1174 50.3745 48.204 50.4796C48.2906 50.5847 48.4197 50.6455 48.5559 50.6455H50.969C51.1872 50.6455 51.375 50.4908 51.4166 50.2765L51.9172 47.7004H53.6082C54.5645 47.7004 55.3695 47.5961 56.0007 47.3905C56.6499 47.1796 57.2473 46.8219 57.7759 46.3275C58.213 45.9254 58.573 45.474 58.8458 44.9857C59.1188 44.4972 59.3149 43.9525 59.4286 43.3667C59.711 41.9147 59.4816 40.752 58.747 39.9111C58.0195 39.0783 56.8763 38.656 55.3492 38.656ZM51.881 45.4963H53.3488C54.3217 45.4963 55.0464 45.3131 55.5225 44.9465C55.9988 44.5799 56.3199 43.968 56.4869 43.1105C56.6466 42.2872 56.5739 41.7063 56.2686 41.3678C55.9631 41.0294 55.3521 40.8601 54.4354 40.8601H52.782L51.881 45.4963ZM55.3492 39.112C56.7451 39.112 57.7635 39.4784 58.4036 40.2111C59.0437 40.9439 59.2363 41.9666 58.981 43.2797C58.8759 43.8207 58.6981 44.3152 58.4478 44.7632C58.1972 45.2116 57.87 45.6216 57.4657 45.9933C56.9838 46.4442 56.4485 46.7655 55.8595 46.9569C55.2705 47.1488 54.5203 47.2444 53.6082 47.2444H51.5413L50.969 50.1895H48.5559L50.7089 39.112H55.3492Z" fill="white"/>
</g>
</g>
<defs>
<filter id="filter0_d_1_480" x="1.0976" y="14.9463" width="86.0266" height="66.1074" filterUnits="userSpaceOnUse" color-interpolation-filters="sRGB">
<feFlood flood-opacity="0" result="BackgroundImageFix"/>
<feColorMatrix in="SourceAlpha" type="matrix" values="0 0 0 0 0 0 0 0 0 0 0 0 0 0 0 0 0 0 127 0" result="hardAlpha"/>
<feOffset dy="4"/>
<feGaussianBlur stdDeviation="11"/>
<feComposite in2="hardAlpha" operator="out"/>
<feColorMatrix type="matrix" values="0 0 0 0 0.466667 0 0 0 0 0.482353 0 0 0 0 0.701961 0 0 0 1 0"/>
<feBlend mode="normal" in2="BackgroundImageFix" result="effect1_dropShadow_1_480"/>
<feBlend mode="normal" in="SourceGraphic" in2="effect1_dropShadow_1_480" result="shape"/>
</filter>
<radialGradient id="paint0_radial_1_480" cx="0" cy="0" r="1" gradientUnits="userSpaceOnUse" gradientTransform="translate(44 44) rotate(90) scale(42)">
<stop stop-color="#383C68"/>
<stop offset="1" stop-color="#242854"/>
</radialGradient>
<linearGradient id="paint1_linear_1_480" x1="44" y1="2" x2="44" y2="86" gradientUnits="userSpaceOnUse">
<stop stop-color="#515684"/>
<stop offset="1" stop-color="#0D1033"/>
</linearGradient>
<radialGradient id="paint2_radial_1_480" cx="0" cy="0" r="1" gradientUnits="userSpaceOnUse" gradientTransform="translate(35.714 36.8323) scale(27.5935)">
<stop stop-color="#AEB2D5"/>
<stop offset="0.3" stop-color="#AEB2D5"/>
<stop offset="0.75" stop-color="#484C89"/>
<stop offset="1" stop-color="#484C89"/>
</radialGradient>
</defs>
</svg>
