<svg width="88" height="91" viewBox="0 0 88 91" fill="none" xmlns="http://www.w3.org/2000/svg">
<rect x="1.25" y="1.25" width="85.5" height="85.5" rx="20.75" fill="url(#paint0_radial_1_489)" stroke="url(#paint1_linear_1_489)" stroke-width="1.5"/>
<g filter="url(#filter0_dd_1_489)">
<path d="M49.4769 42.1577L40.9792 44.9325L33.5864 48.1953L31.5182 48.7414C30.9914 49.2424 30.4391 49.7499 29.8418 50.2637C29.1866 50.8289 28.5764 51.3428 28.1075 51.7152C27.5873 52.1263 26.8165 52.8971 26.4247 53.3852C25.8402 54.1174 25.3778 54.8945 25.1786 55.4919C24.8253 56.571 24.9988 57.6629 25.6797 58.6714C26.5532 59.9559 28.2938 61.2662 30.3234 62.159C31.3576 62.6151 33.0982 63.1996 34.4085 63.5271C36.5858 64.0795 40.7994 64.6769 43.118 64.7668C43.5868 64.7861 44.2163 64.7861 44.242 64.7668C44.2934 64.7346 44.6531 64.0474 45.0707 63.1932C46.4966 60.2835 47.5242 57.5537 48.083 55.2222C48.417 53.8092 48.6803 51.9273 48.8536 49.6986C48.8987 49.0755 48.9179 46.988 48.8793 46.2814C48.8215 45.1253 48.7187 44.1876 48.5583 43.2691C48.5326 43.1342 48.5261 43.0121 48.539 43.0057C48.5646 42.9865 48.6417 42.9608 49.6886 42.6588L49.4768 42.1579V42.1578H49.4769V42.1577ZM47.5371 43.2947C47.6142 43.2947 47.8197 45.2665 47.871 46.5126C47.884 46.7759 47.8774 46.9494 47.8646 46.9494C47.8133 46.9494 46.7791 46.3392 46.0406 45.8768C45.3983 45.4721 44.178 44.6628 43.9853 44.5087C43.9209 44.4637 43.9273 44.4573 44.4541 44.2774C45.3468 43.9755 47.4665 43.2947 47.5371 43.2947ZM43.208 44.7206C43.2659 44.7206 43.4135 44.804 43.7668 45.0224C45.0899 45.851 46.8884 46.853 47.6591 47.1871C47.8967 47.2898 47.9224 47.2512 47.3765 47.6238C46.2075 48.4203 44.7494 49.2038 42.9638 49.9939C42.6491 50.1352 42.3858 50.2443 42.3794 50.2443C42.3666 50.2443 42.4051 50.0839 42.4564 49.8911C42.8867 48.2917 43.1309 46.6731 43.1438 45.3757C43.1502 44.7333 43.1502 44.7333 43.208 44.7142C43.1951 44.7206 43.2015 44.7206 43.208 44.7206ZM42.3153 45.061C42.3537 45.0995 42.328 46.5383 42.2766 46.93C42.161 47.8678 41.9812 48.7413 41.6858 49.7241C41.6152 49.9616 41.5508 50.1609 41.5381 50.1737C41.5123 50.2057 40.6323 49.3451 40.3433 49.0111C39.8423 48.433 39.4506 47.8549 39.1615 47.2897C39.0138 47.0007 38.7826 46.4355 38.8018 46.4162C38.9046 46.3456 42.2895 45.0353 42.3153 45.061ZM38.1145 46.7117C38.1209 46.7117 38.1273 46.7117 38.1338 46.7181C38.1466 46.7309 38.1917 46.8337 38.2302 46.9493C38.4357 47.5081 38.8981 48.3302 39.2964 48.857C39.7332 49.4351 40.3049 50.0516 40.78 50.4563C40.9343 50.5847 41.0755 50.7067 41.0947 50.726C41.1333 50.7646 41.1462 50.7581 40.0992 51.1564C38.8854 51.6188 37.5621 52.0813 36.0463 52.5694C35.6842 52.6861 35.3224 52.8039 34.961 52.9227C34.9031 52.942 34.9224 52.9098 35.0894 52.6465C35.8408 51.4711 36.9841 49.1653 37.6264 47.5338C37.7356 47.2512 37.8448 46.9686 37.8641 46.9044C37.8898 46.8144 37.9219 46.7823 38.0053 46.7373C38.0503 46.7246 38.0953 46.7117 38.1145 46.7117ZM36.8301 47.2448C36.8493 47.2577 36.5217 47.9449 36.2005 48.5743C35.5775 49.7883 34.8967 50.983 33.9846 52.4346C33.8305 52.685 33.6828 52.9163 33.6635 52.942C33.6314 52.987 33.6185 52.9741 33.5157 52.775C33.2974 52.3447 33.1175 51.7922 33.0211 51.2848C32.9247 50.7838 32.9441 49.9103 33.0533 49.3708C33.1367 48.9726 33.1304 48.9791 33.323 48.8827C34.1452 48.4652 36.8043 47.2191 36.8301 47.2448ZM47.9097 47.6945V47.9642C47.9097 49.3965 47.7555 51.3619 47.5306 52.7943C47.4921 53.0448 47.4599 53.2503 47.4536 53.2568C47.4536 53.2568 47.2673 53.2055 47.0489 53.1411C46.0855 52.8392 45.0386 52.396 44.0943 51.8759C43.4712 51.5354 42.5656 50.9765 42.5914 50.9508C42.5977 50.9445 42.8675 50.8032 43.1822 50.6361C44.4413 49.981 45.6487 49.2745 46.6956 48.5744C47.0875 48.311 47.6783 47.8872 47.8069 47.7715L47.9097 47.6945ZM31.9806 49.5955C32.0063 49.5955 31.9998 49.6469 31.9613 49.8782C31.9356 50.0452 31.9035 50.3535 31.8908 50.5654C31.8392 51.5032 31.9935 52.1969 32.4559 53.1475C32.5844 53.4108 32.6872 53.6292 32.6807 53.6356C32.6357 53.6742 28.3838 54.9203 27.0477 55.2864C26.6495 55.3955 26.3027 55.4919 26.2769 55.4982C26.232 55.5111 26.2256 55.5047 26.2448 55.3954C26.3926 54.4513 27.112 53.2181 28.1139 52.1775C28.7819 51.4839 29.3151 51.0793 30.2271 50.5589C30.8823 50.1865 31.8907 49.6277 31.9677 49.602C31.9678 49.5955 31.9742 49.5955 31.9806 49.5955ZM42.0005 51.3876C42.0069 51.3812 42.161 51.4647 42.3473 51.5739C43.7218 52.3703 45.6358 53.109 47.2672 53.4879L47.415 53.5201L47.2094 53.6356C46.3552 54.1109 43.5484 55.2799 40.6774 56.3526C40.2598 56.5067 39.8488 56.6609 39.7716 56.693C39.6945 56.725 39.6239 56.7443 39.6239 56.7379C39.6239 56.7314 39.7395 56.5066 39.8872 56.2305C40.69 54.7275 41.4994 52.897 41.9105 51.6252C41.962 51.5032 41.994 51.3941 42.0005 51.3876ZM40.9792 51.7216C40.9858 51.7282 40.9343 51.8629 40.87 52.0171C40.3113 53.3723 39.5789 54.8497 38.6412 56.5068C38.4036 56.9307 38.2045 57.2712 38.198 57.2712C38.1917 57.2712 37.9989 57.1555 37.7677 57.0142C36.4059 56.1792 35.1985 55.1515 34.4085 54.1559L34.2928 54.0146L34.8773 53.854C36.9712 53.2825 38.7503 52.6659 40.5167 51.908C40.7673 51.8052 40.9728 51.7216 40.9792 51.7216ZM47.3252 53.9375C47.3316 54.0853 47.004 55.4084 46.7342 56.3654C46.5094 57.1682 46.3166 57.7978 45.9634 58.9089C45.8093 59.3971 45.6745 59.8017 45.668 59.8017C45.6616 59.8017 45.6231 59.7953 45.5845 59.7825C43.6769 59.4355 41.9684 58.9538 40.3626 58.3116C39.913 58.1317 39.2707 57.8426 39.2322 57.8106C39.2194 57.7976 39.6048 57.6179 40.0929 57.4059C43.0154 56.1277 46.047 54.6761 47.0875 54.0531C47.2095 53.976 47.3058 53.9375 47.3252 53.9375ZM32.6743 54.4386C32.6872 54.4514 31.8714 55.6268 30.7281 57.2261C30.3299 57.7849 29.8675 58.44 29.6941 58.6841C29.5206 58.9282 29.2573 59.3136 29.1096 59.5448L28.8397 59.9623L28.5506 59.7183C28.2102 59.4356 27.6194 58.8319 27.356 58.4979C26.8036 57.8107 26.4311 57.0849 26.2834 56.4234C26.2127 56.115 26.2127 55.9608 26.2769 55.9416C26.3732 55.9159 28.0882 55.5113 29.694 55.1386C30.5868 54.9332 31.6208 54.6891 31.9934 54.5992C32.366 54.5091 32.6679 54.4386 32.6743 54.4386ZM33.4964 54.7533L33.7019 54.9845C34.6269 56.0186 35.5711 56.7831 36.7144 57.4509C36.9199 57.5666 37.0741 57.6693 37.0611 57.6759C37.0163 57.7079 33.0917 59.1016 31.2741 59.7311C30.2529 60.0907 29.4114 60.3798 29.4051 60.3798C29.3987 60.3798 29.3408 60.3413 29.2765 60.2963L29.1609 60.2128L29.3472 59.9431C29.9509 59.0695 30.7089 58.1125 32.3596 56.1214L33.4964 54.7533ZM38.622 58.4208C38.6284 58.4144 38.911 58.5171 39.2578 58.6457C40.0929 58.9604 40.7543 59.1594 41.6408 59.3843C42.7327 59.6605 44.3127 59.9303 45.2441 60.0073C45.3855 60.0201 45.4625 60.033 45.4368 60.0523C45.3918 60.078 44.4477 60.3927 43.754 60.6111C42.6491 60.9579 39.2771 61.9534 36.5281 62.7435C36.0207 62.8912 35.5839 63.0133 35.5582 63.0197C35.4941 63.0326 35.282 62.9747 35.282 62.949C35.282 62.9362 35.4362 62.7371 35.6225 62.5187C36.5473 61.4139 37.4659 60.1807 38.2302 59.0117C38.4421 58.6905 38.622 58.4272 38.622 58.4208ZM37.4915 58.453C37.4979 58.4594 37.0419 59.1915 36.2456 60.4504C35.9051 60.9835 35.5261 61.5873 35.3912 61.7993C35.2627 62.0048 35.07 62.326 34.9609 62.5058L34.7746 62.8334L34.6783 62.8077C34.447 62.7435 32.822 62.1718 32.3916 61.9984C31.8585 61.7864 31.3061 61.5295 30.895 61.3112C30.3813 61.0349 29.739 60.6238 29.7903 60.6111C29.8032 60.6047 30.6831 60.3669 31.7429 60.0779C34.5562 59.3135 36.1169 58.8704 37.1383 58.5493C37.3246 58.4914 37.4851 58.4464 37.4915 58.453ZM45.4881 60.3284H45.4945C45.5202 60.3927 44.4798 63.283 44.1007 64.195C44.0173 64.4005 43.9853 64.452 43.9402 64.4455C43.831 64.4392 42.3217 64.2272 41.4031 64.0923C39.8038 63.8482 37.119 63.3793 36.4446 63.2252L36.2905 63.1931L37.2474 62.9746C39.3028 62.5121 40.2919 62.2617 41.2939 61.9534C42.5593 61.568 43.8118 61.0863 45.0771 60.4954C45.2762 60.4054 45.4432 60.3348 45.4881 60.3284Z" fill="url(#paint2_linear_1_489)"/>
<path d="M40.7162 22.349C40.5749 22.3298 38.2946 23.1519 36.8238 23.7492C34.839 24.5586 33.2976 25.3294 32.347 25.9972C31.9938 26.2478 31.5505 26.691 31.4799 26.8644C31.4543 26.9286 31.4414 27.0057 31.4414 27.0827L32.3021 27.8985L34.351 28.5536L39.226 29.4272L44.8011 30.3842L44.859 29.9025C44.8398 29.9025 44.8268 29.8961 44.8077 29.8961L44.0753 29.7804L43.9277 29.5171C43.1698 28.1811 42.3348 26.5239 41.8467 25.4063C41.4677 24.5392 41.108 23.5373 40.9089 22.8179C40.7997 22.3812 40.7869 22.3555 40.7163 22.3491V22.3489H40.7162V22.349ZM40.6133 22.6766H40.6199C40.6262 22.683 40.6519 22.8629 40.6776 23.0748C40.7867 23.9741 40.986 24.8411 41.3007 25.7789C41.5383 26.4854 41.5383 26.4469 41.2621 26.3634C40.607 26.1836 37.6717 25.6762 35.5457 25.3807C35.2053 25.3357 34.9162 25.2908 34.9162 25.2844C34.8905 25.2587 36.4513 24.4429 37.1385 24.1219C38.0185 23.7171 40.4335 22.7087 40.6133 22.6766ZM34.4215 25.5541L34.6721 25.6375C36.0337 26.1 39.4571 26.7552 41.3456 26.9093C41.5575 26.9286 41.7374 26.9479 41.7437 26.9479C41.7501 26.9543 41.5704 27.0507 41.3391 27.1598C40.4271 27.6159 39.4251 28.1747 38.7314 28.6051C38.5259 28.7334 38.3396 28.8363 38.3139 28.8363C38.2882 28.8363 38.1534 28.8106 38.0121 28.7913L37.7552 28.7527L37.1129 28.1232C35.9825 27.0249 35.0961 26.1771 34.7556 25.8559L34.4215 25.5541ZM34.1647 25.7532L35.0703 26.8837C35.5649 27.5067 36.0659 28.1168 36.1752 28.2517C36.2842 28.3866 36.3742 28.4959 36.3678 28.5023C36.3421 28.5215 35.0576 28.271 34.3767 28.1169C33.6766 27.9563 33.3875 27.8792 32.9572 27.7444L32.6039 27.6287V27.5387C32.6103 27.1084 33.1563 26.4661 34.0812 25.811L34.1647 25.7532ZM41.8594 27.2947C41.8852 27.2947 41.9172 27.3525 41.9942 27.5259C42.2126 28.0076 42.8936 29.3051 43.0604 29.5556C43.112 29.6392 43.2017 29.6456 42.2962 29.4978C40.1189 29.1445 39.4187 29.029 39.4187 29.0161C39.4187 29.0097 39.4829 28.9647 39.5664 28.9198C40.2409 28.5473 40.9217 28.0719 41.5255 27.5645C41.6732 27.4425 41.8081 27.3269 41.8337 27.3075C41.8401 27.2947 41.853 27.2883 41.8594 27.2947Z" fill="url(#paint3_linear_1_489)"/>
<path d="M31.5249 26.7744C31.5249 26.7744 31.3837 26.9993 31.5185 27.3333C31.6021 27.5388 31.8461 27.7892 32.1223 28.0462C32.1223 28.0462 34.9805 30.8338 35.3274 31.232C36.9073 33.0561 37.5947 34.8546 37.6589 37.3339C37.6974 38.9268 37.3955 40.327 36.644 41.952C35.308 44.8681 32.4883 48.086 28.14 51.6572L28.7759 51.4452C29.187 51.1369 29.7458 50.8094 31.0561 50.09C34.0812 48.4328 37.4854 46.9105 41.6604 45.3434C47.6722 43.0824 57.5573 40.4361 63.1837 39.5755L63.7683 39.4855L63.6783 39.3442C63.1646 38.5477 62.8112 38.0532 62.3872 37.5265C61.1541 35.9978 59.6577 34.7583 57.827 33.7305C55.3092 32.324 52.0526 31.2257 47.9292 30.4099C47.152 30.2557 45.4435 29.9603 44.0561 29.7483C41.1144 29.2924 39.2132 28.9776 37.1193 28.6179C36.3679 28.4894 35.2438 28.2968 34.4987 28.1362C34.1133 28.0526 33.3748 27.8793 32.7967 27.6802C32.3343 27.5002 31.6662 27.3204 31.5249 26.7744ZM33.1821 28.3802C33.1885 28.3739 33.2912 28.4123 33.4262 28.4573C33.6702 28.5407 33.9849 28.6371 34.3576 28.7399C34.6395 28.8175 34.9221 28.8924 35.2054 28.9647C35.5908 29.061 35.9119 29.1509 35.9183 29.1509C35.9633 29.1959 36.612 31.2704 36.8304 32.0669C36.9138 32.3688 36.9782 32.6257 36.9717 32.6257C36.9651 32.6322 36.8946 32.523 36.8111 32.3752C36.0596 31.0521 34.8713 29.7097 33.4968 28.6306C33.317 28.5023 33.1821 28.3866 33.1821 28.3802ZM36.3422 29.2537C36.3744 29.2537 36.5157 29.273 36.689 29.3115C37.7809 29.5556 39.74 29.9281 40.9924 30.1401C41.2044 30.1722 41.3714 30.2108 41.3714 30.2236C41.3714 30.2365 41.2943 30.2814 41.1979 30.3328C40.986 30.442 40.1317 30.9493 39.8492 31.1421C39.1362 31.6174 38.4939 32.1312 38.0314 32.5936C37.8452 32.7799 37.6845 32.9341 37.6845 32.9341C37.6845 32.9341 37.6461 32.8249 37.6139 32.6899C37.3828 31.7971 36.901 30.474 36.4642 29.5427C36.3935 29.395 36.3357 29.2601 36.3357 29.2473C36.3357 29.2601 36.3357 29.2537 36.3422 29.2537ZM41.9045 30.3135C41.943 30.3263 42.0073 30.5447 42.1357 31.0264C42.3734 31.9578 42.4826 32.9983 42.4441 33.9682C42.4311 34.238 42.4183 34.4884 42.4054 34.5206L42.3862 34.5848L42.0522 34.4756C41.365 34.2573 40.2474 33.9296 39.2904 33.6599C38.7444 33.5122 38.3013 33.3773 38.3013 33.3645C38.3013 33.3259 39.0978 32.5294 39.4382 32.2276C40.0868 31.6559 41.8466 30.2942 41.9045 30.3135ZM42.3477 30.3777C42.367 30.3585 45.0068 30.8145 46.2079 31.0457C47.1008 31.2191 48.3982 31.4889 48.4752 31.5211C48.5138 31.5339 48.3788 31.6109 47.9485 31.8036C46.2529 32.568 44.9939 33.2552 43.7415 34.0902C43.414 34.3086 43.1377 34.4884 43.1313 34.4884C43.1249 34.4884 43.1185 34.3022 43.1185 34.0774C43.1185 32.8571 42.8744 31.6238 42.4247 30.5833C42.3798 30.4805 42.3412 30.3842 42.3477 30.3777ZM49.1753 31.7266C49.1946 31.7458 49.111 32.2662 49.034 32.5744C48.8028 33.5314 48.1798 34.951 47.4155 36.2869C47.2805 36.5246 47.1585 36.7173 47.1456 36.7237C47.1329 36.7301 46.9594 36.6337 46.7603 36.5181C46.0152 36.0813 45.1674 35.6703 44.2425 35.2849C43.9856 35.1757 43.7608 35.0857 43.7543 35.073C43.7093 35.0344 45.7775 33.6663 46.8695 33.0112C47.7366 32.4845 49.1496 31.7009 49.1753 31.7266ZM49.6634 31.8036C49.7213 31.8036 50.8903 32.1248 51.5003 32.3047C53.0098 32.7543 54.744 33.3901 55.8744 33.904L56.3432 34.116L56.0158 34.193C53.254 34.8288 50.8903 35.5612 48.61 36.486C48.4238 36.5631 48.2568 36.6274 48.244 36.6274C48.2311 36.6274 48.2954 36.4796 48.3789 36.2997C49.0661 34.8418 49.5093 33.3195 49.6184 32.022C49.625 31.8999 49.6441 31.8036 49.6634 31.8036ZM38.025 34.4756C38.0443 34.4563 38.9371 34.6683 39.4188 34.8031C40.151 35.0087 41.7053 35.5289 41.7053 35.5675C41.7053 35.5739 41.532 35.7216 41.3265 35.9015C40.4851 36.6016 39.6757 37.3402 38.7058 38.278C38.4168 38.5543 38.1728 38.779 38.16 38.779C38.147 38.779 38.1407 38.7404 38.147 38.6891C38.2948 37.61 38.2627 36.2226 38.0572 34.816C38.0378 34.6361 38.0186 34.482 38.025 34.4756ZM56.7866 34.4949C56.7993 34.5077 56.3755 35.1757 56.1057 35.5546C55.7204 36.107 55.155 36.8393 53.8768 38.4451C53.2026 39.2928 52.4445 40.2499 52.1941 40.571C51.9371 40.8922 51.7252 41.1619 51.7187 41.1619C51.7123 41.1619 51.6289 41.0463 51.539 40.9051C50.8196 39.826 49.9588 38.8818 48.9376 38.034C48.7449 37.8733 48.533 37.6999 48.4624 37.6485C48.3917 37.5972 48.3338 37.5458 48.3338 37.5394C48.3338 37.5202 49.4257 37.0512 50.2544 36.7173C51.706 36.1263 53.684 35.4198 55.1679 34.9637C55.9451 34.7197 56.7737 34.482 56.7866 34.4949ZM57.2811 34.6233C57.3067 34.6169 57.461 34.694 57.6472 34.8031C59.208 35.6959 60.7366 36.8457 61.9442 38.0275C62.2846 38.3616 63.126 39.2351 63.1131 39.2415C63.1131 39.2415 62.8177 39.2672 62.4709 39.2928C59.7668 39.4984 56.3049 40.07 52.9777 40.8728C52.753 40.9242 52.5539 40.9692 52.541 40.9692C52.5283 40.9692 52.7787 40.7187 53.0934 40.4168C55.046 38.5349 55.9388 37.3467 56.9921 35.227C57.1398 34.9124 57.2683 34.6426 57.2811 34.6233C57.2747 34.6233 57.2747 34.6233 57.2811 34.6233ZM42.9771 36.0878C43.0671 36.107 43.9021 36.499 44.5315 36.8136C45.1096 37.1025 45.9767 37.5651 46.0217 37.6036C46.0281 37.61 45.7197 37.7706 45.3409 37.9569C44.1333 38.5606 43.0992 39.1322 42.0201 39.7874C41.7118 39.9737 41.4549 40.1279 41.4485 40.1279C41.4228 40.1279 41.4292 40.1021 41.6026 39.7874C42.1807 38.7341 42.6431 37.4752 42.9066 36.2483C42.9321 36.152 42.9579 36.0878 42.9771 36.0878ZM42.1421 36.2419C42.1614 36.2612 41.943 37.0512 41.8082 37.4816C41.5448 38.2973 41.1016 39.3185 40.6713 40.0893C40.5684 40.2691 40.4143 40.5324 40.3308 40.6801L40.1703 40.937L39.8106 40.5903C39.3932 40.1856 39.0527 39.9351 38.616 39.7103C38.4425 39.6204 38.3076 39.5433 38.3076 39.5305C38.3076 39.4791 39.406 38.4836 40.2474 37.7642C40.8511 37.2439 42.1229 36.2227 42.1421 36.2419ZM47.2485 38.3423L47.5633 38.5478C48.2825 39.0167 49.1303 39.6397 49.7791 40.1856C50.1451 40.4874 50.8516 41.1234 50.9931 41.2775L51.07 41.3611L50.5499 41.5088C47.6081 42.3245 45.3344 43.0503 42.6817 44.0266C42.3862 44.1358 42.1357 44.2257 42.1164 44.2257C42.078 44.2257 42.0457 44.2578 42.7074 43.6476C44.4031 42.0869 45.906 40.3654 47.0236 38.689L47.2485 38.3423ZM45.9061 38.6763C45.9188 38.6891 45.0389 39.9287 44.5122 40.6288C43.8828 41.4638 42.7651 42.864 41.9944 43.776C41.6733 44.155 41.3972 44.4697 41.3843 44.4762C41.365 44.4826 41.3586 44.3862 41.3586 44.2385C41.3586 43.4613 41.1595 42.6327 40.8126 41.9262C40.6649 41.6308 40.6391 41.5601 40.6714 41.528C40.7934 41.4188 42.6624 40.3526 43.8442 39.7168C44.6407 39.2928 45.8866 38.6634 45.9061 38.6763ZM37.7873 40.6674C37.8066 40.6674 37.9544 40.7444 38.1214 40.8344C38.5324 41.0592 38.8986 41.3097 39.2261 41.5795C39.2389 41.5923 39.072 41.7272 38.8536 41.8877C38.2434 42.3245 37.3185 43.0246 36.7791 43.455C36.2137 43.9046 36.1946 43.9174 36.2587 43.8211C36.6827 43.1723 36.8946 42.8062 37.1194 42.3374C37.3185 41.9199 37.5176 41.4253 37.6589 40.995C37.7103 40.8087 37.7745 40.6674 37.7873 40.6674ZM39.952 42.363C39.984 42.3567 40.0226 42.4144 40.196 42.6714C40.5621 43.2172 40.8447 43.9495 40.9155 44.5404L40.9282 44.669L40.0483 45.0094C38.4746 45.6195 37.0231 46.2233 36.0403 46.6729C35.7641 46.8014 35.2824 47.0325 34.9677 47.1868C34.653 47.3473 34.3961 47.4693 34.3961 47.4629C34.3961 47.4565 34.5951 47.3088 34.8392 47.1289C36.7598 45.7352 38.4233 44.2064 39.6693 42.6778C39.8042 42.5172 39.9263 42.3694 39.939 42.363L39.952 42.363ZM38.9564 42.6071C38.9821 42.6328 38.2499 43.4613 37.7489 43.9687C36.5093 45.2341 35.2825 46.2233 33.7602 47.1868C33.5675 47.3088 33.3941 47.4179 33.3748 47.4309C33.3298 47.4565 33.3876 47.3923 34.0556 46.6665C34.4796 46.2104 34.8007 45.825 35.1668 45.3498C35.4109 45.0351 35.4558 44.9901 35.8092 44.7395C36.7534 44.0587 38.9307 42.5814 38.9564 42.6071Z" fill="url(#paint4_radial_1_489)"/>
</g>
<defs>
<filter id="filter0_dd_1_489" x="3.00018" y="4.34863" width="82.7681" height="86.4326" filterUnits="userSpaceOnUse" color-interpolation-filters="sRGB">
<feFlood flood-opacity="0" result="BackgroundImageFix"/>
<feColorMatrix in="SourceAlpha" type="matrix" values="0 0 0 0 0 0 0 0 0 0 0 0 0 0 0 0 0 0 127 0" result="hardAlpha"/>
<feOffset dy="4"/>
<feGaussianBlur stdDeviation="11"/>
<feComposite in2="hardAlpha" operator="out"/>
<feColorMatrix type="matrix" values="0 0 0 0 0.678431 0 0 0 0 0.117647 0 0 0 0 0.133333 0 0 0 1 0"/>
<feBlend mode="normal" in2="BackgroundImageFix" result="effect1_dropShadow_1_489"/>
<feColorMatrix in="SourceAlpha" type="matrix" values="0 0 0 0 0 0 0 0 0 0 0 0 0 0 0 0 0 0 127 0" result="hardAlpha"/>
<feOffset dy="4"/>
<feGaussianBlur stdDeviation="11"/>
<feComposite in2="hardAlpha" operator="out"/>
<feColorMatrix type="matrix" values="0 0 0 0 0.678431 0 0 0 0 0.117647 0 0 0 0 0.133333 0 0 0 1 0"/>
<feBlend mode="normal" in2="effect1_dropShadow_1_489" result="effect2_dropShadow_1_489"/>
<feBlend mode="normal" in="SourceGraphic" in2="effect2_dropShadow_1_489" result="shape"/>
</filter>
<radialGradient id="paint0_radial_1_489" cx="0" cy="0" r="1" gradientUnits="userSpaceOnUse" gradientTransform="translate(44 44) rotate(90) scale(42)">
<stop stop-color="#383C68"/>
<stop offset="1" stop-color="#242854"/>
</radialGradient>
<linearGradient id="paint1_linear_1_489" x1="44" y1="2" x2="44" y2="86" gradientUnits="userSpaceOnUse">
<stop stop-color="#515684"/>
<stop offset="1" stop-color="#0D1033"/>
</linearGradient>
<linearGradient id="paint2_linear_1_489" x1="31.3933" y1="60.5839" x2="34.466" y2="58.7682" gradientUnits="userSpaceOnUse">
<stop stop-color="#909CA9"/>
<stop offset="1" stop-color="#EDEDEE"/>
</linearGradient>
<linearGradient id="paint3_linear_1_489" x1="31.4639" y1="26.354" x2="33.9363" y2="26.354" gradientUnits="userSpaceOnUse">
<stop stop-color="#939FAB"/>
<stop offset="1" stop-color="#DCDEE1"/>
</linearGradient>
<radialGradient id="paint4_radial_1_489" cx="0" cy="0" r="1" gradientUnits="userSpaceOnUse" gradientTransform="translate(43.9398 37.6932) rotate(-171.457) scale(3.18761 6.37681)">
<stop stop-color="#EE352C"/>
<stop offset="1" stop-color="#A91D22"/>
</radialGradient>
</defs>
</svg>
