<svg width="88" height="88" viewBox="0 0 88 88" fill="none" xmlns="http://www.w3.org/2000/svg">
<rect x="1.25" y="1.25" width="85.5" height="85.5" rx="20.75" fill="url(#paint0_radial_1_481)" stroke="url(#paint1_linear_1_481)" stroke-width="1.5"/>
<g filter="url(#filter0_d_1_481)">
<path d="M43.3273 29.0002C42.1315 29.0058 40.9895 29.1078 39.9847 29.2856C37.0247 29.8085 36.4873 30.9031 36.4873 32.9216V35.5875H43.4822V36.4761H36.4873H33.8622C31.8293 36.4761 30.0492 37.698 29.4924 40.0225C28.8502 42.6869 28.8217 44.3495 29.4924 47.1315C29.9896 49.2023 31.1771 50.6779 33.21 50.6779H35.615V47.4821C35.615 45.1733 37.6126 43.1368 39.9847 43.1368H46.9715C48.9163 43.1368 50.4689 41.5354 50.4689 39.5822V32.9216C50.4689 31.026 48.8697 29.602 46.9715 29.2856C45.7699 29.0856 44.5231 28.9947 43.3273 29.0002ZM39.5445 31.1444C40.267 31.1444 40.8571 31.744 40.8571 32.4814C40.8571 33.2161 40.267 33.8102 39.5445 33.8102C38.8194 33.8102 38.232 33.2161 38.232 32.4814C38.232 31.744 38.8194 31.1444 39.5445 31.1444Z" fill="url(#paint2_linear_1_481)"/>
<path d="M51.3422 36.4756V39.5817C51.3422 41.9898 49.3006 44.0167 46.9725 44.0167H39.9857C38.0719 44.0167 36.4883 45.6546 36.4883 47.5712V54.2318C36.4883 56.1275 38.1367 57.2425 39.9857 57.7863C42.1999 58.4374 44.3232 58.5551 46.9725 57.7863C48.7334 57.2765 50.4699 56.2504 50.4699 54.2318V51.5659H43.4832V50.6773H50.4699H53.9673C56.0002 50.6773 56.7578 49.2593 57.4648 47.131C58.1951 44.9398 58.164 42.8327 57.4648 40.0219C56.9624 37.9982 56.0028 36.4756 53.9673 36.4756H51.3422ZM47.4127 53.3432C48.1378 53.3432 48.7253 53.9373 48.7253 54.6721C48.7253 55.4094 48.1378 56.0091 47.4127 56.0091C46.6902 56.0091 46.1001 55.4094 46.1001 54.6721C46.1001 53.9373 46.6902 53.3432 47.4127 53.3432Z" fill="url(#paint3_linear_1_481)"/>
</g>
<defs>
<filter id="filter0_d_1_481" x="9" y="13" width="69.0009" height="69.3198" filterUnits="userSpaceOnUse" color-interpolation-filters="sRGB">
<feFlood flood-opacity="0" result="BackgroundImageFix"/>
<feColorMatrix in="SourceAlpha" type="matrix" values="0 0 0 0 0 0 0 0 0 0 0 0 0 0 0 0 0 0 127 0" result="hardAlpha"/>
<feOffset dy="4"/>
<feGaussianBlur stdDeviation="10"/>
<feComposite in2="hardAlpha" operator="out"/>
<feColorMatrix type="matrix" values="0 0 0 0 1 0 0 0 0 0.878431 0 0 0 0 0.364706 0 0 0 1 0"/>
<feBlend mode="normal" in2="BackgroundImageFix" result="effect1_dropShadow_1_481"/>
<feBlend mode="normal" in="SourceGraphic" in2="effect1_dropShadow_1_481" result="shape"/>
</filter>
<radialGradient id="paint0_radial_1_481" cx="0" cy="0" r="1" gradientUnits="userSpaceOnUse" gradientTransform="translate(44 44) rotate(90) scale(42)">
<stop stop-color="#383C68"/>
<stop offset="1" stop-color="#242854"/>
</radialGradient>
<linearGradient id="paint1_linear_1_481" x1="44" y1="2" x2="44" y2="86" gradientUnits="userSpaceOnUse">
<stop stop-color="#515684"/>
<stop offset="1" stop-color="#0D1033"/>
</linearGradient>
<linearGradient id="paint2_linear_1_481" x1="29" y1="29" x2="45.1294" y2="42.7445" gradientUnits="userSpaceOnUse">
<stop stop-color="#5A9FD4"/>
<stop offset="1" stop-color="#306998"/>
</linearGradient>
<linearGradient id="paint3_linear_1_481" x1="47.2446" y1="54.4479" x2="41.458" y2="46.3391" gradientUnits="userSpaceOnUse">
<stop stop-color="#FFD43B"/>
<stop offset="1" stop-color="#FFE873"/>
</linearGradient>
</defs>
</svg>
