<svg width="88" height="88" viewBox="0 0 88 88" fill="none" xmlns="http://www.w3.org/2000/svg">
<rect x="1.25" y="1.25" width="85.5" height="85.5" rx="20.75" fill="url(#paint0_radial_1_479)" stroke="url(#paint1_linear_1_479)" stroke-width="1.5"/>
<g filter="url(#filter0_ddd_1_479)">
<path d="M43.5142 55.9418C43.3906 55.9418 43.2678 55.9094 43.1594 55.847L42.0301 55.1784C41.8614 55.0841 41.9437 55.0507 41.9994 55.0315C42.2243 54.9527 42.2699 54.9349 42.51 54.7986C42.5352 54.7842 42.5682 54.7893 42.594 54.8045L43.4617 55.3194C43.493 55.3363 43.5374 55.3363 43.5665 55.3194L46.9494 53.3667C46.9807 53.3489 47.001 53.3125 47.001 53.2752V49.3716C47.001 49.3326 46.9807 49.2979 46.9487 49.2785L43.5672 47.3275C43.5358 47.3088 43.4943 47.3088 43.463 47.3275L40.0822 49.2785C40.0494 49.2971 40.0286 49.3335 40.0286 49.3708V53.2744C40.0286 53.3117 40.0489 53.3472 40.0811 53.365L41.0074 53.9002C41.5104 54.1517 41.8178 53.8553 41.8178 53.5572V49.7044C41.8178 49.6493 41.861 49.607 41.916 49.607H42.3445C42.3978 49.607 42.4419 49.6493 42.4419 49.7044V53.5589C42.4419 54.2296 42.0761 54.6149 41.4401 54.6149C41.2445 54.6149 41.0904 54.6149 40.6603 54.4032L39.7728 53.8917C39.5535 53.7647 39.418 53.5276 39.418 53.2744V49.3708C39.418 49.1167 39.5535 48.8796 39.7728 48.7543L43.1591 46.8008C43.3733 46.6797 43.6579 46.6797 43.8704 46.8008L47.2524 48.7551C47.4709 48.8813 47.6072 49.1176 47.6072 49.3716V53.2752C47.6072 53.5284 47.4709 53.7647 47.2524 53.8917L43.8704 55.8452C43.762 55.9079 43.6392 55.9401 43.5139 55.9401" fill="#689F63"/>
<path d="M44.5597 53.2515C43.0796 53.2515 42.7692 52.572 42.7692 52.0022C42.7692 51.948 42.8129 51.9048 42.8672 51.9048H43.3041C43.3524 51.9048 43.393 51.9399 43.4007 51.9876C43.4667 52.4328 43.6632 52.6574 44.5582 52.6574C45.2712 52.6574 45.5743 52.4963 45.5743 52.1182C45.5743 51.9006 45.488 51.7389 44.3804 51.6305C43.454 51.5391 42.8816 51.335 42.8816 50.594C42.8816 49.9115 43.4574 49.5051 44.4219 49.5051C45.5049 49.5051 46.0418 49.8811 46.1095 50.6889C46.112 50.7168 46.1019 50.7439 46.0832 50.7642C46.0646 50.7837 46.0384 50.7956 46.0113 50.7956H45.5718C45.5261 50.7956 45.4863 50.7634 45.477 50.7194C45.3711 50.2511 45.1154 50.1012 44.4202 50.1012C43.642 50.1012 43.5514 50.3722 43.5514 50.5754C43.5514 50.8218 43.6581 50.8938 44.7081 51.0327C45.7479 51.1707 46.2416 51.3655 46.2416 52.0962C46.2416 52.8329 45.6268 53.2555 44.5548 53.2555M48.6752 49.1156H48.7887C48.8819 49.1156 48.8996 49.0504 48.8996 49.0123C48.8996 48.9123 48.831 48.9123 48.7929 48.9123H48.6761L48.6752 49.1156ZM48.5372 48.7955H48.7887C48.8751 48.7955 49.0444 48.7955 49.0444 48.9886C49.0444 49.1232 48.9581 49.1511 48.9064 49.1681C49.0072 49.1748 49.0139 49.2409 49.0275 49.334C49.0343 49.3925 49.0453 49.4932 49.0656 49.5271H48.9106C48.9064 49.4932 48.8827 49.3069 48.8827 49.2968C48.8725 49.2553 48.8581 49.235 48.8065 49.235H48.6786V49.528H48.5372V48.7955ZM48.2349 49.1596C48.2349 49.4628 48.4796 49.7083 48.7802 49.7083C49.0834 49.7083 49.3281 49.4577 49.3281 49.1596C49.3281 48.8556 49.08 48.6143 48.7794 48.6143C48.483 48.6143 48.2341 48.8522 48.2341 49.1588M49.4331 49.1613C49.4331 49.5203 49.1393 49.8133 48.7811 49.8133C48.4254 49.8133 48.1291 49.5237 48.1291 49.1613C48.1291 48.7921 48.4322 48.5093 48.7811 48.5093C49.1325 48.5093 49.4323 48.7929 49.4323 49.1613" fill="#689F63"/>
<path fill-rule="evenodd" clip-rule="evenodd" d="M33.039 40.6676C33.039 40.5118 32.9568 40.3687 32.8224 40.2912L29.2358 38.2276C29.1752 38.192 29.1074 38.1734 29.0386 38.1708H29.0015C28.9328 38.1734 28.865 38.192 28.8034 38.2276L25.2169 40.2912C25.0833 40.3691 25 40.5122 25 40.668L25.0079 46.2262C25.0079 46.3033 25.0477 46.3753 25.1154 46.4134C25.1815 46.454 25.2644 46.454 25.3305 46.4134L27.4627 45.1923C27.5973 45.1122 27.6795 44.9706 27.6795 44.8164V42.2197C27.6795 42.0647 27.7616 41.9216 27.8958 41.8446L28.8036 41.3218C28.871 41.2828 28.945 41.2635 29.0203 41.2635C29.0945 41.2635 29.1702 41.2827 29.2358 41.3217L30.1431 41.8443C30.2774 41.9214 30.3599 42.0645 30.3599 42.2195V44.8159C30.3599 44.97 30.4431 45.1123 30.5771 45.1919L32.7079 46.4121C32.7748 46.4519 32.858 46.4519 32.9247 46.4121C32.9904 46.374 33.032 46.302 33.032 46.225L33.039 40.6676ZM49.9634 43.5615C49.9634 43.6002 49.9428 43.636 49.9092 43.6552L48.6773 44.3653C48.6438 44.3845 48.6025 44.3845 48.5692 44.3653L47.3371 43.6552C47.3032 43.6359 47.2829 43.6001 47.2829 43.5615V42.1393C47.2829 42.1005 47.3032 42.0647 47.3362 42.0453L48.5675 41.334C48.6013 41.3145 48.6428 41.3145 48.6767 41.334L49.9088 42.0453C49.9426 42.0647 49.963 42.1005 49.963 42.1393L49.9634 43.5615ZM50.2962 33.0274C50.2289 32.99 50.1471 32.991 50.0807 33.0297C50.0147 33.0687 49.9739 33.1398 49.9739 33.2168V38.7209C49.9739 38.7751 49.9451 38.8251 49.8982 38.8522C49.8516 38.8793 49.7936 38.8793 49.7466 38.8522L48.8482 38.3347C48.7144 38.2573 48.5496 38.2573 48.4153 38.3347L44.8275 40.4053C44.6934 40.4824 44.6107 40.6255 44.6107 40.7796V44.922C44.6107 45.077 44.6934 45.2193 44.8275 45.2972L48.4153 47.3692C48.5493 47.4463 48.7142 47.4463 48.8486 47.3692L52.4364 45.2963C52.5702 45.2184 52.6532 45.0761 52.6532 44.9212V34.5973C52.6532 34.4401 52.5676 34.2956 52.4305 34.2188L50.2962 33.0274ZM62.2436 42.1018C62.3769 42.0244 62.4589 41.8815 62.4589 41.7274V40.7235C62.4589 40.569 62.3768 40.4265 62.2433 40.3488L58.6783 38.2792C58.5437 38.2013 58.3786 38.2013 58.2439 38.2792L54.657 40.3496C54.5223 40.4275 54.4402 40.5698 54.4402 40.7247V44.8655C54.4402 45.0213 54.524 45.1652 54.6587 45.2423L58.2228 47.2737C58.354 47.3491 58.5149 47.3499 58.6479 47.2762L60.8037 46.0781C60.8715 46.04 60.9147 45.968 60.9147 45.8901C60.9147 45.8122 60.8732 45.7393 60.8054 45.7012L57.1965 43.63C57.1287 43.5919 57.0872 43.5199 57.0872 43.4429V42.1439C57.0872 42.0664 57.1279 41.9949 57.1956 41.9563L58.3185 41.3085C58.3853 41.2695 58.4675 41.2695 58.5344 41.3085L59.6581 41.9563C59.725 41.9944 59.7664 42.0664 59.7664 42.1434V43.1646C59.7664 43.2417 59.8079 43.3137 59.8748 43.3526C59.9417 43.3907 60.0247 43.3907 60.0916 43.3518L62.2436 42.1018Z" fill="white"/>
<path fill-rule="evenodd" clip-rule="evenodd" d="M58.4091 41.9082C58.4345 41.8932 58.4663 41.8932 58.492 41.9082L59.1805 42.3054C59.2062 42.3203 59.222 42.3477 59.222 42.3773V43.1725C59.222 43.2021 59.2062 43.2295 59.1805 43.2444L58.492 43.6416C58.4663 43.6566 58.4345 43.6566 58.4091 43.6416L57.721 43.2444C57.6948 43.2295 57.6787 43.2021 57.6787 43.1725V42.3773C57.6787 42.3477 57.694 42.3203 57.7202 42.3054L58.4091 41.9082Z" fill="#689F63"/>
<mask id="mask0_1_479" style="mask-type:luminance" maskUnits="userSpaceOnUse" x="34" y="38" width="9" height="10">
<path d="M38.6094 38.2993L35.0419 40.3584C34.9083 40.4354 34.8263 40.5777 34.8263 40.7315V44.8526C34.8263 45.0064 34.9083 45.1486 35.0419 45.2257L38.6096 47.2864C38.743 47.3632 38.9075 47.3632 39.0407 47.2864L42.6078 45.2257C42.7407 45.1486 42.8229 45.0064 42.8229 44.8526V40.7315C42.8229 40.5777 42.7407 40.4354 42.607 40.3584L39.0403 38.2993C38.9734 38.2609 38.8989 38.2417 38.8244 38.2417C38.7499 38.2417 38.6754 38.2609 38.6085 38.2993" fill="white"/>
</mask>
<g mask="url(#mask0_1_479)">
<path d="M46.4277 40.0085L36.3751 35.0811L31.2208 45.5958L41.2731 50.5235L46.4277 40.0085Z" fill="url(#paint2_linear_1_479)"/>
</g>
<mask id="mask1_1_479" style="mask-type:luminance" maskUnits="userSpaceOnUse" x="34" y="38" width="9" height="10">
<path d="M34.915 45.1147C34.9491 45.159 34.9918 45.1974 35.042 45.2262L38.1023 46.9938L38.612 47.2868C38.6882 47.3308 38.7751 47.3495 38.8605 47.3431C38.8889 47.3408 38.9174 47.3355 38.9451 47.3276L42.7077 40.4382C42.6789 40.4069 42.6452 40.3807 42.6075 40.3586L40.2715 39.0097L39.0368 38.2993C39.0017 38.279 38.9637 38.2646 38.925 38.2544L34.915 45.1147Z" fill="white"/>
</mask>
<g mask="url(#mask1_1_479)">
<path d="M30.569 41.4666L37.6671 51.0736L47.0545 44.138L39.9559 34.5312L30.569 41.4666Z" fill="url(#paint3_linear_1_479)"/>
</g>
<mask id="mask2_1_479" style="mask-type:luminance" maskUnits="userSpaceOnUse" x="35" y="38" width="8" height="10">
<path d="M38.7819 38.2448C38.722 38.2507 38.6635 38.2693 38.6095 38.3L35.0522 40.3532L38.8881 47.3399C38.9415 47.3323 38.994 47.3145 39.0414 47.2871L42.6089 45.2264C42.719 45.1625 42.7943 45.0545 42.8172 44.932L38.9068 38.2518C38.878 38.2461 38.8492 38.2432 38.8195 38.2432C38.8077 38.2432 38.7958 38.2438 38.784 38.2449" fill="white"/>
</mask>
<g mask="url(#mask2_1_479)">
<path d="M35.0517 38.2432V47.3401H42.8152V38.2432H35.0517Z" fill="url(#paint4_linear_1_479)"/>
</g>
</g>
<defs>
<filter id="filter0_ddd_1_479" x="3" y="15" width="81.459" height="66.9419" filterUnits="userSpaceOnUse" color-interpolation-filters="sRGB">
<feFlood flood-opacity="0" result="BackgroundImageFix"/>
<feColorMatrix in="SourceAlpha" type="matrix" values="0 0 0 0 0 0 0 0 0 0 0 0 0 0 0 0 0 0 127 0" result="hardAlpha"/>
<feOffset dy="4"/>
<feGaussianBlur stdDeviation="11"/>
<feComposite in2="hardAlpha" operator="out"/>
<feColorMatrix type="matrix" values="0 0 0 0 0.423529 0 0 0 0 0.643137 0 0 0 0 0.368627 0 0 0 1 0"/>
<feBlend mode="normal" in2="BackgroundImageFix" result="effect1_dropShadow_1_479"/>
<feColorMatrix in="SourceAlpha" type="matrix" values="0 0 0 0 0 0 0 0 0 0 0 0 0 0 0 0 0 0 127 0" result="hardAlpha"/>
<feOffset dy="4"/>
<feGaussianBlur stdDeviation="11"/>
<feComposite in2="hardAlpha" operator="out"/>
<feColorMatrix type="matrix" values="0 0 0 0 0.423529 0 0 0 0 0.643137 0 0 0 0 0.368627 0 0 0 1 0"/>
<feBlend mode="normal" in2="effect1_dropShadow_1_479" result="effect2_dropShadow_1_479"/>
<feColorMatrix in="SourceAlpha" type="matrix" values="0 0 0 0 0 0 0 0 0 0 0 0 0 0 0 0 0 0 127 0" result="hardAlpha"/>
<feOffset dy="4"/>
<feGaussianBlur stdDeviation="10"/>
<feComposite in2="hardAlpha" operator="out"/>
<feColorMatrix type="matrix" values="0 0 0 0 0.423529 0 0 0 0 0.643137 0 0 0 0 0.368627 0 0 0 1 0"/>
<feBlend mode="normal" in2="effect2_dropShadow_1_479" result="effect3_dropShadow_1_479"/>
<feBlend mode="normal" in="SourceGraphic" in2="effect3_dropShadow_1_479" result="shape"/>
</filter>
<radialGradient id="paint0_radial_1_479" cx="0" cy="0" r="1" gradientUnits="userSpaceOnUse" gradientTransform="translate(44 44) rotate(90) scale(42)">
<stop stop-color="#383C68"/>
<stop offset="1" stop-color="#242854"/>
</radialGradient>
<linearGradient id="paint1_linear_1_479" x1="44" y1="2" x2="44" y2="86" gradientUnits="userSpaceOnUse">
<stop stop-color="#515684"/>
<stop offset="1" stop-color="#0D1033"/>
</linearGradient>
<linearGradient id="paint2_linear_1_479" x1="41.3984" y1="37.537" x2="36.2444" y2="48.0511" gradientUnits="userSpaceOnUse">
<stop offset="0.3" stop-color="#3E863D"/>
<stop offset="0.5" stop-color="#55934F"/>
<stop offset="0.8" stop-color="#5AAD45"/>
</linearGradient>
<linearGradient id="paint3_linear_1_479" x1="34.1606" y1="46.3252" x2="43.5483" y2="39.3887" gradientUnits="userSpaceOnUse">
<stop offset="0.57" stop-color="#3E863D"/>
<stop offset="0.72" stop-color="#619857"/>
<stop offset="1" stop-color="#76AC64"/>
</linearGradient>
<linearGradient id="paint4_linear_1_479" x1="35.0543" y1="42.7919" x2="42.8167" y2="42.7919" gradientUnits="userSpaceOnUse">
<stop offset="0.16" stop-color="#6BBF47"/>
<stop offset="0.38" stop-color="#79B461"/>
<stop offset="0.47" stop-color="#75AC64"/>
<stop offset="0.7" stop-color="#659E5A"/>
<stop offset="0.9" stop-color="#3E863D"/>
</linearGradient>
</defs>
</svg>
