<svg width="88" height="88" viewBox="0 0 88 88" fill="none" xmlns="http://www.w3.org/2000/svg">
<rect x="1.25" y="1.25" width="85.5" height="85.5" rx="20.75" fill="url(#paint0_radial_1_487)" stroke="url(#paint1_linear_1_487)" stroke-width="1.5"/>
<g filter="url(#filter0_dd_1_487)">
<path d="M39.8355 41.1876L48.4596 45.1167L57.1504 37.4915C57.2788 36.8616 57.3402 36.2198 57.3335 35.5769C57.335 33.5015 56.6717 31.4802 55.441 29.8091C54.2102 28.138 52.4766 26.905 50.4942 26.2907C48.5118 25.6765 46.3847 25.7132 44.4247 26.3956C42.4647 27.078 40.7747 28.3702 39.6024 30.0828L38.154 37.5914L39.8355 41.1876Z" fill="#FED10A"/>
<path d="M30.9115 50.3113C30.783 50.9525 30.7217 51.6053 30.7283 52.2592C30.7309 54.3432 31.4009 56.3716 32.6402 58.0471C33.8795 59.7226 35.6229 60.9571 37.6149 61.5695C39.6069 62.182 41.7426 62.1403 43.7092 61.4506C45.6758 60.7608 47.3697 59.4593 48.5426 57.7367L49.9744 50.2614L48.0598 46.5986L39.4024 42.6528L30.9115 50.3113Z" fill="#24BBB1"/>
<path d="M30.8618 35.3939L36.7722 36.7924L38.0708 30.0829C37.269 29.4691 36.2896 29.1321 35.2799 29.1228C34.2702 29.1134 33.2847 29.4322 32.4717 30.0311C31.6588 30.63 31.0623 31.4767 30.7719 32.4439C30.4816 33.411 30.5131 34.4463 30.8618 35.3939Z" fill="#EF5098"/>
<path d="M30.3457 36.8091C29.0669 37.2287 27.9497 38.0344 27.1477 39.1151C26.3457 40.1959 25.8984 41.4987 25.8674 42.8442C25.8364 44.1896 26.2231 45.5117 26.9744 46.6283C27.7257 47.7449 28.8046 48.6012 30.0626 49.0793L38.3538 41.5873L36.8387 38.3408L30.3457 36.8091Z" fill="#17A8E0"/>
<path d="M50.0415 57.7363C50.8438 58.3427 51.8207 58.6734 52.8264 58.6791C53.8321 58.6847 54.8126 58.3649 55.6216 57.7675C56.4307 57.1701 57.0248 56.3271 57.3154 55.3643C57.6059 54.4015 57.5773 53.3705 57.2339 52.4253L51.3402 51.0435L50.0415 57.7363Z" fill="#93C83E"/>
<path d="M51.2401 49.4954L57.7331 51.0105C59.0119 50.5908 60.1291 49.7852 60.9311 48.7044C61.7331 47.6236 62.1804 46.3209 62.2114 44.9754C62.2424 43.6299 61.8557 42.3079 61.1044 41.1913C60.3531 40.0747 59.2742 39.2184 58.0162 38.7402L49.5252 46.1823L51.2401 49.4954Z" fill="#0779A1"/>
</g>
<defs>
<filter id="filter0_dd_1_487" x="3.86566" y="7.85547" width="80.3475" height="80.145" filterUnits="userSpaceOnUse" color-interpolation-filters="sRGB">
<feFlood flood-opacity="0" result="BackgroundImageFix"/>
<feColorMatrix in="SourceAlpha" type="matrix" values="0 0 0 0 0 0 0 0 0 0 0 0 0 0 0 0 0 0 127 0" result="hardAlpha"/>
<feOffset dy="4"/>
<feGaussianBlur stdDeviation="11"/>
<feComposite in2="hardAlpha" operator="out"/>
<feColorMatrix type="matrix" values="0 0 0 0 0.937255 0 0 0 0 0.313726 0 0 0 0 0.596078 0 0 0 1 0"/>
<feBlend mode="normal" in2="BackgroundImageFix" result="effect1_dropShadow_1_487"/>
<feColorMatrix in="SourceAlpha" type="matrix" values="0 0 0 0 0 0 0 0 0 0 0 0 0 0 0 0 0 0 127 0" result="hardAlpha"/>
<feOffset dy="4"/>
<feGaussianBlur stdDeviation="11"/>
<feComposite in2="hardAlpha" operator="out"/>
<feColorMatrix type="matrix" values="0 0 0 0 0.996078 0 0 0 0 0.819608 0 0 0 0 0.0392157 0 0 0 0.4 0"/>
<feBlend mode="normal" in2="effect1_dropShadow_1_487" result="effect2_dropShadow_1_487"/>
<feBlend mode="normal" in="SourceGraphic" in2="effect2_dropShadow_1_487" result="shape"/>
</filter>
<radialGradient id="paint0_radial_1_487" cx="0" cy="0" r="1" gradientUnits="userSpaceOnUse" gradientTransform="translate(44 44) rotate(90) scale(42)">
<stop stop-color="#383C68"/>
<stop offset="1" stop-color="#242854"/>
</radialGradient>
<linearGradient id="paint1_linear_1_487" x1="44" y1="2" x2="44" y2="86" gradientUnits="userSpaceOnUse">
<stop stop-color="#515684"/>
<stop offset="1" stop-color="#0D1033"/>
</linearGradient>
</defs>
</svg>
