<svg width="88" height="88" viewBox="0 0 88 88" fill="none" xmlns="http://www.w3.org/2000/svg">
<rect x="1.25" y="1.25" width="85.5" height="85.5" rx="20.75" fill="url(#paint0_radial_1_496)" stroke="url(#paint1_linear_1_496)" stroke-width="1.5"/>
<path d="M65.4667 33H23V54H44.4667" fill="url(#paint2_linear_1_496)"/>
<path d="M44.0001 37.1999V47.0933L40.3601 37.1999H36.7201L33.6401 45.4133C33.2667 43.3599 31.1201 42.6133 29.4401 42.0533C28.3201 41.6799 27.1067 41.2133 27.1067 40.5599C27.1067 40.0933 27.7601 39.6266 28.9734 39.7199C29.8134 39.8133 30.5601 39.8133 32.0534 40.5599L33.5467 38.0399C32.1467 37.2933 30.2801 36.9199 28.7867 36.9199C27.0134 36.9199 25.5201 37.4799 24.5867 38.4133C23.9334 39.0666 23.6534 39.9066 23.5601 40.8399C23.5601 42.1466 24.0267 43.0799 25.0534 43.8266C25.8934 44.3866 26.9201 44.7599 27.8534 45.0399C29.0667 45.4133 30.0001 45.7866 30.0001 46.4399C29.9067 47.2799 28.9734 47.4666 28.3201 47.4666C27.2001 47.5599 26.2667 47.3733 24.8667 46.5333L23.5601 49.0533C24.9601 49.8933 26.4534 50.2666 28.2267 50.2666C29.4401 50.2666 31.3067 49.8933 32.3334 48.9599L32.1467 49.7999H35.6934L36.3467 48.2133C37.7467 48.5866 39.3334 48.6799 40.7334 48.2133L41.2001 49.7999H47.5467V46.0666H48.8534C52.1201 46.0666 54.0801 44.4799 54.0801 41.6799C54.0801 38.5066 52.2134 37.1999 48.2001 37.1999H44.0001ZM37.1867 45.4133L38.4934 41.2133H38.5867L39.8934 45.4133C38.9601 45.6933 38.0267 45.6933 37.1867 45.4133ZM47.5467 43.2666V39.9066H48.4801C49.6934 39.9066 50.6267 40.2799 50.6267 41.4933C50.6267 42.7999 49.6934 43.2666 48.4801 43.2666H47.5467Z" fill="white"/>
<defs>
<radialGradient id="paint0_radial_1_496" cx="0" cy="0" r="1" gradientUnits="userSpaceOnUse" gradientTransform="translate(44 44) rotate(90) scale(42)">
<stop stop-color="#383C68"/>
<stop offset="1" stop-color="#242854"/>
</radialGradient>
<linearGradient id="paint1_linear_1_496" x1="44" y1="2" x2="44" y2="86" gradientUnits="userSpaceOnUse">
<stop stop-color="#515684"/>
<stop offset="1" stop-color="#0D1033"/>
</linearGradient>
<linearGradient id="paint2_linear_1_496" x1="23" y1="33" x2="23" y2="54" gradientUnits="userSpaceOnUse">
<stop stop-color="#00AAEE"/>
<stop offset="1" stop-color="#0055AA"/>
</linearGradient>
</defs>
</svg>
