<svg width="88" height="88" viewBox="0 0 88 88" fill="none" xmlns="http://www.w3.org/2000/svg">
<rect x="1.25" y="1.25" width="85.5" height="85.5" rx="20.75" fill="url(#paint0_radial_1_484)" stroke="url(#paint1_linear_1_484)" stroke-width="1.5"/>
<g filter="url(#filter0_d_1_484)">
<path d="M52.4346 35.3138C51.9024 32.9223 50.4167 30.9202 48.3671 29.7127L49.9854 26.8922C50.149 26.6068 50.0507 26.2431 49.7652 26.079C49.4802 25.9162 49.1166 26.0137 48.9525 26.2992L47.3003 29.1785C46.2271 28.7294 45.0386 28.4791 43.7751 28.4791C42.5116 28.4791 41.3235 28.7298 40.2502 29.1785L38.5981 26.2992C38.4344 26.0141 38.0704 25.9154 37.7849 26.079C37.4999 26.2427 37.4011 26.6068 37.5648 26.8922L39.1831 29.7131C37.1334 30.9206 35.6478 32.9231 35.1156 35.3147C34.9777 35.9339 35.4603 36.5201 36.0945 36.5201H51.4557C52.0903 36.5193 52.5724 35.9331 52.4346 35.3138Z" fill="#3DDC84"/>
<path d="M47.8448 33.9991C47.438 33.9991 47.1082 33.6693 47.1082 33.2629C47.1082 32.8562 47.438 32.5264 47.8444 32.5264C48.2512 32.5264 48.581 32.8562 48.581 33.2625C48.581 33.6689 48.2516 33.9987 47.8448 33.9991Z" fill="white"/>
<path d="M39.7051 33.9991C39.2984 33.9991 38.9686 33.6693 38.9686 33.2629C38.9686 32.8562 39.2984 32.5264 39.7047 32.5264C40.1115 32.5264 40.4413 32.8562 40.4413 33.2625C40.4409 33.6693 40.1115 33.9987 39.7051 33.9991Z" fill="white"/>
<path d="M49.0397 54.6499H38.5107C36.5344 54.6499 34.9323 53.0478 34.9323 51.0715V39.3907C34.9323 38.9589 35.2822 38.6094 35.7136 38.6094H51.8364C52.2682 38.6094 52.6177 38.9593 52.6177 39.3907V51.0715C52.6181 53.0478 51.0159 54.6499 49.0397 54.6499Z" fill="#3DDC84"/>
<path d="M31.0976 52.5112C29.939 52.5112 29 51.5722 29 50.4135V40.707C29 39.5487 29.939 38.6094 31.0976 38.6094C32.2559 38.6094 33.1953 39.5483 33.1953 40.707V50.4135C33.1949 51.5718 32.2559 52.5112 31.0976 52.5112Z" fill="#3DDC84"/>
<path d="M56.4524 52.5112C55.2937 52.5112 54.3547 51.5722 54.3547 50.4135V40.707C54.3547 39.5487 55.2937 38.6094 56.4524 38.6094C57.6107 38.6094 58.55 39.5483 58.55 40.707V50.4135C58.55 51.5718 57.6111 52.5112 56.4524 52.5112Z" fill="#3DDC84"/>
<path d="M47.3182 62.2841C46.1595 62.2841 45.2206 61.3452 45.2206 60.1865V50.48C45.2206 49.3217 46.1595 48.3823 47.3182 48.3823C48.4765 48.3823 49.4159 49.3213 49.4159 50.48V60.1865C49.4159 61.3452 48.4769 62.2841 47.3182 62.2841Z" fill="#3DDC84"/>
<path d="M40.2318 62.2841C39.0731 62.2841 38.1342 61.3452 38.1342 60.1865V50.48C38.1342 49.3217 39.0731 48.3823 40.2318 48.3823C41.3901 48.3823 42.3294 49.3213 42.3294 50.48V60.1865C42.3294 61.3452 41.3901 62.2841 40.2318 62.2841Z" fill="#3DDC84"/>
</g>
<defs>
<filter id="filter0_d_1_484" x="9" y="10" width="69.55" height="76.2842" filterUnits="userSpaceOnUse" color-interpolation-filters="sRGB">
<feFlood flood-opacity="0" result="BackgroundImageFix"/>
<feColorMatrix in="SourceAlpha" type="matrix" values="0 0 0 0 0 0 0 0 0 0 0 0 0 0 0 0 0 0 127 0" result="hardAlpha"/>
<feOffset dy="4"/>
<feGaussianBlur stdDeviation="10"/>
<feComposite in2="hardAlpha" operator="out"/>
<feColorMatrix type="matrix" values="0 0 0 0 0.239216 0 0 0 0 0.862745 0 0 0 0 0.517647 0 0 0 1 0"/>
<feBlend mode="normal" in2="BackgroundImageFix" result="effect1_dropShadow_1_484"/>
<feBlend mode="normal" in="SourceGraphic" in2="effect1_dropShadow_1_484" result="shape"/>
</filter>
<radialGradient id="paint0_radial_1_484" cx="0" cy="0" r="1" gradientUnits="userSpaceOnUse" gradientTransform="translate(44 44) rotate(90) scale(42)">
<stop stop-color="#383C68"/>
<stop offset="1" stop-color="#242854"/>
</radialGradient>
<linearGradient id="paint1_linear_1_484" x1="44" y1="2" x2="44" y2="86" gradientUnits="userSpaceOnUse">
<stop stop-color="#515684"/>
<stop offset="1" stop-color="#0D1033"/>
</linearGradient>
</defs>
</svg>
