<svg width="88" height="88" viewBox="0 0 88 88" fill="none" xmlns="http://www.w3.org/2000/svg">
<rect x="1.25" y="1.25" width="85.5" height="85.5" rx="20.75" fill="url(#paint0_radial_1_483)" stroke="url(#paint1_linear_1_483)" stroke-width="1.5"/>
<g filter="url(#filter0_d_1_483)">
<path d="M35.5467 40.8985C35.5467 41.4027 35.6012 41.8115 35.6966 42.1113C35.8056 42.4111 35.9419 42.7381 36.1327 43.0924C36.2008 43.2014 36.2281 43.3105 36.2281 43.4058C36.2281 43.5421 36.1463 43.6784 35.9691 43.8147L35.1106 44.387C34.988 44.4688 34.8653 44.5096 34.7563 44.5096C34.6201 44.5096 34.4838 44.4415 34.3475 44.3189C34.1567 44.1145 33.9932 43.8964 33.8569 43.6784C33.7207 43.4467 33.5844 43.1878 33.4345 42.8744C32.3716 44.1281 31.0361 44.7549 29.4282 44.7549C28.2835 44.7549 27.3705 44.4279 26.7027 43.7738C26.035 43.1197 25.6943 42.2475 25.6943 41.1574C25.6943 39.9991 26.1031 39.0588 26.9344 38.3502C27.7656 37.6416 28.8694 37.2873 30.273 37.2873C30.7363 37.2873 31.2133 37.3282 31.7175 37.3963C32.2217 37.4645 32.7395 37.5735 33.2846 37.6961V36.7013C33.2846 35.6657 33.0666 34.9434 32.6441 34.521C32.2081 34.0986 31.4722 33.8942 30.4229 33.8942C29.946 33.8942 29.4554 33.9487 28.9512 34.0713C28.447 34.194 27.9564 34.3439 27.4795 34.5346C27.2614 34.63 27.0979 34.6845 27.0025 34.7118C26.9071 34.739 26.839 34.7527 26.7845 34.7527C26.5937 34.7527 26.4983 34.6164 26.4983 34.3302V33.6625C26.4983 33.4445 26.5256 33.2809 26.5937 33.1856C26.6619 33.0902 26.7845 32.9948 26.9753 32.8994C27.4522 32.6541 28.0246 32.4497 28.6923 32.2862C29.36 32.109 30.0686 32.0273 30.8181 32.0273C32.4397 32.0273 33.6253 32.3952 34.3884 33.131C35.1379 33.8669 35.5194 34.9843 35.5194 36.4833V40.8985H35.5467ZM30.0141 42.9698C30.4638 42.9698 30.9271 42.888 31.4177 42.7245C31.9083 42.561 32.3443 42.2612 32.7123 41.8524C32.9303 41.5935 33.0938 41.3073 33.1756 40.9802C33.2574 40.6532 33.3119 40.258 33.3119 39.7947V39.2223C32.9167 39.127 32.4942 39.0452 32.0582 38.9907C31.6221 38.9362 31.1997 38.9089 30.7772 38.9089C29.8642 38.9089 29.1965 39.0861 28.7468 39.454C28.2971 39.8219 28.0791 40.3398 28.0791 41.0211C28.0791 41.6616 28.2426 42.1385 28.5833 42.4656C28.9103 42.8063 29.3873 42.9698 30.0141 42.9698ZM40.9566 44.4415C40.7114 44.4415 40.5478 44.4006 40.4388 44.3052C40.3298 44.2235 40.2344 44.0327 40.1526 43.7738L36.9503 33.2401C36.8685 32.9675 36.8276 32.7904 36.8276 32.695C36.8276 32.4769 36.9367 32.3543 37.1547 32.3543H38.4901C38.7491 32.3543 38.9262 32.3952 39.0216 32.4906C39.1306 32.5723 39.2124 32.7631 39.2941 33.022L41.5835 42.0431L43.7093 33.022C43.7774 32.7495 43.8592 32.5723 43.9682 32.4906C44.0772 32.4088 44.268 32.3543 44.5133 32.3543H45.6035C45.8624 32.3543 46.0395 32.3952 46.1486 32.4906C46.2576 32.5723 46.353 32.7631 46.4075 33.022L48.5605 42.1522L50.918 33.022C50.9998 32.7495 51.0952 32.5723 51.1906 32.4906C51.2996 32.4088 51.4767 32.3543 51.722 32.3543H52.9893C53.2074 32.3543 53.33 32.4633 53.33 32.695C53.33 32.7631 53.3164 32.8313 53.3028 32.913C53.2891 32.9948 53.2619 33.1038 53.2074 33.2537L49.9232 43.7874C49.8415 44.0599 49.7461 44.2371 49.6371 44.3189C49.5281 44.4006 49.3509 44.4551 49.1193 44.4551H47.9473C47.6884 44.4551 47.5113 44.4143 47.4022 44.3189C47.2932 44.2235 47.1978 44.0463 47.1433 43.7738L45.0311 34.9843L42.9326 43.7602C42.8644 44.0327 42.7827 44.2098 42.6737 44.3052C42.5646 44.4006 42.3739 44.4415 42.1286 44.4415H40.9566ZM58.4674 44.8094C57.7588 44.8094 57.0502 44.7277 56.3688 44.5641C55.6875 44.4006 55.156 44.2235 54.8017 44.0191C54.5837 43.8964 54.4338 43.7602 54.3793 43.6375C54.3248 43.5149 54.2975 43.3786 54.2975 43.256V42.561C54.2975 42.2748 54.4066 42.1385 54.611 42.1385C54.6927 42.1385 54.7745 42.1522 54.8562 42.1794C54.938 42.2067 55.0606 42.2612 55.1969 42.3157C55.6602 42.5201 56.1644 42.6836 56.6959 42.7926C57.241 42.9016 57.7724 42.9562 58.3175 42.9562C59.176 42.9562 59.8437 42.8063 60.3071 42.5065C60.7704 42.2067 61.0157 41.7706 61.0157 41.2119C61.0157 40.8303 60.893 40.5169 60.6477 40.258C60.4025 39.9991 59.9391 39.7674 59.2714 39.5494L57.2955 38.9362C56.3007 38.6228 55.5649 38.1594 55.1152 37.5462C54.6655 36.9466 54.4338 36.2789 54.4338 35.5703C54.4338 34.998 54.5564 34.4938 54.8017 34.0577C55.047 33.6216 55.3741 33.2401 55.7829 32.9403C56.1917 32.6268 56.655 32.3952 57.2001 32.2317C57.7452 32.0681 58.3175 32 58.9171 32C59.2169 32 59.5303 32.0136 59.8301 32.0545C60.1435 32.0954 60.4297 32.1499 60.7159 32.2044C60.9884 32.2725 61.2473 32.3407 61.4926 32.4224C61.7379 32.5042 61.9287 32.586 62.065 32.6677C62.2557 32.7767 62.392 32.8858 62.4738 33.0084C62.5555 33.1174 62.5964 33.2673 62.5964 33.4581V34.0986C62.5964 34.3847 62.4874 34.5346 62.283 34.5346C62.174 34.5346 61.9968 34.4801 61.7652 34.3711C60.9884 34.0168 60.1163 33.8397 59.1488 33.8397C58.372 33.8397 57.7588 33.9623 57.3364 34.2212C56.9139 34.4801 56.6959 34.8753 56.6959 35.434C56.6959 35.8156 56.8322 36.1426 57.1047 36.4015C57.3772 36.6605 57.8815 36.9194 58.6037 37.151L60.5387 37.7642C61.5199 38.0777 62.2285 38.5137 62.6509 39.0724C63.0734 39.6312 63.2778 40.2716 63.2778 40.9802C63.2778 41.5662 63.1551 42.0977 62.9235 42.561C62.6782 43.0243 62.3511 43.4331 61.9287 43.7602C61.5062 44.1008 61.002 44.3461 60.4161 44.5233C59.8029 44.714 59.1624 44.8094 58.4674 44.8094Z" fill="white"/>
<path fill-rule="evenodd" clip-rule="evenodd" d="M61.0427 51.4319C56.5594 54.7432 50.0457 56.5011 44.445 56.5011C36.5958 56.5011 29.5233 53.5986 24.1815 48.7746C23.7591 48.393 24.1406 47.8752 24.6448 48.175C30.4227 51.5272 37.5497 53.5577 44.9219 53.5577C49.8958 53.5577 55.3602 52.522 60.3886 50.3962C61.1381 50.0555 61.7786 50.8868 61.0427 51.4319Z" fill="#FF9900"/>
<path fill-rule="evenodd" clip-rule="evenodd" d="M62.9099 49.3064C62.3375 48.5705 59.1215 48.9521 57.6635 49.1292C57.2274 49.1837 57.1593 48.8022 57.5544 48.516C60.1163 46.7172 64.3271 47.2351 64.8177 47.8347C65.3082 48.4479 64.6814 52.6586 62.283 54.6755C61.9151 54.9889 61.5608 54.8254 61.7243 54.4165C62.2694 53.0675 63.4822 50.0286 62.9099 49.3064Z" fill="#FF9900"/>
</g>
<defs>
<filter id="filter0_d_1_483" x="4" y="16" width="80.9728" height="64.501" filterUnits="userSpaceOnUse" color-interpolation-filters="sRGB">
<feFlood flood-opacity="0" result="BackgroundImageFix"/>
<feColorMatrix in="SourceAlpha" type="matrix" values="0 0 0 0 0 0 0 0 0 0 0 0 0 0 0 0 0 0 127 0" result="hardAlpha"/>
<feOffset dy="4"/>
<feGaussianBlur stdDeviation="10"/>
<feComposite in2="hardAlpha" operator="out"/>
<feColorMatrix type="matrix" values="0 0 0 0 1 0 0 0 0 0.6 0 0 0 0 0 0 0 0 1 0"/>
<feBlend mode="normal" in2="BackgroundImageFix" result="effect1_dropShadow_1_483"/>
<feBlend mode="normal" in="SourceGraphic" in2="effect1_dropShadow_1_483" result="shape"/>
</filter>
<radialGradient id="paint0_radial_1_483" cx="0" cy="0" r="1" gradientUnits="userSpaceOnUse" gradientTransform="translate(44 44) rotate(90) scale(42)">
<stop stop-color="#383C68"/>
<stop offset="1" stop-color="#242854"/>
</radialGradient>
<linearGradient id="paint1_linear_1_483" x1="44" y1="2" x2="44" y2="86" gradientUnits="userSpaceOnUse">
<stop stop-color="#515684"/>
<stop offset="1" stop-color="#0D1033"/>
</linearGradient>
</defs>
</svg>
