<svg width="88" height="88" viewBox="0 0 88 88" fill="none" xmlns="http://www.w3.org/2000/svg">
<rect x="1.25" y="1.25" width="85.5" height="85.5" rx="20.75" fill="url(#paint0_radial_1_495)" stroke="url(#paint1_linear_1_495)" stroke-width="1.5"/>
<mask id="mask0_1_495" style="mask-type:luminance" maskUnits="userSpaceOnUse" x="26" y="31" width="36" height="25">
<path d="M26 31H61.7895V56H26V31Z" fill="white"/>
</mask>
<g mask="url(#mask0_1_495)">
<path fill-rule="evenodd" clip-rule="evenodd" d="M40.8604 33.7368C42.0156 32.5342 43.6235 31.7895 45.3999 31.7895C47.7683 31.7895 49.8209 33.1053 50.9262 35.0658C51.9073 34.6272 52.9699 34.4008 54.0446 34.4013C58.3078 34.4013 61.7683 37.8882 61.7683 42.1908C61.7683 46.4934 58.3078 49.9803 54.0446 49.9803C53.5235 49.9803 53.0157 49.9279 52.5183 49.8289C51.5512 51.5526 49.7025 52.7237 47.5972 52.7237C46.7401 52.7254 45.894 52.5309 45.1235 52.1553C44.1433 54.4579 41.8604 56.0763 39.2025 56.0763C36.4262 56.0763 34.0709 54.3263 33.163 51.8658C32.7589 51.9511 32.3471 51.9939 31.9341 51.9937C28.6314 51.9937 25.9604 49.2832 25.9604 45.9542C25.9604 43.7174 27.163 41.77 28.9472 40.7174C28.5687 39.8454 28.3739 38.9048 28.3749 37.9542C28.3749 34.1121 31.4933 31.0068 35.3354 31.0068C37.5854 31.0068 39.5985 32.0792 40.8617 33.7437" fill="#00A1E0"/>
</g>
<path fill-rule="evenodd" clip-rule="evenodd" d="M31.1761 43.9997C31.1536 44.0584 31.1841 44.0707 31.1914 44.0811C31.2586 44.1297 31.3269 44.165 31.3953 44.2046C31.7611 44.398 32.1058 44.4546 32.4664 44.4546C33.2006 44.4546 33.6572 44.0638 33.6572 43.4349V43.4225C33.6572 42.8409 33.1414 42.6291 32.6598 42.4778L32.5968 42.4574C32.2323 42.3392 31.9178 42.2363 31.9178 41.9969V41.9846C31.9178 41.7794 32.102 41.628 32.3862 41.628C32.702 41.628 33.0783 41.7332 33.3191 41.8662C33.3191 41.8662 33.3904 41.9122 33.4164 41.8434C33.4304 41.8062 33.5532 41.4776 33.5664 41.4408C33.5803 41.4022 33.5558 41.3732 33.5307 41.3582C33.2544 41.1897 32.8728 41.0753 32.4781 41.0753L32.4048 41.0755C31.7324 41.0755 31.2627 41.4821 31.2627 42.0637V42.0762C31.2627 42.6894 31.7811 42.8894 32.2653 43.0275L32.3432 43.0517C32.6958 43.1601 33.0011 43.2544 33.0011 43.5017V43.5141C33.0011 43.7417 32.8024 43.9115 32.484 43.9115C32.3602 43.9115 31.9656 43.9093 31.5379 43.6391C31.4862 43.609 31.4568 43.5872 31.4169 43.5629C31.3958 43.5501 31.3432 43.5271 31.3203 43.5961L31.1756 43.9987M41.9256 43.9987C41.9031 44.0574 41.9336 44.0696 41.9411 44.08C42.0081 44.1287 42.0766 44.164 42.1451 44.2036C42.5108 44.397 42.8556 44.4536 43.2161 44.4536C43.9503 44.4536 44.4069 44.0628 44.4069 43.4338V43.4215C44.4069 42.8399 43.8924 42.628 43.4095 42.4767L43.3465 42.4563C42.982 42.3382 42.6676 42.2353 42.6676 41.9958V41.9836C42.6676 41.7783 42.8518 41.627 43.136 41.627C43.4518 41.627 43.8268 41.7321 44.0689 41.8651C44.0689 41.8651 44.1402 41.9112 44.1662 41.8424C44.1802 41.8051 44.3031 41.4766 44.3149 41.4397C44.329 41.4012 44.3044 41.3721 44.2794 41.3571C44.0031 41.1887 43.6215 41.0742 43.2268 41.0742L43.1533 41.0745C42.481 41.0745 42.0112 41.4811 42.0112 42.0626V42.0751C42.0112 42.6883 42.5297 42.8883 43.0139 43.0265L43.0916 43.0507C43.4456 43.1591 43.7495 43.2533 43.7495 43.5007V43.513C43.7495 43.7407 43.5508 43.9104 43.2324 43.9104C43.1083 43.9104 42.7127 43.9083 42.2864 43.638C42.2347 43.6079 42.2044 43.5871 42.1652 43.5619C42.1519 43.5534 42.0899 43.5292 42.0687 43.595L41.924 43.9976M49.2661 42.7661C49.2661 43.1213 49.1998 43.4016 49.0701 43.6003C48.9406 43.7963 48.7451 43.8924 48.4727 43.8924C48.2003 43.8924 48.0056 43.7971 47.8779 43.6016C47.7494 43.4042 47.6845 43.1226 47.6845 42.7674C47.6845 42.4121 47.7498 42.1332 47.8779 41.9371C48.0053 41.7424 48.199 41.649 48.4727 41.649C48.7464 41.649 48.9411 41.7433 49.0701 41.9371C49.2006 42.1332 49.2661 42.4121 49.2661 42.7674M49.8793 42.1082C49.8189 41.9042 49.7253 41.7253 49.6003 41.5753C49.4752 41.4253 49.3174 41.3042 49.1293 41.2174C48.9424 41.1299 48.7214 41.0858 48.4714 41.0858C48.2214 41.0858 48.0016 41.1301 47.8135 41.2174C47.6266 41.3047 47.4674 41.4253 47.3424 41.5753C47.2177 41.7253 47.124 41.9042 47.0635 42.1082C47.0036 42.3108 46.9732 42.5318 46.9732 42.7674C46.9732 43.0029 47.0036 43.224 47.0635 43.4266C47.1236 43.6305 47.2174 43.8095 47.3424 43.9595C47.4676 44.1095 47.6266 44.2292 47.8135 44.3147C48.0016 44.4 48.2227 44.4434 48.4714 44.4434C48.7201 44.4434 48.9411 44.4 49.1279 44.3147C49.3148 44.2295 49.474 44.1095 49.599 43.9595C49.7239 43.8095 49.8174 43.6305 49.8779 43.4266C49.9377 43.224 49.9681 43.0029 49.9681 42.7674C49.9681 42.5332 49.9377 42.3108 49.8779 42.1082M54.9174 43.7924C54.8973 43.7328 54.8391 43.7553 54.8391 43.7553C54.7501 43.7894 54.6549 43.8209 54.5536 43.8367C54.4515 43.8528 54.3378 43.8608 54.2181 43.8608C53.922 43.8608 53.6852 43.7725 53.5168 43.5976C53.347 43.4226 53.2523 43.1411 53.2536 42.7595C53.2545 42.4121 53.3385 42.1516 53.4891 41.9516C53.6378 41.7542 53.8668 41.6516 54.1694 41.6516C54.422 41.6516 54.6154 41.6809 54.8181 41.7443C54.8181 41.7443 54.8661 41.7653 54.8891 41.702C54.943 41.5533 54.9827 41.4467 55.0404 41.2836C55.0568 41.2368 55.0168 41.2171 55.0022 41.2115C54.9227 41.1804 54.7351 41.1295 54.5929 41.108C54.4601 41.0878 54.3061 41.0772 54.1324 41.0772C53.8745 41.0772 53.6456 41.1213 53.4495 41.2087C53.2535 41.2959 53.0877 41.4166 52.9561 41.5666C52.8245 41.7166 52.7245 41.8955 52.6574 42.0995C52.591 42.3021 52.5574 42.5245 52.5574 42.76C52.5574 43.2679 52.6943 43.6797 52.9653 43.9811C53.2364 44.2837 53.6443 44.4363 54.1758 44.4363C54.4903 44.4363 54.8127 44.3728 55.0443 44.2811C55.0443 44.2811 55.0885 44.2597 55.0693 44.2082L54.9179 43.7924M55.9903 42.424C56.0197 42.2266 56.0737 42.0621 56.1587 41.9345C56.286 41.7397 56.4798 41.6332 56.7522 41.6332C57.0245 41.6332 57.2048 41.7403 57.3337 41.9345C57.4193 42.0628 57.4566 42.2332 57.4706 42.424L55.9837 42.4237L55.9903 42.424ZM58.0561 41.9897C58.0039 41.7937 57.8745 41.595 57.7903 41.5042C57.6561 41.3608 57.5258 41.2595 57.3956 41.2042C57.2075 41.1243 57.0052 41.0832 56.8008 41.0836C56.5416 41.0836 56.3061 41.1274 56.1153 41.2165C55.9245 41.3062 55.764 41.4283 55.6377 41.5809C55.5115 41.7336 55.4166 41.9138 55.3561 42.1204C55.2956 42.3243 55.2651 42.548 55.2651 42.7822C55.2651 43.0217 55.2968 43.2441 55.3591 43.4454C55.4222 43.648 55.5236 43.8257 55.6605 43.973C55.7973 44.1217 55.9723 44.2375 56.1828 44.3191C56.392 44.4 56.646 44.442 56.9368 44.4411C57.5368 44.4391 57.8526 44.3055 57.9815 44.2332C58.0045 44.2203 58.0262 44.198 57.9991 44.134L57.8636 43.7537C57.8428 43.697 57.7854 43.7175 57.7854 43.7175C57.6368 43.773 57.4262 43.8728 56.9328 43.8715C56.6105 43.8709 56.3723 43.7758 56.2223 43.6267C56.0697 43.4741 55.9933 43.2517 55.9815 42.9359L58.0604 42.9375C58.0604 42.9375 58.1152 42.937 58.1208 42.8836C58.1231 42.8615 58.192 42.4572 58.0589 41.9901L58.0561 41.9897ZM39.3719 42.424C39.4012 42.2266 39.4554 42.0621 39.5403 41.9345C39.6677 41.7397 39.8614 41.6332 40.1337 41.6332C40.4061 41.6332 40.5864 41.7403 40.7153 41.9345C40.8007 42.0628 40.8381 42.2332 40.8522 42.424L39.3653 42.4237L39.3719 42.424ZM41.4377 41.9897C41.3856 41.7937 41.2561 41.595 41.1719 41.5042C41.0377 41.3608 40.9074 41.2595 40.7772 41.2042C40.5891 41.1243 40.3868 41.0832 40.1824 41.0836C39.9232 41.0836 39.6877 41.1274 39.4969 41.2165C39.3061 41.3062 39.1456 41.4283 39.0193 41.5809C38.8933 41.7336 38.7982 41.9138 38.7377 42.1204C38.6773 42.3243 38.6469 42.548 38.6469 42.7822C38.6469 43.0217 38.6783 43.2441 38.7411 43.4454C38.804 43.648 38.9056 43.8257 39.0411 43.973C39.1779 44.1217 39.3529 44.2375 39.5635 44.3191C39.7727 44.4 40.0253 44.442 40.3174 44.4411C40.9174 44.4391 41.2332 44.3055 41.3622 44.2332C41.3851 44.2203 41.4069 44.198 41.3797 44.134L41.2441 43.7537C41.2232 43.697 41.1658 43.7175 41.1658 43.7175C41.0172 43.773 40.8066 43.8728 40.3132 43.8715C39.9922 43.8709 39.7527 43.7758 39.6027 43.6267C39.4501 43.4741 39.3737 43.2517 39.3619 42.9359L41.4408 42.9375C41.4408 42.9375 41.4956 42.937 41.5012 42.8836C41.5035 42.8615 41.5724 42.4572 41.4391 41.9901L41.4377 41.9897ZM34.8851 43.7792C34.8036 43.7142 34.7923 43.6983 34.7653 43.6561C34.7241 43.5925 34.7031 43.5021 34.7031 43.3863C34.7031 43.2047 34.7636 43.0732 34.8886 42.985C34.8873 42.9853 35.0676 42.8297 35.4912 42.835C35.6798 42.8384 35.868 42.8544 36.0544 42.883V43.8265H36.0547C36.0547 43.8265 35.7915 43.8832 35.4941 43.9011C35.0718 43.9265 34.8849 43.7795 34.8862 43.7799L34.8851 43.7792ZM35.7114 42.3187C35.6272 42.3125 35.5179 42.3095 35.3877 42.3095C35.2101 42.3095 35.0377 42.3316 34.8772 42.375C34.7153 42.4187 34.5693 42.4863 34.4443 42.5763C34.3189 42.6657 34.2158 42.7828 34.1429 42.9184C34.0694 43.0553 34.0319 43.2158 34.0319 43.3974C34.0319 43.5816 34.0639 43.7408 34.127 43.8711C34.1889 44.0003 34.2821 44.112 34.3981 44.1961C34.5135 44.28 34.656 44.3421 34.8204 44.379C34.9836 44.4162 35.1678 44.435 35.3704 44.435C35.5836 44.435 35.7954 44.4171 36.0007 44.3825C36.1755 44.3524 36.3497 44.3185 36.5231 44.2809C36.5923 44.265 36.6691 44.2441 36.6691 44.2441C36.7204 44.2311 36.7165 44.1762 36.7165 44.1762L36.7153 42.2815C36.7153 41.8657 36.6043 41.5565 36.3851 41.3657C36.1666 41.1749 35.8469 41.0788 35.4324 41.0788C35.2772 41.0788 35.0258 41.0999 34.8758 41.13C34.8758 41.13 34.4232 41.2179 34.2364 41.3642C34.2364 41.3642 34.1953 41.3895 34.2177 41.4467L34.3651 41.8415C34.3833 41.8926 34.4332 41.8751 34.4332 41.8751C34.4332 41.8751 34.4489 41.869 34.4673 41.858C34.866 41.6409 35.3712 41.6475 35.3712 41.6475C35.5949 41.6475 35.7686 41.6929 35.8844 41.7817C35.9977 41.8687 36.0554 42.0001 36.0554 42.2765V42.3642C35.8778 42.3384 35.7133 42.3236 35.7133 42.3236L35.7114 42.3187ZM52.4219 41.249C52.4249 41.242 52.4265 41.2345 52.4265 41.227C52.4265 41.2194 52.4251 41.2119 52.4222 41.205C52.4192 41.198 52.415 41.1917 52.4096 41.1864C52.4042 41.1811 52.3977 41.177 52.3907 41.1742C52.3553 41.1608 52.1789 41.1236 52.0433 41.1151C51.7828 41.0988 51.6381 41.1428 51.5078 41.2012C51.3791 41.2592 51.2368 41.3525 51.1578 41.4604L51.1576 41.2078C51.1576 41.173 51.1329 41.145 51.0979 41.145H50.5664C50.5319 41.145 50.5069 41.173 50.5069 41.2078V44.2999C50.5069 44.3166 50.5136 44.3326 50.5254 44.3444C50.5372 44.3562 50.5532 44.3629 50.5699 44.3629H51.1147C51.1314 44.3629 51.1474 44.3562 51.1591 44.3444C51.1709 44.3326 51.1776 44.3166 51.1776 44.2999V42.7472C51.1776 42.5393 51.2005 42.3328 51.2461 42.2025C51.2911 42.0737 51.3523 41.9709 51.4277 41.8972C51.4996 41.8261 51.5876 41.7733 51.6843 41.7433C51.775 41.7173 51.8689 41.7041 51.9632 41.7041C52.0718 41.7041 52.1908 41.732 52.1908 41.732C52.2308 41.7365 52.2531 41.712 52.2666 41.6759C52.3023 41.5811 52.4035 41.297 52.4232 41.2404" fill="#FFFFFE"/>
<path fill-rule="evenodd" clip-rule="evenodd" d="M47.3345 39.8221C47.2671 39.8017 47.1986 39.7855 47.1293 39.7734C47.0361 39.7578 46.9417 39.7505 46.8472 39.7516C46.4718 39.7516 46.1759 39.8576 45.9681 40.0671C45.7618 40.275 45.6214 40.5917 45.551 41.0084L45.5256 41.1491H45.0545C45.0545 41.1491 44.997 41.1467 44.9849 41.2095L44.9075 41.641C44.9021 41.6823 44.9199 41.7081 44.9751 41.7079H45.4338L44.9684 44.3056C44.932 44.5148 44.8902 44.687 44.8441 44.8173C44.7985 44.946 44.7541 45.0425 44.6993 45.1125C44.6463 45.1802 44.596 45.2301 44.5093 45.2592C44.4377 45.2833 44.3554 45.2943 44.2651 45.2943C44.2149 45.2943 44.148 45.2859 44.0987 45.276C44.0493 45.2663 44.0237 45.2552 43.9867 45.2397C43.9867 45.2397 43.9329 45.2192 43.9117 45.2731C43.8945 45.3172 43.7722 45.6534 43.7577 45.695C43.743 45.736 43.7637 45.7684 43.7897 45.7777C43.8508 45.7996 43.8962 45.8135 43.9793 45.8331C44.0949 45.8604 44.1922 45.8621 44.2834 45.8621C44.4745 45.8621 44.6485 45.8352 44.7929 45.7831C44.9381 45.7306 45.0646 45.6392 45.1764 45.5154C45.2974 45.3818 45.3734 45.242 45.4462 45.0512C45.5181 44.8621 45.5795 44.6273 45.6285 44.3538L46.0962 41.7079H46.7799C46.7799 41.7079 46.8375 41.71 46.8495 41.6475L46.9268 41.2159C46.9322 41.1746 46.9146 41.1488 46.8591 41.1491H46.1955C46.1988 41.1341 46.2289 40.9006 46.3051 40.6809C46.3376 40.5871 46.3988 40.5114 46.4506 40.4595C46.499 40.41 46.5587 40.3729 46.6245 40.3513C46.6966 40.329 46.7717 40.3182 46.8472 40.3192C46.9097 40.3192 46.971 40.3267 47.0177 40.3364C47.0821 40.3501 47.1071 40.3573 47.1239 40.3623C47.1916 40.383 47.2006 40.363 47.2139 40.3302L47.3726 39.8945C47.3889 39.8476 47.3492 39.8279 47.3345 39.8221ZM38.0616 44.3112C38.0616 44.3459 38.0368 44.3742 38.0021 44.3742H37.4517C37.4168 44.3742 37.3921 44.3459 37.3921 44.3112V39.8812C37.3921 39.8466 37.4168 39.8185 37.4517 39.8185H38.0021C38.0368 39.8185 38.0616 39.8466 38.0616 39.8812V44.3112Z" fill="#FFFFFE"/>
<defs>
<radialGradient id="paint0_radial_1_495" cx="0" cy="0" r="1" gradientUnits="userSpaceOnUse" gradientTransform="translate(44 44) rotate(90) scale(42)">
<stop stop-color="#383C68"/>
<stop offset="1" stop-color="#242854"/>
</radialGradient>
<linearGradient id="paint1_linear_1_495" x1="44" y1="2" x2="44" y2="86" gradientUnits="userSpaceOnUse">
<stop stop-color="#515684"/>
<stop offset="1" stop-color="#0D1033"/>
</linearGradient>
</defs>
</svg>
