<svg width="267" height="267" viewBox="0 0 267 267" fill="none" xmlns="http://www.w3.org/2000/svg">
<rect width="267" height="267" rx="51" fill="url(#paint0_linear_1065_125)"/>
<rect x="7" y="7" width="253" height="253" rx="43" fill="#D9D9D9"/>
<rect x="7" y="7" width="253" height="253" rx="43" fill="url(#paint1_linear_1065_125)"/>
<rect x="11" y="11" width="245" height="245" rx="43" fill="#D9D9D9"/>
<rect x="11" y="11" width="245" height="245" rx="43" fill="url(#paint2_linear_1065_125)"/>
<g style="mix-blend-mode:soft-light">
<path d="M171.214 96.8613C170.788 96.8258 161.783 96.1583 161.783 96.1583C161.783 96.1583 155.529 89.9492 154.842 89.262C154.585 89.0063 154.239 88.8752 153.877 88.8187L148.824 192.162L185.027 184.33C185.027 184.33 172.317 98.4007 172.237 97.8119C172.156 97.2231 171.64 96.8972 171.214 96.8613Z" fill="white"/>
<g style="mix-blend-mode:soft-light">
<path fill-rule="evenodd" clip-rule="evenodd" d="M171.213 96.8614C171.64 96.8973 172.156 97.2232 172.237 97.812C172.316 98.4009 185.027 184.33 185.027 184.33L148.821 192.163L82 179.643C82 179.643 90.5753 113.326 90.8992 110.988C91.3295 107.9 91.4332 107.797 94.7106 106.769C95.2433 106.601 99.4144 105.308 105.286 103.488C107.549 93.8894 114.768 75 129.879 75C131.852 75 134.138 76.0599 135.982 78.4996C136.167 78.4891 136.351 78.4818 136.53 78.4818C143.017 78.4818 146.704 84.0065 148.793 90.0183C150.927 89.3581 152.216 88.96 152.293 88.9374C152.814 88.7842 154.155 88.5753 154.842 89.2621C155.528 89.9494 161.783 96.1584 161.783 96.1584C161.783 96.1584 170.788 96.8259 171.213 96.8614ZM139.446 92.9105L145.1 91.1605C143.667 86.7841 141.441 82.9812 138.099 82.5618C138.931 84.9466 139.45 87.955 139.45 91.6913C139.45 92.113 139.448 92.4993 139.446 92.8911L139.446 92.9105ZM135.486 93.4816C135.486 88.9725 134.882 85.631 133.953 83.3027C130.268 84.8837 126.054 89.075 123.805 97.7528C126.008 97.0702 128.209 96.3888 130.355 95.7243C132.11 95.181 133.828 94.6489 135.482 94.1366L135.482 94.13C135.484 93.9189 135.486 93.7099 135.486 93.4816ZM131.402 79.7071C130.773 79.2744 130.116 79.0529 129.464 79.0529C118.61 79.0529 112.513 93.3029 109.946 102.045L119.176 99.1861C121.368 87.7251 126.559 81.9859 131.402 79.7071ZM132.065 130.147L136.53 116.867C136.53 116.867 133.512 115.117 127.404 115.117C111.551 115.117 103.698 125.706 103.698 136.647C103.698 143.95 107.791 147.262 111.379 150.165C114.177 152.429 116.668 154.445 116.668 157.912C116.668 159.824 115.316 162.442 111.991 162.442C106.904 162.442 100.874 157.265 100.874 157.265L97.8027 167.413C97.8027 167.413 103.669 174.551 115.139 174.551C124.698 174.551 131.787 167.354 131.787 156.177C131.787 147.585 126.003 143.339 121.432 139.984C118.446 137.791 115.977 135.978 115.977 133.582C115.977 132.47 116.33 128.059 123.359 128.059C128.154 128.059 132.065 130.147 132.065 130.147Z" fill="white"/>
</g>
</g>
<defs>
<linearGradient id="paint0_linear_1065_125" x1="133.5" y1="0" x2="133.5" y2="267" gradientUnits="userSpaceOnUse">
<stop stop-color="#6D7AFF"/>
<stop offset="0.435" stop-color="#2631AB"/>
<stop offset="1" stop-color="#4353FF"/>
</linearGradient>
<linearGradient id="paint1_linear_1065_125" x1="236.5" y1="249.5" x2="21" y2="32.5" gradientUnits="userSpaceOnUse">
<stop stop-color="#6D7AFF"/>
<stop offset="0.435" stop-color="#2631AB"/>
<stop offset="1" stop-color="#4353FF"/>
</linearGradient>
<linearGradient id="paint2_linear_1065_125" x1="133.5" y1="11" x2="87" y2="268" gradientUnits="userSpaceOnUse">
<stop stop-color="#4353FF"/>
<stop offset="1" stop-color="#6D7AFF"/>
</linearGradient>
</defs>
</svg>
