<svg width="1161" height="443" viewBox="0 0 1161 443" fill="none" xmlns="http://www.w3.org/2000/svg">
<circle cx="1.25" cy="1.25" r="1.25" fill="#626475"/>
<circle cx="41.25" cy="1.25" r="1.25" fill="#626475"/>
<circle cx="81.25" cy="1.25" r="1.25" fill="#626475"/>
<circle cx="121.25" cy="1.25" r="1.25" fill="#626475"/>
<circle cx="161.25" cy="1.25" r="1.25" fill="#626475"/>
<circle cx="201.25" cy="1.25" r="1.25" fill="#626475"/>
<circle cx="241.25" cy="1.25" r="1.25" fill="#626475"/>
<circle cx="281.25" cy="1.25" r="1.25" fill="#626475"/>
<circle cx="321.25" cy="1.25" r="1.25" fill="#626475"/>
<circle cx="361.25" cy="1.25" r="1.25" fill="#626475"/>
<circle cx="400.25" cy="1.25" r="1.25" fill="#626475"/>
<circle cx="440.25" cy="1.25" r="1.25" fill="#626475"/>
<circle cx="480.25" cy="1.25" r="1.25" fill="#626475"/>
<circle cx="520.25" cy="1.25" r="1.25" fill="#626475"/>
<circle cx="560.25" cy="1.25" r="1.25" fill="#626475"/>
<circle cx="600.25" cy="1.25" r="1.25" fill="#626475"/>
<circle cx="640.25" cy="1.25" r="1.25" fill="#626475"/>
<circle cx="680.25" cy="1.25" r="1.25" fill="#626475"/>
<circle cx="720.25" cy="1.25" r="1.25" fill="#626475"/>
<circle cx="760.25" cy="1.25" r="1.25" fill="#626475"/>
<circle cx="800.25" cy="1.25" r="1.25" fill="#626475"/>
<circle cx="839.25" cy="1.25" r="1.25" fill="#626475"/>
<circle cx="879.25" cy="1.25" r="1.25" fill="#626475"/>
<circle cx="919.25" cy="1.25" r="1.25" fill="#626475"/>
<circle cx="959.25" cy="1.25" r="1.25" fill="#626475"/>
<circle cx="999.25" cy="1.25" r="1.25" fill="#626475"/>
<circle cx="1039.25" cy="1.25" r="1.25" fill="#626475"/>
<circle cx="1079.25" cy="1.25" r="1.25" fill="#626475"/>
<circle cx="1119.25" cy="1.25" r="1.25" fill="#626475"/>
<circle cx="1159.25" cy="1.25" r="1.25" fill="#626475"/>
<circle cx="1.25" cy="41.25" r="1.25" fill="#626475"/>
<circle cx="41.25" cy="41.25" r="1.25" fill="#626475"/>
<circle cx="81.25" cy="41.25" r="1.25" fill="#626475"/>
<circle cx="121.25" cy="41.25" r="1.25" fill="#626475"/>
<circle cx="161.25" cy="41.25" r="1.25" fill="#626475"/>
<circle cx="201.25" cy="41.25" r="1.25" fill="#626475"/>
<circle cx="241.25" cy="41.25" r="1.25" fill="#626475"/>
<circle cx="281.25" cy="41.25" r="1.25" fill="#626475"/>
<circle cx="321.25" cy="41.25" r="1.25" fill="#626475"/>
<circle cx="361.25" cy="41.25" r="1.25" fill="#626475"/>
<circle cx="400.25" cy="41.25" r="1.25" fill="#626475"/>
<circle cx="440.25" cy="41.25" r="1.25" fill="#626475"/>
<circle cx="480.25" cy="41.25" r="1.25" fill="#626475"/>
<circle cx="520.25" cy="41.25" r="1.25" fill="#626475"/>
<circle cx="560.25" cy="41.25" r="1.25" fill="#626475"/>
<circle cx="600.25" cy="41.25" r="1.25" fill="#626475"/>
<circle cx="640.25" cy="41.25" r="1.25" fill="#626475"/>
<circle cx="680.25" cy="41.25" r="1.25" fill="#626475"/>
<circle cx="720.25" cy="41.25" r="1.25" fill="#626475"/>
<circle cx="760.25" cy="41.25" r="1.25" fill="#626475"/>
<circle cx="800.25" cy="41.25" r="1.25" fill="#626475"/>
<circle cx="839.25" cy="41.25" r="1.25" fill="#626475"/>
<circle cx="879.25" cy="41.25" r="1.25" fill="#626475"/>
<circle cx="919.25" cy="41.25" r="1.25" fill="#626475"/>
<circle cx="959.25" cy="41.25" r="1.25" fill="#626475"/>
<circle cx="999.25" cy="41.25" r="1.25" fill="#626475"/>
<circle cx="1039.25" cy="41.25" r="1.25" fill="#626475"/>
<circle cx="1079.25" cy="41.25" r="1.25" fill="#626475"/>
<circle cx="1119.25" cy="41.25" r="1.25" fill="#626475"/>
<circle cx="1159.25" cy="41.25" r="1.25" fill="#626475"/>
<circle cx="1.25" cy="81.25" r="1.25" fill="#626475"/>
<circle cx="41.25" cy="81.25" r="1.25" fill="#626475"/>
<circle cx="81.25" cy="81.25" r="1.25" fill="#626475"/>
<circle cx="121.25" cy="81.25" r="1.25" fill="#626475"/>
<circle cx="161.25" cy="81.25" r="1.25" fill="#626475"/>
<circle cx="201.25" cy="81.25" r="1.25" fill="#626475"/>
<circle cx="241.25" cy="81.25" r="1.25" fill="#626475"/>
<circle cx="281.25" cy="81.25" r="1.25" fill="#626475"/>
<circle cx="321.25" cy="81.25" r="1.25" fill="#626475"/>
<circle cx="361.25" cy="81.25" r="1.25" fill="#626475"/>
<circle cx="400.25" cy="81.25" r="1.25" fill="#626475"/>
<circle cx="440.25" cy="81.25" r="1.25" fill="#626475"/>
<circle cx="480.25" cy="81.25" r="1.25" fill="#626475"/>
<circle cx="520.25" cy="81.25" r="1.25" fill="#626475"/>
<circle cx="560.25" cy="81.25" r="1.25" fill="#626475"/>
<circle cx="600.25" cy="81.25" r="1.25" fill="#626475"/>
<circle cx="640.25" cy="81.25" r="1.25" fill="#626475"/>
<circle cx="680.25" cy="81.25" r="1.25" fill="#626475"/>
<circle cx="720.25" cy="81.25" r="1.25" fill="#626475"/>
<circle cx="760.25" cy="81.25" r="1.25" fill="#626475"/>
<circle cx="800.25" cy="81.25" r="1.25" fill="#626475"/>
<circle cx="839.25" cy="81.25" r="1.25" fill="#626475"/>
<circle cx="879.25" cy="81.25" r="1.25" fill="#626475"/>
<circle cx="919.25" cy="81.25" r="1.25" fill="#626475"/>
<circle cx="959.25" cy="81.25" r="1.25" fill="#626475"/>
<circle cx="999.25" cy="81.25" r="1.25" fill="#626475"/>
<circle cx="1039.25" cy="81.25" r="1.25" fill="#626475"/>
<circle cx="1079.25" cy="81.25" r="1.25" fill="#626475"/>
<circle cx="1119.25" cy="81.25" r="1.25" fill="#626475"/>
<circle cx="1159.25" cy="81.25" r="1.25" fill="#626475"/>
<circle cx="1.25" cy="121.25" r="1.25" fill="#626475"/>
<circle cx="41.25" cy="121.25" r="1.25" fill="#626475"/>
<circle cx="81.25" cy="121.25" r="1.25" fill="#626475"/>
<circle cx="121.25" cy="121.25" r="1.25" fill="#626475"/>
<circle cx="161.25" cy="121.25" r="1.25" fill="#626475"/>
<circle cx="201.25" cy="121.25" r="1.25" fill="#626475"/>
<circle cx="241.25" cy="121.25" r="1.25" fill="#626475"/>
<circle cx="281.25" cy="121.25" r="1.25" fill="#626475"/>
<circle cx="321.25" cy="121.25" r="1.25" fill="#626475"/>
<circle cx="361.25" cy="121.25" r="1.25" fill="#626475"/>
<circle cx="400.25" cy="121.25" r="1.25" fill="#626475"/>
<circle cx="440.25" cy="121.25" r="1.25" fill="#626475"/>
<circle cx="480.25" cy="121.25" r="1.25" fill="#626475"/>
<circle cx="520.25" cy="121.25" r="1.25" fill="#626475"/>
<circle cx="560.25" cy="121.25" r="1.25" fill="#626475"/>
<circle cx="600.25" cy="121.25" r="1.25" fill="#626475"/>
<circle cx="640.25" cy="121.25" r="1.25" fill="#626475"/>
<circle cx="680.25" cy="121.25" r="1.25" fill="#626475"/>
<circle cx="720.25" cy="121.25" r="1.25" fill="#626475"/>
<circle cx="760.25" cy="121.25" r="1.25" fill="#626475"/>
<circle cx="800.25" cy="121.25" r="1.25" fill="#626475"/>
<circle cx="839.25" cy="121.25" r="1.25" fill="#626475"/>
<circle cx="879.25" cy="121.25" r="1.25" fill="#626475"/>
<circle cx="919.25" cy="121.25" r="1.25" fill="#626475"/>
<circle cx="959.25" cy="121.25" r="1.25" fill="#626475"/>
<circle cx="999.25" cy="121.25" r="1.25" fill="#626475"/>
<circle cx="1039.25" cy="121.25" r="1.25" fill="#626475"/>
<circle cx="1079.25" cy="121.25" r="1.25" fill="#626475"/>
<circle cx="1119.25" cy="121.25" r="1.25" fill="#626475"/>
<circle cx="1159.25" cy="121.25" r="1.25" fill="#626475"/>
<circle cx="1.25" cy="161.25" r="1.25" fill="#626475"/>
<circle cx="41.25" cy="161.25" r="1.25" fill="#626475"/>
<circle cx="81.25" cy="161.25" r="1.25" fill="#626475"/>
<circle cx="121.25" cy="161.25" r="1.25" fill="#626475"/>
<circle cx="161.25" cy="161.25" r="1.25" fill="#626475"/>
<circle cx="201.25" cy="161.25" r="1.25" fill="#626475"/>
<circle cx="241.25" cy="161.25" r="1.25" fill="#626475"/>
<circle cx="281.25" cy="161.25" r="1.25" fill="#626475"/>
<circle cx="321.25" cy="161.25" r="1.25" fill="#626475"/>
<circle cx="361.25" cy="161.25" r="1.25" fill="#626475"/>
<circle cx="400.25" cy="161.25" r="1.25" fill="#626475"/>
<circle cx="440.25" cy="161.25" r="1.25" fill="#626475"/>
<circle cx="480.25" cy="161.25" r="1.25" fill="#626475"/>
<circle cx="520.25" cy="161.25" r="1.25" fill="#626475"/>
<circle cx="560.25" cy="161.25" r="1.25" fill="#626475"/>
<circle cx="600.25" cy="161.25" r="1.25" fill="#626475"/>
<circle cx="640.25" cy="161.25" r="1.25" fill="#626475"/>
<circle cx="680.25" cy="161.25" r="1.25" fill="#626475"/>
<circle cx="720.25" cy="161.25" r="1.25" fill="#626475"/>
<circle cx="760.25" cy="161.25" r="1.25" fill="#626475"/>
<circle cx="800.25" cy="161.25" r="1.25" fill="#626475"/>
<circle cx="839.25" cy="161.25" r="1.25" fill="#626475"/>
<circle cx="879.25" cy="161.25" r="1.25" fill="#626475"/>
<circle cx="919.25" cy="161.25" r="1.25" fill="#626475"/>
<circle cx="959.25" cy="161.25" r="1.25" fill="#626475"/>
<circle cx="999.25" cy="161.25" r="1.25" fill="#626475"/>
<circle cx="1039.25" cy="161.25" r="1.25" fill="#626475"/>
<circle cx="1079.25" cy="161.25" r="1.25" fill="#626475"/>
<circle cx="1119.25" cy="161.25" r="1.25" fill="#626475"/>
<circle cx="1159.25" cy="161.25" r="1.25" fill="#626475"/>
<circle cx="1.25" cy="201.25" r="1.25" fill="#626475"/>
<circle cx="41.25" cy="201.25" r="1.25" fill="#626475"/>
<circle cx="81.25" cy="201.25" r="1.25" fill="#626475"/>
<circle cx="121.25" cy="201.25" r="1.25" fill="#626475"/>
<circle cx="161.25" cy="201.25" r="1.25" fill="#626475"/>
<circle cx="201.25" cy="201.25" r="1.25" fill="#626475"/>
<circle cx="241.25" cy="201.25" r="1.25" fill="#626475"/>
<circle cx="281.25" cy="201.25" r="1.25" fill="#626475"/>
<circle cx="321.25" cy="201.25" r="1.25" fill="#626475"/>
<circle cx="361.25" cy="201.25" r="1.25" fill="#626475"/>
<circle cx="400.25" cy="201.25" r="1.25" fill="#626475"/>
<circle cx="440.25" cy="201.25" r="1.25" fill="#626475"/>
<circle cx="480.25" cy="201.25" r="1.25" fill="#626475"/>
<circle cx="520.25" cy="201.25" r="1.25" fill="#626475"/>
<circle cx="560.25" cy="201.25" r="1.25" fill="#626475"/>
<circle cx="600.25" cy="201.25" r="1.25" fill="#626475"/>
<circle cx="640.25" cy="201.25" r="1.25" fill="#626475"/>
<circle cx="680.25" cy="201.25" r="1.25" fill="#626475"/>
<circle cx="720.25" cy="201.25" r="1.25" fill="#626475"/>
<circle cx="760.25" cy="201.25" r="1.25" fill="#626475"/>
<circle cx="800.25" cy="201.25" r="1.25" fill="#626475"/>
<circle cx="839.25" cy="201.25" r="1.25" fill="#626475"/>
<circle cx="879.25" cy="201.25" r="1.25" fill="#626475"/>
<circle cx="919.25" cy="201.25" r="1.25" fill="#626475"/>
<circle cx="959.25" cy="201.25" r="1.25" fill="#626475"/>
<circle cx="999.25" cy="201.25" r="1.25" fill="#626475"/>
<circle cx="1039.25" cy="201.25" r="1.25" fill="#626475"/>
<circle cx="1079.25" cy="201.25" r="1.25" fill="#626475"/>
<circle cx="1119.25" cy="201.25" r="1.25" fill="#626475"/>
<circle cx="1159.25" cy="201.25" r="1.25" fill="#626475"/>
<circle cx="1.25" cy="241.25" r="1.25" fill="#626475"/>
<circle cx="41.25" cy="241.25" r="1.25" fill="#626475"/>
<circle cx="81.25" cy="241.25" r="1.25" fill="#626475"/>
<circle cx="121.25" cy="241.25" r="1.25" fill="#626475"/>
<circle cx="161.25" cy="241.25" r="1.25" fill="#626475"/>
<circle cx="201.25" cy="241.25" r="1.25" fill="#626475"/>
<circle cx="241.25" cy="241.25" r="1.25" fill="#626475"/>
<circle cx="281.25" cy="241.25" r="1.25" fill="#626475"/>
<circle cx="321.25" cy="241.25" r="1.25" fill="#626475"/>
<circle cx="361.25" cy="241.25" r="1.25" fill="#626475"/>
<circle cx="400.25" cy="241.25" r="1.25" fill="#626475"/>
<circle cx="440.25" cy="241.25" r="1.25" fill="#626475"/>
<circle cx="480.25" cy="241.25" r="1.25" fill="#626475"/>
<circle cx="520.25" cy="241.25" r="1.25" fill="#626475"/>
<circle cx="560.25" cy="241.25" r="1.25" fill="#626475"/>
<circle cx="600.25" cy="241.25" r="1.25" fill="#626475"/>
<circle cx="640.25" cy="241.25" r="1.25" fill="#626475"/>
<circle cx="680.25" cy="241.25" r="1.25" fill="#626475"/>
<circle cx="720.25" cy="241.25" r="1.25" fill="#626475"/>
<circle cx="760.25" cy="241.25" r="1.25" fill="#626475"/>
<circle cx="800.25" cy="241.25" r="1.25" fill="#626475"/>
<circle cx="839.25" cy="241.25" r="1.25" fill="#626475"/>
<circle cx="879.25" cy="241.25" r="1.25" fill="#626475"/>
<circle cx="919.25" cy="241.25" r="1.25" fill="#626475"/>
<circle cx="959.25" cy="241.25" r="1.25" fill="#626475"/>
<circle cx="999.25" cy="241.25" r="1.25" fill="#626475"/>
<circle cx="1039.25" cy="241.25" r="1.25" fill="#626475"/>
<circle cx="1079.25" cy="241.25" r="1.25" fill="#626475"/>
<circle cx="1119.25" cy="241.25" r="1.25" fill="#626475"/>
<circle cx="1159.25" cy="241.25" r="1.25" fill="#626475"/>
<circle cx="1.25" cy="281.25" r="1.25" fill="#626475"/>
<circle cx="41.25" cy="281.25" r="1.25" fill="#626475"/>
<circle cx="81.25" cy="281.25" r="1.25" fill="#626475"/>
<circle cx="121.25" cy="281.25" r="1.25" fill="#626475"/>
<circle cx="161.25" cy="281.25" r="1.25" fill="#626475"/>
<circle cx="201.25" cy="281.25" r="1.25" fill="#626475"/>
<circle cx="241.25" cy="281.25" r="1.25" fill="#626475"/>
<circle cx="281.25" cy="281.25" r="1.25" fill="#626475"/>
<circle cx="321.25" cy="281.25" r="1.25" fill="#626475"/>
<circle cx="361.25" cy="281.25" r="1.25" fill="#626475"/>
<circle cx="400.25" cy="281.25" r="1.25" fill="#626475"/>
<circle cx="440.25" cy="281.25" r="1.25" fill="#626475"/>
<circle cx="480.25" cy="281.25" r="1.25" fill="#626475"/>
<circle cx="520.25" cy="281.25" r="1.25" fill="#626475"/>
<circle cx="560.25" cy="281.25" r="1.25" fill="#626475"/>
<circle cx="600.25" cy="281.25" r="1.25" fill="#626475"/>
<circle cx="640.25" cy="281.25" r="1.25" fill="#626475"/>
<circle cx="680.25" cy="281.25" r="1.25" fill="#626475"/>
<circle cx="720.25" cy="281.25" r="1.25" fill="#626475"/>
<circle cx="760.25" cy="281.25" r="1.25" fill="#626475"/>
<circle cx="800.25" cy="281.25" r="1.25" fill="#626475"/>
<circle cx="839.25" cy="281.25" r="1.25" fill="#626475"/>
<circle cx="879.25" cy="281.25" r="1.25" fill="#626475"/>
<circle cx="919.25" cy="281.25" r="1.25" fill="#626475"/>
<circle cx="959.25" cy="281.25" r="1.25" fill="#626475"/>
<circle cx="999.25" cy="281.25" r="1.25" fill="#626475"/>
<circle cx="1039.25" cy="281.25" r="1.25" fill="#626475"/>
<circle cx="1079.25" cy="281.25" r="1.25" fill="#626475"/>
<circle cx="1119.25" cy="281.25" r="1.25" fill="#626475"/>
<circle cx="1159.25" cy="281.25" r="1.25" fill="#626475"/>
<circle cx="1.25" cy="321.25" r="1.25" fill="#626475"/>
<circle cx="41.25" cy="321.25" r="1.25" fill="#626475"/>
<circle cx="81.25" cy="321.25" r="1.25" fill="#626475"/>
<circle cx="121.25" cy="321.25" r="1.25" fill="#626475"/>
<circle cx="161.25" cy="321.25" r="1.25" fill="#626475"/>
<circle cx="201.25" cy="321.25" r="1.25" fill="#626475"/>
<circle cx="241.25" cy="321.25" r="1.25" fill="#626475"/>
<circle cx="281.25" cy="321.25" r="1.25" fill="#626475"/>
<circle cx="321.25" cy="321.25" r="1.25" fill="#626475"/>
<circle cx="361.25" cy="321.25" r="1.25" fill="#626475"/>
<circle cx="400.25" cy="321.25" r="1.25" fill="#626475"/>
<circle cx="440.25" cy="321.25" r="1.25" fill="#626475"/>
<circle cx="480.25" cy="321.25" r="1.25" fill="#626475"/>
<circle cx="520.25" cy="321.25" r="1.25" fill="#626475"/>
<circle cx="560.25" cy="321.25" r="1.25" fill="#626475"/>
<circle cx="600.25" cy="321.25" r="1.25" fill="#626475"/>
<circle cx="640.25" cy="321.25" r="1.25" fill="#626475"/>
<circle cx="680.25" cy="321.25" r="1.25" fill="#626475"/>
<circle cx="720.25" cy="321.25" r="1.25" fill="#626475"/>
<circle cx="760.25" cy="321.25" r="1.25" fill="#626475"/>
<circle cx="800.25" cy="321.25" r="1.25" fill="#626475"/>
<circle cx="839.25" cy="321.25" r="1.25" fill="#626475"/>
<circle cx="879.25" cy="321.25" r="1.25" fill="#626475"/>
<circle cx="919.25" cy="321.25" r="1.25" fill="#626475"/>
<circle cx="959.25" cy="321.25" r="1.25" fill="#626475"/>
<circle cx="999.25" cy="321.25" r="1.25" fill="#626475"/>
<circle cx="1039.25" cy="321.25" r="1.25" fill="#626475"/>
<circle cx="1079.25" cy="321.25" r="1.25" fill="#626475"/>
<circle cx="1119.25" cy="321.25" r="1.25" fill="#626475"/>
<circle cx="1159.25" cy="321.25" r="1.25" fill="#626475"/>
<circle cx="1.25" cy="361.25" r="1.25" fill="#626475"/>
<circle cx="41.25" cy="361.25" r="1.25" fill="#626475"/>
<circle cx="81.25" cy="361.25" r="1.25" fill="#626475"/>
<circle cx="121.25" cy="361.25" r="1.25" fill="#626475"/>
<circle cx="161.25" cy="361.25" r="1.25" fill="#626475"/>
<circle cx="201.25" cy="361.25" r="1.25" fill="#626475"/>
<circle cx="241.25" cy="361.25" r="1.25" fill="#626475"/>
<circle cx="281.25" cy="361.25" r="1.25" fill="#626475"/>
<circle cx="321.25" cy="361.25" r="1.25" fill="#626475"/>
<circle cx="361.25" cy="361.25" r="1.25" fill="#626475"/>
<circle cx="400.25" cy="361.25" r="1.25" fill="#626475"/>
<circle cx="440.25" cy="361.25" r="1.25" fill="#626475"/>
<circle cx="480.25" cy="361.25" r="1.25" fill="#626475"/>
<circle cx="520.25" cy="361.25" r="1.25" fill="#626475"/>
<circle cx="560.25" cy="361.25" r="1.25" fill="#626475"/>
<circle cx="600.25" cy="361.25" r="1.25" fill="#626475"/>
<circle cx="640.25" cy="361.25" r="1.25" fill="#626475"/>
<circle cx="680.25" cy="361.25" r="1.25" fill="#626475"/>
<circle cx="720.25" cy="361.25" r="1.25" fill="#626475"/>
<circle cx="760.25" cy="361.25" r="1.25" fill="#626475"/>
<circle cx="800.25" cy="361.25" r="1.25" fill="#626475"/>
<circle cx="839.25" cy="361.25" r="1.25" fill="#626475"/>
<circle cx="879.25" cy="361.25" r="1.25" fill="#626475"/>
<circle cx="919.25" cy="361.25" r="1.25" fill="#626475"/>
<circle cx="959.25" cy="361.25" r="1.25" fill="#626475"/>
<circle cx="999.25" cy="361.25" r="1.25" fill="#626475"/>
<circle cx="1039.25" cy="361.25" r="1.25" fill="#626475"/>
<circle cx="1079.25" cy="361.25" r="1.25" fill="#626475"/>
<circle cx="1119.25" cy="361.25" r="1.25" fill="#626475"/>
<circle cx="1159.25" cy="361.25" r="1.25" fill="#626475"/>
<circle cx="1.25" cy="401.25" r="1.25" fill="#626475"/>
<circle cx="41.25" cy="401.25" r="1.25" fill="#626475"/>
<circle cx="81.25" cy="401.25" r="1.25" fill="#626475"/>
<circle cx="121.25" cy="401.25" r="1.25" fill="#626475"/>
<circle cx="161.25" cy="401.25" r="1.25" fill="#626475"/>
<circle cx="201.25" cy="401.25" r="1.25" fill="#626475"/>
<circle cx="241.25" cy="401.25" r="1.25" fill="#626475"/>
<circle cx="281.25" cy="401.25" r="1.25" fill="#626475"/>
<circle cx="321.25" cy="401.25" r="1.25" fill="#626475"/>
<circle cx="361.25" cy="401.25" r="1.25" fill="#626475"/>
<circle cx="400.25" cy="401.25" r="1.25" fill="#626475"/>
<circle cx="440.25" cy="401.25" r="1.25" fill="#626475"/>
<circle cx="480.25" cy="401.25" r="1.25" fill="#626475"/>
<circle cx="520.25" cy="401.25" r="1.25" fill="#626475"/>
<circle cx="560.25" cy="401.25" r="1.25" fill="#626475"/>
<circle cx="600.25" cy="401.25" r="1.25" fill="#626475"/>
<circle cx="640.25" cy="401.25" r="1.25" fill="#626475"/>
<circle cx="680.25" cy="401.25" r="1.25" fill="#626475"/>
<circle cx="720.25" cy="401.25" r="1.25" fill="#626475"/>
<circle cx="760.25" cy="401.25" r="1.25" fill="#626475"/>
<circle cx="800.25" cy="401.25" r="1.25" fill="#626475"/>
<circle cx="839.25" cy="401.25" r="1.25" fill="#626475"/>
<circle cx="879.25" cy="401.25" r="1.25" fill="#626475"/>
<circle cx="919.25" cy="401.25" r="1.25" fill="#626475"/>
<circle cx="959.25" cy="401.25" r="1.25" fill="#626475"/>
<circle cx="999.25" cy="401.25" r="1.25" fill="#626475"/>
<circle cx="1039.25" cy="401.25" r="1.25" fill="#626475"/>
<circle cx="1079.25" cy="401.25" r="1.25" fill="#626475"/>
<circle cx="1119.25" cy="401.25" r="1.25" fill="#626475"/>
<circle cx="1159.25" cy="401.25" r="1.25" fill="#626475"/>
<circle cx="1.25" cy="441.25" r="1.25" fill="#626475"/>
<circle cx="41.25" cy="441.25" r="1.25" fill="#626475"/>
<circle cx="81.25" cy="441.25" r="1.25" fill="#626475"/>
<circle cx="121.25" cy="441.25" r="1.25" fill="#626475"/>
<circle cx="161.25" cy="441.25" r="1.25" fill="#626475"/>
<circle cx="201.25" cy="441.25" r="1.25" fill="#626475"/>
<circle cx="241.25" cy="441.25" r="1.25" fill="#626475"/>
<circle cx="281.25" cy="441.25" r="1.25" fill="#626475"/>
<circle cx="321.25" cy="441.25" r="1.25" fill="#626475"/>
<circle cx="361.25" cy="441.25" r="1.25" fill="#626475"/>
<circle cx="400.25" cy="441.25" r="1.25" fill="#626475"/>
<circle cx="440.25" cy="441.25" r="1.25" fill="#626475"/>
<circle cx="480.25" cy="441.25" r="1.25" fill="#626475"/>
<circle cx="520.25" cy="441.25" r="1.25" fill="#626475"/>
<circle cx="560.25" cy="441.25" r="1.25" fill="#626475"/>
<circle cx="600.25" cy="441.25" r="1.25" fill="#626475"/>
<circle cx="640.25" cy="441.25" r="1.25" fill="#626475"/>
<circle cx="680.25" cy="441.25" r="1.25" fill="#626475"/>
<circle cx="720.25" cy="441.25" r="1.25" fill="#626475"/>
<circle cx="760.25" cy="441.25" r="1.25" fill="#626475"/>
<circle cx="800.25" cy="441.25" r="1.25" fill="#626475"/>
<circle cx="839.25" cy="441.25" r="1.25" fill="#626475"/>
<circle cx="879.25" cy="441.25" r="1.25" fill="#626475"/>
<circle cx="919.25" cy="441.25" r="1.25" fill="#626475"/>
<circle cx="959.25" cy="441.25" r="1.25" fill="#626475"/>
<circle cx="999.25" cy="441.25" r="1.25" fill="#626475"/>
<circle cx="1039.25" cy="441.25" r="1.25" fill="#626475"/>
<circle cx="1079.25" cy="441.25" r="1.25" fill="#626475"/>
<circle cx="1119.25" cy="441.25" r="1.25" fill="#626475"/>
<circle cx="1159.25" cy="441.25" r="1.25" fill="#626475"/>
</svg>
