<svg width="177" height="177" viewBox="0 0 177 177" fill="none" xmlns="http://www.w3.org/2000/svg">
<circle cx="88.5" cy="88.5" r="88.5" fill="#4353FF"/>
<path d="M88.499 65.9997C76.092 65.9997 65.9994 76.0924 65.9994 88.4993C65.9994 100.906 76.092 110.999 88.499 110.999C100.906 110.999 110.999 100.906 110.999 88.4993C110.999 76.0924 100.906 65.9997 88.499 65.9997ZM82.3434 95.3778C81.9248 95.7964 81.2462 95.7964 80.8277 95.3778L74.6535 89.2022C74.2349 88.7836 74.2349 88.1051 74.6535 87.6865L80.7205 81.618C81.1391 81.1995 81.8177 81.1995 82.2362 81.618C82.6548 82.0366 82.6548 82.7152 82.2362 83.1337L76.9263 88.4436L82.3434 93.8607C82.7619 94.2792 82.7619 94.9592 82.3434 95.3778ZM92.4046 74.711L86.6904 102.716C86.5747 103.301 85.9919 103.671 85.4262 103.552C84.8476 103.433 84.4733 102.868 84.5919 102.288L90.3061 74.2824C90.4247 73.7025 90.9875 73.331 91.5704 73.4467C92.1489 73.5653 92.5232 74.131 92.4046 74.711ZM102.343 89.3108L96.276 95.3792C95.8574 95.7978 95.1789 95.7978 94.7603 95.3792C94.3417 94.9607 94.3417 94.2821 94.7603 93.8635L100.07 88.5536L94.6532 83.1366C94.2346 82.718 94.2346 82.0395 94.6532 81.6209C95.0717 81.2023 95.7503 81.2023 96.1689 81.6209L102.343 87.7965C102.762 88.2151 102.762 88.8922 102.343 89.3108Z" fill="white"/>
<path d="M127.07 80.0309H120.613C119.852 77.1295 118.704 74.361 117.196 71.7781L121.76 67.2139C123.29 65.6825 123.29 63.1911 121.76 61.6583L115.339 55.237C113.853 53.7513 111.263 53.7527 109.783 55.237L105.219 59.8012C102.635 58.2927 99.8662 57.147 96.9663 56.3841V49.9285C96.9663 47.7614 95.2049 46 93.0378 46H83.9594C81.7923 46 80.0309 47.7614 80.0309 49.9285V56.3855C77.1309 57.147 74.361 58.2941 71.7781 59.8026L67.2139 55.2398C65.7325 53.7542 63.144 53.7542 61.6583 55.2398L55.237 61.6612C53.707 63.1926 53.707 65.684 55.237 67.2168L59.8012 71.781C58.2927 74.3638 57.147 77.1323 56.3841 80.0337H49.9285C47.7614 80.0337 46 81.7965 46 83.9622V93.0421C46 95.2077 47.7614 96.9706 49.9285 96.9706H56.3855C57.147 99.8691 58.2941 102.639 59.8041 105.222L55.2384 109.787C53.7084 111.319 53.7084 113.81 55.2384 115.343L61.6597 121.764C63.144 123.249 65.734 123.247 67.2154 121.764L71.7796 117.2C74.3638 118.709 77.1323 119.854 80.0323 120.617V127.074C80.0323 129.241 81.7937 131.003 83.9608 131.003H93.0392C95.2063 131.003 96.9677 129.241 96.9677 127.074V120.617C99.8677 119.856 102.638 118.709 105.22 117.2L109.785 121.763C111.266 123.249 113.856 123.249 115.34 121.763L121.762 115.342C123.292 113.81 123.292 111.319 121.762 109.786L117.196 105.222C118.706 102.638 119.852 99.8691 120.614 96.9706H127.071C129.239 96.9706 131 95.2077 131 93.0421V83.9622C131 81.7965 129.239 80.0337 127.071 80.0337L127.07 80.0309ZM88.4993 113.142C74.9109 113.142 63.8568 102.088 63.8568 88.4993C63.8568 74.9109 74.9109 63.8568 88.4993 63.8568C102.088 63.8568 113.142 74.9109 113.142 88.4993C113.142 102.088 102.088 113.142 88.4993 113.142Z" fill="white"/>
</svg>
