<svg width="267" height="267" viewBox="0 0 267 267" fill="none" xmlns="http://www.w3.org/2000/svg">
<rect width="267" height="267" rx="51" fill="url(#paint0_linear_1065_174)"/>
<rect x="7" y="7" width="253" height="253" rx="43" fill="#D9D9D9"/>
<rect x="7" y="7" width="253" height="253" rx="43" fill="url(#paint1_linear_1065_174)"/>
<rect x="11" y="11" width="245" height="245" rx="43" fill="#D9D9D9"/>
<rect x="11" y="11" width="245" height="245" rx="43" fill="url(#paint2_linear_1065_174)"/>
<g style="mix-blend-mode:soft-light">
<path fill-rule="evenodd" clip-rule="evenodd" d="M91.2909 166.799V168.272C91.2909 169.464 91.6787 170.518 93.2037 170.518C94.325 170.518 94.8155 169.491 94.8155 168.436C94.8155 166.692 93.3964 166.029 92.1422 165.248C90.6618 164.39 89.4084 163.586 88.5109 162.536C87.6302 161.476 87.111 160.204 87.111 158.372C87.111 154.467 89.4339 152.469 93.1496 152.469C97.3343 152.469 99.4637 155.297 99.2415 159.201H94.8155C94.7598 157.986 94.8155 156.323 93.2308 156.212C92.2497 156.128 91.6787 156.687 91.5657 157.597C91.4271 158.845 92.0602 159.483 93.0134 160.148C94.8147 161.314 96.3715 162.034 97.496 163.085C98.614 164.143 99.2686 165.528 99.2686 168.051C99.2686 172.04 97.0835 174.258 93.0954 174.258C88.6933 174.258 86.8426 171.767 86.8426 169.021V166.801H91.2909V166.799ZM100.649 163.117C100.649 159.122 102.974 157.791 106.33 157.791C110.157 157.791 112.012 159.618 112.012 163.117V169.433C111.789 172.953 109.636 174.256 106.33 174.256C103.214 174.256 100.649 172.983 100.649 169.433V163.117ZM104.996 169.712C105.075 170.6 105.433 171.07 106.33 171.07C107.232 171.07 107.584 170.6 107.67 169.712V162.779C107.67 161.786 107.341 160.978 106.33 160.978C105.319 160.978 104.996 161.786 104.996 162.779V169.712ZM113.705 152.972H118.052V173.752H113.705V152.972ZM120.215 158.233H124.544V173.751H120.215V158.233ZM120.215 149.221H124.544V152.965H120.215V149.221ZM133.716 173.753V171.956H133.665C132.868 173.456 131.558 174.257 130.277 174.257C127.108 174.145 126.477 171.126 126.477 168.491V163.118C126.477 160.677 127.325 157.792 130.195 157.792C131.345 157.792 132.458 158.292 133.357 159.65H133.415V152.972H137.762V173.753H133.716ZM130.822 168.157C130.822 169.076 130.822 170.654 132.075 170.654C133.25 170.654 133.415 169.464 133.415 167.963V164.306C133.415 162.976 133.221 161.367 132.156 161.4C130.769 161.4 130.822 163.147 130.822 164.143V168.157ZM145.929 173.753H143.112L138.747 152.972H141.259L143.93 167.302C144.177 168.712 144.371 170.154 144.54 172.093H144.589C144.78 170.489 144.943 168.964 145.247 167.466L148.25 152.972H151.058L153.772 167.302C154.009 168.687 154.172 170.071 154.365 172.093H154.424C154.61 170.489 154.775 168.964 155.08 167.466L158.052 152.972H160.57L155.761 173.753H152.949L150.219 159.65C149.947 158.292 149.785 156.907 149.615 154.633H149.56C149.373 156.632 149.205 158.149 148.907 159.65L145.929 173.753ZM165.382 174.173C162.108 174.173 159.951 172.176 159.951 165.528C159.951 160.865 161.642 157.93 165.382 157.93C169.127 157.93 170.824 160.866 170.824 165.528C170.824 172.203 168.716 174.173 165.382 174.173ZM165.382 159.788C163.176 159.788 162.189 161.557 162.189 166.221C162.189 169.85 162.871 172.318 165.382 172.318C167.949 172.318 168.577 169.85 168.577 166.221C168.576 161.558 167.654 159.788 165.382 159.788ZM174.906 160.865H174.962C175.861 158.844 177.149 157.986 179.409 158.186V160.345C176.625 159.844 174.983 161.617 174.983 164.414V173.753H172.826V158.35H174.905L174.906 160.865ZM180.96 173.753V152.972H183.112V165.528L188.357 158.349H190.925L186.234 164.334L191.064 173.753H188.553L184.75 166.081L183.112 168.272V173.753H180.96ZM198.305 162.478C198.39 160.646 197.74 159.788 195.902 159.788C194.373 159.788 193.498 160.512 193.498 162.119C193.498 164.109 195.111 164.364 196.59 164.997C198.769 166.001 200.957 166.551 200.957 169.433C200.957 172.372 198.937 174.203 195.817 174.172C194.479 174.203 192.847 173.732 192.049 172.566C191.15 171.348 191.202 170.322 191.202 169.267H193.256C193.176 171.153 193.802 172.318 195.818 172.318C197.575 172.318 198.721 171.594 198.721 169.71C198.721 167.523 196.534 167.327 194.977 166.659C192.629 165.776 191.261 164.971 191.261 162.286C191.261 159.617 193.094 157.928 195.716 157.928C198.721 157.928 200.466 159.321 200.411 162.477L198.305 162.478Z" fill="white"/>
<path fill-rule="evenodd" clip-rule="evenodd" d="M95.9096 122C87.7806 119.56 78.9206 121.681 77.5684 122.044C75.5218 122.594 74.3233 123.15 74.4069 123.799C74.4706 124.28 74.993 124.611 77.5079 124.547C83.5019 124.4 88.4678 124.606 91.607 125.498C95.4947 126.599 95.9733 128.63 94.0478 132.622C93.1575 134.466 91.8411 136.372 89.8479 138.397C85.8678 142.449 80.8931 145.085 78.0908 146.526C75.3665 147.928 74.3695 147.183 74.6721 145.799C75.0448 144.105 82.7748 130.531 82.7748 130.531C83.3562 129.501 83.4589 128.533 82.7748 128.244C82.1887 127.991 81.1264 128.827 80.0227 130.122C75.5107 135.438 67.189 151.615 67.0345 152.145C66.8824 152.654 67.2742 152.718 67.4231 152.721C70.9461 152.694 92.5745 146.203 99.5528 132.938C103.23 125.952 101.37 123.641 95.9096 122Z" fill="white"/>
<path fill-rule="evenodd" clip-rule="evenodd" d="M106.683 115.619C102.316 119.451 108.793 125.764 111.837 129.382C114.803 132.9 118.39 137.367 118.557 138.9C118.635 139.603 118.496 140.402 117.666 140.925C116.309 141.783 110.71 142.614 99.1237 142.604C96.6088 142.602 96.096 142.85 96.0331 143.307C95.9972 143.546 95.92 144.1 99.1173 144.915C99.2049 144.939 112.395 147.401 119.429 144.915C126.616 142.428 124.808 138.227 123.519 135.802C121.534 132.064 112.374 121.198 111.619 119.722C110.913 118.339 111.942 117.733 111.942 117.733C111.942 117.733 113.474 115.863 125.687 115.97C128.203 115.989 128.726 115.722 128.785 115.263C128.834 114.883 128.117 114.057 125.723 113.537C123.464 113.045 111.921 111.025 106.683 115.619Z" fill="white"/>
<path fill-rule="evenodd" clip-rule="evenodd" d="M90.93 93.0533C89.9553 93.3425 87.9932 93.8911 88.1588 94.6183C88.2647 95.0837 88.6541 95.3051 90.9348 95.3035C96.0345 95.2971 99.9995 95.6332 102.714 96.1277C108.236 97.1393 106.935 99.9665 105.365 102.673C101.559 109.259 91.2741 116.67 90.6768 117.09C89.8924 117.637 90.3216 117.956 91.0073 117.698C99.3457 114.551 107.748 109.124 111.142 102.531C114.021 96.9389 111.956 94.2871 107.569 93.0363C99.7351 90.7998 91.6141 92.8488 90.93 93.0533Z" fill="white"/>
</g>
<defs>
<linearGradient id="paint0_linear_1065_174" x1="133.5" y1="0" x2="133.5" y2="267" gradientUnits="userSpaceOnUse">
<stop stop-color="#6D7AFF"/>
<stop offset="0.435" stop-color="#2631AB"/>
<stop offset="1" stop-color="#4353FF"/>
</linearGradient>
<linearGradient id="paint1_linear_1065_174" x1="236.5" y1="249.5" x2="21" y2="32.5" gradientUnits="userSpaceOnUse">
<stop stop-color="#6D7AFF"/>
<stop offset="0.435" stop-color="#2631AB"/>
<stop offset="1" stop-color="#4353FF"/>
</linearGradient>
<linearGradient id="paint2_linear_1065_174" x1="133.5" y1="11" x2="87" y2="268" gradientUnits="userSpaceOnUse">
<stop stop-color="#4353FF"/>
<stop offset="1" stop-color="#6D7AFF"/>
</linearGradient>
</defs>
</svg>
