<svg width="267" height="267" viewBox="0 0 267 267" fill="none" xmlns="http://www.w3.org/2000/svg">
<rect width="267" height="267" rx="51" fill="url(#paint0_linear_1065_264)"/>
<rect x="7" y="7" width="253" height="253" rx="43" fill="#D9D9D9"/>
<rect x="7" y="7" width="253" height="253" rx="43" fill="url(#paint1_linear_1065_264)"/>
<rect x="11" y="11" width="245" height="245" rx="43" fill="#D9D9D9"/>
<rect x="11" y="11" width="245" height="245" rx="43" fill="url(#paint2_linear_1065_264)"/>
<g style="mix-blend-mode:soft-light">
<path d="M158.984 111.586L142.861 116.851L128.833 123.042L124.909 124.078C123.91 125.028 122.862 125.991 121.728 126.966C120.485 128.039 119.327 129.014 118.438 129.721C117.451 130.501 115.988 131.963 115.245 132.889C114.136 134.278 113.258 135.753 112.88 136.887C112.21 138.934 112.539 141.006 113.831 142.919C115.488 145.357 118.791 147.843 122.642 149.537C124.605 150.402 127.907 151.511 130.393 152.133C134.525 153.181 142.52 154.314 146.919 154.485C147.808 154.521 149.003 154.521 149.052 154.485C149.149 154.424 149.832 153.12 150.624 151.499C153.33 145.978 155.279 140.799 156.34 136.375C156.973 133.694 157.473 130.123 157.802 125.894C157.887 124.712 157.924 120.751 157.851 119.41C157.741 117.217 157.546 115.437 157.241 113.695C157.193 113.439 157.18 113.207 157.205 113.195C157.253 113.158 157.4 113.11 159.386 112.537L158.984 111.586V111.586H158.984V111.586ZM155.304 113.743C155.45 113.743 155.84 117.484 155.937 119.849C155.962 120.349 155.95 120.678 155.925 120.678C155.828 120.678 153.866 119.52 152.464 118.643C151.246 117.875 148.93 116.339 148.565 116.047C148.442 115.961 148.455 115.949 149.454 115.608C151.148 115.035 155.17 113.743 155.304 113.743ZM147.09 116.449C147.2 116.449 147.48 116.607 148.15 117.021C150.66 118.594 154.073 120.495 155.535 121.129C155.986 121.324 156.035 121.25 154.999 121.957C152.781 123.469 150.014 124.955 146.626 126.454C146.029 126.722 145.53 126.93 145.518 126.93C145.493 126.93 145.566 126.625 145.664 126.259C146.48 123.225 146.943 120.153 146.968 117.692C146.98 116.473 146.98 116.473 147.09 116.437C147.065 116.449 147.077 116.449 147.09 116.449ZM145.396 117.095C145.469 117.168 145.42 119.898 145.323 120.641C145.103 122.42 144.762 124.078 144.202 125.943C144.067 126.393 143.945 126.771 143.921 126.795C143.872 126.856 142.203 125.223 141.654 124.59C140.704 123.493 139.96 122.396 139.412 121.323C139.132 120.775 138.693 119.703 138.729 119.666C138.924 119.532 145.347 117.046 145.396 117.095ZM137.425 120.227C137.437 120.227 137.45 120.227 137.462 120.239C137.486 120.263 137.572 120.458 137.645 120.677C138.035 121.738 138.912 123.298 139.668 124.297C140.496 125.394 141.581 126.564 142.483 127.332C142.775 127.575 143.043 127.807 143.08 127.844C143.153 127.917 143.178 127.904 141.191 128.66C138.888 129.538 136.377 130.415 133.501 131.341C132.814 131.563 132.127 131.786 131.442 132.012C131.332 132.048 131.368 131.987 131.685 131.488C133.111 129.257 135.28 124.882 136.499 121.787C136.706 121.25 136.913 120.714 136.95 120.592C136.999 120.422 137.06 120.361 137.218 120.275C137.303 120.251 137.389 120.227 137.425 120.227ZM134.988 121.238C135.025 121.263 134.403 122.567 133.794 123.761C132.611 126.064 131.32 128.331 129.589 131.085C129.297 131.561 129.016 132 128.98 132.048C128.919 132.134 128.894 132.109 128.699 131.731C128.285 130.915 127.944 129.867 127.761 128.904C127.578 127.953 127.615 126.296 127.822 125.272C127.98 124.517 127.968 124.529 128.334 124.346C129.894 123.554 134.939 121.189 134.988 121.238ZM156.011 122.091V122.603C156.011 125.321 155.718 129.05 155.292 131.768C155.218 132.243 155.157 132.633 155.145 132.645C155.145 132.645 154.792 132.548 154.378 132.426C152.55 131.853 150.563 131.012 148.771 130.025C147.589 129.379 145.871 128.319 145.92 128.27C145.932 128.258 146.444 127.99 147.041 127.673C149.43 126.43 151.721 125.089 153.707 123.761C154.451 123.261 155.572 122.457 155.816 122.238L156.011 122.091ZM125.787 125.699C125.835 125.699 125.823 125.796 125.75 126.235C125.701 126.552 125.64 127.137 125.616 127.539C125.518 129.318 125.811 130.634 126.688 132.438C126.932 132.938 127.127 133.352 127.115 133.364C127.03 133.437 118.962 135.802 116.427 136.496C115.671 136.704 115.013 136.886 114.964 136.898C114.879 136.923 114.867 136.911 114.903 136.703C115.184 134.912 116.549 132.572 118.45 130.598C119.717 129.282 120.729 128.514 122.459 127.526C123.703 126.82 125.616 125.76 125.762 125.711C125.762 125.699 125.774 125.699 125.787 125.699ZM144.799 129.099C144.811 129.087 145.103 129.245 145.457 129.452C148.065 130.964 151.696 132.365 154.792 133.084L155.072 133.145L154.682 133.364C153.061 134.266 147.736 136.484 142.288 138.519C141.496 138.812 140.716 139.104 140.569 139.165C140.423 139.226 140.289 139.263 140.289 139.251C140.289 139.238 140.509 138.812 140.789 138.288C142.312 135.436 143.848 131.963 144.628 129.55C144.725 129.318 144.786 129.111 144.799 129.099ZM142.861 129.733C142.873 129.745 142.776 130.001 142.654 130.293C141.593 132.865 140.204 135.668 138.425 138.812C137.974 139.617 137.596 140.262 137.584 140.262C137.572 140.262 137.206 140.043 136.767 139.775C134.183 138.191 131.892 136.241 130.393 134.352L130.174 134.083L131.283 133.779C135.256 132.694 138.632 131.524 141.983 130.086C142.459 129.891 142.849 129.733 142.861 129.733ZM154.902 133.937C154.914 134.217 154.292 136.728 153.78 138.544C153.354 140.067 152.988 141.262 152.318 143.37C152.025 144.296 151.77 145.064 151.757 145.064C151.745 145.064 151.672 145.052 151.599 145.028C147.979 144.369 144.738 143.455 141.691 142.237C140.838 141.895 139.619 141.347 139.546 141.286C139.522 141.261 140.253 140.92 141.179 140.518C146.724 138.093 152.476 135.338 154.451 134.156C154.682 134.01 154.865 133.937 154.902 133.937ZM127.103 134.888C127.127 134.912 125.579 137.142 123.41 140.177C122.654 141.237 121.777 142.48 121.448 142.943C121.119 143.407 120.619 144.138 120.339 144.577L119.827 145.369L119.278 144.906C118.633 144.369 117.511 143.224 117.012 142.59C115.964 141.286 115.257 139.909 114.977 138.654C114.842 138.069 114.842 137.776 114.964 137.74C115.147 137.691 118.401 136.923 121.448 136.216C123.142 135.826 125.104 135.363 125.811 135.193C126.518 135.022 127.091 134.888 127.103 134.888ZM128.663 135.485L129.053 135.924C130.808 137.886 132.599 139.336 134.769 140.604C135.159 140.823 135.451 141.018 135.427 141.03C135.341 141.091 127.895 143.736 124.446 144.93C122.508 145.612 120.912 146.161 120.9 146.161C120.888 146.161 120.778 146.088 120.656 146.002L120.436 145.844L120.79 145.332C121.935 143.675 123.374 141.859 126.506 138.081L128.663 135.485ZM138.388 142.444C138.4 142.432 138.936 142.626 139.594 142.871C141.179 143.468 142.434 143.845 144.116 144.272C146.188 144.796 149.186 145.308 150.953 145.454C151.221 145.478 151.368 145.503 151.319 145.539C151.233 145.588 149.442 146.185 148.126 146.6C146.029 147.258 139.631 149.147 134.415 150.646C133.452 150.926 132.624 151.158 132.575 151.17C132.453 151.194 132.051 151.084 132.051 151.036C132.051 151.011 132.343 150.634 132.697 150.219C134.452 148.123 136.194 145.783 137.645 143.565C138.047 142.956 138.388 142.456 138.388 142.444ZM136.243 142.505C136.255 142.517 135.39 143.906 133.879 146.295C133.233 147.306 132.514 148.452 132.258 148.854C132.014 149.244 131.649 149.854 131.441 150.195L131.088 150.816L130.905 150.768C130.466 150.646 127.383 149.561 126.566 149.232C125.555 148.83 124.507 148.342 123.727 147.928C122.752 147.404 121.533 146.624 121.631 146.6C121.655 146.588 123.325 146.136 125.335 145.588C130.674 144.138 133.635 143.297 135.573 142.688C135.926 142.578 136.231 142.492 136.243 142.505ZM151.416 146.063H151.428C151.477 146.185 149.503 151.669 148.784 153.4C148.625 153.79 148.565 153.888 148.479 153.875C148.272 153.863 145.408 153.461 143.665 153.205C140.631 152.742 135.536 151.852 134.257 151.56L133.964 151.499L135.78 151.084C139.68 150.207 141.557 149.732 143.458 149.147C145.859 148.415 148.235 147.501 150.636 146.38C151.014 146.209 151.331 146.075 151.416 146.063Z" fill="white"/>
<path d="M142.361 74.0006C142.093 73.9643 137.766 75.5242 134.976 76.6575C131.21 78.1932 128.285 79.6558 126.481 80.9229C125.811 81.3984 124.97 82.2393 124.836 82.5682C124.787 82.6901 124.763 82.8364 124.763 82.9826L126.396 84.5304L130.284 85.7735L139.534 87.431L150.112 89.2469L150.222 88.3329C150.185 88.3329 150.161 88.3207 150.125 88.3207L148.735 88.1013L148.455 87.6016C147.017 85.0666 145.432 81.9223 144.506 79.8018C143.787 78.1565 143.105 76.2555 142.727 74.8904C142.52 74.0617 142.495 74.013 142.361 74.0008V74.0006H142.361V74.0006ZM142.166 74.6224H142.179C142.19 74.6344 142.239 74.9759 142.288 75.3778C142.495 77.0842 142.873 78.7293 143.47 80.5086C143.921 81.8493 143.921 81.7762 143.397 81.6177C142.154 81.2766 136.585 80.3137 132.551 79.7532C131.905 79.6678 131.356 79.5825 131.356 79.5704C131.307 79.5217 134.269 77.9738 135.573 77.3646C137.243 76.5966 141.825 74.6832 142.166 74.6224ZM130.418 80.0821L130.893 80.2404C133.477 81.118 139.972 82.3611 143.555 82.6536C143.957 82.6902 144.299 82.7268 144.311 82.7268C144.323 82.739 143.982 82.9218 143.543 83.1289C141.813 83.9942 139.911 85.0545 138.595 85.8711C138.205 86.1147 137.852 86.3098 137.803 86.3098C137.754 86.3098 137.499 86.2611 137.23 86.2245L136.743 86.1512L135.524 84.9568C133.379 82.873 131.698 81.2643 131.052 80.6548L130.418 80.0821ZM129.93 80.4599L131.649 82.6049C132.587 83.787 133.538 84.9448 133.745 85.2006C133.952 85.4567 134.123 85.6639 134.111 85.6761C134.062 85.7126 131.625 85.2372 130.332 84.9449C129.004 84.6401 128.456 84.4939 127.639 84.238L126.969 84.0186V83.8478C126.981 83.0313 128.017 81.8126 129.772 80.5697L129.93 80.4599ZM144.53 83.3848C144.579 83.3848 144.64 83.4945 144.786 83.8235C145.201 84.7375 146.493 87.1994 146.809 87.6746C146.907 87.8332 147.077 87.8454 145.359 87.5651C141.228 86.8946 139.899 86.6755 139.899 86.6511C139.899 86.6389 140.021 86.5536 140.18 86.4682C141.459 85.7615 142.751 84.8596 143.897 83.8967C144.177 83.6651 144.433 83.4458 144.482 83.4092C144.494 83.3848 144.518 83.3727 144.53 83.3848Z" fill="white"/>
<path d="M124.921 82.3976C124.921 82.3976 124.653 82.8244 124.909 83.4581C125.068 83.848 125.531 84.3232 126.055 84.8108C126.055 84.8108 131.478 90.1 132.136 90.8557C135.134 94.3167 136.438 97.7292 136.56 102.433C136.633 105.456 136.06 108.113 134.634 111.196C132.099 116.729 126.749 122.835 118.499 129.611L119.705 129.209C120.485 128.624 121.546 128.002 124.032 126.637C129.772 123.493 136.231 120.604 144.153 117.631C155.559 113.341 174.316 108.32 184.991 106.687L186.101 106.516L185.93 106.248C184.955 104.737 184.285 103.798 183.48 102.799C181.14 99.8984 178.301 97.5464 174.827 95.5964C170.05 92.9275 163.871 90.8435 156.047 89.2957C154.573 89.0031 151.331 88.4426 148.698 88.0404C143.117 87.1753 139.509 86.578 135.536 85.8956C134.11 85.6517 131.977 85.2862 130.564 84.9816C129.833 84.823 128.431 84.494 127.334 84.1162C126.457 83.7748 125.189 83.4336 124.921 82.3976ZM128.066 85.4446C128.078 85.4325 128.273 85.5054 128.529 85.5908C128.992 85.749 129.589 85.9319 130.296 86.127C130.831 86.2742 131.367 86.4163 131.905 86.5535C132.636 86.7362 133.245 86.9069 133.257 86.9069C133.343 86.9923 134.574 90.9285 134.988 92.4397C135.146 93.0127 135.268 93.5 135.256 93.5C135.244 93.5124 135.11 93.3051 134.951 93.0248C133.525 90.5142 131.271 87.9671 128.663 85.9196C128.322 85.6761 128.066 85.4567 128.066 85.4446ZM134.062 87.102C134.123 87.102 134.391 87.1386 134.72 87.2116C136.792 87.6747 140.509 88.3816 142.885 88.7838C143.287 88.8447 143.604 88.918 143.604 88.9422C143.604 88.9667 143.458 89.0518 143.275 89.1495C142.873 89.3566 141.252 90.3192 140.716 90.6849C139.363 91.5868 138.144 92.5617 137.267 93.4392C136.913 93.7927 136.609 94.0851 136.609 94.0851C136.609 94.0851 136.536 93.878 136.475 93.6219C136.036 91.9279 135.122 89.4173 134.293 87.6503C134.159 87.3701 134.049 87.1141 134.049 87.0898C134.049 87.1141 134.049 87.102 134.062 87.102ZM144.616 89.1129C144.689 89.1371 144.811 89.5516 145.054 90.4655C145.505 92.2328 145.713 94.2071 145.639 96.0473C145.615 96.5592 145.591 97.0344 145.566 97.0955L145.53 97.2172L144.896 97.0101C143.592 96.5958 141.471 95.9741 139.656 95.4623C138.62 95.182 137.779 94.9261 137.779 94.9018C137.779 94.8285 139.29 93.3174 139.936 92.7447C141.167 91.6598 144.506 89.0762 144.616 89.1129ZM145.457 89.2346C145.493 89.1982 150.502 90.0633 152.781 90.5021C154.475 90.8311 156.937 91.343 157.083 91.4041C157.156 91.4283 156.9 91.5746 156.084 91.9402C152.866 93.3906 150.478 94.6944 148.101 96.2789C147.48 96.6932 146.956 97.0344 146.944 97.0344C146.931 97.0344 146.919 96.6811 146.919 96.2545C146.919 93.939 146.456 91.599 145.603 89.6247C145.518 89.4297 145.444 89.247 145.457 89.2346ZM158.411 91.794C158.448 91.8306 158.29 92.8178 158.143 93.4027C157.705 95.2186 156.523 97.9121 155.072 100.447C154.816 100.898 154.585 101.263 154.56 101.276C154.536 101.288 154.207 101.105 153.829 100.886C152.416 100.057 150.807 99.2769 149.052 98.5456C148.564 98.3385 148.138 98.1677 148.126 98.1436C148.04 98.0703 151.965 95.4745 154.036 94.2314C155.682 93.2321 158.363 91.7452 158.411 91.794ZM159.338 91.9402C159.447 91.9402 161.666 92.5496 162.823 92.8909C165.687 93.744 168.978 94.9505 171.123 95.9254L172.012 96.3278L171.391 96.4739C166.15 97.6803 161.666 99.0699 157.339 100.825C156.986 100.971 156.669 101.093 156.645 101.093C156.62 101.093 156.742 100.813 156.9 100.471C158.204 97.7048 159.045 94.8164 159.252 92.3545C159.265 92.1229 159.301 91.9402 159.338 91.9402ZM137.255 97.0101C137.291 96.9735 138.985 97.3758 139.899 97.6315C141.289 98.0216 144.238 99.0087 144.238 99.0819C144.238 99.094 143.909 99.3743 143.519 99.7157C141.922 101.044 140.387 102.445 138.546 104.225C137.998 104.749 137.535 105.176 137.511 105.176C137.486 105.176 137.474 105.102 137.486 105.005C137.766 102.957 137.706 100.325 137.316 97.656C137.279 97.3146 137.243 97.0223 137.255 97.0101ZM172.853 97.0468C172.877 97.071 172.073 98.3385 171.561 99.0574C170.83 100.105 169.758 101.495 167.332 104.542C166.053 106.15 164.615 107.966 164.14 108.576C163.652 109.185 163.25 109.697 163.237 109.697C163.225 109.697 163.067 109.478 162.896 109.209C161.531 107.162 159.898 105.37 157.96 103.762C157.595 103.457 157.193 103.128 157.059 103.03C156.925 102.933 156.815 102.836 156.815 102.823C156.815 102.787 158.887 101.897 160.459 101.263C163.213 100.142 166.967 98.8016 169.782 97.9363C171.257 97.4732 172.829 97.0223 172.853 97.0468ZM173.792 97.2904C173.84 97.2783 174.133 97.4245 174.486 97.6315C177.448 99.3255 180.348 101.507 182.64 103.75C183.285 104.383 184.882 106.041 184.857 106.053C184.857 106.053 184.297 106.102 183.639 106.15C178.508 106.541 171.939 107.625 165.626 109.148C165.2 109.246 164.822 109.331 164.798 109.331C164.774 109.331 165.249 108.856 165.846 108.283C169.551 104.712 171.245 102.458 173.243 98.4359C173.524 97.8389 173.767 97.327 173.792 97.2904C173.78 97.2904 173.78 97.2904 173.792 97.2904ZM146.651 100.069C146.822 100.106 148.406 100.849 149.6 101.446C150.697 101.994 152.342 102.872 152.428 102.945C152.44 102.957 151.855 103.262 151.136 103.615C148.845 104.761 146.883 105.846 144.835 107.089C144.25 107.442 143.763 107.735 143.75 107.735C143.702 107.735 143.714 107.686 144.043 107.089C145.14 105.09 146.017 102.702 146.517 100.374C146.566 100.191 146.614 100.069 146.651 100.069ZM145.067 100.362C145.103 100.398 144.689 101.897 144.433 102.714C143.933 104.261 143.092 106.199 142.276 107.662C142.081 108.003 141.788 108.502 141.63 108.783L141.325 109.27L140.643 108.612C139.851 107.844 139.205 107.369 138.376 106.942C138.047 106.772 137.791 106.626 137.791 106.601C137.791 106.504 139.875 104.615 141.471 103.25C142.617 102.263 145.03 100.325 145.067 100.362ZM154.756 104.347L155.353 104.737C156.717 105.626 158.326 106.809 159.557 107.844C160.252 108.417 161.592 109.624 161.861 109.916L162.007 110.075L161.02 110.355C155.438 111.903 151.124 113.28 146.09 115.132C145.53 115.34 145.054 115.51 145.018 115.51C144.945 115.51 144.884 115.571 146.139 114.413C149.357 111.452 152.208 108.186 154.329 105.005L154.756 104.347ZM152.208 104.981C152.233 105.005 150.563 107.357 149.564 108.685C148.369 110.27 146.249 112.926 144.786 114.657C144.177 115.376 143.653 115.973 143.629 115.985C143.592 115.998 143.58 115.815 143.58 115.534C143.58 114.06 143.202 112.488 142.544 111.147C142.264 110.586 142.215 110.452 142.276 110.392C142.507 110.184 146.054 108.161 148.296 106.955C149.807 106.15 152.171 104.956 152.208 104.981ZM136.804 108.759C136.84 108.759 137.121 108.905 137.438 109.075C138.217 109.502 138.912 109.977 139.534 110.489C139.558 110.513 139.241 110.769 138.827 111.074C137.669 111.903 135.914 113.231 134.891 114.048C133.818 114.901 133.782 114.925 133.903 114.742C134.708 113.512 135.11 112.817 135.536 111.927C135.914 111.135 136.292 110.197 136.56 109.38C136.657 109.027 136.779 108.759 136.804 108.759ZM140.911 111.976C140.972 111.964 141.045 112.073 141.374 112.561C142.069 113.597 142.605 114.986 142.739 116.107L142.763 116.351L141.094 116.997C138.108 118.155 135.354 119.301 133.489 120.153C132.965 120.397 132.051 120.836 131.454 121.129C130.856 121.433 130.369 121.665 130.369 121.653C130.369 121.64 130.747 121.36 131.21 121.019C134.854 118.374 138.01 115.474 140.375 112.573C140.631 112.268 140.862 111.988 140.886 111.976L140.911 111.976ZM139.022 112.439C139.071 112.488 137.681 114.06 136.731 115.023C134.379 117.424 132.051 119.301 129.162 121.129C128.797 121.36 128.468 121.567 128.431 121.592C128.346 121.64 128.456 121.518 129.723 120.141C130.527 119.276 131.137 118.545 131.831 117.643C132.295 117.046 132.38 116.961 133.05 116.485C134.842 115.193 138.973 112.39 139.022 112.439Z" fill="white"/>
<path d="M86.2475 162.902C86.0227 162.902 85.7978 162.924 85.575 162.924C81.0341 163.166 77.9715 165.164 76.1808 169.067C74.6493 172.596 74.8165 177.21 76.198 180.761C77.8045 184.231 80.4003 186.062 84.7332 186.754C85.65 186.904 86.2647 187.407 88.0403 189.48L90.2251 192.04H94.1875L91.5527 189.384C90.0963 187.927 88.9182 186.659 88.9182 186.548C88.9182 186.437 89.4754 186.192 90.1498 185.987C92.3731 185.314 94.2194 183.596 95.5109 180.964C96.5561 178.85 96.7062 178.197 96.856 175.567C97.248 167.738 93.1206 162.844 86.2473 162.9L86.2475 162.902ZM89.7215 183.374C87.7939 184.308 84.9947 184.494 83.1676 183.824C81.2785 183.13 79.4494 181.168 78.6267 178.947C77.7122 176.518 77.8428 172.037 78.8881 170.019C80.5694 166.807 82.7928 165.329 86.0419 165.329C90.861 165.329 93.6026 168.281 93.9603 173.828C94.2431 178.459 92.6923 181.933 89.7236 183.372L89.7215 183.374ZM158.171 169.589C156.509 169.589 155.237 170.262 154.38 171.587L153.707 172.637V169.908H150.831V186.272H153.705V181.042C153.705 176.259 153.765 175.7 154.433 174.391C155.354 172.596 156.939 171.701 158.471 172.129L159.499 172.429V169.593H158.171V169.589ZM141.272 169.439C140.708 169.439 140.111 169.514 139.515 169.645C135.666 170.651 133.497 174.335 133.629 178.126C133.629 181.301 134.246 182.888 135.778 184.552C138.916 187.126 141.754 187.332 145.583 185.951C146.237 185.672 146.948 185.351 146.948 185.351V182.777L145.583 183.483C142.484 184.833 140.149 184.833 138.279 183.243C137.087 182.029 136.562 180.572 136.32 178.911H147.918V176.704C147.918 172.206 145.211 169.366 141.269 169.439H141.272ZM136.581 176.614C136.581 176.614 137.009 173.809 138.599 172.708C139.363 172.168 140.241 171.907 141.1 171.907C141.961 171.907 142.82 172.185 143.529 172.727C144.986 173.847 145.23 176.593 145.23 176.593H136.581V176.614H136.581ZM67.2342 173.663C64.1158 171.774 62.7321 170.411 62.9013 168.805C63.3853 164.361 68.8771 164.975 71.9184 166.657L71.9401 163.667C71.9401 163.667 70.2586 162.939 67.849 162.9C64.1521 162.844 61.7618 164.057 60.6418 166.524C58.9967 170.165 60.4533 172.911 65.7181 175.974C68.6738 177.694 69.9802 179.187 69.9802 180.814C69.9802 184.177 65.9257 185.351 61.7428 183.241C60.8819 182.813 60.1536 182.455 60.115 182.455C59.965 183.408 60.0424 185.689 60.0424 185.689C60.0424 185.689 61.3275 186.229 63.255 186.601C68.0354 187.555 72.3857 185.312 72.7969 181.671C73.1546 178.253 71.9185 176.46 67.2344 173.66L67.2342 173.663ZM183.629 169.401C183.068 169.401 182.472 169.478 181.851 169.608C178.007 170.615 175.841 174.299 175.989 178.09C175.989 181.26 176.604 182.832 178.135 184.494C181.273 187.071 184.111 187.279 187.96 185.895C188.611 185.617 189.32 185.3 189.32 185.3V182.721L187.958 183.432C184.852 184.777 182.517 184.777 180.654 183.188C179.454 181.976 178.934 180.536 178.692 178.855H190.271V176.649C190.271 172.172 187.563 169.33 183.622 169.405L183.629 169.401ZM178.938 176.576C178.938 176.576 179.371 173.774 180.958 172.652C181.72 172.11 182.599 171.849 183.457 171.849C184.314 171.849 185.177 172.127 185.887 172.671C187.343 173.791 187.587 176.556 187.587 176.556H178.94L178.938 176.576ZM126.214 173.699C123.096 171.815 121.716 170.448 121.884 168.841C122.368 164.395 127.859 165.012 130.901 166.693L130.922 163.703C130.922 163.703 129.241 162.975 126.831 162.941C123.134 162.885 120.744 164.097 119.622 166.565C117.979 170.206 119.455 172.952 124.702 176.015C127.654 177.732 128.96 179.206 128.96 180.834C128.96 184.196 124.908 185.39 120.725 183.26C119.868 182.832 119.14 182.478 119.097 182.478C118.947 183.432 119.024 185.713 119.024 185.713C119.024 185.713 120.294 186.233 122.216 186.625C127.001 187.58 131.353 185.34 131.762 181.699C132.118 178.298 130.884 176.505 126.214 173.703V173.699H126.214ZM200.53 169.551C198.868 169.551 197.581 170.225 196.739 171.551L196.066 172.596V169.872H193.19V186.231H196.064V181.001C196.064 176.22 196.122 175.659 196.793 174.353C197.714 172.56 199.298 171.663 200.83 172.093L201.858 172.393V169.551L200.53 169.551ZM103.339 173.605V163.183H100.44V186.268H112.635V183.541H103.34V173.605H103.339ZM170.405 176.854L168.015 183.074L165.716 176.82L163.382 169.889H160.413C162.337 175.342 164.429 180.889 166.539 186.268C167.454 186.289 168.37 186.268 169.285 186.268L172.513 178.163L175.8 169.891H172.963C172.963 169.891 171.709 173.177 170.403 176.856L170.405 176.854ZM110.022 156.892C110.489 156.892 110.879 156.742 111.2 156.421C111.517 156.104 111.684 155.731 111.684 155.264C111.684 154.797 111.517 154.407 111.2 154.108C110.879 153.808 110.508 153.658 110.043 153.658C109.572 153.658 109.182 153.808 108.865 154.125C108.544 154.442 108.398 154.832 108.398 155.281C108.398 155.753 108.548 156.142 108.865 156.438C109.165 156.738 109.555 156.888 110.022 156.888V156.892ZM108.994 154.236C109.272 153.958 109.611 153.829 110.043 153.829C110.45 153.829 110.789 153.958 111.072 154.236C111.35 154.515 111.5 154.853 111.5 155.264C111.5 155.675 111.35 156.031 111.072 156.309C110.789 156.588 110.45 156.721 110.043 156.721C109.63 156.721 109.294 156.592 109.015 156.309C108.737 156.031 108.587 155.675 108.587 155.264C108.587 154.853 108.716 154.515 108.994 154.236ZM109.686 155.414H109.874C110.007 155.414 110.138 155.543 110.249 155.787L110.474 156.292H110.827L110.549 155.731C110.436 155.506 110.324 155.376 110.193 155.339C110.358 155.3 110.489 155.245 110.583 155.133C110.677 155.037 110.712 154.906 110.712 154.758C110.712 154.587 110.658 154.459 110.545 154.365C110.416 154.257 110.211 154.2 109.945 154.2H109.35V156.292H109.649V155.414L109.686 155.414ZM109.686 154.442H109.947C110.136 154.442 110.268 154.48 110.341 154.536C110.412 154.592 110.431 154.665 110.431 154.797C110.431 155.039 110.281 155.153 110.003 155.153H109.682V154.442H109.686ZM61.781 155.228C61.781 154.5 61.7596 153.958 61.7425 153.639H61.7596C61.8345 154.015 61.9267 154.296 62.0016 154.482L64.7859 160.702H65.2529L68.0372 154.427C68.1124 154.256 68.1873 153.998 68.2794 153.641H68.3007C68.2451 154.262 68.2259 154.802 68.2259 155.232V160.722H69.1788V152.561H67.9837L65.4243 158.237C65.3299 158.462 65.1993 158.798 65.0323 159.244H64.9935C64.9379 159.023 64.8073 158.687 64.621 158.276L62.1192 152.542H60.8492V160.702H61.7659V155.232L61.781 155.228ZM71.2672 155.243H72.0899V160.326H71.2672V155.243ZM71.6785 153.379C71.85 153.379 71.9956 153.322 72.1069 153.208C72.2205 153.097 72.2955 152.951 72.2955 152.78C72.2955 152.613 72.2397 152.463 72.1092 152.351C71.9935 152.238 71.8456 152.18 71.6764 152.18C71.5095 152.18 71.3596 152.238 71.248 152.351C71.1348 152.463 71.0596 152.613 71.0596 152.78C71.0596 152.966 71.1175 153.097 71.248 153.208C71.3768 153.322 71.5094 153.379 71.6764 153.379H71.6785ZM77.9543 160.437V159.542C77.5044 159.878 77.0203 160.045 76.5192 160.045C75.9197 160.045 75.4332 159.84 75.0777 159.446C74.7244 159.056 74.5359 158.514 74.5359 157.839C74.5359 157.132 74.7244 156.571 75.1141 156.142C75.4889 155.731 75.9753 155.526 76.5707 155.526C77.0569 155.526 77.5236 155.676 77.9544 155.976V155.023C77.5625 154.817 77.1149 154.723 76.6093 154.723C75.6753 154.723 74.9473 155.023 74.4033 155.601C73.8634 156.179 73.585 156.965 73.585 157.914C73.585 158.758 73.8269 159.467 74.3305 160.009C74.8551 160.566 75.5258 160.849 76.3481 160.849C76.984 160.831 77.5044 160.698 77.9543 160.437ZM80.3081 157.727C80.3081 157.057 80.458 156.515 80.7364 156.142C80.9979 155.806 81.3147 155.637 81.6895 155.637C82.0066 155.637 82.2314 155.695 82.3962 155.825V154.853C82.2678 154.797 82.0815 154.778 81.8395 154.778C81.5032 154.778 81.2035 154.891 80.94 155.099C80.6616 155.32 80.4388 155.656 80.3082 156.085H80.2868V154.892H79.3551V160.717H80.2889V157.727H80.3081ZM85.6691 160.833C86.5474 160.833 87.2542 160.55 87.7788 159.989C88.3013 159.432 88.5627 158.683 88.5627 157.749C88.5627 156.796 88.323 156.067 87.8346 155.525C87.3506 154.984 86.6779 154.722 85.7996 154.722C84.9214 154.722 84.2146 154.984 83.6899 155.489C83.1288 156.046 82.8332 156.832 82.8332 157.841C82.8332 158.719 83.0731 159.447 83.5787 159.989C84.1012 160.55 84.7931 160.831 85.6691 160.831V160.833ZM84.3412 156.087C84.6968 155.712 85.1638 155.525 85.7419 155.525C86.3419 155.525 86.7916 155.712 87.1257 156.087C87.4619 156.479 87.6291 157.038 87.6291 157.785C87.6291 158.496 87.4791 159.055 87.162 159.43C86.8452 159.822 86.3782 160.03 85.7612 160.03C85.1616 160.03 84.6968 159.822 84.3412 159.43C83.9879 159.036 83.8186 158.496 83.8186 157.785C83.7823 157.078 83.9686 156.5 84.3412 156.087ZM92.6517 160.326C93.0072 160.009 93.1958 159.619 93.1958 159.13C93.1958 158.702 93.0457 158.346 92.7674 158.066C92.5402 157.841 92.1892 157.637 91.6815 157.432C91.2315 157.244 90.9532 157.076 90.8032 156.946C90.6533 156.796 90.5612 156.61 90.5612 156.346C90.5612 156.104 90.6555 155.918 90.8398 155.768C91.0282 155.618 91.2682 155.545 91.5895 155.545C92.0928 155.545 92.5232 155.678 92.9172 155.958V155.024C92.5403 154.836 92.1312 154.746 91.6642 154.746C91.0646 154.746 90.5591 154.911 90.1862 155.23C89.7942 155.547 89.608 155.959 89.608 156.442C89.608 156.871 89.7364 157.226 89.9805 157.488C90.1861 157.71 90.5377 157.938 91.0258 158.141C91.4929 158.347 91.8098 158.533 91.9789 158.683C92.1459 158.833 92.2209 159.019 92.2209 159.24C92.2209 159.784 91.8483 160.064 91.12 160.064C90.5588 160.064 90.0557 159.88 89.6056 159.508V160.514C90.0126 160.758 90.501 160.87 91.0407 160.87C91.7326 160.833 92.2743 160.664 92.6471 160.328L92.6517 160.326ZM97.0982 154.722C96.2198 154.722 95.5131 154.984 94.9884 155.489C94.4315 156.046 94.1317 156.832 94.1317 157.841C94.1317 158.719 94.3738 159.448 94.8771 159.989C95.4018 160.551 96.0914 160.831 96.9697 160.831C97.8692 160.831 98.5547 160.549 99.0794 159.987C99.6042 159.43 99.8654 158.681 99.8654 157.747C99.8654 156.794 99.6212 156.066 99.1371 155.524C98.6319 154.982 97.9591 154.72 97.1023 154.72L97.0982 154.722ZM98.9101 157.785C98.9101 158.496 98.7602 159.055 98.4432 159.43C98.1262 159.822 97.6592 160.03 97.0423 160.03C96.4424 160.03 95.9778 159.822 95.6221 159.43C95.2688 159.036 95.0996 158.496 95.0996 157.785C95.0996 157.036 95.2861 156.458 95.6609 156.067C96.0141 155.695 96.4813 155.506 97.0616 155.506C97.6398 155.506 98.1047 155.695 98.4409 156.067C98.7408 156.479 98.9079 157.038 98.9079 157.785H98.9101ZM101.433 160.7H102.365V155.656H103.729V154.872H102.365V153.973C102.365 153.155 102.682 152.744 103.337 152.744C103.558 152.744 103.783 152.799 103.95 152.893V152.052C103.783 151.977 103.558 151.96 103.277 151.96C102.774 151.96 102.363 152.11 102.026 152.427C101.634 152.799 101.427 153.283 101.427 153.939V154.894H100.441V155.678H101.427V160.703L101.433 160.7ZM105.261 159.111C105.261 160.251 105.764 160.831 106.792 160.831C107.165 160.831 107.445 160.771 107.67 160.638V159.837C107.499 159.966 107.295 160.026 107.071 160.026C106.754 160.026 106.531 159.951 106.4 159.781C106.267 159.615 106.193 159.332 106.193 158.942V155.654H107.67V154.87H106.193V153.153C105.871 153.264 105.556 153.358 105.259 153.452V154.87H104.252V155.654H105.259V159.109L105.261 159.111ZM205.499 169.85C205.182 169.551 204.807 169.4 204.343 169.4C203.872 169.4 203.482 169.551 203.165 169.872C202.848 170.187 202.698 170.578 202.698 171.028C202.698 171.495 202.848 171.885 203.162 172.185C203.479 172.485 203.869 172.635 204.34 172.635C204.805 172.635 205.197 172.485 205.519 172.168C205.833 171.847 206 171.476 206 171.011C205.983 170.54 205.814 170.15 205.497 169.85L205.499 169.85ZM205.349 172.056C205.071 172.335 204.733 172.463 204.321 172.463C203.914 172.463 203.576 172.335 203.293 172.056C203.015 171.774 202.865 171.42 202.865 171.007C202.865 170.6 202.993 170.262 203.276 169.979C203.554 169.701 203.891 169.572 204.321 169.572C204.728 169.572 205.067 169.701 205.349 169.979C205.628 170.262 205.778 170.6 205.778 171.007C205.778 171.44 205.649 171.774 205.349 172.056ZM204.51 171.103C204.677 171.065 204.81 170.99 204.902 170.898C204.996 170.801 205.03 170.67 205.03 170.521C205.03 170.354 204.977 170.221 204.863 170.129C204.735 170.022 204.527 169.964 204.264 169.964H203.668V172.054H203.968V171.176H204.155C204.283 171.176 204.412 171.304 204.527 171.549L204.75 172.052H205.106L204.827 171.491C204.731 171.247 204.619 171.135 204.506 171.099L204.51 171.103ZM204.304 170.915H203.983V170.208H204.246C204.433 170.208 204.563 170.242 204.638 170.3C204.713 170.356 204.73 170.429 204.73 170.562C204.73 170.804 204.581 170.915 204.302 170.915L204.304 170.915ZM152.195 154.63H152.457V152.538H153.148V152.276H151.503V152.538H152.195V154.63H152.195ZM153.78 153.058C153.78 152.855 153.78 152.688 153.765 152.594C153.782 152.705 153.821 152.78 153.838 152.836L154.641 154.63H154.77L155.575 152.818C155.597 152.763 155.614 152.69 155.65 152.594C155.633 152.78 155.633 152.929 155.633 153.043V154.628H155.911V152.276H155.575L154.847 153.9C154.83 153.958 154.772 154.071 154.735 154.2H154.714C154.699 154.125 154.661 154.05 154.607 153.922L153.879 152.277H153.502V154.633H153.765V153.061L153.78 153.058Z" fill="white"/>
</g>
<defs>
<linearGradient id="paint0_linear_1065_264" x1="133.5" y1="0" x2="133.5" y2="267" gradientUnits="userSpaceOnUse">
<stop stop-color="#6D7AFF"/>
<stop offset="0.435" stop-color="#2631AB"/>
<stop offset="1" stop-color="#4353FF"/>
</linearGradient>
<linearGradient id="paint1_linear_1065_264" x1="236.5" y1="249.5" x2="21" y2="32.5" gradientUnits="userSpaceOnUse">
<stop stop-color="#6D7AFF"/>
<stop offset="0.435" stop-color="#2631AB"/>
<stop offset="1" stop-color="#4353FF"/>
</linearGradient>
<linearGradient id="paint2_linear_1065_264" x1="133.5" y1="11" x2="87" y2="268" gradientUnits="userSpaceOnUse">
<stop stop-color="#4353FF"/>
<stop offset="1" stop-color="#6D7AFF"/>
</linearGradient>
</defs>
</svg>
