<svg width="267" height="267" viewBox="0 0 267 267" fill="none" xmlns="http://www.w3.org/2000/svg">
<rect width="267" height="267" rx="51" fill="url(#paint0_linear_1065_255)"/>
<rect x="7" y="7" width="253" height="253" rx="43" fill="#D9D9D9"/>
<rect x="7" y="7" width="253" height="253" rx="43" fill="url(#paint1_linear_1065_255)"/>
<rect x="11" y="11" width="245" height="245" rx="43" fill="#D9D9D9"/>
<rect x="11" y="11" width="245" height="245" rx="43" fill="url(#paint2_linear_1065_255)"/>
<g style="mix-blend-mode:soft-light">
<path fill-rule="evenodd" clip-rule="evenodd" d="M135.654 79.0099C159.06 78.5114 178.477 96.9741 179.204 120.359C195.673 122.768 207.989 136.724 208.321 153.38C207.428 172.008 192.309 186.816 173.639 187.273H101.055C78.4179 187.833 59.6023 169.973 59 147.336C59.3323 127.378 74.1813 110.639 93.9731 107.96C100.286 90.4114 117.005 78.7814 135.654 79.0099ZM166.017 127.42V155.622H178.955V161.687H158.561V127.42H166.017ZM102.55 139.195C103.817 140.275 105.25 141.147 106.787 141.77C109.404 142.829 111.73 144.449 113.661 146.485C115.032 148.105 115.779 150.181 115.738 152.3C116.07 155.103 115.053 157.886 112.996 159.838C110.131 161.832 106.683 162.787 103.215 162.58C100.141 162.684 97.0883 161.998 94.347 160.586V152.881C96.8391 155.103 100.037 156.349 103.381 156.37C104.689 156.432 105.998 156.121 107.119 155.456C107.95 154.854 108.448 153.899 108.448 152.881C108.448 151.843 107.991 150.887 107.202 150.223C105.603 149.018 103.879 148.001 102.052 147.232C96.4237 144.761 93.7655 141.438 93.7655 137.201C93.6824 134.335 94.97 131.594 97.2545 129.829C99.8297 127.835 103.028 126.838 106.288 127.004C109.113 126.901 111.917 127.337 114.575 128.334V135.457C112.166 133.754 109.238 132.923 106.288 133.048C105.042 132.986 103.817 133.339 102.799 134.045C101.969 134.605 101.512 135.54 101.553 136.537C101.533 137.035 101.616 137.513 101.782 137.97C101.948 138.427 102.218 138.842 102.55 139.195ZM150.254 135.706C153.93 141.604 153.93 149.06 150.254 154.958C148.343 157.99 145.394 160.233 141.968 161.251L152.165 170.368H142.134L134.99 162.081C132.061 161.977 129.216 161.126 126.703 159.589C124.232 158.156 122.238 156.017 120.971 153.463C119.684 150.887 118.998 148.063 118.978 145.176C118.915 141.895 119.663 138.634 121.137 135.706C122.529 133.131 124.647 131.013 127.202 129.58C129.922 128.043 133.017 127.274 136.153 127.337C139.06 127.316 141.905 128.043 144.439 129.476C146.931 130.95 148.966 133.11 150.254 135.706ZM135.654 155.789C138.105 155.851 140.431 154.792 141.968 152.881C143.754 150.472 144.584 147.481 144.294 144.512C144.481 141.583 143.691 138.676 142.051 136.225C140.638 134.19 138.292 133.048 135.82 133.152C133.307 133.152 130.919 134.273 129.341 136.225C127.596 138.614 126.745 141.542 126.932 144.512C126.745 147.461 127.596 150.41 129.341 152.798C130.836 154.771 133.183 155.872 135.654 155.789Z" fill="white"/>
</g>
<defs>
<linearGradient id="paint0_linear_1065_255" x1="133.5" y1="0" x2="133.5" y2="267" gradientUnits="userSpaceOnUse">
<stop stop-color="#6D7AFF"/>
<stop offset="0.435" stop-color="#2631AB"/>
<stop offset="1" stop-color="#4353FF"/>
</linearGradient>
<linearGradient id="paint1_linear_1065_255" x1="236.5" y1="249.5" x2="21" y2="32.5" gradientUnits="userSpaceOnUse">
<stop stop-color="#6D7AFF"/>
<stop offset="0.435" stop-color="#2631AB"/>
<stop offset="1" stop-color="#4353FF"/>
</linearGradient>
<linearGradient id="paint2_linear_1065_255" x1="133.5" y1="11" x2="87" y2="268" gradientUnits="userSpaceOnUse">
<stop stop-color="#4353FF"/>
<stop offset="1" stop-color="#6D7AFF"/>
</linearGradient>
</defs>
</svg>
