<svg width="267" height="267" viewBox="0 0 267 267" fill="none" xmlns="http://www.w3.org/2000/svg">
<rect width="267" height="267" rx="51" fill="url(#paint0_linear_1065_275)"/>
<rect x="7" y="7" width="253" height="253" rx="43" fill="#D9D9D9"/>
<rect x="7" y="7" width="253" height="253" rx="43" fill="url(#paint1_linear_1065_275)"/>
<rect x="11" y="11" width="245" height="245" rx="43" fill="#D9D9D9"/>
<rect x="11" y="11" width="245" height="245" rx="43" fill="url(#paint2_linear_1065_275)"/>
<g style="mix-blend-mode:soft-light">
<path d="M61.4455 115.876V117.682H58.2141V118.858H61.4455V122.456H62.7087V118.858H66.0208V117.682H62.7087V114.077H61.4455V115.876Z" fill="white"/>
<path d="M50.885 120.458V123.08H45.9939V124.725H50.885V130.05H52.699V124.725H57.6636V123.08H52.699V117.837H50.885V120.458Z" fill="white"/>
<path d="M71.3824 120.458V123.08H66.4912V124.806H71.3824V130.05H73.2698V124.806H78.1609V123.08H73.2698V117.837H71.3824V120.458Z" fill="white"/>
<path d="M60.9759 129.389V132.326H55.5339V134.515H60.9759V140.39H63.1791V134.515H68.621V132.326H63.1791V126.451H60.9759V129.389Z" fill="white"/>
<path d="M76.9787 130.872V132.716H73.6665V134.207H76.9787V137.886H78.6311V134.207H81.9433V132.716H78.6311V129.036H76.9787V130.872Z" fill="white"/>
<path d="M45.4431 131.034V132.797H42.2117V134.045H45.4431V137.57H46.7062V134.045L50.0184 133.928V132.797H46.7062V129.271H45.4431V131.034Z" fill="white"/>
<path d="M50.885 139.333V141.955H45.9939V143.68H50.885V148.924H52.7725V143.68H57.6636V141.955H52.7725V136.711H50.885V139.333Z" fill="white"/>
<path d="M71.3824 139.333V141.955H66.4912V143.6H71.3824V148.924H73.2698V143.6H78.1609V141.955H73.2698V136.711H71.3824V139.333Z" fill="white"/>
<path d="M61.2917 145.994V147.83H57.9795V149.321H61.2917V153H62.9441V149.321H66.2562V147.83H62.9441V144.15H61.2917V145.994Z" fill="white"/>
<path d="M163.139 121.905V144.231H160.62V121.905H163.139ZM100.545 125.041V132.165H107.324V134.515H100.545V142.19H98.0264V134.515H91.2478V132.165H98.0264V125.041H100.545ZM179.384 129.932C179.839 129.954 180.419 130.028 180.684 130.094C180.941 130.16 181.367 130.314 181.624 130.439C181.888 130.557 182.314 130.814 182.571 131.012C182.835 131.21 183.203 131.577 183.394 131.827C183.585 132.077 183.856 132.532 184.003 132.833C184.15 133.134 184.341 133.663 184.429 134.008C184.517 134.353 184.62 135.051 184.701 136.476H175.991L176.042 136.77C176.064 136.931 176.16 137.276 176.233 137.533C176.314 137.79 176.52 138.194 176.681 138.422C176.843 138.65 177.085 138.921 177.21 139.017C177.342 139.112 177.607 139.274 177.805 139.377C177.996 139.472 178.334 139.597 178.554 139.656C178.774 139.715 179.362 139.766 179.891 139.766C180.412 139.766 181.161 139.715 181.55 139.649C181.94 139.582 182.49 139.45 182.769 139.362C183.048 139.274 183.416 139.134 183.577 139.054C183.739 138.973 183.908 138.899 183.952 138.899C184.001 138.899 184.03 139.31 184.032 141.015L184.033 141.25L183.599 141.448C183.357 141.558 182.858 141.734 182.476 141.844C182.094 141.947 181.396 142.079 180.919 142.131C180.265 142.197 179.824 142.197 179.141 142.131C178.642 142.079 177.915 141.947 177.526 141.837C177.137 141.727 176.571 141.507 176.277 141.345C175.976 141.183 175.469 140.809 175.146 140.508C174.816 140.207 174.405 139.715 174.214 139.413C174.023 139.112 173.788 138.598 173.677 138.275C173.567 137.952 173.435 137.387 173.384 137.027C173.325 136.623 173.31 136.057 173.34 135.617C173.362 135.205 173.457 134.588 173.545 134.243C173.633 133.898 173.846 133.333 174.015 132.987C174.184 132.642 174.5 132.15 174.706 131.893C174.919 131.636 175.337 131.24 175.638 131.012C175.939 130.784 176.446 130.498 176.762 130.366C177.07 130.233 177.607 130.079 177.944 130.013C178.348 129.94 178.833 129.91 179.384 129.932ZM205.551 129.815V133.751C205.551 135.918 205.529 138.51 205.433 141.338L204.802 141.529C204.456 141.631 203.759 141.793 203.245 141.874C202.591 141.991 201.967 142.035 201.122 142.035C200.454 142.035 199.683 141.999 199.404 141.955C199.125 141.903 198.574 141.764 198.185 141.639C197.766 141.507 197.222 141.25 196.885 141.029C196.554 140.816 196.099 140.442 195.864 140.185C195.636 139.935 195.313 139.494 195.159 139.215C195.005 138.936 194.792 138.422 194.689 138.084C194.535 137.592 194.491 137.21 194.454 136.322C194.432 135.609 194.454 134.978 194.513 134.633C194.564 134.331 194.696 133.825 194.806 133.502C194.909 133.178 195.151 132.664 195.342 132.363C195.526 132.062 195.923 131.585 196.224 131.306C196.562 130.997 197.002 130.681 197.362 130.505C197.685 130.351 198.155 130.16 198.42 130.087C198.677 130.02 199.316 129.94 199.837 129.918C200.535 129.888 200.939 129.918 201.372 130.006C201.702 130.079 202.194 130.241 202.481 130.373C202.76 130.498 203.002 130.608 203.01 130.601C203.023 130.601 203.03 130.453 203.031 130.264L203.032 129.815H205.551ZM127.586 129.815L127.586 134.712L127.585 135.223C127.58 137.522 127.548 139.778 127.469 141.338L126.837 141.529C126.492 141.631 125.765 141.793 125.221 141.888C124.392 142.028 124.017 142.043 122.82 142.013C121.711 141.984 121.263 141.94 120.771 141.815C120.418 141.72 119.816 141.492 119.427 141.301C119.016 141.095 118.524 140.772 118.245 140.53C117.988 140.295 117.62 139.876 117.444 139.604C117.26 139.325 117.018 138.885 116.915 138.628C116.812 138.371 116.658 137.857 116.585 137.497C116.482 136.968 116.46 136.579 116.489 135.653C116.526 134.765 116.577 134.331 116.702 133.891C116.798 133.568 117.018 133.039 117.187 132.716C117.356 132.393 117.694 131.901 117.943 131.629C118.2 131.35 118.619 130.983 118.876 130.806C119.133 130.637 119.559 130.41 119.824 130.307C120.081 130.204 120.551 130.065 120.866 130.006C121.182 129.947 121.77 129.896 122.166 129.896C122.57 129.896 123.143 129.954 123.451 130.013C123.753 130.079 124.23 130.241 124.516 130.373C124.795 130.498 125.038 130.608 125.045 130.601C125.052 130.601 125.067 130.424 125.067 130.211V129.815H127.586ZM142.326 124.255L142.326 127.987C142.329 130.289 142.35 130.436 142.465 130.402C142.546 130.373 142.928 130.27 143.317 130.16C143.78 130.035 144.338 129.954 144.933 129.918C145.608 129.888 146.005 129.91 146.504 130.006C146.93 130.087 147.437 130.263 147.885 130.483C148.274 130.674 148.788 130.997 149.031 131.21C149.266 131.416 149.64 131.849 149.853 132.172C150.074 132.495 150.345 133.009 150.463 133.325C150.588 133.634 150.742 134.214 150.815 134.618C150.904 135.147 150.926 135.602 150.896 136.322C150.874 136.858 150.793 137.526 150.72 137.805C150.654 138.084 150.478 138.562 150.338 138.863C150.199 139.164 149.919 139.626 149.721 139.884C149.53 140.141 149.141 140.522 148.862 140.735C148.59 140.948 148.091 141.242 147.768 141.389C147.444 141.543 146.908 141.734 146.585 141.822C146.079 141.962 145.755 141.984 144.301 141.991C142.928 141.999 142.48 141.969 141.936 141.852C141.569 141.771 140.96 141.617 140.593 141.514C140.225 141.411 139.902 141.294 139.873 141.264C139.843 141.235 139.807 137.401 139.792 132.738L139.763 124.255H142.326ZM217.933 130.131L217.925 134.067L217.925 134.377C217.925 134.427 217.925 134.476 217.925 134.525L217.926 135.08C217.928 137.524 217.943 137.994 218.04 138.37L218.05 138.41C218.059 138.443 218.069 138.476 218.08 138.51C218.175 138.804 218.351 139.149 218.498 139.325C218.638 139.487 218.932 139.707 219.152 139.81C219.365 139.913 219.776 140.03 220.055 140.067C220.356 140.111 220.782 140.111 221.083 140.067C221.362 140.03 221.774 139.913 221.987 139.81C222.207 139.707 222.501 139.487 222.64 139.325C222.787 139.149 222.971 138.804 223.059 138.51C223.071 138.472 223.081 138.435 223.092 138.396L223.099 138.366C223.19 137.979 223.209 137.28 223.212 132.928L223.213 132.577C223.213 132.517 223.213 132.457 223.213 132.395L223.213 131.429C223.213 131.361 223.213 131.292 223.213 131.223L223.213 130.131H225.791L225.776 134.383C225.77 137.931 225.763 138.539 225.661 138.941L225.652 138.976C225.647 138.994 225.642 139.011 225.637 139.028L225.626 139.063L225.615 139.098C225.526 139.355 225.343 139.744 225.203 139.957C225.064 140.177 224.821 140.478 224.653 140.64C224.491 140.802 224.138 141.059 223.881 141.213C223.624 141.367 223.125 141.58 222.78 141.69C222.383 141.815 221.854 141.91 221.362 141.947C220.922 141.969 220.217 141.969 219.783 141.94C219.291 141.91 218.755 141.815 218.366 141.69C218.014 141.58 217.521 141.367 217.257 141.213C217 141.059 216.655 140.802 216.486 140.64C216.324 140.478 216.075 140.177 215.935 139.957C215.803 139.744 215.619 139.355 215.531 139.098L215.525 139.08L215.514 139.046C215.502 139.012 215.492 138.978 215.482 138.942L215.473 138.905C215.375 138.5 215.366 137.806 215.348 134.383L215.318 130.131H217.933ZM200.505 132.253C200.226 132.253 199.8 132.312 199.565 132.371C199.323 132.437 198.956 132.584 198.743 132.701C198.53 132.819 198.221 133.061 198.052 133.244C197.883 133.428 197.663 133.751 197.553 133.972C197.443 134.185 197.303 134.581 197.237 134.853C197.171 135.117 197.12 135.639 197.12 136.006C197.12 136.373 197.171 136.894 197.237 137.159C197.303 137.431 197.428 137.798 197.524 137.981C197.619 138.165 197.861 138.488 198.06 138.694C198.258 138.907 198.581 139.156 198.772 139.252C198.97 139.355 199.323 139.494 199.565 139.56C199.837 139.641 200.285 139.685 200.806 139.685C201.247 139.685 201.871 139.649 202.18 139.604C202.496 139.56 202.797 139.494 202.841 139.465C202.907 139.428 202.944 138.481 202.966 136.211L202.988 133.002C202.194 132.598 201.754 132.429 201.489 132.363C201.232 132.297 200.792 132.246 200.505 132.253ZM121.593 132.371C121.358 132.437 120.991 132.584 120.778 132.701C120.565 132.819 120.257 133.061 120.088 133.244C119.919 133.428 119.691 133.751 119.589 133.972C119.478 134.185 119.339 134.581 119.273 134.853C119.207 135.117 119.155 135.602 119.155 135.925C119.155 136.248 119.192 136.726 119.236 136.983C119.287 137.24 119.42 137.666 119.544 137.923C119.691 138.231 119.926 138.547 120.227 138.826C120.521 139.098 120.866 139.325 121.167 139.443C121.535 139.59 121.828 139.634 122.585 139.671C123.121 139.693 123.797 139.663 124.157 139.612C124.502 139.56 124.825 139.494 124.876 139.465C124.935 139.428 124.979 138.407 125.016 136.219L125.067 133.032C124.421 132.679 124.061 132.517 123.841 132.444C123.628 132.363 123.128 132.29 122.739 132.275C122.254 132.253 121.895 132.282 121.593 132.371ZM144.735 132.253C144.433 132.26 144.037 132.297 143.868 132.334C143.692 132.371 143.288 132.495 142.957 132.613L142.37 132.819V139.333C143.604 139.656 143.868 139.678 144.69 139.656C145.498 139.634 145.763 139.597 146.152 139.45C146.409 139.347 146.769 139.156 146.938 139.017C147.114 138.885 147.364 138.635 147.496 138.466C147.628 138.297 147.819 137.945 147.915 137.688C148.017 137.431 148.135 136.939 148.179 136.593C148.245 136.123 148.245 135.8 148.172 135.301C148.113 134.853 147.988 134.449 147.804 134.067C147.657 133.751 147.4 133.362 147.239 133.2C147.077 133.039 146.784 132.811 146.585 132.701C146.394 132.584 146.02 132.437 145.755 132.371C145.498 132.297 145.036 132.246 144.735 132.253ZM178.51 132.363C178.275 132.429 177.893 132.598 177.658 132.738C177.423 132.877 177.092 133.149 176.916 133.34C176.747 133.538 176.52 133.861 176.417 134.067C176.314 134.273 176.226 134.471 176.226 134.515C176.226 134.564 177.125 134.593 178.79 134.596L181.866 134.596C181.785 134.016 181.712 133.729 181.653 133.575C181.587 133.428 181.396 133.149 181.227 132.965C181.022 132.738 180.772 132.576 180.485 132.466C180.243 132.385 179.802 132.297 179.501 132.275C179.149 132.26 178.789 132.29 178.51 132.363Z" fill="white"/>
</g>
<defs>
<linearGradient id="paint0_linear_1065_275" x1="133.5" y1="0" x2="133.5" y2="267" gradientUnits="userSpaceOnUse">
<stop stop-color="#6D7AFF"/>
<stop offset="0.435" stop-color="#2631AB"/>
<stop offset="1" stop-color="#4353FF"/>
</linearGradient>
<linearGradient id="paint1_linear_1065_275" x1="236.5" y1="249.5" x2="21" y2="32.5" gradientUnits="userSpaceOnUse">
<stop stop-color="#6D7AFF"/>
<stop offset="0.435" stop-color="#2631AB"/>
<stop offset="1" stop-color="#4353FF"/>
</linearGradient>
<linearGradient id="paint2_linear_1065_275" x1="133.5" y1="11" x2="87" y2="268" gradientUnits="userSpaceOnUse">
<stop stop-color="#4353FF"/>
<stop offset="1" stop-color="#6D7AFF"/>
</linearGradient>
</defs>
</svg>
