<svg width="177" height="177" viewBox="0 0 177 177" fill="none" xmlns="http://www.w3.org/2000/svg">
<circle cx="88.5" cy="88.5" r="88.5" fill="#4353FF"/>
<path d="M128 63.7647V50H114.235V63.7647H118.823V68.3529H114.235V84.2779C109.356 83.682 104.91 81.1069 101.801 77.0081C98.7344 72.9655 94.0685 70.6469 89 70.6469C83.9315 70.6469 79.2658 72.9655 76.1989 77.0081C73.0898 81.1067 68.6438 83.682 63.7647 84.2779V68.3529H59.1765V63.7647H63.7647V50H50V63.7647H54.5882V68.3529H50V128H63.7647V123.412H114.235V128H128V68.3529H123.412V63.7647H128ZM68.3529 118.823H63.7647V88.891C65.3182 88.7364 66.8586 88.4186 68.3529 87.9462V118.823ZM77.5294 93.5882V107.353V118.823H72.9413V85.914C74.5989 84.9473 76.144 83.7654 77.5294 82.4119V93.5882ZM86.7058 118.823H82.1176V107.353H86.7058V118.823ZM86.7058 93.5882H82.1176V77.5293H82.1085C83.4654 76.5049 85.03 75.7995 86.706 75.4626L86.7058 93.5882ZM95.8824 118.823H91.2942V107.353H95.8824V118.823ZM95.8824 77.5294V93.5883H91.2942V75.4628C92.97 75.7998 94.5347 76.5052 95.8916 77.5294H95.8824ZM105.059 118.823H100.471V107.353V93.5882V82.4119C101.856 83.7654 103.401 84.9471 105.059 85.9138V118.823ZM109.647 118.823V87.946C111.141 88.4184 112.682 88.7363 114.235 88.8908V118.823H109.647Z" fill="white"/>
<path d="M80.889 67.1246C85.3615 62.6523 92.6386 62.6523 97.1109 67.1246L100.355 63.8803C94.0941 57.6192 83.906 57.619 77.6447 63.8803L80.889 67.1246Z" fill="white"/>
<path d="M103.6 60.6356L106.844 57.3913C97.0051 47.5519 80.9956 47.5519 71.1563 57.3913L74.4007 60.6356C82.4509 52.5853 95.5495 52.5853 103.6 60.6356Z" fill="white"/>
</svg>
