<svg width="177" height="177" viewBox="0 0 177 177" fill="none" xmlns="http://www.w3.org/2000/svg">
<circle cx="88.5" cy="88.5" r="88.5" fill="#4353FF"/>
<path d="M88 84.3409C93.6592 84.3409 98.2634 79.7366 98.2634 74.0761C98.2634 68.417 93.6592 63.8127 88 63.8127C82.3408 63.8127 77.7366 68.417 77.7366 74.0761C77.7366 79.7366 82.3408 84.3409 88 84.3409Z" fill="white"/>
<path d="M70.1504 107.931V115.549H105.85V107.931C105.85 98.0887 97.8419 90.0811 88 90.0811C78.1581 90.0811 70.1504 98.0887 70.1504 107.931Z" fill="white"/>
<path d="M111.017 79.6699C115.903 79.6699 119.839 75.707 119.839 70.8213C119.839 65.9627 115.903 61.9999 111.017 61.9999C106.108 61.9699 102.191 66.0753 102.196 70.8213C102.181 75.6199 106.137 79.6719 111.017 79.6699Z" fill="white"/>
<path d="M111.018 83.2793C106.702 83.2793 102.821 85.098 100.079 88.0565C105.969 91.6393 110.149 97.7737 111.072 104.912H126V98.235C126 89.9837 119.269 83.2793 111.018 83.2793Z" fill="white"/>
<path d="M64.9829 79.6699C69.8636 79.6719 73.8189 75.6201 73.8043 70.8213C73.8088 66.0752 69.8915 61.9699 64.9829 61.9999C60.0971 61.9999 56.1615 65.9627 56.1615 70.8213C56.1615 75.707 60.0971 79.6699 64.9829 79.6699Z" fill="white"/>
<path d="M75.9214 88.0565C73.1799 85.098 69.2985 83.2793 64.9829 83.2793C56.7314 83.2793 50 89.9837 50 98.235V104.912H64.9286C65.8515 97.7737 70.0314 91.6393 75.9214 88.0565Z" fill="white"/>
</svg>
