<svg width="40" height="30" viewBox="0 0 40 30" fill="none" xmlns="http://www.w3.org/2000/svg">
<path d="M34.59 22.2367L30 21.0883L29.815 20.35C32.9583 19.7883 34.59 18.84 34.6633 18.795C34.8983 18.6567 35.045 18.4067 35.065 18.135C35.085 17.8617 34.9633 17.5933 34.7517 17.4217C34.73 17.405 32.61 15.6167 32.61 9.45667C32.61 4 31.2933 1.23167 28.6967 1.23167H28.4183C27.525 0.39 26.795 0.0283334 25.18 0.00500003C24.8917 0.0133334 24.5917 0.176666 24.445 0.446666C24.2967 0.716666 24.315 1.055 24.4833 1.31333C25.8383 3.38333 25.8267 5.53167 24.4483 7.20667C24.1917 7.51833 24.1967 7.97 24.4567 8.27667C25.1317 9.07 25.445 10.1167 25.315 11.1517L25.0067 13.6167C24.8883 14.565 24.4133 15.4233 23.6717 16.035C23.54 16.1433 23.445 16.2883 23.3983 16.4517C23.1617 17.2933 22.8183 18.1067 22.3767 18.87C22.245 19.0967 22.23 19.3717 22.3317 19.6117C22.435 19.8533 22.6433 20.0317 22.8967 20.095L24.995 20.6183C28.9233 21.6017 31.6667 25.1167 31.6667 29.1667C31.6667 29.6267 32.04 30 32.5 30H39.1667C39.6267 30 40 29.6233 40 29.1633C40 25.8817 37.7767 23.0317 34.59 22.2367ZM24.59 22.2367L19.9983 21.09L19.6583 19.7283C20.875 18.485 21.715 16.8183 21.995 15.0983C22.7117 14.8433 23.2533 14.2 23.3517 13.4083L23.66 10.945C23.7317 10.3617 23.5533 9.775 23.1683 9.33333C22.9783 9.11667 22.7467 8.94333 22.49 8.82167L22.5933 6.73833L22.9983 6.33167C23.7467 5.53667 24.3683 4.17833 23.0883 2.225C22.1217 0.748333 20.4917 0 18.24 0C17.3717 0 15.38 1.98682e-07 13.5033 1.23667C8.09333 1.37167 7.39167 4.04833 7.39167 6.37667C7.39167 6.905 7.50833 8.01667 7.59667 8.78167C7.31 8.9 7.05167 9.08333 6.84167 9.32167C6.45 9.76667 6.26667 10.3583 6.34 10.945L6.64833 13.4083C6.75333 14.2533 7.365 14.9283 8.15333 15.145C8.43167 16.7933 9.22833 18.4 10.37 19.6167L10.0017 21.09L5.41 22.2367C2.22333 23.0317 0 25.8817 0 29.1667C0 29.6267 0.373333 30 0.833333 30H29.1667C29.6267 30 30 29.6233 30 29.1633C30 25.8817 27.7767 23.0317 24.59 22.2367Z" fill="#4353FF"/>
</svg>
