<svg width="177" height="177" viewBox="0 0 177 177" fill="none" xmlns="http://www.w3.org/2000/svg">
<circle cx="88.5" cy="88.5" r="88.5" fill="#4353FF"/>
<path d="M48.71 66.5516V121.557C48.71 121.557 48.7363 123.48 49.674 125.355C50.6117 127.231 52.4148 129 56.1494 129H121.559C125.309 129 127.097 127.231 128.035 125.355C128.972 123.48 129.002 121.557 129.002 121.557V66.5516H48.71ZM64.91 71.0089C64.9607 71.0076 65.0099 71.0089 65.061 71.0089C67.8173 71.0089 70.1582 72.916 70.822 75.4748H83.0962C83.7601 72.916 86.098 71.0089 88.8543 71.0089C91.6107 71.0089 93.9515 72.916 94.6154 75.4748H106.887C107.548 72.916 109.88 71.0089 112.636 71.0089C115.903 71.0089 118.586 73.689 118.586 76.9557C118.586 80.2225 115.903 82.9055 112.636 82.9055C109.884 82.9055 107.555 81.0014 106.89 78.4483H99.5837C105.347 81.9202 109.191 88.0619 109.622 94.9822C112.201 95.6319 114.131 97.9783 114.131 100.749C114.131 104.016 111.448 106.699 108.182 106.699C104.915 106.699 102.232 104.016 102.232 100.749C102.232 98.0094 104.119 95.6825 106.654 95.0026C106.137 87.736 101.245 81.5221 94.3163 79.302C93.4 81.4143 91.2898 82.9055 88.8543 82.9055C86.4188 82.9055 84.3115 81.4143 83.3953 79.302C76.4665 81.5216 71.5752 87.736 71.0572 95.0026C73.5915 95.6834 75.4767 98.0103 75.4767 100.749C75.4767 104.016 72.7966 106.699 69.5299 106.699C66.2631 106.699 63.5801 104.016 63.5801 100.749C63.5801 97.9834 65.5032 95.6399 68.0751 94.9851C68.506 88.0625 72.3591 81.9195 78.1279 78.4483H70.8191C70.1512 81.0013 67.8132 82.9055 65.061 82.9055C61.7942 82.9055 59.1257 80.2225 59.1257 76.9557C59.1257 73.74 61.7131 71.0909 64.91 71.0089ZM65.061 73.9823C63.4012 73.9823 62.0992 75.296 62.0992 76.9557C62.0992 78.6155 63.4012 79.9292 65.061 79.9292C66.7208 79.9292 68.0344 78.6155 68.0344 76.9557C68.0344 75.296 66.7208 73.9823 65.061 73.9823ZM88.8543 73.9823C87.1945 73.9823 85.8809 75.296 85.8809 76.9557C85.8809 78.6155 87.1945 79.9292 88.8543 79.9292C90.5141 79.9292 91.8307 78.6155 91.8307 76.9557C91.8307 75.296 90.5141 73.9823 88.8543 73.9823ZM112.636 73.9823C110.976 73.9823 109.663 75.296 109.663 76.9557C109.663 78.6155 110.976 79.9292 112.636 79.9292C114.296 79.9292 115.612 78.6155 115.612 76.9557C115.612 75.296 114.296 73.9823 112.636 73.9823ZM88.8543 93.3097C89.0644 93.3107 89.2719 93.3563 89.4631 93.4434C89.6543 93.5305 89.8249 93.6571 89.9636 93.8149L101.86 107.193C102.028 107.382 102.144 107.612 102.198 107.86C102.252 108.107 102.241 108.364 102.168 108.607L97.7108 123.48C97.6173 123.785 97.4282 124.051 97.1715 124.241C96.9148 124.43 96.604 124.532 96.285 124.531H81.4265C81.1071 124.532 80.7956 124.431 80.5383 124.242C80.281 124.052 80.0915 123.785 79.9979 123.48L75.5319 108.607C75.4601 108.363 75.4517 108.106 75.5076 107.858C75.5635 107.61 75.6818 107.381 75.8513 107.193L87.748 93.8149C87.8864 93.6575 88.0565 93.5311 88.2471 93.444C88.4378 93.3569 88.6447 93.3112 88.8543 93.3097ZM69.5299 97.7757C67.8701 97.7756 66.5535 99.0893 66.5535 100.749C66.5535 102.409 67.8701 103.725 69.5299 103.725C71.1897 103.725 72.5033 102.409 72.5033 100.749C72.5033 99.0893 71.1897 97.7756 69.5299 97.7757ZM108.182 97.7757C106.522 97.7756 105.208 99.0893 105.208 100.749C105.208 102.409 106.522 103.725 108.182 103.725C109.841 103.725 111.155 102.409 111.155 100.749C111.155 99.0893 109.841 97.7756 108.182 97.7757ZM90.3352 98.7049V106.699H87.3618V98.7194L78.6273 108.543L82.5212 121.557H95.1758L99.0843 108.543L90.3352 98.7049Z" fill="white"/>
<path d="M56.1494 48.7095C52.41 48.7095 50.6117 50.4782 49.674 52.3537C48.7363 54.2292 48.71 56.1489 48.71 56.1489V63.5796H129.002V56.1489C129.002 52.3953 127.233 50.6113 125.357 49.6735C123.482 48.7358 121.559 48.7095 121.559 48.7095H56.1494ZM57.517 51.6829C57.555 51.6819 57.5921 51.6829 57.6303 51.6829C60.076 51.6829 62.0992 53.7032 62.0992 56.1489C62.0992 58.5946 60.076 60.6061 57.6303 60.6061C55.1846 60.6061 53.1759 58.5946 53.1759 56.1489C53.1759 53.7414 55.1234 51.7447 57.517 51.6829ZM67.9212 51.6829C67.9592 51.6819 67.9962 51.6829 68.0344 51.6829C70.4801 51.6829 72.5033 53.7032 72.5033 56.1489C72.5033 58.5946 70.4801 60.6061 68.0344 60.6061C65.5888 60.6061 63.5801 58.5946 63.5801 56.1489C63.5801 53.7414 65.5275 51.7447 67.9212 51.6829ZM78.3369 51.6829C78.3749 51.6819 78.412 51.6829 78.4502 51.6829C80.8959 51.6829 82.9074 53.7032 82.9074 56.1489C82.9074 58.5946 80.8959 60.6061 78.4502 60.6061C76.0045 60.6061 73.9842 58.5946 73.9842 56.1489C73.9842 53.7414 75.9429 51.7447 78.3369 51.6829ZM57.6303 54.6564C56.7916 54.6564 56.1494 55.3102 56.1494 56.1489C56.1494 56.9876 56.7916 57.6298 57.6303 57.6298C58.469 57.6298 59.1257 56.9876 59.1257 56.1489C59.1257 55.3102 58.469 54.6564 57.6303 54.6564ZM68.0344 54.6564C67.1957 54.6564 66.5535 55.3102 66.5535 56.1489C66.5535 56.9876 67.1957 57.6298 68.0344 57.6298C68.8731 57.6298 69.5299 56.9876 69.5299 56.1489C69.5299 55.3102 68.8731 54.6564 68.0344 54.6564ZM78.4502 54.6564C77.6115 54.6564 76.9577 55.3102 76.9577 56.1489C76.9577 56.9876 77.6115 57.6298 78.4502 57.6298C79.2889 57.6298 79.9311 56.9876 79.9311 56.1489C79.9311 55.3102 79.2889 54.6564 78.4502 54.6564Z" fill="white"/>
</svg>
