<svg width="267" height="267" viewBox="0 0 267 267" fill="none" xmlns="http://www.w3.org/2000/svg">
<rect width="267" height="267" rx="51" fill="url(#paint0_linear_1065_110)"/>
<rect x="7" y="7" width="253" height="253" rx="43" fill="#D9D9D9"/>
<rect x="7" y="7" width="253" height="253" rx="43" fill="url(#paint1_linear_1065_110)"/>
<rect x="11" y="11" width="245" height="245" rx="43" fill="#D9D9D9"/>
<rect x="11" y="11" width="245" height="245" rx="43" fill="url(#paint2_linear_1065_110)"/>
<g style="mix-blend-mode:overlay">
<path d="M167.565 164.602L149.307 134.003L167.565 103.404L176.499 134.003L167.565 164.602ZM127.19 161.631L104.25 139.1H140.807L159.064 169.699L127.19 161.631ZM127.19 105.942L159.064 97.8738L140.807 128.473H103.817C103.817 128.906 127.19 105.942 127.19 105.942ZM173.94 83L132.309 93.6246L125.934 104.249H113.596L83 134L113.596 163.751H125.934L131.876 174.375L173.529 185L184.567 144.621L178.625 133.997L185 123.372L173.94 83Z" fill="white"/>
</g>
<defs>
<linearGradient id="paint0_linear_1065_110" x1="133.5" y1="0" x2="133.5" y2="267" gradientUnits="userSpaceOnUse">
<stop stop-color="#6D7AFF"/>
<stop offset="0.435" stop-color="#2631AB"/>
<stop offset="1" stop-color="#4353FF"/>
</linearGradient>
<linearGradient id="paint1_linear_1065_110" x1="236.5" y1="249.5" x2="21" y2="32.5" gradientUnits="userSpaceOnUse">
<stop stop-color="#6D7AFF"/>
<stop offset="0.435" stop-color="#2631AB"/>
<stop offset="1" stop-color="#4353FF"/>
</linearGradient>
<linearGradient id="paint2_linear_1065_110" x1="133.5" y1="11" x2="87" y2="268" gradientUnits="userSpaceOnUse">
<stop stop-color="#4353FF"/>
<stop offset="1" stop-color="#6D7AFF"/>
</linearGradient>
</defs>
</svg>
