<svg width="177" height="177" viewBox="0 0 177 177" fill="none" xmlns="http://www.w3.org/2000/svg">
<circle cx="88.5" cy="88.5" r="88.5" fill="#4353FF"/>
<path d="M123.15 76.4667C118.685 75.292 89.6468 71.6572 55.8496 76.3C55.5163 76.35 55.1829 76.4167 54.8496 76.5002C57.7496 73.9 62.2496 72.7335 67.4496 72.2333C73.1496 71.7167 77.9329 71.45 81.4829 71.35C81.6829 70.2 83.0663 62.5 83.2163 61.75C83.2829 61.3167 83.7163 61 84.1996 61H93.7829C94.2829 61 94.6996 61.3167 94.7829 61.75C94.8163 61.9167 96.4996 71.3 96.4996 71.3167C101.983 71.4667 106.3 71.7833 110.583 72.1833C115.766 72.6667 120.25 73.85 123.15 76.4667Z" fill="white"/>
<path d="M126.633 89.2107V84.14C126.633 81.4347 124.6 79.1342 121.85 78.7454C100.317 75.6835 78.4333 75.7322 56.1833 78.7779C53.4167 79.1505 51.35 81.4509 51.35 84.1725V89.2107H49V102.9H51.35V108.181C51.35 111 53.5667 113.349 56.45 113.608L79.8 115.633C81.7 115.633 83.3833 114.434 83.9333 112.668L84.85 109.736C86.1 105.767 91.8833 105.767 93.1333 109.736L94.05 112.668C94.6 114.434 96.2833 115.633 98.1833 115.633L121.533 113.608C123.567 113.43 125.267 112.215 126.083 110.53C126.45 109.817 126.633 109.007 126.633 108.181V102.9H129V89.2107H126.633ZM68.9667 104.916C63.7667 104.916 59.55 100.7 59.55 95.4997C59.55 90.2997 63.7667 86.083 68.9667 86.083C74.1667 86.083 78.3833 90.2997 78.3833 95.4997C78.3833 100.7 74.1667 104.916 68.9667 104.916ZM109.033 104.916C103.833 104.916 99.6167 100.7 99.6167 95.4997C99.6167 90.2997 103.833 86.083 109.033 86.083C114.233 86.083 118.45 90.2997 118.45 95.4997C118.45 100.7 114.233 104.916 109.033 104.916Z" fill="white"/>
<path d="M109.033 88.5163C105.167 88.5163 102.05 91.6329 102.05 95.4996C102.05 99.3496 105.167 102.466 109.033 102.466C112.883 102.466 116.017 99.3496 116.017 95.4996C116.017 91.6329 112.883 88.5163 109.033 88.5163ZM109.033 99.4663C106.833 99.4663 105.05 97.6829 105.05 95.4996C105.05 93.2996 106.833 91.5163 109.033 91.5163C111.217 91.5163 113 93.2996 113 95.4996C113 97.6829 111.217 99.4663 109.033 99.4663Z" fill="white"/>
<path d="M68.9667 88.5163C65.1001 88.5163 61.9834 91.6329 61.9834 95.4996C61.9834 99.3496 65.1001 102.466 68.9667 102.466C72.8167 102.466 75.9334 99.3496 75.9334 95.4996C75.9334 91.6329 72.8167 88.5163 68.9667 88.5163ZM68.9667 99.4663C66.7667 99.4663 64.9834 97.6829 64.9834 95.4996C64.9834 93.2996 66.7667 91.5163 68.9667 91.5163C71.1501 91.5163 72.9334 93.2996 72.9334 95.4996C72.9334 97.6829 71.1501 99.4663 68.9667 99.4663Z" fill="white"/>
</svg>
