<svg width="177" height="177" viewBox="0 0 177 177" fill="none" xmlns="http://www.w3.org/2000/svg">
<circle cx="88.5" cy="88.5" r="88.5" fill="#4353FF"/>
<path d="M106.024 119.608H71.9949V125H106.024V119.608ZM94.9491 112.014L92.3328 109.17H85.6686L77.9019 117.619H100.083L94.9491 112.014ZM112.49 66.8083V91.4162C112.49 94.8025 109.709 97.5806 106.319 97.5806H71.6981C68.3085 97.5806 65.5276 94.8025 65.5276 91.4162V66.8083H61.8418V102.151H116.175V66.8083H112.49ZM112.49 61.7617V64.8356H118.15V104.124H59.8672V64.8356H65.5276V61.7617H56V107.214H122V61.7617H112.49ZM67.5027 61.6466H110.516V57.1918C110.516 54.8904 108.623 53 106.32 53H71.6987C69.395 53 67.5027 54.8904 67.5027 57.1918V61.6466ZM67.7989 63.6193H67.5027V91.4162C67.5027 93.7176 69.395 95.608 71.6987 95.608H106.32C108.623 95.608 110.516 93.7176 110.516 91.4162V63.6193H67.7989ZM73.0315 85.8934H72.0442V83.9207H83.5129V85.8934H73.0315ZM73.0315 79.4824H72.0442V77.5098H79.4982V79.4824H73.0315ZM73.0315 73.0714H72.0442V71.0988H82.2626V73.0714H73.0315ZM73.0315 92.3047H72.0442V90.332H103.144V92.3047H73.0315ZM73.9694 58.1954H72.9821V56.2227H74.9732V58.1954H73.9694ZM79.383 58.1954H78.3957V56.2227H80.3868V58.1954H79.383ZM84.7967 58.1954H83.8094V56.2227H85.8004V58.1954H84.7967ZM89.5027 71.6095L88.7128 72.9739L90.5558 74.2067C90.2596 75.1765 90.0786 75.7848 90.0786 76.8369C90.0786 77.9053 90.2761 78.53 90.5558 79.4834L88.7128 80.7162L89.5027 82.0806L91.4937 81.0943C92.1848 81.8176 92.6126 82.2943 93.5341 82.8368C94.4556 83.3792 95.0808 83.5107 96.0681 83.7409L96.2162 85.9436H97.7959L97.944 83.7409C98.9313 83.5107 99.5566 83.3792 100.478 82.8368C101.399 82.3107 101.827 81.834 102.518 81.0943L104.509 82.0806L105.299 80.7162L103.456 79.4834C103.736 78.5136 103.934 77.9053 103.934 76.8533C103.934 75.7848 103.736 75.1765 103.456 74.2067L105.299 72.9739L104.509 71.6095L102.518 72.5958C101.827 71.8725 101.383 71.3958 100.478 70.8534C99.5565 70.3109 98.9148 70.1794 97.944 69.9493L97.7959 67.7465H96.2162L96.0681 69.9493C95.0973 70.1794 94.4555 70.3274 93.5341 70.8534C92.6127 71.3794 92.1848 71.8725 91.4937 72.5958L89.5027 71.6095ZM86.5408 72.793L88.7128 69.0451L91.0823 70.2122C91.9873 69.4067 93.0569 68.7985 94.1923 68.4204L94.3733 65.7739H99.6388L99.8033 68.404C100.939 68.7821 102.008 69.4067 102.913 70.1958L105.283 69.0287L107.915 73.5821L105.711 75.0452C105.957 76.2287 105.957 77.4452 105.711 78.6287L107.915 80.0917L105.283 84.6452L102.913 83.4781C102.008 84.2836 100.955 84.8918 99.8033 85.2699L99.6388 87.9H94.3733L94.1923 85.2699C93.0569 84.8918 91.9873 84.2835 91.0823 83.4781L88.7128 84.6452L86.0801 80.0917L88.285 78.6287C88.0382 77.4452 88.0382 76.2287 88.285 75.0452L86.0801 73.5657L86.5408 72.793ZM96.4299 74.6998C94.5047 75.2094 94.1756 77.8067 95.8869 78.793C96.9564 79.4012 98.3222 79.0396 98.931 77.9711C99.9183 76.2615 98.3551 74.1738 96.4299 74.6998ZM93.3693 74.7492C95.2452 71.4944 100.099 72.1847 101.054 75.7683C101.663 78.0039 100.313 80.3053 98.0754 80.9135C94.4718 81.8833 91.5099 77.971 93.3693 74.7492Z" fill="white"/>
</svg>
