<svg width="267" height="267" viewBox="0 0 267 267" fill="none" xmlns="http://www.w3.org/2000/svg">
<rect width="267" height="267" rx="51" fill="url(#paint0_linear_1065_116)"/>
<rect x="7" y="7" width="253" height="253" rx="43" fill="#D9D9D9"/>
<rect x="7" y="7" width="253" height="253" rx="43" fill="url(#paint1_linear_1065_116)"/>
<rect x="11" y="11" width="245" height="245" rx="43" fill="#D9D9D9"/>
<rect x="11" y="11" width="245" height="245" rx="43" fill="url(#paint2_linear_1065_116)"/>
<g style="mix-blend-mode:soft-light">
<g style="mix-blend-mode:soft-light">
<path fill-rule="evenodd" clip-rule="evenodd" d="M195 134C195 167.689 167.689 195 134 195C100.31 195 72.9993 167.689 72.9993 134C72.9993 100.31 100.31 72.9994 134 72.9994C167.689 72.9994 195 100.31 195 134ZM146.931 144.095C147.327 142.692 152.604 126.161 152.604 126.161C155.135 119.359 160.046 112.985 169.379 112.985L156.203 145.529C153.458 152.056 148.364 158.034 138.94 158.034C138.94 158.034 134.944 130.187 134.883 129.547C134.639 130.218 128.997 144.858 128.997 144.858C126.343 151.629 121.28 158.003 111.856 158.034L104.475 113.015C110.605 113.015 118.169 118.048 118.718 126.344C118.718 126.344 119.664 142.845 119.694 144.156C120.213 142.753 126.618 126.161 126.618 126.161C129.149 119.359 133.938 112.985 142.935 112.985C142.935 112.985 146.778 142.692 146.931 144.095Z" fill="white"/>
</g>
</g>
<defs>
<linearGradient id="paint0_linear_1065_116" x1="133.5" y1="0" x2="133.5" y2="267" gradientUnits="userSpaceOnUse">
<stop stop-color="#6D7AFF"/>
<stop offset="0.435" stop-color="#2631AB"/>
<stop offset="1" stop-color="#4353FF"/>
</linearGradient>
<linearGradient id="paint1_linear_1065_116" x1="236.5" y1="249.5" x2="21" y2="32.5" gradientUnits="userSpaceOnUse">
<stop stop-color="#6D7AFF"/>
<stop offset="0.435" stop-color="#2631AB"/>
<stop offset="1" stop-color="#4353FF"/>
</linearGradient>
<linearGradient id="paint2_linear_1065_116" x1="133.5" y1="11" x2="87" y2="268" gradientUnits="userSpaceOnUse">
<stop stop-color="#4353FF"/>
<stop offset="1" stop-color="#6D7AFF"/>
</linearGradient>
</defs>
</svg>
