<svg width="28" height="26" viewBox="0 0 28 26" fill="none" xmlns="http://www.w3.org/2000/svg">
<path d="M23.5181 10.8417L18.1791 3.91199C17.4344 3.01856 16.4029 2.41065 15.2597 2.19058C14.5626 2.04426 8.09915 1.48513 7.64476 1.04615V1.04496C7.53055 0.991426 7.39969 0.985478 7.28073 1.0283C7.16177 1.07113 7.06422 1.15917 7.01068 1.27456C6.7442 2.04543 7.9493 2.14539 8.47157 2.31191L15.1098 3.13039C16.0199 3.31003 16.8408 3.79659 17.4356 4.50799L21.8564 10.2445C20.6013 9.96015 19.2939 10.0065 18.0614 10.3789L17.1156 9.37246L15.5096 7.79736C14.9434 7.23943 14.1796 6.92654 13.3837 6.92654H10.2085C9.66961 6.9301 9.15568 7.14781 8.77737 7.53088C8.40025 7.91394 8.18968 8.43143 8.19443 8.96918L8.2099 9.89948H8.20871C8.20871 10.4324 8.49542 10.925 8.96058 11.1879L14.1224 14.1644C15.1693 14.8782 14.0534 16.3105 13.1159 16.477C12.6817 16.5936 12.2189 16.533 11.8299 16.3093L5.27146 12.5225C4.61001 12.1407 2.41512 10.7559 1.93573 8.93922V8.93803C1.86435 8.6882 1.60621 8.54068 1.3552 8.60732C1.10419 8.67395 0.951916 8.92852 1.01377 9.18191C1.58599 11.3554 4.05332 12.9196 4.79444 13.3481L11.3517 17.1337C11.7526 17.3657 12.207 17.4882 12.6698 17.487C12.7959 21.4781 15.9626 25.0414 20.2013 24.9996C28.0779 24.8985 30.5203 14.4272 23.5181 10.8417ZM14.1889 13.1032L9.4303 10.3587C9.26137 10.2635 9.15906 10.0851 9.16144 9.89117L9.14598 8.95492V8.95611C9.1436 8.36605 9.61827 7.88425 10.2083 7.87947H13.3836C13.9296 7.87947 14.4542 8.0948 14.8421 8.47785L16.435 10.0387L17.0941 10.7394V10.7406C15.9413 11.2688 14.9407 12.0825 14.1889 13.1032ZM20.2001 24.0469C18.4311 24.0457 16.7383 23.3236 15.5116 22.0495C14.2839 20.7742 13.6284 19.0551 13.6938 17.2872C14.6205 16.9232 15.4949 15.9941 15.4961 14.9448H15.4973C15.502 14.4582 15.3141 13.9895 14.9738 13.6398C15.878 12.4347 17.1699 11.5781 18.6321 11.2141C20.0941 10.8513 21.6371 11.0035 23.0005 11.6448C29.2069 14.7021 27.1332 23.9552 20.2001 24.0469Z" fill="#4353FF"/>
<path d="M20.2013 24.0469H20.2001M20.2001 24.0469C18.4311 24.0457 16.7383 23.3236 15.5116 22.0495C14.2839 20.7742 13.6284 19.0551 13.6938 17.2872C14.6205 16.9232 15.4949 15.9941 15.4961 14.9448H15.4973C15.502 14.4582 15.3141 13.9895 14.9738 13.6398C15.878 12.4347 17.1699 11.5781 18.6321 11.2141C20.0941 10.8513 21.6371 11.0035 23.0005 11.6448C29.2069 14.7021 27.1332 23.9552 20.2001 24.0469ZM23.5181 10.8417L18.1791 3.91199C17.4344 3.01856 16.4029 2.41065 15.2597 2.19058C14.5626 2.04426 8.09915 1.48513 7.64476 1.04615V1.04496C7.53055 0.991426 7.39969 0.985478 7.28073 1.0283C7.16177 1.07113 7.06422 1.15917 7.01068 1.27456C6.7442 2.04543 7.9493 2.14539 8.47157 2.31191L15.1098 3.13039C16.0199 3.31003 16.8408 3.79659 17.4356 4.50799L21.8564 10.2445C20.6013 9.96015 19.2939 10.0065 18.0614 10.3789L17.1156 9.37246L15.5096 7.79736C14.9434 7.23943 14.1796 6.92654 13.3837 6.92654H10.2085C9.66961 6.9301 9.15568 7.14781 8.77737 7.53088C8.40025 7.91394 8.18968 8.43143 8.19443 8.96918L8.2099 9.89948H8.20871C8.20871 10.4324 8.49542 10.925 8.96058 11.1879L14.1224 14.1644C15.1693 14.8782 14.0534 16.3105 13.1159 16.477C12.6817 16.5936 12.2189 16.533 11.8299 16.3093L5.27146 12.5225C4.61001 12.1407 2.41512 10.7559 1.93573 8.93922V8.93803C1.86435 8.6882 1.60621 8.54068 1.3552 8.60732C1.10419 8.67395 0.951916 8.92852 1.01377 9.18191C1.58599 11.3554 4.05332 12.9196 4.79444 13.3481L11.3517 17.1337C11.7526 17.3657 12.207 17.4882 12.6698 17.487C12.7959 21.4781 15.9626 25.0414 20.2013 24.9996C28.0779 24.8985 30.5203 14.4272 23.5181 10.8417ZM14.1889 13.1032L9.4303 10.3587C9.26137 10.2635 9.15906 10.0851 9.16144 9.89117L9.14598 8.95492V8.95611C9.1436 8.36605 9.61827 7.88425 10.2083 7.87947H13.3836C13.9296 7.87947 14.4542 8.0948 14.8421 8.47785L16.435 10.0387L17.0941 10.7394V10.7406C15.9413 11.2688 14.9407 12.0825 14.1889 13.1032Z" stroke="#4353FF" stroke-width="0.5"/>
<path d="M22.7437 14.6153C23.0042 14.6117 23.2136 14.4 23.2136 14.1394C23.2136 13.8789 23.0042 13.6671 22.7437 13.6624H20.6772V12.8677C20.6713 12.6084 20.4607 12.4014 20.2002 12.4014C19.9409 12.4014 19.7291 12.6084 19.7243 12.8677V13.6624H19.3532C16.2422 13.842 16.6086 18.2781 19.7243 18.0059V20.4434L17.6579 20.4446C17.3974 20.4482 17.1892 20.66 17.1892 20.9205C17.1892 21.181 17.3974 21.3928 17.6579 21.3963H19.7243V22.1922C19.7243 22.4551 19.9373 22.6681 20.2002 22.6681C20.4643 22.6681 20.6772 22.4551 20.6772 22.1922V21.3963C23.9962 21.6664 24.0629 16.7949 20.6772 17.0529V14.6153L22.7437 14.6153ZM19.7243 17.0529C17.6092 17.2813 17.6103 14.3869 19.7243 14.6153V17.0529ZM20.6772 18.0058H21.0484C21.7158 18.0129 22.2535 18.5566 22.2535 19.2252C22.2535 19.8925 21.7158 20.4362 21.0484 20.4445H20.6772V18.0058Z" fill="#4353FF" stroke="#4353FF" stroke-width="0.5"/>
</svg>
