<svg width="267" height="267" viewBox="0 0 267 267" fill="none" xmlns="http://www.w3.org/2000/svg">
<rect width="267" height="267" rx="51" fill="url(#paint0_linear_1065_209)"/>
<rect x="7" y="7" width="253" height="253" rx="43" fill="#D9D9D9"/>
<rect x="7" y="7" width="253" height="253" rx="43" fill="url(#paint1_linear_1065_209)"/>
<rect x="11" y="11" width="245" height="245" rx="43" fill="#D9D9D9"/>
<rect x="11" y="11" width="245" height="245" rx="43" fill="url(#paint2_linear_1065_209)"/>
<g style="mix-blend-mode:soft-light">
<path fill-rule="evenodd" clip-rule="evenodd" d="M74.8076 133.996C74.8076 157.425 88.4233 177.672 108.167 187.267L79.9322 109.907C76.5475 117.487 74.8012 125.695 74.8076 133.996ZM173.956 131.009C173.956 123.694 171.329 118.628 169.075 114.685C168.843 114.308 168.612 113.935 168.383 113.566C165.656 109.166 163.262 105.303 163.262 100.805C163.262 95.3637 167.389 90.2988 173.202 90.2988C173.371 90.2988 173.535 90.3124 173.698 90.326C173.788 90.3335 173.878 90.3409 173.969 90.3461C163.438 80.6984 149.408 74.8079 133.998 74.8079C113.32 74.8079 95.1269 85.4175 84.5432 101.487C85.9319 101.529 87.2407 101.558 88.3523 101.558C94.5435 101.558 104.127 100.807 104.127 100.807C107.318 100.619 107.694 105.305 104.507 105.683C104.507 105.683 101.3 106.06 97.732 106.247L119.287 170.361L132.24 131.512L123.018 106.245C119.831 106.058 116.811 105.68 116.811 105.68C113.622 105.493 113.995 100.617 117.185 100.805C117.185 100.805 126.96 101.556 132.776 101.556C138.966 101.556 148.551 100.805 148.551 100.805C151.744 100.617 152.119 105.303 148.931 105.68C148.931 105.68 145.717 106.058 142.156 106.245L163.546 169.873L169.45 150.144C169.608 149.639 169.764 149.142 169.917 148.654C172.242 141.234 173.956 135.764 173.956 131.009Z" fill="white"/>
</g>
<defs>
<linearGradient id="paint0_linear_1065_209" x1="133.5" y1="0" x2="133.5" y2="267" gradientUnits="userSpaceOnUse">
<stop stop-color="#6D7AFF"/>
<stop offset="0.435" stop-color="#2631AB"/>
<stop offset="1" stop-color="#4353FF"/>
</linearGradient>
<linearGradient id="paint1_linear_1065_209" x1="236.5" y1="249.5" x2="21" y2="32.5" gradientUnits="userSpaceOnUse">
<stop stop-color="#6D7AFF"/>
<stop offset="0.435" stop-color="#2631AB"/>
<stop offset="1" stop-color="#4353FF"/>
</linearGradient>
<linearGradient id="paint2_linear_1065_209" x1="133.5" y1="11" x2="87" y2="268" gradientUnits="userSpaceOnUse">
<stop stop-color="#4353FF"/>
<stop offset="1" stop-color="#6D7AFF"/>
</linearGradient>
</defs>
</svg>
